G75*
%MOIN*%
%OFA0B0*%
%FSLAX25Y25*%
%IPPOS*%
%LPD*%
%AMOC8*
5,1,8,0,0,1.08239X$1,22.5*
%
%ADD10C,0.07400*%
%ADD11R,0.07400X0.07400*%
%ADD12C,0.05943*%
%ADD13R,0.05943X0.05943*%
%ADD14OC8,0.07400*%
%ADD15R,0.01575X0.05315*%
%ADD16R,0.06299X0.05512*%
%ADD17R,0.06299X0.07480*%
%ADD18C,0.06731*%
%ADD19C,0.05550*%
%ADD20C,0.01575*%
%ADD21R,0.03962X0.03962*%
%ADD22C,0.01000*%
D10*
X0027992Y0071965D03*
X0037992Y0071965D03*
X0047992Y0071965D03*
X0052992Y0081965D03*
X0042992Y0081965D03*
X0032992Y0081965D03*
X0022992Y0081965D03*
X0084606Y0081965D03*
X0094606Y0081965D03*
X0104606Y0081965D03*
X0114606Y0081965D03*
X0109606Y0071965D03*
X0099606Y0071965D03*
X0089606Y0071965D03*
D11*
X0079606Y0071965D03*
X0017992Y0071965D03*
X0115531Y0146138D03*
D12*
X0136555Y0147555D03*
X0136555Y0157555D03*
X0136555Y0167555D03*
X0136555Y0177555D03*
X0136555Y0187555D03*
X0196555Y0187555D03*
X0196555Y0177555D03*
X0196555Y0167555D03*
X0196555Y0147555D03*
X0196555Y0137555D03*
X0196555Y0127555D03*
X0196555Y0117555D03*
X0196555Y0107555D03*
X0196555Y0097555D03*
X0196555Y0087555D03*
X0196555Y0077555D03*
X0196555Y0067555D03*
X0196555Y0057555D03*
X0196555Y0047555D03*
X0196555Y0037555D03*
X0196555Y0027555D03*
X0136555Y0027555D03*
X0136555Y0037555D03*
X0136555Y0047555D03*
X0136555Y0057555D03*
X0136555Y0067555D03*
X0136555Y0077555D03*
X0136555Y0087555D03*
X0136555Y0097555D03*
X0136555Y0107555D03*
X0136555Y0117555D03*
X0136555Y0127555D03*
D13*
X0136555Y0137555D03*
X0196555Y0157555D03*
D14*
X0115531Y0156138D03*
X0115531Y0166138D03*
X0115531Y0176138D03*
X0105531Y0176138D03*
X0105531Y0166138D03*
X0105531Y0156138D03*
X0105531Y0146138D03*
D15*
X0140216Y0019898D03*
X0142775Y0019898D03*
X0145334Y0019898D03*
X0147893Y0019898D03*
X0150452Y0019898D03*
X0179940Y0019898D03*
X0182499Y0019898D03*
X0185059Y0019898D03*
X0187618Y0019898D03*
X0190177Y0019898D03*
D16*
X0197657Y0019012D03*
X0172460Y0019012D03*
X0157933Y0019012D03*
X0132736Y0019012D03*
D17*
X0141200Y0009366D03*
X0149468Y0009366D03*
X0180925Y0009366D03*
X0189192Y0009366D03*
D18*
X0198051Y0009366D03*
X0172066Y0009366D03*
X0158326Y0009366D03*
X0132342Y0009366D03*
D19*
X0036152Y0118885D03*
X0022233Y0104965D03*
D20*
X0150452Y0029248D02*
X0150452Y0019898D01*
X0182736Y0029248D02*
X0186673Y0029248D01*
X0190177Y0025744D01*
X0190177Y0019898D01*
D21*
X0182736Y0029248D03*
X0182736Y0041374D03*
X0176830Y0057555D03*
X0188641Y0067555D03*
X0176830Y0072555D03*
X0161082Y0077555D03*
X0155177Y0082555D03*
X0149271Y0087555D03*
X0143366Y0097555D03*
X0125649Y0107555D03*
X0119744Y0104169D03*
X0125649Y0114248D03*
X0119744Y0127555D03*
X0143366Y0142634D03*
X0149271Y0152555D03*
X0155177Y0157555D03*
X0143366Y0172555D03*
X0143366Y0187555D03*
X0161082Y0192634D03*
X0188641Y0187555D03*
X0188641Y0163106D03*
X0188641Y0132594D03*
X0182736Y0122555D03*
X0111870Y0064681D03*
X0107933Y0058776D03*
X0103996Y0052870D03*
X0100059Y0046965D03*
X0096122Y0041059D03*
X0150452Y0029248D03*
X0068562Y0104169D03*
X0064625Y0109209D03*
X0060688Y0114248D03*
X0056751Y0119287D03*
X0052814Y0124327D03*
D22*
X0007070Y0041856D02*
X0007070Y0005157D01*
X0129885Y0005157D01*
X0129792Y0005205D01*
X0129172Y0005655D01*
X0128631Y0006197D01*
X0128181Y0006816D01*
X0127833Y0007498D01*
X0127596Y0008227D01*
X0127495Y0008866D01*
X0131842Y0008866D01*
X0131842Y0009866D01*
X0127495Y0009866D01*
X0127596Y0010505D01*
X0127833Y0011234D01*
X0128181Y0011916D01*
X0128631Y0012536D01*
X0129172Y0013077D01*
X0129792Y0013527D01*
X0130474Y0013875D01*
X0131203Y0014112D01*
X0131842Y0014213D01*
X0131842Y0009866D01*
X0132842Y0009866D01*
X0136551Y0009866D01*
X0140700Y0009866D01*
X0140700Y0008866D01*
X0136551Y0008866D01*
X0132842Y0008866D01*
X0132842Y0009866D01*
X0132842Y0014213D01*
X0133481Y0014112D01*
X0134210Y0013875D01*
X0134892Y0013527D01*
X0135512Y0013077D01*
X0136053Y0012536D01*
X0136503Y0011916D01*
X0136551Y0011823D01*
X0136551Y0013304D01*
X0136653Y0013685D01*
X0136850Y0014027D01*
X0137130Y0014307D01*
X0137472Y0014504D01*
X0137853Y0014606D01*
X0140700Y0014606D01*
X0140700Y0009866D01*
X0141700Y0009866D01*
X0141700Y0014606D01*
X0144547Y0014606D01*
X0144929Y0014504D01*
X0145271Y0014307D01*
X0145334Y0014243D01*
X0145397Y0014307D01*
X0145739Y0014504D01*
X0146121Y0014606D01*
X0148968Y0014606D01*
X0148968Y0009866D01*
X0148968Y0008866D01*
X0141700Y0008866D01*
X0141700Y0009866D01*
X0145850Y0009866D01*
X0148968Y0009866D01*
X0149968Y0009866D01*
X0154118Y0009866D01*
X0157826Y0009866D01*
X0157826Y0008866D01*
X0154118Y0008866D01*
X0149968Y0008866D01*
X0149968Y0009866D01*
X0149968Y0014606D01*
X0152815Y0014606D01*
X0153197Y0014504D01*
X0153539Y0014307D01*
X0153818Y0014027D01*
X0154015Y0013685D01*
X0154118Y0013304D01*
X0154118Y0011823D01*
X0154165Y0011916D01*
X0154615Y0012536D01*
X0155157Y0013077D01*
X0155776Y0013527D01*
X0156459Y0013875D01*
X0157187Y0014112D01*
X0157826Y0014213D01*
X0157826Y0009866D01*
X0158826Y0009866D01*
X0158826Y0014213D01*
X0159466Y0014112D01*
X0160194Y0013875D01*
X0160876Y0013527D01*
X0161496Y0013077D01*
X0162037Y0012536D01*
X0162487Y0011916D01*
X0162835Y0011234D01*
X0163072Y0010505D01*
X0163173Y0009866D01*
X0158826Y0009866D01*
X0158826Y0008866D01*
X0163173Y0008866D01*
X0163072Y0008227D01*
X0162835Y0007498D01*
X0162487Y0006816D01*
X0162037Y0006197D01*
X0161496Y0005655D01*
X0160876Y0005205D01*
X0160783Y0005157D01*
X0169610Y0005157D01*
X0169516Y0005205D01*
X0168897Y0005655D01*
X0168355Y0006197D01*
X0167905Y0006816D01*
X0167558Y0007498D01*
X0167321Y0008227D01*
X0167220Y0008866D01*
X0171566Y0008866D01*
X0171566Y0009866D01*
X0167220Y0009866D01*
X0167321Y0010505D01*
X0167558Y0011234D01*
X0167905Y0011916D01*
X0168355Y0012536D01*
X0168897Y0013077D01*
X0169516Y0013527D01*
X0170199Y0013875D01*
X0170927Y0014112D01*
X0171566Y0014213D01*
X0171566Y0009866D01*
X0172566Y0009866D01*
X0172566Y0014213D01*
X0173206Y0014112D01*
X0173934Y0013875D01*
X0174616Y0013527D01*
X0175236Y0013077D01*
X0175777Y0012536D01*
X0176228Y0011916D01*
X0176275Y0011823D01*
X0176275Y0013304D01*
X0176377Y0013685D01*
X0176575Y0014027D01*
X0176854Y0014307D01*
X0177196Y0014504D01*
X0177578Y0014606D01*
X0180425Y0014606D01*
X0180425Y0009866D01*
X0181425Y0009866D01*
X0185574Y0009866D01*
X0188692Y0009866D01*
X0188692Y0008866D01*
X0181425Y0008866D01*
X0181425Y0009866D01*
X0181425Y0014606D01*
X0184272Y0014606D01*
X0184653Y0014504D01*
X0184995Y0014307D01*
X0185059Y0014243D01*
X0185122Y0014307D01*
X0185464Y0014504D01*
X0185845Y0014606D01*
X0188692Y0014606D01*
X0188692Y0009866D01*
X0189692Y0009866D01*
X0189692Y0014606D01*
X0192539Y0014606D01*
X0192921Y0014504D01*
X0193263Y0014307D01*
X0193542Y0014027D01*
X0193740Y0013685D01*
X0193842Y0013304D01*
X0193842Y0011823D01*
X0193889Y0011916D01*
X0194340Y0012536D01*
X0194881Y0013077D01*
X0195501Y0013527D01*
X0196183Y0013875D01*
X0196911Y0014112D01*
X0197551Y0014213D01*
X0197551Y0009866D01*
X0198551Y0009866D01*
X0198551Y0014213D01*
X0199190Y0014112D01*
X0199918Y0013875D01*
X0200601Y0013527D01*
X0200921Y0013295D01*
X0200921Y0014756D01*
X0198157Y0014756D01*
X0198157Y0018512D01*
X0197157Y0018512D01*
X0193007Y0018512D01*
X0193007Y0016058D01*
X0193110Y0015677D01*
X0193307Y0015335D01*
X0193586Y0015056D01*
X0193928Y0014858D01*
X0194310Y0014756D01*
X0197157Y0014756D01*
X0197157Y0018512D01*
X0197157Y0019512D01*
X0197157Y0023268D01*
X0194310Y0023268D01*
X0193928Y0023165D01*
X0193586Y0022968D01*
X0193307Y0022689D01*
X0193110Y0022347D01*
X0193007Y0021965D01*
X0193007Y0019512D01*
X0197157Y0019512D01*
X0198157Y0019512D01*
X0198157Y0023268D01*
X0200921Y0023268D01*
X0200921Y0153999D01*
X0200727Y0153662D01*
X0200447Y0153383D01*
X0200105Y0153186D01*
X0199724Y0153083D01*
X0196940Y0153083D01*
X0196940Y0157169D01*
X0196169Y0157169D01*
X0196169Y0153083D01*
X0193385Y0153083D01*
X0193004Y0153186D01*
X0192662Y0153383D01*
X0192383Y0153662D01*
X0192185Y0154004D01*
X0192083Y0154386D01*
X0192083Y0157169D01*
X0196169Y0157169D01*
X0196169Y0157941D01*
X0196169Y0162027D01*
X0193385Y0162027D01*
X0193004Y0161925D01*
X0192662Y0161727D01*
X0192383Y0161448D01*
X0192185Y0161106D01*
X0192083Y0160724D01*
X0192083Y0157941D01*
X0196169Y0157941D01*
X0196940Y0157941D01*
X0196940Y0162027D01*
X0199724Y0162027D01*
X0200105Y0161925D01*
X0200447Y0161727D01*
X0200727Y0161448D01*
X0200921Y0161111D01*
X0200921Y0199008D01*
X0123051Y0199008D01*
X0123051Y0151138D01*
X0119979Y0151138D01*
X0120152Y0151038D01*
X0120431Y0150759D01*
X0120629Y0150417D01*
X0120731Y0150035D01*
X0120731Y0146638D01*
X0116031Y0146638D01*
X0116031Y0145638D01*
X0120731Y0145638D01*
X0120731Y0142240D01*
X0120629Y0141859D01*
X0120431Y0141517D01*
X0120152Y0141238D01*
X0119810Y0141040D01*
X0119428Y0140938D01*
X0116031Y0140938D01*
X0116031Y0145638D01*
X0115031Y0145638D01*
X0110331Y0145638D01*
X0110331Y0142240D01*
X0110433Y0141859D01*
X0110631Y0141517D01*
X0110910Y0141238D01*
X0111252Y0141040D01*
X0111633Y0140938D01*
X0115031Y0140938D01*
X0115031Y0145638D01*
X0115031Y0146638D01*
X0110331Y0146638D01*
X0110331Y0150035D01*
X0110433Y0150417D01*
X0110631Y0150759D01*
X0110910Y0151038D01*
X0111083Y0151138D01*
X0100059Y0151138D01*
X0100059Y0137516D01*
X0007070Y0137516D01*
X0007070Y0052073D01*
X0008574Y0053576D01*
X0011440Y0054764D01*
X0014543Y0054764D01*
X0017409Y0053576D01*
X0019603Y0051382D01*
X0020791Y0048516D01*
X0020791Y0045413D01*
X0019603Y0042547D01*
X0017409Y0040353D01*
X0014543Y0039165D01*
X0011440Y0039165D01*
X0008574Y0040353D01*
X0007070Y0041856D01*
X0007070Y0041601D02*
X0007326Y0041601D01*
X0007070Y0040602D02*
X0008324Y0040602D01*
X0007070Y0039604D02*
X0010382Y0039604D01*
X0007070Y0038605D02*
X0093057Y0038605D01*
X0093040Y0038622D02*
X0093685Y0037978D01*
X0098558Y0037978D01*
X0099203Y0038622D01*
X0099203Y0043496D01*
X0098815Y0043883D01*
X0102495Y0043883D01*
X0103140Y0044528D01*
X0103140Y0049401D01*
X0102752Y0049789D01*
X0106432Y0049789D01*
X0107077Y0050433D01*
X0107077Y0055307D01*
X0106689Y0055694D01*
X0110369Y0055694D01*
X0111014Y0056339D01*
X0111014Y0061212D01*
X0110626Y0061600D01*
X0114306Y0061600D01*
X0114951Y0062244D01*
X0114951Y0067118D01*
X0114306Y0067762D01*
X0112668Y0067762D01*
X0112993Y0067998D01*
X0113572Y0068577D01*
X0114053Y0069239D01*
X0114425Y0069968D01*
X0114678Y0070747D01*
X0114794Y0071480D01*
X0110090Y0071480D01*
X0110090Y0072449D01*
X0109122Y0072449D01*
X0109122Y0077153D01*
X0108388Y0077037D01*
X0107610Y0076784D01*
X0106880Y0076412D01*
X0106218Y0075931D01*
X0105639Y0075352D01*
X0105158Y0074690D01*
X0104787Y0073961D01*
X0104534Y0073182D01*
X0104418Y0072449D01*
X0109121Y0072449D01*
X0109121Y0071480D01*
X0104418Y0071480D01*
X0104534Y0070747D01*
X0104787Y0069968D01*
X0105158Y0069239D01*
X0105639Y0068577D01*
X0106218Y0067998D01*
X0106880Y0067517D01*
X0107610Y0067146D01*
X0108388Y0066893D01*
X0108788Y0066829D01*
X0108788Y0066281D01*
X0107552Y0066281D01*
X0103942Y0069891D01*
X0104406Y0071010D01*
X0104406Y0072919D01*
X0103675Y0074684D01*
X0102325Y0076034D01*
X0100561Y0076765D01*
X0098651Y0076765D01*
X0096887Y0076034D01*
X0096206Y0075353D01*
X0096206Y0077432D01*
X0097325Y0077895D01*
X0098675Y0079246D01*
X0099406Y0081010D01*
X0099406Y0082919D01*
X0098675Y0084684D01*
X0097325Y0086034D01*
X0095561Y0086765D01*
X0093651Y0086765D01*
X0091887Y0086034D01*
X0090537Y0084684D01*
X0089806Y0082919D01*
X0089806Y0081010D01*
X0090537Y0079246D01*
X0091887Y0077895D01*
X0093006Y0077432D01*
X0093006Y0075353D01*
X0092325Y0076034D01*
X0090561Y0076765D01*
X0088651Y0076765D01*
X0086887Y0076034D01*
X0086206Y0075353D01*
X0086206Y0077432D01*
X0087325Y0077895D01*
X0088675Y0079246D01*
X0089406Y0081010D01*
X0089406Y0082919D01*
X0088675Y0084684D01*
X0087325Y0086034D01*
X0085561Y0086765D01*
X0083651Y0086765D01*
X0081887Y0086034D01*
X0080537Y0084684D01*
X0079806Y0082919D01*
X0079806Y0081010D01*
X0080537Y0079246D01*
X0081887Y0077895D01*
X0083006Y0077432D01*
X0083006Y0076765D01*
X0075450Y0076765D01*
X0074806Y0076120D01*
X0074806Y0067809D01*
X0075450Y0067165D01*
X0078006Y0067165D01*
X0078006Y0056912D01*
X0093040Y0041877D01*
X0093040Y0038622D01*
X0093040Y0039604D02*
X0077216Y0039604D01*
X0076157Y0039165D02*
X0079024Y0040353D01*
X0081218Y0042547D01*
X0082405Y0045413D01*
X0082405Y0048516D01*
X0081218Y0051382D01*
X0079024Y0053576D01*
X0076157Y0054764D01*
X0073054Y0054764D01*
X0070188Y0053576D01*
X0067994Y0051382D01*
X0066807Y0048516D01*
X0066807Y0045413D01*
X0067994Y0042547D01*
X0070188Y0040353D01*
X0073054Y0039165D01*
X0076157Y0039165D01*
X0079273Y0040602D02*
X0093040Y0040602D01*
X0093040Y0041601D02*
X0080272Y0041601D01*
X0081239Y0042599D02*
X0092318Y0042599D01*
X0091320Y0043598D02*
X0081653Y0043598D01*
X0082067Y0044596D02*
X0090321Y0044596D01*
X0089323Y0045595D02*
X0082405Y0045595D01*
X0082405Y0046593D02*
X0088324Y0046593D01*
X0087326Y0047592D02*
X0082405Y0047592D01*
X0082374Y0048590D02*
X0086327Y0048590D01*
X0085329Y0049589D02*
X0081961Y0049589D01*
X0081547Y0050588D02*
X0084330Y0050588D01*
X0083332Y0051586D02*
X0081014Y0051586D01*
X0080016Y0052585D02*
X0082333Y0052585D01*
X0081335Y0053583D02*
X0079008Y0053583D01*
X0080336Y0054582D02*
X0076597Y0054582D01*
X0078339Y0056579D02*
X0007070Y0056579D01*
X0007070Y0057577D02*
X0078006Y0057577D01*
X0078006Y0058576D02*
X0007070Y0058576D01*
X0007070Y0059574D02*
X0078006Y0059574D01*
X0078006Y0060573D02*
X0007070Y0060573D01*
X0007070Y0061571D02*
X0078006Y0061571D01*
X0078006Y0062570D02*
X0007070Y0062570D01*
X0007070Y0063568D02*
X0078006Y0063568D01*
X0078006Y0064567D02*
X0007070Y0064567D01*
X0007070Y0065565D02*
X0078006Y0065565D01*
X0078006Y0066564D02*
X0007070Y0066564D01*
X0007070Y0067562D02*
X0013438Y0067562D01*
X0013192Y0067809D02*
X0013836Y0067165D01*
X0022147Y0067165D01*
X0022792Y0067809D01*
X0022792Y0076120D01*
X0022147Y0076765D01*
X0019592Y0076765D01*
X0019592Y0078576D01*
X0020273Y0077895D01*
X0022037Y0077165D01*
X0023946Y0077165D01*
X0025711Y0077895D01*
X0026392Y0078576D01*
X0026392Y0076497D01*
X0025273Y0076034D01*
X0023922Y0074684D01*
X0023192Y0072919D01*
X0023192Y0071010D01*
X0023922Y0069246D01*
X0025273Y0067895D01*
X0027037Y0067165D01*
X0028946Y0067165D01*
X0030711Y0067895D01*
X0032061Y0069246D01*
X0032792Y0071010D01*
X0032792Y0072919D01*
X0032061Y0074684D01*
X0030711Y0076034D01*
X0029592Y0076497D01*
X0029592Y0078576D01*
X0030273Y0077895D01*
X0032037Y0077165D01*
X0033946Y0077165D01*
X0035711Y0077895D01*
X0036392Y0078576D01*
X0036392Y0076497D01*
X0035273Y0076034D01*
X0033922Y0074684D01*
X0033192Y0072919D01*
X0033192Y0071010D01*
X0033922Y0069246D01*
X0035273Y0067895D01*
X0037037Y0067165D01*
X0038946Y0067165D01*
X0040711Y0067895D01*
X0042061Y0069246D01*
X0042792Y0071010D01*
X0042792Y0072919D01*
X0042061Y0074684D01*
X0040711Y0076034D01*
X0039592Y0076497D01*
X0039592Y0078576D01*
X0040273Y0077895D01*
X0042037Y0077165D01*
X0043946Y0077165D01*
X0045711Y0077895D01*
X0047061Y0079246D01*
X0047792Y0081010D01*
X0047792Y0082919D01*
X0047061Y0084684D01*
X0045711Y0086034D01*
X0043946Y0086765D01*
X0042037Y0086765D01*
X0040273Y0086034D01*
X0039592Y0085353D01*
X0039592Y0086597D01*
X0055564Y0102569D01*
X0065481Y0102569D01*
X0065481Y0101733D01*
X0066126Y0101088D01*
X0070999Y0101088D01*
X0071644Y0101733D01*
X0071644Y0106606D01*
X0070999Y0107250D01*
X0067707Y0107250D01*
X0067707Y0111645D01*
X0067062Y0112290D01*
X0063770Y0112290D01*
X0063770Y0116685D01*
X0063125Y0117329D01*
X0059833Y0117329D01*
X0059833Y0121724D01*
X0059188Y0122368D01*
X0055896Y0122368D01*
X0055896Y0126764D01*
X0055251Y0127408D01*
X0050378Y0127408D01*
X0049733Y0126764D01*
X0049733Y0123508D01*
X0016392Y0090167D01*
X0016392Y0076765D01*
X0013836Y0076765D01*
X0013192Y0076120D01*
X0013192Y0067809D01*
X0013192Y0068561D02*
X0007070Y0068561D01*
X0007070Y0069559D02*
X0013192Y0069559D01*
X0013192Y0070558D02*
X0007070Y0070558D01*
X0007070Y0071556D02*
X0013192Y0071556D01*
X0013192Y0072555D02*
X0007070Y0072555D01*
X0007070Y0073553D02*
X0013192Y0073553D01*
X0013192Y0074552D02*
X0007070Y0074552D01*
X0007070Y0075550D02*
X0013192Y0075550D01*
X0013620Y0076549D02*
X0007070Y0076549D01*
X0007070Y0077547D02*
X0016392Y0077547D01*
X0016392Y0078546D02*
X0007070Y0078546D01*
X0007070Y0079544D02*
X0016392Y0079544D01*
X0016392Y0080543D02*
X0007070Y0080543D01*
X0007070Y0081541D02*
X0016392Y0081541D01*
X0016392Y0082540D02*
X0007070Y0082540D01*
X0007070Y0083538D02*
X0016392Y0083538D01*
X0016392Y0084537D02*
X0007070Y0084537D01*
X0007070Y0085535D02*
X0016392Y0085535D01*
X0016392Y0086534D02*
X0007070Y0086534D01*
X0007070Y0087532D02*
X0016392Y0087532D01*
X0016392Y0088531D02*
X0007070Y0088531D01*
X0007070Y0089529D02*
X0016392Y0089529D01*
X0016753Y0090528D02*
X0007070Y0090528D01*
X0007070Y0091526D02*
X0017751Y0091526D01*
X0018750Y0092525D02*
X0007070Y0092525D01*
X0007070Y0093523D02*
X0019748Y0093523D01*
X0020747Y0094522D02*
X0007070Y0094522D01*
X0007070Y0095521D02*
X0021745Y0095521D01*
X0022744Y0096519D02*
X0007070Y0096519D01*
X0007070Y0097518D02*
X0023742Y0097518D01*
X0024741Y0098516D02*
X0007070Y0098516D01*
X0007070Y0099515D02*
X0025740Y0099515D01*
X0026738Y0100513D02*
X0007070Y0100513D01*
X0007070Y0101512D02*
X0019714Y0101512D01*
X0019448Y0101705D02*
X0019992Y0101309D01*
X0020592Y0101004D01*
X0021232Y0100796D01*
X0021896Y0100691D01*
X0022569Y0100691D01*
X0023234Y0100796D01*
X0023874Y0101004D01*
X0024473Y0101309D01*
X0025018Y0101705D01*
X0025052Y0101740D01*
X0022233Y0104559D01*
X0022639Y0104965D01*
X0025459Y0102146D01*
X0025493Y0102181D01*
X0025889Y0102725D01*
X0026194Y0103325D01*
X0026402Y0103964D01*
X0026507Y0104629D01*
X0026507Y0105302D01*
X0026402Y0105966D01*
X0026194Y0106606D01*
X0025889Y0107206D01*
X0025493Y0107750D01*
X0025459Y0107785D01*
X0022639Y0104966D01*
X0022233Y0105372D01*
X0025052Y0108191D01*
X0025018Y0108226D01*
X0024473Y0108622D01*
X0023874Y0108927D01*
X0023234Y0109135D01*
X0022569Y0109240D01*
X0021896Y0109240D01*
X0021232Y0109135D01*
X0020592Y0108927D01*
X0019992Y0108622D01*
X0019448Y0108226D01*
X0019413Y0108191D01*
X0022233Y0105372D01*
X0021826Y0104966D01*
X0019007Y0107785D01*
X0018972Y0107750D01*
X0018577Y0107206D01*
X0018271Y0106606D01*
X0018063Y0105966D01*
X0017958Y0105302D01*
X0017958Y0104629D01*
X0018063Y0103964D01*
X0018271Y0103325D01*
X0018577Y0102725D01*
X0018972Y0102181D01*
X0019007Y0102146D01*
X0021826Y0104965D01*
X0022233Y0104559D01*
X0019413Y0101739D01*
X0019448Y0101705D01*
X0019371Y0102510D02*
X0020184Y0102510D01*
X0020369Y0103509D02*
X0021182Y0103509D01*
X0021368Y0104507D02*
X0022181Y0104507D01*
X0022285Y0104507D02*
X0023097Y0104507D01*
X0023179Y0105506D02*
X0022366Y0105506D01*
X0022099Y0105506D02*
X0021286Y0105506D01*
X0021100Y0106504D02*
X0020288Y0106504D01*
X0020102Y0107503D02*
X0019289Y0107503D01*
X0018792Y0107503D02*
X0007070Y0107503D01*
X0007070Y0108501D02*
X0019826Y0108501D01*
X0018238Y0106504D02*
X0007070Y0106504D01*
X0007070Y0105506D02*
X0017990Y0105506D01*
X0017977Y0104507D02*
X0007070Y0104507D01*
X0007070Y0103509D02*
X0018211Y0103509D01*
X0018733Y0102510D02*
X0007070Y0102510D01*
X0007070Y0109500D02*
X0035725Y0109500D01*
X0036723Y0110498D02*
X0007070Y0110498D01*
X0007070Y0111497D02*
X0037722Y0111497D01*
X0038720Y0112495D02*
X0007070Y0112495D01*
X0007070Y0113494D02*
X0039719Y0113494D01*
X0040717Y0114492D02*
X0007070Y0114492D01*
X0007070Y0115491D02*
X0034221Y0115491D01*
X0033957Y0115600D02*
X0035381Y0115010D01*
X0036923Y0115010D01*
X0038347Y0115600D01*
X0039437Y0116690D01*
X0040027Y0118114D01*
X0040027Y0119656D01*
X0039437Y0121080D01*
X0038347Y0122170D01*
X0036923Y0122760D01*
X0035381Y0122760D01*
X0033957Y0122170D01*
X0032867Y0121080D01*
X0032277Y0119656D01*
X0032277Y0118114D01*
X0032867Y0116690D01*
X0033957Y0115600D01*
X0033068Y0116489D02*
X0007070Y0116489D01*
X0007070Y0117488D02*
X0032537Y0117488D01*
X0032277Y0118486D02*
X0007070Y0118486D01*
X0007070Y0119485D02*
X0032277Y0119485D01*
X0032620Y0120483D02*
X0007070Y0120483D01*
X0007070Y0121482D02*
X0033269Y0121482D01*
X0034707Y0122480D02*
X0007070Y0122480D01*
X0007070Y0123479D02*
X0049704Y0123479D01*
X0049733Y0124477D02*
X0007070Y0124477D01*
X0007070Y0125476D02*
X0049733Y0125476D01*
X0049733Y0126474D02*
X0007070Y0126474D01*
X0007070Y0127473D02*
X0116662Y0127473D01*
X0116662Y0128471D02*
X0007070Y0128471D01*
X0007070Y0129470D02*
X0116662Y0129470D01*
X0116662Y0129992D02*
X0116662Y0125118D01*
X0117307Y0124474D01*
X0118144Y0124474D01*
X0118144Y0107250D01*
X0117307Y0107250D01*
X0116662Y0106606D01*
X0116662Y0101733D01*
X0117307Y0101088D01*
X0122180Y0101088D01*
X0122825Y0101733D01*
X0122825Y0104862D01*
X0123212Y0104474D01*
X0128086Y0104474D01*
X0128730Y0105118D01*
X0128730Y0109992D01*
X0128086Y0110636D01*
X0127249Y0110636D01*
X0127249Y0111167D01*
X0128086Y0111167D01*
X0128730Y0111811D01*
X0128730Y0116685D01*
X0128086Y0117329D01*
X0123212Y0117329D01*
X0122568Y0116685D01*
X0122568Y0111811D01*
X0123212Y0111167D01*
X0124049Y0111167D01*
X0124049Y0110636D01*
X0123212Y0110636D01*
X0122568Y0109992D01*
X0122568Y0106863D01*
X0122180Y0107250D01*
X0121344Y0107250D01*
X0121344Y0124474D01*
X0122180Y0124474D01*
X0122825Y0125118D01*
X0122825Y0129992D01*
X0122180Y0130636D01*
X0117307Y0130636D01*
X0116662Y0129992D01*
X0117139Y0130468D02*
X0007070Y0130468D01*
X0007070Y0131467D02*
X0135359Y0131467D01*
X0135745Y0131627D02*
X0134248Y0131007D01*
X0133103Y0129862D01*
X0132483Y0128365D01*
X0132483Y0126745D01*
X0133103Y0125249D01*
X0134248Y0124103D01*
X0135745Y0123483D01*
X0137365Y0123483D01*
X0138861Y0124103D01*
X0140006Y0125249D01*
X0140626Y0126745D01*
X0140626Y0128365D01*
X0140006Y0129862D01*
X0138861Y0131007D01*
X0137365Y0131627D01*
X0135745Y0131627D01*
X0136169Y0133083D02*
X0133385Y0133083D01*
X0133004Y0133186D01*
X0132662Y0133383D01*
X0132383Y0133662D01*
X0132185Y0134004D01*
X0132083Y0134386D01*
X0132083Y0137169D01*
X0136169Y0137169D01*
X0136940Y0137169D01*
X0136940Y0133083D01*
X0139724Y0133083D01*
X0140105Y0133186D01*
X0140447Y0133383D01*
X0140727Y0133662D01*
X0140924Y0134004D01*
X0141026Y0134386D01*
X0141026Y0137169D01*
X0136941Y0137169D01*
X0136941Y0137941D01*
X0141026Y0137941D01*
X0141026Y0139553D01*
X0141766Y0139553D01*
X0141766Y0100636D01*
X0140929Y0100636D01*
X0140285Y0099992D01*
X0140285Y0099190D01*
X0140006Y0099862D01*
X0138861Y0101007D01*
X0137365Y0101627D01*
X0135745Y0101627D01*
X0134248Y0101007D01*
X0133103Y0099862D01*
X0132483Y0098365D01*
X0132483Y0096745D01*
X0133103Y0095249D01*
X0134248Y0094103D01*
X0135745Y0093483D01*
X0137365Y0093483D01*
X0138861Y0094103D01*
X0140006Y0095249D01*
X0140285Y0095920D01*
X0140285Y0095118D01*
X0140929Y0094474D01*
X0145802Y0094474D01*
X0146447Y0095118D01*
X0146447Y0099992D01*
X0145802Y0100636D01*
X0144966Y0100636D01*
X0144966Y0139553D01*
X0145802Y0139553D01*
X0146447Y0140197D01*
X0146447Y0145071D01*
X0145802Y0145715D01*
X0140929Y0145715D01*
X0140285Y0145071D01*
X0140285Y0141821D01*
X0140105Y0141925D01*
X0139724Y0142027D01*
X0136940Y0142027D01*
X0136940Y0137941D01*
X0136169Y0137941D01*
X0136169Y0142027D01*
X0133385Y0142027D01*
X0133004Y0141925D01*
X0132662Y0141727D01*
X0132383Y0141448D01*
X0132185Y0141106D01*
X0132083Y0140724D01*
X0132083Y0137941D01*
X0136169Y0137941D01*
X0136169Y0137169D01*
X0136169Y0133083D01*
X0136169Y0133464D02*
X0136940Y0133464D01*
X0136940Y0134462D02*
X0136169Y0134462D01*
X0136169Y0135461D02*
X0136940Y0135461D01*
X0136940Y0136459D02*
X0136169Y0136459D01*
X0136169Y0137458D02*
X0007070Y0137458D01*
X0007070Y0136459D02*
X0132083Y0136459D01*
X0132083Y0135461D02*
X0007070Y0135461D01*
X0007070Y0134462D02*
X0132083Y0134462D01*
X0132581Y0133464D02*
X0007070Y0133464D01*
X0007070Y0132465D02*
X0141766Y0132465D01*
X0141766Y0131467D02*
X0137750Y0131467D01*
X0139399Y0130468D02*
X0141766Y0130468D01*
X0141766Y0129470D02*
X0140169Y0129470D01*
X0140582Y0128471D02*
X0141766Y0128471D01*
X0141766Y0127473D02*
X0140626Y0127473D01*
X0140514Y0126474D02*
X0141766Y0126474D01*
X0141766Y0125476D02*
X0140100Y0125476D01*
X0139235Y0124477D02*
X0141766Y0124477D01*
X0141766Y0123479D02*
X0121344Y0123479D01*
X0121344Y0122480D02*
X0141766Y0122480D01*
X0141766Y0121482D02*
X0137714Y0121482D01*
X0137365Y0121627D02*
X0135745Y0121627D01*
X0134248Y0121007D01*
X0133103Y0119862D01*
X0132483Y0118365D01*
X0132483Y0116745D01*
X0133103Y0115249D01*
X0134248Y0114103D01*
X0135745Y0113483D01*
X0137365Y0113483D01*
X0138861Y0114103D01*
X0140006Y0115249D01*
X0140626Y0116745D01*
X0140626Y0118365D01*
X0140006Y0119862D01*
X0138861Y0121007D01*
X0137365Y0121627D01*
X0135395Y0121482D02*
X0121344Y0121482D01*
X0121344Y0120483D02*
X0133725Y0120483D01*
X0132947Y0119485D02*
X0121344Y0119485D01*
X0121344Y0118486D02*
X0132533Y0118486D01*
X0132483Y0117488D02*
X0121344Y0117488D01*
X0121344Y0116489D02*
X0122568Y0116489D01*
X0122568Y0115491D02*
X0121344Y0115491D01*
X0121344Y0114492D02*
X0122568Y0114492D01*
X0122568Y0113494D02*
X0121344Y0113494D01*
X0121344Y0112495D02*
X0122568Y0112495D01*
X0122883Y0111497D02*
X0121344Y0111497D01*
X0121344Y0110498D02*
X0123074Y0110498D01*
X0122568Y0109500D02*
X0121344Y0109500D01*
X0121344Y0108501D02*
X0122568Y0108501D01*
X0122568Y0107503D02*
X0121344Y0107503D01*
X0118144Y0107503D02*
X0067707Y0107503D01*
X0067707Y0108501D02*
X0118144Y0108501D01*
X0118144Y0109500D02*
X0067707Y0109500D01*
X0067707Y0110498D02*
X0118144Y0110498D01*
X0118144Y0111497D02*
X0067707Y0111497D01*
X0064625Y0109209D02*
X0056003Y0109209D01*
X0032992Y0086197D01*
X0032992Y0081965D01*
X0036361Y0078546D02*
X0036392Y0078546D01*
X0036392Y0077547D02*
X0034870Y0077547D01*
X0036392Y0076549D02*
X0029592Y0076549D01*
X0029592Y0077547D02*
X0031113Y0077547D01*
X0029622Y0078546D02*
X0029592Y0078546D01*
X0031194Y0075550D02*
X0034789Y0075550D01*
X0033868Y0074552D02*
X0032115Y0074552D01*
X0032529Y0073553D02*
X0033454Y0073553D01*
X0033192Y0072555D02*
X0032792Y0072555D01*
X0032792Y0071556D02*
X0033192Y0071556D01*
X0033379Y0070558D02*
X0032604Y0070558D01*
X0032191Y0069559D02*
X0033792Y0069559D01*
X0034607Y0068561D02*
X0031376Y0068561D01*
X0029906Y0067562D02*
X0036077Y0067562D01*
X0039906Y0067562D02*
X0045204Y0067562D01*
X0045266Y0067517D02*
X0045995Y0067146D01*
X0046774Y0066893D01*
X0047507Y0066776D01*
X0047507Y0071480D01*
X0042803Y0071480D01*
X0042920Y0070747D01*
X0043173Y0069968D01*
X0043544Y0069239D01*
X0044025Y0068577D01*
X0044604Y0067998D01*
X0045266Y0067517D01*
X0044042Y0068561D02*
X0041376Y0068561D01*
X0042191Y0069559D02*
X0043381Y0069559D01*
X0042981Y0070558D02*
X0042604Y0070558D01*
X0042792Y0071556D02*
X0047507Y0071556D01*
X0047507Y0071480D02*
X0047507Y0072449D01*
X0042803Y0072449D01*
X0042920Y0073182D01*
X0043173Y0073961D01*
X0043544Y0074690D01*
X0044025Y0075352D01*
X0044604Y0075931D01*
X0045266Y0076412D01*
X0045995Y0076784D01*
X0046774Y0077037D01*
X0047507Y0077153D01*
X0047507Y0072449D01*
X0048476Y0072449D01*
X0048476Y0077153D01*
X0049209Y0077037D01*
X0049988Y0076784D01*
X0050717Y0076412D01*
X0051379Y0075931D01*
X0051958Y0075352D01*
X0052439Y0074690D01*
X0052811Y0073961D01*
X0053064Y0073182D01*
X0053180Y0072449D01*
X0048476Y0072449D01*
X0048476Y0071480D01*
X0048476Y0066776D01*
X0049209Y0066893D01*
X0049988Y0067146D01*
X0050717Y0067517D01*
X0051379Y0067998D01*
X0051958Y0068577D01*
X0052439Y0069239D01*
X0052811Y0069968D01*
X0053064Y0070747D01*
X0053180Y0071480D01*
X0048476Y0071480D01*
X0047507Y0071480D01*
X0047507Y0070558D02*
X0048476Y0070558D01*
X0048476Y0071556D02*
X0074806Y0071556D01*
X0074806Y0070558D02*
X0053002Y0070558D01*
X0052602Y0069559D02*
X0074806Y0069559D01*
X0074806Y0068561D02*
X0051942Y0068561D01*
X0050779Y0067562D02*
X0075052Y0067562D01*
X0074806Y0072555D02*
X0053163Y0072555D01*
X0052943Y0073553D02*
X0074806Y0073553D01*
X0074806Y0074552D02*
X0052509Y0074552D01*
X0051760Y0075550D02*
X0074806Y0075550D01*
X0075234Y0076549D02*
X0050448Y0076549D01*
X0051113Y0077547D02*
X0044870Y0077547D01*
X0045535Y0076549D02*
X0039592Y0076549D01*
X0039592Y0077547D02*
X0041113Y0077547D01*
X0039622Y0078546D02*
X0039592Y0078546D01*
X0041194Y0075550D02*
X0044223Y0075550D01*
X0043474Y0074552D02*
X0042115Y0074552D01*
X0042529Y0073553D02*
X0043040Y0073553D01*
X0042820Y0072555D02*
X0042792Y0072555D01*
X0037992Y0071965D02*
X0037992Y0087260D01*
X0054901Y0104169D01*
X0068562Y0104169D01*
X0071644Y0104507D02*
X0116662Y0104507D01*
X0116662Y0103509D02*
X0071644Y0103509D01*
X0071644Y0102510D02*
X0116662Y0102510D01*
X0116883Y0101512D02*
X0071423Y0101512D01*
X0071644Y0105506D02*
X0116662Y0105506D01*
X0116662Y0106504D02*
X0071644Y0106504D01*
X0065481Y0102510D02*
X0055505Y0102510D01*
X0054506Y0101512D02*
X0065702Y0101512D01*
X0063770Y0112495D02*
X0118144Y0112495D01*
X0118144Y0113494D02*
X0063770Y0113494D01*
X0063770Y0114492D02*
X0118144Y0114492D01*
X0118144Y0115491D02*
X0063770Y0115491D01*
X0063770Y0116489D02*
X0118144Y0116489D01*
X0118144Y0117488D02*
X0059833Y0117488D01*
X0059833Y0118486D02*
X0118144Y0118486D01*
X0118144Y0119485D02*
X0059833Y0119485D01*
X0059833Y0120483D02*
X0118144Y0120483D01*
X0118144Y0121482D02*
X0059833Y0121482D01*
X0056751Y0119287D02*
X0022992Y0085528D01*
X0022992Y0081965D01*
X0026361Y0078546D02*
X0026392Y0078546D01*
X0026392Y0077547D02*
X0024870Y0077547D01*
X0026392Y0076549D02*
X0022363Y0076549D01*
X0022792Y0075550D02*
X0024789Y0075550D01*
X0023868Y0074552D02*
X0022792Y0074552D01*
X0022792Y0073553D02*
X0023454Y0073553D01*
X0023192Y0072555D02*
X0022792Y0072555D01*
X0022792Y0071556D02*
X0023192Y0071556D01*
X0023379Y0070558D02*
X0022792Y0070558D01*
X0022792Y0069559D02*
X0023792Y0069559D01*
X0024607Y0068561D02*
X0022792Y0068561D01*
X0022545Y0067562D02*
X0026077Y0067562D01*
X0027992Y0071965D02*
X0027992Y0085134D01*
X0057106Y0114248D01*
X0060688Y0114248D01*
X0055896Y0122480D02*
X0118144Y0122480D01*
X0118144Y0123479D02*
X0055896Y0123479D01*
X0055896Y0124477D02*
X0117303Y0124477D01*
X0116662Y0125476D02*
X0055896Y0125476D01*
X0055896Y0126474D02*
X0116662Y0126474D01*
X0119744Y0127555D02*
X0119744Y0104169D01*
X0122825Y0104507D02*
X0123179Y0104507D01*
X0122825Y0103509D02*
X0135684Y0103509D01*
X0135745Y0103483D02*
X0137365Y0103483D01*
X0138861Y0104103D01*
X0140006Y0105249D01*
X0140626Y0106745D01*
X0140626Y0108365D01*
X0140006Y0109862D01*
X0138861Y0111007D01*
X0137365Y0111627D01*
X0135745Y0111627D01*
X0134248Y0111007D01*
X0133103Y0109862D01*
X0132483Y0108365D01*
X0132483Y0106745D01*
X0133103Y0105249D01*
X0134248Y0104103D01*
X0135745Y0103483D01*
X0137425Y0103509D02*
X0141766Y0103509D01*
X0141766Y0104507D02*
X0139265Y0104507D01*
X0140113Y0105506D02*
X0141766Y0105506D01*
X0141766Y0106504D02*
X0140526Y0106504D01*
X0140626Y0107503D02*
X0141766Y0107503D01*
X0141766Y0108501D02*
X0140570Y0108501D01*
X0140156Y0109500D02*
X0141766Y0109500D01*
X0141766Y0110498D02*
X0139370Y0110498D01*
X0137678Y0111497D02*
X0141766Y0111497D01*
X0141766Y0112495D02*
X0128730Y0112495D01*
X0128730Y0113494D02*
X0135720Y0113494D01*
X0137389Y0113494D02*
X0141766Y0113494D01*
X0141766Y0114492D02*
X0139250Y0114492D01*
X0140107Y0115491D02*
X0141766Y0115491D01*
X0141766Y0116489D02*
X0140520Y0116489D01*
X0140626Y0117488D02*
X0141766Y0117488D01*
X0141766Y0118486D02*
X0140576Y0118486D01*
X0140162Y0119485D02*
X0141766Y0119485D01*
X0141766Y0120483D02*
X0139385Y0120483D01*
X0133874Y0124477D02*
X0122184Y0124477D01*
X0122825Y0125476D02*
X0133009Y0125476D01*
X0132595Y0126474D02*
X0122825Y0126474D01*
X0122825Y0127473D02*
X0132483Y0127473D01*
X0132527Y0128471D02*
X0122825Y0128471D01*
X0122825Y0129470D02*
X0132941Y0129470D01*
X0133710Y0130468D02*
X0122348Y0130468D01*
X0120367Y0141452D02*
X0132387Y0141452D01*
X0132083Y0140454D02*
X0100059Y0140454D01*
X0100059Y0141452D02*
X0103429Y0141452D01*
X0103543Y0141338D02*
X0107519Y0141338D01*
X0110331Y0144150D01*
X0110331Y0148126D01*
X0107519Y0150938D01*
X0103543Y0150938D01*
X0100731Y0148126D01*
X0100731Y0144150D01*
X0103543Y0141338D01*
X0102430Y0142451D02*
X0100059Y0142451D01*
X0100059Y0143449D02*
X0101431Y0143449D01*
X0100731Y0144448D02*
X0100059Y0144448D01*
X0100059Y0145446D02*
X0100731Y0145446D01*
X0100731Y0146445D02*
X0100059Y0146445D01*
X0100059Y0147443D02*
X0100731Y0147443D01*
X0101047Y0148442D02*
X0100059Y0148442D01*
X0100059Y0149440D02*
X0102045Y0149440D01*
X0103044Y0150439D02*
X0100059Y0150439D01*
X0108018Y0150439D02*
X0110446Y0150439D01*
X0110331Y0149440D02*
X0109017Y0149440D01*
X0110015Y0148442D02*
X0110331Y0148442D01*
X0110331Y0147443D02*
X0110331Y0147443D01*
X0110331Y0146445D02*
X0115031Y0146445D01*
X0115031Y0145446D02*
X0116031Y0145446D01*
X0116031Y0144448D02*
X0115031Y0144448D01*
X0115031Y0143449D02*
X0116031Y0143449D01*
X0116031Y0142451D02*
X0115031Y0142451D01*
X0115031Y0141452D02*
X0116031Y0141452D01*
X0120731Y0142451D02*
X0140285Y0142451D01*
X0140285Y0143449D02*
X0120731Y0143449D01*
X0120731Y0144448D02*
X0133904Y0144448D01*
X0134248Y0144103D02*
X0135745Y0143483D01*
X0137365Y0143483D01*
X0138861Y0144103D01*
X0140006Y0145249D01*
X0140626Y0146745D01*
X0140626Y0148365D01*
X0140006Y0149862D01*
X0138861Y0151007D01*
X0137365Y0151627D01*
X0135745Y0151627D01*
X0134248Y0151007D01*
X0133103Y0149862D01*
X0132483Y0148365D01*
X0132483Y0146745D01*
X0133103Y0145249D01*
X0134248Y0144103D01*
X0133021Y0145446D02*
X0120731Y0145446D01*
X0120731Y0147443D02*
X0132483Y0147443D01*
X0132515Y0148442D02*
X0120731Y0148442D01*
X0120731Y0149440D02*
X0132928Y0149440D01*
X0133680Y0150439D02*
X0120616Y0150439D01*
X0123051Y0151437D02*
X0135287Y0151437D01*
X0135745Y0153483D02*
X0137365Y0153483D01*
X0138861Y0154103D01*
X0140006Y0155249D01*
X0140626Y0156745D01*
X0140626Y0158365D01*
X0140006Y0159862D01*
X0138861Y0161007D01*
X0137365Y0161627D01*
X0135745Y0161627D01*
X0134248Y0161007D01*
X0133103Y0159862D01*
X0132483Y0158365D01*
X0132483Y0156745D01*
X0133103Y0155249D01*
X0134248Y0154103D01*
X0135745Y0153483D01*
X0133919Y0154433D02*
X0123051Y0154433D01*
X0123051Y0155431D02*
X0133027Y0155431D01*
X0132614Y0156430D02*
X0123051Y0156430D01*
X0123051Y0157428D02*
X0132483Y0157428D01*
X0132509Y0158427D02*
X0123051Y0158427D01*
X0123051Y0159425D02*
X0132922Y0159425D01*
X0133665Y0160424D02*
X0123051Y0160424D01*
X0123051Y0161422D02*
X0135251Y0161422D01*
X0135745Y0163483D02*
X0137365Y0163483D01*
X0138861Y0164103D01*
X0140006Y0165249D01*
X0140626Y0166745D01*
X0140626Y0168365D01*
X0140006Y0169862D01*
X0138861Y0171007D01*
X0137365Y0171627D01*
X0135745Y0171627D01*
X0134248Y0171007D01*
X0133103Y0169862D01*
X0132483Y0168365D01*
X0132483Y0166745D01*
X0133103Y0165249D01*
X0134248Y0164103D01*
X0135745Y0163483D01*
X0133934Y0164418D02*
X0123051Y0164418D01*
X0123051Y0165416D02*
X0133033Y0165416D01*
X0132620Y0166415D02*
X0123051Y0166415D01*
X0123051Y0167413D02*
X0132483Y0167413D01*
X0132502Y0168412D02*
X0123051Y0168412D01*
X0123051Y0169410D02*
X0132916Y0169410D01*
X0133650Y0170409D02*
X0123051Y0170409D01*
X0123051Y0171407D02*
X0135215Y0171407D01*
X0135745Y0173483D02*
X0137365Y0173483D01*
X0138861Y0174103D01*
X0140006Y0175249D01*
X0140626Y0176745D01*
X0140626Y0178365D01*
X0140006Y0179862D01*
X0138861Y0181007D01*
X0137365Y0181627D01*
X0135745Y0181627D01*
X0134248Y0181007D01*
X0133103Y0179862D01*
X0132483Y0178365D01*
X0132483Y0176745D01*
X0133103Y0175249D01*
X0134248Y0174103D01*
X0135745Y0173483D01*
X0133949Y0174403D02*
X0123051Y0174403D01*
X0123051Y0175401D02*
X0133040Y0175401D01*
X0132626Y0176400D02*
X0123051Y0176400D01*
X0123051Y0177398D02*
X0132483Y0177398D01*
X0132496Y0178397D02*
X0123051Y0178397D01*
X0123051Y0179395D02*
X0132910Y0179395D01*
X0133635Y0180394D02*
X0123051Y0180394D01*
X0123051Y0181392D02*
X0135179Y0181392D01*
X0135745Y0183483D02*
X0137365Y0183483D01*
X0138861Y0184103D01*
X0140006Y0185249D01*
X0140285Y0185920D01*
X0140285Y0185118D01*
X0140929Y0184474D01*
X0141766Y0184474D01*
X0141766Y0175636D01*
X0140929Y0175636D01*
X0140285Y0174992D01*
X0140285Y0170118D01*
X0140929Y0169474D01*
X0145802Y0169474D01*
X0146447Y0170118D01*
X0146447Y0174992D01*
X0145802Y0175636D01*
X0144966Y0175636D01*
X0144966Y0184474D01*
X0145802Y0184474D01*
X0146447Y0185118D01*
X0146447Y0189992D01*
X0145802Y0190636D01*
X0140929Y0190636D01*
X0140285Y0189992D01*
X0140285Y0189190D01*
X0140006Y0189862D01*
X0138861Y0191007D01*
X0137365Y0191627D01*
X0135745Y0191627D01*
X0134248Y0191007D01*
X0133103Y0189862D01*
X0132483Y0188365D01*
X0132483Y0186745D01*
X0133103Y0185249D01*
X0134248Y0184103D01*
X0135745Y0183483D01*
X0133963Y0184388D02*
X0123051Y0184388D01*
X0123051Y0183390D02*
X0141766Y0183390D01*
X0141766Y0184388D02*
X0139146Y0184388D01*
X0140063Y0185387D02*
X0140285Y0185387D01*
X0141766Y0182391D02*
X0123051Y0182391D01*
X0123051Y0185387D02*
X0133046Y0185387D01*
X0132632Y0186385D02*
X0123051Y0186385D01*
X0123051Y0187384D02*
X0132483Y0187384D01*
X0132490Y0188382D02*
X0123051Y0188382D01*
X0123051Y0189381D02*
X0132904Y0189381D01*
X0133620Y0190379D02*
X0123051Y0190379D01*
X0123051Y0191378D02*
X0135143Y0191378D01*
X0137966Y0191378D02*
X0158001Y0191378D01*
X0158001Y0192376D02*
X0123051Y0192376D01*
X0123051Y0193375D02*
X0158001Y0193375D01*
X0158001Y0194373D02*
X0123051Y0194373D01*
X0123051Y0195372D02*
X0158302Y0195372D01*
X0158001Y0195071D02*
X0158001Y0190197D01*
X0158645Y0189553D01*
X0159482Y0189553D01*
X0159482Y0080636D01*
X0158645Y0080636D01*
X0158258Y0080249D01*
X0158258Y0084992D01*
X0157613Y0085636D01*
X0156777Y0085636D01*
X0156777Y0154474D01*
X0157613Y0154474D01*
X0158258Y0155118D01*
X0158258Y0159992D01*
X0157613Y0160636D01*
X0152740Y0160636D01*
X0152096Y0159992D01*
X0152096Y0155249D01*
X0151708Y0155636D01*
X0146834Y0155636D01*
X0146190Y0154992D01*
X0146190Y0150118D01*
X0146834Y0149474D01*
X0147671Y0149474D01*
X0147671Y0090636D01*
X0146834Y0090636D01*
X0146190Y0089992D01*
X0146190Y0085118D01*
X0146834Y0084474D01*
X0151708Y0084474D01*
X0152096Y0084862D01*
X0152096Y0080118D01*
X0152740Y0079474D01*
X0157613Y0079474D01*
X0158001Y0079862D01*
X0158001Y0075118D01*
X0158645Y0074474D01*
X0163519Y0074474D01*
X0164163Y0075118D01*
X0164163Y0079992D01*
X0163519Y0080636D01*
X0162682Y0080636D01*
X0162682Y0189553D01*
X0163519Y0189553D01*
X0164163Y0190197D01*
X0164163Y0195071D01*
X0163519Y0195715D01*
X0158645Y0195715D01*
X0158001Y0195071D01*
X0161082Y0192634D02*
X0161082Y0077555D01*
X0164163Y0077547D02*
X0181136Y0077547D01*
X0181136Y0076549D02*
X0164163Y0076549D01*
X0164163Y0075550D02*
X0174308Y0075550D01*
X0174393Y0075636D02*
X0173749Y0074992D01*
X0173749Y0070118D01*
X0174393Y0069474D01*
X0175230Y0069474D01*
X0175230Y0060636D01*
X0174393Y0060636D01*
X0173749Y0059992D01*
X0173749Y0055118D01*
X0174393Y0054474D01*
X0179267Y0054474D01*
X0179911Y0055118D01*
X0179911Y0059992D01*
X0179267Y0060636D01*
X0178430Y0060636D01*
X0178430Y0069474D01*
X0179267Y0069474D01*
X0179911Y0070118D01*
X0179911Y0074992D01*
X0179267Y0075636D01*
X0174393Y0075636D01*
X0173749Y0074552D02*
X0163597Y0074552D01*
X0164163Y0078546D02*
X0181136Y0078546D01*
X0181136Y0079544D02*
X0164163Y0079544D01*
X0163612Y0080543D02*
X0181136Y0080543D01*
X0181136Y0081541D02*
X0162682Y0081541D01*
X0162682Y0082540D02*
X0181136Y0082540D01*
X0181136Y0083538D02*
X0162682Y0083538D01*
X0162682Y0084537D02*
X0181136Y0084537D01*
X0181136Y0085535D02*
X0162682Y0085535D01*
X0162682Y0086534D02*
X0181136Y0086534D01*
X0181136Y0087532D02*
X0162682Y0087532D01*
X0162682Y0088531D02*
X0181136Y0088531D01*
X0181136Y0089529D02*
X0162682Y0089529D01*
X0162682Y0090528D02*
X0181136Y0090528D01*
X0181136Y0091526D02*
X0162682Y0091526D01*
X0162682Y0092525D02*
X0181136Y0092525D01*
X0181136Y0093523D02*
X0162682Y0093523D01*
X0162682Y0094522D02*
X0181136Y0094522D01*
X0181136Y0095521D02*
X0162682Y0095521D01*
X0162682Y0096519D02*
X0181136Y0096519D01*
X0181136Y0097518D02*
X0162682Y0097518D01*
X0162682Y0098516D02*
X0181136Y0098516D01*
X0181136Y0099515D02*
X0162682Y0099515D01*
X0162682Y0100513D02*
X0181136Y0100513D01*
X0181136Y0101512D02*
X0162682Y0101512D01*
X0162682Y0102510D02*
X0181136Y0102510D01*
X0181136Y0103509D02*
X0162682Y0103509D01*
X0162682Y0104507D02*
X0181136Y0104507D01*
X0181136Y0105506D02*
X0162682Y0105506D01*
X0162682Y0106504D02*
X0181136Y0106504D01*
X0181136Y0107503D02*
X0162682Y0107503D01*
X0162682Y0108501D02*
X0181136Y0108501D01*
X0181136Y0109500D02*
X0162682Y0109500D01*
X0162682Y0110498D02*
X0181136Y0110498D01*
X0181136Y0111497D02*
X0162682Y0111497D01*
X0162682Y0112495D02*
X0181136Y0112495D01*
X0181136Y0113494D02*
X0162682Y0113494D01*
X0162682Y0114492D02*
X0181136Y0114492D01*
X0181136Y0115491D02*
X0162682Y0115491D01*
X0162682Y0116489D02*
X0181136Y0116489D01*
X0181136Y0117488D02*
X0162682Y0117488D01*
X0162682Y0118486D02*
X0181136Y0118486D01*
X0181136Y0119474D02*
X0181136Y0044455D01*
X0180299Y0044455D01*
X0179655Y0043811D01*
X0179655Y0038937D01*
X0180299Y0038293D01*
X0185172Y0038293D01*
X0185817Y0038937D01*
X0185817Y0043811D01*
X0185172Y0044455D01*
X0184336Y0044455D01*
X0184336Y0119474D01*
X0185172Y0119474D01*
X0185817Y0120118D01*
X0185817Y0124992D01*
X0185172Y0125636D01*
X0180299Y0125636D01*
X0179655Y0124992D01*
X0179655Y0120118D01*
X0180299Y0119474D01*
X0181136Y0119474D01*
X0180288Y0119485D02*
X0162682Y0119485D01*
X0162682Y0120483D02*
X0179655Y0120483D01*
X0179655Y0121482D02*
X0162682Y0121482D01*
X0162682Y0122480D02*
X0179655Y0122480D01*
X0179655Y0123479D02*
X0162682Y0123479D01*
X0162682Y0124477D02*
X0179655Y0124477D01*
X0180139Y0125476D02*
X0162682Y0125476D01*
X0162682Y0126474D02*
X0187041Y0126474D01*
X0187041Y0125476D02*
X0185333Y0125476D01*
X0185817Y0124477D02*
X0187041Y0124477D01*
X0187041Y0123479D02*
X0185817Y0123479D01*
X0185817Y0122480D02*
X0187041Y0122480D01*
X0187041Y0121482D02*
X0185817Y0121482D01*
X0185817Y0120483D02*
X0187041Y0120483D01*
X0187041Y0119485D02*
X0185183Y0119485D01*
X0184336Y0118486D02*
X0187041Y0118486D01*
X0187041Y0117488D02*
X0184336Y0117488D01*
X0184336Y0116489D02*
X0187041Y0116489D01*
X0187041Y0115491D02*
X0184336Y0115491D01*
X0184336Y0114492D02*
X0187041Y0114492D01*
X0187041Y0113494D02*
X0184336Y0113494D01*
X0184336Y0112495D02*
X0187041Y0112495D01*
X0187041Y0111497D02*
X0184336Y0111497D01*
X0184336Y0110498D02*
X0187041Y0110498D01*
X0187041Y0109500D02*
X0184336Y0109500D01*
X0184336Y0108501D02*
X0187041Y0108501D01*
X0187041Y0107503D02*
X0184336Y0107503D01*
X0184336Y0106504D02*
X0187041Y0106504D01*
X0187041Y0105506D02*
X0184336Y0105506D01*
X0184336Y0104507D02*
X0187041Y0104507D01*
X0187041Y0103509D02*
X0184336Y0103509D01*
X0184336Y0102510D02*
X0187041Y0102510D01*
X0187041Y0101512D02*
X0184336Y0101512D01*
X0184336Y0100513D02*
X0187041Y0100513D01*
X0187041Y0099515D02*
X0184336Y0099515D01*
X0184336Y0098516D02*
X0187041Y0098516D01*
X0187041Y0097518D02*
X0184336Y0097518D01*
X0184336Y0096519D02*
X0187041Y0096519D01*
X0187041Y0095521D02*
X0184336Y0095521D01*
X0184336Y0094522D02*
X0187041Y0094522D01*
X0187041Y0093523D02*
X0184336Y0093523D01*
X0184336Y0092525D02*
X0187041Y0092525D01*
X0187041Y0091526D02*
X0184336Y0091526D01*
X0184336Y0090528D02*
X0187041Y0090528D01*
X0187041Y0089529D02*
X0184336Y0089529D01*
X0184336Y0088531D02*
X0187041Y0088531D01*
X0187041Y0087532D02*
X0184336Y0087532D01*
X0184336Y0086534D02*
X0187041Y0086534D01*
X0187041Y0085535D02*
X0184336Y0085535D01*
X0184336Y0084537D02*
X0187041Y0084537D01*
X0187041Y0083538D02*
X0184336Y0083538D01*
X0184336Y0082540D02*
X0187041Y0082540D01*
X0187041Y0081541D02*
X0184336Y0081541D01*
X0184336Y0080543D02*
X0187041Y0080543D01*
X0187041Y0079544D02*
X0184336Y0079544D01*
X0184336Y0078546D02*
X0187041Y0078546D01*
X0187041Y0077547D02*
X0184336Y0077547D01*
X0184336Y0076549D02*
X0187041Y0076549D01*
X0187041Y0075550D02*
X0184336Y0075550D01*
X0184336Y0074552D02*
X0187041Y0074552D01*
X0187041Y0073553D02*
X0184336Y0073553D01*
X0184336Y0072555D02*
X0187041Y0072555D01*
X0187041Y0071556D02*
X0184336Y0071556D01*
X0184336Y0070558D02*
X0186126Y0070558D01*
X0186204Y0070636D02*
X0185560Y0069992D01*
X0185560Y0065118D01*
X0186204Y0064474D01*
X0191078Y0064474D01*
X0191722Y0065118D01*
X0191722Y0069992D01*
X0191078Y0070636D01*
X0190241Y0070636D01*
X0190241Y0129513D01*
X0191078Y0129513D01*
X0191722Y0130158D01*
X0191722Y0135031D01*
X0191078Y0135676D01*
X0186204Y0135676D01*
X0185560Y0135031D01*
X0185560Y0130158D01*
X0186204Y0129513D01*
X0187041Y0129513D01*
X0187041Y0070636D01*
X0186204Y0070636D01*
X0185560Y0069559D02*
X0184336Y0069559D01*
X0184336Y0068561D02*
X0185560Y0068561D01*
X0185560Y0067562D02*
X0184336Y0067562D01*
X0184336Y0066564D02*
X0185560Y0066564D01*
X0185560Y0065565D02*
X0184336Y0065565D01*
X0184336Y0064567D02*
X0186112Y0064567D01*
X0184336Y0063568D02*
X0195540Y0063568D01*
X0195745Y0063483D02*
X0194248Y0064103D01*
X0193103Y0065249D01*
X0192483Y0066745D01*
X0192483Y0068365D01*
X0193103Y0069862D01*
X0194248Y0071007D01*
X0195745Y0071627D01*
X0197365Y0071627D01*
X0198861Y0071007D01*
X0200006Y0069862D01*
X0200626Y0068365D01*
X0200626Y0066745D01*
X0200006Y0065249D01*
X0198861Y0064103D01*
X0197365Y0063483D01*
X0195745Y0063483D01*
X0197569Y0063568D02*
X0200921Y0063568D01*
X0200921Y0062570D02*
X0184336Y0062570D01*
X0184336Y0061571D02*
X0195610Y0061571D01*
X0195745Y0061627D02*
X0194248Y0061007D01*
X0193103Y0059862D01*
X0192483Y0058365D01*
X0192483Y0056745D01*
X0193103Y0055249D01*
X0194248Y0054103D01*
X0195745Y0053483D01*
X0197365Y0053483D01*
X0198861Y0054103D01*
X0200006Y0055249D01*
X0200626Y0056745D01*
X0200626Y0058365D01*
X0200006Y0059862D01*
X0198861Y0061007D01*
X0197365Y0061627D01*
X0195745Y0061627D01*
X0197499Y0061571D02*
X0200921Y0061571D01*
X0200921Y0060573D02*
X0199295Y0060573D01*
X0200125Y0059574D02*
X0200921Y0059574D01*
X0200921Y0058576D02*
X0200539Y0058576D01*
X0200626Y0057577D02*
X0200921Y0057577D01*
X0200921Y0056579D02*
X0200557Y0056579D01*
X0200921Y0055580D02*
X0200144Y0055580D01*
X0200921Y0054582D02*
X0199339Y0054582D01*
X0200921Y0053583D02*
X0197605Y0053583D01*
X0197365Y0051627D02*
X0195745Y0051627D01*
X0194248Y0051007D01*
X0193103Y0049862D01*
X0192483Y0048365D01*
X0192483Y0046745D01*
X0193103Y0045249D01*
X0194248Y0044103D01*
X0195745Y0043483D01*
X0197365Y0043483D01*
X0198861Y0044103D01*
X0200006Y0045249D01*
X0200626Y0046745D01*
X0200626Y0048365D01*
X0200006Y0049862D01*
X0198861Y0051007D01*
X0197365Y0051627D01*
X0197463Y0051586D02*
X0200921Y0051586D01*
X0200921Y0050588D02*
X0199280Y0050588D01*
X0200119Y0049589D02*
X0200921Y0049589D01*
X0200921Y0048590D02*
X0200533Y0048590D01*
X0200626Y0047592D02*
X0200921Y0047592D01*
X0200921Y0046593D02*
X0200563Y0046593D01*
X0200921Y0045595D02*
X0200150Y0045595D01*
X0200921Y0044596D02*
X0199354Y0044596D01*
X0200921Y0043598D02*
X0197641Y0043598D01*
X0197365Y0041627D02*
X0195745Y0041627D01*
X0194248Y0041007D01*
X0193103Y0039862D01*
X0192483Y0038365D01*
X0192483Y0036745D01*
X0193103Y0035249D01*
X0194248Y0034103D01*
X0195745Y0033483D01*
X0197365Y0033483D01*
X0198861Y0034103D01*
X0200006Y0035249D01*
X0200626Y0036745D01*
X0200626Y0038365D01*
X0200006Y0039862D01*
X0198861Y0041007D01*
X0197365Y0041627D01*
X0197427Y0041601D02*
X0200921Y0041601D01*
X0200921Y0042599D02*
X0185817Y0042599D01*
X0185817Y0041601D02*
X0195682Y0041601D01*
X0195468Y0043598D02*
X0185817Y0043598D01*
X0184336Y0044596D02*
X0193755Y0044596D01*
X0192959Y0045595D02*
X0184336Y0045595D01*
X0184336Y0046593D02*
X0192546Y0046593D01*
X0192483Y0047592D02*
X0184336Y0047592D01*
X0184336Y0048590D02*
X0192576Y0048590D01*
X0192990Y0049589D02*
X0184336Y0049589D01*
X0184336Y0050588D02*
X0193829Y0050588D01*
X0195646Y0051586D02*
X0184336Y0051586D01*
X0184336Y0052585D02*
X0200921Y0052585D01*
X0195504Y0053583D02*
X0184336Y0053583D01*
X0184336Y0054582D02*
X0193770Y0054582D01*
X0192966Y0055580D02*
X0184336Y0055580D01*
X0184336Y0056579D02*
X0192552Y0056579D01*
X0192483Y0057577D02*
X0184336Y0057577D01*
X0184336Y0058576D02*
X0192570Y0058576D01*
X0192984Y0059574D02*
X0184336Y0059574D01*
X0184336Y0060573D02*
X0193814Y0060573D01*
X0193785Y0064567D02*
X0191171Y0064567D01*
X0191722Y0065565D02*
X0192972Y0065565D01*
X0192558Y0066564D02*
X0191722Y0066564D01*
X0191722Y0067562D02*
X0192483Y0067562D01*
X0192564Y0068561D02*
X0191722Y0068561D01*
X0191722Y0069559D02*
X0192978Y0069559D01*
X0193799Y0070558D02*
X0191156Y0070558D01*
X0190241Y0071556D02*
X0195574Y0071556D01*
X0195745Y0073483D02*
X0194248Y0074103D01*
X0193103Y0075249D01*
X0192483Y0076745D01*
X0192483Y0078365D01*
X0193103Y0079862D01*
X0194248Y0081007D01*
X0195745Y0081627D01*
X0197365Y0081627D01*
X0198861Y0081007D01*
X0200006Y0079862D01*
X0200626Y0078365D01*
X0200626Y0076745D01*
X0200006Y0075249D01*
X0198861Y0074103D01*
X0197365Y0073483D01*
X0195745Y0073483D01*
X0195576Y0073553D02*
X0190241Y0073553D01*
X0190241Y0072555D02*
X0200921Y0072555D01*
X0200921Y0073553D02*
X0197533Y0073553D01*
X0197535Y0071556D02*
X0200921Y0071556D01*
X0200921Y0070558D02*
X0199310Y0070558D01*
X0200132Y0069559D02*
X0200921Y0069559D01*
X0200921Y0068561D02*
X0200545Y0068561D01*
X0200626Y0067562D02*
X0200921Y0067562D01*
X0200921Y0066564D02*
X0200551Y0066564D01*
X0200921Y0065565D02*
X0200137Y0065565D01*
X0200921Y0064567D02*
X0199324Y0064567D01*
X0199309Y0074552D02*
X0200921Y0074552D01*
X0200921Y0075550D02*
X0200131Y0075550D01*
X0200545Y0076549D02*
X0200921Y0076549D01*
X0200921Y0077547D02*
X0200626Y0077547D01*
X0200551Y0078546D02*
X0200921Y0078546D01*
X0200921Y0079544D02*
X0200138Y0079544D01*
X0200921Y0080543D02*
X0199325Y0080543D01*
X0200921Y0081541D02*
X0197571Y0081541D01*
X0197365Y0083483D02*
X0198861Y0084103D01*
X0200006Y0085249D01*
X0200626Y0086745D01*
X0200626Y0088365D01*
X0200006Y0089862D01*
X0198861Y0091007D01*
X0197365Y0091627D01*
X0195745Y0091627D01*
X0194248Y0091007D01*
X0193103Y0089862D01*
X0192483Y0088365D01*
X0192483Y0086745D01*
X0193103Y0085249D01*
X0194248Y0084103D01*
X0195745Y0083483D01*
X0197365Y0083483D01*
X0197497Y0083538D02*
X0200921Y0083538D01*
X0200921Y0082540D02*
X0190241Y0082540D01*
X0190241Y0083538D02*
X0195612Y0083538D01*
X0195539Y0081541D02*
X0190241Y0081541D01*
X0190241Y0080543D02*
X0193784Y0080543D01*
X0192971Y0079544D02*
X0190241Y0079544D01*
X0190241Y0078546D02*
X0192558Y0078546D01*
X0192483Y0077547D02*
X0190241Y0077547D01*
X0190241Y0076549D02*
X0192564Y0076549D01*
X0192978Y0075550D02*
X0190241Y0075550D01*
X0190241Y0074552D02*
X0193800Y0074552D01*
X0188641Y0067555D02*
X0188641Y0132594D01*
X0185560Y0132465D02*
X0162682Y0132465D01*
X0162682Y0131467D02*
X0185560Y0131467D01*
X0185560Y0130468D02*
X0162682Y0130468D01*
X0162682Y0129470D02*
X0187041Y0129470D01*
X0187041Y0128471D02*
X0162682Y0128471D01*
X0162682Y0127473D02*
X0187041Y0127473D01*
X0190241Y0127473D02*
X0192483Y0127473D01*
X0192483Y0126745D02*
X0193103Y0125249D01*
X0194248Y0124103D01*
X0195745Y0123483D01*
X0197365Y0123483D01*
X0198861Y0124103D01*
X0200006Y0125249D01*
X0200626Y0126745D01*
X0200626Y0128365D01*
X0200006Y0129862D01*
X0198861Y0131007D01*
X0197365Y0131627D01*
X0195745Y0131627D01*
X0194248Y0131007D01*
X0193103Y0129862D01*
X0192483Y0128365D01*
X0192483Y0126745D01*
X0192595Y0126474D02*
X0190241Y0126474D01*
X0190241Y0125476D02*
X0193009Y0125476D01*
X0193874Y0124477D02*
X0190241Y0124477D01*
X0190241Y0123479D02*
X0200921Y0123479D01*
X0200921Y0124477D02*
X0199235Y0124477D01*
X0200100Y0125476D02*
X0200921Y0125476D01*
X0200921Y0126474D02*
X0200514Y0126474D01*
X0200626Y0127473D02*
X0200921Y0127473D01*
X0200921Y0128471D02*
X0200582Y0128471D01*
X0200921Y0129470D02*
X0200169Y0129470D01*
X0200921Y0130468D02*
X0199399Y0130468D01*
X0200921Y0131467D02*
X0197750Y0131467D01*
X0197365Y0133483D02*
X0198861Y0134103D01*
X0200006Y0135249D01*
X0200626Y0136745D01*
X0200626Y0138365D01*
X0200006Y0139862D01*
X0198861Y0141007D01*
X0197365Y0141627D01*
X0195745Y0141627D01*
X0194248Y0141007D01*
X0193103Y0139862D01*
X0192483Y0138365D01*
X0192483Y0136745D01*
X0193103Y0135249D01*
X0194248Y0134103D01*
X0195745Y0133483D01*
X0197365Y0133483D01*
X0199220Y0134462D02*
X0200921Y0134462D01*
X0200921Y0133464D02*
X0191722Y0133464D01*
X0191722Y0134462D02*
X0193889Y0134462D01*
X0193015Y0135461D02*
X0191293Y0135461D01*
X0192601Y0136459D02*
X0162682Y0136459D01*
X0162682Y0135461D02*
X0185990Y0135461D01*
X0185560Y0134462D02*
X0162682Y0134462D01*
X0162682Y0133464D02*
X0185560Y0133464D01*
X0190241Y0129470D02*
X0192941Y0129470D01*
X0192527Y0128471D02*
X0190241Y0128471D01*
X0191722Y0130468D02*
X0193710Y0130468D01*
X0195359Y0131467D02*
X0191722Y0131467D01*
X0191722Y0132465D02*
X0200921Y0132465D01*
X0200921Y0135461D02*
X0200094Y0135461D01*
X0200508Y0136459D02*
X0200921Y0136459D01*
X0200921Y0137458D02*
X0200626Y0137458D01*
X0200588Y0138457D02*
X0200921Y0138457D01*
X0200921Y0139455D02*
X0200175Y0139455D01*
X0200921Y0140454D02*
X0199414Y0140454D01*
X0200921Y0141452D02*
X0197786Y0141452D01*
X0197365Y0143483D02*
X0198861Y0144103D01*
X0200006Y0145249D01*
X0200626Y0146745D01*
X0200626Y0148365D01*
X0200006Y0149862D01*
X0198861Y0151007D01*
X0197365Y0151627D01*
X0195745Y0151627D01*
X0194248Y0151007D01*
X0193103Y0149862D01*
X0192483Y0148365D01*
X0192483Y0146745D01*
X0193103Y0145249D01*
X0194248Y0144103D01*
X0195745Y0143483D01*
X0197365Y0143483D01*
X0199205Y0144448D02*
X0200921Y0144448D01*
X0200921Y0145446D02*
X0200088Y0145446D01*
X0200502Y0146445D02*
X0200921Y0146445D01*
X0200921Y0147443D02*
X0200626Y0147443D01*
X0200595Y0148442D02*
X0200921Y0148442D01*
X0200921Y0149440D02*
X0200181Y0149440D01*
X0200921Y0150439D02*
X0199429Y0150439D01*
X0200921Y0151437D02*
X0197822Y0151437D01*
X0196940Y0153434D02*
X0196169Y0153434D01*
X0196169Y0154433D02*
X0196940Y0154433D01*
X0196940Y0155431D02*
X0196169Y0155431D01*
X0196169Y0156430D02*
X0196940Y0156430D01*
X0196169Y0157428D02*
X0162682Y0157428D01*
X0162682Y0156430D02*
X0192083Y0156430D01*
X0192083Y0155431D02*
X0162682Y0155431D01*
X0162682Y0154433D02*
X0192083Y0154433D01*
X0192611Y0153434D02*
X0162682Y0153434D01*
X0162682Y0152436D02*
X0200921Y0152436D01*
X0200921Y0153434D02*
X0200498Y0153434D01*
X0196940Y0158427D02*
X0196169Y0158427D01*
X0196169Y0159425D02*
X0196940Y0159425D01*
X0196940Y0160424D02*
X0196169Y0160424D01*
X0196169Y0161422D02*
X0196940Y0161422D01*
X0197365Y0163483D02*
X0198861Y0164103D01*
X0200006Y0165249D01*
X0200626Y0166745D01*
X0200626Y0168365D01*
X0200006Y0169862D01*
X0198861Y0171007D01*
X0197365Y0171627D01*
X0195745Y0171627D01*
X0194248Y0171007D01*
X0193103Y0169862D01*
X0192483Y0168365D01*
X0192483Y0166745D01*
X0193103Y0165249D01*
X0194248Y0164103D01*
X0195745Y0163483D01*
X0197365Y0163483D01*
X0199175Y0164418D02*
X0200921Y0164418D01*
X0200921Y0165416D02*
X0200076Y0165416D01*
X0200489Y0166415D02*
X0200921Y0166415D01*
X0200921Y0167413D02*
X0200626Y0167413D01*
X0200607Y0168412D02*
X0200921Y0168412D01*
X0200921Y0169410D02*
X0200193Y0169410D01*
X0200921Y0170409D02*
X0199459Y0170409D01*
X0200921Y0171407D02*
X0197894Y0171407D01*
X0197365Y0173483D02*
X0198861Y0174103D01*
X0200006Y0175249D01*
X0200626Y0176745D01*
X0200626Y0178365D01*
X0200006Y0179862D01*
X0198861Y0181007D01*
X0197365Y0181627D01*
X0195745Y0181627D01*
X0194248Y0181007D01*
X0193103Y0179862D01*
X0192483Y0178365D01*
X0192483Y0176745D01*
X0193103Y0175249D01*
X0194248Y0174103D01*
X0195745Y0173483D01*
X0197365Y0173483D01*
X0199161Y0174403D02*
X0200921Y0174403D01*
X0200921Y0175401D02*
X0200070Y0175401D01*
X0200483Y0176400D02*
X0200921Y0176400D01*
X0200921Y0177398D02*
X0200626Y0177398D01*
X0200613Y0178397D02*
X0200921Y0178397D01*
X0200921Y0179395D02*
X0200199Y0179395D01*
X0200921Y0180394D02*
X0199474Y0180394D01*
X0200921Y0181392D02*
X0197930Y0181392D01*
X0197365Y0183483D02*
X0198861Y0184103D01*
X0200006Y0185249D01*
X0200626Y0186745D01*
X0200626Y0188365D01*
X0200006Y0189862D01*
X0198861Y0191007D01*
X0197365Y0191627D01*
X0195745Y0191627D01*
X0194248Y0191007D01*
X0193103Y0189862D01*
X0192483Y0188365D01*
X0192483Y0186745D01*
X0193103Y0185249D01*
X0194248Y0184103D01*
X0195745Y0183483D01*
X0197365Y0183483D01*
X0199146Y0184388D02*
X0200921Y0184388D01*
X0200921Y0183390D02*
X0190241Y0183390D01*
X0190241Y0184388D02*
X0193963Y0184388D01*
X0193046Y0185387D02*
X0191722Y0185387D01*
X0191722Y0185118D02*
X0191722Y0189992D01*
X0191078Y0190636D01*
X0186204Y0190636D01*
X0185560Y0189992D01*
X0185560Y0185118D01*
X0186204Y0184474D01*
X0187041Y0184474D01*
X0187041Y0166187D01*
X0186204Y0166187D01*
X0185560Y0165543D01*
X0185560Y0160670D01*
X0186204Y0160025D01*
X0191078Y0160025D01*
X0191722Y0160670D01*
X0191722Y0165543D01*
X0191078Y0166187D01*
X0190241Y0166187D01*
X0190241Y0184474D01*
X0191078Y0184474D01*
X0191722Y0185118D01*
X0191722Y0186385D02*
X0192632Y0186385D01*
X0192483Y0187384D02*
X0191722Y0187384D01*
X0191722Y0188382D02*
X0192490Y0188382D01*
X0192904Y0189381D02*
X0191722Y0189381D01*
X0191335Y0190379D02*
X0193620Y0190379D01*
X0195143Y0191378D02*
X0164163Y0191378D01*
X0164163Y0192376D02*
X0200921Y0192376D01*
X0200921Y0191378D02*
X0197966Y0191378D01*
X0199489Y0190379D02*
X0200921Y0190379D01*
X0200921Y0189381D02*
X0200206Y0189381D01*
X0200619Y0188382D02*
X0200921Y0188382D01*
X0200921Y0187384D02*
X0200626Y0187384D01*
X0200477Y0186385D02*
X0200921Y0186385D01*
X0200921Y0185387D02*
X0200063Y0185387D01*
X0200921Y0182391D02*
X0190241Y0182391D01*
X0190241Y0181392D02*
X0195179Y0181392D01*
X0193635Y0180394D02*
X0190241Y0180394D01*
X0190241Y0179395D02*
X0192910Y0179395D01*
X0192496Y0178397D02*
X0190241Y0178397D01*
X0190241Y0177398D02*
X0192483Y0177398D01*
X0192626Y0176400D02*
X0190241Y0176400D01*
X0190241Y0175401D02*
X0193040Y0175401D01*
X0193949Y0174403D02*
X0190241Y0174403D01*
X0190241Y0173404D02*
X0200921Y0173404D01*
X0200921Y0172406D02*
X0190241Y0172406D01*
X0190241Y0171407D02*
X0195215Y0171407D01*
X0193650Y0170409D02*
X0190241Y0170409D01*
X0190241Y0169410D02*
X0192916Y0169410D01*
X0192502Y0168412D02*
X0190241Y0168412D01*
X0190241Y0167413D02*
X0192483Y0167413D01*
X0192620Y0166415D02*
X0190241Y0166415D01*
X0191722Y0165416D02*
X0193033Y0165416D01*
X0193934Y0164418D02*
X0191722Y0164418D01*
X0191722Y0163419D02*
X0200921Y0163419D01*
X0200921Y0162421D02*
X0191722Y0162421D01*
X0191722Y0161422D02*
X0192368Y0161422D01*
X0192083Y0160424D02*
X0191477Y0160424D01*
X0192083Y0159425D02*
X0162682Y0159425D01*
X0162682Y0158427D02*
X0192083Y0158427D01*
X0188641Y0163106D02*
X0188641Y0187555D01*
X0185560Y0187384D02*
X0162682Y0187384D01*
X0162682Y0188382D02*
X0185560Y0188382D01*
X0185560Y0189381D02*
X0162682Y0189381D01*
X0164163Y0190379D02*
X0185947Y0190379D01*
X0185560Y0186385D02*
X0162682Y0186385D01*
X0162682Y0185387D02*
X0185560Y0185387D01*
X0187041Y0184388D02*
X0162682Y0184388D01*
X0162682Y0183390D02*
X0187041Y0183390D01*
X0187041Y0182391D02*
X0162682Y0182391D01*
X0162682Y0181392D02*
X0187041Y0181392D01*
X0187041Y0180394D02*
X0162682Y0180394D01*
X0162682Y0179395D02*
X0187041Y0179395D01*
X0187041Y0178397D02*
X0162682Y0178397D01*
X0162682Y0177398D02*
X0187041Y0177398D01*
X0187041Y0176400D02*
X0162682Y0176400D01*
X0162682Y0175401D02*
X0187041Y0175401D01*
X0187041Y0174403D02*
X0162682Y0174403D01*
X0162682Y0173404D02*
X0187041Y0173404D01*
X0187041Y0172406D02*
X0162682Y0172406D01*
X0162682Y0171407D02*
X0187041Y0171407D01*
X0187041Y0170409D02*
X0162682Y0170409D01*
X0162682Y0169410D02*
X0187041Y0169410D01*
X0187041Y0168412D02*
X0162682Y0168412D01*
X0162682Y0167413D02*
X0187041Y0167413D01*
X0187041Y0166415D02*
X0162682Y0166415D01*
X0162682Y0165416D02*
X0185560Y0165416D01*
X0185560Y0164418D02*
X0162682Y0164418D01*
X0162682Y0163419D02*
X0185560Y0163419D01*
X0185560Y0162421D02*
X0162682Y0162421D01*
X0162682Y0161422D02*
X0185560Y0161422D01*
X0185806Y0160424D02*
X0162682Y0160424D01*
X0159482Y0160424D02*
X0157826Y0160424D01*
X0158258Y0159425D02*
X0159482Y0159425D01*
X0159482Y0158427D02*
X0158258Y0158427D01*
X0158258Y0157428D02*
X0159482Y0157428D01*
X0159482Y0156430D02*
X0158258Y0156430D01*
X0158258Y0155431D02*
X0159482Y0155431D01*
X0159482Y0154433D02*
X0156777Y0154433D01*
X0156777Y0153434D02*
X0159482Y0153434D01*
X0159482Y0152436D02*
X0156777Y0152436D01*
X0156777Y0151437D02*
X0159482Y0151437D01*
X0159482Y0150439D02*
X0156777Y0150439D01*
X0156777Y0149440D02*
X0159482Y0149440D01*
X0159482Y0148442D02*
X0156777Y0148442D01*
X0156777Y0147443D02*
X0159482Y0147443D01*
X0159482Y0146445D02*
X0156777Y0146445D01*
X0156777Y0145446D02*
X0159482Y0145446D01*
X0159482Y0144448D02*
X0156777Y0144448D01*
X0156777Y0143449D02*
X0159482Y0143449D01*
X0159482Y0142451D02*
X0156777Y0142451D01*
X0156777Y0141452D02*
X0159482Y0141452D01*
X0159482Y0140454D02*
X0156777Y0140454D01*
X0156777Y0139455D02*
X0159482Y0139455D01*
X0159482Y0138457D02*
X0156777Y0138457D01*
X0156777Y0137458D02*
X0159482Y0137458D01*
X0159482Y0136459D02*
X0156777Y0136459D01*
X0156777Y0135461D02*
X0159482Y0135461D01*
X0159482Y0134462D02*
X0156777Y0134462D01*
X0156777Y0133464D02*
X0159482Y0133464D01*
X0159482Y0132465D02*
X0156777Y0132465D01*
X0156777Y0131467D02*
X0159482Y0131467D01*
X0159482Y0130468D02*
X0156777Y0130468D01*
X0156777Y0129470D02*
X0159482Y0129470D01*
X0159482Y0128471D02*
X0156777Y0128471D01*
X0156777Y0127473D02*
X0159482Y0127473D01*
X0159482Y0126474D02*
X0156777Y0126474D01*
X0156777Y0125476D02*
X0159482Y0125476D01*
X0159482Y0124477D02*
X0156777Y0124477D01*
X0156777Y0123479D02*
X0159482Y0123479D01*
X0159482Y0122480D02*
X0156777Y0122480D01*
X0156777Y0121482D02*
X0159482Y0121482D01*
X0159482Y0120483D02*
X0156777Y0120483D01*
X0156777Y0119485D02*
X0159482Y0119485D01*
X0159482Y0118486D02*
X0156777Y0118486D01*
X0156777Y0117488D02*
X0159482Y0117488D01*
X0159482Y0116489D02*
X0156777Y0116489D01*
X0156777Y0115491D02*
X0159482Y0115491D01*
X0159482Y0114492D02*
X0156777Y0114492D01*
X0156777Y0113494D02*
X0159482Y0113494D01*
X0159482Y0112495D02*
X0156777Y0112495D01*
X0156777Y0111497D02*
X0159482Y0111497D01*
X0159482Y0110498D02*
X0156777Y0110498D01*
X0156777Y0109500D02*
X0159482Y0109500D01*
X0159482Y0108501D02*
X0156777Y0108501D01*
X0156777Y0107503D02*
X0159482Y0107503D01*
X0159482Y0106504D02*
X0156777Y0106504D01*
X0156777Y0105506D02*
X0159482Y0105506D01*
X0159482Y0104507D02*
X0156777Y0104507D01*
X0156777Y0103509D02*
X0159482Y0103509D01*
X0159482Y0102510D02*
X0156777Y0102510D01*
X0156777Y0101512D02*
X0159482Y0101512D01*
X0159482Y0100513D02*
X0156777Y0100513D01*
X0156777Y0099515D02*
X0159482Y0099515D01*
X0159482Y0098516D02*
X0156777Y0098516D01*
X0156777Y0097518D02*
X0159482Y0097518D01*
X0159482Y0096519D02*
X0156777Y0096519D01*
X0156777Y0095521D02*
X0159482Y0095521D01*
X0159482Y0094522D02*
X0156777Y0094522D01*
X0156777Y0093523D02*
X0159482Y0093523D01*
X0159482Y0092525D02*
X0156777Y0092525D01*
X0156777Y0091526D02*
X0159482Y0091526D01*
X0159482Y0090528D02*
X0156777Y0090528D01*
X0156777Y0089529D02*
X0159482Y0089529D01*
X0159482Y0088531D02*
X0156777Y0088531D01*
X0156777Y0087532D02*
X0159482Y0087532D01*
X0159482Y0086534D02*
X0156777Y0086534D01*
X0157714Y0085535D02*
X0159482Y0085535D01*
X0159482Y0084537D02*
X0158258Y0084537D01*
X0158258Y0083538D02*
X0159482Y0083538D01*
X0159482Y0082540D02*
X0158258Y0082540D01*
X0158258Y0081541D02*
X0159482Y0081541D01*
X0158552Y0080543D02*
X0158258Y0080543D01*
X0158001Y0079544D02*
X0157684Y0079544D01*
X0158001Y0078546D02*
X0140551Y0078546D01*
X0140626Y0078365D02*
X0140006Y0079862D01*
X0138861Y0081007D01*
X0137365Y0081627D01*
X0135745Y0081627D01*
X0134248Y0081007D01*
X0133103Y0079862D01*
X0132483Y0078365D01*
X0132483Y0076745D01*
X0133103Y0075249D01*
X0134248Y0074103D01*
X0135745Y0073483D01*
X0137365Y0073483D01*
X0138861Y0074103D01*
X0140006Y0075249D01*
X0140626Y0076745D01*
X0140626Y0078365D01*
X0140626Y0077547D02*
X0158001Y0077547D01*
X0158001Y0076549D02*
X0140545Y0076549D01*
X0140131Y0075550D02*
X0158001Y0075550D01*
X0158568Y0074552D02*
X0139309Y0074552D01*
X0137533Y0073553D02*
X0173749Y0073553D01*
X0173749Y0072555D02*
X0114777Y0072555D01*
X0114794Y0072449D02*
X0114678Y0073182D01*
X0114425Y0073961D01*
X0114053Y0074690D01*
X0113572Y0075352D01*
X0112993Y0075931D01*
X0112331Y0076412D01*
X0111602Y0076784D01*
X0110823Y0077037D01*
X0110090Y0077153D01*
X0110090Y0072449D01*
X0114794Y0072449D01*
X0114557Y0073553D02*
X0135576Y0073553D01*
X0135745Y0071627D02*
X0134248Y0071007D01*
X0133103Y0069862D01*
X0132483Y0068365D01*
X0132483Y0066745D01*
X0133103Y0065249D01*
X0134248Y0064103D01*
X0135745Y0063483D01*
X0137365Y0063483D01*
X0138861Y0064103D01*
X0140006Y0065249D01*
X0140626Y0066745D01*
X0140626Y0068365D01*
X0140006Y0069862D01*
X0138861Y0071007D01*
X0137365Y0071627D01*
X0135745Y0071627D01*
X0135574Y0071556D02*
X0110090Y0071556D01*
X0109121Y0071556D02*
X0104406Y0071556D01*
X0104406Y0072555D02*
X0104434Y0072555D01*
X0104654Y0073553D02*
X0104143Y0073553D01*
X0103730Y0074552D02*
X0105088Y0074552D01*
X0105838Y0075550D02*
X0102808Y0075550D01*
X0103651Y0077165D02*
X0101887Y0077895D01*
X0100537Y0079246D01*
X0099806Y0081010D01*
X0099806Y0082919D01*
X0100537Y0084684D01*
X0101887Y0086034D01*
X0103651Y0086765D01*
X0105561Y0086765D01*
X0107325Y0086034D01*
X0108675Y0084684D01*
X0109406Y0082919D01*
X0109406Y0081010D01*
X0108675Y0079246D01*
X0107325Y0077895D01*
X0105561Y0077165D01*
X0103651Y0077165D01*
X0102727Y0077547D02*
X0096485Y0077547D01*
X0096206Y0076549D02*
X0098130Y0076549D01*
X0096403Y0075550D02*
X0096206Y0075550D01*
X0093006Y0075550D02*
X0092808Y0075550D01*
X0093006Y0076549D02*
X0091081Y0076549D01*
X0092727Y0077547D02*
X0086485Y0077547D01*
X0086206Y0076549D02*
X0088130Y0076549D01*
X0086403Y0075550D02*
X0086206Y0075550D01*
X0087975Y0078546D02*
X0091236Y0078546D01*
X0090413Y0079544D02*
X0088799Y0079544D01*
X0089212Y0080543D02*
X0089999Y0080543D01*
X0089806Y0081541D02*
X0089406Y0081541D01*
X0089406Y0082540D02*
X0089806Y0082540D01*
X0090062Y0083538D02*
X0089149Y0083538D01*
X0088736Y0084537D02*
X0090476Y0084537D01*
X0091388Y0085535D02*
X0087823Y0085535D01*
X0086117Y0086534D02*
X0093094Y0086534D01*
X0096117Y0086534D02*
X0103094Y0086534D01*
X0101388Y0085535D02*
X0097823Y0085535D01*
X0098736Y0084537D02*
X0100476Y0084537D01*
X0100062Y0083538D02*
X0099149Y0083538D01*
X0099406Y0082540D02*
X0099806Y0082540D01*
X0099806Y0081541D02*
X0099406Y0081541D01*
X0099212Y0080543D02*
X0099999Y0080543D01*
X0100413Y0079544D02*
X0098799Y0079544D01*
X0097975Y0078546D02*
X0101236Y0078546D01*
X0101081Y0076549D02*
X0107149Y0076549D01*
X0106485Y0077547D02*
X0112727Y0077547D01*
X0111887Y0077895D02*
X0113651Y0077165D01*
X0115561Y0077165D01*
X0117325Y0077895D01*
X0118675Y0079246D01*
X0119406Y0081010D01*
X0119406Y0082919D01*
X0118675Y0084684D01*
X0117325Y0086034D01*
X0115561Y0086765D01*
X0113651Y0086765D01*
X0111887Y0086034D01*
X0110537Y0084684D01*
X0109806Y0082919D01*
X0109806Y0081010D01*
X0110537Y0079246D01*
X0111887Y0077895D01*
X0111236Y0078546D02*
X0107975Y0078546D01*
X0108799Y0079544D02*
X0110413Y0079544D01*
X0109999Y0080543D02*
X0109212Y0080543D01*
X0109406Y0081541D02*
X0109806Y0081541D01*
X0109806Y0082540D02*
X0109406Y0082540D01*
X0109149Y0083538D02*
X0110062Y0083538D01*
X0110476Y0084537D02*
X0108736Y0084537D01*
X0107823Y0085535D02*
X0111388Y0085535D01*
X0113094Y0086534D02*
X0106117Y0086534D01*
X0116117Y0086534D02*
X0132570Y0086534D01*
X0132483Y0086745D02*
X0133103Y0085249D01*
X0134248Y0084103D01*
X0135745Y0083483D01*
X0137365Y0083483D01*
X0138861Y0084103D01*
X0140006Y0085249D01*
X0140626Y0086745D01*
X0140626Y0088365D01*
X0140006Y0089862D01*
X0138861Y0091007D01*
X0137365Y0091627D01*
X0135745Y0091627D01*
X0134248Y0091007D01*
X0133103Y0089862D01*
X0132483Y0088365D01*
X0132483Y0086745D01*
X0132483Y0087532D02*
X0040527Y0087532D01*
X0039592Y0086534D02*
X0041480Y0086534D01*
X0039774Y0085535D02*
X0039592Y0085535D01*
X0041525Y0088531D02*
X0132552Y0088531D01*
X0132965Y0089529D02*
X0042524Y0089529D01*
X0043522Y0090528D02*
X0133769Y0090528D01*
X0135503Y0091526D02*
X0044521Y0091526D01*
X0045519Y0092525D02*
X0147671Y0092525D01*
X0147671Y0093523D02*
X0137461Y0093523D01*
X0135648Y0093523D02*
X0046518Y0093523D01*
X0047517Y0094522D02*
X0133830Y0094522D01*
X0132990Y0095521D02*
X0048515Y0095521D01*
X0049514Y0096519D02*
X0132577Y0096519D01*
X0132483Y0097518D02*
X0050512Y0097518D01*
X0051511Y0098516D02*
X0132546Y0098516D01*
X0132959Y0099515D02*
X0052509Y0099515D01*
X0053508Y0100513D02*
X0133754Y0100513D01*
X0135467Y0101512D02*
X0122604Y0101512D01*
X0122825Y0102510D02*
X0141766Y0102510D01*
X0141766Y0101512D02*
X0137643Y0101512D01*
X0139355Y0100513D02*
X0140806Y0100513D01*
X0140285Y0099515D02*
X0140150Y0099515D01*
X0143366Y0097555D02*
X0143366Y0142634D01*
X0144966Y0139455D02*
X0147671Y0139455D01*
X0147671Y0138457D02*
X0144966Y0138457D01*
X0144966Y0137458D02*
X0147671Y0137458D01*
X0147671Y0136459D02*
X0144966Y0136459D01*
X0144966Y0135461D02*
X0147671Y0135461D01*
X0147671Y0134462D02*
X0144966Y0134462D01*
X0144966Y0133464D02*
X0147671Y0133464D01*
X0147671Y0132465D02*
X0144966Y0132465D01*
X0144966Y0131467D02*
X0147671Y0131467D01*
X0147671Y0130468D02*
X0144966Y0130468D01*
X0144966Y0129470D02*
X0147671Y0129470D01*
X0147671Y0128471D02*
X0144966Y0128471D01*
X0144966Y0127473D02*
X0147671Y0127473D01*
X0147671Y0126474D02*
X0144966Y0126474D01*
X0144966Y0125476D02*
X0147671Y0125476D01*
X0147671Y0124477D02*
X0144966Y0124477D01*
X0144966Y0123479D02*
X0147671Y0123479D01*
X0147671Y0122480D02*
X0144966Y0122480D01*
X0144966Y0121482D02*
X0147671Y0121482D01*
X0147671Y0120483D02*
X0144966Y0120483D01*
X0144966Y0119485D02*
X0147671Y0119485D01*
X0147671Y0118486D02*
X0144966Y0118486D01*
X0144966Y0117488D02*
X0147671Y0117488D01*
X0147671Y0116489D02*
X0144966Y0116489D01*
X0144966Y0115491D02*
X0147671Y0115491D01*
X0147671Y0114492D02*
X0144966Y0114492D01*
X0144966Y0113494D02*
X0147671Y0113494D01*
X0147671Y0112495D02*
X0144966Y0112495D01*
X0144966Y0111497D02*
X0147671Y0111497D01*
X0147671Y0110498D02*
X0144966Y0110498D01*
X0144966Y0109500D02*
X0147671Y0109500D01*
X0147671Y0108501D02*
X0144966Y0108501D01*
X0144966Y0107503D02*
X0147671Y0107503D01*
X0147671Y0106504D02*
X0144966Y0106504D01*
X0144966Y0105506D02*
X0147671Y0105506D01*
X0147671Y0104507D02*
X0144966Y0104507D01*
X0144966Y0103509D02*
X0147671Y0103509D01*
X0147671Y0102510D02*
X0144966Y0102510D01*
X0144966Y0101512D02*
X0147671Y0101512D01*
X0147671Y0100513D02*
X0145925Y0100513D01*
X0146447Y0099515D02*
X0147671Y0099515D01*
X0147671Y0098516D02*
X0146447Y0098516D01*
X0146447Y0097518D02*
X0147671Y0097518D01*
X0147671Y0096519D02*
X0146447Y0096519D01*
X0146447Y0095521D02*
X0147671Y0095521D01*
X0147671Y0094522D02*
X0145850Y0094522D01*
X0147671Y0091526D02*
X0137607Y0091526D01*
X0139340Y0090528D02*
X0146726Y0090528D01*
X0146190Y0089529D02*
X0140144Y0089529D01*
X0140558Y0088531D02*
X0146190Y0088531D01*
X0146190Y0087532D02*
X0140626Y0087532D01*
X0140539Y0086534D02*
X0146190Y0086534D01*
X0146190Y0085535D02*
X0140125Y0085535D01*
X0139295Y0084537D02*
X0146772Y0084537D01*
X0149271Y0087555D02*
X0149271Y0152555D01*
X0146190Y0152436D02*
X0123051Y0152436D01*
X0123051Y0153434D02*
X0146190Y0153434D01*
X0146190Y0154433D02*
X0139190Y0154433D01*
X0140082Y0155431D02*
X0146629Y0155431D01*
X0146190Y0151437D02*
X0137822Y0151437D01*
X0139429Y0150439D02*
X0146190Y0150439D01*
X0147671Y0149440D02*
X0140181Y0149440D01*
X0140595Y0148442D02*
X0147671Y0148442D01*
X0147671Y0147443D02*
X0140626Y0147443D01*
X0140502Y0146445D02*
X0147671Y0146445D01*
X0147671Y0145446D02*
X0146071Y0145446D01*
X0146447Y0144448D02*
X0147671Y0144448D01*
X0147671Y0143449D02*
X0146447Y0143449D01*
X0146447Y0142451D02*
X0147671Y0142451D01*
X0147671Y0141452D02*
X0146447Y0141452D01*
X0146447Y0140454D02*
X0147671Y0140454D01*
X0141766Y0139455D02*
X0141026Y0139455D01*
X0141026Y0138457D02*
X0141766Y0138457D01*
X0141766Y0137458D02*
X0136941Y0137458D01*
X0136940Y0138457D02*
X0136169Y0138457D01*
X0136169Y0139455D02*
X0136940Y0139455D01*
X0136940Y0140454D02*
X0136169Y0140454D01*
X0136169Y0141452D02*
X0136940Y0141452D01*
X0139205Y0144448D02*
X0140285Y0144448D01*
X0140088Y0145446D02*
X0140660Y0145446D01*
X0132607Y0146445D02*
X0116031Y0146445D01*
X0110331Y0143449D02*
X0109630Y0143449D01*
X0110331Y0142451D02*
X0108632Y0142451D01*
X0107633Y0141452D02*
X0110695Y0141452D01*
X0100059Y0139455D02*
X0132083Y0139455D01*
X0132083Y0138457D02*
X0100059Y0138457D01*
X0123051Y0162421D02*
X0159482Y0162421D01*
X0159482Y0163419D02*
X0123051Y0163419D01*
X0123051Y0172406D02*
X0140285Y0172406D01*
X0140285Y0173404D02*
X0123051Y0173404D01*
X0137894Y0171407D02*
X0140285Y0171407D01*
X0140285Y0170409D02*
X0139459Y0170409D01*
X0140193Y0169410D02*
X0159482Y0169410D01*
X0159482Y0168412D02*
X0140607Y0168412D01*
X0140626Y0167413D02*
X0159482Y0167413D01*
X0159482Y0166415D02*
X0140489Y0166415D01*
X0140076Y0165416D02*
X0159482Y0165416D01*
X0159482Y0164418D02*
X0139175Y0164418D01*
X0137858Y0161422D02*
X0159482Y0161422D01*
X0155177Y0157555D02*
X0155177Y0082555D01*
X0152670Y0079544D02*
X0140138Y0079544D01*
X0139325Y0080543D02*
X0152096Y0080543D01*
X0152096Y0081541D02*
X0137571Y0081541D01*
X0137497Y0083538D02*
X0152096Y0083538D01*
X0152096Y0082540D02*
X0119406Y0082540D01*
X0119406Y0081541D02*
X0135539Y0081541D01*
X0135612Y0083538D02*
X0119149Y0083538D01*
X0118736Y0084537D02*
X0133815Y0084537D01*
X0132984Y0085535D02*
X0117823Y0085535D01*
X0119212Y0080543D02*
X0133784Y0080543D01*
X0132971Y0079544D02*
X0118799Y0079544D01*
X0117975Y0078546D02*
X0132558Y0078546D01*
X0132483Y0077547D02*
X0116485Y0077547D01*
X0113374Y0075550D02*
X0132978Y0075550D01*
X0132564Y0076549D02*
X0112063Y0076549D01*
X0110090Y0076549D02*
X0109122Y0076549D01*
X0109122Y0075550D02*
X0110090Y0075550D01*
X0110090Y0074552D02*
X0109122Y0074552D01*
X0109122Y0073553D02*
X0110090Y0073553D01*
X0110090Y0072555D02*
X0109122Y0072555D01*
X0104995Y0069559D02*
X0104274Y0069559D01*
X0104219Y0070558D02*
X0104595Y0070558D01*
X0105272Y0068561D02*
X0105656Y0068561D01*
X0106271Y0067562D02*
X0106818Y0067562D01*
X0107269Y0066564D02*
X0108788Y0066564D01*
X0106889Y0064681D02*
X0111870Y0064681D01*
X0114951Y0064567D02*
X0133785Y0064567D01*
X0132972Y0065565D02*
X0114951Y0065565D01*
X0114951Y0066564D02*
X0132558Y0066564D01*
X0132483Y0067562D02*
X0114506Y0067562D01*
X0113556Y0068561D02*
X0132564Y0068561D01*
X0132978Y0069559D02*
X0114216Y0069559D01*
X0114616Y0070558D02*
X0133799Y0070558D01*
X0137535Y0071556D02*
X0173749Y0071556D01*
X0173749Y0070558D02*
X0139310Y0070558D01*
X0140132Y0069559D02*
X0174308Y0069559D01*
X0175230Y0068561D02*
X0140545Y0068561D01*
X0140626Y0067562D02*
X0175230Y0067562D01*
X0175230Y0066564D02*
X0140551Y0066564D01*
X0140137Y0065565D02*
X0175230Y0065565D01*
X0175230Y0064567D02*
X0139324Y0064567D01*
X0137569Y0063568D02*
X0175230Y0063568D01*
X0175230Y0062570D02*
X0114951Y0062570D01*
X0114951Y0063568D02*
X0135540Y0063568D01*
X0135745Y0061627D02*
X0134248Y0061007D01*
X0133103Y0059862D01*
X0132483Y0058365D01*
X0132483Y0056745D01*
X0133103Y0055249D01*
X0134248Y0054103D01*
X0135745Y0053483D01*
X0137365Y0053483D01*
X0138861Y0054103D01*
X0140006Y0055249D01*
X0140626Y0056745D01*
X0140626Y0058365D01*
X0140006Y0059862D01*
X0138861Y0061007D01*
X0137365Y0061627D01*
X0135745Y0061627D01*
X0135610Y0061571D02*
X0110655Y0061571D01*
X0111014Y0060573D02*
X0133814Y0060573D01*
X0132984Y0059574D02*
X0111014Y0059574D01*
X0111014Y0058576D02*
X0132570Y0058576D01*
X0132483Y0057577D02*
X0111014Y0057577D01*
X0111014Y0056579D02*
X0132552Y0056579D01*
X0132966Y0055580D02*
X0106803Y0055580D01*
X0107077Y0054582D02*
X0117615Y0054582D01*
X0118054Y0054764D02*
X0115188Y0053576D01*
X0112994Y0051382D01*
X0111807Y0048516D01*
X0111807Y0045413D01*
X0112994Y0042547D01*
X0115188Y0040353D01*
X0118054Y0039165D01*
X0121157Y0039165D01*
X0124024Y0040353D01*
X0126218Y0042547D01*
X0127405Y0045413D01*
X0127405Y0048516D01*
X0126218Y0051382D01*
X0124024Y0053576D01*
X0121157Y0054764D01*
X0118054Y0054764D01*
X0115204Y0053583D02*
X0107077Y0053583D01*
X0107077Y0052585D02*
X0114196Y0052585D01*
X0113197Y0051586D02*
X0107077Y0051586D01*
X0107077Y0050588D02*
X0112665Y0050588D01*
X0112251Y0049589D02*
X0102952Y0049589D01*
X0103140Y0048590D02*
X0111837Y0048590D01*
X0111807Y0047592D02*
X0103140Y0047592D01*
X0103140Y0046593D02*
X0111807Y0046593D01*
X0111807Y0045595D02*
X0103140Y0045595D01*
X0103140Y0044596D02*
X0112145Y0044596D01*
X0112558Y0043598D02*
X0099100Y0043598D01*
X0099203Y0042599D02*
X0112972Y0042599D01*
X0113940Y0041601D02*
X0099203Y0041601D01*
X0099203Y0040602D02*
X0114938Y0040602D01*
X0116996Y0039604D02*
X0099203Y0039604D01*
X0099186Y0038605D02*
X0132583Y0038605D01*
X0132483Y0038365D02*
X0132483Y0036745D01*
X0133103Y0035249D01*
X0134248Y0034103D01*
X0135745Y0033483D01*
X0137365Y0033483D01*
X0138861Y0034103D01*
X0140006Y0035249D01*
X0140626Y0036745D01*
X0140626Y0038365D01*
X0140006Y0039862D01*
X0138861Y0041007D01*
X0137365Y0041627D01*
X0135745Y0041627D01*
X0134248Y0041007D01*
X0133103Y0039862D01*
X0132483Y0038365D01*
X0132483Y0037607D02*
X0007070Y0037607D01*
X0007070Y0036608D02*
X0132540Y0036608D01*
X0132953Y0035610D02*
X0007070Y0035610D01*
X0007070Y0034611D02*
X0133740Y0034611D01*
X0135432Y0033613D02*
X0007070Y0033613D01*
X0007070Y0032614D02*
X0200921Y0032614D01*
X0200921Y0031616D02*
X0197391Y0031616D01*
X0197365Y0031627D02*
X0195745Y0031627D01*
X0194248Y0031007D01*
X0193103Y0029862D01*
X0192483Y0028365D01*
X0192483Y0026745D01*
X0193103Y0025249D01*
X0194248Y0024103D01*
X0195745Y0023483D01*
X0197365Y0023483D01*
X0198861Y0024103D01*
X0200006Y0025249D01*
X0200626Y0026745D01*
X0200626Y0028365D01*
X0200006Y0029862D01*
X0198861Y0031007D01*
X0197365Y0031627D01*
X0195718Y0031616D02*
X0185817Y0031616D01*
X0185817Y0031685D02*
X0185172Y0032329D01*
X0180299Y0032329D01*
X0179655Y0031685D01*
X0179655Y0026811D01*
X0180299Y0026167D01*
X0185172Y0026167D01*
X0185817Y0026811D01*
X0185817Y0027361D01*
X0185891Y0027361D01*
X0188289Y0024962D01*
X0188289Y0023655D01*
X0186375Y0023655D01*
X0186338Y0023619D01*
X0186302Y0023655D01*
X0183815Y0023655D01*
X0183779Y0023619D01*
X0183743Y0023655D01*
X0181749Y0023655D01*
X0181649Y0023755D01*
X0181307Y0023953D01*
X0180925Y0024055D01*
X0179940Y0024055D01*
X0178956Y0024055D01*
X0178574Y0023953D01*
X0178232Y0023755D01*
X0177953Y0023476D01*
X0177755Y0023134D01*
X0177653Y0022753D01*
X0177653Y0019898D01*
X0179940Y0019898D01*
X0179940Y0019898D01*
X0179940Y0024055D01*
X0179940Y0019898D01*
X0179940Y0019898D01*
X0177653Y0019898D01*
X0177653Y0017043D01*
X0177755Y0016661D01*
X0177953Y0016319D01*
X0178232Y0016040D01*
X0178574Y0015842D01*
X0178956Y0015740D01*
X0179940Y0015740D01*
X0179940Y0019898D01*
X0179940Y0019898D01*
X0179940Y0015740D01*
X0180925Y0015740D01*
X0181307Y0015842D01*
X0181649Y0016040D01*
X0181749Y0016140D01*
X0183743Y0016140D01*
X0183779Y0016177D01*
X0183815Y0016140D01*
X0186302Y0016140D01*
X0186338Y0016177D01*
X0186375Y0016140D01*
X0188861Y0016140D01*
X0188897Y0016177D01*
X0188934Y0016140D01*
X0191420Y0016140D01*
X0192064Y0016785D01*
X0192064Y0026526D01*
X0187454Y0031135D01*
X0185891Y0031135D01*
X0185817Y0031135D01*
X0185817Y0031685D01*
X0187973Y0030617D02*
X0193859Y0030617D01*
X0193002Y0029619D02*
X0188971Y0029619D01*
X0189970Y0028620D02*
X0192589Y0028620D01*
X0192483Y0027622D02*
X0190968Y0027622D01*
X0191967Y0026623D02*
X0192533Y0026623D01*
X0192947Y0025625D02*
X0192064Y0025625D01*
X0192064Y0024626D02*
X0193725Y0024626D01*
X0192064Y0023628D02*
X0195396Y0023628D01*
X0197157Y0022629D02*
X0198157Y0022629D01*
X0198157Y0021631D02*
X0197157Y0021631D01*
X0197157Y0020632D02*
X0198157Y0020632D01*
X0198157Y0019634D02*
X0197157Y0019634D01*
X0197157Y0018635D02*
X0192064Y0018635D01*
X0192064Y0017637D02*
X0193007Y0017637D01*
X0193007Y0016638D02*
X0191918Y0016638D01*
X0193131Y0015640D02*
X0176986Y0015640D01*
X0177007Y0015677D02*
X0177110Y0016058D01*
X0177110Y0018512D01*
X0172960Y0018512D01*
X0172960Y0019512D01*
X0171960Y0019512D01*
X0171960Y0023268D01*
X0169113Y0023268D01*
X0168732Y0023165D01*
X0168389Y0022968D01*
X0168110Y0022689D01*
X0167913Y0022347D01*
X0167811Y0021965D01*
X0167811Y0019512D01*
X0171960Y0019512D01*
X0171960Y0018512D01*
X0167811Y0018512D01*
X0167811Y0016058D01*
X0167913Y0015677D01*
X0168110Y0015335D01*
X0168389Y0015056D01*
X0168732Y0014858D01*
X0169113Y0014756D01*
X0171960Y0014756D01*
X0171960Y0018512D01*
X0172960Y0018512D01*
X0172960Y0014756D01*
X0175807Y0014756D01*
X0176189Y0014858D01*
X0176531Y0015056D01*
X0176810Y0015335D01*
X0177007Y0015677D01*
X0177110Y0016638D02*
X0177769Y0016638D01*
X0177653Y0017637D02*
X0177110Y0017637D01*
X0177653Y0018635D02*
X0172960Y0018635D01*
X0172960Y0019512D02*
X0177110Y0019512D01*
X0177110Y0021965D01*
X0177007Y0022347D01*
X0176810Y0022689D01*
X0176531Y0022968D01*
X0176189Y0023165D01*
X0175807Y0023268D01*
X0172960Y0023268D01*
X0172960Y0019512D01*
X0172960Y0019634D02*
X0171960Y0019634D01*
X0171960Y0020632D02*
X0172960Y0020632D01*
X0172960Y0021631D02*
X0171960Y0021631D01*
X0171960Y0022629D02*
X0172960Y0022629D01*
X0176844Y0022629D02*
X0177653Y0022629D01*
X0177653Y0021631D02*
X0177110Y0021631D01*
X0177110Y0020632D02*
X0177653Y0020632D01*
X0177653Y0019634D02*
X0177110Y0019634D01*
X0179940Y0019634D02*
X0179940Y0019634D01*
X0179940Y0020632D02*
X0179940Y0020632D01*
X0179940Y0021631D02*
X0179940Y0021631D01*
X0179940Y0022629D02*
X0179940Y0022629D01*
X0179940Y0023628D02*
X0179940Y0023628D01*
X0178104Y0023628D02*
X0152340Y0023628D01*
X0152340Y0024626D02*
X0188289Y0024626D01*
X0187627Y0025625D02*
X0152340Y0025625D01*
X0152340Y0026167D02*
X0152889Y0026167D01*
X0153533Y0026811D01*
X0153533Y0031685D01*
X0152889Y0032329D01*
X0148015Y0032329D01*
X0147371Y0031685D01*
X0147371Y0026811D01*
X0148015Y0026167D01*
X0148565Y0026167D01*
X0148565Y0023655D01*
X0146650Y0023655D01*
X0146614Y0023619D01*
X0146577Y0023655D01*
X0144091Y0023655D01*
X0144055Y0023619D01*
X0144018Y0023655D01*
X0142025Y0023655D01*
X0141924Y0023755D01*
X0141582Y0023953D01*
X0141201Y0024055D01*
X0140216Y0024055D01*
X0139231Y0024055D01*
X0138850Y0023953D01*
X0138508Y0023755D01*
X0138228Y0023476D01*
X0138031Y0023134D01*
X0137929Y0022753D01*
X0137929Y0019898D01*
X0140216Y0019898D01*
X0140216Y0024055D01*
X0140216Y0019898D01*
X0140216Y0019898D01*
X0140216Y0019898D01*
X0137929Y0019898D01*
X0137929Y0017043D01*
X0138031Y0016661D01*
X0138228Y0016319D01*
X0138508Y0016040D01*
X0138850Y0015842D01*
X0139231Y0015740D01*
X0140216Y0015740D01*
X0140216Y0019898D01*
X0140216Y0015740D01*
X0141201Y0015740D01*
X0141582Y0015842D01*
X0141924Y0016040D01*
X0142025Y0016140D01*
X0144018Y0016140D01*
X0144055Y0016177D01*
X0144091Y0016140D01*
X0146577Y0016140D01*
X0146614Y0016177D01*
X0146650Y0016140D01*
X0149136Y0016140D01*
X0149173Y0016177D01*
X0149209Y0016140D01*
X0151695Y0016140D01*
X0152340Y0016785D01*
X0152340Y0026167D01*
X0153345Y0026623D02*
X0179843Y0026623D01*
X0179655Y0027622D02*
X0153533Y0027622D01*
X0153533Y0028620D02*
X0179655Y0028620D01*
X0179655Y0029619D02*
X0153533Y0029619D01*
X0153533Y0030617D02*
X0179655Y0030617D01*
X0179655Y0031616D02*
X0153533Y0031616D01*
X0147371Y0031616D02*
X0137391Y0031616D01*
X0137365Y0031627D02*
X0135745Y0031627D01*
X0134248Y0031007D01*
X0133103Y0029862D01*
X0132483Y0028365D01*
X0132483Y0026745D01*
X0133103Y0025249D01*
X0134248Y0024103D01*
X0135745Y0023483D01*
X0137365Y0023483D01*
X0138861Y0024103D01*
X0140006Y0025249D01*
X0140626Y0026745D01*
X0140626Y0028365D01*
X0140006Y0029862D01*
X0138861Y0031007D01*
X0137365Y0031627D01*
X0135718Y0031616D02*
X0007070Y0031616D01*
X0007070Y0030617D02*
X0133859Y0030617D01*
X0133002Y0029619D02*
X0007070Y0029619D01*
X0007070Y0028620D02*
X0132589Y0028620D01*
X0132483Y0027622D02*
X0007070Y0027622D01*
X0007070Y0026623D02*
X0132533Y0026623D01*
X0132947Y0025625D02*
X0007070Y0025625D01*
X0007070Y0024626D02*
X0133725Y0024626D01*
X0133236Y0023268D02*
X0133236Y0019512D01*
X0137385Y0019512D01*
X0137385Y0021965D01*
X0137283Y0022347D01*
X0137086Y0022689D01*
X0136806Y0022968D01*
X0136464Y0023165D01*
X0136083Y0023268D01*
X0133236Y0023268D01*
X0133236Y0022629D02*
X0132236Y0022629D01*
X0132236Y0023268D02*
X0129389Y0023268D01*
X0129007Y0023165D01*
X0128665Y0022968D01*
X0128386Y0022689D01*
X0128188Y0022347D01*
X0128086Y0021965D01*
X0128086Y0019512D01*
X0132236Y0019512D01*
X0132236Y0023268D01*
X0132236Y0021631D02*
X0133236Y0021631D01*
X0133236Y0020632D02*
X0132236Y0020632D01*
X0132236Y0019634D02*
X0133236Y0019634D01*
X0133236Y0019512D02*
X0132236Y0019512D01*
X0132236Y0018512D01*
X0133236Y0018512D01*
X0133236Y0019512D01*
X0133236Y0018635D02*
X0137929Y0018635D01*
X0137385Y0018512D02*
X0133236Y0018512D01*
X0133236Y0014756D01*
X0136083Y0014756D01*
X0136464Y0014858D01*
X0136806Y0015056D01*
X0137086Y0015335D01*
X0137283Y0015677D01*
X0137385Y0016058D01*
X0137385Y0018512D01*
X0137385Y0017637D02*
X0137929Y0017637D01*
X0138044Y0016638D02*
X0137385Y0016638D01*
X0137262Y0015640D02*
X0153407Y0015640D01*
X0153385Y0015677D02*
X0153583Y0015335D01*
X0153862Y0015056D01*
X0154204Y0014858D01*
X0154585Y0014756D01*
X0157433Y0014756D01*
X0157433Y0018512D01*
X0158433Y0018512D01*
X0158433Y0019512D01*
X0162582Y0019512D01*
X0162582Y0021965D01*
X0162480Y0022347D01*
X0162282Y0022689D01*
X0162003Y0022968D01*
X0161661Y0023165D01*
X0161280Y0023268D01*
X0158433Y0023268D01*
X0158433Y0019512D01*
X0157433Y0019512D01*
X0157433Y0023268D01*
X0154585Y0023268D01*
X0154204Y0023165D01*
X0153862Y0022968D01*
X0153583Y0022689D01*
X0153385Y0022347D01*
X0153283Y0021965D01*
X0153283Y0019512D01*
X0157433Y0019512D01*
X0157433Y0018512D01*
X0153283Y0018512D01*
X0153283Y0016058D01*
X0153385Y0015677D01*
X0153283Y0016638D02*
X0152193Y0016638D01*
X0152340Y0017637D02*
X0153283Y0017637D01*
X0152340Y0018635D02*
X0157433Y0018635D01*
X0157433Y0017637D02*
X0158433Y0017637D01*
X0158433Y0018512D02*
X0158433Y0014756D01*
X0161280Y0014756D01*
X0161661Y0014858D01*
X0162003Y0015056D01*
X0162282Y0015335D01*
X0162480Y0015677D01*
X0162582Y0016058D01*
X0162582Y0018512D01*
X0158433Y0018512D01*
X0158433Y0018635D02*
X0171960Y0018635D01*
X0171960Y0017637D02*
X0172960Y0017637D01*
X0172960Y0016638D02*
X0171960Y0016638D01*
X0171960Y0015640D02*
X0172960Y0015640D01*
X0172566Y0013643D02*
X0171566Y0013643D01*
X0171566Y0012644D02*
X0172566Y0012644D01*
X0172566Y0011646D02*
X0171566Y0011646D01*
X0171566Y0010647D02*
X0172566Y0010647D01*
X0172566Y0009866D02*
X0176275Y0009866D01*
X0180425Y0009866D01*
X0180425Y0008866D01*
X0176275Y0008866D01*
X0172566Y0008866D01*
X0172566Y0009866D01*
X0172566Y0009649D02*
X0180425Y0009649D01*
X0180425Y0010647D02*
X0181425Y0010647D01*
X0181425Y0009649D02*
X0188692Y0009649D01*
X0188692Y0010647D02*
X0189692Y0010647D01*
X0189692Y0009866D02*
X0193842Y0009866D01*
X0193842Y0009866D01*
X0197551Y0009866D01*
X0197551Y0008866D01*
X0193842Y0008866D01*
X0193842Y0008866D01*
X0189692Y0008866D01*
X0189692Y0009866D01*
X0189692Y0009649D02*
X0197551Y0009649D01*
X0197551Y0010647D02*
X0198551Y0010647D01*
X0198551Y0011646D02*
X0197551Y0011646D01*
X0197551Y0012644D02*
X0198551Y0012644D01*
X0198551Y0013643D02*
X0197551Y0013643D01*
X0195727Y0013643D02*
X0193751Y0013643D01*
X0193842Y0012644D02*
X0194448Y0012644D01*
X0197157Y0015640D02*
X0198157Y0015640D01*
X0198157Y0016638D02*
X0197157Y0016638D01*
X0197157Y0017637D02*
X0198157Y0017637D01*
X0200921Y0014641D02*
X0007070Y0014641D01*
X0007070Y0013643D02*
X0130018Y0013643D01*
X0129389Y0014756D02*
X0132236Y0014756D01*
X0132236Y0018512D01*
X0128086Y0018512D01*
X0128086Y0016058D01*
X0128188Y0015677D01*
X0128386Y0015335D01*
X0128665Y0015056D01*
X0129007Y0014858D01*
X0129389Y0014756D01*
X0128210Y0015640D02*
X0007070Y0015640D01*
X0007070Y0016638D02*
X0128086Y0016638D01*
X0128086Y0017637D02*
X0007070Y0017637D01*
X0007070Y0018635D02*
X0132236Y0018635D01*
X0132236Y0017637D02*
X0133236Y0017637D01*
X0133236Y0016638D02*
X0132236Y0016638D01*
X0132236Y0015640D02*
X0133236Y0015640D01*
X0132842Y0013643D02*
X0131842Y0013643D01*
X0131842Y0012644D02*
X0132842Y0012644D01*
X0132842Y0011646D02*
X0131842Y0011646D01*
X0131842Y0010647D02*
X0132842Y0010647D01*
X0132842Y0009649D02*
X0140700Y0009649D01*
X0140700Y0010647D02*
X0141700Y0010647D01*
X0141700Y0009649D02*
X0148968Y0009649D01*
X0148968Y0010647D02*
X0149968Y0010647D01*
X0149968Y0009649D02*
X0157826Y0009649D01*
X0157826Y0010647D02*
X0158826Y0010647D01*
X0158826Y0009649D02*
X0171566Y0009649D01*
X0167767Y0011646D02*
X0162625Y0011646D01*
X0163026Y0010647D02*
X0167367Y0010647D01*
X0167254Y0008650D02*
X0163139Y0008650D01*
X0162885Y0007652D02*
X0167508Y0007652D01*
X0168024Y0006653D02*
X0162369Y0006653D01*
X0161495Y0005655D02*
X0168898Y0005655D01*
X0176275Y0008866D02*
X0176275Y0008866D01*
X0176275Y0009866D02*
X0176275Y0009866D01*
X0176275Y0012644D02*
X0175669Y0012644D01*
X0176366Y0013643D02*
X0174390Y0013643D01*
X0169743Y0013643D02*
X0160650Y0013643D01*
X0161929Y0012644D02*
X0168464Y0012644D01*
X0167934Y0015640D02*
X0162458Y0015640D01*
X0162582Y0016638D02*
X0167811Y0016638D01*
X0167811Y0017637D02*
X0162582Y0017637D01*
X0162582Y0019634D02*
X0167811Y0019634D01*
X0167811Y0020632D02*
X0162582Y0020632D01*
X0162582Y0021631D02*
X0167811Y0021631D01*
X0168076Y0022629D02*
X0162317Y0022629D01*
X0158433Y0022629D02*
X0157433Y0022629D01*
X0157433Y0021631D02*
X0158433Y0021631D01*
X0158433Y0020632D02*
X0157433Y0020632D01*
X0157433Y0019634D02*
X0158433Y0019634D01*
X0158433Y0016638D02*
X0157433Y0016638D01*
X0157433Y0015640D02*
X0158433Y0015640D01*
X0158826Y0013643D02*
X0157826Y0013643D01*
X0157826Y0012644D02*
X0158826Y0012644D01*
X0158826Y0011646D02*
X0157826Y0011646D01*
X0156002Y0013643D02*
X0154027Y0013643D01*
X0154118Y0012644D02*
X0154724Y0012644D01*
X0154118Y0009866D02*
X0154118Y0009866D01*
X0154118Y0008866D02*
X0154118Y0008866D01*
X0149968Y0011646D02*
X0148968Y0011646D01*
X0148968Y0012644D02*
X0149968Y0012644D01*
X0149968Y0013643D02*
X0148968Y0013643D01*
X0152340Y0019634D02*
X0153283Y0019634D01*
X0153283Y0020632D02*
X0152340Y0020632D01*
X0152340Y0021631D02*
X0153283Y0021631D01*
X0153548Y0022629D02*
X0152340Y0022629D01*
X0148565Y0024626D02*
X0139384Y0024626D01*
X0140162Y0025625D02*
X0148565Y0025625D01*
X0147559Y0026623D02*
X0140576Y0026623D01*
X0140626Y0027622D02*
X0147371Y0027622D01*
X0147371Y0028620D02*
X0140521Y0028620D01*
X0140107Y0029619D02*
X0147371Y0029619D01*
X0147371Y0030617D02*
X0139251Y0030617D01*
X0137677Y0033613D02*
X0195432Y0033613D01*
X0193740Y0034611D02*
X0139369Y0034611D01*
X0140156Y0035610D02*
X0192953Y0035610D01*
X0192540Y0036608D02*
X0140570Y0036608D01*
X0140626Y0037607D02*
X0192483Y0037607D01*
X0192583Y0038605D02*
X0185485Y0038605D01*
X0185817Y0039604D02*
X0192996Y0039604D01*
X0193844Y0040602D02*
X0185817Y0040602D01*
X0182736Y0041374D02*
X0182736Y0122555D01*
X0190241Y0122480D02*
X0200921Y0122480D01*
X0200921Y0121482D02*
X0197714Y0121482D01*
X0197365Y0121627D02*
X0198861Y0121007D01*
X0200006Y0119862D01*
X0200626Y0118365D01*
X0200626Y0116745D01*
X0200006Y0115249D01*
X0198861Y0114103D01*
X0197365Y0113483D01*
X0195745Y0113483D01*
X0194248Y0114103D01*
X0193103Y0115249D01*
X0192483Y0116745D01*
X0192483Y0118365D01*
X0193103Y0119862D01*
X0194248Y0121007D01*
X0195745Y0121627D01*
X0197365Y0121627D01*
X0195395Y0121482D02*
X0190241Y0121482D01*
X0190241Y0120483D02*
X0193725Y0120483D01*
X0192947Y0119485D02*
X0190241Y0119485D01*
X0190241Y0118486D02*
X0192533Y0118486D01*
X0192483Y0117488D02*
X0190241Y0117488D01*
X0190241Y0116489D02*
X0192589Y0116489D01*
X0193003Y0115491D02*
X0190241Y0115491D01*
X0190241Y0114492D02*
X0193859Y0114492D01*
X0195720Y0113494D02*
X0190241Y0113494D01*
X0190241Y0112495D02*
X0200921Y0112495D01*
X0200921Y0111497D02*
X0197678Y0111497D01*
X0197365Y0111627D02*
X0198861Y0111007D01*
X0200006Y0109862D01*
X0200626Y0108365D01*
X0200626Y0106745D01*
X0200006Y0105249D01*
X0198861Y0104103D01*
X0197365Y0103483D01*
X0195745Y0103483D01*
X0194248Y0104103D01*
X0193103Y0105249D01*
X0192483Y0106745D01*
X0192483Y0108365D01*
X0193103Y0109862D01*
X0194248Y0111007D01*
X0195745Y0111627D01*
X0197365Y0111627D01*
X0197389Y0113494D02*
X0200921Y0113494D01*
X0200921Y0114492D02*
X0199250Y0114492D01*
X0200107Y0115491D02*
X0200921Y0115491D01*
X0200921Y0116489D02*
X0200520Y0116489D01*
X0200626Y0117488D02*
X0200921Y0117488D01*
X0200921Y0118486D02*
X0200576Y0118486D01*
X0200921Y0119485D02*
X0200162Y0119485D01*
X0200921Y0120483D02*
X0199385Y0120483D01*
X0195431Y0111497D02*
X0190241Y0111497D01*
X0190241Y0110498D02*
X0193739Y0110498D01*
X0192953Y0109500D02*
X0190241Y0109500D01*
X0190241Y0108501D02*
X0192539Y0108501D01*
X0192483Y0107503D02*
X0190241Y0107503D01*
X0190241Y0106504D02*
X0192583Y0106504D01*
X0192996Y0105506D02*
X0190241Y0105506D01*
X0190241Y0104507D02*
X0193844Y0104507D01*
X0195684Y0103509D02*
X0190241Y0103509D01*
X0190241Y0102510D02*
X0200921Y0102510D01*
X0200921Y0101512D02*
X0197643Y0101512D01*
X0197365Y0101627D02*
X0198861Y0101007D01*
X0200006Y0099862D01*
X0200626Y0098365D01*
X0200626Y0096745D01*
X0200006Y0095249D01*
X0198861Y0094103D01*
X0197365Y0093483D01*
X0195745Y0093483D01*
X0194248Y0094103D01*
X0193103Y0095249D01*
X0192483Y0096745D01*
X0192483Y0098365D01*
X0193103Y0099862D01*
X0194248Y0101007D01*
X0195745Y0101627D01*
X0197365Y0101627D01*
X0197425Y0103509D02*
X0200921Y0103509D01*
X0200921Y0104507D02*
X0199265Y0104507D01*
X0200113Y0105506D02*
X0200921Y0105506D01*
X0200921Y0106504D02*
X0200526Y0106504D01*
X0200626Y0107503D02*
X0200921Y0107503D01*
X0200921Y0108501D02*
X0200570Y0108501D01*
X0200921Y0109500D02*
X0200156Y0109500D01*
X0200921Y0110498D02*
X0199370Y0110498D01*
X0195467Y0101512D02*
X0190241Y0101512D01*
X0190241Y0100513D02*
X0193754Y0100513D01*
X0192959Y0099515D02*
X0190241Y0099515D01*
X0190241Y0098516D02*
X0192546Y0098516D01*
X0192483Y0097518D02*
X0190241Y0097518D01*
X0190241Y0096519D02*
X0192577Y0096519D01*
X0192990Y0095521D02*
X0190241Y0095521D01*
X0190241Y0094522D02*
X0193830Y0094522D01*
X0195648Y0093523D02*
X0190241Y0093523D01*
X0190241Y0092525D02*
X0200921Y0092525D01*
X0200921Y0093523D02*
X0197461Y0093523D01*
X0197607Y0091526D02*
X0200921Y0091526D01*
X0200921Y0090528D02*
X0199340Y0090528D01*
X0200144Y0089529D02*
X0200921Y0089529D01*
X0200921Y0088531D02*
X0200558Y0088531D01*
X0200626Y0087532D02*
X0200921Y0087532D01*
X0200921Y0086534D02*
X0200539Y0086534D01*
X0200921Y0085535D02*
X0200125Y0085535D01*
X0200921Y0084537D02*
X0199295Y0084537D01*
X0193815Y0084537D02*
X0190241Y0084537D01*
X0190241Y0085535D02*
X0192984Y0085535D01*
X0192570Y0086534D02*
X0190241Y0086534D01*
X0190241Y0087532D02*
X0192483Y0087532D01*
X0192552Y0088531D02*
X0190241Y0088531D01*
X0190241Y0089529D02*
X0192965Y0089529D01*
X0193769Y0090528D02*
X0190241Y0090528D01*
X0190241Y0091526D02*
X0195503Y0091526D01*
X0199280Y0094522D02*
X0200921Y0094522D01*
X0200921Y0095521D02*
X0200119Y0095521D01*
X0200533Y0096519D02*
X0200921Y0096519D01*
X0200921Y0097518D02*
X0200626Y0097518D01*
X0200564Y0098516D02*
X0200921Y0098516D01*
X0200921Y0099515D02*
X0200150Y0099515D01*
X0200921Y0100513D02*
X0199355Y0100513D01*
X0181136Y0075550D02*
X0179353Y0075550D01*
X0179911Y0074552D02*
X0181136Y0074552D01*
X0181136Y0073553D02*
X0179911Y0073553D01*
X0179911Y0072555D02*
X0181136Y0072555D01*
X0181136Y0071556D02*
X0179911Y0071556D01*
X0179911Y0070558D02*
X0181136Y0070558D01*
X0181136Y0069559D02*
X0179352Y0069559D01*
X0178430Y0068561D02*
X0181136Y0068561D01*
X0181136Y0067562D02*
X0178430Y0067562D01*
X0178430Y0066564D02*
X0181136Y0066564D01*
X0181136Y0065565D02*
X0178430Y0065565D01*
X0178430Y0064567D02*
X0181136Y0064567D01*
X0181136Y0063568D02*
X0178430Y0063568D01*
X0178430Y0062570D02*
X0181136Y0062570D01*
X0181136Y0061571D02*
X0178430Y0061571D01*
X0179331Y0060573D02*
X0181136Y0060573D01*
X0181136Y0059574D02*
X0179911Y0059574D01*
X0179911Y0058576D02*
X0181136Y0058576D01*
X0181136Y0057577D02*
X0179911Y0057577D01*
X0179911Y0056579D02*
X0181136Y0056579D01*
X0181136Y0055580D02*
X0179911Y0055580D01*
X0179374Y0054582D02*
X0181136Y0054582D01*
X0181136Y0053583D02*
X0137605Y0053583D01*
X0137365Y0051627D02*
X0135745Y0051627D01*
X0134248Y0051007D01*
X0133103Y0049862D01*
X0132483Y0048365D01*
X0132483Y0046745D01*
X0133103Y0045249D01*
X0134248Y0044103D01*
X0135745Y0043483D01*
X0137365Y0043483D01*
X0138861Y0044103D01*
X0140006Y0045249D01*
X0140626Y0046745D01*
X0140626Y0048365D01*
X0140006Y0049862D01*
X0138861Y0051007D01*
X0137365Y0051627D01*
X0137463Y0051586D02*
X0181136Y0051586D01*
X0181136Y0050588D02*
X0139280Y0050588D01*
X0140119Y0049589D02*
X0181136Y0049589D01*
X0181136Y0048590D02*
X0140533Y0048590D01*
X0140626Y0047592D02*
X0181136Y0047592D01*
X0181136Y0046593D02*
X0140563Y0046593D01*
X0140150Y0045595D02*
X0181136Y0045595D01*
X0181136Y0044596D02*
X0139354Y0044596D01*
X0137641Y0043598D02*
X0179655Y0043598D01*
X0179655Y0042599D02*
X0126239Y0042599D01*
X0126653Y0043598D02*
X0135468Y0043598D01*
X0133755Y0044596D02*
X0127067Y0044596D01*
X0127405Y0045595D02*
X0132959Y0045595D01*
X0132546Y0046593D02*
X0127405Y0046593D01*
X0127405Y0047592D02*
X0132483Y0047592D01*
X0132576Y0048590D02*
X0127374Y0048590D01*
X0126961Y0049589D02*
X0132990Y0049589D01*
X0133829Y0050588D02*
X0126547Y0050588D01*
X0126014Y0051586D02*
X0135646Y0051586D01*
X0135504Y0053583D02*
X0124008Y0053583D01*
X0125016Y0052585D02*
X0181136Y0052585D01*
X0176830Y0057555D02*
X0176830Y0072555D01*
X0175230Y0061571D02*
X0137499Y0061571D01*
X0139295Y0060573D02*
X0174330Y0060573D01*
X0173749Y0059574D02*
X0140125Y0059574D01*
X0140539Y0058576D02*
X0173749Y0058576D01*
X0173749Y0057577D02*
X0140626Y0057577D01*
X0140557Y0056579D02*
X0173749Y0056579D01*
X0173749Y0055580D02*
X0140144Y0055580D01*
X0139339Y0054582D02*
X0174286Y0054582D01*
X0179655Y0041601D02*
X0137427Y0041601D01*
X0135682Y0041601D02*
X0125272Y0041601D01*
X0124273Y0040602D02*
X0133844Y0040602D01*
X0132996Y0039604D02*
X0122216Y0039604D01*
X0121597Y0054582D02*
X0133770Y0054582D01*
X0139265Y0040602D02*
X0179655Y0040602D01*
X0179655Y0039604D02*
X0140113Y0039604D01*
X0140527Y0038605D02*
X0179986Y0038605D01*
X0185629Y0026623D02*
X0186628Y0026623D01*
X0186347Y0023628D02*
X0186329Y0023628D01*
X0183788Y0023628D02*
X0183770Y0023628D01*
X0179940Y0018635D02*
X0179940Y0018635D01*
X0179940Y0017637D02*
X0179940Y0017637D01*
X0179940Y0016638D02*
X0179940Y0016638D01*
X0180425Y0013643D02*
X0181425Y0013643D01*
X0181425Y0012644D02*
X0180425Y0012644D01*
X0180425Y0011646D02*
X0181425Y0011646D01*
X0188692Y0011646D02*
X0189692Y0011646D01*
X0189692Y0012644D02*
X0188692Y0012644D01*
X0188692Y0013643D02*
X0189692Y0013643D01*
X0192064Y0019634D02*
X0193007Y0019634D01*
X0193007Y0020632D02*
X0192064Y0020632D01*
X0192064Y0021631D02*
X0193007Y0021631D01*
X0193273Y0022629D02*
X0192064Y0022629D01*
X0197713Y0023628D02*
X0200921Y0023628D01*
X0200921Y0024626D02*
X0199384Y0024626D01*
X0200162Y0025625D02*
X0200921Y0025625D01*
X0200921Y0026623D02*
X0200576Y0026623D01*
X0200626Y0027622D02*
X0200921Y0027622D01*
X0200921Y0028620D02*
X0200521Y0028620D01*
X0200921Y0029619D02*
X0200107Y0029619D01*
X0200921Y0030617D02*
X0199251Y0030617D01*
X0197677Y0033613D02*
X0200921Y0033613D01*
X0200921Y0034611D02*
X0199369Y0034611D01*
X0200156Y0035610D02*
X0200921Y0035610D01*
X0200921Y0036608D02*
X0200570Y0036608D01*
X0200626Y0037607D02*
X0200921Y0037607D01*
X0200921Y0038605D02*
X0200527Y0038605D01*
X0200921Y0039604D02*
X0200113Y0039604D01*
X0200921Y0040602D02*
X0199265Y0040602D01*
X0200374Y0013643D02*
X0200921Y0013643D01*
X0146623Y0023628D02*
X0146605Y0023628D01*
X0144064Y0023628D02*
X0144046Y0023628D01*
X0140216Y0023628D02*
X0140216Y0023628D01*
X0140216Y0022629D02*
X0140216Y0022629D01*
X0140216Y0021631D02*
X0140216Y0021631D01*
X0140216Y0020632D02*
X0140216Y0020632D01*
X0140216Y0019898D02*
X0140216Y0019898D01*
X0140216Y0019634D02*
X0140216Y0019634D01*
X0140216Y0018635D02*
X0140216Y0018635D01*
X0140216Y0017637D02*
X0140216Y0017637D01*
X0140216Y0016638D02*
X0140216Y0016638D01*
X0137929Y0019634D02*
X0137385Y0019634D01*
X0137385Y0020632D02*
X0137929Y0020632D01*
X0137929Y0021631D02*
X0137385Y0021631D01*
X0137120Y0022629D02*
X0137929Y0022629D01*
X0137713Y0023628D02*
X0138380Y0023628D01*
X0135396Y0023628D02*
X0007070Y0023628D01*
X0007070Y0022629D02*
X0128351Y0022629D01*
X0128086Y0021631D02*
X0007070Y0021631D01*
X0007070Y0020632D02*
X0128086Y0020632D01*
X0128086Y0019634D02*
X0007070Y0019634D01*
X0007070Y0012644D02*
X0128739Y0012644D01*
X0128043Y0011646D02*
X0007070Y0011646D01*
X0007070Y0010647D02*
X0127642Y0010647D01*
X0127529Y0008650D02*
X0007070Y0008650D01*
X0007070Y0007652D02*
X0127783Y0007652D01*
X0128299Y0006653D02*
X0007070Y0006653D01*
X0007070Y0005655D02*
X0129173Y0005655D01*
X0131842Y0009649D02*
X0007070Y0009649D01*
X0015602Y0039604D02*
X0055382Y0039604D01*
X0056440Y0039165D02*
X0053574Y0040353D01*
X0051380Y0042547D01*
X0050192Y0045413D01*
X0050192Y0048516D01*
X0051380Y0051382D01*
X0053574Y0053576D01*
X0056440Y0054764D01*
X0059543Y0054764D01*
X0062409Y0053576D01*
X0064603Y0051382D01*
X0065791Y0048516D01*
X0065791Y0045413D01*
X0064603Y0042547D01*
X0062409Y0040353D01*
X0059543Y0039165D01*
X0056440Y0039165D01*
X0053324Y0040602D02*
X0017659Y0040602D01*
X0018658Y0041601D02*
X0052326Y0041601D01*
X0051358Y0042599D02*
X0019625Y0042599D01*
X0020039Y0043598D02*
X0050944Y0043598D01*
X0050531Y0044596D02*
X0020452Y0044596D01*
X0020791Y0045595D02*
X0050192Y0045595D01*
X0050192Y0046593D02*
X0020791Y0046593D01*
X0020791Y0047592D02*
X0050192Y0047592D01*
X0050223Y0048590D02*
X0020760Y0048590D01*
X0020346Y0049589D02*
X0050637Y0049589D01*
X0051050Y0050588D02*
X0019933Y0050588D01*
X0019400Y0051586D02*
X0051583Y0051586D01*
X0052582Y0052585D02*
X0018401Y0052585D01*
X0017393Y0053583D02*
X0053590Y0053583D01*
X0056000Y0054582D02*
X0014983Y0054582D01*
X0011000Y0054582D02*
X0007070Y0054582D01*
X0007070Y0055580D02*
X0079338Y0055580D01*
X0079606Y0057575D02*
X0096122Y0041059D01*
X0100059Y0046965D02*
X0084606Y0062417D01*
X0084606Y0081965D01*
X0081236Y0078546D02*
X0056361Y0078546D01*
X0055711Y0077895D02*
X0057061Y0079246D01*
X0057792Y0081010D01*
X0057792Y0082919D01*
X0057061Y0084684D01*
X0055711Y0086034D01*
X0053946Y0086765D01*
X0052037Y0086765D01*
X0050273Y0086034D01*
X0048922Y0084684D01*
X0048192Y0082919D01*
X0048192Y0081010D01*
X0048922Y0079246D01*
X0050273Y0077895D01*
X0052037Y0077165D01*
X0053946Y0077165D01*
X0055711Y0077895D01*
X0054870Y0077547D02*
X0082727Y0077547D01*
X0080413Y0079544D02*
X0057185Y0079544D01*
X0057598Y0080543D02*
X0079999Y0080543D01*
X0079806Y0081541D02*
X0057792Y0081541D01*
X0057792Y0082540D02*
X0079806Y0082540D01*
X0080062Y0083538D02*
X0057535Y0083538D01*
X0057122Y0084537D02*
X0080476Y0084537D01*
X0081388Y0085535D02*
X0056209Y0085535D01*
X0054503Y0086534D02*
X0083094Y0086534D01*
X0094606Y0081965D02*
X0094606Y0068165D01*
X0103996Y0058776D01*
X0107933Y0058776D01*
X0106889Y0064681D02*
X0099606Y0071965D01*
X0089606Y0071965D02*
X0089606Y0067260D01*
X0103996Y0052870D01*
X0114124Y0074552D02*
X0133800Y0074552D01*
X0151771Y0084537D02*
X0152096Y0084537D01*
X0140881Y0094522D02*
X0139280Y0094522D01*
X0140119Y0095521D02*
X0140285Y0095521D01*
X0133844Y0104507D02*
X0128119Y0104507D01*
X0128730Y0105506D02*
X0132996Y0105506D01*
X0132583Y0106504D02*
X0128730Y0106504D01*
X0128730Y0107503D02*
X0132483Y0107503D01*
X0132539Y0108501D02*
X0128730Y0108501D01*
X0128730Y0109500D02*
X0132953Y0109500D01*
X0133739Y0110498D02*
X0128224Y0110498D01*
X0128416Y0111497D02*
X0135431Y0111497D01*
X0133859Y0114492D02*
X0128730Y0114492D01*
X0128730Y0115491D02*
X0133003Y0115491D01*
X0132589Y0116489D02*
X0128730Y0116489D01*
X0125649Y0114248D02*
X0125649Y0107555D01*
X0140528Y0133464D02*
X0141766Y0133464D01*
X0141766Y0134462D02*
X0141026Y0134462D01*
X0141026Y0135461D02*
X0141766Y0135461D01*
X0141766Y0136459D02*
X0141026Y0136459D01*
X0140496Y0156430D02*
X0152096Y0156430D01*
X0152096Y0157428D02*
X0140626Y0157428D01*
X0140601Y0158427D02*
X0152096Y0158427D01*
X0152096Y0159425D02*
X0140187Y0159425D01*
X0139444Y0160424D02*
X0152527Y0160424D01*
X0152096Y0155431D02*
X0151913Y0155431D01*
X0162682Y0151437D02*
X0195287Y0151437D01*
X0193680Y0150439D02*
X0162682Y0150439D01*
X0162682Y0149440D02*
X0192928Y0149440D01*
X0192515Y0148442D02*
X0162682Y0148442D01*
X0162682Y0147443D02*
X0192483Y0147443D01*
X0192607Y0146445D02*
X0162682Y0146445D01*
X0162682Y0145446D02*
X0193021Y0145446D01*
X0193904Y0144448D02*
X0162682Y0144448D01*
X0162682Y0143449D02*
X0200921Y0143449D01*
X0200921Y0142451D02*
X0162682Y0142451D01*
X0162682Y0141452D02*
X0195323Y0141452D01*
X0193695Y0140454D02*
X0162682Y0140454D01*
X0162682Y0139455D02*
X0192934Y0139455D01*
X0192521Y0138457D02*
X0162682Y0138457D01*
X0162682Y0137458D02*
X0192483Y0137458D01*
X0200741Y0161422D02*
X0200921Y0161422D01*
X0200921Y0193375D02*
X0164163Y0193375D01*
X0164163Y0194373D02*
X0200921Y0194373D01*
X0200921Y0195372D02*
X0163862Y0195372D01*
X0159482Y0189381D02*
X0146447Y0189381D01*
X0146447Y0188382D02*
X0159482Y0188382D01*
X0159482Y0187384D02*
X0146447Y0187384D01*
X0146447Y0186385D02*
X0159482Y0186385D01*
X0159482Y0185387D02*
X0146447Y0185387D01*
X0144966Y0184388D02*
X0159482Y0184388D01*
X0159482Y0183390D02*
X0144966Y0183390D01*
X0144966Y0182391D02*
X0159482Y0182391D01*
X0159482Y0181392D02*
X0144966Y0181392D01*
X0144966Y0180394D02*
X0159482Y0180394D01*
X0159482Y0179395D02*
X0144966Y0179395D01*
X0144966Y0178397D02*
X0159482Y0178397D01*
X0159482Y0177398D02*
X0144966Y0177398D01*
X0144966Y0176400D02*
X0159482Y0176400D01*
X0159482Y0175401D02*
X0146037Y0175401D01*
X0146447Y0174403D02*
X0159482Y0174403D01*
X0159482Y0173404D02*
X0146447Y0173404D01*
X0146447Y0172406D02*
X0159482Y0172406D01*
X0159482Y0171407D02*
X0146447Y0171407D01*
X0146447Y0170409D02*
X0159482Y0170409D01*
X0143366Y0172555D02*
X0143366Y0187555D01*
X0140285Y0189381D02*
X0140206Y0189381D01*
X0140672Y0190379D02*
X0139489Y0190379D01*
X0146059Y0190379D02*
X0158001Y0190379D01*
X0141766Y0181392D02*
X0137930Y0181392D01*
X0139474Y0180394D02*
X0141766Y0180394D01*
X0141766Y0179395D02*
X0140199Y0179395D01*
X0140613Y0178397D02*
X0141766Y0178397D01*
X0141766Y0177398D02*
X0140626Y0177398D01*
X0140483Y0176400D02*
X0141766Y0176400D01*
X0140694Y0175401D02*
X0140070Y0175401D01*
X0140285Y0174403D02*
X0139161Y0174403D01*
X0123051Y0196370D02*
X0200921Y0196370D01*
X0200921Y0197369D02*
X0123051Y0197369D01*
X0123051Y0198367D02*
X0200921Y0198367D01*
X0079606Y0071965D02*
X0079606Y0057575D01*
X0072615Y0054582D02*
X0059983Y0054582D01*
X0062393Y0053583D02*
X0070204Y0053583D01*
X0069196Y0052585D02*
X0063401Y0052585D01*
X0064400Y0051586D02*
X0068197Y0051586D01*
X0067665Y0050588D02*
X0064933Y0050588D01*
X0065346Y0049589D02*
X0067251Y0049589D01*
X0066837Y0048590D02*
X0065760Y0048590D01*
X0065791Y0047592D02*
X0066807Y0047592D01*
X0066807Y0046593D02*
X0065791Y0046593D01*
X0065791Y0045595D02*
X0066807Y0045595D01*
X0067145Y0044596D02*
X0065452Y0044596D01*
X0065039Y0043598D02*
X0067558Y0043598D01*
X0067972Y0042599D02*
X0064625Y0042599D01*
X0063658Y0041601D02*
X0068940Y0041601D01*
X0069938Y0040602D02*
X0062659Y0040602D01*
X0060602Y0039604D02*
X0071996Y0039604D01*
X0048476Y0067562D02*
X0047507Y0067562D01*
X0047507Y0068561D02*
X0048476Y0068561D01*
X0048476Y0069559D02*
X0047507Y0069559D01*
X0047507Y0072555D02*
X0048476Y0072555D01*
X0048476Y0073553D02*
X0047507Y0073553D01*
X0047507Y0074552D02*
X0048476Y0074552D01*
X0048476Y0075550D02*
X0047507Y0075550D01*
X0047507Y0076549D02*
X0048476Y0076549D01*
X0049622Y0078546D02*
X0046361Y0078546D01*
X0047185Y0079544D02*
X0048799Y0079544D01*
X0048385Y0080543D02*
X0047598Y0080543D01*
X0047792Y0081541D02*
X0048192Y0081541D01*
X0048192Y0082540D02*
X0047792Y0082540D01*
X0047535Y0083538D02*
X0048448Y0083538D01*
X0048862Y0084537D02*
X0047122Y0084537D01*
X0046209Y0085535D02*
X0049774Y0085535D01*
X0051480Y0086534D02*
X0044503Y0086534D01*
X0028735Y0102510D02*
X0025733Y0102510D01*
X0025094Y0102510D02*
X0024282Y0102510D01*
X0024096Y0103509D02*
X0023283Y0103509D01*
X0024752Y0101512D02*
X0027737Y0101512D01*
X0026254Y0103509D02*
X0029734Y0103509D01*
X0030732Y0104507D02*
X0026488Y0104507D01*
X0026475Y0105506D02*
X0031731Y0105506D01*
X0032729Y0106504D02*
X0026228Y0106504D01*
X0025673Y0107503D02*
X0033728Y0107503D01*
X0034726Y0108501D02*
X0024639Y0108501D01*
X0024363Y0107503D02*
X0025176Y0107503D01*
X0024178Y0106504D02*
X0023365Y0106504D01*
X0038083Y0115491D02*
X0041716Y0115491D01*
X0042714Y0116489D02*
X0039236Y0116489D01*
X0039767Y0117488D02*
X0043713Y0117488D01*
X0044711Y0118486D02*
X0040027Y0118486D01*
X0040027Y0119485D02*
X0045710Y0119485D01*
X0046708Y0120483D02*
X0039684Y0120483D01*
X0039035Y0121482D02*
X0047707Y0121482D01*
X0048705Y0122480D02*
X0037597Y0122480D01*
X0052814Y0124327D02*
X0017992Y0089504D01*
X0017992Y0071965D01*
X0019592Y0077547D02*
X0021113Y0077547D01*
X0019622Y0078546D02*
X0019592Y0078546D01*
X0008590Y0053583D02*
X0007070Y0053583D01*
X0007070Y0052585D02*
X0007582Y0052585D01*
X0134666Y0013643D02*
X0136641Y0013643D01*
X0136551Y0012644D02*
X0135945Y0012644D01*
X0136551Y0009866D02*
X0136551Y0009866D01*
X0136551Y0008866D02*
X0136551Y0008866D01*
X0140700Y0011646D02*
X0141700Y0011646D01*
X0141700Y0012644D02*
X0140700Y0012644D01*
X0140700Y0013643D02*
X0141700Y0013643D01*
M02*
