G75*
%MOIN*%
%OFA0B0*%
%FSLAX25Y25*%
%IPPOS*%
%LPD*%
%AMOC8*
5,1,8,0,0,1.08239X$1,22.5*
%
%ADD10C,0.07800*%
%ADD11R,0.07800X0.07800*%
%ADD12C,0.12998*%
%ADD13C,0.06343*%
%ADD14R,0.06343X0.06343*%
%ADD15OC8,0.07800*%
%ADD16R,0.01975X0.05715*%
%ADD17R,0.06699X0.05912*%
%ADD18R,0.06699X0.07880*%
%ADD19C,0.07131*%
%ADD20C,0.05950*%
D10*
X0027992Y0071965D03*
X0037992Y0071965D03*
X0047992Y0071965D03*
X0052992Y0081965D03*
X0042992Y0081965D03*
X0032992Y0081965D03*
X0022992Y0081965D03*
X0084606Y0081965D03*
X0094606Y0081965D03*
X0104606Y0081965D03*
X0114606Y0081965D03*
X0109606Y0071965D03*
X0099606Y0071965D03*
X0089606Y0071965D03*
D11*
X0079606Y0071965D03*
X0017992Y0071965D03*
X0115531Y0146138D03*
D12*
X0012992Y0046965D03*
X0057992Y0046965D03*
X0074606Y0046965D03*
X0119606Y0046965D03*
D13*
X0136555Y0047555D03*
X0136555Y0037555D03*
X0136555Y0027555D03*
X0136555Y0057555D03*
X0136555Y0067555D03*
X0136555Y0077555D03*
X0136555Y0087555D03*
X0136555Y0097555D03*
X0136555Y0107555D03*
X0136555Y0117555D03*
X0136555Y0127555D03*
X0136555Y0147555D03*
X0136555Y0157555D03*
X0136555Y0167555D03*
X0136555Y0177555D03*
X0136555Y0187555D03*
X0196555Y0187555D03*
X0196555Y0177555D03*
X0196555Y0167555D03*
X0196555Y0147555D03*
X0196555Y0137555D03*
X0196555Y0127555D03*
X0196555Y0117555D03*
X0196555Y0107555D03*
X0196555Y0097555D03*
X0196555Y0087555D03*
X0196555Y0077555D03*
X0196555Y0067555D03*
X0196555Y0057555D03*
X0196555Y0047555D03*
X0196555Y0037555D03*
X0196555Y0027555D03*
D14*
X0136555Y0137555D03*
X0196555Y0157555D03*
D15*
X0115531Y0156138D03*
X0115531Y0166138D03*
X0115531Y0176138D03*
X0105531Y0176138D03*
X0105531Y0166138D03*
X0105531Y0156138D03*
X0105531Y0146138D03*
D16*
X0140216Y0019898D03*
X0142775Y0019898D03*
X0145334Y0019898D03*
X0147893Y0019898D03*
X0150452Y0019898D03*
X0179940Y0019898D03*
X0182499Y0019898D03*
X0185059Y0019898D03*
X0187618Y0019898D03*
X0190177Y0019898D03*
D17*
X0197657Y0019012D03*
X0172460Y0019012D03*
X0157933Y0019012D03*
X0132736Y0019012D03*
D18*
X0141200Y0009366D03*
X0149468Y0009366D03*
X0180925Y0009366D03*
X0189192Y0009366D03*
D19*
X0198051Y0009366D03*
X0172066Y0009366D03*
X0158326Y0009366D03*
X0132342Y0009366D03*
D20*
X0036152Y0118885D03*
X0022233Y0104965D03*
M02*
