%
M48
M72
T01C0.02362
T02C0.03150
T03C0.03543
T04C0.03937
T05C0.04000
T06C0.04331
T07C0.12598
%
T01
X96122Y41059
X100059Y46965
X103996Y52870
X107933Y58776
X111870Y64681
X143366Y97555
X149271Y87555
X155177Y82555
X161082Y77555
X176830Y72555
X188641Y67555
X176830Y57555
X182736Y41374
X182736Y29248
X150452Y29248
X119744Y104169
X125649Y107555
X125649Y114248
X119744Y127555
X143366Y142634
X149271Y152555
X155177Y157555
X143366Y172555
X143366Y187555
X161082Y192634
X188641Y187555
X188641Y163106
X188641Y132594
X182736Y122555
X68562Y104169
X64625Y109209
X60688Y114248
X56751Y119287
X52814Y124327
T02
X36152Y118885
X22233Y104965
T03
X136555Y107555
X136555Y97555
X136555Y87555
X136555Y77555
X136555Y67555
X136555Y57555
X136555Y47555
X136555Y37555
X136555Y27555
X196555Y27555
X196555Y37555
X196555Y47555
X196555Y57555
X196555Y67555
X196555Y77555
X196555Y87555
X196555Y97555
X196555Y107555
X196555Y117555
X196555Y127555
X196555Y137555
X196555Y147555
X196555Y157555
X196555Y167555
X196555Y177555
X196555Y187555
X136555Y187555
X136555Y177555
X136555Y167555
X136555Y157555
X136555Y147555
X136555Y137555
X136555Y127555
X136555Y117555
T04
X114606Y81965
X104606Y81965
X94606Y81965
X84606Y81965
X89606Y71965
X99606Y71965
X109606Y71965
X79606Y71965
X52992Y81965
X42992Y81965
X32992Y81965
X22992Y81965
X27992Y71965
X37992Y71965
X47992Y71965
X17992Y71965
T05
X105531Y146138
X105531Y156138
X105531Y166138
X105531Y176138
X115531Y176138
X115531Y166138
X115531Y156138
X115531Y146138
T06
X132342Y9366
X158326Y9366
X172066Y9366
X198051Y9366
T07
X12992Y46965
X57992Y46965
X74606Y46965
X119606Y46965
M30
