%
M48
M72
T01C0.0236
T02C0.0315
T03C0.0354
T04C0.0394
T05C0.0400
T06C0.0433
T07C0.1260
%
T01
X9612Y4106
X10006Y4696
X10400Y5287
X10793Y5878
X11187Y6468
X14337Y9756
X14927Y8756
X15518Y8256
X16108Y7756
X17683Y7256
X18864Y6756
X17683Y5756
X18274Y4137
X18274Y2925
X15045Y2925
X11974Y10417
X12565Y10756
X12565Y11425
X11974Y12756
X14337Y14263
X14927Y15256
X15518Y15756
X14337Y17256
X14337Y18756
X16108Y19263
X18864Y18756
X18864Y16311
X18864Y13259
X18274Y12256
X6856Y10417
X6463Y10921
X6069Y11425
X5675Y11929
X5281Y12433
T02
X3615Y11888
X2223Y10497
T03
X13655Y10756
X13655Y11756
X13655Y12756
X13655Y13756
X13655Y14756
X13655Y15756
X13655Y16756
X13655Y17756
X13655Y18756
X19655Y18756
X19655Y17756
X19655Y16756
X19655Y15756
X19655Y14756
X19655Y13756
X19655Y12756
X19655Y11756
X19655Y10756
X19655Y9756
X19655Y8756
X19655Y7756
X19655Y6756
X19655Y5756
X19655Y4756
X19655Y3756
X19655Y2756
X13655Y2756
X13655Y3756
X13655Y4756
X13655Y5756
X13655Y6756
X13655Y7756
X13655Y8756
X13655Y9756
T04
X11461Y8196
X10461Y8196
X9461Y8196
X8461Y8196
X8961Y7196
X9961Y7196
X10961Y7196
X7961Y7196
X5299Y8196
X4299Y8196
X3299Y8196
X2299Y8196
X1799Y7196
X2799Y7196
X3799Y7196
X4799Y7196
T05
X10553Y14614
X10553Y15614
X10553Y16614
X10553Y17614
X11553Y17614
X11553Y16614
X11553Y15614
X11553Y14614
T06
X13234Y937
X15833Y937
X17207Y937
X19805Y937
T07
X1299Y4696
X5799Y4696
X7461Y4696
X11961Y4696
M30
