G75*
%MOIN*%
%OFA0B0*%
%FSLAX24Y24*%
%IPPOS*%
%LPD*%
%AMOC8*
5,1,8,0,0,1.08239X$1,22.5*
%
%ADD10C,0.0740*%
%ADD11R,0.0740X0.0740*%
%ADD12C,0.0594*%
%ADD13R,0.0594X0.0594*%
%ADD14OC8,0.0740*%
%ADD15R,0.0157X0.0531*%
%ADD16R,0.0630X0.0551*%
%ADD17R,0.0630X0.0748*%
%ADD18C,0.0673*%
%ADD19C,0.0555*%
%ADD20C,0.0157*%
%ADD21R,0.0396X0.0396*%
%ADD22C,0.0100*%
D10*
X002799Y007196D03*
X003799Y007196D03*
X004799Y007196D03*
X004299Y008196D03*
X003299Y008196D03*
X002299Y008196D03*
X005299Y008196D03*
X008461Y008196D03*
X009461Y008196D03*
X010461Y008196D03*
X011461Y008196D03*
X010961Y007196D03*
X009961Y007196D03*
X008961Y007196D03*
D11*
X007961Y007196D03*
X001799Y007196D03*
X011553Y014614D03*
D12*
X013655Y014756D03*
X013655Y015756D03*
X013655Y016756D03*
X013655Y017756D03*
X013655Y018756D03*
X019655Y018756D03*
X019655Y017756D03*
X019655Y016756D03*
X019655Y014756D03*
X019655Y013756D03*
X019655Y012756D03*
X019655Y011756D03*
X019655Y010756D03*
X019655Y009756D03*
X019655Y008756D03*
X019655Y007756D03*
X019655Y006756D03*
X019655Y005756D03*
X019655Y004756D03*
X019655Y003756D03*
X019655Y002756D03*
X013655Y002756D03*
X013655Y003756D03*
X013655Y004756D03*
X013655Y005756D03*
X013655Y006756D03*
X013655Y007756D03*
X013655Y008756D03*
X013655Y009756D03*
X013655Y010756D03*
X013655Y011756D03*
X013655Y012756D03*
D13*
X013655Y013756D03*
X019655Y015756D03*
D14*
X011553Y015614D03*
X011553Y016614D03*
X011553Y017614D03*
X010553Y017614D03*
X010553Y016614D03*
X010553Y015614D03*
X010553Y014614D03*
D15*
X014022Y001990D03*
X014278Y001990D03*
X014533Y001990D03*
X014789Y001990D03*
X015045Y001990D03*
X017994Y001990D03*
X018250Y001990D03*
X018506Y001990D03*
X018762Y001990D03*
X019018Y001990D03*
D16*
X019766Y001901D03*
X017246Y001901D03*
X015793Y001901D03*
X013274Y001901D03*
D17*
X014120Y000937D03*
X014947Y000937D03*
X018092Y000937D03*
X018919Y000937D03*
D18*
X019805Y000937D03*
X017207Y000937D03*
X015833Y000937D03*
X013234Y000937D03*
D19*
X003615Y011888D03*
X002223Y010497D03*
D20*
X015045Y002925D02*
X015045Y001990D01*
X018274Y002925D02*
X018667Y002925D01*
X019018Y002574D01*
X019018Y001990D01*
D21*
X018274Y002925D03*
X018274Y004137D03*
X017683Y005756D03*
X018864Y006756D03*
X017683Y007256D03*
X016108Y007756D03*
X015518Y008256D03*
X014927Y008756D03*
X014337Y009756D03*
X012565Y010756D03*
X011974Y010417D03*
X012565Y011425D03*
X011974Y012756D03*
X014337Y014263D03*
X014927Y015256D03*
X015518Y015756D03*
X014337Y017256D03*
X014337Y018756D03*
X016108Y019263D03*
X018864Y018756D03*
X018864Y016311D03*
X018864Y013259D03*
X018274Y012256D03*
X011187Y006468D03*
X010793Y005878D03*
X010400Y005287D03*
X010006Y004696D03*
X009612Y004106D03*
X015045Y002925D03*
X006856Y010417D03*
X006463Y010921D03*
X006069Y011425D03*
X005675Y011929D03*
X005281Y012433D03*
D22*
X000707Y004186D02*
X000707Y000516D01*
X012989Y000516D01*
X012979Y000520D01*
X012917Y000566D01*
X012863Y000620D01*
X012818Y000682D01*
X012783Y000750D01*
X012760Y000823D01*
X012750Y000887D01*
X013184Y000887D01*
X013184Y000987D01*
X013184Y001421D01*
X013120Y001411D01*
X013047Y001388D01*
X012979Y001353D01*
X012917Y001308D01*
X012863Y001254D01*
X012818Y001192D01*
X012783Y001123D01*
X012760Y001051D01*
X012750Y000987D01*
X013184Y000987D01*
X013284Y000987D01*
X013284Y001421D01*
X013348Y001411D01*
X013421Y001388D01*
X013489Y001353D01*
X013551Y001308D01*
X013605Y001254D01*
X013650Y001192D01*
X013655Y001182D01*
X013655Y001330D01*
X013665Y001369D01*
X013685Y001403D01*
X013713Y001431D01*
X013747Y001450D01*
X013785Y001461D01*
X014070Y001461D01*
X014070Y000987D01*
X014170Y000987D01*
X014170Y001461D01*
X014455Y001461D01*
X014493Y001450D01*
X014527Y001431D01*
X014533Y001424D01*
X014540Y001431D01*
X014574Y001450D01*
X014612Y001461D01*
X014897Y001461D01*
X014897Y000987D01*
X014997Y000987D01*
X014997Y001461D01*
X015282Y001461D01*
X015320Y001450D01*
X015354Y001431D01*
X015382Y001403D01*
X015402Y001369D01*
X015412Y001330D01*
X015412Y001182D01*
X015417Y001192D01*
X015462Y001254D01*
X015516Y001308D01*
X015578Y001353D01*
X015646Y001388D01*
X015719Y001411D01*
X015783Y001421D01*
X015783Y000987D01*
X015883Y000987D01*
X015883Y001421D01*
X015947Y001411D01*
X016019Y001388D01*
X016088Y001353D01*
X016150Y001308D01*
X016204Y001254D01*
X016249Y001192D01*
X016284Y001123D01*
X016307Y001051D01*
X016317Y000987D01*
X015883Y000987D01*
X015883Y000887D01*
X016317Y000887D01*
X016307Y000823D01*
X016284Y000750D01*
X016249Y000682D01*
X016204Y000620D01*
X016150Y000566D01*
X016088Y000520D01*
X016078Y000516D01*
X016961Y000516D01*
X016952Y000520D01*
X016890Y000566D01*
X016836Y000620D01*
X016791Y000682D01*
X016756Y000750D01*
X016732Y000823D01*
X016722Y000887D01*
X017157Y000887D01*
X017157Y000987D01*
X017157Y001421D01*
X017093Y001411D01*
X017020Y001388D01*
X016952Y001353D01*
X016890Y001308D01*
X016836Y001254D01*
X016791Y001192D01*
X016756Y001123D01*
X016732Y001051D01*
X016722Y000987D01*
X017157Y000987D01*
X017257Y000987D01*
X017257Y001421D01*
X017321Y001411D01*
X017393Y001388D01*
X017462Y001353D01*
X017524Y001308D01*
X017578Y001254D01*
X017623Y001192D01*
X017628Y001182D01*
X017628Y001330D01*
X017638Y001369D01*
X017657Y001403D01*
X017685Y001431D01*
X017720Y001450D01*
X017758Y001461D01*
X018042Y001461D01*
X018042Y000987D01*
X018142Y000987D01*
X018142Y001461D01*
X018427Y001461D01*
X018465Y001450D01*
X018500Y001431D01*
X018506Y001424D01*
X018512Y001431D01*
X018546Y001450D01*
X018585Y001461D01*
X018869Y001461D01*
X018869Y000987D01*
X018969Y000987D01*
X018969Y001461D01*
X019254Y001461D01*
X019292Y001450D01*
X019326Y001431D01*
X019354Y001403D01*
X019374Y001369D01*
X019384Y001330D01*
X019384Y001182D01*
X019389Y001192D01*
X019434Y001254D01*
X019488Y001308D01*
X019550Y001353D01*
X019618Y001388D01*
X019691Y001411D01*
X019755Y001421D01*
X019755Y000987D01*
X019855Y000987D01*
X019855Y001421D01*
X019919Y001411D01*
X019992Y001388D01*
X020060Y001353D01*
X020092Y001329D01*
X020092Y001476D01*
X019816Y001476D01*
X019816Y001851D01*
X019716Y001851D01*
X019716Y001476D01*
X019431Y001476D01*
X019393Y001486D01*
X019359Y001506D01*
X019331Y001533D01*
X019311Y001568D01*
X019301Y001606D01*
X019301Y001851D01*
X019716Y001851D01*
X019716Y001951D01*
X019716Y002327D01*
X019431Y002327D01*
X019393Y002317D01*
X019359Y002297D01*
X019331Y002269D01*
X019311Y002235D01*
X019301Y002197D01*
X019301Y001951D01*
X019716Y001951D01*
X019816Y001951D01*
X019816Y002327D01*
X020092Y002327D01*
X020092Y015400D01*
X020073Y015366D01*
X020045Y015338D01*
X020011Y015319D01*
X019972Y015308D01*
X019694Y015308D01*
X019694Y015717D01*
X019617Y015717D01*
X019617Y015308D01*
X019339Y015308D01*
X019300Y015319D01*
X019266Y015338D01*
X019238Y015366D01*
X019219Y015400D01*
X019208Y015439D01*
X019208Y015717D01*
X019617Y015717D01*
X019617Y015794D01*
X019208Y015794D01*
X019208Y016072D01*
X019219Y016111D01*
X019238Y016145D01*
X019266Y016173D01*
X019300Y016192D01*
X019339Y016203D01*
X019617Y016203D01*
X019617Y015794D01*
X019694Y015794D01*
X019694Y016203D01*
X019972Y016203D01*
X020011Y016192D01*
X020045Y016173D01*
X020073Y016145D01*
X020092Y016111D01*
X020092Y019901D01*
X012305Y019901D01*
X012305Y015114D01*
X011998Y015114D01*
X012015Y015104D01*
X012043Y015076D01*
X012063Y015042D01*
X012073Y015004D01*
X012073Y014664D01*
X011603Y014664D01*
X011603Y014564D01*
X012073Y014564D01*
X012073Y014224D01*
X012063Y014186D01*
X012043Y014152D01*
X012015Y014124D01*
X011981Y014104D01*
X011943Y014094D01*
X011603Y014094D01*
X011603Y014564D01*
X011503Y014564D01*
X011033Y014564D01*
X011033Y014224D01*
X011043Y014186D01*
X011063Y014152D01*
X011091Y014124D01*
X011125Y014104D01*
X011163Y014094D01*
X011503Y014094D01*
X011503Y014564D01*
X011503Y014664D01*
X011033Y014664D01*
X011033Y015004D01*
X011043Y015042D01*
X011063Y015076D01*
X011091Y015104D01*
X011108Y015114D01*
X010006Y015114D01*
X010006Y013752D01*
X000707Y013752D01*
X000707Y005207D01*
X000857Y005358D01*
X001144Y005476D01*
X001454Y005476D01*
X001741Y005358D01*
X001960Y005138D01*
X002079Y004852D01*
X002079Y004541D01*
X001960Y004255D01*
X001741Y004035D01*
X001454Y003917D01*
X001144Y003917D01*
X000857Y004035D01*
X000707Y004186D01*
X000707Y004109D02*
X000784Y004109D01*
X000707Y004010D02*
X000918Y004010D01*
X000707Y003912D02*
X009304Y003912D01*
X009304Y003862D02*
X009368Y003798D01*
X009856Y003798D01*
X009920Y003862D01*
X009920Y004350D01*
X009881Y004388D01*
X010250Y004388D01*
X010314Y004453D01*
X010314Y004940D01*
X010275Y004979D01*
X010643Y004979D01*
X010708Y005043D01*
X010708Y005531D01*
X010669Y005569D01*
X011037Y005569D01*
X011101Y005634D01*
X011101Y006121D01*
X011063Y006160D01*
X011431Y006160D01*
X011495Y006224D01*
X011495Y006712D01*
X011431Y006776D01*
X011267Y006776D01*
X011299Y006800D01*
X011357Y006858D01*
X011405Y006924D01*
X011442Y006997D01*
X011468Y007075D01*
X011479Y007148D01*
X011009Y007148D01*
X011009Y007245D01*
X010912Y007245D01*
X010912Y007148D01*
X010442Y007148D01*
X010453Y007075D01*
X010479Y006997D01*
X010516Y006924D01*
X010564Y006858D01*
X010622Y006800D01*
X010688Y006752D01*
X010761Y006715D01*
X010839Y006689D01*
X010879Y006683D01*
X010879Y006628D01*
X010755Y006628D01*
X010394Y006989D01*
X010441Y007101D01*
X010441Y007292D01*
X010368Y007468D01*
X010232Y007603D01*
X010056Y007676D01*
X009865Y007676D01*
X009689Y007603D01*
X009621Y007535D01*
X009621Y007743D01*
X009732Y007790D01*
X009868Y007925D01*
X009941Y008101D01*
X009941Y008292D01*
X009868Y008468D01*
X009732Y008603D01*
X009556Y008676D01*
X009365Y008676D01*
X009189Y008603D01*
X009054Y008468D01*
X008981Y008292D01*
X008981Y008101D01*
X009054Y007925D01*
X009189Y007790D01*
X009301Y007743D01*
X009301Y007535D01*
X009232Y007603D01*
X009056Y007676D01*
X008865Y007676D01*
X008689Y007603D01*
X008621Y007535D01*
X008621Y007743D01*
X008732Y007790D01*
X008868Y007925D01*
X008941Y008101D01*
X008941Y008292D01*
X008868Y008468D01*
X008732Y008603D01*
X008556Y008676D01*
X008365Y008676D01*
X008189Y008603D01*
X008054Y008468D01*
X007981Y008292D01*
X007981Y008101D01*
X008054Y007925D01*
X008189Y007790D01*
X008301Y007743D01*
X008301Y007676D01*
X007545Y007676D01*
X007481Y007612D01*
X007481Y006781D01*
X007545Y006716D01*
X007801Y006716D01*
X007801Y005691D01*
X009304Y004188D01*
X009304Y003862D01*
X009353Y003813D02*
X000707Y003813D01*
X000707Y003715D02*
X013248Y003715D01*
X013248Y003675D02*
X013310Y003525D01*
X013425Y003410D01*
X013574Y003348D01*
X013736Y003348D01*
X013886Y003410D01*
X014001Y003525D01*
X014063Y003675D01*
X014063Y003837D01*
X014001Y003986D01*
X013886Y004101D01*
X013736Y004163D01*
X013574Y004163D01*
X013425Y004101D01*
X013310Y003986D01*
X013248Y003837D01*
X013248Y003675D01*
X013272Y003616D02*
X000707Y003616D01*
X000707Y003518D02*
X013317Y003518D01*
X013416Y003419D02*
X000707Y003419D01*
X000707Y003321D02*
X020092Y003321D01*
X020092Y003419D02*
X019895Y003419D01*
X019886Y003410D02*
X020001Y003525D01*
X020063Y003675D01*
X020063Y003837D01*
X020001Y003986D01*
X019886Y004101D01*
X019736Y004163D01*
X019574Y004163D01*
X019425Y004101D01*
X019310Y003986D01*
X019248Y003837D01*
X019248Y003675D01*
X019310Y003525D01*
X019425Y003410D01*
X019574Y003348D01*
X019736Y003348D01*
X019886Y003410D01*
X019994Y003518D02*
X020092Y003518D01*
X020092Y003616D02*
X020038Y003616D01*
X020063Y003715D02*
X020092Y003715D01*
X020092Y003813D02*
X020063Y003813D01*
X020092Y003912D02*
X020031Y003912D01*
X019977Y004010D02*
X020092Y004010D01*
X020092Y004109D02*
X019867Y004109D01*
X020092Y004207D02*
X018582Y004207D01*
X018582Y004109D02*
X019444Y004109D01*
X019334Y004010D02*
X018582Y004010D01*
X018582Y003912D02*
X019279Y003912D01*
X019248Y003813D02*
X014063Y003813D01*
X014063Y003715D02*
X019248Y003715D01*
X019272Y003616D02*
X014038Y003616D01*
X013994Y003518D02*
X019317Y003518D01*
X019416Y003419D02*
X013895Y003419D01*
X013736Y003163D02*
X013574Y003163D01*
X013425Y003101D01*
X013310Y002986D01*
X013248Y002837D01*
X013248Y002675D01*
X013310Y002525D01*
X013425Y002410D01*
X013574Y002348D01*
X013736Y002348D01*
X013886Y002410D01*
X014001Y002525D01*
X014063Y002675D01*
X014063Y002837D01*
X014001Y002986D01*
X013886Y003101D01*
X013736Y003163D01*
X013830Y003124D02*
X014737Y003124D01*
X014737Y003168D02*
X014737Y002681D01*
X014802Y002617D01*
X014856Y002617D01*
X014856Y002366D01*
X014665Y002366D01*
X014661Y002362D01*
X014658Y002366D01*
X014409Y002366D01*
X014405Y002362D01*
X014402Y002366D01*
X014202Y002366D01*
X014192Y002376D01*
X014158Y002395D01*
X014120Y002406D01*
X014022Y002406D01*
X014022Y001990D01*
X014022Y001990D01*
X014022Y002406D01*
X013923Y002406D01*
X013885Y002395D01*
X013851Y002376D01*
X013823Y002348D01*
X013803Y002313D01*
X013793Y002275D01*
X013793Y001990D01*
X014022Y001990D01*
X014022Y001574D01*
X014120Y001574D01*
X014158Y001584D01*
X014192Y001604D01*
X014202Y001614D01*
X014402Y001614D01*
X014405Y001618D01*
X014409Y001614D01*
X014658Y001614D01*
X014661Y001618D01*
X014665Y001614D01*
X014914Y001614D01*
X014917Y001618D01*
X014921Y001614D01*
X015170Y001614D01*
X015234Y001678D01*
X015234Y002617D01*
X015289Y002617D01*
X015353Y002681D01*
X015353Y003168D01*
X015289Y003233D01*
X014802Y003233D01*
X014737Y003168D01*
X014791Y003222D02*
X000707Y003222D01*
X000707Y003124D02*
X013481Y003124D01*
X013349Y003025D02*
X000707Y003025D01*
X000707Y002927D02*
X013286Y002927D01*
X013248Y002828D02*
X000707Y002828D01*
X000707Y002730D02*
X013248Y002730D01*
X013266Y002631D02*
X000707Y002631D01*
X000707Y002533D02*
X013307Y002533D01*
X013401Y002434D02*
X000707Y002434D01*
X000707Y002336D02*
X013816Y002336D01*
X013793Y002237D02*
X013727Y002237D01*
X013728Y002235D02*
X013709Y002269D01*
X013681Y002297D01*
X013646Y002317D01*
X013608Y002327D01*
X013324Y002327D01*
X013324Y001951D01*
X013739Y001951D01*
X013739Y002197D01*
X013728Y002235D01*
X013739Y002139D02*
X013793Y002139D01*
X013793Y002040D02*
X013739Y002040D01*
X013793Y001990D02*
X013793Y001704D01*
X013803Y001666D01*
X013823Y001632D01*
X013851Y001604D01*
X013885Y001584D01*
X013923Y001574D01*
X014022Y001574D01*
X014022Y001990D01*
X014022Y001990D01*
X014022Y001990D01*
X013793Y001990D01*
X013793Y001942D02*
X013324Y001942D01*
X013324Y001951D02*
X013324Y001851D01*
X013739Y001851D01*
X013739Y001606D01*
X013728Y001568D01*
X013709Y001533D01*
X013681Y001506D01*
X013646Y001486D01*
X013608Y001476D01*
X013324Y001476D01*
X013324Y001851D01*
X013224Y001851D01*
X013224Y001476D01*
X012939Y001476D01*
X012901Y001486D01*
X012867Y001506D01*
X012839Y001533D01*
X012819Y001568D01*
X012809Y001606D01*
X012809Y001851D01*
X013224Y001851D01*
X013224Y001951D01*
X013224Y002327D01*
X012939Y002327D01*
X012901Y002317D01*
X012867Y002297D01*
X012839Y002269D01*
X012819Y002235D01*
X012809Y002197D01*
X012809Y001951D01*
X013224Y001951D01*
X013324Y001951D01*
X013324Y002040D02*
X013224Y002040D01*
X013224Y001942D02*
X000707Y001942D01*
X000707Y002040D02*
X012809Y002040D01*
X012809Y002139D02*
X000707Y002139D01*
X000707Y002237D02*
X012820Y002237D01*
X012809Y001843D02*
X000707Y001843D01*
X000707Y001745D02*
X012809Y001745D01*
X012809Y001646D02*
X000707Y001646D01*
X000707Y001548D02*
X012830Y001548D01*
X012976Y001351D02*
X000707Y001351D01*
X000707Y001449D02*
X013745Y001449D01*
X013717Y001548D02*
X015350Y001548D01*
X015358Y001533D02*
X015386Y001506D01*
X015420Y001486D01*
X015459Y001476D01*
X015743Y001476D01*
X015743Y001851D01*
X015328Y001851D01*
X015328Y001606D01*
X015339Y001568D01*
X015358Y001533D01*
X015322Y001449D02*
X017718Y001449D01*
X017653Y001506D02*
X017681Y001533D01*
X017701Y001568D01*
X017711Y001606D01*
X017711Y001851D01*
X017296Y001851D01*
X017296Y001476D01*
X017581Y001476D01*
X017619Y001486D01*
X017653Y001506D01*
X017689Y001548D02*
X019322Y001548D01*
X019301Y001646D02*
X019174Y001646D01*
X019142Y001614D02*
X019206Y001678D01*
X019206Y002653D01*
X018745Y003114D01*
X018589Y003114D01*
X018582Y003114D01*
X018582Y003168D01*
X018517Y003233D01*
X018030Y003233D01*
X017965Y003168D01*
X017965Y002681D01*
X018030Y002617D01*
X018517Y002617D01*
X018582Y002681D01*
X018582Y002736D01*
X018589Y002736D01*
X018829Y002496D01*
X018829Y002366D01*
X018637Y002366D01*
X018634Y002362D01*
X018630Y002366D01*
X018382Y002366D01*
X018378Y002362D01*
X018374Y002366D01*
X018175Y002366D01*
X018165Y002376D01*
X018131Y002395D01*
X018093Y002406D01*
X017994Y002406D01*
X017896Y002406D01*
X017857Y002395D01*
X017823Y002376D01*
X017795Y002348D01*
X017776Y002313D01*
X017765Y002275D01*
X017765Y001990D01*
X017994Y001990D01*
X017994Y002406D01*
X017994Y001990D01*
X017994Y001990D01*
X017994Y001990D01*
X017765Y001990D01*
X017765Y001704D01*
X017776Y001666D01*
X017795Y001632D01*
X017823Y001604D01*
X017857Y001584D01*
X017896Y001574D01*
X017994Y001574D01*
X017994Y001990D01*
X017994Y001990D01*
X017994Y001574D01*
X018093Y001574D01*
X018131Y001584D01*
X018165Y001604D01*
X018175Y001614D01*
X018374Y001614D01*
X018378Y001618D01*
X018382Y001614D01*
X018630Y001614D01*
X018634Y001618D01*
X018637Y001614D01*
X018886Y001614D01*
X018890Y001618D01*
X018893Y001614D01*
X019142Y001614D01*
X019206Y001745D02*
X019301Y001745D01*
X019301Y001843D02*
X019206Y001843D01*
X019206Y001942D02*
X019716Y001942D01*
X019716Y002040D02*
X019816Y002040D01*
X019816Y002139D02*
X019716Y002139D01*
X019716Y002237D02*
X019816Y002237D01*
X019736Y002348D02*
X019886Y002410D01*
X020001Y002525D01*
X020063Y002675D01*
X020063Y002837D01*
X020001Y002986D01*
X019886Y003101D01*
X019736Y003163D01*
X019574Y003163D01*
X019425Y003101D01*
X019310Y002986D01*
X019248Y002837D01*
X019248Y002675D01*
X019310Y002525D01*
X019425Y002410D01*
X019574Y002348D01*
X019736Y002348D01*
X019910Y002434D02*
X020092Y002434D01*
X020092Y002336D02*
X019206Y002336D01*
X019206Y002434D02*
X019401Y002434D01*
X019307Y002533D02*
X019206Y002533D01*
X019206Y002631D02*
X019266Y002631D01*
X019248Y002730D02*
X019129Y002730D01*
X019031Y002828D02*
X019248Y002828D01*
X019286Y002927D02*
X018932Y002927D01*
X018834Y003025D02*
X019349Y003025D01*
X019481Y003124D02*
X018582Y003124D01*
X018528Y003222D02*
X020092Y003222D01*
X020092Y003124D02*
X019830Y003124D01*
X019962Y003025D02*
X020092Y003025D01*
X020092Y002927D02*
X020025Y002927D01*
X020063Y002828D02*
X020092Y002828D01*
X020092Y002730D02*
X020063Y002730D01*
X020045Y002631D02*
X020092Y002631D01*
X020092Y002533D02*
X020004Y002533D01*
X019816Y001843D02*
X019716Y001843D01*
X019716Y001745D02*
X019816Y001745D01*
X019816Y001646D02*
X019716Y001646D01*
X019716Y001548D02*
X019816Y001548D01*
X019855Y001351D02*
X019755Y001351D01*
X019755Y001252D02*
X019855Y001252D01*
X019855Y001154D02*
X019755Y001154D01*
X019755Y001055D02*
X019855Y001055D01*
X019755Y000987D02*
X019755Y000887D01*
X019384Y000887D01*
X018969Y000887D01*
X018969Y000987D01*
X019384Y000987D01*
X019755Y000987D01*
X019755Y000957D02*
X018969Y000957D01*
X018969Y001055D02*
X018869Y001055D01*
X018869Y000987D02*
X018557Y000987D01*
X018142Y000987D01*
X018142Y000887D01*
X018869Y000887D01*
X018869Y000987D01*
X018869Y000957D02*
X018142Y000957D01*
X018142Y001055D02*
X018042Y001055D01*
X018042Y000987D02*
X018042Y000887D01*
X017628Y000887D01*
X017628Y000887D01*
X017257Y000887D01*
X017257Y000987D01*
X017628Y000987D01*
X017628Y000987D01*
X018042Y000987D01*
X018042Y000957D02*
X017257Y000957D01*
X017257Y001055D02*
X017157Y001055D01*
X017157Y000957D02*
X015883Y000957D01*
X015883Y001055D02*
X015783Y001055D01*
X015783Y000987D02*
X015783Y000887D01*
X015412Y000887D01*
X014997Y000887D01*
X014997Y000987D01*
X015412Y000987D01*
X015783Y000987D01*
X015783Y000957D02*
X014997Y000957D01*
X014997Y001055D02*
X014897Y001055D01*
X014897Y000987D02*
X014897Y000887D01*
X014170Y000887D01*
X014170Y000987D01*
X014585Y000987D01*
X014897Y000987D01*
X014897Y000957D02*
X014170Y000957D01*
X014170Y001055D02*
X014070Y001055D01*
X014070Y000987D02*
X014070Y000887D01*
X013655Y000887D01*
X013655Y000887D01*
X013284Y000887D01*
X013284Y000987D01*
X013655Y000987D01*
X013655Y000987D01*
X014070Y000987D01*
X014070Y000957D02*
X013284Y000957D01*
X013284Y001055D02*
X013184Y001055D01*
X013184Y000957D02*
X000707Y000957D01*
X000707Y001055D02*
X012761Y001055D01*
X012799Y001154D02*
X000707Y001154D01*
X000707Y001252D02*
X012862Y001252D01*
X013184Y001252D02*
X013284Y001252D01*
X013284Y001154D02*
X013184Y001154D01*
X013184Y001351D02*
X013284Y001351D01*
X013324Y001548D02*
X013224Y001548D01*
X013224Y001646D02*
X013324Y001646D01*
X013324Y001745D02*
X013224Y001745D01*
X013224Y001843D02*
X013324Y001843D01*
X013324Y002139D02*
X013224Y002139D01*
X013224Y002237D02*
X013324Y002237D01*
X013739Y001843D02*
X013793Y001843D01*
X013793Y001745D02*
X013739Y001745D01*
X013739Y001646D02*
X013815Y001646D01*
X014022Y001646D02*
X014022Y001646D01*
X014022Y001745D02*
X014022Y001745D01*
X014022Y001843D02*
X014022Y001843D01*
X014022Y001942D02*
X014022Y001942D01*
X014022Y002040D02*
X014022Y002040D01*
X014022Y002139D02*
X014022Y002139D01*
X014022Y002237D02*
X014022Y002237D01*
X014022Y002336D02*
X014022Y002336D01*
X013910Y002434D02*
X014856Y002434D01*
X014856Y002533D02*
X014004Y002533D01*
X014045Y002631D02*
X014787Y002631D01*
X014737Y002730D02*
X014063Y002730D01*
X014063Y002828D02*
X014737Y002828D01*
X014737Y002927D02*
X014025Y002927D01*
X013962Y003025D02*
X014737Y003025D01*
X015300Y003222D02*
X018019Y003222D01*
X017965Y003124D02*
X015353Y003124D01*
X015353Y003025D02*
X017965Y003025D01*
X017965Y002927D02*
X015353Y002927D01*
X015353Y002828D02*
X017965Y002828D01*
X017965Y002730D02*
X015353Y002730D01*
X015303Y002631D02*
X018015Y002631D01*
X017994Y002336D02*
X017994Y002336D01*
X017994Y002237D02*
X017994Y002237D01*
X017994Y002139D02*
X017994Y002139D01*
X017994Y002040D02*
X017994Y002040D01*
X017994Y001942D02*
X017994Y001942D01*
X017994Y001843D02*
X017994Y001843D01*
X017994Y001745D02*
X017994Y001745D01*
X017994Y001646D02*
X017994Y001646D01*
X018042Y001449D02*
X018142Y001449D01*
X018142Y001351D02*
X018042Y001351D01*
X018042Y001252D02*
X018142Y001252D01*
X018142Y001154D02*
X018042Y001154D01*
X017628Y001252D02*
X017579Y001252D01*
X017633Y001351D02*
X017464Y001351D01*
X017257Y001351D02*
X017157Y001351D01*
X017157Y001252D02*
X017257Y001252D01*
X017257Y001154D02*
X017157Y001154D01*
X016949Y001351D02*
X016090Y001351D01*
X016128Y001476D02*
X016166Y001486D01*
X016200Y001506D01*
X016228Y001533D01*
X016248Y001568D01*
X016258Y001606D01*
X016258Y001851D01*
X015843Y001851D01*
X015843Y001476D01*
X016128Y001476D01*
X016236Y001548D02*
X016803Y001548D01*
X016811Y001533D02*
X016839Y001506D01*
X016873Y001486D01*
X016911Y001476D01*
X017196Y001476D01*
X017196Y001851D01*
X017296Y001851D01*
X017296Y001951D01*
X017711Y001951D01*
X017711Y002197D01*
X017701Y002235D01*
X017681Y002269D01*
X017653Y002297D01*
X017619Y002317D01*
X017581Y002327D01*
X017296Y002327D01*
X017296Y001951D01*
X017196Y001951D01*
X017196Y001851D01*
X016781Y001851D01*
X016781Y001606D01*
X016791Y001568D01*
X016811Y001533D01*
X016781Y001646D02*
X016258Y001646D01*
X016258Y001745D02*
X016781Y001745D01*
X016781Y001843D02*
X016258Y001843D01*
X016258Y001951D02*
X016258Y002197D01*
X016248Y002235D01*
X016228Y002269D01*
X016200Y002297D01*
X016166Y002317D01*
X016128Y002327D01*
X015843Y002327D01*
X015843Y001951D01*
X015743Y001951D01*
X015743Y001851D01*
X015843Y001851D01*
X015843Y001951D01*
X016258Y001951D01*
X016258Y002040D02*
X016781Y002040D01*
X016781Y001951D02*
X016781Y002197D01*
X016791Y002235D01*
X016811Y002269D01*
X016839Y002297D01*
X016873Y002317D01*
X016911Y002327D01*
X017196Y002327D01*
X017196Y001951D01*
X016781Y001951D01*
X016781Y002139D02*
X016258Y002139D01*
X016247Y002237D02*
X016793Y002237D01*
X017196Y002237D02*
X017296Y002237D01*
X017296Y002139D02*
X017196Y002139D01*
X017196Y002040D02*
X017296Y002040D01*
X017296Y001942D02*
X017765Y001942D01*
X017765Y002040D02*
X017711Y002040D01*
X017711Y002139D02*
X017765Y002139D01*
X017765Y002237D02*
X017699Y002237D01*
X017788Y002336D02*
X015234Y002336D01*
X015234Y002434D02*
X018829Y002434D01*
X018792Y002533D02*
X015234Y002533D01*
X015386Y002297D02*
X015358Y002269D01*
X015339Y002235D01*
X015328Y002197D01*
X015328Y001951D01*
X015743Y001951D01*
X015743Y002327D01*
X015459Y002327D01*
X015420Y002317D01*
X015386Y002297D01*
X015340Y002237D02*
X015234Y002237D01*
X015234Y002139D02*
X015328Y002139D01*
X015328Y002040D02*
X015234Y002040D01*
X015234Y001942D02*
X015743Y001942D01*
X015743Y002040D02*
X015843Y002040D01*
X015843Y001942D02*
X017196Y001942D01*
X017196Y001843D02*
X017296Y001843D01*
X017296Y001745D02*
X017196Y001745D01*
X017196Y001646D02*
X017296Y001646D01*
X017296Y001548D02*
X017196Y001548D01*
X016835Y001252D02*
X016205Y001252D01*
X016268Y001154D02*
X016771Y001154D01*
X016734Y001055D02*
X016306Y001055D01*
X016313Y000858D02*
X016726Y000858D01*
X016753Y000760D02*
X016287Y000760D01*
X016234Y000661D02*
X016805Y000661D01*
X016893Y000563D02*
X016146Y000563D01*
X015883Y001154D02*
X015783Y001154D01*
X015783Y001252D02*
X015883Y001252D01*
X015883Y001351D02*
X015783Y001351D01*
X015743Y001548D02*
X015843Y001548D01*
X015843Y001646D02*
X015743Y001646D01*
X015743Y001745D02*
X015843Y001745D01*
X015843Y001843D02*
X015743Y001843D01*
X015743Y002139D02*
X015843Y002139D01*
X015843Y002237D02*
X015743Y002237D01*
X015328Y001843D02*
X015234Y001843D01*
X015234Y001745D02*
X015328Y001745D01*
X015328Y001646D02*
X015202Y001646D01*
X014997Y001449D02*
X014897Y001449D01*
X014897Y001351D02*
X014997Y001351D01*
X014997Y001252D02*
X014897Y001252D01*
X014897Y001154D02*
X014997Y001154D01*
X015412Y001252D02*
X015461Y001252D01*
X015406Y001351D02*
X015575Y001351D01*
X015412Y000987D02*
X015412Y000987D01*
X015412Y000887D02*
X015412Y000887D01*
X014572Y001449D02*
X014495Y001449D01*
X014170Y001449D02*
X014070Y001449D01*
X014070Y001351D02*
X014170Y001351D01*
X014170Y001252D02*
X014070Y001252D01*
X014070Y001154D02*
X014170Y001154D01*
X013655Y001252D02*
X013606Y001252D01*
X013661Y001351D02*
X013492Y001351D01*
X012780Y000760D02*
X000707Y000760D01*
X000707Y000858D02*
X012754Y000858D01*
X012833Y000661D02*
X000707Y000661D01*
X000707Y000563D02*
X012921Y000563D01*
X013248Y003813D02*
X009871Y003813D01*
X009920Y003912D02*
X013279Y003912D01*
X013334Y004010D02*
X012342Y004010D01*
X012402Y004035D02*
X012116Y003917D01*
X011805Y003917D01*
X011519Y004035D01*
X011299Y004255D01*
X011181Y004541D01*
X011181Y004852D01*
X011299Y005138D01*
X011519Y005358D01*
X011805Y005476D01*
X012116Y005476D01*
X012402Y005358D01*
X012622Y005138D01*
X012740Y004852D01*
X012740Y004541D01*
X012622Y004255D01*
X012402Y004035D01*
X012476Y004109D02*
X013444Y004109D01*
X013574Y004348D02*
X013736Y004348D01*
X013886Y004410D01*
X014001Y004525D01*
X014063Y004675D01*
X014063Y004837D01*
X014001Y004986D01*
X013886Y005101D01*
X013736Y005163D01*
X013574Y005163D01*
X013425Y005101D01*
X013310Y004986D01*
X013248Y004837D01*
X013248Y004675D01*
X013310Y004525D01*
X013425Y004410D01*
X013574Y004348D01*
X013439Y004404D02*
X012684Y004404D01*
X012643Y004306D02*
X017965Y004306D01*
X017965Y004381D02*
X017965Y003894D01*
X018030Y003829D01*
X018517Y003829D01*
X018582Y003894D01*
X018582Y004381D01*
X018517Y004446D01*
X018434Y004446D01*
X018434Y011947D01*
X018517Y011947D01*
X018582Y012012D01*
X018582Y012499D01*
X018517Y012564D01*
X018030Y012564D01*
X017965Y012499D01*
X017965Y012012D01*
X018030Y011947D01*
X018114Y011947D01*
X018114Y004446D01*
X018030Y004446D01*
X017965Y004381D01*
X017989Y004404D02*
X013871Y004404D01*
X013979Y004503D02*
X018114Y004503D01*
X018114Y004601D02*
X014032Y004601D01*
X014063Y004700D02*
X018114Y004700D01*
X018114Y004798D02*
X014063Y004798D01*
X014038Y004897D02*
X018114Y004897D01*
X018114Y004995D02*
X013992Y004995D01*
X013893Y005094D02*
X018114Y005094D01*
X018114Y005192D02*
X012568Y005192D01*
X012640Y005094D02*
X013418Y005094D01*
X013319Y004995D02*
X012681Y004995D01*
X012722Y004897D02*
X013273Y004897D01*
X013248Y004798D02*
X012740Y004798D01*
X012740Y004700D02*
X013248Y004700D01*
X013279Y004601D02*
X012740Y004601D01*
X012725Y004503D02*
X013332Y004503D01*
X013867Y004109D02*
X017965Y004109D01*
X017965Y004207D02*
X012574Y004207D01*
X011579Y004010D02*
X009920Y004010D01*
X009920Y004109D02*
X011445Y004109D01*
X011347Y004207D02*
X009920Y004207D01*
X009920Y004306D02*
X011278Y004306D01*
X011237Y004404D02*
X010265Y004404D01*
X010314Y004503D02*
X011197Y004503D01*
X011181Y004601D02*
X010314Y004601D01*
X010314Y004700D02*
X011181Y004700D01*
X011181Y004798D02*
X010314Y004798D01*
X010314Y004897D02*
X011199Y004897D01*
X011240Y004995D02*
X010660Y004995D01*
X010708Y005094D02*
X011281Y005094D01*
X011353Y005192D02*
X010708Y005192D01*
X010708Y005291D02*
X011452Y005291D01*
X011595Y005389D02*
X010708Y005389D01*
X010708Y005488D02*
X013347Y005488D01*
X013310Y005525D02*
X013425Y005410D01*
X013574Y005348D01*
X013736Y005348D01*
X013886Y005410D01*
X014001Y005525D01*
X014063Y005675D01*
X014063Y005837D01*
X014001Y005986D01*
X013886Y006101D01*
X013736Y006163D01*
X013574Y006163D01*
X013425Y006101D01*
X013310Y005986D01*
X013248Y005837D01*
X013248Y005675D01*
X013310Y005525D01*
X013285Y005586D02*
X011054Y005586D01*
X011101Y005685D02*
X013248Y005685D01*
X013248Y005783D02*
X011101Y005783D01*
X011101Y005882D02*
X013267Y005882D01*
X013308Y005980D02*
X011101Y005980D01*
X011101Y006079D02*
X013403Y006079D01*
X013512Y006374D02*
X011495Y006374D01*
X011495Y006276D02*
X017523Y006276D01*
X017523Y006374D02*
X013799Y006374D01*
X013736Y006348D02*
X013886Y006410D01*
X014001Y006525D01*
X014063Y006675D01*
X014063Y006837D01*
X014001Y006986D01*
X013886Y007101D01*
X013736Y007163D01*
X013574Y007163D01*
X013425Y007101D01*
X013310Y006986D01*
X013248Y006837D01*
X013248Y006675D01*
X013310Y006525D01*
X013425Y006410D01*
X013574Y006348D01*
X013736Y006348D01*
X013949Y006473D02*
X017523Y006473D01*
X017523Y006571D02*
X014020Y006571D01*
X014061Y006670D02*
X017523Y006670D01*
X017523Y006768D02*
X014063Y006768D01*
X014050Y006867D02*
X017523Y006867D01*
X017523Y006947D02*
X017439Y006947D01*
X017375Y007012D01*
X017375Y007499D01*
X017439Y007564D01*
X017927Y007564D01*
X017991Y007499D01*
X017991Y007012D01*
X017927Y006947D01*
X017843Y006947D01*
X017843Y006064D01*
X017927Y006064D01*
X017991Y005999D01*
X017991Y005512D01*
X017927Y005447D01*
X017439Y005447D01*
X017375Y005512D01*
X017375Y005999D01*
X017439Y006064D01*
X017523Y006064D01*
X017523Y006947D01*
X017421Y006965D02*
X014009Y006965D01*
X013923Y007064D02*
X017375Y007064D01*
X017375Y007162D02*
X013737Y007162D01*
X013573Y007162D02*
X011009Y007162D01*
X011009Y007245D02*
X011479Y007245D01*
X011468Y007318D01*
X011442Y007396D01*
X011405Y007469D01*
X011357Y007535D01*
X011299Y007593D01*
X011233Y007641D01*
X011160Y007678D01*
X011082Y007704D01*
X011009Y007715D01*
X011009Y007245D01*
X011009Y007261D02*
X010912Y007261D01*
X010912Y007245D02*
X010912Y007715D01*
X010839Y007704D01*
X010761Y007678D01*
X010688Y007641D01*
X010622Y007593D01*
X010564Y007535D01*
X010516Y007469D01*
X010479Y007396D01*
X010453Y007318D01*
X010442Y007245D01*
X010912Y007245D01*
X010912Y007162D02*
X010441Y007162D01*
X010441Y007261D02*
X010444Y007261D01*
X010467Y007359D02*
X010413Y007359D01*
X010372Y007458D02*
X010510Y007458D01*
X010585Y007556D02*
X010280Y007556D01*
X010365Y007716D02*
X010189Y007790D01*
X010054Y007925D01*
X009981Y008101D01*
X009981Y008292D01*
X010054Y008468D01*
X010189Y008603D01*
X010365Y008676D01*
X010556Y008676D01*
X010732Y008603D01*
X010868Y008468D01*
X010941Y008292D01*
X010941Y008101D01*
X010868Y007925D01*
X010732Y007790D01*
X010556Y007716D01*
X010365Y007716D01*
X010276Y007753D02*
X009645Y007753D01*
X009621Y007655D02*
X009813Y007655D01*
X009795Y007852D02*
X010126Y007852D01*
X010043Y007950D02*
X009878Y007950D01*
X009919Y008049D02*
X010002Y008049D01*
X009981Y008147D02*
X009941Y008147D01*
X009941Y008246D02*
X009981Y008246D01*
X010002Y008344D02*
X009919Y008344D01*
X009878Y008443D02*
X010043Y008443D01*
X010127Y008541D02*
X009795Y008541D01*
X009645Y008640D02*
X010277Y008640D01*
X010645Y008640D02*
X011277Y008640D01*
X011365Y008676D02*
X011189Y008603D01*
X011054Y008468D01*
X010981Y008292D01*
X010981Y008101D01*
X011054Y007925D01*
X011189Y007790D01*
X011365Y007716D01*
X011556Y007716D01*
X011732Y007790D01*
X011868Y007925D01*
X011941Y008101D01*
X011941Y008292D01*
X011868Y008468D01*
X011732Y008603D01*
X011556Y008676D01*
X011365Y008676D01*
X011127Y008541D02*
X010795Y008541D01*
X010878Y008443D02*
X011043Y008443D01*
X011002Y008344D02*
X010919Y008344D01*
X010941Y008246D02*
X010981Y008246D01*
X010981Y008147D02*
X010941Y008147D01*
X010919Y008049D02*
X011002Y008049D01*
X011043Y007950D02*
X010878Y007950D01*
X010795Y007852D02*
X011126Y007852D01*
X011276Y007753D02*
X010645Y007753D01*
X010715Y007655D02*
X010108Y007655D01*
X009961Y007196D02*
X010689Y006468D01*
X011187Y006468D01*
X011495Y006473D02*
X013362Y006473D01*
X013291Y006571D02*
X011495Y006571D01*
X011495Y006670D02*
X013250Y006670D01*
X013248Y006768D02*
X011439Y006768D01*
X011364Y006867D02*
X013261Y006867D01*
X013302Y006965D02*
X011426Y006965D01*
X011464Y007064D02*
X013388Y007064D01*
X013548Y007359D02*
X011454Y007359D01*
X011477Y007261D02*
X017375Y007261D01*
X017375Y007359D02*
X013763Y007359D01*
X013736Y007348D02*
X013886Y007410D01*
X014001Y007525D01*
X014063Y007675D01*
X014063Y007837D01*
X014001Y007986D01*
X013886Y008101D01*
X013736Y008163D01*
X013574Y008163D01*
X013425Y008101D01*
X013310Y007986D01*
X013248Y007837D01*
X013248Y007675D01*
X013310Y007525D01*
X013425Y007410D01*
X013574Y007348D01*
X013736Y007348D01*
X013934Y007458D02*
X015854Y007458D01*
X015865Y007447D02*
X016352Y007447D01*
X016416Y007512D01*
X016416Y007999D01*
X016352Y008064D01*
X016268Y008064D01*
X016268Y018955D01*
X016352Y018955D01*
X016416Y019020D01*
X016416Y019507D01*
X016352Y019571D01*
X015865Y019571D01*
X015800Y019507D01*
X015800Y019020D01*
X015865Y018955D01*
X015948Y018955D01*
X015948Y008064D01*
X015865Y008064D01*
X015826Y008025D01*
X015826Y008499D01*
X015761Y008564D01*
X015678Y008564D01*
X015678Y015447D01*
X015761Y015447D01*
X015826Y015512D01*
X015826Y015999D01*
X015761Y016064D01*
X015274Y016064D01*
X015210Y015999D01*
X015210Y015525D01*
X015171Y015564D01*
X014683Y015564D01*
X014619Y015499D01*
X014619Y015012D01*
X014683Y014947D01*
X014767Y014947D01*
X014767Y009064D01*
X014683Y009064D01*
X014619Y008999D01*
X014619Y008512D01*
X014683Y008447D01*
X015171Y008447D01*
X015210Y008486D01*
X015210Y008012D01*
X015274Y007947D01*
X015761Y007947D01*
X015800Y007986D01*
X015800Y007512D01*
X015865Y007447D01*
X015800Y007556D02*
X014014Y007556D01*
X014054Y007655D02*
X015800Y007655D01*
X015800Y007753D02*
X014063Y007753D01*
X014056Y007852D02*
X015800Y007852D01*
X015800Y007950D02*
X015764Y007950D01*
X015826Y008049D02*
X015850Y008049D01*
X015826Y008147D02*
X015948Y008147D01*
X015948Y008246D02*
X015826Y008246D01*
X015826Y008344D02*
X015948Y008344D01*
X015948Y008443D02*
X015826Y008443D01*
X015784Y008541D02*
X015948Y008541D01*
X015948Y008640D02*
X015678Y008640D01*
X015678Y008738D02*
X015948Y008738D01*
X015948Y008837D02*
X015678Y008837D01*
X015678Y008935D02*
X015948Y008935D01*
X015948Y009034D02*
X015678Y009034D01*
X015678Y009132D02*
X015948Y009132D01*
X015948Y009231D02*
X015678Y009231D01*
X015678Y009329D02*
X015948Y009329D01*
X015948Y009428D02*
X015678Y009428D01*
X015678Y009526D02*
X015948Y009526D01*
X015948Y009625D02*
X015678Y009625D01*
X015678Y009723D02*
X015948Y009723D01*
X015948Y009822D02*
X015678Y009822D01*
X015678Y009920D02*
X015948Y009920D01*
X015948Y010019D02*
X015678Y010019D01*
X015678Y010117D02*
X015948Y010117D01*
X015948Y010216D02*
X015678Y010216D01*
X015678Y010314D02*
X015948Y010314D01*
X015948Y010413D02*
X015678Y010413D01*
X015678Y010511D02*
X015948Y010511D01*
X015948Y010610D02*
X015678Y010610D01*
X015678Y010708D02*
X015948Y010708D01*
X015948Y010807D02*
X015678Y010807D01*
X015678Y010905D02*
X015948Y010905D01*
X015948Y011004D02*
X015678Y011004D01*
X015678Y011102D02*
X015948Y011102D01*
X015948Y011201D02*
X015678Y011201D01*
X015678Y011299D02*
X015948Y011299D01*
X015948Y011398D02*
X015678Y011398D01*
X015678Y011496D02*
X015948Y011496D01*
X015948Y011595D02*
X015678Y011595D01*
X015678Y011693D02*
X015948Y011693D01*
X015948Y011792D02*
X015678Y011792D01*
X015678Y011890D02*
X015948Y011890D01*
X015948Y011989D02*
X015678Y011989D01*
X015678Y012087D02*
X015948Y012087D01*
X015948Y012186D02*
X015678Y012186D01*
X015678Y012284D02*
X015948Y012284D01*
X015948Y012383D02*
X015678Y012383D01*
X015678Y012481D02*
X015948Y012481D01*
X015948Y012580D02*
X015678Y012580D01*
X015678Y012678D02*
X015948Y012678D01*
X015948Y012777D02*
X015678Y012777D01*
X015678Y012875D02*
X015948Y012875D01*
X015948Y012974D02*
X015678Y012974D01*
X015678Y013072D02*
X015948Y013072D01*
X015948Y013171D02*
X015678Y013171D01*
X015678Y013269D02*
X015948Y013269D01*
X015948Y013368D02*
X015678Y013368D01*
X015678Y013466D02*
X015948Y013466D01*
X015948Y013565D02*
X015678Y013565D01*
X015678Y013663D02*
X015948Y013663D01*
X015948Y013762D02*
X015678Y013762D01*
X015678Y013860D02*
X015948Y013860D01*
X015948Y013959D02*
X015678Y013959D01*
X015678Y014057D02*
X015948Y014057D01*
X015948Y014156D02*
X015678Y014156D01*
X015678Y014254D02*
X015948Y014254D01*
X015948Y014353D02*
X015678Y014353D01*
X015678Y014451D02*
X015948Y014451D01*
X015948Y014550D02*
X015678Y014550D01*
X015678Y014648D02*
X015948Y014648D01*
X015948Y014747D02*
X015678Y014747D01*
X015678Y014845D02*
X015948Y014845D01*
X015948Y014944D02*
X015678Y014944D01*
X015678Y015042D02*
X015948Y015042D01*
X015948Y015141D02*
X015678Y015141D01*
X015678Y015239D02*
X015948Y015239D01*
X015948Y015338D02*
X015678Y015338D01*
X015678Y015436D02*
X015948Y015436D01*
X015948Y015535D02*
X015826Y015535D01*
X015826Y015633D02*
X015948Y015633D01*
X015948Y015732D02*
X015826Y015732D01*
X015826Y015830D02*
X015948Y015830D01*
X015948Y015929D02*
X015826Y015929D01*
X015798Y016027D02*
X015948Y016027D01*
X015948Y016126D02*
X013826Y016126D01*
X013886Y016101D02*
X013736Y016163D01*
X013574Y016163D01*
X013425Y016101D01*
X013310Y015986D01*
X013248Y015837D01*
X013248Y015675D01*
X013310Y015525D01*
X013425Y015410D01*
X013574Y015348D01*
X013736Y015348D01*
X013886Y015410D01*
X014001Y015525D01*
X014063Y015675D01*
X014063Y015837D01*
X014001Y015986D01*
X013886Y016101D01*
X013960Y016027D02*
X015238Y016027D01*
X015210Y015929D02*
X014024Y015929D01*
X014063Y015830D02*
X015210Y015830D01*
X015210Y015732D02*
X014063Y015732D01*
X014046Y015633D02*
X015210Y015633D01*
X015200Y015535D02*
X015210Y015535D01*
X015518Y015756D02*
X015518Y008256D01*
X015271Y007950D02*
X014016Y007950D01*
X013938Y008049D02*
X015210Y008049D01*
X015210Y008147D02*
X013774Y008147D01*
X013736Y008348D02*
X013574Y008348D01*
X013425Y008410D01*
X013310Y008525D01*
X013248Y008675D01*
X013248Y008837D01*
X004136Y008837D01*
X004235Y008935D02*
X013289Y008935D01*
X013310Y008986D02*
X013248Y008837D01*
X013248Y008738D02*
X004038Y008738D01*
X003959Y008660D02*
X005556Y010257D01*
X006548Y010257D01*
X006548Y010173D01*
X006613Y010109D01*
X007100Y010109D01*
X007164Y010173D01*
X007164Y010661D01*
X007100Y010725D01*
X006771Y010725D01*
X006771Y011165D01*
X006706Y011229D01*
X006377Y011229D01*
X006377Y011668D01*
X006313Y011733D01*
X005983Y011733D01*
X005983Y012172D01*
X005919Y012237D01*
X005590Y012237D01*
X005590Y012676D01*
X005525Y012741D01*
X005038Y012741D01*
X004973Y012676D01*
X004973Y012351D01*
X001639Y009017D01*
X001639Y007676D01*
X001384Y007676D01*
X001319Y007612D01*
X001319Y006781D01*
X001384Y006716D01*
X002215Y006716D01*
X002279Y006781D01*
X002279Y007612D01*
X002215Y007676D01*
X001959Y007676D01*
X001959Y007858D01*
X002027Y007790D01*
X002204Y007716D01*
X002395Y007716D01*
X002571Y007790D01*
X002639Y007858D01*
X002639Y007650D01*
X002527Y007603D01*
X002392Y007468D01*
X002319Y007292D01*
X002319Y007101D01*
X002392Y006925D01*
X002527Y006790D01*
X002704Y006716D01*
X002895Y006716D01*
X003071Y006790D01*
X003206Y006925D01*
X003279Y007101D01*
X003279Y007292D01*
X003206Y007468D01*
X003071Y007603D01*
X002959Y007650D01*
X002959Y007858D01*
X003027Y007790D01*
X003204Y007716D01*
X003395Y007716D01*
X003571Y007790D01*
X003639Y007858D01*
X003639Y007650D01*
X003527Y007603D01*
X003392Y007468D01*
X003319Y007292D01*
X003319Y007101D01*
X003392Y006925D01*
X003527Y006790D01*
X003704Y006716D01*
X003895Y006716D01*
X004071Y006790D01*
X004206Y006925D01*
X004279Y007101D01*
X004279Y007292D01*
X004206Y007468D01*
X004071Y007603D01*
X003959Y007650D01*
X003959Y007858D01*
X004027Y007790D01*
X004204Y007716D01*
X004395Y007716D01*
X004571Y007790D01*
X004706Y007925D01*
X004779Y008101D01*
X004779Y008292D01*
X004706Y008468D01*
X004571Y008603D01*
X004395Y008676D01*
X004204Y008676D01*
X004027Y008603D01*
X003959Y008535D01*
X003959Y008660D01*
X003959Y008640D02*
X004115Y008640D01*
X003965Y008541D02*
X003959Y008541D01*
X003799Y008726D02*
X005490Y010417D01*
X006856Y010417D01*
X007164Y010413D02*
X011666Y010413D01*
X011666Y010511D02*
X007164Y010511D01*
X007164Y010610D02*
X011666Y010610D01*
X011666Y010661D02*
X011666Y010173D01*
X011731Y010109D01*
X012218Y010109D01*
X012282Y010173D01*
X012282Y010486D01*
X012321Y010447D01*
X012809Y010447D01*
X012873Y010512D01*
X012873Y010999D01*
X012809Y011064D01*
X012725Y011064D01*
X012725Y011117D01*
X012809Y011117D01*
X012873Y011181D01*
X012873Y011668D01*
X012809Y011733D01*
X012321Y011733D01*
X012257Y011668D01*
X012257Y011181D01*
X012321Y011117D01*
X012405Y011117D01*
X012405Y011064D01*
X012321Y011064D01*
X012257Y010999D01*
X012257Y010686D01*
X012218Y010725D01*
X012134Y010725D01*
X012134Y012447D01*
X012218Y012447D01*
X012282Y012512D01*
X012282Y012999D01*
X012218Y013064D01*
X011731Y013064D01*
X011666Y012999D01*
X011666Y012512D01*
X011731Y012447D01*
X011814Y012447D01*
X011814Y010725D01*
X011731Y010725D01*
X011666Y010661D01*
X011714Y010708D02*
X007117Y010708D01*
X006771Y010807D02*
X011814Y010807D01*
X011814Y010905D02*
X006771Y010905D01*
X006771Y011004D02*
X011814Y011004D01*
X011814Y011102D02*
X006771Y011102D01*
X006734Y011201D02*
X011814Y011201D01*
X011814Y011299D02*
X006377Y011299D01*
X006377Y011398D02*
X011814Y011398D01*
X011814Y011496D02*
X006377Y011496D01*
X006377Y011595D02*
X011814Y011595D01*
X011814Y011693D02*
X006352Y011693D01*
X005983Y011792D02*
X011814Y011792D01*
X011814Y011890D02*
X005983Y011890D01*
X005983Y011989D02*
X011814Y011989D01*
X011814Y012087D02*
X005983Y012087D01*
X005970Y012186D02*
X011814Y012186D01*
X011814Y012284D02*
X005590Y012284D01*
X005590Y012383D02*
X011814Y012383D01*
X011697Y012481D02*
X005590Y012481D01*
X005590Y012580D02*
X011666Y012580D01*
X011666Y012678D02*
X005588Y012678D01*
X005281Y012433D02*
X001799Y008950D01*
X001799Y007196D01*
X001319Y007162D02*
X000707Y007162D01*
X000707Y007064D02*
X001319Y007064D01*
X001319Y006965D02*
X000707Y006965D01*
X000707Y006867D02*
X001319Y006867D01*
X001332Y006768D02*
X000707Y006768D01*
X000707Y006670D02*
X007801Y006670D01*
X007801Y006571D02*
X000707Y006571D01*
X000707Y006473D02*
X007801Y006473D01*
X007801Y006374D02*
X000707Y006374D01*
X000707Y006276D02*
X007801Y006276D01*
X007801Y006177D02*
X000707Y006177D01*
X000707Y006079D02*
X007801Y006079D01*
X007801Y005980D02*
X000707Y005980D01*
X000707Y005882D02*
X007801Y005882D01*
X007801Y005783D02*
X000707Y005783D01*
X000707Y005685D02*
X007807Y005685D01*
X007906Y005586D02*
X000707Y005586D01*
X000707Y005488D02*
X008004Y005488D01*
X008103Y005389D02*
X007826Y005389D01*
X007902Y005358D02*
X007616Y005476D01*
X007305Y005476D01*
X007019Y005358D01*
X006799Y005138D01*
X006681Y004852D01*
X006681Y004541D01*
X006799Y004255D01*
X007019Y004035D01*
X007305Y003917D01*
X007616Y003917D01*
X007902Y004035D01*
X008122Y004255D01*
X008240Y004541D01*
X008240Y004852D01*
X008122Y005138D01*
X007902Y005358D01*
X007969Y005291D02*
X008201Y005291D01*
X008300Y005192D02*
X008068Y005192D01*
X008140Y005094D02*
X008398Y005094D01*
X008497Y004995D02*
X008181Y004995D01*
X008222Y004897D02*
X008595Y004897D01*
X008694Y004798D02*
X008240Y004798D01*
X008240Y004700D02*
X008792Y004700D01*
X008891Y004601D02*
X008240Y004601D01*
X008225Y004503D02*
X008989Y004503D01*
X009088Y004404D02*
X008184Y004404D01*
X008143Y004306D02*
X009186Y004306D01*
X009285Y004207D02*
X008074Y004207D01*
X007976Y004109D02*
X009304Y004109D01*
X009304Y004010D02*
X007842Y004010D01*
X007079Y004010D02*
X006181Y004010D01*
X006241Y004035D02*
X006460Y004255D01*
X006579Y004541D01*
X006579Y004852D01*
X006460Y005138D01*
X006241Y005358D01*
X005954Y005476D01*
X005644Y005476D01*
X005357Y005358D01*
X005138Y005138D01*
X005019Y004852D01*
X005019Y004541D01*
X005138Y004255D01*
X005357Y004035D01*
X005644Y003917D01*
X005954Y003917D01*
X006241Y004035D01*
X006314Y004109D02*
X006945Y004109D01*
X006847Y004207D02*
X006413Y004207D01*
X006482Y004306D02*
X006778Y004306D01*
X006737Y004404D02*
X006522Y004404D01*
X006563Y004503D02*
X006697Y004503D01*
X006681Y004601D02*
X006579Y004601D01*
X006579Y004700D02*
X006681Y004700D01*
X006681Y004798D02*
X006579Y004798D01*
X006560Y004897D02*
X006699Y004897D01*
X006740Y004995D02*
X006520Y004995D01*
X006479Y005094D02*
X006781Y005094D01*
X006853Y005192D02*
X006406Y005192D01*
X006308Y005291D02*
X006952Y005291D01*
X007095Y005389D02*
X006165Y005389D01*
X005434Y005389D02*
X001665Y005389D01*
X001808Y005291D02*
X005290Y005291D01*
X005192Y005192D02*
X001906Y005192D01*
X001979Y005094D02*
X005120Y005094D01*
X005079Y004995D02*
X002020Y004995D01*
X002060Y004897D02*
X005038Y004897D01*
X005019Y004798D02*
X002079Y004798D01*
X002079Y004700D02*
X005019Y004700D01*
X005019Y004601D02*
X002079Y004601D01*
X002063Y004503D02*
X005035Y004503D01*
X005076Y004404D02*
X002022Y004404D01*
X001982Y004306D02*
X005117Y004306D01*
X005185Y004207D02*
X001913Y004207D01*
X001814Y004109D02*
X005284Y004109D01*
X005418Y004010D02*
X001681Y004010D01*
X000790Y005291D02*
X000707Y005291D01*
X000707Y005389D02*
X000934Y005389D01*
X002267Y006768D02*
X002579Y006768D01*
X002450Y006867D02*
X002279Y006867D01*
X002279Y006965D02*
X002375Y006965D01*
X002335Y007064D02*
X002279Y007064D01*
X002279Y007162D02*
X002319Y007162D01*
X002319Y007261D02*
X002279Y007261D01*
X002279Y007359D02*
X002347Y007359D01*
X002388Y007458D02*
X002279Y007458D01*
X002279Y007556D02*
X002480Y007556D01*
X002639Y007655D02*
X002236Y007655D01*
X002115Y007753D02*
X001959Y007753D01*
X001959Y007852D02*
X001965Y007852D01*
X001639Y007852D02*
X000707Y007852D01*
X000707Y007950D02*
X001639Y007950D01*
X001639Y008049D02*
X000707Y008049D01*
X000707Y008147D02*
X001639Y008147D01*
X001639Y008246D02*
X000707Y008246D01*
X000707Y008344D02*
X001639Y008344D01*
X001639Y008443D02*
X000707Y008443D01*
X000707Y008541D02*
X001639Y008541D01*
X001639Y008640D02*
X000707Y008640D01*
X000707Y008738D02*
X001639Y008738D01*
X001639Y008837D02*
X000707Y008837D01*
X000707Y008935D02*
X001639Y008935D01*
X001656Y009034D02*
X000707Y009034D01*
X000707Y009132D02*
X001755Y009132D01*
X001853Y009231D02*
X000707Y009231D01*
X000707Y009329D02*
X001952Y009329D01*
X002050Y009428D02*
X000707Y009428D01*
X000707Y009526D02*
X002149Y009526D01*
X002247Y009625D02*
X000707Y009625D01*
X000707Y009723D02*
X002346Y009723D01*
X002444Y009822D02*
X000707Y009822D01*
X000707Y009920D02*
X002543Y009920D01*
X002641Y010019D02*
X000707Y010019D01*
X000707Y010117D02*
X002026Y010117D01*
X001999Y010131D02*
X002059Y010100D01*
X002123Y010080D01*
X002190Y010069D01*
X002257Y010069D01*
X002323Y010080D01*
X002387Y010100D01*
X002447Y010131D01*
X002502Y010170D01*
X002505Y010174D01*
X002223Y010456D01*
X001941Y010174D01*
X001945Y010170D01*
X001999Y010131D01*
X001983Y010216D02*
X001902Y010216D01*
X001901Y010215D02*
X002183Y010497D01*
X001901Y010778D01*
X001897Y010775D01*
X001858Y010721D01*
X001827Y010661D01*
X001806Y010597D01*
X001796Y010530D01*
X001796Y010463D01*
X001806Y010396D01*
X001827Y010332D01*
X001858Y010272D01*
X001897Y010218D01*
X001901Y010215D01*
X001899Y010216D02*
X000707Y010216D01*
X000707Y010314D02*
X001836Y010314D01*
X001804Y010413D02*
X000707Y010413D01*
X000707Y010511D02*
X001796Y010511D01*
X001811Y010610D02*
X000707Y010610D01*
X000707Y010708D02*
X001851Y010708D01*
X001971Y010708D02*
X002052Y010708D01*
X002069Y010610D02*
X002151Y010610D01*
X002168Y010511D02*
X002197Y010511D01*
X002183Y010497D02*
X002223Y010537D01*
X001941Y010819D01*
X001945Y010823D01*
X001999Y010862D01*
X002059Y010893D01*
X002123Y010914D01*
X002190Y010924D01*
X002257Y010924D01*
X002323Y010914D01*
X002387Y010893D01*
X002447Y010862D01*
X002502Y010823D01*
X002505Y010819D01*
X002223Y010537D01*
X002264Y010497D01*
X002546Y010778D01*
X002549Y010775D01*
X002589Y010721D01*
X002619Y010661D01*
X002640Y010597D01*
X002651Y010530D01*
X002651Y010463D01*
X002640Y010396D01*
X002619Y010332D01*
X002589Y010272D01*
X002549Y010218D01*
X002546Y010215D01*
X002264Y010497D01*
X002223Y010456D01*
X002183Y010497D01*
X002249Y010511D02*
X002279Y010511D01*
X002266Y010413D02*
X002348Y010413D01*
X002365Y010314D02*
X002446Y010314D01*
X002463Y010216D02*
X002545Y010216D01*
X002547Y010216D02*
X002838Y010216D01*
X002740Y010117D02*
X002421Y010117D01*
X002610Y010314D02*
X002937Y010314D01*
X003035Y010413D02*
X002643Y010413D01*
X002651Y010511D02*
X003134Y010511D01*
X003232Y010610D02*
X002636Y010610D01*
X002595Y010708D02*
X003331Y010708D01*
X003429Y010807D02*
X002493Y010807D01*
X002476Y010708D02*
X002394Y010708D01*
X002377Y010610D02*
X002296Y010610D01*
X002180Y010413D02*
X002099Y010413D01*
X002082Y010314D02*
X002000Y010314D01*
X001954Y010807D02*
X000707Y010807D01*
X000707Y010905D02*
X002098Y010905D01*
X002349Y010905D02*
X003528Y010905D01*
X003626Y011004D02*
X000707Y011004D01*
X000707Y011102D02*
X003725Y011102D01*
X003823Y011201D02*
X000707Y011201D01*
X000707Y011299D02*
X003922Y011299D01*
X004020Y011398D02*
X000707Y011398D01*
X000707Y011496D02*
X004119Y011496D01*
X004217Y011595D02*
X003869Y011595D01*
X003835Y011560D02*
X003944Y011669D01*
X004003Y011811D01*
X004003Y011966D01*
X003944Y012108D01*
X003835Y012217D01*
X003692Y012276D01*
X003538Y012276D01*
X003396Y012217D01*
X003287Y012108D01*
X003228Y011966D01*
X003228Y011811D01*
X003287Y011669D01*
X003396Y011560D01*
X003538Y011501D01*
X003692Y011501D01*
X003835Y011560D01*
X003954Y011693D02*
X004316Y011693D01*
X004414Y011792D02*
X003995Y011792D01*
X004003Y011890D02*
X004513Y011890D01*
X004611Y011989D02*
X003993Y011989D01*
X003952Y012087D02*
X004710Y012087D01*
X004808Y012186D02*
X003866Y012186D01*
X003365Y012186D02*
X000707Y012186D01*
X000707Y012284D02*
X004907Y012284D01*
X004973Y012383D02*
X000707Y012383D01*
X000707Y012481D02*
X004973Y012481D01*
X004973Y012580D02*
X000707Y012580D01*
X000707Y012678D02*
X004975Y012678D01*
X005675Y011929D02*
X002299Y008553D01*
X002299Y008196D01*
X002484Y007753D02*
X002639Y007753D01*
X002633Y007852D02*
X002639Y007852D01*
X002959Y007852D02*
X002965Y007852D01*
X002959Y007753D02*
X003115Y007753D01*
X002959Y007655D02*
X003639Y007655D01*
X003639Y007753D02*
X003484Y007753D01*
X003633Y007852D02*
X003639Y007852D01*
X003480Y007556D02*
X003118Y007556D01*
X003210Y007458D02*
X003388Y007458D01*
X003347Y007359D02*
X003251Y007359D01*
X003279Y007261D02*
X003319Y007261D01*
X003319Y007162D02*
X003279Y007162D01*
X003264Y007064D02*
X003335Y007064D01*
X003375Y006965D02*
X003223Y006965D01*
X003148Y006867D02*
X003450Y006867D01*
X003579Y006768D02*
X003020Y006768D01*
X002799Y007196D02*
X002799Y008513D01*
X005711Y011425D01*
X006069Y011425D01*
X006463Y010921D02*
X005600Y010921D01*
X003299Y008620D01*
X003299Y008196D01*
X003799Y008726D02*
X003799Y007196D01*
X004148Y006867D02*
X004396Y006867D01*
X004403Y006858D02*
X004460Y006800D01*
X004527Y006752D01*
X004600Y006715D01*
X004677Y006689D01*
X004751Y006678D01*
X004751Y007148D01*
X004848Y007148D01*
X004848Y007245D01*
X005318Y007245D01*
X005306Y007318D01*
X005281Y007396D01*
X005244Y007469D01*
X005196Y007535D01*
X005138Y007593D01*
X005072Y007641D01*
X004999Y007678D01*
X004921Y007704D01*
X004848Y007715D01*
X004848Y007245D01*
X004751Y007245D01*
X004751Y007715D01*
X004677Y007704D01*
X004600Y007678D01*
X004527Y007641D01*
X004460Y007593D01*
X004403Y007535D01*
X004354Y007469D01*
X004317Y007396D01*
X004292Y007318D01*
X004280Y007245D01*
X004751Y007245D01*
X004751Y007148D01*
X004280Y007148D01*
X004292Y007075D01*
X004317Y006997D01*
X004354Y006924D01*
X004403Y006858D01*
X004333Y006965D02*
X004223Y006965D01*
X004264Y007064D02*
X004296Y007064D01*
X004279Y007162D02*
X004751Y007162D01*
X004848Y007162D02*
X007481Y007162D01*
X007481Y007064D02*
X005303Y007064D01*
X005306Y007075D02*
X005318Y007148D01*
X004848Y007148D01*
X004848Y006678D01*
X004921Y006689D01*
X004999Y006715D01*
X005072Y006752D01*
X005138Y006800D01*
X005196Y006858D01*
X005244Y006924D01*
X005281Y006997D01*
X005306Y007075D01*
X005265Y006965D02*
X007481Y006965D01*
X007481Y006867D02*
X005202Y006867D01*
X005094Y006768D02*
X007493Y006768D01*
X007481Y007261D02*
X005315Y007261D01*
X005293Y007359D02*
X007481Y007359D01*
X007481Y007458D02*
X005250Y007458D01*
X005175Y007556D02*
X007481Y007556D01*
X007523Y007655D02*
X005045Y007655D01*
X005115Y007753D02*
X004484Y007753D01*
X004553Y007655D02*
X003959Y007655D01*
X003959Y007753D02*
X004115Y007753D01*
X003965Y007852D02*
X003959Y007852D01*
X004118Y007556D02*
X004424Y007556D01*
X004349Y007458D02*
X004210Y007458D01*
X004251Y007359D02*
X004305Y007359D01*
X004283Y007261D02*
X004279Y007261D01*
X004504Y006768D02*
X004020Y006768D01*
X004751Y006768D02*
X004848Y006768D01*
X004848Y006867D02*
X004751Y006867D01*
X004751Y006965D02*
X004848Y006965D01*
X004848Y007064D02*
X004751Y007064D01*
X004751Y007261D02*
X004848Y007261D01*
X004848Y007359D02*
X004751Y007359D01*
X004751Y007458D02*
X004848Y007458D01*
X004848Y007556D02*
X004751Y007556D01*
X004751Y007655D02*
X004848Y007655D01*
X005027Y007790D02*
X004892Y007925D01*
X004819Y008101D01*
X004819Y008292D01*
X004892Y008468D01*
X005027Y008603D01*
X005204Y008676D01*
X005395Y008676D01*
X005571Y008603D01*
X005706Y008468D01*
X005779Y008292D01*
X005779Y008101D01*
X005706Y007925D01*
X005571Y007790D01*
X005395Y007716D01*
X005204Y007716D01*
X005027Y007790D01*
X004965Y007852D02*
X004633Y007852D01*
X004717Y007950D02*
X004882Y007950D01*
X004841Y008049D02*
X004758Y008049D01*
X004779Y008147D02*
X004819Y008147D01*
X004819Y008246D02*
X004779Y008246D01*
X004757Y008344D02*
X004841Y008344D01*
X004882Y008443D02*
X004717Y008443D01*
X004633Y008541D02*
X004965Y008541D01*
X005115Y008640D02*
X004483Y008640D01*
X004333Y009034D02*
X013358Y009034D01*
X013310Y008986D02*
X013425Y009101D01*
X013574Y009163D01*
X013736Y009163D01*
X013886Y009101D01*
X014001Y008986D01*
X014063Y008837D01*
X014619Y008837D01*
X014619Y008935D02*
X014022Y008935D01*
X014063Y008837D02*
X014063Y008675D01*
X014001Y008525D01*
X013886Y008410D01*
X013736Y008348D01*
X013919Y008443D02*
X015210Y008443D01*
X015210Y008344D02*
X011919Y008344D01*
X011941Y008246D02*
X015210Y008246D01*
X014927Y008756D02*
X014927Y015256D01*
X014619Y015239D02*
X012305Y015239D01*
X012305Y015141D02*
X013522Y015141D01*
X013574Y015163D02*
X013425Y015101D01*
X013310Y014986D01*
X013248Y014837D01*
X013248Y014675D01*
X013310Y014525D01*
X013425Y014410D01*
X013574Y014348D01*
X013736Y014348D01*
X013886Y014410D01*
X014001Y014525D01*
X014063Y014675D01*
X014063Y014837D01*
X014001Y014986D01*
X013886Y015101D01*
X013736Y015163D01*
X013574Y015163D01*
X013789Y015141D02*
X014619Y015141D01*
X014619Y015042D02*
X013945Y015042D01*
X014018Y014944D02*
X014767Y014944D01*
X014767Y014845D02*
X014059Y014845D01*
X014063Y014747D02*
X014767Y014747D01*
X014767Y014648D02*
X014052Y014648D01*
X014093Y014571D02*
X014028Y014507D01*
X014028Y014182D01*
X014011Y014192D01*
X013972Y014203D01*
X013694Y014203D01*
X013694Y013794D01*
X014103Y013794D01*
X014103Y013955D01*
X014177Y013955D01*
X014177Y010064D01*
X014093Y010064D01*
X014028Y009999D01*
X014028Y009919D01*
X014001Y009986D01*
X013886Y010101D01*
X013736Y010163D01*
X013574Y010163D01*
X013425Y010101D01*
X013310Y009986D01*
X013248Y009837D01*
X013248Y009675D01*
X013310Y009525D01*
X013425Y009410D01*
X013574Y009348D01*
X013736Y009348D01*
X013886Y009410D01*
X014001Y009525D01*
X014028Y009592D01*
X014028Y009512D01*
X014093Y009447D01*
X014580Y009447D01*
X014645Y009512D01*
X014645Y009999D01*
X014580Y010064D01*
X014497Y010064D01*
X014497Y013955D01*
X014580Y013955D01*
X014645Y014020D01*
X014645Y014507D01*
X014580Y014571D01*
X014093Y014571D01*
X014071Y014550D02*
X014011Y014550D01*
X014028Y014451D02*
X013927Y014451D01*
X014028Y014353D02*
X013747Y014353D01*
X013564Y014353D02*
X012073Y014353D01*
X012073Y014451D02*
X013384Y014451D01*
X013300Y014550D02*
X012073Y014550D01*
X012073Y014747D02*
X013248Y014747D01*
X013252Y014845D02*
X012073Y014845D01*
X012073Y014944D02*
X013293Y014944D01*
X013366Y015042D02*
X012063Y015042D01*
X012305Y015338D02*
X014619Y015338D01*
X014619Y015436D02*
X013912Y015436D01*
X014005Y015535D02*
X014655Y015535D01*
X013886Y016410D02*
X014001Y016525D01*
X014063Y016675D01*
X014063Y016837D01*
X014001Y016986D01*
X013886Y017101D01*
X013736Y017163D01*
X013574Y017163D01*
X013425Y017101D01*
X013310Y016986D01*
X013248Y016837D01*
X013248Y016675D01*
X013310Y016525D01*
X013425Y016410D01*
X013574Y016348D01*
X013736Y016348D01*
X013886Y016410D01*
X013897Y016421D02*
X015948Y016421D01*
X015948Y016323D02*
X012305Y016323D01*
X012305Y016421D02*
X013414Y016421D01*
X013315Y016520D02*
X012305Y016520D01*
X012305Y016618D02*
X013272Y016618D01*
X013248Y016717D02*
X012305Y016717D01*
X012305Y016815D02*
X013248Y016815D01*
X013280Y016914D02*
X012305Y016914D01*
X012305Y017012D02*
X013336Y017012D01*
X013449Y017111D02*
X012305Y017111D01*
X012305Y017209D02*
X014028Y017209D01*
X014028Y017111D02*
X013862Y017111D01*
X013974Y017012D02*
X014028Y017012D01*
X014093Y016947D01*
X014580Y016947D01*
X014645Y017012D01*
X014645Y017499D01*
X014580Y017564D01*
X014497Y017564D01*
X014497Y018447D01*
X014580Y018447D01*
X014645Y018512D01*
X014645Y018999D01*
X014580Y019064D01*
X014093Y019064D01*
X014028Y018999D01*
X014028Y018919D01*
X014001Y018986D01*
X013886Y019101D01*
X013736Y019163D01*
X013574Y019163D01*
X013425Y019101D01*
X013310Y018986D01*
X013248Y018837D01*
X013248Y018675D01*
X013310Y018525D01*
X013425Y018410D01*
X013574Y018348D01*
X013736Y018348D01*
X013886Y018410D01*
X014001Y018525D01*
X014028Y018592D01*
X014028Y018512D01*
X014093Y018447D01*
X014177Y018447D01*
X014177Y017564D01*
X014093Y017564D01*
X014028Y017499D01*
X014028Y017012D01*
X014031Y016914D02*
X015948Y016914D01*
X015948Y017012D02*
X014645Y017012D01*
X014645Y017111D02*
X015948Y017111D01*
X015948Y017209D02*
X014645Y017209D01*
X014645Y017308D02*
X015948Y017308D01*
X015948Y017406D02*
X014645Y017406D01*
X014639Y017505D02*
X015948Y017505D01*
X015948Y017603D02*
X014497Y017603D01*
X014497Y017702D02*
X015948Y017702D01*
X015948Y017800D02*
X014497Y017800D01*
X014497Y017899D02*
X015948Y017899D01*
X015948Y017997D02*
X014497Y017997D01*
X014497Y018096D02*
X015948Y018096D01*
X015948Y018194D02*
X014497Y018194D01*
X014497Y018293D02*
X015948Y018293D01*
X015948Y018391D02*
X014497Y018391D01*
X014623Y018490D02*
X015948Y018490D01*
X015948Y018588D02*
X014645Y018588D01*
X014645Y018687D02*
X015948Y018687D01*
X015948Y018785D02*
X014645Y018785D01*
X014645Y018884D02*
X015948Y018884D01*
X015838Y018982D02*
X014645Y018982D01*
X014337Y018756D02*
X014337Y017256D01*
X014028Y017308D02*
X012305Y017308D01*
X012305Y017406D02*
X013435Y017406D01*
X013425Y017410D02*
X013574Y017348D01*
X013736Y017348D01*
X013886Y017410D01*
X014001Y017525D01*
X014063Y017675D01*
X014063Y017837D01*
X014001Y017986D01*
X013886Y018101D01*
X013736Y018163D01*
X013574Y018163D01*
X013425Y018101D01*
X013310Y017986D01*
X013248Y017837D01*
X013248Y017675D01*
X013310Y017525D01*
X013425Y017410D01*
X013330Y017505D02*
X012305Y017505D01*
X012305Y017603D02*
X013278Y017603D01*
X013248Y017702D02*
X012305Y017702D01*
X012305Y017800D02*
X013248Y017800D01*
X013274Y017899D02*
X012305Y017899D01*
X012305Y017997D02*
X013321Y017997D01*
X013420Y018096D02*
X012305Y018096D01*
X012305Y018194D02*
X014177Y018194D01*
X014177Y018096D02*
X013891Y018096D01*
X013989Y017997D02*
X014177Y017997D01*
X014177Y017899D02*
X014037Y017899D01*
X014063Y017800D02*
X014177Y017800D01*
X014177Y017702D02*
X014063Y017702D01*
X014033Y017603D02*
X014177Y017603D01*
X014034Y017505D02*
X013981Y017505D01*
X014028Y017406D02*
X013876Y017406D01*
X014063Y016815D02*
X015948Y016815D01*
X015948Y016717D02*
X014063Y016717D01*
X014039Y016618D02*
X015948Y016618D01*
X015948Y016520D02*
X013996Y016520D01*
X013485Y016126D02*
X012305Y016126D01*
X012305Y016224D02*
X015948Y016224D01*
X016268Y016224D02*
X018556Y016224D01*
X018556Y016126D02*
X016268Y016126D01*
X016268Y016027D02*
X018596Y016027D01*
X018620Y016003D02*
X019108Y016003D01*
X019172Y016067D01*
X019172Y016554D01*
X019108Y016619D01*
X019024Y016619D01*
X019024Y018447D01*
X019108Y018447D01*
X019172Y018512D01*
X019172Y018999D01*
X019108Y019064D01*
X018620Y019064D01*
X018556Y018999D01*
X018556Y018512D01*
X018620Y018447D01*
X018704Y018447D01*
X018704Y016619D01*
X018620Y016619D01*
X018556Y016554D01*
X018556Y016067D01*
X018620Y016003D01*
X018556Y016323D02*
X016268Y016323D01*
X016268Y016421D02*
X018556Y016421D01*
X018556Y016520D02*
X016268Y016520D01*
X016268Y016618D02*
X018620Y016618D01*
X018704Y016717D02*
X016268Y016717D01*
X016268Y016815D02*
X018704Y016815D01*
X018704Y016914D02*
X016268Y016914D01*
X016268Y017012D02*
X018704Y017012D01*
X018704Y017111D02*
X016268Y017111D01*
X016268Y017209D02*
X018704Y017209D01*
X018704Y017308D02*
X016268Y017308D01*
X016268Y017406D02*
X018704Y017406D01*
X018704Y017505D02*
X016268Y017505D01*
X016268Y017603D02*
X018704Y017603D01*
X018704Y017702D02*
X016268Y017702D01*
X016268Y017800D02*
X018704Y017800D01*
X018704Y017899D02*
X016268Y017899D01*
X016268Y017997D02*
X018704Y017997D01*
X018704Y018096D02*
X016268Y018096D01*
X016268Y018194D02*
X018704Y018194D01*
X018704Y018293D02*
X016268Y018293D01*
X016268Y018391D02*
X018704Y018391D01*
X018578Y018490D02*
X016268Y018490D01*
X016268Y018588D02*
X018556Y018588D01*
X018556Y018687D02*
X016268Y018687D01*
X016268Y018785D02*
X018556Y018785D01*
X018556Y018884D02*
X016268Y018884D01*
X016379Y018982D02*
X018556Y018982D01*
X018864Y018756D02*
X018864Y016311D01*
X019108Y016618D02*
X019272Y016618D01*
X019248Y016675D02*
X019310Y016525D01*
X019425Y016410D01*
X019574Y016348D01*
X019736Y016348D01*
X019886Y016410D01*
X020001Y016525D01*
X020063Y016675D01*
X020063Y016837D01*
X020001Y016986D01*
X019886Y017101D01*
X019736Y017163D01*
X019574Y017163D01*
X019425Y017101D01*
X019310Y016986D01*
X019248Y016837D01*
X019248Y016675D01*
X019248Y016717D02*
X019024Y016717D01*
X019024Y016815D02*
X019248Y016815D01*
X019280Y016914D02*
X019024Y016914D01*
X019024Y017012D02*
X019336Y017012D01*
X019449Y017111D02*
X019024Y017111D01*
X019024Y017209D02*
X020092Y017209D01*
X020092Y017111D02*
X019862Y017111D01*
X019974Y017012D02*
X020092Y017012D01*
X020092Y016914D02*
X020031Y016914D01*
X020063Y016815D02*
X020092Y016815D01*
X020092Y016717D02*
X020063Y016717D01*
X020039Y016618D02*
X020092Y016618D01*
X020092Y016520D02*
X019996Y016520D01*
X020092Y016421D02*
X019897Y016421D01*
X020092Y016323D02*
X019172Y016323D01*
X019172Y016421D02*
X019414Y016421D01*
X019315Y016520D02*
X019172Y016520D01*
X019172Y016224D02*
X020092Y016224D01*
X020084Y016126D02*
X020092Y016126D01*
X019694Y016126D02*
X019617Y016126D01*
X019617Y016027D02*
X019694Y016027D01*
X019694Y015929D02*
X019617Y015929D01*
X019617Y015830D02*
X019694Y015830D01*
X019617Y015732D02*
X016268Y015732D01*
X016268Y015830D02*
X019208Y015830D01*
X019208Y015929D02*
X016268Y015929D01*
X016268Y015633D02*
X019208Y015633D01*
X019208Y015535D02*
X016268Y015535D01*
X016268Y015436D02*
X019209Y015436D01*
X019267Y015338D02*
X016268Y015338D01*
X016268Y015239D02*
X020092Y015239D01*
X020092Y015141D02*
X019789Y015141D01*
X019736Y015163D02*
X019886Y015101D01*
X020001Y014986D01*
X020063Y014837D01*
X020063Y014675D01*
X020001Y014525D01*
X019886Y014410D01*
X019736Y014348D01*
X019574Y014348D01*
X019425Y014410D01*
X019310Y014525D01*
X019248Y014675D01*
X019248Y014837D01*
X019310Y014986D01*
X019425Y015101D01*
X019574Y015163D01*
X019736Y015163D01*
X019694Y015338D02*
X019617Y015338D01*
X019617Y015436D02*
X019694Y015436D01*
X019694Y015535D02*
X019617Y015535D01*
X019617Y015633D02*
X019694Y015633D01*
X020044Y015338D02*
X020092Y015338D01*
X020092Y015042D02*
X019945Y015042D01*
X020018Y014944D02*
X020092Y014944D01*
X020092Y014845D02*
X020059Y014845D01*
X020063Y014747D02*
X020092Y014747D01*
X020092Y014648D02*
X020052Y014648D01*
X020092Y014550D02*
X020011Y014550D01*
X020092Y014451D02*
X019927Y014451D01*
X020092Y014353D02*
X019747Y014353D01*
X019564Y014353D02*
X016268Y014353D01*
X016268Y014451D02*
X019384Y014451D01*
X019300Y014550D02*
X016268Y014550D01*
X016268Y014648D02*
X019259Y014648D01*
X019248Y014747D02*
X016268Y014747D01*
X016268Y014845D02*
X019252Y014845D01*
X019293Y014944D02*
X016268Y014944D01*
X016268Y015042D02*
X019366Y015042D01*
X019522Y015141D02*
X016268Y015141D01*
X016268Y014254D02*
X020092Y014254D01*
X020092Y014156D02*
X019753Y014156D01*
X019736Y014163D02*
X019574Y014163D01*
X019425Y014101D01*
X019310Y013986D01*
X019248Y013837D01*
X019248Y013675D01*
X019310Y013525D01*
X019425Y013410D01*
X019574Y013348D01*
X019736Y013348D01*
X019886Y013410D01*
X020001Y013525D01*
X020063Y013675D01*
X020063Y013837D01*
X020001Y013986D01*
X019886Y014101D01*
X019736Y014163D01*
X019558Y014156D02*
X016268Y014156D01*
X016268Y014057D02*
X019381Y014057D01*
X019299Y013959D02*
X016268Y013959D01*
X016268Y013860D02*
X019258Y013860D01*
X019248Y013762D02*
X016268Y013762D01*
X016268Y013663D02*
X019253Y013663D01*
X019294Y013565D02*
X019111Y013565D01*
X019108Y013568D02*
X018620Y013568D01*
X018556Y013503D01*
X018556Y013016D01*
X018620Y012951D01*
X018704Y012951D01*
X018704Y007064D01*
X018434Y007064D01*
X018434Y007162D02*
X018704Y007162D01*
X018704Y007064D02*
X018620Y007064D01*
X018556Y006999D01*
X018556Y006512D01*
X018620Y006447D01*
X019108Y006447D01*
X019172Y006512D01*
X019172Y006999D01*
X019108Y007064D01*
X019024Y007064D01*
X019388Y007064D01*
X019425Y007101D02*
X019310Y006986D01*
X019248Y006837D01*
X019248Y006675D01*
X019310Y006525D01*
X019425Y006410D01*
X019574Y006348D01*
X019736Y006348D01*
X019886Y006410D01*
X020001Y006525D01*
X020063Y006675D01*
X020063Y006837D01*
X020001Y006986D01*
X019886Y007101D01*
X019736Y007163D01*
X019574Y007163D01*
X019425Y007101D01*
X019573Y007162D02*
X019024Y007162D01*
X019024Y007064D02*
X019024Y012951D01*
X019108Y012951D01*
X019172Y013016D01*
X019172Y013503D01*
X019108Y013568D01*
X019172Y013466D02*
X019369Y013466D01*
X019528Y013368D02*
X019172Y013368D01*
X019172Y013269D02*
X020092Y013269D01*
X020092Y013171D02*
X019172Y013171D01*
X019172Y013072D02*
X019396Y013072D01*
X019425Y013101D02*
X019310Y012986D01*
X019248Y012837D01*
X019248Y012675D01*
X019310Y012525D01*
X019425Y012410D01*
X019574Y012348D01*
X019736Y012348D01*
X019886Y012410D01*
X020001Y012525D01*
X020063Y012675D01*
X020063Y012837D01*
X020001Y012986D01*
X019886Y013101D01*
X019736Y013163D01*
X019574Y013163D01*
X019425Y013101D01*
X019305Y012974D02*
X019130Y012974D01*
X019024Y012875D02*
X019264Y012875D01*
X019248Y012777D02*
X019024Y012777D01*
X019024Y012678D02*
X019248Y012678D01*
X019288Y012580D02*
X019024Y012580D01*
X019024Y012481D02*
X019354Y012481D01*
X019491Y012383D02*
X019024Y012383D01*
X019024Y012284D02*
X020092Y012284D01*
X020092Y012186D02*
X019024Y012186D01*
X019024Y012087D02*
X019411Y012087D01*
X019425Y012101D02*
X019310Y011986D01*
X019248Y011837D01*
X019248Y011675D01*
X019310Y011525D01*
X019425Y011410D01*
X019574Y011348D01*
X019736Y011348D01*
X019886Y011410D01*
X020001Y011525D01*
X020063Y011675D01*
X020063Y011837D01*
X020001Y011986D01*
X019886Y012101D01*
X019736Y012163D01*
X019574Y012163D01*
X019425Y012101D01*
X019313Y011989D02*
X019024Y011989D01*
X019024Y011890D02*
X019271Y011890D01*
X019248Y011792D02*
X019024Y011792D01*
X019024Y011693D02*
X019248Y011693D01*
X019281Y011595D02*
X019024Y011595D01*
X019024Y011496D02*
X019339Y011496D01*
X019455Y011398D02*
X019024Y011398D01*
X019024Y011299D02*
X020092Y011299D01*
X020092Y011201D02*
X019024Y011201D01*
X019024Y011102D02*
X019429Y011102D01*
X019425Y011101D02*
X019310Y010986D01*
X019248Y010837D01*
X019248Y010675D01*
X019310Y010525D01*
X019425Y010410D01*
X019574Y010348D01*
X019736Y010348D01*
X019886Y010410D01*
X020001Y010525D01*
X020063Y010675D01*
X020063Y010837D01*
X020001Y010986D01*
X019886Y011101D01*
X019736Y011163D01*
X019574Y011163D01*
X019425Y011101D01*
X019328Y011004D02*
X019024Y011004D01*
X019024Y010905D02*
X019277Y010905D01*
X019248Y010807D02*
X019024Y010807D01*
X019024Y010708D02*
X019248Y010708D01*
X019275Y010610D02*
X019024Y010610D01*
X019024Y010511D02*
X019324Y010511D01*
X019422Y010413D02*
X019024Y010413D01*
X019024Y010314D02*
X020092Y010314D01*
X020092Y010216D02*
X019024Y010216D01*
X019024Y010117D02*
X019465Y010117D01*
X019425Y010101D02*
X019310Y009986D01*
X019248Y009837D01*
X019248Y009675D01*
X019310Y009525D01*
X019425Y009410D01*
X019574Y009348D01*
X019736Y009348D01*
X019886Y009410D01*
X020001Y009525D01*
X020063Y009675D01*
X020063Y009837D01*
X020001Y009986D01*
X019886Y010101D01*
X019736Y010163D01*
X019574Y010163D01*
X019425Y010101D01*
X019343Y010019D02*
X019024Y010019D01*
X019024Y009920D02*
X019283Y009920D01*
X019248Y009822D02*
X019024Y009822D01*
X019024Y009723D02*
X019248Y009723D01*
X019269Y009625D02*
X019024Y009625D01*
X019024Y009526D02*
X019310Y009526D01*
X019407Y009428D02*
X019024Y009428D01*
X019024Y009329D02*
X020092Y009329D01*
X020092Y009231D02*
X019024Y009231D01*
X019024Y009132D02*
X019501Y009132D01*
X019574Y009163D02*
X019425Y009101D01*
X019310Y008986D01*
X019248Y008837D01*
X019024Y008837D01*
X019024Y008935D02*
X019289Y008935D01*
X019248Y008837D02*
X019248Y008675D01*
X019310Y008525D01*
X019425Y008410D01*
X019574Y008348D01*
X019736Y008348D01*
X019886Y008410D01*
X020001Y008525D01*
X020063Y008675D01*
X020063Y008837D01*
X020092Y008837D01*
X020063Y008837D02*
X020001Y008986D01*
X019886Y009101D01*
X019736Y009163D01*
X019574Y009163D01*
X019810Y009132D02*
X020092Y009132D01*
X020092Y009034D02*
X019953Y009034D01*
X020022Y008935D02*
X020092Y008935D01*
X020092Y008738D02*
X020063Y008738D01*
X020048Y008640D02*
X020092Y008640D01*
X020092Y008541D02*
X020007Y008541D01*
X020092Y008443D02*
X019919Y008443D01*
X020092Y008344D02*
X019024Y008344D01*
X019024Y008246D02*
X020092Y008246D01*
X020092Y008147D02*
X019774Y008147D01*
X019736Y008163D02*
X019886Y008101D01*
X020001Y007986D01*
X020063Y007837D01*
X020063Y007675D01*
X020001Y007525D01*
X019886Y007410D01*
X019736Y007348D01*
X019574Y007348D01*
X019425Y007410D01*
X019310Y007525D01*
X019248Y007675D01*
X019248Y007837D01*
X019310Y007986D01*
X019425Y008101D01*
X019574Y008163D01*
X019736Y008163D01*
X019537Y008147D02*
X019024Y008147D01*
X019024Y008049D02*
X019373Y008049D01*
X019295Y007950D02*
X019024Y007950D01*
X019024Y007852D02*
X019255Y007852D01*
X019248Y007753D02*
X019024Y007753D01*
X019024Y007655D02*
X019256Y007655D01*
X019297Y007556D02*
X019024Y007556D01*
X019024Y007458D02*
X019377Y007458D01*
X019548Y007359D02*
X019024Y007359D01*
X019024Y007261D02*
X020092Y007261D01*
X020092Y007359D02*
X019763Y007359D01*
X019934Y007458D02*
X020092Y007458D01*
X020092Y007556D02*
X020014Y007556D01*
X020054Y007655D02*
X020092Y007655D01*
X020092Y007753D02*
X020063Y007753D01*
X020056Y007852D02*
X020092Y007852D01*
X020092Y007950D02*
X020016Y007950D01*
X020092Y008049D02*
X019938Y008049D01*
X019392Y008443D02*
X019024Y008443D01*
X019024Y008541D02*
X019303Y008541D01*
X019263Y008640D02*
X019024Y008640D01*
X019024Y008738D02*
X019248Y008738D01*
X019358Y009034D02*
X019024Y009034D01*
X018704Y009034D02*
X018434Y009034D01*
X018434Y009132D02*
X018704Y009132D01*
X018704Y009231D02*
X018434Y009231D01*
X018434Y009329D02*
X018704Y009329D01*
X018704Y009428D02*
X018434Y009428D01*
X018434Y009526D02*
X018704Y009526D01*
X018704Y009625D02*
X018434Y009625D01*
X018434Y009723D02*
X018704Y009723D01*
X018704Y009822D02*
X018434Y009822D01*
X018434Y009920D02*
X018704Y009920D01*
X018704Y010019D02*
X018434Y010019D01*
X018434Y010117D02*
X018704Y010117D01*
X018704Y010216D02*
X018434Y010216D01*
X018434Y010314D02*
X018704Y010314D01*
X018704Y010413D02*
X018434Y010413D01*
X018434Y010511D02*
X018704Y010511D01*
X018704Y010610D02*
X018434Y010610D01*
X018434Y010708D02*
X018704Y010708D01*
X018704Y010807D02*
X018434Y010807D01*
X018434Y010905D02*
X018704Y010905D01*
X018704Y011004D02*
X018434Y011004D01*
X018434Y011102D02*
X018704Y011102D01*
X018704Y011201D02*
X018434Y011201D01*
X018434Y011299D02*
X018704Y011299D01*
X018704Y011398D02*
X018434Y011398D01*
X018434Y011496D02*
X018704Y011496D01*
X018704Y011595D02*
X018434Y011595D01*
X018434Y011693D02*
X018704Y011693D01*
X018704Y011792D02*
X018434Y011792D01*
X018434Y011890D02*
X018704Y011890D01*
X018704Y011989D02*
X018559Y011989D01*
X018582Y012087D02*
X018704Y012087D01*
X018704Y012186D02*
X018582Y012186D01*
X018582Y012284D02*
X018704Y012284D01*
X018704Y012383D02*
X018582Y012383D01*
X018582Y012481D02*
X018704Y012481D01*
X018704Y012580D02*
X016268Y012580D01*
X016268Y012678D02*
X018704Y012678D01*
X018704Y012777D02*
X016268Y012777D01*
X016268Y012875D02*
X018704Y012875D01*
X018598Y012974D02*
X016268Y012974D01*
X016268Y013072D02*
X018556Y013072D01*
X018556Y013171D02*
X016268Y013171D01*
X016268Y013269D02*
X018556Y013269D01*
X018556Y013368D02*
X016268Y013368D01*
X016268Y013466D02*
X018556Y013466D01*
X018618Y013565D02*
X016268Y013565D01*
X016268Y012481D02*
X017965Y012481D01*
X017965Y012383D02*
X016268Y012383D01*
X016268Y012284D02*
X017965Y012284D01*
X017965Y012186D02*
X016268Y012186D01*
X016268Y012087D02*
X017965Y012087D01*
X017989Y011989D02*
X016268Y011989D01*
X016268Y011890D02*
X018114Y011890D01*
X018114Y011792D02*
X016268Y011792D01*
X016268Y011693D02*
X018114Y011693D01*
X018114Y011595D02*
X016268Y011595D01*
X016268Y011496D02*
X018114Y011496D01*
X018114Y011398D02*
X016268Y011398D01*
X016268Y011299D02*
X018114Y011299D01*
X018114Y011201D02*
X016268Y011201D01*
X016268Y011102D02*
X018114Y011102D01*
X018114Y011004D02*
X016268Y011004D01*
X016268Y010905D02*
X018114Y010905D01*
X018114Y010807D02*
X016268Y010807D01*
X016268Y010708D02*
X018114Y010708D01*
X018114Y010610D02*
X016268Y010610D01*
X016268Y010511D02*
X018114Y010511D01*
X018114Y010413D02*
X016268Y010413D01*
X016268Y010314D02*
X018114Y010314D01*
X018114Y010216D02*
X016268Y010216D01*
X016268Y010117D02*
X018114Y010117D01*
X018114Y010019D02*
X016268Y010019D01*
X016268Y009920D02*
X018114Y009920D01*
X018114Y009822D02*
X016268Y009822D01*
X016268Y009723D02*
X018114Y009723D01*
X018114Y009625D02*
X016268Y009625D01*
X016268Y009526D02*
X018114Y009526D01*
X018114Y009428D02*
X016268Y009428D01*
X016268Y009329D02*
X018114Y009329D01*
X018114Y009231D02*
X016268Y009231D01*
X016268Y009132D02*
X018114Y009132D01*
X018114Y009034D02*
X016268Y009034D01*
X016268Y008935D02*
X018114Y008935D01*
X018114Y008837D02*
X016268Y008837D01*
X016268Y008738D02*
X018114Y008738D01*
X018114Y008640D02*
X016268Y008640D01*
X016268Y008541D02*
X018114Y008541D01*
X018114Y008443D02*
X016268Y008443D01*
X016268Y008344D02*
X018114Y008344D01*
X018114Y008246D02*
X016268Y008246D01*
X016268Y008147D02*
X018114Y008147D01*
X018114Y008049D02*
X016367Y008049D01*
X016416Y007950D02*
X018114Y007950D01*
X018114Y007852D02*
X016416Y007852D01*
X016416Y007753D02*
X018114Y007753D01*
X018114Y007655D02*
X016416Y007655D01*
X016416Y007556D02*
X017432Y007556D01*
X017375Y007458D02*
X016362Y007458D01*
X016108Y007756D02*
X016108Y019263D01*
X016416Y019278D02*
X020092Y019278D01*
X020092Y019376D02*
X016416Y019376D01*
X016416Y019475D02*
X020092Y019475D01*
X020092Y019573D02*
X012305Y019573D01*
X012305Y019475D02*
X015800Y019475D01*
X015800Y019376D02*
X012305Y019376D01*
X012305Y019278D02*
X015800Y019278D01*
X015800Y019179D02*
X012305Y019179D01*
X012305Y019081D02*
X013405Y019081D01*
X013309Y018982D02*
X012305Y018982D01*
X012305Y018884D02*
X013268Y018884D01*
X013248Y018785D02*
X012305Y018785D01*
X012305Y018687D02*
X013248Y018687D01*
X013284Y018588D02*
X012305Y018588D01*
X012305Y018490D02*
X013345Y018490D01*
X013471Y018391D02*
X012305Y018391D01*
X012305Y018293D02*
X014177Y018293D01*
X014177Y018391D02*
X013840Y018391D01*
X013966Y018490D02*
X014050Y018490D01*
X014027Y018588D02*
X014028Y018588D01*
X014002Y018982D02*
X014028Y018982D01*
X013906Y019081D02*
X015800Y019081D01*
X016416Y019081D02*
X019405Y019081D01*
X019425Y019101D02*
X019310Y018986D01*
X019248Y018837D01*
X019248Y018675D01*
X019310Y018525D01*
X019425Y018410D01*
X019574Y018348D01*
X019736Y018348D01*
X019886Y018410D01*
X020001Y018525D01*
X020063Y018675D01*
X020063Y018837D01*
X020001Y018986D01*
X019886Y019101D01*
X019736Y019163D01*
X019574Y019163D01*
X019425Y019101D01*
X019309Y018982D02*
X019172Y018982D01*
X019172Y018884D02*
X019268Y018884D01*
X019248Y018785D02*
X019172Y018785D01*
X019172Y018687D02*
X019248Y018687D01*
X019284Y018588D02*
X019172Y018588D01*
X019150Y018490D02*
X019345Y018490D01*
X019471Y018391D02*
X019024Y018391D01*
X019024Y018293D02*
X020092Y018293D01*
X020092Y018391D02*
X019840Y018391D01*
X019966Y018490D02*
X020092Y018490D01*
X020092Y018588D02*
X020027Y018588D01*
X020063Y018687D02*
X020092Y018687D01*
X020092Y018785D02*
X020063Y018785D01*
X020043Y018884D02*
X020092Y018884D01*
X020092Y018982D02*
X020002Y018982D01*
X020092Y019081D02*
X019906Y019081D01*
X020092Y019179D02*
X016416Y019179D01*
X019024Y018194D02*
X020092Y018194D01*
X020092Y018096D02*
X019891Y018096D01*
X019886Y018101D02*
X019736Y018163D01*
X019574Y018163D01*
X019425Y018101D01*
X019310Y017986D01*
X019248Y017837D01*
X019248Y017675D01*
X019310Y017525D01*
X019425Y017410D01*
X019574Y017348D01*
X019736Y017348D01*
X019886Y017410D01*
X020001Y017525D01*
X020063Y017675D01*
X020063Y017837D01*
X020001Y017986D01*
X019886Y018101D01*
X019989Y017997D02*
X020092Y017997D01*
X020092Y017899D02*
X020037Y017899D01*
X020063Y017800D02*
X020092Y017800D01*
X020092Y017702D02*
X020063Y017702D01*
X020033Y017603D02*
X020092Y017603D01*
X020092Y017505D02*
X019981Y017505D01*
X019876Y017406D02*
X020092Y017406D01*
X020092Y017308D02*
X019024Y017308D01*
X019024Y017406D02*
X019435Y017406D01*
X019330Y017505D02*
X019024Y017505D01*
X019024Y017603D02*
X019278Y017603D01*
X019248Y017702D02*
X019024Y017702D01*
X019024Y017800D02*
X019248Y017800D01*
X019274Y017899D02*
X019024Y017899D01*
X019024Y017997D02*
X019321Y017997D01*
X019420Y018096D02*
X019024Y018096D01*
X020092Y019672D02*
X012305Y019672D01*
X012305Y019770D02*
X020092Y019770D01*
X020092Y019869D02*
X012305Y019869D01*
X012305Y016027D02*
X013351Y016027D01*
X013287Y015929D02*
X012305Y015929D01*
X012305Y015830D02*
X013248Y015830D01*
X013248Y015732D02*
X012305Y015732D01*
X012305Y015633D02*
X013265Y015633D01*
X013306Y015535D02*
X012305Y015535D01*
X012305Y015436D02*
X013399Y015436D01*
X013259Y014648D02*
X011603Y014648D01*
X011603Y014550D02*
X011503Y014550D01*
X011503Y014648D02*
X011033Y014648D01*
X011033Y014747D02*
X011033Y014747D01*
X011033Y014813D02*
X010752Y015094D01*
X010354Y015094D01*
X010073Y014813D01*
X010073Y014415D01*
X010354Y014134D01*
X010752Y014134D01*
X011033Y014415D01*
X011033Y014813D01*
X011033Y014845D02*
X011000Y014845D01*
X011033Y014944D02*
X010902Y014944D01*
X010803Y015042D02*
X011044Y015042D01*
X011033Y014353D02*
X010971Y014353D01*
X011033Y014254D02*
X010872Y014254D01*
X010774Y014156D02*
X011061Y014156D01*
X011503Y014156D02*
X011603Y014156D01*
X011603Y014254D02*
X011503Y014254D01*
X011503Y014353D02*
X011603Y014353D01*
X011603Y014451D02*
X011503Y014451D01*
X012073Y014254D02*
X014028Y014254D01*
X014337Y014263D02*
X014337Y009756D01*
X014028Y009920D02*
X014028Y009920D01*
X014048Y010019D02*
X013968Y010019D01*
X013846Y010117D02*
X014177Y010117D01*
X014177Y010216D02*
X012282Y010216D01*
X012282Y010314D02*
X014177Y010314D01*
X014177Y010413D02*
X013889Y010413D01*
X013886Y010410D02*
X014001Y010525D01*
X014063Y010675D01*
X014063Y010837D01*
X014001Y010986D01*
X013886Y011101D01*
X013736Y011163D01*
X013574Y011163D01*
X013425Y011101D01*
X013310Y010986D01*
X013248Y010837D01*
X013248Y010675D01*
X013310Y010525D01*
X013425Y010410D01*
X013574Y010348D01*
X013736Y010348D01*
X013886Y010410D01*
X013987Y010511D02*
X014177Y010511D01*
X014177Y010610D02*
X014036Y010610D01*
X014063Y010708D02*
X014177Y010708D01*
X014177Y010807D02*
X014063Y010807D01*
X014034Y010905D02*
X014177Y010905D01*
X014177Y011004D02*
X013983Y011004D01*
X013882Y011102D02*
X014177Y011102D01*
X014177Y011201D02*
X012873Y011201D01*
X012873Y011299D02*
X014177Y011299D01*
X014177Y011398D02*
X013856Y011398D01*
X013886Y011410D02*
X014001Y011525D01*
X014063Y011675D01*
X014063Y011837D01*
X014001Y011986D01*
X013886Y012101D01*
X013736Y012163D01*
X013574Y012163D01*
X013425Y012101D01*
X013310Y011986D01*
X013248Y011837D01*
X013248Y011675D01*
X013310Y011525D01*
X013425Y011410D01*
X013574Y011348D01*
X013736Y011348D01*
X013886Y011410D01*
X013972Y011496D02*
X014177Y011496D01*
X014177Y011595D02*
X014030Y011595D01*
X014063Y011693D02*
X014177Y011693D01*
X014177Y011792D02*
X014063Y011792D01*
X014040Y011890D02*
X014177Y011890D01*
X014177Y011989D02*
X013998Y011989D01*
X013900Y012087D02*
X014177Y012087D01*
X014177Y012186D02*
X012134Y012186D01*
X012134Y012284D02*
X014177Y012284D01*
X014177Y012383D02*
X013820Y012383D01*
X013886Y012410D02*
X014001Y012525D01*
X014063Y012675D01*
X014063Y012837D01*
X014001Y012986D01*
X013886Y013101D01*
X013736Y013163D01*
X013574Y013163D01*
X013425Y013101D01*
X013310Y012986D01*
X013248Y012837D01*
X013248Y012675D01*
X013310Y012525D01*
X013425Y012410D01*
X013574Y012348D01*
X013736Y012348D01*
X013886Y012410D01*
X013957Y012481D02*
X014177Y012481D01*
X014177Y012580D02*
X014023Y012580D01*
X014063Y012678D02*
X014177Y012678D01*
X014177Y012777D02*
X014063Y012777D01*
X014047Y012875D02*
X014177Y012875D01*
X014177Y012974D02*
X014006Y012974D01*
X013915Y013072D02*
X014177Y013072D01*
X014177Y013171D02*
X000707Y013171D01*
X000707Y013269D02*
X014177Y013269D01*
X014177Y013368D02*
X014074Y013368D01*
X014073Y013366D02*
X014092Y013400D01*
X014103Y013439D01*
X014103Y013717D01*
X013694Y013717D01*
X013694Y013794D01*
X013617Y013794D01*
X013617Y013717D01*
X013694Y013717D01*
X013694Y013308D01*
X013972Y013308D01*
X014011Y013319D01*
X014045Y013338D01*
X014073Y013366D01*
X014103Y013466D02*
X014177Y013466D01*
X014177Y013565D02*
X014103Y013565D01*
X014103Y013663D02*
X014177Y013663D01*
X014177Y013762D02*
X013694Y013762D01*
X013617Y013762D02*
X010006Y013762D01*
X010006Y013860D02*
X013208Y013860D01*
X013208Y013794D02*
X013617Y013794D01*
X013617Y014203D01*
X013339Y014203D01*
X013300Y014192D01*
X013266Y014173D01*
X013238Y014145D01*
X013219Y014111D01*
X013208Y014072D01*
X013208Y013794D01*
X013208Y013717D02*
X013208Y013439D01*
X013219Y013400D01*
X013238Y013366D01*
X013266Y013338D01*
X013300Y013319D01*
X013339Y013308D01*
X013617Y013308D01*
X013617Y013717D01*
X013208Y013717D01*
X013208Y013663D02*
X000707Y013663D01*
X000707Y013565D02*
X013208Y013565D01*
X013208Y013466D02*
X000707Y013466D01*
X000707Y013368D02*
X013237Y013368D01*
X013396Y013072D02*
X000707Y013072D01*
X000707Y012974D02*
X011666Y012974D01*
X011666Y012875D02*
X000707Y012875D01*
X000707Y012777D02*
X011666Y012777D01*
X011974Y012756D02*
X011974Y010417D01*
X012282Y010413D02*
X013422Y010413D01*
X013324Y010511D02*
X012872Y010511D01*
X012873Y010610D02*
X013275Y010610D01*
X013248Y010708D02*
X012873Y010708D01*
X012873Y010807D02*
X013248Y010807D01*
X013277Y010905D02*
X012873Y010905D01*
X012868Y011004D02*
X013328Y011004D01*
X013429Y011102D02*
X012725Y011102D01*
X012405Y011102D02*
X012134Y011102D01*
X012134Y011004D02*
X012261Y011004D01*
X012257Y010905D02*
X012134Y010905D01*
X012134Y010807D02*
X012257Y010807D01*
X012257Y010708D02*
X012235Y010708D01*
X012565Y010756D02*
X012565Y011425D01*
X012873Y011398D02*
X013455Y011398D01*
X013339Y011496D02*
X012873Y011496D01*
X012873Y011595D02*
X013281Y011595D01*
X013248Y011693D02*
X012848Y011693D01*
X013248Y011792D02*
X012134Y011792D01*
X012134Y011890D02*
X013271Y011890D01*
X013313Y011989D02*
X012134Y011989D01*
X012134Y012087D02*
X013411Y012087D01*
X013491Y012383D02*
X012134Y012383D01*
X012252Y012481D02*
X013354Y012481D01*
X013288Y012580D02*
X012282Y012580D01*
X012282Y012678D02*
X013248Y012678D01*
X013248Y012777D02*
X012282Y012777D01*
X012282Y012875D02*
X013264Y012875D01*
X013305Y012974D02*
X012282Y012974D01*
X013208Y013959D02*
X010006Y013959D01*
X010006Y014057D02*
X013208Y014057D01*
X013249Y014156D02*
X012045Y014156D01*
X013617Y014156D02*
X013694Y014156D01*
X013694Y014057D02*
X013617Y014057D01*
X013617Y013959D02*
X013694Y013959D01*
X013694Y013860D02*
X013617Y013860D01*
X013617Y013663D02*
X013694Y013663D01*
X013694Y013565D02*
X013617Y013565D01*
X013617Y013466D02*
X013694Y013466D01*
X013694Y013368D02*
X013617Y013368D01*
X014103Y013860D02*
X014177Y013860D01*
X014497Y013860D02*
X014767Y013860D01*
X014767Y013762D02*
X014497Y013762D01*
X014497Y013663D02*
X014767Y013663D01*
X014767Y013565D02*
X014497Y013565D01*
X014497Y013466D02*
X014767Y013466D01*
X014767Y013368D02*
X014497Y013368D01*
X014497Y013269D02*
X014767Y013269D01*
X014767Y013171D02*
X014497Y013171D01*
X014497Y013072D02*
X014767Y013072D01*
X014767Y012974D02*
X014497Y012974D01*
X014497Y012875D02*
X014767Y012875D01*
X014767Y012777D02*
X014497Y012777D01*
X014497Y012678D02*
X014767Y012678D01*
X014767Y012580D02*
X014497Y012580D01*
X014497Y012481D02*
X014767Y012481D01*
X014767Y012383D02*
X014497Y012383D01*
X014497Y012284D02*
X014767Y012284D01*
X014767Y012186D02*
X014497Y012186D01*
X014497Y012087D02*
X014767Y012087D01*
X014767Y011989D02*
X014497Y011989D01*
X014497Y011890D02*
X014767Y011890D01*
X014767Y011792D02*
X014497Y011792D01*
X014497Y011693D02*
X014767Y011693D01*
X014767Y011595D02*
X014497Y011595D01*
X014497Y011496D02*
X014767Y011496D01*
X014767Y011398D02*
X014497Y011398D01*
X014497Y011299D02*
X014767Y011299D01*
X014767Y011201D02*
X014497Y011201D01*
X014497Y011102D02*
X014767Y011102D01*
X014767Y011004D02*
X014497Y011004D01*
X014497Y010905D02*
X014767Y010905D01*
X014767Y010807D02*
X014497Y010807D01*
X014497Y010708D02*
X014767Y010708D01*
X014767Y010610D02*
X014497Y010610D01*
X014497Y010511D02*
X014767Y010511D01*
X014767Y010413D02*
X014497Y010413D01*
X014497Y010314D02*
X014767Y010314D01*
X014767Y010216D02*
X014497Y010216D01*
X014497Y010117D02*
X014767Y010117D01*
X014767Y010019D02*
X014625Y010019D01*
X014645Y009920D02*
X014767Y009920D01*
X014767Y009822D02*
X014645Y009822D01*
X014645Y009723D02*
X014767Y009723D01*
X014767Y009625D02*
X014645Y009625D01*
X014645Y009526D02*
X014767Y009526D01*
X014767Y009428D02*
X013904Y009428D01*
X014001Y009526D02*
X014028Y009526D01*
X013810Y009132D02*
X014767Y009132D01*
X014767Y009231D02*
X004530Y009231D01*
X004629Y009329D02*
X014767Y009329D01*
X014654Y009034D02*
X013953Y009034D01*
X014063Y008738D02*
X014619Y008738D01*
X014619Y008640D02*
X014048Y008640D01*
X014007Y008541D02*
X014619Y008541D01*
X013537Y008147D02*
X011941Y008147D01*
X011919Y008049D02*
X013373Y008049D01*
X013295Y007950D02*
X011878Y007950D01*
X011795Y007852D02*
X013255Y007852D01*
X013248Y007753D02*
X011645Y007753D01*
X011336Y007556D02*
X013297Y007556D01*
X013256Y007655D02*
X011206Y007655D01*
X011009Y007655D02*
X010912Y007655D01*
X010912Y007556D02*
X011009Y007556D01*
X011009Y007458D02*
X010912Y007458D01*
X010912Y007359D02*
X011009Y007359D01*
X011411Y007458D02*
X013377Y007458D01*
X013392Y008443D02*
X011878Y008443D01*
X011795Y008541D02*
X013303Y008541D01*
X013263Y008640D02*
X011645Y008640D01*
X011722Y010117D02*
X007108Y010117D01*
X007164Y010216D02*
X011666Y010216D01*
X011666Y010314D02*
X007164Y010314D01*
X006604Y010117D02*
X005417Y010117D01*
X005515Y010216D02*
X006548Y010216D01*
X005318Y010019D02*
X013343Y010019D01*
X013283Y009920D02*
X005220Y009920D01*
X005121Y009822D02*
X013248Y009822D01*
X013248Y009723D02*
X005023Y009723D01*
X004924Y009625D02*
X013269Y009625D01*
X013310Y009526D02*
X004826Y009526D01*
X004727Y009428D02*
X013407Y009428D01*
X013501Y009132D02*
X004432Y009132D01*
X005483Y008640D02*
X008277Y008640D01*
X008127Y008541D02*
X005633Y008541D01*
X005717Y008443D02*
X008043Y008443D01*
X008002Y008344D02*
X005757Y008344D01*
X005779Y008246D02*
X007981Y008246D01*
X007981Y008147D02*
X005779Y008147D01*
X005758Y008049D02*
X008002Y008049D01*
X008043Y007950D02*
X005717Y007950D01*
X005633Y007852D02*
X008126Y007852D01*
X008276Y007753D02*
X005484Y007753D01*
X007961Y007196D02*
X007961Y005757D01*
X009612Y004106D01*
X010006Y004696D02*
X008461Y006242D01*
X008461Y008196D01*
X008795Y008541D02*
X009127Y008541D01*
X009043Y008443D02*
X008878Y008443D01*
X008919Y008344D02*
X009002Y008344D01*
X008981Y008246D02*
X008941Y008246D01*
X008941Y008147D02*
X008981Y008147D01*
X009002Y008049D02*
X008919Y008049D01*
X008878Y007950D02*
X009043Y007950D01*
X009126Y007852D02*
X008795Y007852D01*
X008645Y007753D02*
X009276Y007753D01*
X009301Y007655D02*
X009108Y007655D01*
X009280Y007556D02*
X009301Y007556D01*
X009621Y007556D02*
X009642Y007556D01*
X009461Y008196D02*
X009461Y006817D01*
X010400Y005878D01*
X010793Y005878D01*
X010400Y005287D02*
X008961Y006726D01*
X008961Y007196D01*
X008642Y007556D02*
X008621Y007556D01*
X008621Y007655D02*
X008813Y007655D01*
X008645Y008640D02*
X009277Y008640D01*
X010425Y007064D02*
X010457Y007064D01*
X010418Y006965D02*
X010495Y006965D01*
X010517Y006867D02*
X010557Y006867D01*
X010615Y006768D02*
X010665Y006768D01*
X010714Y006670D02*
X010879Y006670D01*
X011448Y006177D02*
X017523Y006177D01*
X017523Y006079D02*
X013908Y006079D01*
X014003Y005980D02*
X017375Y005980D01*
X017375Y005882D02*
X014044Y005882D01*
X014063Y005783D02*
X017375Y005783D01*
X017375Y005685D02*
X014063Y005685D01*
X014026Y005586D02*
X017375Y005586D01*
X017399Y005488D02*
X013964Y005488D01*
X013835Y005389D02*
X018114Y005389D01*
X018114Y005291D02*
X012469Y005291D01*
X012326Y005389D02*
X013476Y005389D01*
X013977Y004010D02*
X017965Y004010D01*
X017965Y003912D02*
X014031Y003912D01*
X017683Y005756D02*
X017683Y007256D01*
X017991Y007261D02*
X018114Y007261D01*
X018114Y007359D02*
X017991Y007359D01*
X017991Y007458D02*
X018114Y007458D01*
X018114Y007556D02*
X017934Y007556D01*
X017991Y007162D02*
X018114Y007162D01*
X018114Y007064D02*
X017991Y007064D01*
X017945Y006965D02*
X018114Y006965D01*
X018114Y006867D02*
X017843Y006867D01*
X017843Y006768D02*
X018114Y006768D01*
X018114Y006670D02*
X017843Y006670D01*
X017843Y006571D02*
X018114Y006571D01*
X018114Y006473D02*
X017843Y006473D01*
X017843Y006374D02*
X018114Y006374D01*
X018114Y006276D02*
X017843Y006276D01*
X017843Y006177D02*
X018114Y006177D01*
X018114Y006079D02*
X017843Y006079D01*
X017991Y005980D02*
X018114Y005980D01*
X018114Y005882D02*
X017991Y005882D01*
X017991Y005783D02*
X018114Y005783D01*
X018114Y005685D02*
X017991Y005685D01*
X017991Y005586D02*
X018114Y005586D01*
X018114Y005488D02*
X017967Y005488D01*
X018434Y005488D02*
X019347Y005488D01*
X019310Y005525D02*
X019425Y005410D01*
X019574Y005348D01*
X019736Y005348D01*
X019886Y005410D01*
X020001Y005525D01*
X020063Y005675D01*
X020063Y005837D01*
X020001Y005986D01*
X019886Y006101D01*
X019736Y006163D01*
X019574Y006163D01*
X019425Y006101D01*
X019310Y005986D01*
X019248Y005837D01*
X019248Y005675D01*
X019310Y005525D01*
X019285Y005586D02*
X018434Y005586D01*
X018434Y005685D02*
X019248Y005685D01*
X019248Y005783D02*
X018434Y005783D01*
X018434Y005882D02*
X019267Y005882D01*
X019308Y005980D02*
X018434Y005980D01*
X018434Y006079D02*
X019403Y006079D01*
X019512Y006374D02*
X018434Y006374D01*
X018434Y006276D02*
X020092Y006276D01*
X020092Y006374D02*
X019799Y006374D01*
X019949Y006473D02*
X020092Y006473D01*
X020092Y006571D02*
X020020Y006571D01*
X020061Y006670D02*
X020092Y006670D01*
X020092Y006768D02*
X020063Y006768D01*
X020050Y006867D02*
X020092Y006867D01*
X020092Y006965D02*
X020009Y006965D01*
X020092Y007064D02*
X019923Y007064D01*
X020092Y007162D02*
X019737Y007162D01*
X019302Y006965D02*
X019172Y006965D01*
X019172Y006867D02*
X019261Y006867D01*
X019248Y006768D02*
X019172Y006768D01*
X019172Y006670D02*
X019250Y006670D01*
X019291Y006571D02*
X019172Y006571D01*
X019133Y006473D02*
X019362Y006473D01*
X019908Y006079D02*
X020092Y006079D01*
X020092Y006177D02*
X018434Y006177D01*
X018434Y006473D02*
X018595Y006473D01*
X018556Y006571D02*
X018434Y006571D01*
X018434Y006670D02*
X018556Y006670D01*
X018556Y006768D02*
X018434Y006768D01*
X018434Y006867D02*
X018556Y006867D01*
X018556Y006965D02*
X018434Y006965D01*
X018434Y007261D02*
X018704Y007261D01*
X018704Y007359D02*
X018434Y007359D01*
X018434Y007458D02*
X018704Y007458D01*
X018704Y007556D02*
X018434Y007556D01*
X018434Y007655D02*
X018704Y007655D01*
X018704Y007753D02*
X018434Y007753D01*
X018434Y007852D02*
X018704Y007852D01*
X018704Y007950D02*
X018434Y007950D01*
X018434Y008049D02*
X018704Y008049D01*
X018704Y008147D02*
X018434Y008147D01*
X018434Y008246D02*
X018704Y008246D01*
X018704Y008344D02*
X018434Y008344D01*
X018434Y008443D02*
X018704Y008443D01*
X018704Y008541D02*
X018434Y008541D01*
X018434Y008640D02*
X018704Y008640D01*
X018704Y008738D02*
X018434Y008738D01*
X018434Y008837D02*
X018704Y008837D01*
X018704Y008935D02*
X018434Y008935D01*
X019904Y009428D02*
X020092Y009428D01*
X020092Y009526D02*
X020001Y009526D01*
X020042Y009625D02*
X020092Y009625D01*
X020092Y009723D02*
X020063Y009723D01*
X020063Y009822D02*
X020092Y009822D01*
X020092Y009920D02*
X020028Y009920D01*
X019968Y010019D02*
X020092Y010019D01*
X020092Y010117D02*
X019846Y010117D01*
X019889Y010413D02*
X020092Y010413D01*
X020092Y010511D02*
X019987Y010511D01*
X020036Y010610D02*
X020092Y010610D01*
X020092Y010708D02*
X020063Y010708D01*
X020063Y010807D02*
X020092Y010807D01*
X020092Y010905D02*
X020034Y010905D01*
X019983Y011004D02*
X020092Y011004D01*
X020092Y011102D02*
X019882Y011102D01*
X019856Y011398D02*
X020092Y011398D01*
X020092Y011496D02*
X019972Y011496D01*
X020030Y011595D02*
X020092Y011595D01*
X020092Y011693D02*
X020063Y011693D01*
X020063Y011792D02*
X020092Y011792D01*
X020092Y011890D02*
X020040Y011890D01*
X019998Y011989D02*
X020092Y011989D01*
X020092Y012087D02*
X019900Y012087D01*
X019820Y012383D02*
X020092Y012383D01*
X020092Y012481D02*
X019957Y012481D01*
X020023Y012580D02*
X020092Y012580D01*
X020092Y012678D02*
X020063Y012678D01*
X020063Y012777D02*
X020092Y012777D01*
X020092Y012875D02*
X020047Y012875D01*
X020006Y012974D02*
X020092Y012974D01*
X020092Y013072D02*
X019915Y013072D01*
X019783Y013368D02*
X020092Y013368D01*
X020092Y013466D02*
X019942Y013466D01*
X020017Y013565D02*
X020092Y013565D01*
X020092Y013663D02*
X020058Y013663D01*
X020063Y013762D02*
X020092Y013762D01*
X020092Y013860D02*
X020053Y013860D01*
X020092Y013959D02*
X020012Y013959D01*
X020092Y014057D02*
X019930Y014057D01*
X018864Y013259D02*
X018864Y006756D01*
X020003Y005980D02*
X020092Y005980D01*
X020092Y005882D02*
X020044Y005882D01*
X020063Y005783D02*
X020092Y005783D01*
X020092Y005685D02*
X020063Y005685D01*
X020092Y005586D02*
X020026Y005586D01*
X019964Y005488D02*
X020092Y005488D01*
X020092Y005389D02*
X019835Y005389D01*
X019736Y005163D02*
X019574Y005163D01*
X019425Y005101D01*
X019310Y004986D01*
X019248Y004837D01*
X019248Y004675D01*
X019310Y004525D01*
X019425Y004410D01*
X019574Y004348D01*
X019736Y004348D01*
X019886Y004410D01*
X020001Y004525D01*
X020063Y004675D01*
X020063Y004837D01*
X020001Y004986D01*
X019886Y005101D01*
X019736Y005163D01*
X019893Y005094D02*
X020092Y005094D01*
X020092Y005192D02*
X018434Y005192D01*
X018434Y005094D02*
X019418Y005094D01*
X019319Y004995D02*
X018434Y004995D01*
X018434Y004897D02*
X019273Y004897D01*
X019248Y004798D02*
X018434Y004798D01*
X018434Y004700D02*
X019248Y004700D01*
X019279Y004601D02*
X018434Y004601D01*
X018434Y004503D02*
X019332Y004503D01*
X019439Y004404D02*
X018558Y004404D01*
X018582Y004306D02*
X020092Y004306D01*
X020092Y004404D02*
X019871Y004404D01*
X019979Y004503D02*
X020092Y004503D01*
X020092Y004601D02*
X020032Y004601D01*
X020063Y004700D02*
X020092Y004700D01*
X020092Y004798D02*
X020063Y004798D01*
X020038Y004897D02*
X020092Y004897D01*
X020092Y004995D02*
X019992Y004995D01*
X020092Y005291D02*
X018434Y005291D01*
X018434Y005389D02*
X019476Y005389D01*
X018274Y004137D02*
X018274Y012256D01*
X014767Y013959D02*
X014584Y013959D01*
X014645Y014057D02*
X014767Y014057D01*
X014767Y014156D02*
X014645Y014156D01*
X014645Y014254D02*
X014767Y014254D01*
X014767Y014353D02*
X014645Y014353D01*
X014645Y014451D02*
X014767Y014451D01*
X014767Y014550D02*
X014602Y014550D01*
X012282Y011693D02*
X012134Y011693D01*
X012134Y011595D02*
X012257Y011595D01*
X012257Y011496D02*
X012134Y011496D01*
X012134Y011398D02*
X012257Y011398D01*
X012257Y011299D02*
X012134Y011299D01*
X012134Y011201D02*
X012257Y011201D01*
X012226Y010117D02*
X013465Y010117D01*
X010332Y014156D02*
X010006Y014156D01*
X010006Y014254D02*
X010234Y014254D01*
X010135Y014353D02*
X010006Y014353D01*
X010006Y014451D02*
X010073Y014451D01*
X010073Y014550D02*
X010006Y014550D01*
X010006Y014648D02*
X010073Y014648D01*
X010073Y014747D02*
X010006Y014747D01*
X010006Y014845D02*
X010106Y014845D01*
X010204Y014944D02*
X010006Y014944D01*
X010006Y015042D02*
X010303Y015042D01*
X003361Y011595D02*
X000707Y011595D01*
X000707Y011693D02*
X003277Y011693D01*
X003236Y011792D02*
X000707Y011792D01*
X000707Y011890D02*
X003228Y011890D01*
X003237Y011989D02*
X000707Y011989D01*
X000707Y012087D02*
X003278Y012087D01*
X001639Y007753D02*
X000707Y007753D01*
X000707Y007655D02*
X001362Y007655D01*
X001319Y007556D02*
X000707Y007556D01*
X000707Y007458D02*
X001319Y007458D01*
X001319Y007359D02*
X000707Y007359D01*
X000707Y007261D02*
X001319Y007261D01*
X017711Y001843D02*
X017765Y001843D01*
X017765Y001745D02*
X017711Y001745D01*
X017711Y001646D02*
X017787Y001646D01*
X018467Y001449D02*
X018544Y001449D01*
X018869Y001449D02*
X018969Y001449D01*
X018969Y001351D02*
X018869Y001351D01*
X018869Y001252D02*
X018969Y001252D01*
X018969Y001154D02*
X018869Y001154D01*
X019294Y001449D02*
X020092Y001449D01*
X020092Y001351D02*
X020063Y001351D01*
X019547Y001351D02*
X019379Y001351D01*
X019384Y001252D02*
X019433Y001252D01*
X019384Y000987D02*
X019384Y000987D01*
X019384Y000887D02*
X019384Y000887D01*
X019301Y002040D02*
X019206Y002040D01*
X019206Y002139D02*
X019301Y002139D01*
X019312Y002237D02*
X019206Y002237D01*
X018694Y002631D02*
X018532Y002631D01*
X018582Y002730D02*
X018595Y002730D01*
X019133Y016027D02*
X019208Y016027D01*
X019227Y016126D02*
X019172Y016126D01*
M02*
