G75*
%MOIN*%
%OFA0B0*%
%FSLAX25Y25*%
%IPPOS*%
%LPD*%
%AMOC8*
5,1,8,0,0,1.08239X$1,22.5*
%
%ADD10C,0.00400*%
%ADD11C,0.00200*%
D10*
X0015341Y0010484D02*
X0016062Y0009763D01*
X0017505Y0009763D01*
X0018226Y0010484D01*
X0018226Y0013370D01*
X0017505Y0014091D01*
X0016062Y0014091D01*
X0015341Y0013370D01*
X0016062Y0016850D02*
X0015341Y0017571D01*
X0015341Y0020456D01*
X0016062Y0021178D01*
X0018226Y0021178D01*
X0018226Y0016850D01*
X0016062Y0016850D01*
X0019691Y0016850D02*
X0019691Y0021178D01*
X0022576Y0021178D02*
X0019691Y0016850D01*
X0022576Y0016850D02*
X0022576Y0021178D01*
X0024041Y0020456D02*
X0024763Y0021178D01*
X0026205Y0021178D01*
X0026927Y0020456D01*
X0026927Y0017571D01*
X0026205Y0016850D01*
X0024763Y0016850D01*
X0024041Y0017571D01*
X0024041Y0019014D01*
X0025484Y0019014D01*
X0026205Y0023936D02*
X0026927Y0024658D01*
X0024041Y0027543D01*
X0024041Y0024658D01*
X0024763Y0023936D01*
X0026205Y0023936D01*
X0026927Y0024658D02*
X0026927Y0027543D01*
X0026205Y0028264D01*
X0024763Y0028264D01*
X0024041Y0027543D01*
X0024041Y0031023D02*
X0026927Y0031023D01*
X0024041Y0033908D01*
X0024041Y0034630D01*
X0024763Y0035351D01*
X0026205Y0035351D01*
X0026927Y0034630D01*
X0026205Y0038109D02*
X0026927Y0038831D01*
X0026205Y0038109D02*
X0024763Y0038109D01*
X0024041Y0038831D01*
X0024041Y0039552D01*
X0024763Y0040273D01*
X0025484Y0040273D01*
X0024763Y0040273D02*
X0024041Y0040995D01*
X0024041Y0041716D01*
X0024763Y0042438D01*
X0026205Y0042438D01*
X0026927Y0041716D01*
X0024763Y0045196D02*
X0024763Y0049524D01*
X0026927Y0047360D01*
X0024041Y0047360D01*
X0024041Y0052283D02*
X0026927Y0052283D01*
X0025484Y0052283D02*
X0025484Y0056611D01*
X0026927Y0055168D01*
X0026927Y0059369D02*
X0026927Y0062255D01*
X0025484Y0063697D01*
X0024041Y0062255D01*
X0024041Y0059369D01*
X0022576Y0059369D02*
X0019691Y0059369D01*
X0021134Y0059369D02*
X0021134Y0063697D01*
X0022576Y0062255D01*
X0024041Y0061533D02*
X0026927Y0061533D01*
X0032742Y0061533D02*
X0035627Y0061533D01*
X0041442Y0062255D02*
X0043606Y0062255D01*
X0044327Y0061533D01*
X0043606Y0060812D01*
X0042163Y0060812D01*
X0041442Y0060091D01*
X0042163Y0059369D01*
X0044327Y0059369D01*
X0045792Y0060091D02*
X0045792Y0062976D01*
X0046513Y0063697D01*
X0047956Y0063697D01*
X0048677Y0062976D01*
X0048677Y0060091D01*
X0047956Y0059369D01*
X0046513Y0059369D01*
X0045792Y0060091D01*
X0046513Y0056611D02*
X0045792Y0055889D01*
X0045792Y0053004D01*
X0046513Y0052283D01*
X0047956Y0052283D01*
X0048677Y0053004D01*
X0048677Y0055889D01*
X0047956Y0056611D01*
X0046513Y0056611D01*
X0046513Y0049524D02*
X0047956Y0049524D01*
X0048677Y0048803D01*
X0048677Y0045917D01*
X0047956Y0045196D01*
X0046513Y0045196D01*
X0045792Y0045917D01*
X0045792Y0047360D01*
X0047235Y0047360D01*
X0045792Y0048803D02*
X0046513Y0049524D01*
X0044327Y0047360D02*
X0043606Y0048081D01*
X0041442Y0048081D01*
X0042163Y0046639D02*
X0043606Y0046639D01*
X0044327Y0047360D01*
X0044327Y0045196D02*
X0042163Y0045196D01*
X0041442Y0045917D01*
X0042163Y0046639D01*
X0045792Y0042438D02*
X0045792Y0038831D01*
X0046513Y0038109D01*
X0047956Y0038109D01*
X0048677Y0038831D01*
X0048677Y0042438D01*
X0048677Y0035351D02*
X0048677Y0031744D01*
X0047956Y0031023D01*
X0046513Y0031023D01*
X0045792Y0031744D01*
X0045792Y0035351D01*
X0044327Y0033187D02*
X0043606Y0033908D01*
X0041442Y0033908D01*
X0042163Y0032466D02*
X0043606Y0032466D01*
X0044327Y0033187D01*
X0044327Y0031023D02*
X0042163Y0031023D01*
X0041442Y0031744D01*
X0042163Y0032466D01*
X0046513Y0028264D02*
X0047956Y0028264D01*
X0048677Y0027543D01*
X0048677Y0024658D01*
X0047956Y0023936D01*
X0046513Y0023936D01*
X0045792Y0024658D01*
X0045792Y0026100D01*
X0047235Y0026100D01*
X0045792Y0027543D02*
X0046513Y0028264D01*
X0046513Y0021178D02*
X0045792Y0020456D01*
X0045792Y0019735D01*
X0046513Y0019014D01*
X0048677Y0019014D01*
X0046513Y0019014D02*
X0045792Y0018292D01*
X0045792Y0017571D01*
X0046513Y0016850D01*
X0048677Y0016850D01*
X0048677Y0021178D01*
X0046513Y0021178D01*
X0044327Y0019014D02*
X0043606Y0019735D01*
X0041442Y0019735D01*
X0042163Y0018292D02*
X0043606Y0018292D01*
X0044327Y0019014D01*
X0044327Y0016850D02*
X0042163Y0016850D01*
X0041442Y0017571D01*
X0042163Y0018292D01*
X0046513Y0014091D02*
X0045792Y0013370D01*
X0045792Y0012648D01*
X0046513Y0011927D01*
X0048677Y0011927D01*
X0046513Y0011927D02*
X0045792Y0011206D01*
X0045792Y0010484D01*
X0046513Y0009763D01*
X0048677Y0009763D01*
X0048677Y0014091D01*
X0046513Y0014091D01*
X0035627Y0011927D02*
X0032742Y0011927D01*
X0026927Y0011206D02*
X0025484Y0009763D01*
X0024041Y0011206D01*
X0024041Y0014091D01*
X0022576Y0013370D02*
X0022576Y0010484D01*
X0021855Y0009763D01*
X0020412Y0009763D01*
X0019691Y0010484D01*
X0019691Y0013370D02*
X0020412Y0014091D01*
X0021855Y0014091D01*
X0022576Y0013370D01*
X0026927Y0014091D02*
X0026927Y0011206D01*
X0032742Y0019014D02*
X0035627Y0019014D01*
X0035627Y0026100D02*
X0032742Y0026100D01*
X0032742Y0033187D02*
X0035627Y0033187D01*
X0035627Y0040273D02*
X0032742Y0040273D01*
X0032742Y0047360D02*
X0035627Y0047360D01*
X0035627Y0054447D02*
X0032742Y0054447D01*
X0022576Y0055889D02*
X0021855Y0056611D01*
X0020412Y0056611D01*
X0019691Y0055889D01*
X0019691Y0055168D01*
X0020412Y0054447D01*
X0019691Y0053725D01*
X0019691Y0053004D01*
X0020412Y0052283D01*
X0021855Y0052283D01*
X0022576Y0053004D01*
X0021134Y0054447D02*
X0020412Y0054447D01*
X0078333Y0020456D02*
X0078333Y0017571D01*
X0079054Y0016850D01*
X0081218Y0016850D01*
X0081218Y0021178D01*
X0079054Y0021178D01*
X0078333Y0020456D01*
X0082683Y0021178D02*
X0082683Y0016850D01*
X0085569Y0021178D01*
X0085569Y0016850D01*
X0087033Y0017571D02*
X0087033Y0019014D01*
X0088476Y0019014D01*
X0087033Y0020456D02*
X0087755Y0021178D01*
X0089197Y0021178D01*
X0089919Y0020456D01*
X0089919Y0017571D01*
X0089197Y0016850D01*
X0087755Y0016850D01*
X0087033Y0017571D01*
X0087033Y0014091D02*
X0087033Y0011206D01*
X0088476Y0009763D01*
X0089919Y0011206D01*
X0089919Y0014091D01*
X0085569Y0013370D02*
X0085569Y0010484D01*
X0084847Y0009763D01*
X0083404Y0009763D01*
X0082683Y0010484D01*
X0081218Y0010484D02*
X0080497Y0009763D01*
X0079054Y0009763D01*
X0078333Y0010484D01*
X0081218Y0010484D02*
X0081218Y0013370D01*
X0080497Y0014091D01*
X0079054Y0014091D01*
X0078333Y0013370D01*
X0082683Y0013370D02*
X0083404Y0014091D01*
X0084847Y0014091D01*
X0085569Y0013370D01*
X0095734Y0011927D02*
X0098619Y0011927D01*
X0104434Y0017571D02*
X0105155Y0018292D01*
X0106598Y0018292D01*
X0107319Y0019014D01*
X0106598Y0019735D01*
X0104434Y0019735D01*
X0104434Y0017571D02*
X0105155Y0016850D01*
X0107319Y0016850D01*
X0108784Y0017571D02*
X0109506Y0016850D01*
X0111670Y0016850D01*
X0111670Y0021178D01*
X0109506Y0021178D01*
X0108784Y0020456D01*
X0108784Y0019735D01*
X0109506Y0019014D01*
X0111670Y0019014D01*
X0109506Y0019014D02*
X0108784Y0018292D01*
X0108784Y0017571D01*
X0109506Y0014091D02*
X0108784Y0013370D01*
X0108784Y0012648D01*
X0109506Y0011927D01*
X0111670Y0011927D01*
X0111670Y0009763D02*
X0109506Y0009763D01*
X0108784Y0010484D01*
X0108784Y0011206D01*
X0109506Y0011927D01*
X0109506Y0014091D02*
X0111670Y0014091D01*
X0111670Y0009763D01*
X0110948Y0023936D02*
X0109506Y0023936D01*
X0108784Y0024658D01*
X0108784Y0026100D01*
X0110227Y0026100D01*
X0111670Y0024658D02*
X0110948Y0023936D01*
X0111670Y0024658D02*
X0111670Y0027543D01*
X0110948Y0028264D01*
X0109506Y0028264D01*
X0108784Y0027543D01*
X0109506Y0031023D02*
X0108784Y0031744D01*
X0108784Y0035351D01*
X0107319Y0033187D02*
X0106598Y0033908D01*
X0104434Y0033908D01*
X0105155Y0032466D02*
X0104434Y0031744D01*
X0105155Y0031023D01*
X0107319Y0031023D01*
X0106598Y0032466D02*
X0107319Y0033187D01*
X0106598Y0032466D02*
X0105155Y0032466D01*
X0109506Y0031023D02*
X0110948Y0031023D01*
X0111670Y0031744D01*
X0111670Y0035351D01*
X0110948Y0038109D02*
X0109506Y0038109D01*
X0108784Y0038831D01*
X0108784Y0042438D01*
X0109506Y0045196D02*
X0108784Y0045917D01*
X0108784Y0047360D01*
X0110227Y0047360D01*
X0111670Y0045917D02*
X0110948Y0045196D01*
X0109506Y0045196D01*
X0107319Y0045196D02*
X0105155Y0045196D01*
X0104434Y0045917D01*
X0105155Y0046639D01*
X0106598Y0046639D01*
X0107319Y0047360D01*
X0106598Y0048081D01*
X0104434Y0048081D01*
X0108784Y0048803D02*
X0109506Y0049524D01*
X0110948Y0049524D01*
X0111670Y0048803D01*
X0111670Y0045917D01*
X0111670Y0042438D02*
X0111670Y0038831D01*
X0110948Y0038109D01*
X0098619Y0040273D02*
X0095734Y0040273D01*
X0089919Y0040995D02*
X0089197Y0040273D01*
X0087033Y0040273D01*
X0087033Y0038831D02*
X0087033Y0041716D01*
X0087755Y0042438D01*
X0089197Y0042438D01*
X0089919Y0041716D01*
X0089919Y0040995D01*
X0089919Y0038831D02*
X0089197Y0038109D01*
X0087755Y0038109D01*
X0087033Y0038831D01*
X0087755Y0035351D02*
X0087033Y0034630D01*
X0087033Y0033908D01*
X0087755Y0033187D01*
X0089197Y0033187D01*
X0089919Y0033908D01*
X0089919Y0034630D01*
X0089197Y0035351D01*
X0087755Y0035351D01*
X0087755Y0033187D02*
X0087033Y0032466D01*
X0087033Y0031744D01*
X0087755Y0031023D01*
X0089197Y0031023D01*
X0089919Y0031744D01*
X0089919Y0032466D01*
X0089197Y0033187D01*
X0088476Y0028264D02*
X0087033Y0026822D01*
X0087033Y0023936D01*
X0085569Y0024658D02*
X0082683Y0027543D01*
X0082683Y0024658D01*
X0083404Y0023936D01*
X0084847Y0023936D01*
X0085569Y0024658D01*
X0085569Y0027543D01*
X0084847Y0028264D01*
X0083404Y0028264D01*
X0082683Y0027543D01*
X0087033Y0026100D02*
X0089919Y0026100D01*
X0089919Y0026822D02*
X0088476Y0028264D01*
X0089919Y0026822D02*
X0089919Y0023936D01*
X0095734Y0026100D02*
X0098619Y0026100D01*
X0098619Y0019014D02*
X0095734Y0019014D01*
X0095734Y0033187D02*
X0098619Y0033187D01*
X0089919Y0045196D02*
X0087033Y0045196D01*
X0088476Y0045196D02*
X0088476Y0049524D01*
X0089919Y0048081D01*
X0089919Y0052283D02*
X0087033Y0052283D01*
X0088476Y0052283D02*
X0088476Y0056611D01*
X0089919Y0055168D01*
X0089919Y0059369D02*
X0087033Y0059369D01*
X0088476Y0059369D02*
X0088476Y0063697D01*
X0089919Y0062255D01*
X0085569Y0062976D02*
X0084847Y0063697D01*
X0083404Y0063697D01*
X0082683Y0062976D01*
X0082683Y0062255D01*
X0085569Y0059369D01*
X0082683Y0059369D01*
X0084126Y0056611D02*
X0084126Y0052283D01*
X0085569Y0052283D02*
X0082683Y0052283D01*
X0083404Y0049524D02*
X0082683Y0048803D01*
X0085569Y0045917D01*
X0084847Y0045196D01*
X0083404Y0045196D01*
X0082683Y0045917D01*
X0082683Y0048803D01*
X0083404Y0049524D02*
X0084847Y0049524D01*
X0085569Y0048803D01*
X0085569Y0045917D01*
X0085569Y0055168D02*
X0084126Y0056611D01*
X0095734Y0054447D02*
X0098619Y0054447D01*
X0098619Y0047360D02*
X0095734Y0047360D01*
X0108784Y0053004D02*
X0108784Y0055889D01*
X0109506Y0056611D01*
X0110948Y0056611D01*
X0111670Y0055889D01*
X0111670Y0053004D01*
X0110948Y0052283D01*
X0109506Y0052283D01*
X0108784Y0053004D01*
X0109506Y0059369D02*
X0108784Y0060091D01*
X0108784Y0062976D01*
X0109506Y0063697D01*
X0110948Y0063697D01*
X0111670Y0062976D01*
X0111670Y0060091D01*
X0110948Y0059369D01*
X0109506Y0059369D01*
X0107319Y0059369D02*
X0105155Y0059369D01*
X0104434Y0060091D01*
X0105155Y0060812D01*
X0106598Y0060812D01*
X0107319Y0061533D01*
X0106598Y0062255D01*
X0104434Y0062255D01*
X0098619Y0061533D02*
X0095734Y0061533D01*
X0142889Y0059092D02*
X0142889Y0056022D01*
X0143657Y0055255D01*
X0145191Y0055255D01*
X0145959Y0056022D01*
X0147493Y0055255D02*
X0147493Y0058324D01*
X0149028Y0059859D01*
X0150562Y0058324D01*
X0150562Y0055255D01*
X0150562Y0057557D02*
X0147493Y0057557D01*
X0145959Y0058324D02*
X0145191Y0057557D01*
X0142889Y0057557D01*
X0142889Y0059092D02*
X0143657Y0059859D01*
X0145191Y0059859D01*
X0145959Y0059092D01*
X0145959Y0058324D01*
X0152097Y0059859D02*
X0155166Y0055255D01*
X0156701Y0056022D02*
X0156701Y0059092D01*
X0157468Y0059859D01*
X0159003Y0059859D01*
X0159770Y0059092D01*
X0159770Y0058324D01*
X0159003Y0057557D01*
X0156701Y0057557D01*
X0156701Y0056022D02*
X0157468Y0055255D01*
X0159003Y0055255D01*
X0159770Y0056022D01*
X0162072Y0049859D02*
X0161305Y0049092D01*
X0164374Y0046022D01*
X0163607Y0045255D01*
X0162072Y0045255D01*
X0161305Y0046022D01*
X0161305Y0049092D01*
X0162072Y0049859D02*
X0163607Y0049859D01*
X0164374Y0049092D01*
X0164374Y0046022D01*
X0165909Y0045255D02*
X0168978Y0045255D01*
X0167444Y0045255D02*
X0167444Y0049859D01*
X0168978Y0048324D01*
X0174474Y0049859D02*
X0177543Y0049859D01*
X0177543Y0045255D01*
X0179077Y0045255D02*
X0182147Y0045255D01*
X0182147Y0049859D01*
X0179077Y0049859D01*
X0177543Y0047557D02*
X0176008Y0047557D01*
X0180612Y0047557D02*
X0182147Y0047557D01*
X0183681Y0047557D02*
X0184449Y0046790D01*
X0186751Y0046790D01*
X0186751Y0045255D02*
X0186751Y0049859D01*
X0184449Y0049859D01*
X0183681Y0049092D01*
X0183681Y0047557D01*
X0185216Y0046790D02*
X0183681Y0045255D01*
X0188285Y0045255D02*
X0188285Y0048324D01*
X0189820Y0049859D01*
X0191355Y0048324D01*
X0191355Y0045255D01*
X0191355Y0047557D02*
X0188285Y0047557D01*
X0188285Y0055255D02*
X0188285Y0058324D01*
X0189820Y0059859D01*
X0191355Y0058324D01*
X0191355Y0055255D01*
X0191355Y0057557D02*
X0188285Y0057557D01*
X0186751Y0056022D02*
X0183681Y0059092D01*
X0183681Y0056022D01*
X0184449Y0055255D01*
X0185983Y0055255D01*
X0186751Y0056022D01*
X0186751Y0059092D01*
X0185983Y0059859D01*
X0184449Y0059859D01*
X0183681Y0059092D01*
X0183681Y0065255D02*
X0186751Y0065255D01*
X0188285Y0065255D02*
X0188285Y0068324D01*
X0189820Y0069859D01*
X0191355Y0068324D01*
X0191355Y0065255D01*
X0191355Y0067557D02*
X0188285Y0067557D01*
X0186751Y0068324D02*
X0185216Y0069859D01*
X0185216Y0065255D01*
X0183681Y0075255D02*
X0186751Y0075255D01*
X0183681Y0078324D01*
X0183681Y0079092D01*
X0184449Y0079859D01*
X0185983Y0079859D01*
X0186751Y0079092D01*
X0188285Y0078324D02*
X0188285Y0075255D01*
X0191355Y0075255D02*
X0191355Y0078324D01*
X0189820Y0079859D01*
X0188285Y0078324D01*
X0188285Y0077557D02*
X0191355Y0077557D01*
X0191355Y0085255D02*
X0191355Y0088324D01*
X0189820Y0089859D01*
X0188285Y0088324D01*
X0188285Y0085255D01*
X0186751Y0086022D02*
X0185983Y0085255D01*
X0184449Y0085255D01*
X0183681Y0086022D01*
X0183681Y0086790D01*
X0184449Y0087557D01*
X0185216Y0087557D01*
X0184449Y0087557D02*
X0183681Y0088324D01*
X0183681Y0089092D01*
X0184449Y0089859D01*
X0185983Y0089859D01*
X0186751Y0089092D01*
X0188285Y0087557D02*
X0191355Y0087557D01*
X0191355Y0095255D02*
X0191355Y0098324D01*
X0189820Y0099859D01*
X0188285Y0098324D01*
X0188285Y0095255D01*
X0188285Y0097557D02*
X0191355Y0097557D01*
X0186751Y0097557D02*
X0183681Y0097557D01*
X0184449Y0095255D02*
X0184449Y0099859D01*
X0186751Y0097557D01*
X0185983Y0105255D02*
X0184449Y0105255D01*
X0183681Y0106022D01*
X0183681Y0107557D01*
X0184449Y0108324D01*
X0185216Y0108324D01*
X0186751Y0107557D01*
X0186751Y0109859D01*
X0183681Y0109859D01*
X0186751Y0106022D02*
X0185983Y0105255D01*
X0188285Y0105255D02*
X0188285Y0108324D01*
X0189820Y0109859D01*
X0191355Y0108324D01*
X0191355Y0105255D01*
X0191355Y0107557D02*
X0188285Y0107557D01*
X0164374Y0116022D02*
X0163607Y0115255D01*
X0162072Y0115255D01*
X0161305Y0116022D01*
X0161305Y0116790D01*
X0162072Y0117557D01*
X0162840Y0117557D01*
X0162072Y0117557D02*
X0161305Y0118324D01*
X0161305Y0119092D01*
X0162072Y0119859D01*
X0163607Y0119859D01*
X0164374Y0119092D01*
X0159770Y0115255D02*
X0156701Y0119859D01*
X0155166Y0119092D02*
X0155166Y0118324D01*
X0154399Y0117557D01*
X0152864Y0117557D01*
X0152097Y0116790D01*
X0152097Y0116022D01*
X0152864Y0115255D01*
X0154399Y0115255D01*
X0155166Y0116022D01*
X0155166Y0119092D02*
X0154399Y0119859D01*
X0152864Y0119859D01*
X0152097Y0119092D01*
X0150563Y0119092D02*
X0150563Y0116022D01*
X0149795Y0115255D01*
X0148261Y0115255D01*
X0147493Y0116022D01*
X0145959Y0115255D02*
X0142889Y0115255D01*
X0145959Y0115255D02*
X0145959Y0119859D01*
X0147493Y0119092D02*
X0148261Y0119859D01*
X0149795Y0119859D01*
X0150563Y0119092D01*
X0150563Y0125255D02*
X0148261Y0125255D01*
X0147493Y0126022D01*
X0147493Y0129092D01*
X0148261Y0129859D01*
X0150563Y0129859D01*
X0150563Y0125255D01*
X0152097Y0126022D02*
X0152864Y0125255D01*
X0154399Y0125255D01*
X0155166Y0126022D01*
X0154399Y0127557D02*
X0152864Y0127557D01*
X0152097Y0126790D01*
X0152097Y0126022D01*
X0154399Y0127557D02*
X0155166Y0128324D01*
X0155166Y0129092D01*
X0154399Y0129859D01*
X0152864Y0129859D01*
X0152097Y0129092D01*
X0156701Y0129859D02*
X0159770Y0125255D01*
X0161305Y0125255D02*
X0164374Y0125255D01*
X0161305Y0128324D01*
X0161305Y0129092D01*
X0162072Y0129859D01*
X0163607Y0129859D01*
X0164374Y0129092D01*
X0155166Y0136022D02*
X0154399Y0135255D01*
X0152864Y0135255D01*
X0152097Y0136022D01*
X0152097Y0137557D01*
X0153632Y0137557D01*
X0155166Y0139092D02*
X0155166Y0136022D01*
X0155166Y0139092D02*
X0154399Y0139859D01*
X0152864Y0139859D01*
X0152097Y0139092D01*
X0150562Y0139859D02*
X0147493Y0135255D01*
X0147493Y0139859D01*
X0145959Y0139859D02*
X0143657Y0139859D01*
X0142889Y0139092D01*
X0142889Y0136022D01*
X0143657Y0135255D01*
X0145959Y0135255D01*
X0145959Y0139859D01*
X0150562Y0139859D02*
X0150562Y0135255D01*
X0144424Y0129859D02*
X0142889Y0128324D01*
X0142889Y0125255D01*
X0142889Y0127557D02*
X0145959Y0127557D01*
X0145959Y0128324D02*
X0144424Y0129859D01*
X0145959Y0128324D02*
X0145959Y0125255D01*
X0149028Y0109859D02*
X0147493Y0108324D01*
X0147493Y0105255D01*
X0145959Y0106022D02*
X0145191Y0105255D01*
X0143657Y0105255D01*
X0142889Y0106022D01*
X0142889Y0106790D01*
X0143657Y0107557D01*
X0145959Y0107557D01*
X0145959Y0106022D01*
X0145959Y0107557D02*
X0144424Y0109092D01*
X0142889Y0109859D01*
X0147493Y0107557D02*
X0150562Y0107557D01*
X0150562Y0108324D02*
X0149028Y0109859D01*
X0150562Y0108324D02*
X0150562Y0105255D01*
X0155166Y0105255D02*
X0152097Y0109859D01*
X0156701Y0107557D02*
X0159770Y0107557D01*
X0157468Y0109859D01*
X0157468Y0105255D01*
X0145959Y0099859D02*
X0145959Y0097557D01*
X0144424Y0098324D01*
X0143657Y0098324D01*
X0142889Y0097557D01*
X0142889Y0096022D01*
X0143657Y0095255D01*
X0145191Y0095255D01*
X0145959Y0096022D01*
X0145959Y0099859D02*
X0142889Y0099859D01*
X0142889Y0089859D02*
X0142889Y0089092D01*
X0145959Y0086022D01*
X0145959Y0085255D01*
X0147493Y0085255D02*
X0147493Y0088324D01*
X0149028Y0089859D01*
X0150562Y0088324D01*
X0150562Y0085255D01*
X0150562Y0087557D02*
X0147493Y0087557D01*
X0145959Y0089859D02*
X0142889Y0089859D01*
X0152097Y0089859D02*
X0155166Y0085255D01*
X0156701Y0086022D02*
X0156701Y0086790D01*
X0157468Y0087557D01*
X0159770Y0087557D01*
X0159770Y0086022D01*
X0159003Y0085255D01*
X0157468Y0085255D01*
X0156701Y0086022D01*
X0159770Y0087557D02*
X0158236Y0089092D01*
X0156701Y0089859D01*
X0145959Y0079859D02*
X0142889Y0079859D01*
X0142889Y0079092D01*
X0145959Y0076022D01*
X0145959Y0075255D01*
X0145191Y0069859D02*
X0143657Y0069859D01*
X0142889Y0069092D01*
X0142889Y0068324D01*
X0143657Y0067557D01*
X0145191Y0067557D01*
X0145959Y0068324D01*
X0145959Y0069092D01*
X0145191Y0069859D01*
X0145191Y0067557D02*
X0145959Y0066790D01*
X0145959Y0066022D01*
X0145191Y0065255D01*
X0143657Y0065255D01*
X0142889Y0066022D01*
X0142889Y0066790D01*
X0143657Y0067557D01*
X0147493Y0067557D02*
X0150562Y0067557D01*
X0150562Y0068324D02*
X0149028Y0069859D01*
X0147493Y0068324D01*
X0147493Y0065255D01*
X0150562Y0065255D02*
X0150562Y0068324D01*
X0152097Y0069859D02*
X0155166Y0065255D01*
X0156701Y0066022D02*
X0157468Y0065255D01*
X0159003Y0065255D01*
X0159770Y0066022D01*
X0159770Y0066790D01*
X0159003Y0067557D01*
X0157468Y0067557D01*
X0156701Y0066790D01*
X0156701Y0066022D01*
X0157468Y0067557D02*
X0156701Y0068324D01*
X0156701Y0069092D01*
X0157468Y0069859D01*
X0159003Y0069859D01*
X0159770Y0069092D01*
X0159770Y0068324D01*
X0159003Y0067557D01*
X0156701Y0049859D02*
X0159770Y0045255D01*
X0155166Y0045255D02*
X0155166Y0048324D01*
X0153632Y0049859D01*
X0152097Y0048324D01*
X0152097Y0045255D01*
X0150563Y0045255D02*
X0147493Y0045255D01*
X0149028Y0045255D02*
X0149028Y0049859D01*
X0150563Y0048324D01*
X0152097Y0047557D02*
X0155166Y0047557D01*
X0149028Y0039859D02*
X0149028Y0035255D01*
X0150562Y0035255D02*
X0147493Y0035255D01*
X0145959Y0035255D02*
X0142889Y0035255D01*
X0144424Y0035255D02*
X0144424Y0039859D01*
X0145959Y0038324D01*
X0149028Y0039859D02*
X0150562Y0038324D01*
X0149028Y0029859D02*
X0149028Y0025255D01*
X0150563Y0025255D02*
X0147493Y0025255D01*
X0145959Y0025255D02*
X0142889Y0025255D01*
X0144424Y0025255D02*
X0144424Y0029859D01*
X0145959Y0028324D01*
X0149028Y0029859D02*
X0150563Y0028324D01*
X0152097Y0028324D02*
X0152097Y0025255D01*
X0152097Y0027557D02*
X0155166Y0027557D01*
X0155166Y0028324D02*
X0153632Y0029859D01*
X0152097Y0028324D01*
X0155166Y0028324D02*
X0155166Y0025255D01*
X0159770Y0025255D02*
X0156701Y0029859D01*
X0161305Y0029092D02*
X0161305Y0028324D01*
X0164374Y0025255D01*
X0161305Y0025255D01*
X0161305Y0029092D02*
X0162072Y0029859D01*
X0163607Y0029859D01*
X0164374Y0029092D01*
X0167444Y0029859D02*
X0167444Y0025255D01*
X0168978Y0025255D02*
X0165909Y0025255D01*
X0168978Y0028324D02*
X0167444Y0029859D01*
X0176776Y0036790D02*
X0176776Y0039859D01*
X0176776Y0036790D02*
X0178310Y0035255D01*
X0179845Y0036790D01*
X0179845Y0039859D01*
X0181379Y0039092D02*
X0181379Y0038324D01*
X0182147Y0037557D01*
X0181379Y0036790D01*
X0181379Y0036022D01*
X0182147Y0035255D01*
X0183681Y0035255D01*
X0184449Y0036022D01*
X0185983Y0036022D02*
X0185983Y0035255D01*
X0186751Y0035255D01*
X0186751Y0036022D01*
X0185983Y0036022D01*
X0188285Y0036022D02*
X0188285Y0036790D01*
X0189053Y0037557D01*
X0189820Y0037557D01*
X0189053Y0037557D02*
X0188285Y0038324D01*
X0188285Y0039092D01*
X0189053Y0039859D01*
X0190587Y0039859D01*
X0191355Y0039092D01*
X0191355Y0036022D02*
X0190587Y0035255D01*
X0189053Y0035255D01*
X0188285Y0036022D01*
X0184449Y0039092D02*
X0183681Y0039859D01*
X0182147Y0039859D01*
X0181379Y0039092D01*
X0182147Y0037557D02*
X0182914Y0037557D01*
X0184449Y0029859D02*
X0183681Y0029092D01*
X0183681Y0028324D01*
X0184449Y0027557D01*
X0183681Y0026790D01*
X0183681Y0026022D01*
X0184449Y0025255D01*
X0185983Y0025255D01*
X0186751Y0026022D01*
X0188285Y0025255D02*
X0191355Y0025255D01*
X0189820Y0025255D02*
X0189820Y0029859D01*
X0191355Y0028324D01*
X0186751Y0029092D02*
X0185983Y0029859D01*
X0184449Y0029859D01*
X0184449Y0027557D02*
X0185216Y0027557D01*
X0145959Y0046022D02*
X0142889Y0049092D01*
X0142889Y0046022D01*
X0143657Y0045255D01*
X0145191Y0045255D01*
X0145959Y0046022D01*
X0145959Y0049092D01*
X0145191Y0049859D01*
X0143657Y0049859D01*
X0142889Y0049092D01*
X0180612Y0135255D02*
X0179077Y0136790D01*
X0179077Y0139859D01*
X0182147Y0139859D02*
X0182147Y0136790D01*
X0180612Y0135255D01*
X0183681Y0136022D02*
X0184449Y0135255D01*
X0185983Y0135255D01*
X0186751Y0136022D01*
X0186751Y0137557D02*
X0185216Y0138324D01*
X0184449Y0138324D01*
X0183681Y0137557D01*
X0183681Y0136022D01*
X0186751Y0137557D02*
X0186751Y0139859D01*
X0183681Y0139859D01*
X0188285Y0137557D02*
X0191355Y0137557D01*
X0189820Y0139092D02*
X0189820Y0136022D01*
X0191355Y0145255D02*
X0191355Y0149859D01*
X0189053Y0149859D01*
X0188285Y0149092D01*
X0188285Y0147557D01*
X0189053Y0146790D01*
X0191355Y0146790D01*
X0189820Y0146790D02*
X0188285Y0145255D01*
X0186751Y0145255D02*
X0183681Y0145255D01*
X0182147Y0146022D02*
X0181379Y0145255D01*
X0179845Y0145255D01*
X0179077Y0146022D01*
X0179077Y0146790D01*
X0179845Y0147557D01*
X0181379Y0147557D01*
X0182147Y0148324D01*
X0182147Y0149092D01*
X0181379Y0149859D01*
X0179845Y0149859D01*
X0179077Y0149092D01*
X0177543Y0149859D02*
X0177543Y0145255D01*
X0174474Y0145255D01*
X0176008Y0147557D02*
X0177543Y0147557D01*
X0177543Y0149859D02*
X0174474Y0149859D01*
X0172939Y0149859D02*
X0169870Y0149859D01*
X0171404Y0149859D02*
X0171404Y0145255D01*
X0164374Y0145255D02*
X0164374Y0149859D01*
X0162072Y0149859D01*
X0161305Y0149092D01*
X0161305Y0147557D01*
X0162072Y0146790D01*
X0164374Y0146790D01*
X0162840Y0146790D02*
X0161305Y0145255D01*
X0159770Y0145255D02*
X0156701Y0145255D01*
X0155166Y0146022D02*
X0154399Y0145255D01*
X0152864Y0145255D01*
X0152097Y0146022D01*
X0152097Y0146790D01*
X0152864Y0147557D01*
X0154399Y0147557D01*
X0155166Y0148324D01*
X0155166Y0149092D01*
X0154399Y0149859D01*
X0152864Y0149859D01*
X0152097Y0149092D01*
X0150563Y0149859D02*
X0150563Y0145255D01*
X0147493Y0145255D01*
X0149028Y0147557D02*
X0150563Y0147557D01*
X0150563Y0149859D02*
X0147493Y0149859D01*
X0145959Y0149859D02*
X0142889Y0149859D01*
X0144424Y0149859D02*
X0144424Y0145255D01*
X0145959Y0155255D02*
X0142889Y0159859D01*
X0145959Y0159859D02*
X0142889Y0155255D01*
X0147493Y0155255D02*
X0149028Y0156790D01*
X0148261Y0156790D02*
X0150562Y0156790D01*
X0150562Y0155255D02*
X0150562Y0159859D01*
X0148261Y0159859D01*
X0147493Y0159092D01*
X0147493Y0157557D01*
X0148261Y0156790D01*
X0152097Y0159859D02*
X0155166Y0155255D01*
X0156701Y0156022D02*
X0157468Y0155255D01*
X0159003Y0155255D01*
X0159770Y0156022D01*
X0156701Y0159092D01*
X0156701Y0156022D01*
X0159770Y0156022D02*
X0159770Y0159092D01*
X0159003Y0159859D01*
X0157468Y0159859D01*
X0156701Y0159092D01*
X0156701Y0165255D02*
X0159770Y0165255D01*
X0158236Y0165255D02*
X0158236Y0169859D01*
X0159770Y0168324D01*
X0155166Y0165255D02*
X0152097Y0169859D01*
X0150562Y0169859D02*
X0147493Y0169859D01*
X0145959Y0169859D02*
X0142889Y0165255D01*
X0145959Y0165255D02*
X0142889Y0169859D01*
X0143657Y0175255D02*
X0145191Y0175255D01*
X0145959Y0176022D01*
X0147493Y0176022D02*
X0148261Y0175255D01*
X0149795Y0175255D01*
X0150562Y0176022D01*
X0149795Y0177557D02*
X0148261Y0177557D01*
X0147493Y0176790D01*
X0147493Y0176022D01*
X0145191Y0177557D02*
X0143657Y0177557D01*
X0142889Y0176790D01*
X0142889Y0176022D01*
X0143657Y0175255D01*
X0145191Y0177557D02*
X0145959Y0178324D01*
X0145959Y0179092D01*
X0145191Y0179859D01*
X0143657Y0179859D01*
X0142889Y0179092D01*
X0147493Y0179092D02*
X0148261Y0179859D01*
X0149795Y0179859D01*
X0150562Y0179092D01*
X0150562Y0178324D01*
X0149795Y0177557D01*
X0148261Y0185255D02*
X0146726Y0185255D01*
X0145959Y0186022D01*
X0145959Y0186790D01*
X0146726Y0187557D01*
X0148261Y0187557D01*
X0149028Y0188324D01*
X0149028Y0189092D01*
X0148261Y0189859D01*
X0146726Y0189859D01*
X0145959Y0189092D01*
X0144424Y0189859D02*
X0142889Y0189859D01*
X0143657Y0189859D02*
X0143657Y0185255D01*
X0144424Y0185255D02*
X0142889Y0185255D01*
X0148261Y0185255D02*
X0149028Y0186022D01*
X0150562Y0186022D02*
X0151330Y0185255D01*
X0152864Y0185255D01*
X0153632Y0186022D01*
X0153632Y0189092D01*
X0152864Y0189859D01*
X0151330Y0189859D01*
X0150562Y0189092D01*
X0150562Y0186022D01*
X0155166Y0185255D02*
X0155166Y0189859D01*
X0156701Y0188324D01*
X0158236Y0189859D01*
X0158236Y0185255D01*
X0149028Y0169859D02*
X0149028Y0165255D01*
X0156701Y0149859D02*
X0159770Y0149859D01*
X0159770Y0145255D01*
X0159770Y0147557D02*
X0158236Y0147557D01*
X0179077Y0156022D02*
X0179077Y0159092D01*
X0179845Y0159859D01*
X0182147Y0159859D01*
X0182147Y0155255D01*
X0179845Y0155255D01*
X0179077Y0156022D01*
X0183681Y0155255D02*
X0183681Y0159859D01*
X0186751Y0159859D02*
X0183681Y0155255D01*
X0186751Y0155255D02*
X0186751Y0159859D01*
X0188285Y0159092D02*
X0189053Y0159859D01*
X0190587Y0159859D01*
X0191355Y0159092D01*
X0191355Y0156022D01*
X0190587Y0155255D01*
X0189053Y0155255D01*
X0188285Y0156022D01*
X0188285Y0157557D01*
X0189820Y0157557D01*
X0189820Y0165255D02*
X0188285Y0166790D01*
X0188285Y0169859D01*
X0186751Y0169859D02*
X0185216Y0169859D01*
X0185983Y0169859D02*
X0185983Y0165255D01*
X0185216Y0165255D02*
X0186751Y0165255D01*
X0183681Y0165255D02*
X0183681Y0169859D01*
X0180612Y0165255D01*
X0180612Y0169859D01*
X0181379Y0175255D02*
X0182914Y0175255D01*
X0183681Y0176022D01*
X0185216Y0175255D02*
X0186751Y0175255D01*
X0185983Y0175255D02*
X0185983Y0179859D01*
X0185216Y0179859D02*
X0186751Y0179859D01*
X0188285Y0179859D02*
X0188285Y0175255D01*
X0191355Y0175255D02*
X0191355Y0179859D01*
X0189820Y0178324D01*
X0188285Y0179859D01*
X0183681Y0179092D02*
X0183681Y0178324D01*
X0182914Y0177557D01*
X0181379Y0177557D01*
X0180612Y0176790D01*
X0180612Y0176022D01*
X0181379Y0175255D01*
X0179077Y0176022D02*
X0179077Y0179092D01*
X0178310Y0179859D01*
X0176776Y0179859D01*
X0176008Y0179092D01*
X0176008Y0176022D01*
X0176776Y0175255D01*
X0178310Y0175255D01*
X0179077Y0176022D01*
X0180612Y0179092D02*
X0181379Y0179859D01*
X0182914Y0179859D01*
X0183681Y0179092D01*
X0184449Y0185255D02*
X0183681Y0186022D01*
X0184449Y0185255D02*
X0185983Y0185255D01*
X0186751Y0186022D01*
X0186751Y0189092D01*
X0185983Y0189859D01*
X0184449Y0189859D01*
X0183681Y0189092D01*
X0182147Y0189859D02*
X0182147Y0185255D01*
X0182147Y0186790D02*
X0179077Y0189859D01*
X0181379Y0187557D02*
X0179077Y0185255D01*
X0188285Y0186022D02*
X0189053Y0185255D01*
X0190587Y0185255D01*
X0191355Y0186022D01*
X0190587Y0187557D02*
X0189053Y0187557D01*
X0188285Y0186790D01*
X0188285Y0186022D01*
X0190587Y0187557D02*
X0191355Y0188324D01*
X0191355Y0189092D01*
X0190587Y0189859D01*
X0189053Y0189859D01*
X0188285Y0189092D01*
X0191355Y0169859D02*
X0191355Y0166790D01*
X0189820Y0165255D01*
X0186751Y0149859D02*
X0183681Y0149859D01*
X0185216Y0147557D02*
X0186751Y0147557D01*
X0186751Y0149859D02*
X0186751Y0145255D01*
D11*
X0098060Y0175738D02*
X0098060Y0178540D01*
X0097126Y0177606D01*
X0096191Y0178540D01*
X0096191Y0175738D01*
X0095297Y0175738D02*
X0094363Y0175738D01*
X0094830Y0175738D02*
X0094830Y0178540D01*
X0095297Y0178540D02*
X0094363Y0178540D01*
X0093456Y0178073D02*
X0093456Y0177606D01*
X0092989Y0177139D01*
X0092055Y0177139D01*
X0091587Y0176672D01*
X0091587Y0176205D01*
X0092055Y0175738D01*
X0092989Y0175738D01*
X0093456Y0176205D01*
X0093456Y0178073D02*
X0092989Y0178540D01*
X0092055Y0178540D01*
X0091587Y0178073D01*
X0090693Y0178073D02*
X0090693Y0176205D01*
X0090226Y0175738D01*
X0089292Y0175738D01*
X0088825Y0176205D01*
X0088825Y0178073D01*
X0089292Y0178540D01*
X0090226Y0178540D01*
X0090693Y0178073D01*
X0082797Y0178540D02*
X0081863Y0178540D01*
X0082330Y0178540D02*
X0082330Y0175738D01*
X0082797Y0175738D02*
X0081863Y0175738D01*
X0080956Y0175738D02*
X0080956Y0178540D01*
X0079555Y0178540D01*
X0079087Y0178073D01*
X0079087Y0177139D01*
X0079555Y0176672D01*
X0080956Y0176672D01*
X0080022Y0176672D02*
X0079087Y0175738D01*
X0078193Y0176205D02*
X0078193Y0178073D01*
X0077726Y0178540D01*
X0076792Y0178540D01*
X0076325Y0178073D01*
X0076325Y0176205D01*
X0076792Y0175738D01*
X0077726Y0175738D01*
X0078193Y0176205D01*
X0077259Y0176672D02*
X0076325Y0175738D01*
X0076338Y0168540D02*
X0077273Y0168540D01*
X0076806Y0168540D02*
X0076806Y0165738D01*
X0077273Y0165738D02*
X0076338Y0165738D01*
X0078167Y0166205D02*
X0078634Y0165738D01*
X0079568Y0165738D01*
X0080035Y0166205D01*
X0080929Y0166205D02*
X0080929Y0168073D01*
X0081396Y0168540D01*
X0082330Y0168540D01*
X0082797Y0168073D01*
X0082797Y0166205D01*
X0082330Y0165738D01*
X0081396Y0165738D01*
X0080929Y0166205D01*
X0079568Y0167139D02*
X0078634Y0167139D01*
X0078167Y0166672D01*
X0078167Y0166205D01*
X0079568Y0167139D02*
X0080035Y0167606D01*
X0080035Y0168073D01*
X0079568Y0168540D01*
X0078634Y0168540D01*
X0078167Y0168073D01*
X0083691Y0168540D02*
X0083691Y0165738D01*
X0085560Y0165738D02*
X0085560Y0168540D01*
X0084626Y0167606D01*
X0083691Y0168540D01*
X0088825Y0168540D02*
X0090693Y0166672D01*
X0090226Y0167139D02*
X0088825Y0165738D01*
X0090693Y0165738D02*
X0090693Y0168540D01*
X0091587Y0168073D02*
X0092055Y0168540D01*
X0092989Y0168540D01*
X0093456Y0168073D01*
X0093456Y0166205D01*
X0092989Y0165738D01*
X0092055Y0165738D01*
X0091587Y0166205D01*
X0094350Y0166205D02*
X0094817Y0165738D01*
X0095751Y0165738D01*
X0096218Y0166205D01*
X0095751Y0167139D02*
X0094817Y0167139D01*
X0094350Y0166672D01*
X0094350Y0166205D01*
X0095751Y0167139D02*
X0096218Y0167606D01*
X0096218Y0168073D01*
X0095751Y0168540D01*
X0094817Y0168540D01*
X0094350Y0168073D01*
X0092989Y0158540D02*
X0092055Y0158540D01*
X0091587Y0158073D01*
X0090693Y0158540D02*
X0090693Y0155738D01*
X0088825Y0155738D01*
X0089759Y0157139D02*
X0090693Y0157139D01*
X0091587Y0156205D02*
X0092055Y0155738D01*
X0092989Y0155738D01*
X0093456Y0156205D01*
X0093456Y0158073D01*
X0092989Y0158540D01*
X0090693Y0158540D02*
X0088825Y0158540D01*
X0083718Y0158073D02*
X0083718Y0156205D01*
X0083251Y0155738D01*
X0082317Y0155738D01*
X0081850Y0156205D01*
X0080956Y0156205D02*
X0080489Y0155738D01*
X0079555Y0155738D01*
X0079087Y0156205D01*
X0079087Y0156672D01*
X0079555Y0157139D01*
X0080489Y0157139D01*
X0080956Y0157606D01*
X0080956Y0158073D01*
X0080489Y0158540D01*
X0079555Y0158540D01*
X0079087Y0158073D01*
X0078193Y0158540D02*
X0076325Y0155738D01*
X0076325Y0158540D01*
X0078193Y0158540D02*
X0078193Y0155738D01*
X0081850Y0158073D02*
X0082317Y0158540D01*
X0083251Y0158540D01*
X0083718Y0158073D01*
X0083718Y0148540D02*
X0083718Y0146672D01*
X0082784Y0145738D01*
X0081850Y0146672D01*
X0081850Y0148540D01*
X0080956Y0148073D02*
X0080956Y0146205D01*
X0080489Y0145738D01*
X0079555Y0145738D01*
X0079087Y0146205D01*
X0078193Y0146205D02*
X0078193Y0148073D01*
X0077726Y0148540D01*
X0076792Y0148540D01*
X0076325Y0148073D01*
X0076325Y0146205D02*
X0076792Y0145738D01*
X0077726Y0145738D01*
X0078193Y0146205D01*
X0079087Y0148073D02*
X0079555Y0148540D01*
X0080489Y0148540D01*
X0080956Y0148073D01*
X0088825Y0148073D02*
X0088825Y0146205D01*
X0089292Y0145738D01*
X0090693Y0145738D01*
X0090693Y0148540D01*
X0089292Y0148540D01*
X0088825Y0148073D01*
X0091587Y0148540D02*
X0091587Y0145738D01*
X0093456Y0148540D01*
X0093456Y0145738D01*
X0094350Y0146205D02*
X0094350Y0147139D01*
X0095284Y0147139D01*
X0096218Y0148073D02*
X0096218Y0146205D01*
X0095751Y0145738D01*
X0094817Y0145738D01*
X0094350Y0146205D01*
X0094350Y0148073D02*
X0094817Y0148540D01*
X0095751Y0148540D01*
X0096218Y0148073D01*
M02*
