G75*
%MOIN*%
%OFA0B0*%
%FSLAX25Y25*%
%IPPOS*%
%LPD*%
%AMOC8*
5,1,8,0,0,1.08239X$1,22.5*
%
%ADD10R,0.52559X0.00035*%
%ADD11R,0.53155X0.00035*%
%ADD12R,0.53576X0.00035*%
%ADD13R,0.53961X0.00035*%
%ADD14R,0.54276X0.00035*%
%ADD15R,0.54556X0.00035*%
%ADD16R,0.54837X0.00035*%
%ADD17R,0.55081X0.00035*%
%ADD18R,0.55293X0.00035*%
%ADD19R,0.55502X0.00035*%
%ADD20R,0.55678X0.00035*%
%ADD21R,0.55887X0.00035*%
%ADD22R,0.56063X0.00035*%
%ADD23R,0.56204X0.00035*%
%ADD24R,0.56378X0.00035*%
%ADD25R,0.56554X0.00035*%
%ADD26R,0.56694X0.00035*%
%ADD27R,0.56833X0.00035*%
%ADD28R,0.56974X0.00035*%
%ADD29R,0.57115X0.00035*%
%ADD30R,0.57254X0.00035*%
%ADD31R,0.57360X0.00035*%
%ADD32R,0.57465X0.00035*%
%ADD33R,0.57605X0.00035*%
%ADD34R,0.57710X0.00035*%
%ADD35R,0.57815X0.00035*%
%ADD36R,0.57955X0.00035*%
%ADD37R,0.58025X0.00035*%
%ADD38R,0.58165X0.00035*%
%ADD39R,0.58235X0.00035*%
%ADD40R,0.58376X0.00035*%
%ADD41R,0.58446X0.00035*%
%ADD42R,0.58516X0.00035*%
%ADD43R,0.58656X0.00035*%
%ADD44R,0.58726X0.00035*%
%ADD45R,0.58796X0.00035*%
%ADD46R,0.58867X0.00035*%
%ADD47R,0.58971X0.00035*%
%ADD48R,0.03714X0.00035*%
%ADD49R,0.03679X0.00035*%
%ADD50R,0.03329X0.00035*%
%ADD51R,0.03294X0.00035*%
%ADD52R,0.03083X0.00035*%
%ADD53R,0.03083X0.00035*%
%ADD54R,0.02944X0.00035*%
%ADD55R,0.02839X0.00035*%
%ADD56R,0.02803X0.00035*%
%ADD57R,0.02733X0.00035*%
%ADD58R,0.02698X0.00035*%
%ADD59R,0.02628X0.00035*%
%ADD60R,0.02557X0.00035*%
%ADD61R,0.02558X0.00035*%
%ADD62R,0.02488X0.00035*%
%ADD63R,0.02418X0.00035*%
%ADD64R,0.02383X0.00035*%
%ADD65R,0.02348X0.00035*%
%ADD66R,0.02312X0.00035*%
%ADD67R,0.02278X0.00035*%
%ADD68R,0.02277X0.00035*%
%ADD69R,0.02243X0.00035*%
%ADD70R,0.02243X0.00035*%
%ADD71R,0.02207X0.00035*%
%ADD72R,0.02208X0.00035*%
%ADD73R,0.02173X0.00035*%
%ADD74R,0.02172X0.00035*%
%ADD75R,0.02137X0.00035*%
%ADD76R,0.02137X0.00035*%
%ADD77R,0.02102X0.00035*%
%ADD78R,0.02067X0.00035*%
%ADD79R,0.02102X0.00035*%
%ADD80R,0.02033X0.00035*%
%ADD81R,0.02032X0.00035*%
%ADD82R,0.02032X0.00035*%
%ADD83R,0.01997X0.00035*%
%ADD84R,0.01998X0.00035*%
%ADD85R,0.01927X0.00035*%
%ADD86R,0.01928X0.00035*%
%ADD87R,0.01892X0.00035*%
%ADD88R,0.01892X0.00035*%
%ADD89R,0.01857X0.00035*%
%ADD90R,0.01857X0.00035*%
%ADD91R,0.01822X0.00035*%
%ADD92R,0.01787X0.00035*%
%ADD93R,0.01787X0.00035*%
%ADD94R,0.01787X0.00035*%
%ADD95R,0.01752X0.00035*%
%ADD96R,0.01752X0.00035*%
%ADD97R,0.01752X0.00035*%
%ADD98R,0.01717X0.00035*%
%ADD99R,0.01717X0.00035*%
%ADD100R,0.01717X0.00035*%
%ADD101R,0.01681X0.00035*%
%ADD102R,0.01682X0.00035*%
%ADD103R,0.01682X0.00035*%
%ADD104R,0.01647X0.00035*%
%ADD105R,0.01647X0.00035*%
%ADD106R,0.01612X0.00035*%
%ADD107R,0.01611X0.00035*%
%ADD108R,0.01646X0.00035*%
%ADD109R,0.01612X0.00035*%
%ADD110R,0.01577X0.00035*%
%ADD111R,0.01576X0.00035*%
%ADD112R,0.01577X0.00035*%
%ADD113R,0.01542X0.00035*%
%ADD114R,0.01542X0.00035*%
%ADD115R,0.01227X0.00035*%
%ADD116R,0.01366X0.00035*%
%ADD117R,0.01296X0.00035*%
%ADD118R,0.00525X0.00035*%
%ADD119R,0.01226X0.00035*%
%ADD120R,0.00070X0.00035*%
%ADD121R,0.01261X0.00035*%
%ADD122R,0.01367X0.00035*%
%ADD123R,0.01226X0.00035*%
%ADD124R,0.00526X0.00035*%
%ADD125R,0.00350X0.00035*%
%ADD126R,0.00385X0.00035*%
%ADD127R,0.00526X0.00035*%
%ADD128R,0.01541X0.00035*%
%ADD129R,0.01332X0.00035*%
%ADD130R,0.01331X0.00035*%
%ADD131R,0.00981X0.00035*%
%ADD132R,0.01051X0.00035*%
%ADD133R,0.00841X0.00035*%
%ADD134R,0.01017X0.00035*%
%ADD135R,0.00841X0.00035*%
%ADD136R,0.01297X0.00035*%
%ADD137R,0.01402X0.00035*%
%ADD138R,0.01156X0.00035*%
%ADD139R,0.01157X0.00035*%
%ADD140R,0.01506X0.00035*%
%ADD141R,0.01507X0.00035*%
%ADD142R,0.01822X0.00035*%
%ADD143R,0.01822X0.00035*%
%ADD144R,0.01857X0.00035*%
%ADD145R,0.01331X0.00035*%
%ADD146R,0.01962X0.00035*%
%ADD147R,0.01927X0.00035*%
%ADD148R,0.02067X0.00035*%
%ADD149R,0.02313X0.00035*%
%ADD150R,0.02103X0.00035*%
%ADD151R,0.01471X0.00035*%
%ADD152R,0.01296X0.00035*%
%ADD153R,0.02417X0.00035*%
%ADD154R,0.02453X0.00035*%
%ADD155R,0.02558X0.00035*%
%ADD156R,0.02242X0.00035*%
%ADD157R,0.02313X0.00035*%
%ADD158R,0.02628X0.00035*%
%ADD159R,0.02383X0.00035*%
%ADD160R,0.01121X0.00035*%
%ADD161R,0.02418X0.00035*%
%ADD162R,0.01472X0.00035*%
%ADD163R,0.01472X0.00035*%
%ADD164R,0.01191X0.00035*%
%ADD165R,0.02698X0.00035*%
%ADD166R,0.02768X0.00035*%
%ADD167R,0.02488X0.00035*%
%ADD168R,0.01051X0.00035*%
%ADD169R,0.01507X0.00035*%
%ADD170R,0.01086X0.00035*%
%ADD171R,0.02838X0.00035*%
%ADD172R,0.00946X0.00035*%
%ADD173R,0.01086X0.00035*%
%ADD174R,0.01052X0.00035*%
%ADD175R,0.02873X0.00035*%
%ADD176R,0.02908X0.00035*%
%ADD177R,0.01016X0.00035*%
%ADD178R,0.00946X0.00035*%
%ADD179R,0.01122X0.00035*%
%ADD180R,0.01087X0.00035*%
%ADD181R,0.01016X0.00035*%
%ADD182R,0.02943X0.00035*%
%ADD183R,0.03013X0.00035*%
%ADD184R,0.00981X0.00035*%
%ADD185R,0.00911X0.00035*%
%ADD186R,0.01121X0.00035*%
%ADD187R,0.00911X0.00035*%
%ADD188R,0.01437X0.00035*%
%ADD189R,0.01437X0.00035*%
%ADD190R,0.00911X0.00035*%
%ADD191R,0.01436X0.00035*%
%ADD192R,0.01262X0.00035*%
%ADD193R,0.00981X0.00035*%
%ADD194R,0.01402X0.00035*%
%ADD195R,0.01261X0.00035*%
%ADD196R,0.02593X0.00035*%
%ADD197R,0.01156X0.00035*%
%ADD198R,0.01401X0.00035*%
%ADD199R,0.02207X0.00035*%
%ADD200R,0.00771X0.00035*%
%ADD201R,0.01367X0.00035*%
%ADD202R,0.01893X0.00035*%
%ADD203R,0.03223X0.00035*%
%ADD204R,0.03259X0.00035*%
%ADD205R,0.03224X0.00035*%
%ADD206R,0.02172X0.00035*%
%ADD207R,0.03189X0.00035*%
%ADD208R,0.02522X0.00035*%
%ADD209R,0.03188X0.00035*%
%ADD210R,0.03154X0.00035*%
%ADD211R,0.02593X0.00035*%
%ADD212R,0.02278X0.00035*%
%ADD213R,0.02663X0.00035*%
%ADD214R,0.02698X0.00035*%
%ADD215R,0.03119X0.00035*%
%ADD216R,0.02733X0.00035*%
%ADD217R,0.03118X0.00035*%
%ADD218R,0.02768X0.00035*%
%ADD219R,0.02663X0.00035*%
%ADD220R,0.02138X0.00035*%
%ADD221R,0.02769X0.00035*%
%ADD222R,0.02804X0.00035*%
%ADD223R,0.02838X0.00035*%
%ADD224R,0.02909X0.00035*%
%ADD225R,0.02348X0.00035*%
%ADD226R,0.02453X0.00035*%
%ADD227R,0.02803X0.00035*%
%ADD228R,0.00946X0.00035*%
%ADD229R,0.03574X0.00035*%
%ADD230R,0.03574X0.00035*%
%ADD231R,0.03539X0.00035*%
%ADD232R,0.02978X0.00035*%
%ADD233R,0.03504X0.00035*%
%ADD234R,0.03504X0.00035*%
%ADD235R,0.02452X0.00035*%
%ADD236R,0.01997X0.00035*%
%ADD237R,0.02347X0.00035*%
%ADD238R,0.01963X0.00035*%
%ADD239R,0.00841X0.00035*%
%ADD240R,0.01191X0.00035*%
%ADD241R,0.00455X0.00035*%
%ADD242R,0.00806X0.00035*%
%ADD243R,0.00490X0.00035*%
%ADD244R,0.00596X0.00035*%
%ADD245R,0.00561X0.00035*%
%ADD246R,0.00596X0.00035*%
%ADD247R,0.01192X0.00035*%
%ADD248R,0.02979X0.00035*%
%ADD249R,0.02873X0.00035*%
%ADD250R,0.02733X0.00035*%
%ADD251R,0.02068X0.00035*%
%ADD252R,0.00735X0.00035*%
%ADD253R,0.00140X0.00035*%
%ADD254R,0.01962X0.00035*%
%ADD255R,0.02487X0.00035*%
%ADD256R,0.02628X0.00035*%
%ADD257R,0.02908X0.00035*%
%ADD258R,0.03049X0.00035*%
%ADD259R,0.03048X0.00035*%
%ADD260R,0.03189X0.00035*%
%ADD261R,0.03399X0.00035*%
%ADD262R,0.03433X0.00035*%
%ADD263R,0.59006X0.00035*%
%ADD264R,0.58936X0.00035*%
%ADD265R,0.58586X0.00035*%
%ADD266R,0.58306X0.00035*%
%ADD267R,0.58095X0.00035*%
%ADD268R,0.57885X0.00035*%
%ADD269R,0.57675X0.00035*%
%ADD270R,0.57535X0.00035*%
%ADD271R,0.57324X0.00035*%
%ADD272R,0.57184X0.00035*%
%ADD273R,0.57044X0.00035*%
%ADD274R,0.56904X0.00035*%
%ADD275R,0.56763X0.00035*%
%ADD276R,0.56624X0.00035*%
%ADD277R,0.56483X0.00035*%
%ADD278R,0.56343X0.00035*%
%ADD279R,0.55993X0.00035*%
%ADD280R,0.55852X0.00035*%
%ADD281R,0.55643X0.00035*%
%ADD282R,0.55432X0.00035*%
%ADD283R,0.55222X0.00035*%
%ADD284R,0.55012X0.00035*%
%ADD285R,0.54802X0.00035*%
%ADD286R,0.54522X0.00035*%
%ADD287R,0.54241X0.00035*%
%ADD288R,0.53890X0.00035*%
%ADD289R,0.53505X0.00035*%
%ADD290R,0.53050X0.00035*%
%ADD291R,0.52384X0.00035*%
%ADD292R,0.03153X0.00035*%
%ADD293R,0.03259X0.00035*%
%ADD294R,0.03329X0.00035*%
%ADD295R,0.03469X0.00035*%
%ADD296R,0.03644X0.00035*%
%ADD297R,0.03644X0.00035*%
%ADD298R,0.03854X0.00035*%
%ADD299R,0.03855X0.00035*%
%ADD300R,0.04205X0.00035*%
%ADD301R,0.04520X0.00035*%
%ADD302R,0.04520X0.00035*%
%ADD303R,0.04485X0.00035*%
%ADD304R,0.04485X0.00035*%
%ADD305R,0.04415X0.00035*%
%ADD306R,0.04415X0.00035*%
%ADD307R,0.04345X0.00035*%
%ADD308R,0.04310X0.00035*%
%ADD309R,0.04309X0.00035*%
%ADD310R,0.04240X0.00035*%
%ADD311R,0.04239X0.00035*%
%ADD312R,0.04170X0.00035*%
%ADD313R,0.04170X0.00035*%
%ADD314R,0.04135X0.00035*%
%ADD315R,0.04135X0.00035*%
%ADD316R,0.04065X0.00035*%
%ADD317R,0.04064X0.00035*%
%ADD318R,0.03995X0.00035*%
%ADD319R,0.03994X0.00035*%
%ADD320R,0.03924X0.00035*%
%ADD321R,0.03854X0.00035*%
%ADD322R,0.03820X0.00035*%
%ADD323R,0.03819X0.00035*%
%ADD324R,0.03749X0.00035*%
%ADD325R,0.03609X0.00035*%
%ADD326R,0.03609X0.00035*%
%ADD327R,0.03434X0.00035*%
%ADD328R,0.03364X0.00035*%
%ADD329R,0.03363X0.00035*%
%ADD330R,0.03294X0.00035*%
%ADD331R,0.03224X0.00035*%
%ADD332R,0.03119X0.00035*%
%ADD333R,0.02943X0.00035*%
%ADD334R,0.00876X0.00035*%
%ADD335R,0.00385X0.00035*%
%ADD336R,0.02523X0.00035*%
%ADD337R,0.02523X0.00035*%
%ADD338R,0.02663X0.00035*%
%ADD339R,0.02874X0.00035*%
%ADD340R,0.02978X0.00035*%
%ADD341R,0.03013X0.00035*%
%ADD342R,0.03084X0.00035*%
%ADD343R,0.03328X0.00035*%
%ADD344R,0.03434X0.00035*%
%ADD345R,0.03539X0.00035*%
%ADD346R,0.03539X0.00035*%
%ADD347R,0.03715X0.00035*%
%ADD348R,0.04625X0.00035*%
%ADD349R,0.04626X0.00035*%
%ADD350R,0.05326X0.00035*%
%ADD351R,0.05326X0.00035*%
%ADD352R,0.05326X0.00035*%
%ADD353R,0.05256X0.00035*%
%ADD354R,0.05256X0.00035*%
%ADD355R,0.05186X0.00035*%
%ADD356R,0.05185X0.00035*%
%ADD357R,0.05116X0.00035*%
%ADD358R,0.05115X0.00035*%
%ADD359R,0.05046X0.00035*%
%ADD360R,0.04976X0.00035*%
%ADD361R,0.04976X0.00035*%
%ADD362R,0.04906X0.00035*%
%ADD363R,0.04905X0.00035*%
%ADD364R,0.04836X0.00035*%
%ADD365R,0.04835X0.00035*%
%ADD366R,0.04765X0.00035*%
%ADD367R,0.04695X0.00035*%
%ADD368R,0.04695X0.00035*%
%ADD369R,0.04450X0.00035*%
%ADD370R,0.04450X0.00035*%
%ADD371R,0.04380X0.00035*%
%ADD372R,0.04380X0.00035*%
%ADD373R,0.04275X0.00035*%
%ADD374R,0.04274X0.00035*%
%ADD375R,0.04205X0.00035*%
%ADD376R,0.04204X0.00035*%
%ADD377R,0.04100X0.00035*%
%ADD378R,0.04099X0.00035*%
%ADD379R,0.04030X0.00035*%
%ADD380R,0.04029X0.00035*%
%ADD381R,0.03644X0.00035*%
%ADD382C,0.00300*%
%ADD383C,0.00400*%
%ADD384C,0.00600*%
%ADD385R,0.02000X0.02000*%
%ADD386C,0.00500*%
%ADD387C,0.00200*%
%ADD388R,0.01969X0.07874*%
D10*
X0091995Y0108776D03*
D11*
X0092012Y0108811D03*
D12*
X0092012Y0108846D03*
D13*
X0091995Y0108881D03*
D14*
X0092012Y0108916D03*
D15*
X0092012Y0108951D03*
D16*
X0092012Y0108986D03*
D17*
X0091995Y0109021D03*
D18*
X0091995Y0109056D03*
D19*
X0091995Y0109091D03*
D20*
X0092012Y0109126D03*
D21*
X0092012Y0109161D03*
D22*
X0091995Y0109196D03*
D23*
X0091995Y0109231D03*
X0091995Y0119112D03*
D24*
X0092012Y0109266D03*
D25*
X0091995Y0109301D03*
D26*
X0091995Y0109336D03*
D27*
X0091995Y0109371D03*
D28*
X0091995Y0109406D03*
D29*
X0091995Y0109441D03*
D30*
X0091995Y0109476D03*
D31*
X0092012Y0109511D03*
D32*
X0091995Y0109546D03*
X0091995Y0118797D03*
D33*
X0091995Y0109581D03*
D34*
X0092012Y0109617D03*
D35*
X0091995Y0109652D03*
X0091995Y0118692D03*
D36*
X0091995Y0109687D03*
D37*
X0091995Y0109722D03*
X0091995Y0118622D03*
D38*
X0091995Y0109757D03*
D39*
X0091995Y0109792D03*
X0091995Y0118552D03*
D40*
X0091995Y0118481D03*
X0091995Y0109827D03*
D41*
X0091995Y0109862D03*
D42*
X0091995Y0109897D03*
X0091995Y0118446D03*
D43*
X0091995Y0118376D03*
X0091995Y0109932D03*
D44*
X0091995Y0109967D03*
D45*
X0091995Y0110002D03*
X0091995Y0118341D03*
D46*
X0091995Y0118306D03*
X0091995Y0110037D03*
D47*
X0092012Y0110072D03*
D48*
X0064314Y0110107D03*
X0121989Y0124018D03*
D49*
X0119939Y0121740D03*
X0119693Y0110107D03*
X0064051Y0121740D03*
D50*
X0064086Y0110142D03*
X0121200Y0121074D03*
X0122497Y0123843D03*
D51*
X0119921Y0110142D03*
X0064244Y0121915D03*
X0064244Y0125104D03*
D52*
X0062492Y0120969D03*
X0063928Y0110177D03*
X0098057Y0115643D03*
X0117609Y0113996D03*
D53*
X0120062Y0110177D03*
X0121498Y0120969D03*
X0119641Y0125174D03*
X0075807Y0113996D03*
X0061160Y0123702D03*
D54*
X0064419Y0125209D03*
X0064419Y0122056D03*
X0063823Y0110212D03*
X0120167Y0110212D03*
D55*
X0080835Y0114067D03*
X0080730Y0114172D03*
X0080625Y0114277D03*
X0064472Y0122091D03*
X0063736Y0110247D03*
D56*
X0062177Y0120829D03*
X0060740Y0123492D03*
X0080748Y0115748D03*
X0080607Y0114312D03*
X0080853Y0114031D03*
X0080887Y0113996D03*
X0080748Y0112490D03*
X0098057Y0115783D03*
X0120307Y0118061D03*
X0121813Y0120829D03*
X0123250Y0123492D03*
X0123320Y0123457D03*
X0119501Y0125244D03*
X0120272Y0110247D03*
D57*
X0098057Y0115819D03*
X0066136Y0115924D03*
X0063648Y0110282D03*
X0060600Y0123422D03*
D58*
X0062054Y0120759D03*
X0120394Y0118026D03*
X0120359Y0110282D03*
D59*
X0120429Y0110317D03*
X0123618Y0123282D03*
X0098109Y0112420D03*
X0093449Y0114662D03*
X0093449Y0114697D03*
X0093449Y0114732D03*
X0093449Y0114767D03*
X0093449Y0114802D03*
X0093449Y0114837D03*
X0093449Y0114872D03*
X0093449Y0114907D03*
X0093449Y0114943D03*
X0093449Y0114978D03*
X0093449Y0115013D03*
X0093449Y0115048D03*
X0093449Y0115083D03*
X0093449Y0115118D03*
X0066083Y0115994D03*
X0063560Y0110317D03*
X0061914Y0120689D03*
X0064577Y0122161D03*
D60*
X0061809Y0120619D03*
X0063490Y0110352D03*
X0112651Y0114662D03*
X0119378Y0122196D03*
X0122181Y0120619D03*
D61*
X0123758Y0123212D03*
X0120535Y0117956D03*
X0120500Y0110352D03*
X0098109Y0112385D03*
X0071970Y0112980D03*
X0063455Y0117956D03*
X0060232Y0123212D03*
D62*
X0060022Y0123072D03*
X0061738Y0120584D03*
X0063420Y0110387D03*
X0120570Y0110387D03*
X0120605Y0117921D03*
D63*
X0119308Y0122231D03*
X0124074Y0123002D03*
X0120640Y0110422D03*
X0064682Y0122231D03*
X0061563Y0120479D03*
X0059846Y0122967D03*
X0063315Y0117886D03*
X0063350Y0110422D03*
D64*
X0063298Y0110457D03*
X0065961Y0113891D03*
X0071987Y0113085D03*
X0080748Y0115924D03*
X0081238Y0113681D03*
X0061511Y0120444D03*
X0059794Y0122931D03*
X0120727Y0117851D03*
X0122479Y0120444D03*
X0124231Y0122896D03*
X0124196Y0122931D03*
X0120692Y0110457D03*
D65*
X0102069Y0114732D03*
X0098074Y0115959D03*
X0064717Y0125349D03*
X0061458Y0120409D03*
X0063245Y0110493D03*
D66*
X0071987Y0113120D03*
X0071987Y0114137D03*
X0061406Y0120374D03*
X0059654Y0122826D03*
X0098127Y0112315D03*
X0119256Y0122266D03*
X0120762Y0110493D03*
D67*
X0112651Y0112385D03*
X0109322Y0112385D03*
X0102069Y0112385D03*
X0081291Y0113646D03*
X0080169Y0114697D03*
X0071970Y0113156D03*
X0063175Y0110528D03*
X0063140Y0117781D03*
X0061318Y0120304D03*
X0059461Y0122686D03*
X0059496Y0122721D03*
X0124529Y0122686D03*
D68*
X0124494Y0122721D03*
X0120815Y0110528D03*
D69*
X0112633Y0114767D03*
X0109270Y0113611D03*
X0080747Y0115959D03*
X0075842Y0112385D03*
X0063122Y0110563D03*
X0063088Y0117746D03*
X0059409Y0122651D03*
D70*
X0061265Y0120269D03*
X0071987Y0114102D03*
X0109304Y0114767D03*
X0120867Y0110563D03*
X0124617Y0122616D03*
X0124582Y0122651D03*
D71*
X0124669Y0122581D03*
X0124704Y0122546D03*
X0109357Y0113541D03*
X0102069Y0112350D03*
X0098074Y0115994D03*
X0063070Y0110598D03*
X0061213Y0120233D03*
D72*
X0061178Y0120198D03*
X0059321Y0122581D03*
X0065873Y0116169D03*
X0098144Y0112280D03*
X0109182Y0113681D03*
X0120920Y0110598D03*
X0120885Y0117746D03*
D73*
X0109410Y0113506D03*
X0063017Y0110633D03*
X0061125Y0120163D03*
D74*
X0059233Y0122511D03*
X0064805Y0122301D03*
X0064805Y0125384D03*
X0075842Y0114697D03*
X0075842Y0112350D03*
X0071987Y0113226D03*
X0080782Y0112280D03*
X0081343Y0113611D03*
X0106396Y0114662D03*
X0109305Y0114802D03*
X0109445Y0113471D03*
X0109340Y0112350D03*
X0112633Y0112350D03*
X0117609Y0114697D03*
X0120938Y0117711D03*
X0120973Y0117676D03*
X0122900Y0120128D03*
X0122865Y0120163D03*
X0124792Y0122476D03*
X0124757Y0122511D03*
X0119186Y0122301D03*
X0119186Y0125384D03*
X0120973Y0110633D03*
D75*
X0121025Y0110668D03*
X0117626Y0112350D03*
X0121025Y0117641D03*
X0122987Y0120058D03*
X0124880Y0122406D03*
X0124845Y0122441D03*
X0109497Y0113436D03*
X0102069Y0114802D03*
X0085495Y0114662D03*
X0062965Y0117641D03*
X0061037Y0120093D03*
X0059111Y0122406D03*
X0062965Y0110668D03*
D76*
X0062930Y0110703D03*
X0061003Y0120058D03*
X0059146Y0122441D03*
X0112651Y0114802D03*
D77*
X0121077Y0117606D03*
X0124967Y0122336D03*
X0121077Y0110703D03*
X0080747Y0115994D03*
X0075842Y0114732D03*
X0071988Y0113261D03*
X0065820Y0113821D03*
X0062912Y0117606D03*
X0060950Y0120023D03*
X0058988Y0122301D03*
X0059023Y0122336D03*
D78*
X0058935Y0122266D03*
X0060862Y0119953D03*
X0060792Y0119883D03*
X0062895Y0110738D03*
X0109077Y0113751D03*
X0112651Y0112315D03*
X0117626Y0112315D03*
X0117626Y0114732D03*
X0121130Y0117570D03*
X0121165Y0117535D03*
X0125055Y0122266D03*
X0119133Y0122336D03*
D79*
X0123040Y0120023D03*
X0123075Y0119988D03*
X0125002Y0122301D03*
X0121113Y0110738D03*
D80*
X0081413Y0113576D03*
X0071987Y0113296D03*
X0071987Y0113961D03*
X0062842Y0110773D03*
X0058743Y0122091D03*
X0058813Y0122161D03*
D81*
X0058708Y0122056D03*
X0060705Y0119813D03*
X0080782Y0112244D03*
X0085513Y0114732D03*
X0109024Y0113786D03*
X0121148Y0110773D03*
X0123285Y0119813D03*
X0123250Y0119848D03*
X0125247Y0122091D03*
X0125212Y0122126D03*
D82*
X0125177Y0122161D03*
X0125282Y0122056D03*
X0121183Y0110808D03*
X0109549Y0113401D03*
X0098162Y0112244D03*
X0062807Y0110808D03*
X0060740Y0119848D03*
X0058777Y0122126D03*
D83*
X0058655Y0122020D03*
X0058620Y0121985D03*
X0058550Y0121915D03*
X0060687Y0119778D03*
X0062754Y0117465D03*
X0062754Y0110843D03*
X0119098Y0125419D03*
X0123302Y0119778D03*
X0125475Y0121880D03*
X0125405Y0121950D03*
X0125370Y0121985D03*
X0121200Y0117500D03*
X0121271Y0110878D03*
D84*
X0121235Y0110843D03*
X0121235Y0117465D03*
X0125335Y0122020D03*
X0112651Y0114837D03*
X0080029Y0114767D03*
X0064892Y0125419D03*
X0058585Y0121950D03*
X0058515Y0121880D03*
X0062720Y0110878D03*
D85*
X0062684Y0110913D03*
X0062650Y0110948D03*
X0060442Y0119568D03*
X0060477Y0119603D03*
X0058339Y0121705D03*
X0058270Y0121635D03*
X0079959Y0114802D03*
X0085530Y0114767D03*
X0102069Y0112280D03*
X0108936Y0113821D03*
X0121306Y0110913D03*
X0121340Y0110948D03*
X0123548Y0119568D03*
X0123513Y0119603D03*
X0125615Y0121740D03*
X0125580Y0121775D03*
X0125650Y0121705D03*
X0125685Y0121670D03*
X0125720Y0121635D03*
X0125755Y0121600D03*
D86*
X0106414Y0114767D03*
X0098074Y0116064D03*
X0071970Y0113891D03*
X0071970Y0113366D03*
X0062614Y0110983D03*
X0058305Y0121670D03*
X0058375Y0121740D03*
D87*
X0060389Y0119498D03*
X0062597Y0117325D03*
X0062562Y0117290D03*
X0062632Y0117360D03*
X0062562Y0111018D03*
X0071988Y0113401D03*
X0121393Y0110983D03*
X0121393Y0117325D03*
X0121358Y0117360D03*
X0123565Y0119533D03*
X0123671Y0119428D03*
D88*
X0123636Y0119463D03*
X0123600Y0119498D03*
X0125808Y0121565D03*
X0121428Y0117290D03*
X0121428Y0111018D03*
X0060354Y0119463D03*
X0060284Y0119393D03*
X0058182Y0121565D03*
D89*
X0058165Y0121530D03*
X0058129Y0121495D03*
X0058094Y0121460D03*
X0057989Y0121355D03*
X0060232Y0119322D03*
X0060267Y0119357D03*
X0062509Y0117255D03*
X0065698Y0116239D03*
X0062509Y0111088D03*
X0062545Y0111053D03*
X0071970Y0113856D03*
X0081536Y0113506D03*
X0085530Y0114802D03*
X0102069Y0114872D03*
X0117626Y0114802D03*
X0125930Y0121425D03*
D90*
X0125966Y0121390D03*
X0126001Y0121355D03*
X0125825Y0121530D03*
X0121481Y0117255D03*
X0121481Y0111088D03*
X0121446Y0111053D03*
X0112651Y0114872D03*
X0075824Y0114802D03*
X0062474Y0111123D03*
X0058024Y0121390D03*
D91*
X0057902Y0121250D03*
X0071987Y0113436D03*
X0117644Y0112244D03*
X0121533Y0111123D03*
X0121568Y0117150D03*
X0121533Y0117185D03*
X0126088Y0121250D03*
X0126123Y0121215D03*
D92*
X0126211Y0121109D03*
X0124038Y0119007D03*
X0121656Y0117045D03*
X0102069Y0112244D03*
X0098074Y0116099D03*
X0062439Y0111158D03*
X0059986Y0119042D03*
X0057744Y0121039D03*
X0057744Y0121074D03*
X0057709Y0121004D03*
D93*
X0057639Y0120934D03*
X0057849Y0121180D03*
X0059951Y0119007D03*
X0062369Y0117080D03*
X0062369Y0111228D03*
X0108866Y0113856D03*
X0112651Y0112244D03*
X0121551Y0111158D03*
X0123933Y0119147D03*
X0126316Y0120969D03*
D94*
X0126351Y0120934D03*
X0126281Y0121004D03*
X0126246Y0121039D03*
X0126246Y0121074D03*
X0126176Y0121144D03*
X0126141Y0121180D03*
X0123898Y0119182D03*
X0123863Y0119217D03*
X0123969Y0119077D03*
X0124004Y0119042D03*
X0121621Y0117080D03*
X0121586Y0117115D03*
X0121621Y0111228D03*
X0121586Y0111193D03*
X0118993Y0125454D03*
X0080765Y0116064D03*
X0071970Y0113821D03*
X0062404Y0111193D03*
X0062334Y0117045D03*
X0062404Y0117115D03*
X0060021Y0119077D03*
X0060057Y0119147D03*
X0060091Y0119182D03*
X0060127Y0119217D03*
X0057814Y0121144D03*
X0057779Y0121109D03*
X0057674Y0120969D03*
X0064997Y0125454D03*
D95*
X0065015Y0122406D03*
X0059899Y0118937D03*
X0057621Y0120899D03*
X0057586Y0120864D03*
X0057446Y0120689D03*
X0062352Y0111263D03*
X0079871Y0114872D03*
X0126544Y0120689D03*
D96*
X0126509Y0120724D03*
X0126438Y0120829D03*
X0126404Y0120864D03*
X0126369Y0120899D03*
X0124126Y0118902D03*
X0124091Y0118937D03*
X0124056Y0118972D03*
X0123951Y0119112D03*
X0121708Y0116975D03*
X0121673Y0117010D03*
X0121708Y0111333D03*
X0121673Y0111298D03*
X0121638Y0111263D03*
X0118975Y0122406D03*
X0106431Y0114837D03*
X0081588Y0113471D03*
X0071987Y0113471D03*
X0071987Y0113786D03*
X0065645Y0113786D03*
X0062281Y0111333D03*
X0062281Y0116975D03*
X0059934Y0118972D03*
D97*
X0059864Y0118902D03*
X0060039Y0119112D03*
X0062317Y0117010D03*
X0062317Y0111298D03*
X0057481Y0120724D03*
X0057516Y0120794D03*
X0057551Y0120829D03*
D98*
X0057429Y0120654D03*
X0059811Y0118832D03*
X0059741Y0118727D03*
X0062264Y0116940D03*
X0062264Y0111369D03*
X0075824Y0114837D03*
X0109777Y0113296D03*
X0124249Y0118727D03*
X0126631Y0120584D03*
D99*
X0126597Y0120619D03*
X0126561Y0120654D03*
X0126491Y0120759D03*
X0126456Y0120794D03*
X0126666Y0120514D03*
X0126701Y0120479D03*
X0124214Y0118797D03*
X0124179Y0118832D03*
X0124143Y0118867D03*
X0121796Y0116870D03*
X0121726Y0116940D03*
X0117626Y0114837D03*
X0121726Y0111369D03*
X0109357Y0112209D03*
X0102069Y0114907D03*
X0085530Y0114837D03*
X0062194Y0116870D03*
X0059847Y0118867D03*
X0057323Y0120514D03*
X0057358Y0120584D03*
X0057394Y0120619D03*
D100*
X0057499Y0120759D03*
X0057288Y0120479D03*
X0059776Y0118797D03*
X0062229Y0116905D03*
X0062229Y0111404D03*
X0075859Y0112209D03*
X0121761Y0111404D03*
X0121761Y0116905D03*
D101*
X0124371Y0118552D03*
X0126754Y0120409D03*
X0117644Y0112209D03*
X0121778Y0111439D03*
X0108779Y0113891D03*
X0062211Y0111439D03*
X0062106Y0111579D03*
X0059654Y0118622D03*
X0057166Y0120304D03*
D102*
X0057201Y0120339D03*
X0057201Y0120374D03*
X0057236Y0120409D03*
X0059689Y0118657D03*
X0062141Y0116800D03*
X0062176Y0116835D03*
X0062141Y0111544D03*
X0062141Y0111509D03*
X0062176Y0111474D03*
X0121848Y0111509D03*
X0121848Y0111544D03*
X0121884Y0111579D03*
X0121848Y0116800D03*
X0124266Y0118692D03*
X0124231Y0118762D03*
X0126649Y0120549D03*
D103*
X0126719Y0120444D03*
X0126789Y0120374D03*
X0126789Y0120339D03*
X0126824Y0120304D03*
X0126894Y0120198D03*
X0124336Y0118622D03*
X0124301Y0118657D03*
X0121814Y0116835D03*
X0121814Y0111474D03*
X0112633Y0114907D03*
X0081623Y0113436D03*
X0079836Y0114907D03*
X0071988Y0113751D03*
X0071988Y0113506D03*
X0059759Y0118762D03*
X0059723Y0118692D03*
X0059618Y0118552D03*
X0057096Y0120198D03*
X0057271Y0120444D03*
X0057341Y0120549D03*
D104*
X0057113Y0120233D03*
X0057043Y0120128D03*
X0057008Y0120058D03*
X0056973Y0120023D03*
X0062089Y0116730D03*
X0062124Y0116765D03*
X0062089Y0111614D03*
X0083918Y0114452D03*
X0106449Y0114872D03*
X0106764Y0114452D03*
X0109322Y0114943D03*
X0121936Y0116659D03*
X0124424Y0118481D03*
X0126911Y0120163D03*
X0127017Y0120023D03*
X0121936Y0111649D03*
D105*
X0121901Y0111614D03*
X0121901Y0116694D03*
X0121901Y0116730D03*
X0121866Y0116765D03*
X0124459Y0118411D03*
X0124459Y0118446D03*
X0124494Y0118376D03*
X0127052Y0119953D03*
X0126877Y0120233D03*
X0126842Y0120269D03*
X0104802Y0114452D03*
X0098179Y0112174D03*
X0062054Y0111649D03*
X0062054Y0116659D03*
X0059531Y0118411D03*
X0059531Y0118446D03*
X0059601Y0118517D03*
X0057078Y0120163D03*
D106*
X0056955Y0119988D03*
X0056780Y0119708D03*
X0056745Y0119638D03*
X0059303Y0118061D03*
X0059408Y0118236D03*
X0062072Y0116694D03*
X0062036Y0116624D03*
X0062036Y0111684D03*
X0071987Y0113576D03*
X0079801Y0114943D03*
X0112633Y0112209D03*
X0127244Y0119638D03*
D107*
X0127210Y0119708D03*
X0127174Y0119743D03*
X0127174Y0119778D03*
X0127139Y0119813D03*
X0126964Y0120093D03*
X0124547Y0118306D03*
X0124547Y0118271D03*
X0124582Y0118236D03*
X0124617Y0118166D03*
X0121989Y0116589D03*
X0121954Y0116624D03*
X0122024Y0116519D03*
X0122024Y0111789D03*
X0121989Y0111754D03*
X0121989Y0111719D03*
X0121954Y0111684D03*
X0081658Y0113401D03*
X0080782Y0112174D03*
X0062001Y0111754D03*
X0061931Y0111859D03*
X0062001Y0116589D03*
X0059478Y0118341D03*
X0059338Y0118131D03*
X0056815Y0119743D03*
X0056815Y0119778D03*
X0056921Y0119918D03*
X0057026Y0120093D03*
D108*
X0056938Y0119953D03*
X0057148Y0120269D03*
X0059636Y0118587D03*
X0059566Y0118481D03*
X0059496Y0118376D03*
X0062019Y0111719D03*
X0071970Y0113541D03*
X0071970Y0113716D03*
X0124354Y0118587D03*
X0124389Y0118517D03*
X0126982Y0120058D03*
X0126947Y0120128D03*
D109*
X0127034Y0119988D03*
X0127069Y0119918D03*
X0127104Y0119883D03*
X0127104Y0119848D03*
X0124652Y0118131D03*
X0124687Y0118061D03*
X0124511Y0118341D03*
X0122059Y0111859D03*
X0085863Y0114452D03*
X0085548Y0114872D03*
X0061966Y0116519D03*
X0059443Y0118271D03*
X0059443Y0118306D03*
X0059373Y0118201D03*
X0059373Y0118166D03*
X0056886Y0119848D03*
X0056886Y0119883D03*
X0056850Y0119813D03*
X0061966Y0111789D03*
D110*
X0061948Y0111824D03*
X0061948Y0116484D03*
X0061984Y0116554D03*
X0059321Y0118096D03*
X0056693Y0119533D03*
X0056693Y0119568D03*
X0056728Y0119603D03*
X0056763Y0119673D03*
X0056623Y0119428D03*
X0056552Y0119287D03*
X0065102Y0122441D03*
X0071970Y0113681D03*
X0075824Y0114872D03*
X0080765Y0116099D03*
X0104767Y0114417D03*
X0117626Y0114872D03*
X0122041Y0116484D03*
X0122147Y0116309D03*
X0124739Y0117956D03*
X0124739Y0117991D03*
X0127332Y0119463D03*
X0127332Y0119498D03*
X0127262Y0119603D03*
X0127227Y0119673D03*
X0127437Y0119287D03*
X0122147Y0111999D03*
X0122041Y0111824D03*
X0118888Y0122441D03*
D111*
X0122006Y0116554D03*
X0124599Y0118201D03*
X0124774Y0117921D03*
X0127402Y0119357D03*
X0127367Y0119428D03*
X0102069Y0112209D03*
X0098074Y0116134D03*
X0089630Y0114452D03*
X0061914Y0116414D03*
X0061914Y0116449D03*
X0059251Y0117956D03*
X0059251Y0117991D03*
X0059286Y0118026D03*
X0056588Y0119357D03*
X0061914Y0111894D03*
D112*
X0061879Y0111929D03*
X0061879Y0111964D03*
X0061844Y0116309D03*
X0061879Y0116379D03*
X0059216Y0117921D03*
X0056658Y0119463D03*
X0056658Y0119498D03*
X0090961Y0114662D03*
X0122076Y0116414D03*
X0122076Y0116449D03*
X0122111Y0116379D03*
X0124704Y0118026D03*
X0124669Y0118096D03*
X0127297Y0119533D03*
X0127297Y0119568D03*
X0122111Y0111964D03*
X0122111Y0111929D03*
X0122076Y0111894D03*
D113*
X0127525Y0119112D03*
X0127525Y0119147D03*
X0079766Y0114978D03*
X0065120Y0125489D03*
X0061861Y0116344D03*
X0059163Y0117781D03*
X0059163Y0117816D03*
X0056535Y0119252D03*
X0061861Y0111999D03*
D114*
X0061826Y0112034D03*
X0061826Y0112069D03*
X0061756Y0112174D03*
X0061756Y0112209D03*
X0061756Y0116134D03*
X0061826Y0116274D03*
X0059128Y0117711D03*
X0059128Y0117746D03*
X0059198Y0117851D03*
X0059198Y0117886D03*
X0059058Y0117606D03*
X0056395Y0118972D03*
X0056395Y0119007D03*
X0056430Y0119042D03*
X0056430Y0119077D03*
X0056465Y0119112D03*
X0056465Y0119147D03*
X0056500Y0119182D03*
X0056500Y0119217D03*
X0056605Y0119393D03*
X0080011Y0112595D03*
X0081693Y0113366D03*
X0083866Y0114417D03*
X0098862Y0112595D03*
X0109865Y0113261D03*
X0122164Y0112069D03*
X0122164Y0112034D03*
X0122234Y0112174D03*
X0122234Y0116134D03*
X0122164Y0116274D03*
X0122129Y0116344D03*
X0124862Y0117711D03*
X0124862Y0117746D03*
X0124827Y0117781D03*
X0124827Y0117816D03*
X0124897Y0117676D03*
X0124932Y0117606D03*
X0124967Y0117535D03*
X0127595Y0118972D03*
X0127595Y0119007D03*
X0127560Y0119042D03*
X0127560Y0119077D03*
X0127490Y0119182D03*
X0127490Y0119217D03*
X0127455Y0119252D03*
X0127420Y0119322D03*
X0127630Y0118937D03*
X0127630Y0118902D03*
X0118870Y0125489D03*
D115*
X0111950Y0114627D03*
X0103190Y0113821D03*
X0103190Y0113786D03*
X0103190Y0113751D03*
X0103190Y0113716D03*
X0103190Y0113681D03*
X0103190Y0113646D03*
X0103190Y0113611D03*
X0103190Y0113576D03*
X0103190Y0113541D03*
X0103190Y0113506D03*
X0103190Y0113471D03*
X0103190Y0113436D03*
X0103190Y0113401D03*
X0103190Y0113366D03*
X0103190Y0113331D03*
X0103190Y0113296D03*
X0079644Y0115223D03*
X0079644Y0115258D03*
X0067275Y0114557D03*
X0067275Y0114522D03*
X0067170Y0114347D03*
X0065383Y0114452D03*
X0065383Y0114487D03*
X0065383Y0114522D03*
X0065383Y0114557D03*
X0065383Y0114592D03*
X0065383Y0114627D03*
X0065383Y0114662D03*
X0065383Y0114697D03*
X0065383Y0114732D03*
X0065383Y0114767D03*
X0065383Y0114802D03*
X0065383Y0114837D03*
X0065383Y0114872D03*
X0065383Y0114907D03*
X0065383Y0114943D03*
X0065383Y0114978D03*
X0065383Y0115013D03*
X0065383Y0115048D03*
X0065383Y0115083D03*
X0065383Y0115118D03*
X0065383Y0115153D03*
X0065383Y0115188D03*
X0065383Y0115223D03*
X0065383Y0115258D03*
X0065383Y0115293D03*
X0065383Y0115328D03*
X0065383Y0115363D03*
X0065383Y0115398D03*
X0065383Y0115433D03*
X0065383Y0115468D03*
X0065383Y0115503D03*
X0065383Y0115538D03*
X0065383Y0115573D03*
X0065383Y0115608D03*
X0065383Y0115643D03*
X0065383Y0115678D03*
X0065383Y0113751D03*
X0065383Y0113716D03*
X0065383Y0113681D03*
X0065383Y0113646D03*
X0065383Y0113611D03*
X0065383Y0113576D03*
X0065383Y0113541D03*
X0065383Y0113506D03*
X0065383Y0113471D03*
X0065383Y0113436D03*
X0065383Y0113401D03*
X0065383Y0113366D03*
X0065383Y0113331D03*
X0065383Y0113296D03*
X0065383Y0113261D03*
X0065383Y0113226D03*
X0065383Y0113191D03*
X0065383Y0113156D03*
X0065383Y0113120D03*
X0065383Y0113085D03*
X0065383Y0113050D03*
X0065383Y0113015D03*
X0065383Y0112980D03*
X0065383Y0112945D03*
X0065383Y0112910D03*
X0065383Y0112875D03*
X0065383Y0112840D03*
X0065383Y0112805D03*
X0065383Y0112770D03*
X0065383Y0112735D03*
X0065383Y0112700D03*
X0065383Y0112665D03*
X0065383Y0112630D03*
X0065383Y0112595D03*
X0065383Y0112560D03*
X0065383Y0112525D03*
X0065383Y0112490D03*
X0065383Y0112455D03*
X0065383Y0112420D03*
X0065383Y0112385D03*
X0065383Y0112350D03*
X0065383Y0112315D03*
X0065383Y0112280D03*
X0065383Y0112244D03*
X0065383Y0112209D03*
X0065383Y0112174D03*
X0065383Y0112139D03*
X0065383Y0112104D03*
X0065383Y0112069D03*
D116*
X0068957Y0112069D03*
X0068957Y0112104D03*
X0068957Y0112139D03*
X0068957Y0112174D03*
X0068957Y0112209D03*
X0068957Y0112244D03*
X0068957Y0112280D03*
X0068957Y0112315D03*
X0068957Y0112350D03*
X0068957Y0112385D03*
X0068957Y0112420D03*
X0068957Y0112455D03*
X0068957Y0112490D03*
X0068957Y0112525D03*
X0068957Y0112560D03*
X0068957Y0112595D03*
X0068957Y0112630D03*
X0068957Y0112665D03*
X0068957Y0112700D03*
X0068957Y0112735D03*
X0068957Y0112770D03*
X0068957Y0112805D03*
X0068957Y0112840D03*
X0068957Y0112875D03*
X0068957Y0112910D03*
X0068957Y0112945D03*
X0068957Y0112980D03*
X0068957Y0113015D03*
X0068957Y0113050D03*
X0068957Y0113085D03*
X0068957Y0113120D03*
X0068957Y0113156D03*
X0068957Y0113191D03*
X0068957Y0113226D03*
X0068957Y0113261D03*
X0068957Y0113296D03*
X0068957Y0113331D03*
X0068957Y0113366D03*
X0068957Y0113401D03*
X0068957Y0113436D03*
X0068957Y0113471D03*
X0068957Y0113506D03*
X0068957Y0113541D03*
X0068957Y0113576D03*
X0068957Y0113611D03*
X0068957Y0113646D03*
X0068957Y0113681D03*
X0068957Y0113716D03*
X0068957Y0113751D03*
X0068957Y0113786D03*
X0068957Y0113821D03*
X0068957Y0113856D03*
X0068957Y0113891D03*
X0068957Y0113926D03*
X0068957Y0113961D03*
X0068957Y0113996D03*
X0068957Y0114031D03*
X0068957Y0114067D03*
X0068957Y0114102D03*
X0068957Y0114137D03*
X0068957Y0114172D03*
X0068957Y0114207D03*
X0068957Y0114242D03*
X0068957Y0114277D03*
X0068957Y0114312D03*
X0068957Y0114347D03*
X0068957Y0114382D03*
X0068957Y0114417D03*
X0068957Y0114452D03*
X0068957Y0114487D03*
X0068957Y0114522D03*
X0068957Y0114557D03*
X0068957Y0114592D03*
X0068957Y0114627D03*
X0068957Y0114662D03*
X0068957Y0114697D03*
X0068957Y0114732D03*
X0068957Y0114767D03*
X0068957Y0114802D03*
X0068957Y0114837D03*
X0068957Y0115328D03*
X0068957Y0115363D03*
X0068957Y0115398D03*
X0068957Y0115433D03*
X0068957Y0115468D03*
X0068957Y0115503D03*
X0068957Y0115538D03*
X0068957Y0115573D03*
X0068957Y0115608D03*
X0068957Y0115643D03*
X0068957Y0115678D03*
X0068957Y0115713D03*
X0068957Y0115748D03*
X0068957Y0115783D03*
X0068957Y0115819D03*
X0068957Y0115854D03*
X0068957Y0115889D03*
X0068957Y0115924D03*
X0068957Y0115959D03*
X0068957Y0115994D03*
X0068957Y0116029D03*
X0068957Y0116064D03*
X0068957Y0116099D03*
X0068957Y0116134D03*
X0068957Y0116169D03*
X0058375Y0115363D03*
X0058375Y0115328D03*
X0058375Y0115293D03*
X0058375Y0115258D03*
X0058375Y0115223D03*
X0058340Y0115083D03*
X0058340Y0115048D03*
X0058340Y0115013D03*
X0058340Y0114978D03*
X0058340Y0114943D03*
X0058340Y0114907D03*
X0058340Y0114872D03*
X0058340Y0114837D03*
X0058340Y0114802D03*
X0055396Y0115608D03*
X0055396Y0115643D03*
X0055396Y0115678D03*
X0055396Y0115713D03*
X0055396Y0115748D03*
X0055466Y0116134D03*
X0055466Y0116169D03*
X0055501Y0116344D03*
X0089525Y0114347D03*
X0096883Y0115153D03*
X0098074Y0116169D03*
X0099055Y0115503D03*
X0099161Y0115328D03*
X0099161Y0112910D03*
X0099055Y0112770D03*
X0096883Y0113120D03*
X0106449Y0114943D03*
X0125545Y0115748D03*
X0125580Y0115573D03*
X0125580Y0115538D03*
X0125580Y0115503D03*
X0128559Y0115889D03*
X0128559Y0115924D03*
X0128559Y0115959D03*
X0128594Y0115748D03*
X0128594Y0115713D03*
X0128594Y0115678D03*
X0128594Y0115643D03*
X0128594Y0115608D03*
D117*
X0117661Y0112139D03*
X0109357Y0112139D03*
X0108551Y0114031D03*
X0106974Y0114172D03*
X0106974Y0114207D03*
X0106974Y0114242D03*
X0104626Y0114172D03*
X0104626Y0114137D03*
X0104626Y0114102D03*
X0104626Y0114067D03*
X0104626Y0114031D03*
X0104626Y0113996D03*
X0104626Y0113961D03*
X0104626Y0113926D03*
X0104626Y0113891D03*
X0104626Y0113856D03*
X0104626Y0113821D03*
X0104626Y0113786D03*
X0104626Y0113751D03*
X0104626Y0113716D03*
X0104626Y0113681D03*
X0104626Y0113646D03*
X0104626Y0113611D03*
X0104626Y0113576D03*
X0104626Y0113541D03*
X0104626Y0113506D03*
X0104626Y0113471D03*
X0104626Y0113436D03*
X0104626Y0113401D03*
X0104626Y0113366D03*
X0104626Y0113331D03*
X0104626Y0113296D03*
X0104626Y0113261D03*
X0104626Y0113226D03*
X0104626Y0113191D03*
X0104626Y0113156D03*
X0104626Y0113120D03*
X0104626Y0113085D03*
X0104626Y0113050D03*
X0104626Y0113015D03*
X0104626Y0112980D03*
X0104626Y0112945D03*
X0104626Y0112910D03*
X0104626Y0112875D03*
X0104626Y0112840D03*
X0104626Y0112805D03*
X0104626Y0112770D03*
X0104626Y0112735D03*
X0104626Y0112700D03*
X0104626Y0112665D03*
X0104626Y0112630D03*
X0104626Y0112595D03*
X0104626Y0112560D03*
X0104626Y0112525D03*
X0104626Y0112490D03*
X0104626Y0112455D03*
X0104626Y0112420D03*
X0104626Y0112385D03*
X0104626Y0112350D03*
X0104626Y0112315D03*
X0104626Y0112280D03*
X0104626Y0112244D03*
X0104626Y0112209D03*
X0104626Y0112174D03*
X0104626Y0112139D03*
X0104626Y0112104D03*
X0104626Y0112069D03*
X0104626Y0114662D03*
X0104626Y0114697D03*
X0104626Y0114732D03*
X0104626Y0114767D03*
X0104626Y0114802D03*
X0104626Y0114837D03*
X0104626Y0114872D03*
X0104626Y0114907D03*
X0097023Y0115433D03*
X0096918Y0113015D03*
X0096953Y0112945D03*
X0096953Y0112910D03*
X0096988Y0112875D03*
X0097023Y0112805D03*
X0097128Y0112665D03*
X0097163Y0112630D03*
X0090961Y0114802D03*
X0089490Y0114802D03*
X0089490Y0114767D03*
X0089490Y0114732D03*
X0089490Y0114697D03*
X0089490Y0114662D03*
X0089490Y0114837D03*
X0089490Y0114872D03*
X0089490Y0114907D03*
X0089490Y0114242D03*
X0089490Y0114207D03*
X0089490Y0114172D03*
X0089490Y0114137D03*
X0089490Y0114102D03*
X0089490Y0114067D03*
X0089490Y0114031D03*
X0089490Y0113996D03*
X0089490Y0113961D03*
X0089490Y0113926D03*
X0089490Y0113891D03*
X0089490Y0113856D03*
X0089490Y0113821D03*
X0089490Y0113786D03*
X0089490Y0113751D03*
X0089490Y0113716D03*
X0089490Y0113681D03*
X0089490Y0113646D03*
X0089490Y0113611D03*
X0089490Y0113576D03*
X0089490Y0113541D03*
X0089490Y0113506D03*
X0089490Y0113471D03*
X0089490Y0113436D03*
X0089490Y0113401D03*
X0089490Y0113366D03*
X0089490Y0113331D03*
X0089490Y0113296D03*
X0089490Y0113261D03*
X0089490Y0113226D03*
X0089490Y0113191D03*
X0089490Y0113156D03*
X0089490Y0113120D03*
X0089490Y0113085D03*
X0089490Y0113050D03*
X0089490Y0113015D03*
X0089490Y0112980D03*
X0089490Y0112945D03*
X0089490Y0112910D03*
X0089490Y0112875D03*
X0089490Y0112840D03*
X0089490Y0112805D03*
X0089490Y0112770D03*
X0089490Y0112735D03*
X0089490Y0112700D03*
X0089490Y0112665D03*
X0089490Y0112630D03*
X0089490Y0112595D03*
X0089490Y0112560D03*
X0089490Y0112525D03*
X0089490Y0112490D03*
X0089490Y0112455D03*
X0089490Y0112420D03*
X0089490Y0112385D03*
X0089490Y0112350D03*
X0089490Y0112315D03*
X0089490Y0112280D03*
X0089490Y0112244D03*
X0089490Y0112209D03*
X0089490Y0112174D03*
X0089490Y0112139D03*
X0089490Y0112104D03*
X0089490Y0112069D03*
X0086091Y0114067D03*
X0086091Y0114102D03*
X0086091Y0114137D03*
X0086091Y0114172D03*
X0086091Y0114207D03*
X0083743Y0114207D03*
X0083743Y0114172D03*
X0083743Y0114137D03*
X0083743Y0114102D03*
X0083743Y0114067D03*
X0083743Y0114031D03*
X0083743Y0113996D03*
X0083743Y0113961D03*
X0083743Y0113926D03*
X0083743Y0113891D03*
X0083743Y0113856D03*
X0083743Y0113821D03*
X0083743Y0113786D03*
X0083743Y0113751D03*
X0083743Y0113716D03*
X0083743Y0113681D03*
X0083743Y0113646D03*
X0083743Y0113611D03*
X0083743Y0113576D03*
X0083743Y0113541D03*
X0083743Y0113506D03*
X0083743Y0113471D03*
X0083743Y0113436D03*
X0083743Y0113401D03*
X0083743Y0113366D03*
X0083743Y0113331D03*
X0083743Y0113296D03*
X0083743Y0113261D03*
X0083743Y0113226D03*
X0083743Y0113191D03*
X0083743Y0113156D03*
X0083743Y0113120D03*
X0083743Y0113085D03*
X0083743Y0113050D03*
X0083743Y0113015D03*
X0083743Y0112980D03*
X0083743Y0112945D03*
X0083743Y0112910D03*
X0083743Y0112875D03*
X0083743Y0112840D03*
X0083743Y0112805D03*
X0083743Y0112770D03*
X0083743Y0112735D03*
X0083743Y0112700D03*
X0083743Y0112665D03*
X0083743Y0112630D03*
X0083743Y0112595D03*
X0083743Y0112560D03*
X0083743Y0112525D03*
X0083743Y0112490D03*
X0083743Y0112455D03*
X0083743Y0112420D03*
X0083743Y0112385D03*
X0083743Y0112350D03*
X0083743Y0112315D03*
X0083743Y0112280D03*
X0083743Y0112244D03*
X0083743Y0112209D03*
X0083743Y0112174D03*
X0083743Y0112139D03*
X0083743Y0112104D03*
X0083743Y0112069D03*
X0083743Y0114662D03*
X0083743Y0114697D03*
X0083743Y0114732D03*
X0083743Y0114767D03*
X0083743Y0115398D03*
X0083743Y0115433D03*
X0083743Y0115468D03*
X0083743Y0115503D03*
X0083743Y0115538D03*
X0083743Y0115573D03*
X0083743Y0115608D03*
X0083743Y0115643D03*
X0083743Y0115678D03*
X0083743Y0115713D03*
X0083743Y0115748D03*
X0083743Y0115783D03*
X0083743Y0115819D03*
X0083743Y0115854D03*
X0083743Y0115889D03*
X0083743Y0115924D03*
X0083743Y0115959D03*
X0083743Y0115994D03*
X0083743Y0116029D03*
X0083743Y0116064D03*
X0083743Y0116099D03*
X0083743Y0116134D03*
X0083743Y0116169D03*
X0083743Y0116204D03*
X0079678Y0115153D03*
X0075894Y0112139D03*
X0073301Y0112069D03*
X0073267Y0112139D03*
X0073231Y0112174D03*
X0073196Y0112209D03*
X0073161Y0112280D03*
X0073126Y0112315D03*
X0073021Y0112455D03*
X0072986Y0112490D03*
X0072916Y0112595D03*
X0072881Y0112630D03*
X0072811Y0112700D03*
X0072776Y0112770D03*
X0072741Y0112805D03*
X0072706Y0112840D03*
X0072671Y0112875D03*
X0072671Y0112910D03*
X0071269Y0112875D03*
X0071199Y0112770D03*
X0071129Y0112700D03*
X0071059Y0112595D03*
X0071024Y0112560D03*
X0070919Y0112420D03*
X0070743Y0112209D03*
X0070709Y0112174D03*
X0070638Y0112069D03*
X0071269Y0114382D03*
X0071129Y0114557D03*
X0071024Y0114697D03*
X0070919Y0114837D03*
X0070743Y0115048D03*
X0072916Y0114662D03*
X0073161Y0114978D03*
X0065417Y0114347D03*
X0065417Y0115783D03*
D118*
X0075859Y0112069D03*
X0090926Y0114943D03*
X0109357Y0112069D03*
D119*
X0110058Y0113156D03*
X0101368Y0114627D03*
X0081851Y0113156D03*
X0081851Y0113120D03*
X0079889Y0115678D03*
X0078207Y0115678D03*
X0078207Y0115643D03*
X0078207Y0115608D03*
X0078207Y0115573D03*
X0078207Y0115538D03*
X0078207Y0115503D03*
X0078207Y0115468D03*
X0078207Y0115433D03*
X0078207Y0115398D03*
X0078207Y0115363D03*
X0078207Y0115328D03*
X0078207Y0115293D03*
X0078207Y0115258D03*
X0078207Y0115223D03*
X0078207Y0115188D03*
X0078207Y0115153D03*
X0078207Y0115118D03*
X0078207Y0115083D03*
X0078207Y0115048D03*
X0078207Y0115013D03*
X0078207Y0114978D03*
X0078207Y0114943D03*
X0078207Y0114907D03*
X0078207Y0114872D03*
X0078207Y0114837D03*
X0078207Y0114802D03*
X0078207Y0114767D03*
X0078207Y0114732D03*
X0078207Y0114697D03*
X0078207Y0114662D03*
X0078207Y0114627D03*
X0078207Y0114592D03*
X0078207Y0114557D03*
X0078207Y0114522D03*
X0078207Y0114487D03*
X0078207Y0114452D03*
X0078207Y0114417D03*
X0078207Y0114382D03*
X0078207Y0114347D03*
X0078207Y0114312D03*
X0078207Y0114277D03*
X0078207Y0114242D03*
X0078207Y0114207D03*
X0078207Y0114172D03*
X0078207Y0114137D03*
X0078207Y0114102D03*
X0078207Y0114067D03*
X0078207Y0114031D03*
X0078207Y0113996D03*
X0078207Y0113961D03*
X0078207Y0113926D03*
X0078207Y0113891D03*
X0078207Y0113856D03*
X0078207Y0113821D03*
X0078207Y0113786D03*
X0078207Y0113751D03*
X0078207Y0113716D03*
X0078207Y0113681D03*
X0078207Y0113646D03*
X0078207Y0113611D03*
X0078207Y0113576D03*
X0078207Y0113541D03*
X0078207Y0113506D03*
X0078207Y0113471D03*
X0078207Y0113436D03*
X0078207Y0113401D03*
X0078207Y0113366D03*
X0078207Y0113331D03*
X0078207Y0113296D03*
X0078207Y0113261D03*
X0078207Y0113226D03*
X0078207Y0113191D03*
X0078207Y0113156D03*
X0078207Y0113120D03*
X0078207Y0113085D03*
X0078207Y0113050D03*
X0078207Y0113015D03*
X0078207Y0112980D03*
X0078207Y0112945D03*
X0078207Y0112910D03*
X0078207Y0112875D03*
X0078207Y0112840D03*
X0078207Y0112805D03*
X0078207Y0112770D03*
X0078207Y0112735D03*
X0078207Y0112700D03*
X0078207Y0112665D03*
X0078207Y0112630D03*
X0078207Y0112595D03*
X0078207Y0112560D03*
X0078207Y0112525D03*
X0078207Y0112490D03*
X0078207Y0112455D03*
X0078207Y0112420D03*
X0078207Y0112385D03*
X0078207Y0112350D03*
X0078207Y0112315D03*
X0078207Y0112280D03*
X0078207Y0112244D03*
X0078207Y0112209D03*
X0078207Y0112174D03*
X0078207Y0112139D03*
X0078207Y0112104D03*
X0078207Y0112069D03*
X0078207Y0115713D03*
X0078207Y0115748D03*
X0078207Y0115783D03*
X0078207Y0115819D03*
X0078207Y0115854D03*
X0078207Y0115889D03*
X0078207Y0115924D03*
X0078207Y0115959D03*
X0078207Y0115994D03*
X0078207Y0116029D03*
X0078207Y0116064D03*
X0078207Y0116099D03*
X0078207Y0116134D03*
X0078207Y0116169D03*
X0078207Y0116204D03*
X0067205Y0114382D03*
D120*
X0080782Y0112069D03*
D121*
X0081833Y0113191D03*
X0083725Y0114802D03*
X0083725Y0114837D03*
X0083725Y0114872D03*
X0083725Y0114907D03*
X0083725Y0114943D03*
X0083725Y0114978D03*
X0083725Y0115013D03*
X0083725Y0115048D03*
X0083725Y0115083D03*
X0083725Y0115118D03*
X0083725Y0115153D03*
X0083725Y0115188D03*
X0083725Y0115223D03*
X0083725Y0115258D03*
X0083725Y0115293D03*
X0083725Y0115328D03*
X0083725Y0115363D03*
X0086108Y0114031D03*
X0086108Y0113996D03*
X0086108Y0113961D03*
X0086108Y0113926D03*
X0086108Y0113891D03*
X0086108Y0113856D03*
X0086108Y0113821D03*
X0086108Y0113786D03*
X0086108Y0113751D03*
X0086108Y0113716D03*
X0086108Y0113681D03*
X0086108Y0113646D03*
X0086108Y0113611D03*
X0086108Y0113576D03*
X0086108Y0113541D03*
X0086108Y0113506D03*
X0086108Y0113471D03*
X0086108Y0113436D03*
X0086108Y0113401D03*
X0086108Y0113366D03*
X0086108Y0113331D03*
X0086108Y0113296D03*
X0086108Y0113261D03*
X0086108Y0113226D03*
X0086108Y0113191D03*
X0086108Y0113156D03*
X0086108Y0113120D03*
X0086108Y0113085D03*
X0086108Y0113050D03*
X0086108Y0113015D03*
X0086108Y0112980D03*
X0086108Y0112945D03*
X0086108Y0112910D03*
X0086108Y0112875D03*
X0086108Y0112840D03*
X0086108Y0112805D03*
X0086108Y0112770D03*
X0086108Y0112735D03*
X0086108Y0112700D03*
X0086108Y0112665D03*
X0086108Y0112630D03*
X0086108Y0112595D03*
X0086108Y0112560D03*
X0086108Y0112525D03*
X0086108Y0112490D03*
X0086108Y0112455D03*
X0086108Y0112420D03*
X0086108Y0112385D03*
X0086108Y0112350D03*
X0086108Y0112315D03*
X0086108Y0112280D03*
X0086108Y0112244D03*
X0086108Y0112209D03*
X0086108Y0112174D03*
X0086108Y0112139D03*
X0086108Y0112104D03*
X0086108Y0112069D03*
X0091224Y0114452D03*
X0097076Y0112735D03*
X0106992Y0112735D03*
X0106992Y0112700D03*
X0106992Y0112665D03*
X0106992Y0112630D03*
X0106992Y0112595D03*
X0106992Y0112560D03*
X0106992Y0112525D03*
X0106992Y0112490D03*
X0106992Y0112455D03*
X0106992Y0112420D03*
X0106992Y0112385D03*
X0106992Y0112350D03*
X0106992Y0112315D03*
X0106992Y0112280D03*
X0106992Y0112244D03*
X0106992Y0112209D03*
X0106992Y0112174D03*
X0106992Y0112139D03*
X0106992Y0112104D03*
X0106992Y0112069D03*
X0106992Y0112770D03*
X0106992Y0112805D03*
X0106992Y0112840D03*
X0106992Y0112875D03*
X0106992Y0112910D03*
X0106992Y0112945D03*
X0106992Y0112980D03*
X0106992Y0113015D03*
X0106992Y0113050D03*
X0106992Y0113085D03*
X0106992Y0113120D03*
X0106992Y0113156D03*
X0106992Y0113191D03*
X0106992Y0113226D03*
X0106992Y0113261D03*
X0106992Y0113296D03*
X0106992Y0113331D03*
X0106992Y0113366D03*
X0106992Y0113401D03*
X0106992Y0113436D03*
X0106992Y0113471D03*
X0106992Y0113506D03*
X0106992Y0113541D03*
X0106992Y0113576D03*
X0106992Y0113611D03*
X0106992Y0113646D03*
X0106992Y0113681D03*
X0106992Y0113716D03*
X0106992Y0113751D03*
X0106992Y0113786D03*
X0106992Y0113821D03*
X0106992Y0113856D03*
X0106992Y0113891D03*
X0106992Y0113926D03*
X0106992Y0113961D03*
X0106992Y0113996D03*
X0106992Y0114031D03*
X0106992Y0114067D03*
X0106992Y0114102D03*
X0106992Y0114137D03*
X0079661Y0115188D03*
X0073214Y0115048D03*
X0073109Y0114907D03*
X0073074Y0114872D03*
X0072969Y0114732D03*
X0072933Y0114697D03*
X0072864Y0114592D03*
X0072828Y0114557D03*
X0072723Y0114417D03*
X0071322Y0114312D03*
X0071287Y0114347D03*
X0071182Y0114487D03*
X0071041Y0114662D03*
X0070971Y0114767D03*
X0070796Y0114978D03*
X0065400Y0114417D03*
X0065400Y0114382D03*
X0065400Y0115713D03*
X0065400Y0115748D03*
D122*
X0065453Y0115819D03*
X0058410Y0115573D03*
X0058410Y0115538D03*
X0058410Y0115503D03*
X0058305Y0114697D03*
X0058305Y0114662D03*
X0058305Y0114627D03*
X0058305Y0114592D03*
X0058305Y0114557D03*
X0058305Y0114522D03*
X0058305Y0114487D03*
X0058305Y0114452D03*
X0058305Y0114417D03*
X0058305Y0114382D03*
X0058305Y0114347D03*
X0055431Y0115889D03*
X0055431Y0115924D03*
X0055431Y0115959D03*
X0085565Y0114943D03*
X0087738Y0114837D03*
X0087738Y0114802D03*
X0087738Y0114767D03*
X0087738Y0114732D03*
X0087738Y0114697D03*
X0087738Y0114662D03*
X0087738Y0114627D03*
X0087738Y0114592D03*
X0087738Y0114557D03*
X0087738Y0114522D03*
X0087738Y0114487D03*
X0087738Y0114452D03*
X0087738Y0114417D03*
X0087738Y0114382D03*
X0087738Y0114347D03*
X0087738Y0114312D03*
X0087738Y0114277D03*
X0087738Y0114242D03*
X0087738Y0114207D03*
X0087738Y0114172D03*
X0087738Y0114137D03*
X0087738Y0114102D03*
X0087738Y0114067D03*
X0087738Y0114031D03*
X0087738Y0113996D03*
X0087738Y0113961D03*
X0087738Y0113926D03*
X0087738Y0113891D03*
X0087738Y0113856D03*
X0087738Y0113821D03*
X0087738Y0113786D03*
X0087738Y0113751D03*
X0087738Y0113716D03*
X0087738Y0113681D03*
X0087738Y0113646D03*
X0087738Y0113611D03*
X0087738Y0113576D03*
X0087738Y0113541D03*
X0087738Y0113506D03*
X0087738Y0113471D03*
X0087738Y0113436D03*
X0087738Y0113401D03*
X0087738Y0113366D03*
X0087738Y0113331D03*
X0087738Y0113296D03*
X0087738Y0113261D03*
X0087738Y0113226D03*
X0087738Y0113191D03*
X0087738Y0113156D03*
X0087738Y0113120D03*
X0087738Y0113085D03*
X0087738Y0113050D03*
X0087738Y0113015D03*
X0087738Y0112980D03*
X0087738Y0112945D03*
X0087738Y0112910D03*
X0087738Y0112875D03*
X0087738Y0112840D03*
X0087738Y0112805D03*
X0087738Y0112770D03*
X0087738Y0112735D03*
X0087738Y0112700D03*
X0087738Y0112665D03*
X0087738Y0112630D03*
X0087738Y0112595D03*
X0087738Y0112560D03*
X0087738Y0112525D03*
X0087738Y0112490D03*
X0087738Y0112455D03*
X0087738Y0112420D03*
X0087738Y0112385D03*
X0087738Y0112350D03*
X0087738Y0112315D03*
X0087738Y0112280D03*
X0087738Y0112244D03*
X0087738Y0112209D03*
X0087738Y0112174D03*
X0087738Y0112139D03*
X0087738Y0112104D03*
X0087738Y0112069D03*
X0087738Y0115328D03*
X0087738Y0115363D03*
X0087738Y0115398D03*
X0087738Y0115433D03*
X0087738Y0115468D03*
X0087738Y0115503D03*
X0087738Y0115538D03*
X0087738Y0115573D03*
X0087738Y0115608D03*
X0087738Y0115643D03*
X0087738Y0115678D03*
X0087738Y0115713D03*
X0087738Y0115748D03*
X0087738Y0115783D03*
X0087738Y0115819D03*
X0087738Y0115854D03*
X0087738Y0115889D03*
X0087738Y0115924D03*
X0087738Y0115959D03*
X0087738Y0115994D03*
X0087738Y0116029D03*
X0087738Y0116064D03*
X0087738Y0116099D03*
X0087738Y0116134D03*
X0087738Y0116169D03*
X0090961Y0114767D03*
X0096813Y0114872D03*
X0096813Y0114907D03*
X0096813Y0114943D03*
X0096848Y0115013D03*
X0096848Y0115048D03*
X0096813Y0113401D03*
X0096813Y0113366D03*
X0096848Y0113296D03*
X0096848Y0113261D03*
X0096848Y0113226D03*
X0099090Y0112805D03*
X0099125Y0112840D03*
X0099125Y0112875D03*
X0099196Y0112980D03*
X0099231Y0113050D03*
X0099231Y0115188D03*
X0099196Y0115258D03*
X0099196Y0115293D03*
X0099125Y0115398D03*
X0098985Y0115573D03*
X0106904Y0114347D03*
X0122637Y0114592D03*
X0122637Y0114627D03*
X0122637Y0113716D03*
X0125685Y0114347D03*
X0125685Y0114382D03*
X0125685Y0114417D03*
X0125685Y0114452D03*
X0125685Y0114487D03*
X0125685Y0114522D03*
X0125685Y0114557D03*
X0125685Y0114592D03*
X0125685Y0114627D03*
X0125685Y0114662D03*
X0125685Y0114697D03*
X0125650Y0114802D03*
X0125650Y0114837D03*
X0125650Y0114872D03*
X0125650Y0114907D03*
X0125650Y0114943D03*
X0125650Y0114978D03*
X0125650Y0115013D03*
X0125650Y0115048D03*
X0125650Y0115083D03*
X0128488Y0116344D03*
D123*
X0115173Y0116204D03*
X0115173Y0116169D03*
X0115173Y0116134D03*
X0115173Y0116099D03*
X0115173Y0116064D03*
X0115173Y0116029D03*
X0115173Y0115994D03*
X0115173Y0115959D03*
X0115173Y0115924D03*
X0115173Y0115889D03*
X0115173Y0115854D03*
X0115173Y0115819D03*
X0115173Y0115783D03*
X0115173Y0115748D03*
X0115173Y0115713D03*
X0115173Y0115678D03*
X0115173Y0115643D03*
X0115173Y0115608D03*
X0115173Y0115573D03*
X0115173Y0115538D03*
X0115173Y0115503D03*
X0115173Y0115468D03*
X0115173Y0115433D03*
X0115173Y0115398D03*
X0115173Y0115363D03*
X0115173Y0115328D03*
X0115173Y0115293D03*
X0115173Y0115258D03*
X0115173Y0115223D03*
X0115173Y0115188D03*
X0115173Y0115153D03*
X0115173Y0115118D03*
X0115173Y0115083D03*
X0115173Y0115048D03*
X0115173Y0115013D03*
X0115173Y0114978D03*
X0115173Y0114943D03*
X0115173Y0114907D03*
X0115173Y0114872D03*
X0115173Y0114837D03*
X0115173Y0114802D03*
X0115173Y0114767D03*
X0115173Y0114732D03*
X0115173Y0114697D03*
X0115173Y0114662D03*
X0115173Y0114627D03*
X0115173Y0114592D03*
X0115173Y0114557D03*
X0115173Y0114522D03*
X0115173Y0114487D03*
X0115173Y0114452D03*
X0115173Y0114417D03*
X0115173Y0114382D03*
X0115173Y0114347D03*
X0115173Y0114312D03*
X0115173Y0114277D03*
X0115173Y0114242D03*
X0115173Y0114207D03*
X0115173Y0114172D03*
X0115173Y0114137D03*
X0115173Y0114102D03*
X0115173Y0114067D03*
X0115173Y0114031D03*
X0115173Y0113996D03*
X0115173Y0113961D03*
X0115173Y0113926D03*
X0115173Y0113891D03*
X0115173Y0113856D03*
X0115173Y0113821D03*
X0115173Y0113786D03*
X0115173Y0113751D03*
X0115173Y0113716D03*
X0115173Y0113681D03*
X0115173Y0113646D03*
X0115173Y0113611D03*
X0115173Y0113576D03*
X0115173Y0113541D03*
X0115173Y0113506D03*
X0115173Y0113471D03*
X0115173Y0113436D03*
X0115173Y0113401D03*
X0115173Y0113366D03*
X0115173Y0113331D03*
X0115173Y0113296D03*
X0115173Y0113261D03*
X0115173Y0113226D03*
X0115173Y0113191D03*
X0115173Y0113156D03*
X0115173Y0113120D03*
X0115173Y0113085D03*
X0115173Y0113050D03*
X0115173Y0113015D03*
X0115173Y0112980D03*
X0115173Y0112945D03*
X0115173Y0112910D03*
X0115173Y0112875D03*
X0115173Y0112840D03*
X0115173Y0112805D03*
X0115173Y0112770D03*
X0115173Y0112735D03*
X0115173Y0112700D03*
X0115173Y0112665D03*
X0115173Y0112630D03*
X0115173Y0112595D03*
X0115173Y0112560D03*
X0115173Y0112525D03*
X0115173Y0112490D03*
X0115173Y0112455D03*
X0115173Y0112420D03*
X0115173Y0112385D03*
X0115173Y0112350D03*
X0115173Y0112315D03*
X0115173Y0112280D03*
X0115173Y0112244D03*
X0115173Y0112209D03*
X0115173Y0112174D03*
X0115173Y0112139D03*
X0115173Y0112104D03*
X0115173Y0112069D03*
X0113772Y0113401D03*
X0113772Y0113436D03*
X0113772Y0113471D03*
X0113772Y0113506D03*
X0113772Y0113541D03*
X0113772Y0113576D03*
X0113772Y0113611D03*
X0113772Y0113646D03*
X0113772Y0113681D03*
X0113772Y0113716D03*
X0113772Y0113751D03*
X0102069Y0114978D03*
X0100982Y0113681D03*
X0100982Y0113646D03*
X0100982Y0113611D03*
X0100982Y0113576D03*
X0093449Y0113576D03*
X0093449Y0113611D03*
X0093449Y0113646D03*
X0093449Y0113681D03*
X0093449Y0113716D03*
X0093449Y0113751D03*
X0093449Y0113786D03*
X0093449Y0113821D03*
X0093449Y0113856D03*
X0093449Y0113891D03*
X0093449Y0113926D03*
X0093449Y0113961D03*
X0093449Y0113996D03*
X0093449Y0114031D03*
X0093449Y0114067D03*
X0093449Y0114102D03*
X0093449Y0114137D03*
X0093449Y0114172D03*
X0093449Y0114207D03*
X0093449Y0114242D03*
X0093449Y0114277D03*
X0093449Y0114312D03*
X0093449Y0114347D03*
X0093449Y0114382D03*
X0093449Y0114417D03*
X0093449Y0114452D03*
X0093449Y0114487D03*
X0093449Y0114522D03*
X0093449Y0114557D03*
X0093449Y0114592D03*
X0093449Y0114627D03*
X0093449Y0115153D03*
X0093449Y0115188D03*
X0093449Y0115223D03*
X0093449Y0115258D03*
X0093449Y0115293D03*
X0093449Y0115328D03*
X0093449Y0115363D03*
X0093449Y0115398D03*
X0093449Y0115433D03*
X0093449Y0115468D03*
X0093449Y0115503D03*
X0093449Y0115538D03*
X0093449Y0115573D03*
X0093449Y0115608D03*
X0093449Y0115643D03*
X0093449Y0115678D03*
X0093449Y0115713D03*
X0093449Y0113541D03*
X0093449Y0113506D03*
X0093449Y0113471D03*
X0093449Y0113436D03*
X0093449Y0113401D03*
X0093449Y0113366D03*
X0093449Y0113331D03*
X0093449Y0113296D03*
X0093449Y0113261D03*
X0093449Y0113226D03*
X0093449Y0113191D03*
X0093449Y0113156D03*
X0093449Y0113120D03*
X0093449Y0113085D03*
X0093449Y0113050D03*
X0093449Y0113015D03*
X0093449Y0112980D03*
X0093449Y0112945D03*
X0093449Y0112910D03*
X0093449Y0112875D03*
X0093449Y0112840D03*
X0093449Y0112805D03*
X0093449Y0112770D03*
X0093449Y0112735D03*
X0093449Y0112700D03*
X0093449Y0112665D03*
X0093449Y0112630D03*
X0093449Y0112595D03*
X0093449Y0112560D03*
X0093449Y0112525D03*
X0093449Y0112490D03*
X0093449Y0112455D03*
X0093449Y0112420D03*
X0093449Y0112385D03*
X0093449Y0112350D03*
X0093449Y0112315D03*
X0093449Y0112280D03*
X0093449Y0112244D03*
X0093449Y0112209D03*
X0093449Y0112174D03*
X0093449Y0112139D03*
X0093449Y0112104D03*
X0093449Y0112069D03*
X0067310Y0114662D03*
X0067310Y0114697D03*
X0067310Y0114732D03*
X0067310Y0114767D03*
X0067310Y0114802D03*
X0067239Y0114452D03*
D124*
X0098144Y0112069D03*
D125*
X0102122Y0112069D03*
D126*
X0112686Y0112069D03*
X0065698Y0122581D03*
D127*
X0080765Y0116204D03*
X0117661Y0112069D03*
D128*
X0122199Y0112104D03*
X0122199Y0112139D03*
X0122199Y0116204D03*
X0124792Y0117851D03*
X0124792Y0117886D03*
X0127385Y0119393D03*
X0108709Y0113926D03*
X0071987Y0113611D03*
X0061791Y0112139D03*
X0061791Y0112104D03*
X0061791Y0116204D03*
X0059023Y0117535D03*
X0059093Y0117676D03*
X0056360Y0118902D03*
X0056360Y0118937D03*
X0056570Y0119322D03*
D129*
X0065435Y0114312D03*
X0070656Y0112104D03*
X0071076Y0112630D03*
X0071252Y0112840D03*
X0072934Y0112560D03*
X0073039Y0112420D03*
X0079696Y0115118D03*
X0081658Y0115538D03*
X0081763Y0115328D03*
X0081763Y0115293D03*
X0081763Y0115258D03*
X0083761Y0114242D03*
X0080782Y0112139D03*
X0096936Y0112980D03*
X0096936Y0115258D03*
X0096936Y0115293D03*
X0097041Y0115468D03*
X0097146Y0115573D03*
X0099108Y0115433D03*
X0104644Y0114207D03*
D130*
X0106957Y0114277D03*
X0110005Y0113191D03*
X0097216Y0112595D03*
X0097006Y0115398D03*
X0097111Y0115538D03*
X0089507Y0114312D03*
X0089507Y0114277D03*
X0081798Y0115153D03*
X0081798Y0115188D03*
X0081798Y0115223D03*
X0081728Y0115363D03*
X0081728Y0115398D03*
X0081728Y0115433D03*
X0081693Y0115468D03*
X0081693Y0115503D03*
X0081623Y0115573D03*
X0081798Y0113226D03*
X0073284Y0112104D03*
X0073179Y0112244D03*
X0073074Y0112385D03*
X0072793Y0112735D03*
X0071217Y0112805D03*
X0071111Y0112665D03*
X0070831Y0112315D03*
X0055309Y0114347D03*
D131*
X0074931Y0114347D03*
X0074966Y0114417D03*
X0075001Y0114452D03*
X0075071Y0114557D03*
X0075106Y0114592D03*
X0075141Y0114627D03*
X0076542Y0114592D03*
X0076578Y0114557D03*
X0076718Y0112700D03*
X0076683Y0112665D03*
X0075877Y0112104D03*
X0075036Y0112560D03*
X0080782Y0112104D03*
X0091434Y0114067D03*
X0091434Y0114102D03*
X0091434Y0114137D03*
X0091434Y0114172D03*
X0091434Y0114207D03*
X0106466Y0115013D03*
X0108463Y0114522D03*
X0108499Y0114592D03*
X0108568Y0114662D03*
X0108604Y0114697D03*
X0110040Y0114662D03*
X0110075Y0114627D03*
X0110215Y0112945D03*
X0110215Y0112910D03*
X0110040Y0112455D03*
X0116733Y0114382D03*
X0116768Y0114417D03*
X0116768Y0114452D03*
X0116803Y0114487D03*
D132*
X0116627Y0114102D03*
X0116698Y0112805D03*
X0116698Y0112770D03*
X0116908Y0112490D03*
X0118344Y0112525D03*
X0118590Y0112945D03*
X0118590Y0112980D03*
X0118590Y0113015D03*
X0118555Y0114172D03*
X0118485Y0114347D03*
X0118275Y0114627D03*
X0111757Y0112665D03*
X0109970Y0112420D03*
X0109935Y0114732D03*
X0108674Y0114732D03*
X0101140Y0112735D03*
X0098162Y0112104D03*
X0081833Y0112770D03*
X0076788Y0112910D03*
X0076788Y0112945D03*
X0076438Y0114662D03*
X0074896Y0114242D03*
X0074896Y0112840D03*
X0074896Y0112805D03*
D133*
X0102086Y0112104D03*
D134*
X0108481Y0112630D03*
X0108481Y0112665D03*
X0108586Y0112490D03*
X0109357Y0112104D03*
X0109357Y0115048D03*
X0116715Y0114347D03*
X0116715Y0114312D03*
X0116715Y0112735D03*
X0116820Y0112560D03*
X0116855Y0112525D03*
X0117661Y0112104D03*
X0118502Y0112735D03*
X0118537Y0112770D03*
X0118537Y0112805D03*
X0118537Y0112840D03*
X0118502Y0114312D03*
X0076770Y0112875D03*
X0076770Y0112840D03*
X0076770Y0112805D03*
X0076665Y0112630D03*
X0075088Y0112525D03*
X0074983Y0112630D03*
X0074983Y0112665D03*
X0074878Y0114207D03*
X0076665Y0114417D03*
X0076665Y0114452D03*
D135*
X0112668Y0112104D03*
D136*
X0072951Y0112525D03*
X0072846Y0112665D03*
X0071164Y0112735D03*
X0070989Y0112525D03*
X0070884Y0112385D03*
X0070779Y0112244D03*
X0070673Y0112139D03*
X0071164Y0114522D03*
X0070989Y0114732D03*
X0070884Y0114872D03*
X0070779Y0115013D03*
D137*
X0075842Y0114907D03*
X0079696Y0115083D03*
X0081553Y0115643D03*
X0079766Y0112945D03*
X0079801Y0112840D03*
X0089542Y0114382D03*
X0096796Y0114767D03*
X0096796Y0114802D03*
X0096796Y0114837D03*
X0096796Y0113541D03*
X0096796Y0113506D03*
X0096796Y0113471D03*
X0096796Y0113436D03*
X0098162Y0112139D03*
X0098968Y0112665D03*
X0099003Y0112700D03*
X0099038Y0112735D03*
X0099178Y0112945D03*
X0099248Y0113085D03*
X0099248Y0113120D03*
X0099283Y0113156D03*
X0099283Y0113191D03*
X0099283Y0113226D03*
X0099283Y0115013D03*
X0099283Y0115048D03*
X0099248Y0115083D03*
X0099248Y0115118D03*
X0099248Y0115153D03*
X0098933Y0115608D03*
X0102086Y0112174D03*
X0104679Y0114312D03*
X0108604Y0113996D03*
X0112633Y0112174D03*
X0117609Y0114907D03*
X0122584Y0114943D03*
X0122584Y0114978D03*
X0122584Y0115013D03*
X0122584Y0115048D03*
X0122584Y0113366D03*
X0122584Y0113331D03*
X0122584Y0113296D03*
X0122584Y0113261D03*
X0128646Y0115188D03*
X0128646Y0115223D03*
X0128436Y0116519D03*
X0128436Y0116554D03*
X0128436Y0116589D03*
X0128436Y0116624D03*
X0128436Y0116659D03*
X0058568Y0116274D03*
X0058497Y0116029D03*
X0058497Y0115994D03*
X0058497Y0115959D03*
X0058497Y0115924D03*
X0058427Y0115713D03*
X0058427Y0115678D03*
X0058427Y0115643D03*
X0058427Y0115608D03*
X0058392Y0115468D03*
X0058392Y0115433D03*
X0058392Y0115398D03*
X0058322Y0114767D03*
X0058322Y0114732D03*
X0055589Y0116694D03*
X0055589Y0116730D03*
X0055589Y0116765D03*
X0055589Y0116800D03*
X0055624Y0116870D03*
X0055624Y0116905D03*
X0055659Y0117010D03*
X0055659Y0117045D03*
X0055729Y0117290D03*
X0055519Y0116484D03*
X0055519Y0116449D03*
X0055519Y0116414D03*
X0055519Y0116379D03*
X0055449Y0116099D03*
X0055449Y0116064D03*
X0055449Y0116029D03*
X0055449Y0115994D03*
X0055414Y0115854D03*
X0055414Y0115819D03*
X0055414Y0115783D03*
X0055379Y0115573D03*
X0055379Y0115538D03*
D138*
X0067310Y0115433D03*
X0067310Y0115398D03*
X0067310Y0115363D03*
X0067310Y0115328D03*
X0074808Y0113226D03*
X0074808Y0113191D03*
X0074808Y0113156D03*
X0076840Y0113226D03*
X0079713Y0115468D03*
X0081886Y0113050D03*
X0081886Y0113015D03*
X0085565Y0114978D03*
X0101298Y0114592D03*
X0103155Y0114102D03*
X0103155Y0114067D03*
X0103155Y0114031D03*
X0103155Y0113085D03*
X0103155Y0113050D03*
X0103155Y0113015D03*
X0102069Y0112139D03*
X0111599Y0113085D03*
X0111599Y0113120D03*
X0111599Y0113996D03*
X0111599Y0114031D03*
X0111599Y0114067D03*
X0111599Y0114102D03*
X0116575Y0113296D03*
X0116575Y0113261D03*
X0116575Y0113226D03*
X0116575Y0113191D03*
X0118678Y0122511D03*
D139*
X0111880Y0114592D03*
X0111564Y0113961D03*
X0111564Y0113926D03*
X0111564Y0113891D03*
X0111564Y0113856D03*
X0111564Y0113821D03*
X0111564Y0113786D03*
X0111564Y0113401D03*
X0111564Y0113366D03*
X0111564Y0113331D03*
X0111564Y0113296D03*
X0111564Y0113261D03*
X0111564Y0113226D03*
X0112651Y0112139D03*
X0113737Y0113050D03*
X0113737Y0113085D03*
X0113737Y0113120D03*
X0113737Y0113961D03*
X0113737Y0113996D03*
X0113737Y0114031D03*
X0103120Y0114172D03*
X0103120Y0112910D03*
X0102805Y0112490D03*
X0101263Y0114557D03*
X0091312Y0114417D03*
X0090961Y0114837D03*
X0079784Y0115573D03*
X0079679Y0115398D03*
X0075229Y0112455D03*
X0065312Y0122511D03*
D140*
X0061773Y0116169D03*
X0058865Y0117150D03*
X0059040Y0117570D03*
X0056202Y0118552D03*
X0056202Y0118587D03*
X0056237Y0118657D03*
X0056237Y0118692D03*
X0075859Y0112174D03*
X0117661Y0112174D03*
X0125125Y0117150D03*
X0124914Y0117641D03*
D141*
X0124950Y0117570D03*
X0124985Y0117500D03*
X0124985Y0117465D03*
X0125019Y0117430D03*
X0125019Y0117395D03*
X0125054Y0117325D03*
X0125089Y0117255D03*
X0122286Y0116029D03*
X0122286Y0115994D03*
X0122251Y0116064D03*
X0122251Y0116099D03*
X0122216Y0116169D03*
X0122182Y0116239D03*
X0122322Y0115924D03*
X0122357Y0112490D03*
X0122322Y0112385D03*
X0122286Y0112315D03*
X0122286Y0112280D03*
X0122251Y0112244D03*
X0122251Y0112209D03*
X0127893Y0118341D03*
X0127858Y0118411D03*
X0127823Y0118481D03*
X0127823Y0118517D03*
X0127788Y0118552D03*
X0127788Y0118587D03*
X0127753Y0118657D03*
X0127753Y0118692D03*
X0127717Y0118727D03*
X0127717Y0118762D03*
X0127682Y0118797D03*
X0127682Y0118832D03*
X0127647Y0118867D03*
X0109322Y0114978D03*
X0109357Y0112174D03*
X0106834Y0114417D03*
X0106448Y0114907D03*
X0104732Y0114382D03*
X0096743Y0114207D03*
X0096743Y0114172D03*
X0096743Y0114137D03*
X0096743Y0114102D03*
X0096743Y0114067D03*
X0096743Y0114031D03*
X0090961Y0114697D03*
X0085565Y0114907D03*
X0071970Y0113646D03*
X0061808Y0116239D03*
X0061738Y0116099D03*
X0061738Y0116064D03*
X0061704Y0116029D03*
X0061704Y0115994D03*
X0061668Y0115924D03*
X0058970Y0117395D03*
X0058970Y0117430D03*
X0059006Y0117465D03*
X0059006Y0117500D03*
X0059076Y0117641D03*
X0056343Y0118867D03*
X0056167Y0118517D03*
X0056167Y0118481D03*
X0056132Y0118411D03*
X0056097Y0118341D03*
X0061668Y0112420D03*
X0061668Y0112385D03*
X0061704Y0112315D03*
X0061704Y0112280D03*
X0061738Y0112244D03*
D142*
X0060144Y0119252D03*
X0060179Y0119287D03*
X0057972Y0121320D03*
X0057937Y0121285D03*
X0080782Y0112209D03*
X0106431Y0114802D03*
X0123811Y0119287D03*
X0123846Y0119252D03*
X0126018Y0121320D03*
D143*
X0126053Y0121285D03*
X0121498Y0117220D03*
X0109304Y0114907D03*
X0098162Y0112209D03*
X0079906Y0114837D03*
X0062492Y0117220D03*
X0062457Y0117185D03*
X0062422Y0117150D03*
X0057866Y0121215D03*
D144*
X0058059Y0121425D03*
X0075859Y0112244D03*
X0109357Y0112244D03*
X0123723Y0119357D03*
X0123758Y0119322D03*
X0125896Y0121460D03*
X0125861Y0121495D03*
D145*
X0128681Y0114347D03*
X0099143Y0115363D03*
X0099073Y0115468D03*
X0097076Y0115503D03*
X0096971Y0115363D03*
X0096971Y0115328D03*
X0096900Y0115223D03*
X0096900Y0115188D03*
X0096866Y0115118D03*
X0096866Y0115083D03*
X0096866Y0113191D03*
X0096866Y0113156D03*
X0096900Y0113085D03*
X0096900Y0113050D03*
X0086038Y0114277D03*
X0086038Y0114312D03*
X0080747Y0116134D03*
X0070972Y0112490D03*
X0070936Y0112455D03*
X0070796Y0112280D03*
D146*
X0071987Y0113331D03*
X0071987Y0113926D03*
X0075842Y0114767D03*
X0075842Y0112280D03*
X0081483Y0113541D03*
X0080748Y0116029D03*
X0062702Y0117430D03*
X0060529Y0119638D03*
X0060565Y0119673D03*
X0060599Y0119708D03*
X0060635Y0119743D03*
X0058427Y0121810D03*
X0109340Y0112280D03*
X0109620Y0113366D03*
X0117644Y0112280D03*
X0121288Y0117430D03*
X0123461Y0119638D03*
X0123425Y0119673D03*
X0123355Y0119743D03*
X0125527Y0121845D03*
D147*
X0119063Y0122371D03*
X0112651Y0112280D03*
X0058410Y0121775D03*
X0058235Y0121600D03*
D148*
X0058865Y0122196D03*
X0058900Y0122231D03*
X0062860Y0117570D03*
X0062825Y0117535D03*
X0064857Y0122336D03*
X0071970Y0113996D03*
X0075860Y0112315D03*
X0085495Y0114697D03*
X0098074Y0116029D03*
X0102069Y0112315D03*
X0106413Y0114697D03*
X0109322Y0114837D03*
D149*
X0117609Y0112420D03*
X0122619Y0120339D03*
X0124371Y0122791D03*
X0124336Y0122826D03*
X0080782Y0112315D03*
X0065926Y0116134D03*
X0059548Y0122756D03*
D150*
X0059058Y0122371D03*
X0060915Y0119988D03*
X0109339Y0112315D03*
X0124932Y0122371D03*
D151*
X0127945Y0118236D03*
X0127945Y0118201D03*
X0127945Y0118166D03*
X0125107Y0117220D03*
X0125107Y0117185D03*
X0125142Y0117115D03*
X0125142Y0117080D03*
X0122304Y0115959D03*
X0122304Y0112350D03*
X0102051Y0114943D03*
X0099318Y0114872D03*
X0096725Y0114277D03*
X0096725Y0114242D03*
X0089577Y0114417D03*
X0061686Y0115959D03*
X0061581Y0115713D03*
X0061581Y0115678D03*
X0061511Y0115468D03*
X0061511Y0112840D03*
X0061581Y0112665D03*
X0061581Y0112630D03*
X0061581Y0112595D03*
X0061686Y0112350D03*
X0058813Y0117010D03*
X0058813Y0117045D03*
X0055974Y0117991D03*
X0055974Y0118026D03*
X0055974Y0118061D03*
X0056220Y0118622D03*
D152*
X0067099Y0114277D03*
X0070849Y0114907D03*
X0071304Y0112910D03*
X0070849Y0112350D03*
X0073091Y0112350D03*
X0086056Y0114242D03*
D153*
X0081185Y0113716D03*
X0080765Y0112350D03*
X0071970Y0113050D03*
X0071970Y0114207D03*
X0120675Y0117886D03*
X0122427Y0120479D03*
X0124144Y0122967D03*
D154*
X0124021Y0123037D03*
X0122304Y0120549D03*
X0098127Y0112350D03*
X0061686Y0120549D03*
D155*
X0064612Y0122196D03*
X0080765Y0112385D03*
X0098074Y0115889D03*
X0102069Y0114662D03*
D156*
X0102086Y0114767D03*
X0117609Y0112385D03*
X0122724Y0120269D03*
X0059373Y0122616D03*
D157*
X0059619Y0122791D03*
X0061370Y0120339D03*
X0064735Y0122266D03*
X0075842Y0112420D03*
X0120833Y0117781D03*
X0122585Y0120374D03*
X0124441Y0122756D03*
D158*
X0122076Y0120689D03*
X0098074Y0115854D03*
X0080765Y0112420D03*
X0063525Y0117991D03*
D159*
X0063263Y0117851D03*
X0059759Y0122896D03*
X0102086Y0112420D03*
X0117609Y0112455D03*
D160*
X0116628Y0112980D03*
X0116628Y0113015D03*
X0116628Y0113050D03*
X0116593Y0113156D03*
X0113684Y0112910D03*
X0113684Y0112875D03*
X0113369Y0112490D03*
X0113684Y0114207D03*
X0113684Y0114242D03*
X0113474Y0114557D03*
X0111827Y0114557D03*
X0111617Y0114207D03*
X0111617Y0114172D03*
X0111617Y0114137D03*
X0111617Y0113050D03*
X0111617Y0113015D03*
X0111617Y0112980D03*
X0108709Y0112420D03*
X0108463Y0114172D03*
X0103067Y0114312D03*
X0102857Y0114592D03*
X0103067Y0112770D03*
X0102857Y0112525D03*
X0101315Y0112525D03*
X0081728Y0112630D03*
X0074861Y0112945D03*
X0067257Y0115538D03*
X0067257Y0115573D03*
X0067152Y0115748D03*
D161*
X0065978Y0116099D03*
X0059916Y0123002D03*
X0080239Y0114662D03*
X0112651Y0112420D03*
D162*
X0112633Y0114943D03*
X0122339Y0115854D03*
X0122339Y0115889D03*
X0122374Y0115819D03*
X0122374Y0115783D03*
X0122444Y0115573D03*
X0122479Y0115468D03*
X0122479Y0112840D03*
X0122444Y0112735D03*
X0122374Y0112560D03*
X0122374Y0112525D03*
X0122339Y0112455D03*
X0122339Y0112420D03*
X0125282Y0116730D03*
X0125177Y0117010D03*
X0125177Y0117045D03*
X0125072Y0117290D03*
X0125037Y0117360D03*
X0127770Y0118622D03*
X0127875Y0118376D03*
X0127910Y0118306D03*
X0127910Y0118271D03*
X0127981Y0118131D03*
X0127981Y0118096D03*
X0128016Y0118061D03*
X0128016Y0118026D03*
X0128016Y0117991D03*
X0128085Y0117851D03*
X0128085Y0117816D03*
X0128120Y0117746D03*
X0128120Y0117711D03*
X0085933Y0114417D03*
X0083831Y0114382D03*
X0081728Y0113331D03*
X0079941Y0112630D03*
X0061616Y0112560D03*
X0061616Y0112525D03*
X0061616Y0115783D03*
X0061616Y0115819D03*
X0058778Y0116905D03*
X0058778Y0116940D03*
X0058778Y0116975D03*
X0058742Y0116870D03*
X0058742Y0116835D03*
X0058707Y0116730D03*
X0058848Y0117080D03*
X0058848Y0117115D03*
X0058883Y0117185D03*
X0058883Y0117220D03*
X0056044Y0118166D03*
X0056044Y0118201D03*
X0056044Y0118236D03*
X0056080Y0118271D03*
X0056080Y0118306D03*
X0056115Y0118376D03*
X0056009Y0118131D03*
X0056009Y0118096D03*
D163*
X0055939Y0117956D03*
X0055939Y0117921D03*
X0055904Y0117851D03*
X0055904Y0117816D03*
X0055869Y0117746D03*
X0055869Y0117711D03*
X0056150Y0118446D03*
X0058918Y0117290D03*
X0058953Y0117360D03*
X0061651Y0115889D03*
X0061651Y0115854D03*
X0061546Y0115608D03*
X0061546Y0115573D03*
X0061546Y0112735D03*
X0061651Y0112455D03*
X0065505Y0116274D03*
X0079731Y0115013D03*
X0079731Y0113226D03*
X0079731Y0113191D03*
X0079731Y0113156D03*
X0096760Y0113751D03*
X0096760Y0113786D03*
X0096760Y0113821D03*
X0096760Y0113856D03*
X0096760Y0113891D03*
X0096760Y0113926D03*
X0096760Y0113961D03*
X0096760Y0113996D03*
X0099353Y0113506D03*
X0099353Y0113471D03*
X0099353Y0113436D03*
X0099388Y0113576D03*
X0099353Y0114627D03*
X0099353Y0114662D03*
X0099353Y0114697D03*
X0099353Y0114732D03*
X0122409Y0115678D03*
X0122409Y0115713D03*
X0125212Y0116905D03*
X0125212Y0116940D03*
X0125212Y0116975D03*
X0125247Y0116870D03*
X0125247Y0116835D03*
X0128050Y0117921D03*
X0128050Y0117956D03*
X0127840Y0118446D03*
X0122409Y0112665D03*
X0122409Y0112630D03*
X0122409Y0112595D03*
D164*
X0116557Y0113331D03*
X0116557Y0113366D03*
X0116557Y0113401D03*
X0116557Y0113436D03*
X0116557Y0113471D03*
X0116557Y0113506D03*
X0113754Y0113366D03*
X0113754Y0113331D03*
X0113754Y0113296D03*
X0113754Y0113261D03*
X0113754Y0113226D03*
X0113754Y0113191D03*
X0113754Y0113156D03*
X0113754Y0113786D03*
X0113754Y0113821D03*
X0113754Y0113856D03*
X0113754Y0113891D03*
X0113754Y0113926D03*
X0113720Y0114067D03*
X0113369Y0114627D03*
X0112633Y0114978D03*
X0111547Y0113751D03*
X0111547Y0113716D03*
X0111547Y0113681D03*
X0111547Y0113646D03*
X0111547Y0113611D03*
X0111547Y0113576D03*
X0111547Y0113541D03*
X0111547Y0113506D03*
X0111547Y0113471D03*
X0111547Y0113436D03*
X0111968Y0112490D03*
X0110110Y0113120D03*
X0108499Y0114102D03*
X0106466Y0114978D03*
X0103172Y0113996D03*
X0103172Y0113961D03*
X0103172Y0113926D03*
X0103172Y0113891D03*
X0103172Y0113856D03*
X0103172Y0113261D03*
X0103172Y0113226D03*
X0103172Y0113191D03*
X0103172Y0113156D03*
X0103172Y0113120D03*
X0102787Y0114627D03*
X0101000Y0113926D03*
X0101000Y0113891D03*
X0101000Y0113856D03*
X0101000Y0113821D03*
X0101000Y0113786D03*
X0101000Y0113751D03*
X0101000Y0113716D03*
X0101000Y0113541D03*
X0101000Y0113506D03*
X0101000Y0113471D03*
X0101000Y0113436D03*
X0101000Y0113401D03*
X0101000Y0113366D03*
X0101000Y0113331D03*
X0101000Y0113296D03*
X0101000Y0113261D03*
X0101385Y0112490D03*
X0081868Y0113085D03*
X0081868Y0115118D03*
X0079801Y0115608D03*
X0079731Y0115503D03*
X0079696Y0115433D03*
X0079661Y0115363D03*
X0079661Y0115328D03*
X0079661Y0115293D03*
X0076437Y0112455D03*
X0074791Y0113261D03*
X0074791Y0113296D03*
X0074791Y0113331D03*
X0074791Y0113366D03*
X0074791Y0113401D03*
X0074791Y0113436D03*
X0074791Y0113471D03*
X0074791Y0113506D03*
X0075842Y0114943D03*
X0067327Y0114943D03*
X0067327Y0114978D03*
X0067327Y0115013D03*
X0067327Y0115048D03*
X0067327Y0115083D03*
X0067327Y0115118D03*
X0067327Y0115153D03*
X0067327Y0115188D03*
X0067327Y0115223D03*
X0067327Y0115258D03*
X0067327Y0115293D03*
X0067327Y0114907D03*
X0067327Y0114872D03*
X0067327Y0114837D03*
X0067292Y0114627D03*
X0067292Y0114592D03*
X0067257Y0114487D03*
X0067222Y0114417D03*
D165*
X0066118Y0114031D03*
X0066118Y0115959D03*
X0061984Y0120724D03*
X0060547Y0123387D03*
X0060477Y0123352D03*
X0080449Y0114487D03*
X0080765Y0112455D03*
X0121936Y0120759D03*
X0123443Y0123387D03*
D166*
X0121866Y0120794D03*
X0119483Y0122126D03*
X0098109Y0112455D03*
D167*
X0102069Y0112455D03*
X0112651Y0112455D03*
X0122251Y0120584D03*
X0080274Y0114627D03*
X0071970Y0113015D03*
X0066013Y0113926D03*
X0066013Y0116064D03*
D168*
X0074931Y0112770D03*
X0074931Y0112735D03*
X0075141Y0112490D03*
X0076718Y0114312D03*
X0108428Y0114242D03*
X0108639Y0112455D03*
X0110180Y0113015D03*
X0113544Y0112630D03*
X0113544Y0114487D03*
X0116663Y0114207D03*
X0116663Y0114172D03*
X0116663Y0112875D03*
D169*
X0061633Y0112490D03*
X0058900Y0117255D03*
X0058935Y0117325D03*
X0056272Y0118727D03*
X0056272Y0118762D03*
X0056307Y0118797D03*
X0056307Y0118832D03*
D170*
X0067204Y0115678D03*
X0067240Y0115608D03*
X0074843Y0114102D03*
X0074843Y0114067D03*
X0074843Y0114031D03*
X0074843Y0113015D03*
X0074843Y0112980D03*
X0074878Y0112910D03*
X0074878Y0112875D03*
X0076525Y0112490D03*
X0076805Y0112980D03*
X0076805Y0113015D03*
X0076805Y0113050D03*
X0076770Y0114137D03*
X0076770Y0114172D03*
X0081781Y0112665D03*
X0081816Y0112735D03*
X0081851Y0112805D03*
X0081851Y0112840D03*
X0081851Y0112875D03*
X0091347Y0114382D03*
X0101088Y0114312D03*
X0101088Y0114277D03*
X0101123Y0114347D03*
X0101123Y0114382D03*
X0101158Y0114417D03*
X0101158Y0114452D03*
X0101193Y0114487D03*
X0101228Y0114522D03*
X0101052Y0112980D03*
X0101052Y0112945D03*
X0101088Y0112875D03*
X0101088Y0112840D03*
X0101123Y0112805D03*
X0101123Y0112770D03*
X0101158Y0112700D03*
X0101193Y0112665D03*
X0101228Y0112630D03*
X0102910Y0112560D03*
X0102945Y0112595D03*
X0102980Y0112630D03*
X0103015Y0112665D03*
X0103015Y0112700D03*
X0103050Y0112735D03*
X0103085Y0112805D03*
X0103050Y0114347D03*
X0103050Y0114382D03*
X0103015Y0114417D03*
X0103015Y0114452D03*
X0102980Y0114487D03*
X0102945Y0114522D03*
X0102910Y0114557D03*
X0108446Y0114207D03*
X0110163Y0113050D03*
X0111634Y0112945D03*
X0111634Y0112910D03*
X0111669Y0112840D03*
X0111669Y0112805D03*
X0111705Y0112770D03*
X0111705Y0112735D03*
X0111739Y0112700D03*
X0111774Y0112630D03*
X0111810Y0112595D03*
X0111845Y0112560D03*
X0113491Y0112560D03*
X0113526Y0112595D03*
X0113562Y0112665D03*
X0113597Y0112700D03*
X0113632Y0112735D03*
X0113632Y0112770D03*
X0113667Y0112840D03*
X0113632Y0114347D03*
X0113597Y0114417D03*
X0113562Y0114452D03*
X0113526Y0114522D03*
X0111774Y0114487D03*
X0111739Y0114452D03*
X0111705Y0114417D03*
X0111705Y0114382D03*
X0111669Y0114347D03*
X0111669Y0114312D03*
X0111634Y0114242D03*
X0116645Y0114137D03*
X0116645Y0112945D03*
X0116645Y0112910D03*
X0116680Y0112840D03*
X0118607Y0113050D03*
X0118607Y0113085D03*
X0118607Y0113120D03*
X0118572Y0114067D03*
X0118572Y0114102D03*
X0118572Y0114137D03*
X0118537Y0114207D03*
X0118222Y0114662D03*
D171*
X0119519Y0122091D03*
X0098109Y0112490D03*
X0080800Y0114102D03*
X0080660Y0114242D03*
X0066188Y0114137D03*
X0066188Y0115854D03*
D172*
X0075053Y0114522D03*
X0108446Y0114487D03*
X0110093Y0114592D03*
X0110198Y0114417D03*
X0110198Y0114382D03*
X0110093Y0112490D03*
X0116820Y0114522D03*
X0116856Y0114557D03*
D173*
X0116610Y0114067D03*
X0116610Y0114031D03*
X0118292Y0112490D03*
X0098074Y0116204D03*
D174*
X0091364Y0114347D03*
X0081798Y0112700D03*
X0076578Y0112525D03*
X0076753Y0114207D03*
X0076753Y0114242D03*
X0074861Y0114172D03*
X0074861Y0114137D03*
X0116733Y0112700D03*
X0118520Y0114242D03*
X0118520Y0114277D03*
D175*
X0080747Y0115713D03*
X0080747Y0112525D03*
X0062246Y0120864D03*
X0060810Y0123527D03*
D176*
X0062334Y0120899D03*
X0063771Y0118096D03*
X0098110Y0112525D03*
X0123127Y0123562D03*
D177*
X0118432Y0114452D03*
X0116996Y0114662D03*
X0116680Y0114277D03*
X0116680Y0114242D03*
X0116785Y0112630D03*
X0116785Y0112595D03*
X0118397Y0112560D03*
X0118432Y0112595D03*
X0108551Y0112525D03*
X0108516Y0112595D03*
X0108446Y0112700D03*
X0108446Y0112735D03*
X0108446Y0112770D03*
X0108411Y0112805D03*
X0108411Y0112840D03*
X0108411Y0112875D03*
X0108411Y0112910D03*
X0108411Y0112945D03*
X0108411Y0112980D03*
X0108411Y0113015D03*
X0108411Y0114277D03*
X0108411Y0114312D03*
X0108411Y0114347D03*
X0091417Y0114277D03*
X0091417Y0114242D03*
X0090961Y0114872D03*
X0080765Y0116169D03*
X0076700Y0114382D03*
X0076700Y0114347D03*
X0075229Y0114662D03*
X0074913Y0114312D03*
X0074913Y0114277D03*
X0075018Y0112595D03*
D178*
X0085565Y0115013D03*
X0108481Y0114557D03*
X0110128Y0114557D03*
X0110233Y0114312D03*
X0110233Y0114277D03*
X0110233Y0114242D03*
X0110233Y0112875D03*
X0110233Y0112840D03*
X0110233Y0112805D03*
X0110233Y0112770D03*
X0110128Y0112525D03*
D179*
X0111582Y0113156D03*
X0111582Y0113191D03*
X0111897Y0112525D03*
X0113649Y0112805D03*
X0113649Y0114277D03*
X0113649Y0114312D03*
X0113439Y0114592D03*
X0111792Y0114522D03*
X0118625Y0113226D03*
X0118625Y0113191D03*
X0118625Y0113156D03*
X0103137Y0112980D03*
X0103137Y0112945D03*
X0103137Y0114137D03*
X0101070Y0114207D03*
X0101070Y0114242D03*
X0101070Y0112910D03*
X0101280Y0112560D03*
X0081869Y0112910D03*
X0081869Y0112945D03*
X0081869Y0112980D03*
X0076823Y0113085D03*
X0076823Y0113120D03*
X0076823Y0113156D03*
X0076823Y0113191D03*
X0074826Y0113120D03*
X0074826Y0113085D03*
X0074826Y0113050D03*
X0067222Y0115643D03*
X0067117Y0115783D03*
D180*
X0113422Y0112525D03*
D181*
X0116750Y0112665D03*
X0118467Y0112665D03*
X0118572Y0112875D03*
X0118572Y0112910D03*
X0118467Y0114382D03*
X0118467Y0114417D03*
X0118362Y0114557D03*
X0118327Y0114592D03*
X0110198Y0112980D03*
X0091382Y0114312D03*
X0076735Y0114277D03*
X0076630Y0114487D03*
X0076595Y0114522D03*
X0076490Y0114627D03*
X0074948Y0114382D03*
X0074948Y0112700D03*
X0076595Y0112560D03*
X0076630Y0112595D03*
X0076735Y0112735D03*
X0076735Y0112770D03*
D182*
X0080748Y0112560D03*
X0090313Y0114592D03*
X0090313Y0114627D03*
X0066241Y0114242D03*
X0066241Y0114207D03*
X0060950Y0123597D03*
D183*
X0062422Y0120934D03*
X0064384Y0122020D03*
X0090348Y0114487D03*
X0098057Y0115678D03*
X0098092Y0112560D03*
X0121568Y0120934D03*
X0122900Y0123667D03*
D184*
X0118380Y0114522D03*
X0118415Y0114487D03*
X0118450Y0112630D03*
X0108534Y0112560D03*
X0108428Y0114382D03*
X0108428Y0114417D03*
X0108428Y0114452D03*
X0108534Y0114627D03*
D185*
X0110145Y0114522D03*
X0110250Y0114207D03*
X0110250Y0114172D03*
X0110145Y0112560D03*
X0117609Y0114978D03*
X0118555Y0125559D03*
X0075842Y0114978D03*
D186*
X0076788Y0114102D03*
X0076788Y0114067D03*
X0076788Y0114031D03*
X0081694Y0112595D03*
X0067187Y0115713D03*
X0101035Y0114172D03*
X0101035Y0114137D03*
X0101035Y0114102D03*
X0101035Y0113085D03*
X0101035Y0113050D03*
X0101035Y0113015D03*
X0101245Y0112595D03*
X0103102Y0112840D03*
X0103102Y0112875D03*
X0103102Y0114207D03*
X0103102Y0114242D03*
X0103102Y0114277D03*
X0111652Y0114277D03*
X0111652Y0112875D03*
X0113719Y0113015D03*
X0113614Y0114382D03*
X0118590Y0114031D03*
D187*
X0110180Y0114452D03*
X0110180Y0112630D03*
X0110180Y0112595D03*
X0065435Y0125559D03*
D188*
X0058725Y0116800D03*
X0058725Y0116765D03*
X0058655Y0116624D03*
X0058655Y0116589D03*
X0058655Y0116554D03*
X0058620Y0116484D03*
X0058620Y0116449D03*
X0055712Y0117185D03*
X0055712Y0117220D03*
X0055712Y0117255D03*
X0055676Y0117115D03*
X0055676Y0117080D03*
X0055782Y0117430D03*
X0055782Y0117465D03*
X0055782Y0117500D03*
X0055817Y0117535D03*
X0055817Y0117570D03*
X0055817Y0117606D03*
X0055852Y0117641D03*
X0055852Y0117676D03*
X0061598Y0115748D03*
X0061563Y0115643D03*
X0061528Y0115538D03*
X0061528Y0115503D03*
X0061493Y0115433D03*
X0061493Y0115398D03*
X0061493Y0115363D03*
X0061458Y0115293D03*
X0061458Y0115258D03*
X0061458Y0115223D03*
X0061423Y0115118D03*
X0061423Y0115083D03*
X0061423Y0113226D03*
X0061423Y0113191D03*
X0061458Y0113085D03*
X0061458Y0113050D03*
X0061458Y0113015D03*
X0061493Y0112945D03*
X0061493Y0112910D03*
X0061493Y0112875D03*
X0061528Y0112805D03*
X0061528Y0112770D03*
X0061563Y0112700D03*
X0065487Y0114277D03*
X0085986Y0114382D03*
X0096743Y0114382D03*
X0096743Y0114417D03*
X0096743Y0114452D03*
X0096743Y0114487D03*
X0096743Y0114522D03*
X0096743Y0114557D03*
X0096743Y0114347D03*
X0096743Y0114312D03*
X0097198Y0115608D03*
X0099301Y0114978D03*
X0099301Y0114943D03*
X0099301Y0114907D03*
X0099336Y0114837D03*
X0099336Y0114802D03*
X0099336Y0114767D03*
X0099336Y0113401D03*
X0099336Y0113366D03*
X0099336Y0113331D03*
X0099301Y0113261D03*
X0098915Y0112630D03*
X0122461Y0112770D03*
X0122461Y0112805D03*
X0122461Y0115503D03*
X0122461Y0115538D03*
X0125405Y0116309D03*
X0125405Y0116344D03*
X0125405Y0116379D03*
X0125300Y0116659D03*
X0125300Y0116694D03*
X0128208Y0117430D03*
X0128208Y0117465D03*
X0128208Y0117500D03*
X0128103Y0117781D03*
X0128313Y0117115D03*
X0128313Y0117080D03*
D189*
X0128278Y0117185D03*
X0128278Y0117220D03*
X0128278Y0117255D03*
X0128243Y0117325D03*
X0128243Y0117360D03*
X0128243Y0117395D03*
X0128068Y0117886D03*
X0125265Y0116800D03*
X0125265Y0116765D03*
X0125440Y0116204D03*
X0125475Y0116064D03*
X0122427Y0115643D03*
X0122427Y0115608D03*
X0122392Y0115748D03*
X0122602Y0114907D03*
X0122602Y0113436D03*
X0122602Y0113401D03*
X0122427Y0112700D03*
X0106869Y0114382D03*
X0104697Y0114347D03*
X0099371Y0113541D03*
X0096778Y0113576D03*
X0096778Y0113611D03*
X0096778Y0113646D03*
X0096778Y0113681D03*
X0096778Y0113716D03*
X0096778Y0114592D03*
X0096778Y0114627D03*
X0096778Y0114662D03*
X0096778Y0114697D03*
X0096778Y0114732D03*
X0083813Y0114347D03*
X0081501Y0115678D03*
X0079714Y0115048D03*
X0079749Y0113120D03*
X0079749Y0113085D03*
X0079749Y0113050D03*
X0079749Y0113015D03*
X0079749Y0112980D03*
X0079819Y0112805D03*
X0079854Y0112735D03*
X0079924Y0112665D03*
X0058690Y0116659D03*
X0058690Y0116694D03*
X0058550Y0116239D03*
X0058550Y0116204D03*
X0058515Y0116064D03*
X0055607Y0116835D03*
X0055887Y0117781D03*
X0055922Y0117886D03*
D190*
X0110215Y0114347D03*
X0110215Y0112735D03*
X0110215Y0112700D03*
X0110215Y0112665D03*
D191*
X0109953Y0113226D03*
X0108656Y0113961D03*
X0122497Y0112945D03*
X0122497Y0112910D03*
X0122497Y0112875D03*
X0122532Y0113015D03*
X0122532Y0113050D03*
X0122532Y0113085D03*
X0122567Y0113191D03*
X0122567Y0113226D03*
X0122567Y0115083D03*
X0122567Y0115118D03*
X0122532Y0115223D03*
X0122532Y0115258D03*
X0122532Y0115293D03*
X0122497Y0115363D03*
X0122497Y0115398D03*
X0122497Y0115433D03*
X0125370Y0116449D03*
X0125370Y0116484D03*
X0125335Y0116554D03*
X0125335Y0116589D03*
X0125335Y0116624D03*
X0128173Y0117535D03*
X0128173Y0117570D03*
X0128173Y0117606D03*
X0128138Y0117641D03*
X0128138Y0117676D03*
X0128348Y0116975D03*
X0128348Y0116940D03*
X0128383Y0116835D03*
X0090961Y0114732D03*
X0079889Y0112700D03*
X0079784Y0112875D03*
X0079784Y0112910D03*
X0061388Y0113401D03*
X0061388Y0113436D03*
X0061388Y0114907D03*
X0058585Y0116309D03*
X0058585Y0116344D03*
X0058585Y0116379D03*
X0055747Y0117325D03*
X0055747Y0117360D03*
X0055747Y0117395D03*
X0055642Y0116975D03*
X0055642Y0116940D03*
D192*
X0065260Y0125524D03*
X0067152Y0114312D03*
X0071111Y0114592D03*
X0071217Y0114452D03*
X0072688Y0114382D03*
X0072793Y0114487D03*
X0072793Y0114522D03*
X0072898Y0114627D03*
X0073004Y0114767D03*
X0073179Y0115013D03*
X0097006Y0112840D03*
X0097111Y0112700D03*
X0109339Y0115013D03*
D193*
X0110005Y0114697D03*
X0116943Y0114627D03*
X0118485Y0112700D03*
D194*
X0122619Y0113471D03*
X0122619Y0113506D03*
X0122619Y0113541D03*
X0122619Y0113576D03*
X0122619Y0113611D03*
X0122619Y0113646D03*
X0122619Y0113681D03*
X0122654Y0113751D03*
X0122654Y0113786D03*
X0122654Y0113821D03*
X0122654Y0113856D03*
X0122654Y0113891D03*
X0122654Y0113926D03*
X0122654Y0113961D03*
X0122654Y0113996D03*
X0122654Y0114031D03*
X0122654Y0114067D03*
X0122654Y0114102D03*
X0122654Y0114137D03*
X0122654Y0114172D03*
X0122654Y0114207D03*
X0122654Y0114242D03*
X0122654Y0114277D03*
X0122654Y0114312D03*
X0122654Y0114347D03*
X0122654Y0114382D03*
X0122654Y0114417D03*
X0122654Y0114452D03*
X0122654Y0114487D03*
X0122654Y0114522D03*
X0122654Y0114557D03*
X0122619Y0114662D03*
X0122619Y0114697D03*
X0122619Y0114732D03*
X0122619Y0114767D03*
X0122619Y0114802D03*
X0122619Y0114837D03*
X0122619Y0114872D03*
X0125493Y0115924D03*
X0125493Y0115959D03*
X0125493Y0115994D03*
X0125493Y0116029D03*
X0125458Y0116099D03*
X0125458Y0116134D03*
X0125458Y0116169D03*
X0125423Y0116239D03*
X0125423Y0116274D03*
X0125633Y0115188D03*
X0125633Y0115153D03*
X0125633Y0115118D03*
X0125668Y0114767D03*
X0125668Y0114732D03*
X0128506Y0116204D03*
X0128506Y0116239D03*
X0128506Y0116274D03*
X0128506Y0116309D03*
X0128471Y0116379D03*
X0128471Y0116414D03*
X0128471Y0116449D03*
X0128471Y0116484D03*
X0128296Y0117150D03*
X0128261Y0117290D03*
X0099213Y0115223D03*
X0099318Y0113296D03*
X0099213Y0113015D03*
X0096830Y0113331D03*
X0096830Y0114978D03*
X0083796Y0114312D03*
X0079836Y0112770D03*
X0065190Y0122476D03*
X0058637Y0116519D03*
X0058532Y0116169D03*
X0058532Y0116134D03*
X0058532Y0116099D03*
X0058462Y0115889D03*
X0058462Y0115854D03*
X0058462Y0115819D03*
X0058462Y0115783D03*
X0061441Y0115188D03*
X0061441Y0115153D03*
X0061336Y0114557D03*
X0061336Y0114522D03*
X0061336Y0114487D03*
X0061336Y0114452D03*
X0061336Y0114417D03*
X0061336Y0114382D03*
X0061336Y0114347D03*
X0061336Y0114312D03*
X0061336Y0114277D03*
X0061336Y0114242D03*
X0061336Y0114207D03*
X0061336Y0114172D03*
X0061336Y0114137D03*
X0061336Y0114102D03*
X0061336Y0114067D03*
X0061336Y0114031D03*
X0061336Y0113996D03*
X0061336Y0113961D03*
X0061336Y0113926D03*
X0061336Y0113891D03*
X0061336Y0113856D03*
X0061336Y0113821D03*
X0061336Y0113786D03*
X0061336Y0113751D03*
X0061441Y0113156D03*
X0061441Y0113120D03*
D195*
X0070831Y0114943D03*
X0070936Y0114802D03*
X0071076Y0114627D03*
X0071252Y0114417D03*
X0072653Y0114347D03*
X0072653Y0114312D03*
X0072758Y0114452D03*
X0073039Y0114802D03*
X0073039Y0114837D03*
X0073144Y0114943D03*
X0097041Y0112770D03*
X0108534Y0114067D03*
X0118730Y0125524D03*
D196*
X0122129Y0120654D03*
X0123705Y0123247D03*
X0080748Y0115854D03*
X0080362Y0114557D03*
X0081098Y0113786D03*
X0071987Y0112945D03*
X0066066Y0113961D03*
X0066066Y0116029D03*
X0061861Y0120654D03*
D197*
X0067064Y0115819D03*
X0067275Y0115503D03*
X0067275Y0115468D03*
X0079749Y0115538D03*
X0101018Y0114067D03*
X0101018Y0114031D03*
X0101018Y0113996D03*
X0101018Y0113961D03*
X0101018Y0113226D03*
X0101018Y0113191D03*
X0101018Y0113156D03*
X0101018Y0113120D03*
X0108481Y0114137D03*
X0110128Y0113085D03*
X0113702Y0112980D03*
X0113702Y0112945D03*
X0113702Y0114102D03*
X0113702Y0114137D03*
X0113702Y0114172D03*
X0116610Y0113120D03*
X0116610Y0113085D03*
D198*
X0122514Y0112980D03*
X0122549Y0113120D03*
X0122549Y0113156D03*
X0122549Y0115153D03*
X0122549Y0115188D03*
X0122514Y0115328D03*
X0125528Y0115783D03*
X0125528Y0115819D03*
X0125528Y0115854D03*
X0125528Y0115889D03*
X0125563Y0115713D03*
X0125563Y0115678D03*
X0125563Y0115643D03*
X0125563Y0115608D03*
X0125598Y0115468D03*
X0125598Y0115433D03*
X0125598Y0115398D03*
X0125387Y0116414D03*
X0125352Y0116519D03*
X0128331Y0117010D03*
X0128331Y0117045D03*
X0128366Y0116905D03*
X0128366Y0116870D03*
X0128401Y0116800D03*
X0128401Y0116765D03*
X0128401Y0116730D03*
X0128401Y0116694D03*
X0128541Y0116099D03*
X0128541Y0116064D03*
X0128541Y0116029D03*
X0128541Y0115994D03*
X0128576Y0115854D03*
X0128576Y0115819D03*
X0128576Y0115783D03*
X0128611Y0115573D03*
X0128611Y0115538D03*
X0128611Y0115503D03*
X0086003Y0114347D03*
X0081763Y0113296D03*
X0061476Y0112980D03*
X0061406Y0113261D03*
X0061406Y0113296D03*
X0061406Y0113331D03*
X0061406Y0113366D03*
X0061371Y0113471D03*
X0061371Y0113506D03*
X0061371Y0113541D03*
X0061371Y0113576D03*
X0061371Y0113611D03*
X0061371Y0113646D03*
X0061371Y0113681D03*
X0061371Y0114662D03*
X0061371Y0114697D03*
X0061371Y0114732D03*
X0061371Y0114767D03*
X0061371Y0114802D03*
X0061371Y0114837D03*
X0061371Y0114872D03*
X0061406Y0114943D03*
X0061406Y0114978D03*
X0061406Y0115013D03*
X0061406Y0115048D03*
X0061476Y0115328D03*
X0058602Y0116414D03*
X0058357Y0115188D03*
X0058357Y0115153D03*
X0058357Y0115118D03*
X0055694Y0117150D03*
X0055554Y0116659D03*
X0055554Y0116624D03*
X0055554Y0116589D03*
X0055554Y0116554D03*
X0055484Y0116309D03*
X0055484Y0116274D03*
X0055484Y0116239D03*
X0055484Y0116204D03*
X0055344Y0115223D03*
X0055344Y0115188D03*
D199*
X0059286Y0122546D03*
X0071970Y0114067D03*
X0071970Y0113191D03*
X0109217Y0113646D03*
X0109322Y0113576D03*
X0122777Y0120233D03*
X0122812Y0120198D03*
D200*
X0079381Y0113261D03*
D201*
X0081781Y0113261D03*
X0083778Y0114277D03*
X0081606Y0115608D03*
X0099020Y0115538D03*
X0104661Y0114277D03*
X0104661Y0114242D03*
X0106939Y0114312D03*
X0118783Y0122476D03*
X0125615Y0115363D03*
X0125615Y0115328D03*
X0125615Y0115293D03*
X0125615Y0115258D03*
X0125615Y0115223D03*
X0128628Y0115258D03*
X0128628Y0115293D03*
X0128628Y0115328D03*
X0128628Y0115363D03*
X0128628Y0115398D03*
X0128628Y0115433D03*
X0128628Y0115468D03*
X0128663Y0115153D03*
X0128663Y0115118D03*
X0128663Y0115083D03*
X0128663Y0115048D03*
X0128663Y0115013D03*
X0128663Y0114978D03*
X0128663Y0114943D03*
X0128663Y0114907D03*
X0128663Y0114872D03*
X0128663Y0114837D03*
X0128663Y0114802D03*
X0128663Y0114767D03*
X0128663Y0114732D03*
X0128663Y0114697D03*
X0128663Y0114662D03*
X0128663Y0114627D03*
X0128663Y0114592D03*
X0128663Y0114557D03*
X0128663Y0114522D03*
X0128663Y0114487D03*
X0128663Y0114452D03*
X0128663Y0114417D03*
X0128663Y0114382D03*
X0128524Y0116134D03*
X0128524Y0116169D03*
X0061353Y0114627D03*
X0061353Y0114592D03*
X0061353Y0113716D03*
X0058445Y0115748D03*
X0055537Y0116519D03*
X0055361Y0115503D03*
X0055361Y0115468D03*
X0055361Y0115433D03*
X0055361Y0115398D03*
X0055361Y0115363D03*
X0055361Y0115328D03*
X0055361Y0115293D03*
X0055361Y0115258D03*
X0055326Y0115153D03*
X0055326Y0115118D03*
X0055326Y0115083D03*
X0055326Y0115048D03*
X0055326Y0115013D03*
X0055326Y0114978D03*
X0055326Y0114943D03*
X0055326Y0114907D03*
X0055326Y0114872D03*
X0055326Y0114837D03*
X0055326Y0114802D03*
X0055326Y0114767D03*
X0055326Y0114732D03*
X0055326Y0114697D03*
X0055326Y0114662D03*
X0055326Y0114627D03*
X0055326Y0114592D03*
X0055326Y0114557D03*
X0055326Y0114522D03*
X0055326Y0114487D03*
X0055326Y0114452D03*
X0055326Y0114417D03*
X0055326Y0114382D03*
D202*
X0060319Y0119428D03*
X0060424Y0119533D03*
X0064945Y0122371D03*
X0109690Y0113331D03*
X0123706Y0119393D03*
D203*
X0119711Y0121950D03*
X0075807Y0113751D03*
X0075807Y0113716D03*
X0075807Y0113681D03*
X0075807Y0113646D03*
X0075807Y0113611D03*
X0075807Y0113576D03*
X0075807Y0113541D03*
D204*
X0062685Y0121039D03*
X0117591Y0113646D03*
X0117591Y0113611D03*
X0117591Y0113576D03*
X0117591Y0113541D03*
D205*
X0117574Y0113681D03*
D206*
X0109129Y0113716D03*
X0063052Y0117711D03*
X0061090Y0120128D03*
X0059198Y0122476D03*
D207*
X0061318Y0123772D03*
X0064296Y0125139D03*
X0117591Y0113856D03*
X0117591Y0113821D03*
X0117591Y0113786D03*
X0117591Y0113751D03*
X0117591Y0113716D03*
D208*
X0123916Y0123107D03*
X0119361Y0125314D03*
X0081133Y0113751D03*
X0080327Y0114592D03*
X0071987Y0114277D03*
X0060074Y0123107D03*
D209*
X0063981Y0118166D03*
X0075824Y0113786D03*
X0119694Y0125139D03*
D210*
X0121393Y0121004D03*
X0117609Y0113891D03*
X0075807Y0113891D03*
X0075807Y0113856D03*
X0075807Y0113821D03*
D211*
X0081063Y0113821D03*
X0060284Y0123247D03*
D212*
X0065908Y0113856D03*
X0122672Y0120304D03*
D213*
X0123566Y0123317D03*
X0119431Y0122161D03*
X0119431Y0125279D03*
X0080747Y0115819D03*
X0080397Y0114522D03*
X0081027Y0113856D03*
X0064559Y0125279D03*
D214*
X0063596Y0118026D03*
X0080975Y0113891D03*
X0122006Y0120724D03*
X0123513Y0123352D03*
D215*
X0075824Y0113961D03*
X0075824Y0113926D03*
D216*
X0080467Y0114452D03*
X0080958Y0113926D03*
X0064524Y0122126D03*
D217*
X0061248Y0123737D03*
X0117591Y0113961D03*
X0117591Y0113926D03*
X0122742Y0123737D03*
D218*
X0080905Y0113961D03*
X0080519Y0114417D03*
D219*
X0066101Y0113996D03*
D220*
X0063000Y0117676D03*
X0071970Y0114031D03*
X0080099Y0114732D03*
X0122952Y0120093D03*
D221*
X0066153Y0114067D03*
X0062124Y0120794D03*
D222*
X0064489Y0125244D03*
X0066171Y0115889D03*
X0066171Y0114102D03*
X0080537Y0114382D03*
D223*
X0080695Y0114207D03*
X0080765Y0114137D03*
D224*
X0066223Y0114172D03*
X0121656Y0120899D03*
D225*
X0124284Y0122861D03*
X0071970Y0114172D03*
D226*
X0071988Y0114242D03*
X0080747Y0115889D03*
X0098057Y0115924D03*
X0112633Y0114697D03*
X0122374Y0120514D03*
X0061616Y0120514D03*
X0059969Y0123037D03*
D227*
X0060670Y0123457D03*
X0063683Y0118061D03*
X0080572Y0114347D03*
D228*
X0075018Y0114487D03*
X0110163Y0114487D03*
X0116890Y0114592D03*
D229*
X0084882Y0114487D03*
D230*
X0105765Y0114487D03*
X0105765Y0114522D03*
D231*
X0105748Y0114557D03*
X0105748Y0114592D03*
X0119869Y0125034D03*
X0084864Y0114557D03*
X0084864Y0114522D03*
D232*
X0090331Y0114522D03*
X0090331Y0114557D03*
X0061003Y0123632D03*
D233*
X0064139Y0121810D03*
X0084847Y0114627D03*
X0084847Y0114592D03*
X0119851Y0121810D03*
D234*
X0105730Y0114627D03*
D235*
X0102086Y0114697D03*
D236*
X0102069Y0114837D03*
X0106414Y0114732D03*
X0125440Y0121915D03*
X0062790Y0117500D03*
D237*
X0063210Y0117816D03*
X0059706Y0122861D03*
X0112651Y0114732D03*
X0120780Y0117816D03*
X0122532Y0120409D03*
X0119273Y0125349D03*
D238*
X0123390Y0119708D03*
X0125563Y0121810D03*
X0117609Y0114767D03*
X0109304Y0114872D03*
D239*
X0102051Y0115013D03*
X0090944Y0114907D03*
D240*
X0117609Y0114943D03*
D241*
X0075824Y0115013D03*
D242*
X0112616Y0115013D03*
D243*
X0117609Y0115013D03*
D244*
X0085565Y0115048D03*
D245*
X0106466Y0115048D03*
D246*
X0109357Y0115083D03*
D247*
X0079836Y0115643D03*
D248*
X0098074Y0115713D03*
D249*
X0098057Y0115748D03*
X0121743Y0120864D03*
D250*
X0123390Y0123422D03*
X0080747Y0115783D03*
D251*
X0065803Y0116204D03*
X0060827Y0119918D03*
X0123127Y0119953D03*
X0123162Y0119918D03*
X0123198Y0119883D03*
X0125125Y0122196D03*
X0125090Y0122231D03*
D252*
X0098074Y0116239D03*
D253*
X0098022Y0116274D03*
D254*
X0121323Y0117395D03*
X0062667Y0117395D03*
X0058462Y0121845D03*
D255*
X0063385Y0117921D03*
X0123968Y0123072D03*
D256*
X0120464Y0117991D03*
X0060372Y0123282D03*
D257*
X0060862Y0123562D03*
X0120219Y0118096D03*
D258*
X0063876Y0118131D03*
D259*
X0119624Y0122020D03*
X0120114Y0118131D03*
D260*
X0119974Y0118166D03*
X0122672Y0123772D03*
D261*
X0064156Y0118201D03*
D262*
X0119816Y0118201D03*
X0119816Y0121845D03*
X0119816Y0125069D03*
D263*
X0091995Y0118236D03*
D264*
X0091995Y0118271D03*
D265*
X0091995Y0118411D03*
D266*
X0091995Y0118517D03*
D267*
X0091995Y0118587D03*
D268*
X0091995Y0118657D03*
D269*
X0091995Y0118727D03*
D270*
X0091995Y0118762D03*
D271*
X0091995Y0118832D03*
D272*
X0091995Y0118867D03*
D273*
X0091995Y0118902D03*
D274*
X0091995Y0118937D03*
D275*
X0091995Y0118972D03*
D276*
X0091995Y0119007D03*
D277*
X0091995Y0119042D03*
D278*
X0091995Y0119077D03*
D279*
X0091995Y0119147D03*
D280*
X0091995Y0119182D03*
D281*
X0091995Y0119217D03*
D282*
X0091995Y0119252D03*
D283*
X0091995Y0119287D03*
D284*
X0091995Y0119322D03*
D285*
X0091995Y0119357D03*
D286*
X0091995Y0119393D03*
D287*
X0091995Y0119428D03*
D288*
X0091995Y0119463D03*
D289*
X0091977Y0119498D03*
D290*
X0091995Y0119533D03*
D291*
X0091977Y0119568D03*
D292*
X0062597Y0121004D03*
D293*
X0061423Y0123807D03*
X0121306Y0121039D03*
X0122567Y0123807D03*
D294*
X0062790Y0121074D03*
D295*
X0062895Y0121109D03*
X0121095Y0121109D03*
D296*
X0119921Y0124999D03*
X0063017Y0121144D03*
D297*
X0120972Y0121144D03*
D298*
X0120026Y0121635D03*
X0063193Y0121180D03*
X0062106Y0124053D03*
D299*
X0120797Y0121180D03*
X0121884Y0124053D03*
D300*
X0120587Y0121215D03*
X0063403Y0121215D03*
D301*
X0063631Y0121250D03*
X0063631Y0124648D03*
D302*
X0120359Y0124648D03*
X0120359Y0121250D03*
D303*
X0063648Y0121285D03*
D304*
X0120342Y0121285D03*
D305*
X0063683Y0121320D03*
D306*
X0120307Y0121320D03*
D307*
X0120272Y0121355D03*
X0063718Y0121355D03*
X0062527Y0124158D03*
D308*
X0063736Y0121390D03*
X0121446Y0124158D03*
D309*
X0120254Y0121390D03*
D310*
X0063771Y0121425D03*
D311*
X0120219Y0121425D03*
D312*
X0063806Y0121460D03*
D313*
X0120184Y0121460D03*
D314*
X0063823Y0121495D03*
X0062387Y0124123D03*
D315*
X0120167Y0121495D03*
X0121603Y0124123D03*
D316*
X0063858Y0121530D03*
D317*
X0120132Y0121530D03*
D318*
X0121743Y0124088D03*
X0063893Y0121565D03*
D319*
X0062247Y0124088D03*
X0120097Y0121565D03*
D320*
X0120062Y0121600D03*
X0120062Y0124894D03*
X0063929Y0124894D03*
X0063929Y0121600D03*
D321*
X0063964Y0121635D03*
D322*
X0063981Y0121670D03*
X0063981Y0124929D03*
D323*
X0120009Y0124929D03*
X0120009Y0121670D03*
D324*
X0119974Y0121705D03*
X0119974Y0124964D03*
X0064016Y0124964D03*
X0064016Y0121705D03*
D325*
X0064086Y0121775D03*
X0061878Y0123983D03*
D326*
X0119904Y0121775D03*
X0122111Y0123983D03*
D327*
X0064174Y0125069D03*
X0061686Y0123913D03*
X0064174Y0121845D03*
D328*
X0064209Y0121880D03*
X0061581Y0123878D03*
D329*
X0119781Y0121880D03*
X0122409Y0123878D03*
D330*
X0119746Y0125104D03*
X0119746Y0121915D03*
D331*
X0064279Y0121950D03*
D332*
X0064332Y0121985D03*
X0119659Y0121985D03*
D333*
X0119571Y0122056D03*
X0123040Y0123597D03*
X0119571Y0125209D03*
D334*
X0118537Y0122546D03*
X0065453Y0122546D03*
D335*
X0118292Y0122581D03*
D336*
X0123811Y0123177D03*
X0060109Y0123142D03*
D337*
X0060179Y0123177D03*
X0064629Y0125314D03*
X0110320Y0108741D03*
D338*
X0060424Y0123317D03*
D339*
X0123180Y0123527D03*
D340*
X0122987Y0123632D03*
D341*
X0061090Y0123667D03*
D342*
X0064349Y0125174D03*
X0122830Y0123702D03*
D343*
X0061493Y0123843D03*
D344*
X0122304Y0123913D03*
D345*
X0061773Y0123948D03*
D346*
X0064121Y0125034D03*
X0122216Y0123948D03*
D347*
X0062001Y0124018D03*
D348*
X0062737Y0124193D03*
X0063578Y0124613D03*
X0120412Y0124613D03*
D349*
X0121253Y0124193D03*
D350*
X0063157Y0124228D03*
D351*
X0120762Y0124263D03*
X0120832Y0124228D03*
D352*
X0063228Y0124263D03*
D353*
X0063263Y0124298D03*
D354*
X0120727Y0124298D03*
D355*
X0063298Y0124333D03*
D356*
X0120692Y0124333D03*
D357*
X0063333Y0124368D03*
D358*
X0120657Y0124368D03*
D359*
X0120622Y0124403D03*
X0063368Y0124403D03*
D360*
X0063403Y0124438D03*
D361*
X0120587Y0124438D03*
D362*
X0063438Y0124473D03*
D363*
X0120552Y0124473D03*
D364*
X0063473Y0124508D03*
D365*
X0120517Y0124508D03*
D366*
X0120482Y0124543D03*
X0063508Y0124543D03*
D367*
X0063543Y0124578D03*
D368*
X0120447Y0124578D03*
D369*
X0063666Y0124683D03*
D370*
X0120324Y0124683D03*
D371*
X0063701Y0124719D03*
D372*
X0120289Y0124719D03*
D373*
X0063753Y0124754D03*
D374*
X0120237Y0124754D03*
D375*
X0063788Y0124789D03*
D376*
X0120202Y0124789D03*
D377*
X0063841Y0124824D03*
D378*
X0120149Y0124824D03*
D379*
X0063876Y0124859D03*
D380*
X0120114Y0124859D03*
D381*
X0064069Y0124999D03*
D382*
X0058445Y0100512D02*
X0058445Y0096872D01*
X0056625Y0096872D01*
X0056018Y0097479D01*
X0056018Y0098692D01*
X0056625Y0099299D01*
X0058445Y0099299D01*
X0060250Y0099299D02*
X0061463Y0099299D01*
X0062070Y0098692D01*
X0062070Y0096872D01*
X0060250Y0096872D01*
X0059643Y0097479D01*
X0060250Y0098085D01*
X0062070Y0098085D01*
X0063268Y0096872D02*
X0063268Y0099299D01*
X0063875Y0099299D01*
X0064482Y0098692D01*
X0065088Y0099299D01*
X0065695Y0098692D01*
X0065695Y0096872D01*
X0064482Y0096872D02*
X0064482Y0098692D01*
X0070518Y0098692D02*
X0071732Y0098692D01*
X0070518Y0100512D02*
X0072945Y0100512D01*
X0074750Y0099299D02*
X0075964Y0099299D01*
X0076570Y0098692D01*
X0076570Y0098085D01*
X0074144Y0098085D01*
X0074144Y0097479D02*
X0074144Y0098692D01*
X0074750Y0099299D01*
X0074144Y0097479D02*
X0074750Y0096872D01*
X0075964Y0096872D01*
X0077769Y0096872D02*
X0078982Y0096872D01*
X0078375Y0096872D02*
X0078375Y0099299D01*
X0077769Y0099299D01*
X0078375Y0100512D02*
X0078375Y0101119D01*
X0080185Y0099299D02*
X0082006Y0099299D01*
X0082612Y0098692D01*
X0082612Y0096872D01*
X0083811Y0096872D02*
X0085631Y0096872D01*
X0086237Y0097479D01*
X0085631Y0098085D01*
X0084417Y0098085D01*
X0083811Y0098692D01*
X0084417Y0099299D01*
X0086237Y0099299D01*
X0087436Y0099299D02*
X0088649Y0099299D01*
X0088042Y0099905D02*
X0088042Y0097479D01*
X0088649Y0096872D01*
X0089853Y0097479D02*
X0089853Y0098692D01*
X0090459Y0099299D01*
X0091673Y0099299D01*
X0092279Y0098692D01*
X0092279Y0098085D01*
X0089853Y0098085D01*
X0089853Y0097479D02*
X0090459Y0096872D01*
X0091673Y0096872D01*
X0093478Y0096872D02*
X0094691Y0096872D01*
X0094084Y0096872D02*
X0094084Y0099299D01*
X0093478Y0099299D01*
X0094084Y0100512D02*
X0094084Y0101119D01*
X0095894Y0099299D02*
X0097714Y0099299D01*
X0098321Y0098692D01*
X0098321Y0096872D01*
X0095894Y0096872D02*
X0095894Y0099299D01*
X0103145Y0099299D02*
X0104358Y0100512D01*
X0105561Y0099905D02*
X0105561Y0097479D01*
X0106168Y0096872D01*
X0107381Y0096872D01*
X0107988Y0097479D01*
X0109187Y0096872D02*
X0110400Y0098085D01*
X0110400Y0099299D01*
X0109187Y0100512D01*
X0107988Y0099905D02*
X0107381Y0100512D01*
X0106168Y0100512D01*
X0105561Y0099905D01*
X0103145Y0099299D02*
X0103145Y0098085D01*
X0104358Y0096872D01*
X0115228Y0096872D02*
X0117655Y0099299D01*
X0117655Y0099905D01*
X0117049Y0100512D01*
X0115835Y0100512D01*
X0115228Y0099905D01*
X0115228Y0096872D02*
X0117655Y0096872D01*
X0118854Y0097479D02*
X0121280Y0099905D01*
X0121280Y0097479D01*
X0120674Y0096872D01*
X0119460Y0096872D01*
X0118854Y0097479D01*
X0118854Y0099905D01*
X0119460Y0100512D01*
X0120674Y0100512D01*
X0121280Y0099905D01*
X0122479Y0099299D02*
X0123692Y0100512D01*
X0123692Y0096872D01*
X0122479Y0096872D02*
X0124905Y0096872D01*
X0126104Y0097479D02*
X0126711Y0096872D01*
X0127924Y0096872D01*
X0128531Y0097479D01*
X0128531Y0098692D01*
X0127924Y0099299D01*
X0127317Y0099299D01*
X0126104Y0098692D01*
X0126104Y0100512D01*
X0128531Y0100512D01*
X0080185Y0099299D02*
X0080185Y0096872D01*
X0070518Y0096872D02*
X0070518Y0100512D01*
X0054820Y0099299D02*
X0054820Y0096872D01*
X0054820Y0098692D02*
X0052393Y0098692D01*
X0052393Y0099299D02*
X0053606Y0100512D01*
X0054820Y0099299D01*
X0052393Y0099299D02*
X0052393Y0096872D01*
D383*
X0054944Y0089585D02*
X0055711Y0088818D01*
X0056478Y0088818D01*
X0057246Y0089585D01*
X0057246Y0093422D01*
X0058013Y0093422D02*
X0056478Y0093422D01*
X0059548Y0093422D02*
X0061849Y0093422D01*
X0062617Y0092655D01*
X0062617Y0091120D01*
X0061849Y0090353D01*
X0059548Y0090353D01*
X0059548Y0088818D02*
X0059548Y0093422D01*
X0064151Y0092655D02*
X0064919Y0093422D01*
X0066453Y0093422D01*
X0067221Y0092655D01*
X0067221Y0091887D01*
X0064151Y0088818D01*
X0067221Y0088818D01*
X0060746Y0127906D02*
X0061513Y0128673D01*
X0061513Y0130208D01*
X0062280Y0129440D01*
X0063048Y0129440D01*
X0063815Y0130208D01*
X0063815Y0131742D01*
X0065350Y0131742D02*
X0066884Y0131742D01*
X0065350Y0129440D02*
X0065350Y0134044D01*
X0068419Y0134044D01*
X0061513Y0131742D02*
X0061513Y0130208D01*
X0059211Y0130208D02*
X0058444Y0129440D01*
X0056909Y0129440D01*
X0056142Y0130208D01*
X0059211Y0133277D01*
X0059211Y0130208D01*
X0056142Y0130208D02*
X0056142Y0133277D01*
X0056909Y0134044D01*
X0058444Y0134044D01*
X0059211Y0133277D01*
X0054607Y0133277D02*
X0054607Y0130208D01*
X0053840Y0129440D01*
X0052305Y0129440D01*
X0051538Y0130208D01*
X0054607Y0133277D01*
X0053840Y0134044D01*
X0052305Y0134044D01*
X0051538Y0133277D01*
X0051538Y0130208D01*
X0050003Y0130208D02*
X0049236Y0129440D01*
X0047701Y0129440D01*
X0046934Y0130208D01*
X0050003Y0133277D01*
X0050003Y0130208D01*
X0050003Y0133277D02*
X0049236Y0134044D01*
X0047701Y0134044D01*
X0046934Y0133277D01*
X0046934Y0130208D01*
X0045399Y0129440D02*
X0042330Y0129440D01*
X0043865Y0129440D02*
X0043865Y0134044D01*
X0042330Y0132510D01*
X0041622Y0143838D02*
X0040855Y0144605D01*
X0043924Y0147674D01*
X0043924Y0144605D01*
X0043156Y0143838D01*
X0041622Y0143838D01*
X0040855Y0144605D02*
X0040855Y0147674D01*
X0041622Y0148442D01*
X0043156Y0148442D01*
X0043924Y0147674D01*
X0045458Y0146907D02*
X0046993Y0148442D01*
X0046993Y0143838D01*
X0045458Y0143838D02*
X0048528Y0143838D01*
X0050062Y0146140D02*
X0053132Y0146140D01*
X0051597Y0147674D02*
X0051597Y0144605D01*
X0039320Y0143838D02*
X0036251Y0143838D01*
X0036251Y0148442D01*
X0033949Y0148442D02*
X0031647Y0146140D01*
X0034716Y0146140D01*
X0033949Y0143838D02*
X0033949Y0148442D01*
X0030112Y0147674D02*
X0029345Y0148442D01*
X0027810Y0148442D01*
X0027043Y0147674D01*
X0025508Y0148442D02*
X0022439Y0148442D01*
X0022439Y0143838D01*
X0020904Y0143838D02*
X0019370Y0145372D01*
X0020137Y0145372D02*
X0017835Y0145372D01*
X0017835Y0143838D02*
X0017835Y0148442D01*
X0020137Y0148442D01*
X0020904Y0147674D01*
X0020904Y0146140D01*
X0020137Y0145372D01*
X0022439Y0146140D02*
X0023973Y0146140D01*
X0027043Y0143838D02*
X0030112Y0146907D01*
X0030112Y0147674D01*
X0030112Y0143838D02*
X0027043Y0143838D01*
X0016300Y0143838D02*
X0016300Y0148442D01*
X0013231Y0148442D02*
X0016300Y0143838D01*
X0013231Y0143838D02*
X0013231Y0148442D01*
X0011608Y0133604D02*
X0010073Y0133604D01*
X0009306Y0132837D01*
X0009306Y0129767D01*
X0010073Y0129000D01*
X0011608Y0129000D01*
X0012375Y0129767D01*
X0013910Y0129000D02*
X0016979Y0129000D01*
X0015444Y0129000D02*
X0015444Y0133604D01*
X0013910Y0132069D01*
X0012375Y0132837D02*
X0011608Y0133604D01*
X0116558Y0091554D02*
X0117325Y0090787D01*
X0118092Y0090787D01*
X0118860Y0091554D01*
X0118860Y0095391D01*
X0119627Y0095391D02*
X0118092Y0095391D01*
X0121162Y0095391D02*
X0123464Y0095391D01*
X0124231Y0094623D01*
X0124231Y0093089D01*
X0123464Y0092321D01*
X0121162Y0092321D01*
X0121162Y0090787D02*
X0121162Y0095391D01*
X0125766Y0093856D02*
X0127300Y0095391D01*
X0127300Y0090787D01*
X0125766Y0090787D02*
X0128835Y0090787D01*
X0141755Y0087557D02*
X0144057Y0087557D01*
X0144824Y0086790D01*
X0144824Y0086022D01*
X0144057Y0085255D01*
X0142522Y0085255D01*
X0141755Y0086022D01*
X0141755Y0087557D01*
X0143289Y0089092D01*
X0144824Y0089859D01*
X0149428Y0089859D02*
X0146359Y0085255D01*
X0150962Y0085255D02*
X0150962Y0088324D01*
X0152497Y0089859D01*
X0154032Y0088324D01*
X0154032Y0085255D01*
X0155566Y0085255D02*
X0155566Y0086022D01*
X0158636Y0089092D01*
X0158636Y0089859D01*
X0155566Y0089859D01*
X0154032Y0087557D02*
X0150962Y0087557D01*
X0144824Y0079859D02*
X0144824Y0079092D01*
X0141755Y0076022D01*
X0141755Y0075255D01*
X0142522Y0069859D02*
X0144057Y0069859D01*
X0144824Y0069092D01*
X0144824Y0068324D01*
X0144057Y0067557D01*
X0142522Y0067557D01*
X0141755Y0068324D01*
X0141755Y0069092D01*
X0142522Y0069859D01*
X0142522Y0067557D02*
X0141755Y0066790D01*
X0141755Y0066022D01*
X0142522Y0065255D01*
X0144057Y0065255D01*
X0144824Y0066022D01*
X0144824Y0066790D01*
X0144057Y0067557D01*
X0146359Y0065255D02*
X0149428Y0069859D01*
X0150962Y0068324D02*
X0152497Y0069859D01*
X0154032Y0068324D01*
X0154032Y0065255D01*
X0155566Y0066022D02*
X0155566Y0066790D01*
X0156334Y0067557D01*
X0157868Y0067557D01*
X0158636Y0066790D01*
X0158636Y0066022D01*
X0157868Y0065255D01*
X0156334Y0065255D01*
X0155566Y0066022D01*
X0156334Y0067557D02*
X0155566Y0068324D01*
X0155566Y0069092D01*
X0156334Y0069859D01*
X0157868Y0069859D01*
X0158636Y0069092D01*
X0158636Y0068324D01*
X0157868Y0067557D01*
X0154032Y0067557D02*
X0150962Y0067557D01*
X0150962Y0068324D02*
X0150962Y0065255D01*
X0149428Y0059859D02*
X0146359Y0055255D01*
X0144824Y0056022D02*
X0144824Y0059092D01*
X0144057Y0059859D01*
X0142522Y0059859D01*
X0141755Y0059092D01*
X0141755Y0058324D01*
X0142522Y0057557D01*
X0144824Y0057557D01*
X0144824Y0056022D02*
X0144057Y0055255D01*
X0142522Y0055255D01*
X0141755Y0056022D01*
X0143289Y0049859D02*
X0143289Y0045255D01*
X0141755Y0045255D02*
X0144824Y0045255D01*
X0146359Y0046022D02*
X0149428Y0049092D01*
X0149428Y0046022D01*
X0148660Y0045255D01*
X0147126Y0045255D01*
X0146359Y0046022D01*
X0146359Y0049092D01*
X0147126Y0049859D01*
X0148660Y0049859D01*
X0149428Y0049092D01*
X0150962Y0045255D02*
X0154032Y0049859D01*
X0155566Y0048324D02*
X0157101Y0049859D01*
X0158636Y0048324D01*
X0158636Y0045255D01*
X0160170Y0045255D02*
X0163240Y0045255D01*
X0161705Y0045255D02*
X0161705Y0049859D01*
X0160170Y0048324D01*
X0158636Y0047557D02*
X0155566Y0047557D01*
X0155566Y0048324D02*
X0155566Y0045255D01*
X0147893Y0039859D02*
X0146359Y0038324D01*
X0147893Y0039859D02*
X0147893Y0035255D01*
X0146359Y0035255D02*
X0149428Y0035255D01*
X0144824Y0035255D02*
X0141755Y0035255D01*
X0143289Y0035255D02*
X0143289Y0039859D01*
X0141755Y0038324D01*
X0143289Y0029859D02*
X0143289Y0025255D01*
X0141755Y0025255D02*
X0144824Y0025255D01*
X0146359Y0025255D02*
X0149428Y0028324D01*
X0149428Y0029092D01*
X0148660Y0029859D01*
X0147126Y0029859D01*
X0146359Y0029092D01*
X0143289Y0029859D02*
X0141755Y0028324D01*
X0146359Y0025255D02*
X0149428Y0025255D01*
X0150962Y0025255D02*
X0154032Y0029859D01*
X0155566Y0028324D02*
X0157101Y0029859D01*
X0158636Y0028324D01*
X0158636Y0025255D01*
X0160170Y0025255D02*
X0163240Y0025255D01*
X0164774Y0025255D02*
X0167844Y0025255D01*
X0166309Y0025255D02*
X0166309Y0029859D01*
X0164774Y0028324D01*
X0161705Y0029859D02*
X0161705Y0025255D01*
X0160170Y0028324D02*
X0161705Y0029859D01*
X0158636Y0027557D02*
X0155566Y0027557D01*
X0155566Y0028324D02*
X0155566Y0025255D01*
X0165542Y0045255D02*
X0164774Y0046022D01*
X0167844Y0049092D01*
X0167844Y0046022D01*
X0167076Y0045255D01*
X0165542Y0045255D01*
X0164774Y0046022D02*
X0164774Y0049092D01*
X0165542Y0049859D01*
X0167076Y0049859D01*
X0167844Y0049092D01*
X0173339Y0048324D02*
X0173339Y0045255D01*
X0173339Y0047557D02*
X0176408Y0047557D01*
X0176408Y0048324D02*
X0176408Y0045255D01*
X0177943Y0045255D02*
X0177943Y0049859D01*
X0180245Y0049859D01*
X0181012Y0049092D01*
X0181012Y0047557D01*
X0180245Y0046790D01*
X0177943Y0046790D01*
X0179477Y0046790D02*
X0181012Y0045255D01*
X0182547Y0045255D02*
X0185616Y0045255D01*
X0187151Y0045255D02*
X0187151Y0049859D01*
X0190220Y0049859D01*
X0188685Y0047557D02*
X0187151Y0047557D01*
X0185616Y0049859D02*
X0182547Y0049859D01*
X0182547Y0045255D01*
X0182547Y0047557D02*
X0184081Y0047557D01*
X0176408Y0048324D02*
X0174873Y0049859D01*
X0173339Y0048324D01*
X0176408Y0039859D02*
X0177943Y0039859D01*
X0178710Y0039092D01*
X0178710Y0038324D01*
X0177943Y0037557D01*
X0178710Y0036790D01*
X0178710Y0036022D01*
X0177943Y0035255D01*
X0176408Y0035255D01*
X0175641Y0036022D01*
X0177175Y0037557D02*
X0177943Y0037557D01*
X0180245Y0036022D02*
X0181012Y0036022D01*
X0181012Y0035255D01*
X0180245Y0035255D01*
X0180245Y0036022D01*
X0182547Y0036022D02*
X0183314Y0035255D01*
X0184849Y0035255D01*
X0185616Y0036022D01*
X0185616Y0036790D01*
X0184849Y0037557D01*
X0184081Y0037557D01*
X0184849Y0037557D02*
X0185616Y0038324D01*
X0185616Y0039092D01*
X0184849Y0039859D01*
X0183314Y0039859D01*
X0182547Y0039092D01*
X0187151Y0039859D02*
X0187151Y0036790D01*
X0188685Y0035255D01*
X0190220Y0036790D01*
X0190220Y0039859D01*
X0189453Y0029859D02*
X0187918Y0029859D01*
X0187151Y0029092D01*
X0188685Y0027557D02*
X0189453Y0027557D01*
X0190220Y0026790D01*
X0190220Y0026022D01*
X0189453Y0025255D01*
X0187918Y0025255D01*
X0187151Y0026022D01*
X0185616Y0025255D02*
X0182547Y0025255D01*
X0184081Y0025255D02*
X0184081Y0029859D01*
X0182547Y0028324D01*
X0189453Y0027557D02*
X0190220Y0028324D01*
X0190220Y0029092D01*
X0189453Y0029859D01*
X0176408Y0039859D02*
X0175641Y0039092D01*
X0182547Y0055255D02*
X0182547Y0058324D01*
X0184081Y0059859D01*
X0185616Y0058324D01*
X0185616Y0055255D01*
X0187151Y0056022D02*
X0190220Y0059092D01*
X0190220Y0056022D01*
X0189453Y0055255D01*
X0187918Y0055255D01*
X0187151Y0056022D01*
X0187151Y0059092D01*
X0187918Y0059859D01*
X0189453Y0059859D01*
X0190220Y0059092D01*
X0185616Y0057557D02*
X0182547Y0057557D01*
X0182547Y0065255D02*
X0182547Y0068324D01*
X0184081Y0069859D01*
X0185616Y0068324D01*
X0185616Y0065255D01*
X0187151Y0065255D02*
X0190220Y0065255D01*
X0188685Y0065255D02*
X0188685Y0069859D01*
X0187151Y0068324D01*
X0185616Y0067557D02*
X0182547Y0067557D01*
X0182547Y0075255D02*
X0182547Y0078324D01*
X0184081Y0079859D01*
X0185616Y0078324D01*
X0185616Y0075255D01*
X0187151Y0075255D02*
X0190220Y0078324D01*
X0190220Y0079092D01*
X0189453Y0079859D01*
X0187918Y0079859D01*
X0187151Y0079092D01*
X0185616Y0077557D02*
X0182547Y0077557D01*
X0187151Y0075255D02*
X0190220Y0075255D01*
X0189453Y0085255D02*
X0187918Y0085255D01*
X0187151Y0086022D01*
X0185616Y0085255D02*
X0185616Y0088324D01*
X0184081Y0089859D01*
X0182547Y0088324D01*
X0182547Y0085255D01*
X0182547Y0087557D02*
X0185616Y0087557D01*
X0187151Y0089092D02*
X0187918Y0089859D01*
X0189453Y0089859D01*
X0190220Y0089092D01*
X0190220Y0088324D01*
X0189453Y0087557D01*
X0190220Y0086790D01*
X0190220Y0086022D01*
X0189453Y0085255D01*
X0189453Y0087557D02*
X0188685Y0087557D01*
X0189453Y0095255D02*
X0189453Y0099859D01*
X0187151Y0097557D01*
X0190220Y0097557D01*
X0185616Y0097557D02*
X0182547Y0097557D01*
X0182547Y0098324D02*
X0182547Y0095255D01*
X0185616Y0095255D02*
X0185616Y0098324D01*
X0184081Y0099859D01*
X0182547Y0098324D01*
X0182547Y0105255D02*
X0182547Y0108324D01*
X0184081Y0109859D01*
X0185616Y0108324D01*
X0185616Y0105255D01*
X0187151Y0106022D02*
X0187918Y0105255D01*
X0189453Y0105255D01*
X0190220Y0106022D01*
X0190220Y0107557D01*
X0189453Y0108324D01*
X0188685Y0108324D01*
X0187151Y0107557D01*
X0187151Y0109859D01*
X0190220Y0109859D01*
X0185616Y0107557D02*
X0182547Y0107557D01*
X0163240Y0115255D02*
X0160170Y0115255D01*
X0160170Y0119859D01*
X0158636Y0119092D02*
X0157868Y0119859D01*
X0156334Y0119859D01*
X0155566Y0119092D01*
X0155566Y0116022D01*
X0156334Y0115255D01*
X0157868Y0115255D01*
X0158636Y0116022D01*
X0154032Y0116022D02*
X0153264Y0115255D01*
X0151730Y0115255D01*
X0150962Y0116022D01*
X0151730Y0117557D02*
X0153264Y0117557D01*
X0154032Y0116790D01*
X0154032Y0116022D01*
X0151730Y0117557D02*
X0150962Y0118324D01*
X0150962Y0119092D01*
X0151730Y0119859D01*
X0153264Y0119859D01*
X0154032Y0119092D01*
X0149428Y0119859D02*
X0146359Y0115255D01*
X0144824Y0116022D02*
X0144824Y0116790D01*
X0144057Y0117557D01*
X0143289Y0117557D01*
X0144057Y0117557D02*
X0144824Y0118324D01*
X0144824Y0119092D01*
X0144057Y0119859D01*
X0142522Y0119859D01*
X0141755Y0119092D01*
X0141755Y0116022D02*
X0142522Y0115255D01*
X0144057Y0115255D01*
X0144824Y0116022D01*
X0144057Y0109859D02*
X0141755Y0107557D01*
X0144824Y0107557D01*
X0144057Y0105255D02*
X0144057Y0109859D01*
X0146359Y0105255D02*
X0149428Y0109859D01*
X0150962Y0108324D02*
X0152497Y0109859D01*
X0154032Y0108324D01*
X0154032Y0105255D01*
X0155566Y0106022D02*
X0156334Y0105255D01*
X0157868Y0105255D01*
X0158636Y0106022D01*
X0158636Y0106790D01*
X0157868Y0107557D01*
X0155566Y0107557D01*
X0155566Y0106022D01*
X0155566Y0107557D02*
X0157101Y0109092D01*
X0158636Y0109859D01*
X0154032Y0107557D02*
X0150962Y0107557D01*
X0150962Y0108324D02*
X0150962Y0105255D01*
X0144824Y0099859D02*
X0141755Y0099859D01*
X0141755Y0097557D01*
X0143289Y0098324D01*
X0144057Y0098324D01*
X0144824Y0097557D01*
X0144824Y0096022D01*
X0144057Y0095255D01*
X0142522Y0095255D01*
X0141755Y0096022D01*
X0141755Y0079859D02*
X0144824Y0079859D01*
X0152497Y0059859D02*
X0154032Y0058324D01*
X0154032Y0055255D01*
X0155566Y0056022D02*
X0156334Y0055255D01*
X0157868Y0055255D01*
X0158636Y0056022D01*
X0158636Y0059092D01*
X0157868Y0059859D01*
X0156334Y0059859D01*
X0155566Y0059092D01*
X0155566Y0058324D01*
X0156334Y0057557D01*
X0158636Y0057557D01*
X0154032Y0057557D02*
X0150962Y0057557D01*
X0150962Y0058324D02*
X0152497Y0059859D01*
X0150962Y0058324D02*
X0150962Y0055255D01*
X0143289Y0049859D02*
X0141755Y0048324D01*
X0141755Y0125255D02*
X0144824Y0128324D01*
X0144824Y0129092D01*
X0144057Y0129859D01*
X0142522Y0129859D01*
X0141755Y0129092D01*
X0141755Y0125255D02*
X0144824Y0125255D01*
X0146359Y0125255D02*
X0149428Y0129859D01*
X0150962Y0129092D02*
X0150962Y0128324D01*
X0151730Y0127557D01*
X0153264Y0127557D01*
X0154032Y0126790D01*
X0154032Y0126022D01*
X0153264Y0125255D01*
X0151730Y0125255D01*
X0150962Y0126022D01*
X0150962Y0129092D02*
X0151730Y0129859D01*
X0153264Y0129859D01*
X0154032Y0129092D01*
X0155566Y0129859D02*
X0157868Y0129859D01*
X0158636Y0129092D01*
X0158636Y0126022D01*
X0157868Y0125255D01*
X0155566Y0125255D01*
X0155566Y0129859D01*
X0160170Y0128324D02*
X0160170Y0125255D01*
X0160170Y0127557D02*
X0163240Y0127557D01*
X0163240Y0128324D02*
X0163240Y0125255D01*
X0163240Y0128324D02*
X0161705Y0129859D01*
X0160170Y0128324D01*
X0153264Y0135255D02*
X0150962Y0135255D01*
X0150962Y0139859D01*
X0153264Y0139859D01*
X0154032Y0139092D01*
X0154032Y0136022D01*
X0153264Y0135255D01*
X0149428Y0135255D02*
X0149428Y0139859D01*
X0146359Y0139859D02*
X0149428Y0135255D01*
X0146359Y0135255D02*
X0146359Y0139859D01*
X0144824Y0139092D02*
X0144057Y0139859D01*
X0142522Y0139859D01*
X0141755Y0139092D01*
X0141755Y0136022D01*
X0142522Y0135255D01*
X0144057Y0135255D01*
X0144824Y0136022D01*
X0144824Y0137557D01*
X0143289Y0137557D01*
X0141755Y0145255D02*
X0141755Y0149859D01*
X0144057Y0149859D01*
X0144824Y0149092D01*
X0144824Y0147557D01*
X0144057Y0146790D01*
X0141755Y0146790D01*
X0143289Y0146790D02*
X0144824Y0145255D01*
X0146359Y0145255D02*
X0149428Y0145255D01*
X0150962Y0146022D02*
X0151730Y0145255D01*
X0153264Y0145255D01*
X0154032Y0146022D01*
X0154032Y0146790D01*
X0153264Y0147557D01*
X0151730Y0147557D01*
X0150962Y0148324D01*
X0150962Y0149092D01*
X0151730Y0149859D01*
X0153264Y0149859D01*
X0154032Y0149092D01*
X0155566Y0149859D02*
X0155566Y0145255D01*
X0158636Y0145255D01*
X0157101Y0147557D02*
X0155566Y0147557D01*
X0155566Y0149859D02*
X0158636Y0149859D01*
X0160170Y0149859D02*
X0163240Y0149859D01*
X0161705Y0149859D02*
X0161705Y0145255D01*
X0168735Y0145255D02*
X0168735Y0149859D01*
X0171037Y0149859D01*
X0171804Y0149092D01*
X0171804Y0147557D01*
X0171037Y0146790D01*
X0168735Y0146790D01*
X0170270Y0146790D02*
X0171804Y0145255D01*
X0173339Y0145255D02*
X0176408Y0145255D01*
X0177943Y0146022D02*
X0178710Y0145255D01*
X0180245Y0145255D01*
X0181012Y0146022D01*
X0181012Y0146790D01*
X0180245Y0147557D01*
X0178710Y0147557D01*
X0177943Y0148324D01*
X0177943Y0149092D01*
X0178710Y0149859D01*
X0180245Y0149859D01*
X0181012Y0149092D01*
X0182547Y0149859D02*
X0182547Y0145255D01*
X0185616Y0145255D01*
X0184081Y0147557D02*
X0182547Y0147557D01*
X0182547Y0149859D02*
X0185616Y0149859D01*
X0187151Y0149859D02*
X0190220Y0149859D01*
X0188685Y0149859D02*
X0188685Y0145255D01*
X0187151Y0139859D02*
X0187151Y0136790D01*
X0188685Y0135255D01*
X0190220Y0136790D01*
X0190220Y0139859D01*
X0185616Y0139859D02*
X0182547Y0139859D01*
X0182547Y0137557D01*
X0184081Y0138324D01*
X0184849Y0138324D01*
X0185616Y0137557D01*
X0185616Y0136022D01*
X0184849Y0135255D01*
X0183314Y0135255D01*
X0182547Y0136022D01*
X0181012Y0137557D02*
X0177943Y0137557D01*
X0179477Y0139092D02*
X0179477Y0136022D01*
X0173339Y0145255D02*
X0173339Y0149859D01*
X0176408Y0149859D01*
X0174873Y0147557D02*
X0173339Y0147557D01*
X0178710Y0155255D02*
X0180245Y0155255D01*
X0181012Y0156022D01*
X0181012Y0157557D01*
X0179477Y0157557D01*
X0177943Y0156022D02*
X0178710Y0155255D01*
X0177943Y0156022D02*
X0177943Y0159092D01*
X0178710Y0159859D01*
X0180245Y0159859D01*
X0181012Y0159092D01*
X0182547Y0159859D02*
X0185616Y0155255D01*
X0185616Y0159859D01*
X0187151Y0159859D02*
X0189453Y0159859D01*
X0190220Y0159092D01*
X0190220Y0156022D01*
X0189453Y0155255D01*
X0187151Y0155255D01*
X0187151Y0159859D01*
X0182547Y0159859D02*
X0182547Y0155255D01*
X0184081Y0165255D02*
X0185616Y0165255D01*
X0184849Y0165255D02*
X0184849Y0169859D01*
X0185616Y0169859D02*
X0184081Y0169859D01*
X0182547Y0169859D02*
X0182547Y0166790D01*
X0181012Y0165255D01*
X0179477Y0166790D01*
X0179477Y0169859D01*
X0179477Y0175255D02*
X0181012Y0175255D01*
X0180245Y0175255D02*
X0180245Y0179859D01*
X0181012Y0179859D02*
X0179477Y0179859D01*
X0177943Y0179859D02*
X0177943Y0175255D01*
X0174874Y0175255D02*
X0174874Y0179859D01*
X0176408Y0178324D01*
X0177943Y0179859D01*
X0182547Y0179092D02*
X0182547Y0178324D01*
X0183314Y0177557D01*
X0184849Y0177557D01*
X0185616Y0176790D01*
X0185616Y0176022D01*
X0184849Y0175255D01*
X0183314Y0175255D01*
X0182547Y0176022D01*
X0182547Y0179092D02*
X0183314Y0179859D01*
X0184849Y0179859D01*
X0185616Y0179092D01*
X0187151Y0179092D02*
X0187151Y0176022D01*
X0187918Y0175255D01*
X0189453Y0175255D01*
X0190220Y0176022D01*
X0190220Y0179092D01*
X0189453Y0179859D01*
X0187918Y0179859D01*
X0187151Y0179092D01*
X0187151Y0185255D02*
X0187151Y0189859D01*
X0185616Y0189092D02*
X0184849Y0189859D01*
X0183314Y0189859D01*
X0182547Y0189092D01*
X0182547Y0186022D01*
X0183314Y0185255D01*
X0184849Y0185255D01*
X0185616Y0186022D01*
X0187151Y0186790D02*
X0190220Y0189859D01*
X0187918Y0187557D02*
X0190220Y0185255D01*
X0181012Y0186022D02*
X0180245Y0185255D01*
X0178710Y0185255D01*
X0177943Y0186022D01*
X0178710Y0187557D02*
X0180245Y0187557D01*
X0181012Y0186790D01*
X0181012Y0186022D01*
X0178710Y0187557D02*
X0177943Y0188324D01*
X0177943Y0189092D01*
X0178710Y0189859D01*
X0180245Y0189859D01*
X0181012Y0189092D01*
X0187151Y0169859D02*
X0190220Y0165255D01*
X0190220Y0169859D01*
X0187151Y0169859D02*
X0187151Y0165255D01*
X0158636Y0165255D02*
X0155566Y0169859D01*
X0154032Y0169859D02*
X0150962Y0169859D01*
X0149428Y0169859D02*
X0146359Y0165255D01*
X0144824Y0165255D02*
X0141755Y0165255D01*
X0143289Y0165255D02*
X0143289Y0169859D01*
X0141755Y0168324D01*
X0142522Y0175255D02*
X0141755Y0176022D01*
X0142522Y0175255D02*
X0144057Y0175255D01*
X0144824Y0176022D01*
X0144824Y0176790D01*
X0144057Y0177557D01*
X0142522Y0177557D01*
X0141755Y0178324D01*
X0141755Y0179092D01*
X0142522Y0179859D01*
X0144057Y0179859D01*
X0144824Y0179092D01*
X0146359Y0179092D02*
X0147126Y0179859D01*
X0148660Y0179859D01*
X0149428Y0179092D01*
X0148660Y0177557D02*
X0149428Y0176790D01*
X0149428Y0176022D01*
X0148660Y0175255D01*
X0147126Y0175255D01*
X0146359Y0176022D01*
X0147126Y0177557D02*
X0148660Y0177557D01*
X0147126Y0177557D02*
X0146359Y0178324D01*
X0146359Y0179092D01*
X0147126Y0185255D02*
X0148660Y0185255D01*
X0149428Y0186022D01*
X0149428Y0189092D01*
X0148660Y0189859D01*
X0147126Y0189859D01*
X0146359Y0189092D01*
X0146359Y0186022D01*
X0147126Y0185255D01*
X0144824Y0185255D02*
X0144824Y0189859D01*
X0143289Y0188324D01*
X0141755Y0189859D01*
X0141755Y0185255D01*
X0150962Y0186022D02*
X0151730Y0185255D01*
X0153264Y0185255D01*
X0154032Y0186022D01*
X0154032Y0186790D01*
X0153264Y0187557D01*
X0151730Y0187557D01*
X0150962Y0188324D01*
X0150962Y0189092D01*
X0151730Y0189859D01*
X0153264Y0189859D01*
X0154032Y0189092D01*
X0155566Y0189859D02*
X0157101Y0189859D01*
X0156334Y0189859D02*
X0156334Y0185255D01*
X0157101Y0185255D02*
X0155566Y0185255D01*
X0152497Y0169859D02*
X0152497Y0165255D01*
X0155566Y0165255D02*
X0158636Y0169859D01*
X0158636Y0159859D02*
X0155566Y0155255D01*
X0154032Y0155255D02*
X0152497Y0156790D01*
X0153264Y0156790D02*
X0150962Y0156790D01*
X0150962Y0155255D02*
X0150962Y0159859D01*
X0153264Y0159859D01*
X0154032Y0159092D01*
X0154032Y0157557D01*
X0153264Y0156790D01*
X0155566Y0159859D02*
X0158636Y0155255D01*
X0149428Y0159859D02*
X0146359Y0155255D01*
X0144824Y0156022D02*
X0144057Y0155255D01*
X0142522Y0155255D01*
X0141755Y0156022D01*
X0144824Y0159092D01*
X0144824Y0156022D01*
X0141755Y0156022D02*
X0141755Y0159092D01*
X0142522Y0159859D01*
X0144057Y0159859D01*
X0144824Y0159092D01*
X0146359Y0149859D02*
X0146359Y0145255D01*
X0146359Y0147557D02*
X0147893Y0147557D01*
X0149428Y0149859D02*
X0146359Y0149859D01*
X0129832Y0139243D02*
X0129832Y0134639D01*
X0128298Y0134639D02*
X0131367Y0134639D01*
X0128298Y0137708D02*
X0129832Y0139243D01*
X0126763Y0139243D02*
X0126763Y0135406D01*
X0125996Y0134639D01*
X0124461Y0134639D01*
X0123694Y0135406D01*
X0123694Y0139243D01*
D384*
X0120531Y0141138D02*
X0110531Y0141138D01*
X0110531Y0143638D01*
X0108031Y0141138D01*
X0103031Y0141138D01*
X0100531Y0143638D01*
X0100531Y0148638D01*
X0103031Y0151138D01*
X0100531Y0153638D01*
X0100531Y0158638D01*
X0103031Y0161138D01*
X0100531Y0163638D01*
X0100531Y0168638D01*
X0103031Y0171138D01*
X0100531Y0173638D01*
X0100531Y0178638D01*
X0103031Y0181138D01*
X0108031Y0181138D01*
X0110531Y0178638D01*
X0110531Y0173638D01*
X0108031Y0171138D01*
X0110531Y0168638D01*
X0110531Y0163638D01*
X0108031Y0161138D01*
X0103031Y0161138D01*
X0108031Y0161138D02*
X0110531Y0158638D01*
X0110531Y0153638D01*
X0108031Y0151138D01*
X0110531Y0148638D01*
X0110531Y0143638D01*
X0110531Y0148638D02*
X0110531Y0151138D01*
X0113031Y0151138D01*
X0110531Y0153638D01*
X0113031Y0151138D02*
X0118031Y0151138D01*
X0120531Y0151138D01*
X0120531Y0141138D01*
X0118031Y0151138D02*
X0120531Y0153638D01*
X0120531Y0158638D01*
X0118031Y0161138D01*
X0113031Y0161138D01*
X0110531Y0163638D01*
X0113031Y0161138D02*
X0110531Y0158638D01*
X0108031Y0151138D02*
X0103031Y0151138D01*
X0118031Y0161138D02*
X0120531Y0163638D01*
X0120531Y0168638D01*
X0118031Y0171138D01*
X0113031Y0171138D01*
X0110531Y0168638D01*
X0113031Y0171138D02*
X0110531Y0173638D01*
X0108031Y0171138D02*
X0103031Y0171138D01*
X0110531Y0178638D02*
X0113031Y0181138D01*
X0118031Y0181138D01*
X0120531Y0178638D01*
X0120531Y0173638D01*
X0118031Y0171138D01*
D385*
X0115531Y0166138D03*
X0115531Y0176138D03*
X0105531Y0176138D03*
X0105531Y0166138D03*
X0105531Y0156138D03*
X0115531Y0156138D03*
X0115531Y0146138D03*
X0105531Y0146138D03*
D386*
X0105948Y0136192D02*
X0105198Y0135441D01*
X0105948Y0136192D02*
X0107449Y0136192D01*
X0108200Y0135441D01*
X0108200Y0134690D01*
X0105198Y0131688D01*
X0108200Y0131688D01*
X0103596Y0132438D02*
X0103596Y0136192D01*
X0100594Y0136192D02*
X0100594Y0132438D01*
X0101344Y0131688D01*
X0102846Y0131688D01*
X0103596Y0132438D01*
X0123031Y0138638D02*
X0008031Y0138638D01*
X0008031Y0198638D01*
X0123031Y0198638D01*
X0123031Y0138638D01*
X0088031Y0183638D02*
X0068052Y0183638D01*
X0067911Y0183640D01*
X0067770Y0183646D01*
X0067630Y0183656D01*
X0067490Y0183670D01*
X0067350Y0183687D01*
X0067211Y0183709D01*
X0067072Y0183734D01*
X0066935Y0183764D01*
X0066798Y0183797D01*
X0066662Y0183834D01*
X0066527Y0183875D01*
X0066394Y0183920D01*
X0066261Y0183968D01*
X0066131Y0184020D01*
X0066001Y0184076D01*
X0065873Y0184135D01*
X0065747Y0184198D01*
X0065623Y0184265D01*
X0065501Y0184334D01*
X0065381Y0184408D01*
X0065262Y0184484D01*
X0065146Y0184564D01*
X0065033Y0184647D01*
X0064921Y0184733D01*
X0064813Y0184823D01*
X0064706Y0184915D01*
X0064603Y0185010D01*
X0064502Y0185109D01*
X0064403Y0185210D01*
X0064308Y0185313D01*
X0064216Y0185420D01*
X0064126Y0185528D01*
X0064040Y0185640D01*
X0063957Y0185753D01*
X0063877Y0185869D01*
X0063801Y0185988D01*
X0063727Y0186108D01*
X0063658Y0186230D01*
X0063591Y0186354D01*
X0063528Y0186480D01*
X0063469Y0186608D01*
X0063413Y0186738D01*
X0063361Y0186868D01*
X0063313Y0187001D01*
X0063268Y0187134D01*
X0063227Y0187269D01*
X0063190Y0187405D01*
X0063157Y0187542D01*
X0063127Y0187679D01*
X0063102Y0187818D01*
X0063080Y0187957D01*
X0063063Y0188097D01*
X0063049Y0188237D01*
X0063039Y0188377D01*
X0063033Y0188518D01*
X0063031Y0188659D01*
X0063033Y0188799D01*
X0063039Y0188938D01*
X0063049Y0189077D01*
X0063062Y0189216D01*
X0063080Y0189355D01*
X0063101Y0189493D01*
X0063127Y0189630D01*
X0063156Y0189767D01*
X0063189Y0189903D01*
X0063226Y0190037D01*
X0063266Y0190171D01*
X0063310Y0190303D01*
X0063358Y0190435D01*
X0063410Y0190564D01*
X0063465Y0190693D01*
X0063524Y0190819D01*
X0063586Y0190944D01*
X0063652Y0191067D01*
X0063722Y0191189D01*
X0063794Y0191308D01*
X0063870Y0191425D01*
X0063949Y0191540D01*
X0064032Y0191653D01*
X0064117Y0191763D01*
X0064206Y0191871D01*
X0064297Y0191977D01*
X0064392Y0192080D01*
X0064489Y0192180D01*
X0064589Y0192277D01*
X0064692Y0192372D01*
X0064798Y0192463D01*
X0064906Y0192552D01*
X0065016Y0192637D01*
X0065129Y0192720D01*
X0065244Y0192799D01*
X0065361Y0192875D01*
X0065480Y0192947D01*
X0065602Y0193017D01*
X0065725Y0193083D01*
X0065850Y0193145D01*
X0065976Y0193204D01*
X0066105Y0193259D01*
X0066234Y0193311D01*
X0066366Y0193359D01*
X0066498Y0193403D01*
X0066632Y0193443D01*
X0066766Y0193480D01*
X0066902Y0193513D01*
X0067039Y0193542D01*
X0067176Y0193568D01*
X0067314Y0193589D01*
X0067453Y0193607D01*
X0067592Y0193620D01*
X0067731Y0193630D01*
X0067870Y0193636D01*
X0068010Y0193638D01*
X0088031Y0193638D01*
X0093031Y0188638D02*
X0093029Y0188498D01*
X0093023Y0188358D01*
X0093013Y0188218D01*
X0093000Y0188078D01*
X0092982Y0187939D01*
X0092960Y0187800D01*
X0092935Y0187663D01*
X0092906Y0187525D01*
X0092873Y0187389D01*
X0092836Y0187254D01*
X0092795Y0187120D01*
X0092750Y0186987D01*
X0092702Y0186855D01*
X0092650Y0186725D01*
X0092595Y0186596D01*
X0092536Y0186469D01*
X0092473Y0186343D01*
X0092407Y0186219D01*
X0092338Y0186098D01*
X0092265Y0185978D01*
X0092188Y0185860D01*
X0092109Y0185745D01*
X0092026Y0185631D01*
X0091940Y0185521D01*
X0091851Y0185412D01*
X0091759Y0185306D01*
X0091664Y0185203D01*
X0091567Y0185102D01*
X0091466Y0185005D01*
X0091363Y0184910D01*
X0091257Y0184818D01*
X0091148Y0184729D01*
X0091038Y0184643D01*
X0090924Y0184560D01*
X0090809Y0184481D01*
X0090691Y0184404D01*
X0090571Y0184331D01*
X0090450Y0184262D01*
X0090326Y0184196D01*
X0090200Y0184133D01*
X0090073Y0184074D01*
X0089944Y0184019D01*
X0089814Y0183967D01*
X0089682Y0183919D01*
X0089549Y0183874D01*
X0089415Y0183833D01*
X0089280Y0183796D01*
X0089144Y0183763D01*
X0089006Y0183734D01*
X0088869Y0183709D01*
X0088730Y0183687D01*
X0088591Y0183669D01*
X0088451Y0183656D01*
X0088311Y0183646D01*
X0088171Y0183640D01*
X0088031Y0183638D01*
X0093031Y0188638D02*
X0093029Y0188778D01*
X0093023Y0188918D01*
X0093013Y0189058D01*
X0093000Y0189198D01*
X0092982Y0189337D01*
X0092960Y0189476D01*
X0092935Y0189613D01*
X0092906Y0189751D01*
X0092873Y0189887D01*
X0092836Y0190022D01*
X0092795Y0190156D01*
X0092750Y0190289D01*
X0092702Y0190421D01*
X0092650Y0190551D01*
X0092595Y0190680D01*
X0092536Y0190807D01*
X0092473Y0190933D01*
X0092407Y0191057D01*
X0092338Y0191178D01*
X0092265Y0191298D01*
X0092188Y0191416D01*
X0092109Y0191531D01*
X0092026Y0191645D01*
X0091940Y0191755D01*
X0091851Y0191864D01*
X0091759Y0191970D01*
X0091664Y0192073D01*
X0091567Y0192174D01*
X0091466Y0192271D01*
X0091363Y0192366D01*
X0091257Y0192458D01*
X0091148Y0192547D01*
X0091038Y0192633D01*
X0090924Y0192716D01*
X0090809Y0192795D01*
X0090691Y0192872D01*
X0090571Y0192945D01*
X0090450Y0193014D01*
X0090326Y0193080D01*
X0090200Y0193143D01*
X0090073Y0193202D01*
X0089944Y0193257D01*
X0089814Y0193309D01*
X0089682Y0193357D01*
X0089549Y0193402D01*
X0089415Y0193443D01*
X0089280Y0193480D01*
X0089144Y0193513D01*
X0089006Y0193542D01*
X0088869Y0193567D01*
X0088730Y0193589D01*
X0088591Y0193607D01*
X0088451Y0193620D01*
X0088311Y0193630D01*
X0088171Y0193636D01*
X0088031Y0193638D01*
X0055531Y0168638D02*
X0055533Y0168737D01*
X0055539Y0168837D01*
X0055549Y0168936D01*
X0055563Y0169034D01*
X0055580Y0169132D01*
X0055602Y0169229D01*
X0055627Y0169325D01*
X0055656Y0169420D01*
X0055689Y0169514D01*
X0055726Y0169606D01*
X0055766Y0169697D01*
X0055810Y0169786D01*
X0055858Y0169874D01*
X0055909Y0169959D01*
X0055963Y0170042D01*
X0056020Y0170124D01*
X0056081Y0170202D01*
X0056145Y0170279D01*
X0056211Y0170352D01*
X0056281Y0170423D01*
X0056353Y0170491D01*
X0056428Y0170557D01*
X0056506Y0170619D01*
X0056586Y0170678D01*
X0056668Y0170734D01*
X0056752Y0170786D01*
X0056839Y0170835D01*
X0056927Y0170881D01*
X0057017Y0170923D01*
X0057109Y0170962D01*
X0057202Y0170997D01*
X0057296Y0171028D01*
X0057392Y0171055D01*
X0057489Y0171078D01*
X0057586Y0171098D01*
X0057684Y0171114D01*
X0057783Y0171126D01*
X0057882Y0171134D01*
X0057981Y0171138D01*
X0058081Y0171138D01*
X0058180Y0171134D01*
X0058279Y0171126D01*
X0058378Y0171114D01*
X0058476Y0171098D01*
X0058573Y0171078D01*
X0058670Y0171055D01*
X0058766Y0171028D01*
X0058860Y0170997D01*
X0058953Y0170962D01*
X0059045Y0170923D01*
X0059135Y0170881D01*
X0059223Y0170835D01*
X0059310Y0170786D01*
X0059394Y0170734D01*
X0059476Y0170678D01*
X0059556Y0170619D01*
X0059634Y0170557D01*
X0059709Y0170491D01*
X0059781Y0170423D01*
X0059851Y0170352D01*
X0059917Y0170279D01*
X0059981Y0170202D01*
X0060042Y0170124D01*
X0060099Y0170042D01*
X0060153Y0169959D01*
X0060204Y0169874D01*
X0060252Y0169786D01*
X0060296Y0169697D01*
X0060336Y0169606D01*
X0060373Y0169514D01*
X0060406Y0169420D01*
X0060435Y0169325D01*
X0060460Y0169229D01*
X0060482Y0169132D01*
X0060499Y0169034D01*
X0060513Y0168936D01*
X0060523Y0168837D01*
X0060529Y0168737D01*
X0060531Y0168638D01*
X0060529Y0168539D01*
X0060523Y0168439D01*
X0060513Y0168340D01*
X0060499Y0168242D01*
X0060482Y0168144D01*
X0060460Y0168047D01*
X0060435Y0167951D01*
X0060406Y0167856D01*
X0060373Y0167762D01*
X0060336Y0167670D01*
X0060296Y0167579D01*
X0060252Y0167490D01*
X0060204Y0167402D01*
X0060153Y0167317D01*
X0060099Y0167234D01*
X0060042Y0167152D01*
X0059981Y0167074D01*
X0059917Y0166997D01*
X0059851Y0166924D01*
X0059781Y0166853D01*
X0059709Y0166785D01*
X0059634Y0166719D01*
X0059556Y0166657D01*
X0059476Y0166598D01*
X0059394Y0166542D01*
X0059310Y0166490D01*
X0059223Y0166441D01*
X0059135Y0166395D01*
X0059045Y0166353D01*
X0058953Y0166314D01*
X0058860Y0166279D01*
X0058766Y0166248D01*
X0058670Y0166221D01*
X0058573Y0166198D01*
X0058476Y0166178D01*
X0058378Y0166162D01*
X0058279Y0166150D01*
X0058180Y0166142D01*
X0058081Y0166138D01*
X0057981Y0166138D01*
X0057882Y0166142D01*
X0057783Y0166150D01*
X0057684Y0166162D01*
X0057586Y0166178D01*
X0057489Y0166198D01*
X0057392Y0166221D01*
X0057296Y0166248D01*
X0057202Y0166279D01*
X0057109Y0166314D01*
X0057017Y0166353D01*
X0056927Y0166395D01*
X0056839Y0166441D01*
X0056752Y0166490D01*
X0056668Y0166542D01*
X0056586Y0166598D01*
X0056506Y0166657D01*
X0056428Y0166719D01*
X0056353Y0166785D01*
X0056281Y0166853D01*
X0056211Y0166924D01*
X0056145Y0166997D01*
X0056081Y0167074D01*
X0056020Y0167152D01*
X0055963Y0167234D01*
X0055909Y0167317D01*
X0055858Y0167402D01*
X0055810Y0167490D01*
X0055766Y0167579D01*
X0055726Y0167670D01*
X0055689Y0167762D01*
X0055656Y0167856D01*
X0055627Y0167951D01*
X0055602Y0168047D01*
X0055580Y0168144D01*
X0055563Y0168242D01*
X0055549Y0168340D01*
X0055539Y0168439D01*
X0055533Y0168539D01*
X0055531Y0168638D01*
X0050531Y0178638D02*
X0050289Y0178513D01*
X0050051Y0178383D01*
X0049815Y0178246D01*
X0049583Y0178104D01*
X0049355Y0177957D01*
X0049130Y0177804D01*
X0048908Y0177645D01*
X0048691Y0177482D01*
X0048478Y0177313D01*
X0048269Y0177138D01*
X0048064Y0176959D01*
X0047864Y0176775D01*
X0047669Y0176586D01*
X0047477Y0176393D01*
X0047291Y0176194D01*
X0047110Y0175992D01*
X0046933Y0175785D01*
X0046762Y0175573D01*
X0046596Y0175358D01*
X0046435Y0175138D01*
X0046280Y0174915D01*
X0046130Y0174688D01*
X0045985Y0174458D01*
X0045846Y0174224D01*
X0045713Y0173986D01*
X0045586Y0173746D01*
X0045465Y0173503D01*
X0045349Y0173256D01*
X0045240Y0173007D01*
X0045137Y0172755D01*
X0045040Y0172501D01*
X0044949Y0172245D01*
X0044864Y0171986D01*
X0044786Y0171726D01*
X0044714Y0171463D01*
X0044648Y0171199D01*
X0044589Y0170934D01*
X0044537Y0170667D01*
X0044491Y0170399D01*
X0044451Y0170130D01*
X0044418Y0169860D01*
X0044392Y0169589D01*
X0044372Y0169318D01*
X0044358Y0169046D01*
X0044352Y0168774D01*
X0044352Y0168502D01*
X0044358Y0168230D01*
X0044372Y0167958D01*
X0044392Y0167687D01*
X0044418Y0167416D01*
X0044451Y0167146D01*
X0044491Y0166877D01*
X0044537Y0166609D01*
X0044589Y0166342D01*
X0044648Y0166077D01*
X0044714Y0165813D01*
X0044786Y0165550D01*
X0044864Y0165290D01*
X0044949Y0165031D01*
X0045040Y0164775D01*
X0045137Y0164521D01*
X0045240Y0164269D01*
X0045349Y0164020D01*
X0045465Y0163773D01*
X0045586Y0163530D01*
X0045713Y0163290D01*
X0045846Y0163052D01*
X0045985Y0162818D01*
X0046130Y0162588D01*
X0046280Y0162361D01*
X0046435Y0162138D01*
X0046596Y0161918D01*
X0046762Y0161703D01*
X0046933Y0161491D01*
X0047110Y0161284D01*
X0047291Y0161082D01*
X0047477Y0160883D01*
X0047669Y0160690D01*
X0047864Y0160501D01*
X0048064Y0160317D01*
X0048269Y0160138D01*
X0048478Y0159963D01*
X0048691Y0159794D01*
X0048908Y0159631D01*
X0049130Y0159472D01*
X0049355Y0159319D01*
X0049583Y0159172D01*
X0049815Y0159030D01*
X0050051Y0158893D01*
X0050289Y0158763D01*
X0050531Y0158638D01*
X0040531Y0153638D02*
X0033031Y0153638D01*
X0033031Y0183638D01*
X0028031Y0183638D02*
X0028031Y0178638D01*
X0013031Y0178638D01*
X0013031Y0173638D01*
X0028031Y0173638D01*
X0028031Y0168638D01*
X0013031Y0168638D01*
X0013031Y0163638D01*
X0028031Y0163638D01*
X0028031Y0158638D01*
X0013031Y0158638D01*
X0013031Y0153638D01*
X0033031Y0153638D01*
X0053031Y0161138D02*
X0052850Y0161232D01*
X0052671Y0161330D01*
X0052494Y0161432D01*
X0052320Y0161538D01*
X0052149Y0161649D01*
X0051980Y0161764D01*
X0051814Y0161882D01*
X0051651Y0162005D01*
X0051491Y0162132D01*
X0051335Y0162263D01*
X0051181Y0162397D01*
X0051031Y0162535D01*
X0050884Y0162677D01*
X0050741Y0162822D01*
X0050601Y0162971D01*
X0050465Y0163123D01*
X0050333Y0163278D01*
X0050204Y0163437D01*
X0050080Y0163598D01*
X0049959Y0163763D01*
X0049842Y0163930D01*
X0049730Y0164100D01*
X0049622Y0164273D01*
X0049518Y0164449D01*
X0049418Y0164627D01*
X0049322Y0164807D01*
X0049231Y0164990D01*
X0049145Y0165174D01*
X0049063Y0165361D01*
X0048985Y0165550D01*
X0048913Y0165741D01*
X0048844Y0165933D01*
X0048781Y0166127D01*
X0048722Y0166322D01*
X0048668Y0166519D01*
X0048619Y0166717D01*
X0048575Y0166916D01*
X0048535Y0167116D01*
X0048501Y0167317D01*
X0048471Y0167519D01*
X0048446Y0167722D01*
X0048426Y0167925D01*
X0048412Y0168128D01*
X0048402Y0168332D01*
X0048397Y0168536D01*
X0048397Y0168740D01*
X0048402Y0168944D01*
X0048412Y0169148D01*
X0048426Y0169351D01*
X0048446Y0169554D01*
X0048471Y0169757D01*
X0048501Y0169959D01*
X0048535Y0170160D01*
X0048575Y0170360D01*
X0048619Y0170559D01*
X0048668Y0170757D01*
X0048722Y0170954D01*
X0048781Y0171149D01*
X0048844Y0171343D01*
X0048913Y0171535D01*
X0048985Y0171726D01*
X0049063Y0171915D01*
X0049145Y0172102D01*
X0049231Y0172286D01*
X0049322Y0172469D01*
X0049418Y0172649D01*
X0049518Y0172827D01*
X0049622Y0173003D01*
X0049730Y0173176D01*
X0049842Y0173346D01*
X0049959Y0173513D01*
X0050080Y0173678D01*
X0050204Y0173839D01*
X0050333Y0173998D01*
X0050465Y0174153D01*
X0050601Y0174305D01*
X0050741Y0174454D01*
X0050884Y0174599D01*
X0051031Y0174741D01*
X0051181Y0174879D01*
X0051335Y0175013D01*
X0051491Y0175144D01*
X0051651Y0175271D01*
X0051814Y0175394D01*
X0051980Y0175512D01*
X0052149Y0175627D01*
X0052320Y0175738D01*
X0052494Y0175844D01*
X0052671Y0175946D01*
X0052850Y0176044D01*
X0053031Y0176138D01*
X0055531Y0173638D02*
X0055394Y0173594D01*
X0055259Y0173547D01*
X0055125Y0173496D01*
X0054992Y0173442D01*
X0054861Y0173384D01*
X0054732Y0173322D01*
X0054604Y0173257D01*
X0054478Y0173188D01*
X0054354Y0173116D01*
X0054232Y0173040D01*
X0054112Y0172961D01*
X0053995Y0172879D01*
X0053880Y0172794D01*
X0053767Y0172705D01*
X0053656Y0172614D01*
X0053548Y0172519D01*
X0053443Y0172422D01*
X0053341Y0172321D01*
X0053241Y0172218D01*
X0053144Y0172113D01*
X0053050Y0172004D01*
X0052959Y0171893D01*
X0052871Y0171780D01*
X0052787Y0171664D01*
X0052705Y0171546D01*
X0052627Y0171426D01*
X0052552Y0171303D01*
X0052481Y0171179D01*
X0052413Y0171053D01*
X0052348Y0170925D01*
X0052287Y0170795D01*
X0052230Y0170663D01*
X0052176Y0170530D01*
X0052126Y0170396D01*
X0052079Y0170260D01*
X0052037Y0170123D01*
X0051998Y0169985D01*
X0051963Y0169846D01*
X0051931Y0169706D01*
X0051904Y0169565D01*
X0051880Y0169424D01*
X0051861Y0169282D01*
X0051845Y0169139D01*
X0051833Y0168996D01*
X0051825Y0168853D01*
X0051821Y0168710D01*
X0051821Y0168566D01*
X0051825Y0168423D01*
X0051833Y0168280D01*
X0051845Y0168137D01*
X0051861Y0167994D01*
X0051880Y0167852D01*
X0051904Y0167711D01*
X0051931Y0167570D01*
X0051963Y0167430D01*
X0051998Y0167291D01*
X0052037Y0167153D01*
X0052079Y0167016D01*
X0052126Y0166880D01*
X0052176Y0166746D01*
X0052230Y0166613D01*
X0052287Y0166481D01*
X0052348Y0166351D01*
X0052413Y0166223D01*
X0052481Y0166097D01*
X0052552Y0165973D01*
X0052627Y0165850D01*
X0052705Y0165730D01*
X0052787Y0165612D01*
X0052871Y0165496D01*
X0052959Y0165383D01*
X0053050Y0165272D01*
X0053144Y0165163D01*
X0053241Y0165058D01*
X0053341Y0164955D01*
X0053443Y0164854D01*
X0053548Y0164757D01*
X0053656Y0164662D01*
X0053767Y0164571D01*
X0053880Y0164482D01*
X0053995Y0164397D01*
X0054112Y0164315D01*
X0054232Y0164236D01*
X0054354Y0164160D01*
X0054478Y0164088D01*
X0054604Y0164019D01*
X0054732Y0163954D01*
X0054861Y0163892D01*
X0054992Y0163834D01*
X0055125Y0163780D01*
X0055259Y0163729D01*
X0055394Y0163682D01*
X0055531Y0163638D01*
X0028031Y0183638D02*
X0013031Y0183638D01*
X0013031Y0193638D01*
X0030584Y0124453D02*
X0033368Y0121669D01*
X0030584Y0121669D02*
X0033368Y0124453D01*
X0033612Y0116345D02*
X0031314Y0114047D01*
X0009507Y0111925D02*
X0009513Y0112408D01*
X0009531Y0112891D01*
X0009560Y0113373D01*
X0009602Y0113854D01*
X0009655Y0114335D01*
X0009720Y0114813D01*
X0009797Y0115290D01*
X0009885Y0115765D01*
X0009985Y0116238D01*
X0010097Y0116708D01*
X0010220Y0117175D01*
X0010355Y0117639D01*
X0010501Y0118100D01*
X0010658Y0118557D01*
X0010826Y0119010D01*
X0011005Y0119458D01*
X0011196Y0119902D01*
X0011397Y0120341D01*
X0011609Y0120776D01*
X0011831Y0121204D01*
X0012064Y0121628D01*
X0012308Y0122045D01*
X0012561Y0122456D01*
X0012825Y0122861D01*
X0013098Y0123260D01*
X0013381Y0123651D01*
X0013673Y0124036D01*
X0013975Y0124413D01*
X0014286Y0124783D01*
X0014606Y0125145D01*
X0014935Y0125499D01*
X0015273Y0125844D01*
X0015618Y0126182D01*
X0015972Y0126511D01*
X0016334Y0126831D01*
X0016704Y0127142D01*
X0017081Y0127444D01*
X0017466Y0127736D01*
X0017857Y0128019D01*
X0018256Y0128292D01*
X0018661Y0128556D01*
X0019072Y0128809D01*
X0019489Y0129053D01*
X0019913Y0129286D01*
X0020341Y0129508D01*
X0020776Y0129720D01*
X0021215Y0129921D01*
X0021659Y0130112D01*
X0022107Y0130291D01*
X0022560Y0130459D01*
X0023017Y0130616D01*
X0023478Y0130762D01*
X0023942Y0130897D01*
X0024409Y0131020D01*
X0024879Y0131132D01*
X0025352Y0131232D01*
X0025827Y0131320D01*
X0026304Y0131397D01*
X0026782Y0131462D01*
X0027263Y0131515D01*
X0027744Y0131557D01*
X0028226Y0131586D01*
X0028709Y0131604D01*
X0029192Y0131610D01*
X0029675Y0131604D01*
X0030158Y0131586D01*
X0030640Y0131557D01*
X0031121Y0131515D01*
X0031602Y0131462D01*
X0032080Y0131397D01*
X0032557Y0131320D01*
X0033032Y0131232D01*
X0033505Y0131132D01*
X0033975Y0131020D01*
X0034442Y0130897D01*
X0034906Y0130762D01*
X0035367Y0130616D01*
X0035824Y0130459D01*
X0036277Y0130291D01*
X0036725Y0130112D01*
X0037169Y0129921D01*
X0037608Y0129720D01*
X0038043Y0129508D01*
X0038471Y0129286D01*
X0038895Y0129053D01*
X0039312Y0128809D01*
X0039723Y0128556D01*
X0040128Y0128292D01*
X0040527Y0128019D01*
X0040918Y0127736D01*
X0041303Y0127444D01*
X0041680Y0127142D01*
X0042050Y0126831D01*
X0042412Y0126511D01*
X0042766Y0126182D01*
X0043111Y0125844D01*
X0043449Y0125499D01*
X0043778Y0125145D01*
X0044098Y0124783D01*
X0044409Y0124413D01*
X0044711Y0124036D01*
X0045003Y0123651D01*
X0045286Y0123260D01*
X0045559Y0122861D01*
X0045823Y0122456D01*
X0046076Y0122045D01*
X0046320Y0121628D01*
X0046553Y0121204D01*
X0046775Y0120776D01*
X0046987Y0120341D01*
X0047188Y0119902D01*
X0047379Y0119458D01*
X0047558Y0119010D01*
X0047726Y0118557D01*
X0047883Y0118100D01*
X0048029Y0117639D01*
X0048164Y0117175D01*
X0048287Y0116708D01*
X0048399Y0116238D01*
X0048499Y0115765D01*
X0048587Y0115290D01*
X0048664Y0114813D01*
X0048729Y0114335D01*
X0048782Y0113854D01*
X0048824Y0113373D01*
X0048853Y0112891D01*
X0048871Y0112408D01*
X0048877Y0111925D01*
X0048871Y0111442D01*
X0048853Y0110959D01*
X0048824Y0110477D01*
X0048782Y0109996D01*
X0048729Y0109515D01*
X0048664Y0109037D01*
X0048587Y0108560D01*
X0048499Y0108085D01*
X0048399Y0107612D01*
X0048287Y0107142D01*
X0048164Y0106675D01*
X0048029Y0106211D01*
X0047883Y0105750D01*
X0047726Y0105293D01*
X0047558Y0104840D01*
X0047379Y0104392D01*
X0047188Y0103948D01*
X0046987Y0103509D01*
X0046775Y0103074D01*
X0046553Y0102646D01*
X0046320Y0102222D01*
X0046076Y0101805D01*
X0045823Y0101394D01*
X0045559Y0100989D01*
X0045286Y0100590D01*
X0045003Y0100199D01*
X0044711Y0099814D01*
X0044409Y0099437D01*
X0044098Y0099067D01*
X0043778Y0098705D01*
X0043449Y0098351D01*
X0043111Y0098006D01*
X0042766Y0097668D01*
X0042412Y0097339D01*
X0042050Y0097019D01*
X0041680Y0096708D01*
X0041303Y0096406D01*
X0040918Y0096114D01*
X0040527Y0095831D01*
X0040128Y0095558D01*
X0039723Y0095294D01*
X0039312Y0095041D01*
X0038895Y0094797D01*
X0038471Y0094564D01*
X0038043Y0094342D01*
X0037608Y0094130D01*
X0037169Y0093929D01*
X0036725Y0093738D01*
X0036277Y0093559D01*
X0035824Y0093391D01*
X0035367Y0093234D01*
X0034906Y0093088D01*
X0034442Y0092953D01*
X0033975Y0092830D01*
X0033505Y0092718D01*
X0033032Y0092618D01*
X0032557Y0092530D01*
X0032080Y0092453D01*
X0031602Y0092388D01*
X0031121Y0092335D01*
X0030640Y0092293D01*
X0030158Y0092264D01*
X0029675Y0092246D01*
X0029192Y0092240D01*
X0028709Y0092246D01*
X0028226Y0092264D01*
X0027744Y0092293D01*
X0027263Y0092335D01*
X0026782Y0092388D01*
X0026304Y0092453D01*
X0025827Y0092530D01*
X0025352Y0092618D01*
X0024879Y0092718D01*
X0024409Y0092830D01*
X0023942Y0092953D01*
X0023478Y0093088D01*
X0023017Y0093234D01*
X0022560Y0093391D01*
X0022107Y0093559D01*
X0021659Y0093738D01*
X0021215Y0093929D01*
X0020776Y0094130D01*
X0020341Y0094342D01*
X0019913Y0094564D01*
X0019489Y0094797D01*
X0019072Y0095041D01*
X0018661Y0095294D01*
X0018256Y0095558D01*
X0017857Y0095831D01*
X0017466Y0096114D01*
X0017081Y0096406D01*
X0016704Y0096708D01*
X0016334Y0097019D01*
X0015972Y0097339D01*
X0015618Y0097668D01*
X0015273Y0098006D01*
X0014935Y0098351D01*
X0014606Y0098705D01*
X0014286Y0099067D01*
X0013975Y0099437D01*
X0013673Y0099814D01*
X0013381Y0100199D01*
X0013098Y0100590D01*
X0012825Y0100989D01*
X0012561Y0101394D01*
X0012308Y0101805D01*
X0012064Y0102222D01*
X0011831Y0102646D01*
X0011609Y0103074D01*
X0011397Y0103509D01*
X0011196Y0103948D01*
X0011005Y0104392D01*
X0010826Y0104840D01*
X0010658Y0105293D01*
X0010501Y0105750D01*
X0010355Y0106211D01*
X0010220Y0106675D01*
X0010097Y0107142D01*
X0009985Y0107612D01*
X0009885Y0108085D01*
X0009797Y0108560D01*
X0009720Y0109037D01*
X0009655Y0109515D01*
X0009602Y0109996D01*
X0009560Y0110477D01*
X0009531Y0110959D01*
X0009513Y0111442D01*
X0009507Y0111925D01*
X0016665Y0107749D02*
X0019449Y0110533D01*
X0024321Y0112621D02*
X0029888Y0107053D01*
X0031280Y0108445D01*
X0025713Y0114013D01*
X0024321Y0112621D01*
X0027104Y0115405D02*
X0028496Y0116797D01*
X0034064Y0111229D01*
X0032672Y0109837D01*
X0027104Y0115405D01*
X0027425Y0110157D02*
X0024773Y0107506D01*
D387*
X0077344Y0146672D02*
X0078278Y0145738D01*
X0079212Y0146672D01*
X0079212Y0148540D01*
X0080106Y0148073D02*
X0080106Y0146205D01*
X0080573Y0145738D01*
X0081507Y0145738D01*
X0081975Y0146205D01*
X0082869Y0146205D02*
X0082869Y0148073D01*
X0083336Y0148540D01*
X0084270Y0148540D01*
X0084737Y0148073D01*
X0084737Y0146205D02*
X0084270Y0145738D01*
X0083336Y0145738D01*
X0082869Y0146205D01*
X0081975Y0148073D02*
X0081507Y0148540D01*
X0080573Y0148540D01*
X0080106Y0148073D01*
X0077344Y0148540D02*
X0077344Y0146672D01*
X0077811Y0155738D02*
X0078745Y0155738D01*
X0079212Y0156205D01*
X0080106Y0156205D02*
X0080573Y0155738D01*
X0081507Y0155738D01*
X0081975Y0156205D01*
X0081975Y0156672D01*
X0081507Y0157139D01*
X0080573Y0157139D01*
X0080106Y0157606D01*
X0080106Y0158073D01*
X0080573Y0158540D01*
X0081507Y0158540D01*
X0081975Y0158073D01*
X0082869Y0158540D02*
X0082869Y0155738D01*
X0084737Y0155738D02*
X0082869Y0158540D01*
X0084737Y0158540D02*
X0084737Y0155738D01*
X0079212Y0158073D02*
X0078745Y0158540D01*
X0077811Y0158540D01*
X0077344Y0158073D01*
X0077344Y0156205D01*
X0077811Y0155738D01*
X0077371Y0165738D02*
X0077371Y0168540D01*
X0076436Y0167606D01*
X0075502Y0168540D01*
X0075502Y0165738D01*
X0078265Y0166205D02*
X0078732Y0165738D01*
X0079666Y0165738D01*
X0080133Y0166205D01*
X0080133Y0168073D01*
X0079666Y0168540D01*
X0078732Y0168540D01*
X0078265Y0168073D01*
X0078265Y0166205D01*
X0081027Y0166205D02*
X0081494Y0165738D01*
X0082428Y0165738D01*
X0082895Y0166205D01*
X0082895Y0166672D01*
X0082428Y0167139D01*
X0081494Y0167139D01*
X0081027Y0167606D01*
X0081027Y0168073D01*
X0081494Y0168540D01*
X0082428Y0168540D01*
X0082895Y0168073D01*
X0083789Y0168540D02*
X0084724Y0168540D01*
X0084256Y0168540D02*
X0084256Y0165738D01*
X0083789Y0165738D02*
X0084724Y0165738D01*
X0089844Y0166205D02*
X0090311Y0165738D01*
X0091245Y0165738D01*
X0091712Y0166205D01*
X0091712Y0166672D01*
X0091245Y0167139D01*
X0090311Y0167139D01*
X0089844Y0167606D01*
X0089844Y0168073D01*
X0090311Y0168540D01*
X0091245Y0168540D01*
X0091712Y0168073D01*
X0092606Y0168073D02*
X0092606Y0166205D01*
X0093073Y0165738D01*
X0094007Y0165738D01*
X0094475Y0166205D01*
X0095369Y0166672D02*
X0097237Y0168540D01*
X0095369Y0168540D02*
X0095369Y0165738D01*
X0095836Y0167139D02*
X0097237Y0165738D01*
X0094475Y0168073D02*
X0094007Y0168540D01*
X0093073Y0168540D01*
X0092606Y0168073D01*
X0093073Y0175738D02*
X0092606Y0176205D01*
X0093073Y0175738D02*
X0094007Y0175738D01*
X0094475Y0176205D01*
X0094475Y0176672D01*
X0094007Y0177139D01*
X0093073Y0177139D01*
X0092606Y0177606D01*
X0092606Y0178073D01*
X0093073Y0178540D01*
X0094007Y0178540D01*
X0094475Y0178073D01*
X0095369Y0178073D02*
X0095369Y0176205D01*
X0095836Y0175738D01*
X0096770Y0175738D01*
X0097237Y0176205D01*
X0097237Y0178073D01*
X0096770Y0178540D01*
X0095836Y0178540D01*
X0095369Y0178073D01*
X0091699Y0178540D02*
X0090765Y0178540D01*
X0091232Y0178540D02*
X0091232Y0175738D01*
X0090765Y0175738D02*
X0091699Y0175738D01*
X0089871Y0175738D02*
X0089871Y0178540D01*
X0088936Y0177606D01*
X0088002Y0178540D01*
X0088002Y0175738D01*
X0084737Y0175738D02*
X0083803Y0176672D01*
X0084737Y0176205D02*
X0084270Y0175738D01*
X0083336Y0175738D01*
X0082869Y0176205D01*
X0082869Y0178073D01*
X0083336Y0178540D01*
X0084270Y0178540D01*
X0084737Y0178073D01*
X0084737Y0176205D01*
X0081975Y0175738D02*
X0081040Y0176672D01*
X0081507Y0176672D02*
X0080106Y0176672D01*
X0080106Y0175738D02*
X0080106Y0178540D01*
X0081507Y0178540D01*
X0081975Y0178073D01*
X0081975Y0177139D01*
X0081507Y0176672D01*
X0079199Y0175738D02*
X0078265Y0175738D01*
X0078732Y0175738D02*
X0078732Y0178540D01*
X0078265Y0178540D02*
X0079199Y0178540D01*
X0093073Y0158540D02*
X0092606Y0158073D01*
X0092606Y0156205D01*
X0093073Y0155738D01*
X0094007Y0155738D01*
X0094475Y0156205D01*
X0095369Y0155738D02*
X0095369Y0158540D01*
X0097237Y0158540D01*
X0096303Y0157139D02*
X0095369Y0157139D01*
X0094475Y0158073D02*
X0094007Y0158540D01*
X0093073Y0158540D01*
X0095369Y0155738D02*
X0097237Y0155738D01*
X0096770Y0148540D02*
X0095369Y0148540D01*
X0095369Y0145738D01*
X0096770Y0145738D01*
X0097237Y0146205D01*
X0097237Y0148073D01*
X0096770Y0148540D01*
X0094475Y0148540D02*
X0094475Y0145738D01*
X0092606Y0148540D01*
X0092606Y0145738D01*
X0091712Y0146205D02*
X0091712Y0147139D01*
X0090778Y0147139D01*
X0089844Y0148073D02*
X0089844Y0146205D01*
X0090311Y0145738D01*
X0091245Y0145738D01*
X0091712Y0146205D01*
X0091712Y0148073D02*
X0091245Y0148540D01*
X0090311Y0148540D01*
X0089844Y0148073D01*
D388*
G36*
X0031279Y0108445D02*
X0029888Y0107054D01*
X0024321Y0112621D01*
X0025712Y0114012D01*
X0031279Y0108445D01*
G37*
M02*
