G75*
%MOIN*%
%OFA0B0*%
%FSLAX24Y24*%
%IPPOS*%
%LPD*%
%AMOC8*
5,1,8,0,0,1.08239X$1,22.5*
%
%ADD10C,0.0780*%
%ADD11R,0.0780X0.0780*%
%ADD12C,0.1300*%
%ADD13C,0.0634*%
%ADD14R,0.0634X0.0634*%
%ADD15OC8,0.0780*%
%ADD16C,0.0713*%
%ADD17C,0.0595*%
D10*
X002799Y007196D03*
X003799Y007196D03*
X004799Y007196D03*
X004299Y008196D03*
X003299Y008196D03*
X002299Y008196D03*
X005299Y008196D03*
X008461Y008196D03*
X009461Y008196D03*
X010461Y008196D03*
X011461Y008196D03*
X010961Y007196D03*
X009961Y007196D03*
X008961Y007196D03*
D11*
X007961Y007196D03*
X001799Y007196D03*
X011553Y014614D03*
D12*
X001299Y004696D03*
X005799Y004696D03*
X007461Y004696D03*
X011961Y004696D03*
D13*
X013655Y004756D03*
X013655Y005756D03*
X013655Y006756D03*
X013655Y007756D03*
X013655Y008756D03*
X013655Y009756D03*
X013655Y010756D03*
X013655Y011756D03*
X013655Y012756D03*
X013655Y014756D03*
X013655Y015756D03*
X013655Y016756D03*
X013655Y017756D03*
X013655Y018756D03*
X019655Y018756D03*
X019655Y017756D03*
X019655Y016756D03*
X019655Y014756D03*
X019655Y013756D03*
X019655Y012756D03*
X019655Y011756D03*
X019655Y010756D03*
X019655Y009756D03*
X019655Y008756D03*
X019655Y007756D03*
X019655Y006756D03*
X019655Y005756D03*
X019655Y004756D03*
X019655Y003756D03*
X019655Y002756D03*
X013655Y002756D03*
X013655Y003756D03*
D14*
X013655Y013756D03*
X019655Y015756D03*
D15*
X011553Y015614D03*
X011553Y016614D03*
X011553Y017614D03*
X010553Y017614D03*
X010553Y016614D03*
X010553Y015614D03*
X010553Y014614D03*
D16*
X013234Y000937D03*
X015833Y000937D03*
X017207Y000937D03*
X019805Y000937D03*
D17*
X003615Y011888D03*
X002223Y010497D03*
M02*
