G75*
%MOIN*%
%OFA0B0*%
%FSLAX24Y24*%
%IPPOS*%
%LPD*%
%AMOC8*
5,1,8,0,0,1.08239X$1,22.5*
%
%ADD10C,0.0000*%
%ADD11R,0.5256X0.0004*%
%ADD12R,0.5316X0.0004*%
%ADD13R,0.5358X0.0004*%
%ADD14R,0.5396X0.0004*%
%ADD15R,0.5428X0.0004*%
%ADD16R,0.5456X0.0004*%
%ADD17R,0.5484X0.0004*%
%ADD18R,0.5508X0.0004*%
%ADD19R,0.5529X0.0004*%
%ADD20R,0.5550X0.0004*%
%ADD21R,0.5568X0.0004*%
%ADD22R,0.5589X0.0004*%
%ADD23R,0.5606X0.0004*%
%ADD24R,0.5620X0.0004*%
%ADD25R,0.5638X0.0004*%
%ADD26R,0.5655X0.0004*%
%ADD27R,0.5669X0.0004*%
%ADD28R,0.5683X0.0004*%
%ADD29R,0.5697X0.0004*%
%ADD30R,0.5711X0.0004*%
%ADD31R,0.5725X0.0004*%
%ADD32R,0.5736X0.0004*%
%ADD33R,0.5746X0.0004*%
%ADD34R,0.5760X0.0004*%
%ADD35R,0.5771X0.0004*%
%ADD36R,0.5782X0.0004*%
%ADD37R,0.5796X0.0004*%
%ADD38R,0.5802X0.0004*%
%ADD39R,0.5816X0.0004*%
%ADD40R,0.5824X0.0004*%
%ADD41R,0.5838X0.0004*%
%ADD42R,0.5845X0.0004*%
%ADD43R,0.5852X0.0004*%
%ADD44R,0.5866X0.0004*%
%ADD45R,0.5873X0.0004*%
%ADD46R,0.5880X0.0004*%
%ADD47R,0.5887X0.0004*%
%ADD48R,0.5897X0.0004*%
%ADD49R,0.0371X0.0004*%
%ADD50R,0.0368X0.0004*%
%ADD51R,0.0333X0.0004*%
%ADD52R,0.0329X0.0004*%
%ADD53R,0.0308X0.0004*%
%ADD54R,0.0308X0.0004*%
%ADD55R,0.0294X0.0004*%
%ADD56R,0.0284X0.0004*%
%ADD57R,0.0280X0.0004*%
%ADD58R,0.0273X0.0004*%
%ADD59R,0.0270X0.0004*%
%ADD60R,0.0263X0.0004*%
%ADD61R,0.0256X0.0004*%
%ADD62R,0.0256X0.0004*%
%ADD63R,0.0249X0.0004*%
%ADD64R,0.0242X0.0004*%
%ADD65R,0.0238X0.0004*%
%ADD66R,0.0235X0.0004*%
%ADD67R,0.0231X0.0004*%
%ADD68R,0.0228X0.0004*%
%ADD69R,0.0228X0.0004*%
%ADD70R,0.0224X0.0004*%
%ADD71R,0.0224X0.0004*%
%ADD72R,0.0221X0.0004*%
%ADD73R,0.0221X0.0004*%
%ADD74R,0.0217X0.0004*%
%ADD75R,0.0217X0.0004*%
%ADD76R,0.0214X0.0004*%
%ADD77R,0.0214X0.0004*%
%ADD78R,0.0210X0.0004*%
%ADD79R,0.0207X0.0004*%
%ADD80R,0.0210X0.0004*%
%ADD81R,0.0203X0.0004*%
%ADD82R,0.0203X0.0004*%
%ADD83R,0.0203X0.0004*%
%ADD84R,0.0200X0.0004*%
%ADD85R,0.0200X0.0004*%
%ADD86R,0.0193X0.0004*%
%ADD87R,0.0193X0.0004*%
%ADD88R,0.0189X0.0004*%
%ADD89R,0.0189X0.0004*%
%ADD90R,0.0186X0.0004*%
%ADD91R,0.0186X0.0004*%
%ADD92R,0.0182X0.0004*%
%ADD93R,0.0179X0.0004*%
%ADD94R,0.0179X0.0004*%
%ADD95R,0.0179X0.0004*%
%ADD96R,0.0175X0.0004*%
%ADD97R,0.0175X0.0004*%
%ADD98R,0.0175X0.0004*%
%ADD99R,0.0172X0.0004*%
%ADD100R,0.0172X0.0004*%
%ADD101R,0.0172X0.0004*%
%ADD102R,0.0168X0.0004*%
%ADD103R,0.0168X0.0004*%
%ADD104R,0.0168X0.0004*%
%ADD105R,0.0165X0.0004*%
%ADD106R,0.0165X0.0004*%
%ADD107R,0.0161X0.0004*%
%ADD108R,0.0161X0.0004*%
%ADD109R,0.0165X0.0004*%
%ADD110R,0.0161X0.0004*%
%ADD111R,0.0158X0.0004*%
%ADD112R,0.0158X0.0004*%
%ADD113R,0.0158X0.0004*%
%ADD114R,0.0154X0.0004*%
%ADD115R,0.0154X0.0004*%
%ADD116R,0.0123X0.0004*%
%ADD117R,0.0137X0.0004*%
%ADD118R,0.0130X0.0004*%
%ADD119R,0.0053X0.0004*%
%ADD120R,0.0123X0.0004*%
%ADD121R,0.0007X0.0004*%
%ADD122R,0.0126X0.0004*%
%ADD123R,0.0137X0.0004*%
%ADD124R,0.0123X0.0004*%
%ADD125R,0.0053X0.0004*%
%ADD126R,0.0035X0.0004*%
%ADD127R,0.0039X0.0004*%
%ADD128R,0.0053X0.0004*%
%ADD129R,0.0154X0.0004*%
%ADD130R,0.0133X0.0004*%
%ADD131R,0.0133X0.0004*%
%ADD132R,0.0098X0.0004*%
%ADD133R,0.0105X0.0004*%
%ADD134R,0.0084X0.0004*%
%ADD135R,0.0102X0.0004*%
%ADD136R,0.0084X0.0004*%
%ADD137R,0.0130X0.0004*%
%ADD138R,0.0140X0.0004*%
%ADD139R,0.0116X0.0004*%
%ADD140R,0.0116X0.0004*%
%ADD141R,0.0151X0.0004*%
%ADD142R,0.0151X0.0004*%
%ADD143R,0.0182X0.0004*%
%ADD144R,0.0182X0.0004*%
%ADD145R,0.0186X0.0004*%
%ADD146R,0.0133X0.0004*%
%ADD147R,0.0196X0.0004*%
%ADD148R,0.0193X0.0004*%
%ADD149R,0.0207X0.0004*%
%ADD150R,0.0231X0.0004*%
%ADD151R,0.0210X0.0004*%
%ADD152R,0.0147X0.0004*%
%ADD153R,0.0130X0.0004*%
%ADD154R,0.0242X0.0004*%
%ADD155R,0.0245X0.0004*%
%ADD156R,0.0256X0.0004*%
%ADD157R,0.0224X0.0004*%
%ADD158R,0.0231X0.0004*%
%ADD159R,0.0263X0.0004*%
%ADD160R,0.0238X0.0004*%
%ADD161R,0.0112X0.0004*%
%ADD162R,0.0242X0.0004*%
%ADD163R,0.0147X0.0004*%
%ADD164R,0.0147X0.0004*%
%ADD165R,0.0119X0.0004*%
%ADD166R,0.0270X0.0004*%
%ADD167R,0.0277X0.0004*%
%ADD168R,0.0249X0.0004*%
%ADD169R,0.0105X0.0004*%
%ADD170R,0.0151X0.0004*%
%ADD171R,0.0109X0.0004*%
%ADD172R,0.0284X0.0004*%
%ADD173R,0.0095X0.0004*%
%ADD174R,0.0109X0.0004*%
%ADD175R,0.0105X0.0004*%
%ADD176R,0.0287X0.0004*%
%ADD177R,0.0291X0.0004*%
%ADD178R,0.0102X0.0004*%
%ADD179R,0.0095X0.0004*%
%ADD180R,0.0112X0.0004*%
%ADD181R,0.0109X0.0004*%
%ADD182R,0.0102X0.0004*%
%ADD183R,0.0294X0.0004*%
%ADD184R,0.0301X0.0004*%
%ADD185R,0.0098X0.0004*%
%ADD186R,0.0091X0.0004*%
%ADD187R,0.0112X0.0004*%
%ADD188R,0.0091X0.0004*%
%ADD189R,0.0144X0.0004*%
%ADD190R,0.0144X0.0004*%
%ADD191R,0.0091X0.0004*%
%ADD192R,0.0144X0.0004*%
%ADD193R,0.0126X0.0004*%
%ADD194R,0.0098X0.0004*%
%ADD195R,0.0140X0.0004*%
%ADD196R,0.0126X0.0004*%
%ADD197R,0.0259X0.0004*%
%ADD198R,0.0116X0.0004*%
%ADD199R,0.0140X0.0004*%
%ADD200R,0.0221X0.0004*%
%ADD201R,0.0077X0.0004*%
%ADD202R,0.0137X0.0004*%
%ADD203R,0.0189X0.0004*%
%ADD204R,0.0322X0.0004*%
%ADD205R,0.0326X0.0004*%
%ADD206R,0.0322X0.0004*%
%ADD207R,0.0217X0.0004*%
%ADD208R,0.0319X0.0004*%
%ADD209R,0.0252X0.0004*%
%ADD210R,0.0319X0.0004*%
%ADD211R,0.0315X0.0004*%
%ADD212R,0.0259X0.0004*%
%ADD213R,0.0228X0.0004*%
%ADD214R,0.0266X0.0004*%
%ADD215R,0.0270X0.0004*%
%ADD216R,0.0312X0.0004*%
%ADD217R,0.0273X0.0004*%
%ADD218R,0.0312X0.0004*%
%ADD219R,0.0277X0.0004*%
%ADD220R,0.0266X0.0004*%
%ADD221R,0.0214X0.0004*%
%ADD222R,0.0277X0.0004*%
%ADD223R,0.0280X0.0004*%
%ADD224R,0.0284X0.0004*%
%ADD225R,0.0291X0.0004*%
%ADD226R,0.0235X0.0004*%
%ADD227R,0.0245X0.0004*%
%ADD228R,0.0280X0.0004*%
%ADD229R,0.0095X0.0004*%
%ADD230R,0.0357X0.0004*%
%ADD231R,0.0357X0.0004*%
%ADD232R,0.0354X0.0004*%
%ADD233R,0.0298X0.0004*%
%ADD234R,0.0350X0.0004*%
%ADD235R,0.0350X0.0004*%
%ADD236R,0.0245X0.0004*%
%ADD237R,0.0200X0.0004*%
%ADD238R,0.0235X0.0004*%
%ADD239R,0.0196X0.0004*%
%ADD240R,0.0084X0.0004*%
%ADD241R,0.0119X0.0004*%
%ADD242R,0.0046X0.0004*%
%ADD243R,0.0081X0.0004*%
%ADD244R,0.0049X0.0004*%
%ADD245R,0.0060X0.0004*%
%ADD246R,0.0056X0.0004*%
%ADD247R,0.0060X0.0004*%
%ADD248R,0.0119X0.0004*%
%ADD249R,0.0298X0.0004*%
%ADD250R,0.0287X0.0004*%
%ADD251R,0.0273X0.0004*%
%ADD252R,0.0207X0.0004*%
%ADD253R,0.0074X0.0004*%
%ADD254R,0.0014X0.0004*%
%ADD255R,0.0196X0.0004*%
%ADD256R,0.0249X0.0004*%
%ADD257R,0.0263X0.0004*%
%ADD258R,0.0291X0.0004*%
%ADD259R,0.0305X0.0004*%
%ADD260R,0.0305X0.0004*%
%ADD261R,0.0319X0.0004*%
%ADD262R,0.0340X0.0004*%
%ADD263R,0.0343X0.0004*%
%ADD264R,0.5901X0.0004*%
%ADD265R,0.5894X0.0004*%
%ADD266R,0.5859X0.0004*%
%ADD267R,0.5831X0.0004*%
%ADD268R,0.5810X0.0004*%
%ADD269R,0.5789X0.0004*%
%ADD270R,0.5767X0.0004*%
%ADD271R,0.5753X0.0004*%
%ADD272R,0.5732X0.0004*%
%ADD273R,0.5718X0.0004*%
%ADD274R,0.5704X0.0004*%
%ADD275R,0.5690X0.0004*%
%ADD276R,0.5676X0.0004*%
%ADD277R,0.5662X0.0004*%
%ADD278R,0.5648X0.0004*%
%ADD279R,0.5634X0.0004*%
%ADD280R,0.5599X0.0004*%
%ADD281R,0.5585X0.0004*%
%ADD282R,0.5564X0.0004*%
%ADD283R,0.5543X0.0004*%
%ADD284R,0.5522X0.0004*%
%ADD285R,0.5501X0.0004*%
%ADD286R,0.5480X0.0004*%
%ADD287R,0.5452X0.0004*%
%ADD288R,0.5424X0.0004*%
%ADD289R,0.5389X0.0004*%
%ADD290R,0.5351X0.0004*%
%ADD291R,0.5305X0.0004*%
%ADD292R,0.5238X0.0004*%
%ADD293R,0.0315X0.0004*%
%ADD294R,0.0326X0.0004*%
%ADD295R,0.0333X0.0004*%
%ADD296R,0.0347X0.0004*%
%ADD297R,0.0364X0.0004*%
%ADD298R,0.0364X0.0004*%
%ADD299R,0.0385X0.0004*%
%ADD300R,0.0385X0.0004*%
%ADD301R,0.0421X0.0004*%
%ADD302R,0.0452X0.0004*%
%ADD303R,0.0452X0.0004*%
%ADD304R,0.0449X0.0004*%
%ADD305R,0.0448X0.0004*%
%ADD306R,0.0442X0.0004*%
%ADD307R,0.0441X0.0004*%
%ADD308R,0.0434X0.0004*%
%ADD309R,0.0431X0.0004*%
%ADD310R,0.0431X0.0004*%
%ADD311R,0.0424X0.0004*%
%ADD312R,0.0424X0.0004*%
%ADD313R,0.0417X0.0004*%
%ADD314R,0.0417X0.0004*%
%ADD315R,0.0414X0.0004*%
%ADD316R,0.0413X0.0004*%
%ADD317R,0.0406X0.0004*%
%ADD318R,0.0406X0.0004*%
%ADD319R,0.0399X0.0004*%
%ADD320R,0.0399X0.0004*%
%ADD321R,0.0392X0.0004*%
%ADD322R,0.0385X0.0004*%
%ADD323R,0.0382X0.0004*%
%ADD324R,0.0382X0.0004*%
%ADD325R,0.0375X0.0004*%
%ADD326R,0.0361X0.0004*%
%ADD327R,0.0361X0.0004*%
%ADD328R,0.0343X0.0004*%
%ADD329R,0.0336X0.0004*%
%ADD330R,0.0336X0.0004*%
%ADD331R,0.0329X0.0004*%
%ADD332R,0.0322X0.0004*%
%ADD333R,0.0312X0.0004*%
%ADD334R,0.0294X0.0004*%
%ADD335R,0.0088X0.0004*%
%ADD336R,0.0039X0.0004*%
%ADD337R,0.0252X0.0004*%
%ADD338R,0.0252X0.0004*%
%ADD339R,0.0266X0.0004*%
%ADD340R,0.0287X0.0004*%
%ADD341R,0.0298X0.0004*%
%ADD342R,0.0301X0.0004*%
%ADD343R,0.0308X0.0004*%
%ADD344R,0.0333X0.0004*%
%ADD345R,0.0343X0.0004*%
%ADD346R,0.0354X0.0004*%
%ADD347R,0.0354X0.0004*%
%ADD348R,0.0371X0.0004*%
%ADD349R,0.0463X0.0004*%
%ADD350R,0.0463X0.0004*%
%ADD351R,0.0533X0.0004*%
%ADD352R,0.0533X0.0004*%
%ADD353R,0.0533X0.0004*%
%ADD354R,0.0526X0.0004*%
%ADD355R,0.0526X0.0004*%
%ADD356R,0.0519X0.0004*%
%ADD357R,0.0519X0.0004*%
%ADD358R,0.0512X0.0004*%
%ADD359R,0.0512X0.0004*%
%ADD360R,0.0505X0.0004*%
%ADD361R,0.0498X0.0004*%
%ADD362R,0.0498X0.0004*%
%ADD363R,0.0491X0.0004*%
%ADD364R,0.0491X0.0004*%
%ADD365R,0.0484X0.0004*%
%ADD366R,0.0484X0.0004*%
%ADD367R,0.0477X0.0004*%
%ADD368R,0.0470X0.0004*%
%ADD369R,0.0469X0.0004*%
%ADD370R,0.0445X0.0004*%
%ADD371R,0.0445X0.0004*%
%ADD372R,0.0438X0.0004*%
%ADD373R,0.0438X0.0004*%
%ADD374R,0.0427X0.0004*%
%ADD375R,0.0427X0.0004*%
%ADD376R,0.0420X0.0004*%
%ADD377R,0.0420X0.0004*%
%ADD378R,0.0410X0.0004*%
%ADD379R,0.0410X0.0004*%
%ADD380R,0.0403X0.0004*%
%ADD381R,0.0403X0.0004*%
%ADD382R,0.0364X0.0004*%
%ADD383C,0.0030*%
%ADD384C,0.0040*%
%ADD385C,0.0060*%
%ADD386R,0.0200X0.0200*%
%ADD387C,0.0050*%
%ADD388C,0.0020*%
%ADD389R,0.0197X0.0787*%
D10*
X000557Y000366D02*
X000557Y020051D01*
X020242Y020051D01*
X020242Y000366D01*
X000557Y000366D01*
X000669Y004696D02*
X000671Y004746D01*
X000677Y004796D01*
X000687Y004845D01*
X000701Y004893D01*
X000718Y004940D01*
X000739Y004985D01*
X000764Y005029D01*
X000792Y005070D01*
X000824Y005109D01*
X000858Y005146D01*
X000895Y005180D01*
X000935Y005210D01*
X000977Y005237D01*
X001021Y005261D01*
X001067Y005282D01*
X001114Y005298D01*
X001162Y005311D01*
X001212Y005320D01*
X001261Y005325D01*
X001312Y005326D01*
X001362Y005323D01*
X001411Y005316D01*
X001460Y005305D01*
X001508Y005290D01*
X001554Y005272D01*
X001599Y005250D01*
X001642Y005224D01*
X001683Y005195D01*
X001722Y005163D01*
X001758Y005128D01*
X001790Y005090D01*
X001820Y005050D01*
X001847Y005007D01*
X001870Y004963D01*
X001889Y004917D01*
X001905Y004869D01*
X001917Y004820D01*
X001925Y004771D01*
X001929Y004721D01*
X001929Y004671D01*
X001925Y004621D01*
X001917Y004572D01*
X001905Y004523D01*
X001889Y004475D01*
X001870Y004429D01*
X001847Y004385D01*
X001820Y004342D01*
X001790Y004302D01*
X001758Y004264D01*
X001722Y004229D01*
X001683Y004197D01*
X001642Y004168D01*
X001599Y004142D01*
X001554Y004120D01*
X001508Y004102D01*
X001460Y004087D01*
X001411Y004076D01*
X001362Y004069D01*
X001312Y004066D01*
X001261Y004067D01*
X001212Y004072D01*
X001162Y004081D01*
X001114Y004094D01*
X001067Y004110D01*
X001021Y004131D01*
X000977Y004155D01*
X000935Y004182D01*
X000895Y004212D01*
X000858Y004246D01*
X000824Y004283D01*
X000792Y004322D01*
X000764Y004363D01*
X000739Y004407D01*
X000718Y004452D01*
X000701Y004499D01*
X000687Y004547D01*
X000677Y004596D01*
X000671Y004646D01*
X000669Y004696D01*
X005169Y004696D02*
X005171Y004746D01*
X005177Y004796D01*
X005187Y004845D01*
X005201Y004893D01*
X005218Y004940D01*
X005239Y004985D01*
X005264Y005029D01*
X005292Y005070D01*
X005324Y005109D01*
X005358Y005146D01*
X005395Y005180D01*
X005435Y005210D01*
X005477Y005237D01*
X005521Y005261D01*
X005567Y005282D01*
X005614Y005298D01*
X005662Y005311D01*
X005712Y005320D01*
X005761Y005325D01*
X005812Y005326D01*
X005862Y005323D01*
X005911Y005316D01*
X005960Y005305D01*
X006008Y005290D01*
X006054Y005272D01*
X006099Y005250D01*
X006142Y005224D01*
X006183Y005195D01*
X006222Y005163D01*
X006258Y005128D01*
X006290Y005090D01*
X006320Y005050D01*
X006347Y005007D01*
X006370Y004963D01*
X006389Y004917D01*
X006405Y004869D01*
X006417Y004820D01*
X006425Y004771D01*
X006429Y004721D01*
X006429Y004671D01*
X006425Y004621D01*
X006417Y004572D01*
X006405Y004523D01*
X006389Y004475D01*
X006370Y004429D01*
X006347Y004385D01*
X006320Y004342D01*
X006290Y004302D01*
X006258Y004264D01*
X006222Y004229D01*
X006183Y004197D01*
X006142Y004168D01*
X006099Y004142D01*
X006054Y004120D01*
X006008Y004102D01*
X005960Y004087D01*
X005911Y004076D01*
X005862Y004069D01*
X005812Y004066D01*
X005761Y004067D01*
X005712Y004072D01*
X005662Y004081D01*
X005614Y004094D01*
X005567Y004110D01*
X005521Y004131D01*
X005477Y004155D01*
X005435Y004182D01*
X005395Y004212D01*
X005358Y004246D01*
X005324Y004283D01*
X005292Y004322D01*
X005264Y004363D01*
X005239Y004407D01*
X005218Y004452D01*
X005201Y004499D01*
X005187Y004547D01*
X005177Y004596D01*
X005171Y004646D01*
X005169Y004696D01*
X006831Y004696D02*
X006833Y004746D01*
X006839Y004796D01*
X006849Y004845D01*
X006863Y004893D01*
X006880Y004940D01*
X006901Y004985D01*
X006926Y005029D01*
X006954Y005070D01*
X006986Y005109D01*
X007020Y005146D01*
X007057Y005180D01*
X007097Y005210D01*
X007139Y005237D01*
X007183Y005261D01*
X007229Y005282D01*
X007276Y005298D01*
X007324Y005311D01*
X007374Y005320D01*
X007423Y005325D01*
X007474Y005326D01*
X007524Y005323D01*
X007573Y005316D01*
X007622Y005305D01*
X007670Y005290D01*
X007716Y005272D01*
X007761Y005250D01*
X007804Y005224D01*
X007845Y005195D01*
X007884Y005163D01*
X007920Y005128D01*
X007952Y005090D01*
X007982Y005050D01*
X008009Y005007D01*
X008032Y004963D01*
X008051Y004917D01*
X008067Y004869D01*
X008079Y004820D01*
X008087Y004771D01*
X008091Y004721D01*
X008091Y004671D01*
X008087Y004621D01*
X008079Y004572D01*
X008067Y004523D01*
X008051Y004475D01*
X008032Y004429D01*
X008009Y004385D01*
X007982Y004342D01*
X007952Y004302D01*
X007920Y004264D01*
X007884Y004229D01*
X007845Y004197D01*
X007804Y004168D01*
X007761Y004142D01*
X007716Y004120D01*
X007670Y004102D01*
X007622Y004087D01*
X007573Y004076D01*
X007524Y004069D01*
X007474Y004066D01*
X007423Y004067D01*
X007374Y004072D01*
X007324Y004081D01*
X007276Y004094D01*
X007229Y004110D01*
X007183Y004131D01*
X007139Y004155D01*
X007097Y004182D01*
X007057Y004212D01*
X007020Y004246D01*
X006986Y004283D01*
X006954Y004322D01*
X006926Y004363D01*
X006901Y004407D01*
X006880Y004452D01*
X006863Y004499D01*
X006849Y004547D01*
X006839Y004596D01*
X006833Y004646D01*
X006831Y004696D01*
X011331Y004696D02*
X011333Y004746D01*
X011339Y004796D01*
X011349Y004845D01*
X011363Y004893D01*
X011380Y004940D01*
X011401Y004985D01*
X011426Y005029D01*
X011454Y005070D01*
X011486Y005109D01*
X011520Y005146D01*
X011557Y005180D01*
X011597Y005210D01*
X011639Y005237D01*
X011683Y005261D01*
X011729Y005282D01*
X011776Y005298D01*
X011824Y005311D01*
X011874Y005320D01*
X011923Y005325D01*
X011974Y005326D01*
X012024Y005323D01*
X012073Y005316D01*
X012122Y005305D01*
X012170Y005290D01*
X012216Y005272D01*
X012261Y005250D01*
X012304Y005224D01*
X012345Y005195D01*
X012384Y005163D01*
X012420Y005128D01*
X012452Y005090D01*
X012482Y005050D01*
X012509Y005007D01*
X012532Y004963D01*
X012551Y004917D01*
X012567Y004869D01*
X012579Y004820D01*
X012587Y004771D01*
X012591Y004721D01*
X012591Y004671D01*
X012587Y004621D01*
X012579Y004572D01*
X012567Y004523D01*
X012551Y004475D01*
X012532Y004429D01*
X012509Y004385D01*
X012482Y004342D01*
X012452Y004302D01*
X012420Y004264D01*
X012384Y004229D01*
X012345Y004197D01*
X012304Y004168D01*
X012261Y004142D01*
X012216Y004120D01*
X012170Y004102D01*
X012122Y004087D01*
X012073Y004076D01*
X012024Y004069D01*
X011974Y004066D01*
X011923Y004067D01*
X011874Y004072D01*
X011824Y004081D01*
X011776Y004094D01*
X011729Y004110D01*
X011683Y004131D01*
X011639Y004155D01*
X011597Y004182D01*
X011557Y004212D01*
X011520Y004246D01*
X011486Y004283D01*
X011454Y004322D01*
X011426Y004363D01*
X011401Y004407D01*
X011380Y004452D01*
X011363Y004499D01*
X011349Y004547D01*
X011339Y004596D01*
X011333Y004646D01*
X011331Y004696D01*
D11*
X009199Y010878D03*
D12*
X009201Y010881D03*
D13*
X009201Y010885D03*
D14*
X009200Y010888D03*
D15*
X009201Y010892D03*
D16*
X009201Y010895D03*
D17*
X009201Y010899D03*
D18*
X009199Y010902D03*
D19*
X009199Y010906D03*
D20*
X009199Y010909D03*
D21*
X009201Y010913D03*
D22*
X009201Y010916D03*
D23*
X009199Y010920D03*
D24*
X009199Y010923D03*
X009199Y011911D03*
D25*
X009201Y010927D03*
D26*
X009200Y010930D03*
D27*
X009199Y010934D03*
D28*
X009199Y010937D03*
D29*
X009200Y010941D03*
D30*
X009199Y010944D03*
D31*
X009199Y010948D03*
D32*
X009201Y010951D03*
D33*
X009200Y010955D03*
X009200Y011880D03*
D34*
X009199Y010958D03*
D35*
X009201Y010962D03*
D36*
X009199Y010965D03*
X009199Y011869D03*
D37*
X009200Y010969D03*
D38*
X009199Y010972D03*
X009199Y011862D03*
D39*
X009199Y010976D03*
D40*
X009199Y010979D03*
X009199Y011855D03*
D41*
X009199Y011848D03*
X009199Y010983D03*
D42*
X009200Y010986D03*
D43*
X009199Y010990D03*
X009199Y011845D03*
D44*
X009199Y011838D03*
X009199Y010993D03*
D45*
X009200Y010997D03*
D46*
X009199Y011000D03*
X009199Y011834D03*
D47*
X009199Y011831D03*
X009199Y011004D03*
D48*
X009201Y011007D03*
D49*
X006431Y011011D03*
X012199Y012402D03*
D50*
X011994Y012174D03*
X011969Y011011D03*
X006405Y012174D03*
D51*
X006409Y011014D03*
X012120Y012107D03*
X012250Y012384D03*
D52*
X011992Y011014D03*
X006424Y012192D03*
X006424Y012510D03*
D53*
X006249Y012097D03*
X006393Y011018D03*
X009806Y011564D03*
X011761Y011400D03*
D54*
X012006Y011018D03*
X012150Y012097D03*
X011964Y012517D03*
X007581Y011400D03*
X006116Y012370D03*
D55*
X006442Y012521D03*
X006442Y012206D03*
X006382Y011021D03*
X012017Y011021D03*
D56*
X008083Y011407D03*
X008073Y011417D03*
X008062Y011428D03*
X006447Y012209D03*
X006374Y011025D03*
D57*
X006218Y012083D03*
X006074Y012349D03*
X008075Y011575D03*
X008061Y011431D03*
X008085Y011403D03*
X008089Y011400D03*
X008075Y011249D03*
X009806Y011578D03*
X012031Y011806D03*
X012181Y012083D03*
X012325Y012349D03*
X012332Y012346D03*
X011950Y012524D03*
X012027Y011025D03*
D58*
X009806Y011582D03*
X006614Y011592D03*
X006365Y011028D03*
X006060Y012342D03*
D59*
X006205Y012076D03*
X012039Y011803D03*
X012036Y011028D03*
D60*
X012043Y011032D03*
X012362Y012328D03*
X009811Y011242D03*
X009345Y011466D03*
X009345Y011470D03*
X009345Y011473D03*
X009345Y011477D03*
X009345Y011480D03*
X009345Y011484D03*
X009345Y011487D03*
X009345Y011491D03*
X009345Y011494D03*
X009345Y011498D03*
X009345Y011501D03*
X009345Y011505D03*
X009345Y011508D03*
X009345Y011512D03*
X006608Y011599D03*
X006356Y011032D03*
X006191Y012069D03*
X006458Y012216D03*
D61*
X006181Y012062D03*
X006349Y011035D03*
X011265Y011466D03*
X011938Y012220D03*
X012218Y012062D03*
D62*
X012376Y012321D03*
X012053Y011796D03*
X012050Y011035D03*
X009811Y011238D03*
X007197Y011298D03*
X006346Y011796D03*
X006023Y012321D03*
D63*
X006002Y012307D03*
X006174Y012058D03*
X006342Y011039D03*
X012057Y011039D03*
X012060Y011792D03*
D64*
X011931Y012223D03*
X012407Y012300D03*
X012064Y011042D03*
X006468Y012223D03*
X006156Y012048D03*
X005985Y012297D03*
X006332Y011789D03*
X006335Y011042D03*
D65*
X006330Y011046D03*
X006596Y011389D03*
X007199Y011309D03*
X008075Y011592D03*
X008124Y011368D03*
X006151Y012044D03*
X005979Y012293D03*
X012073Y011785D03*
X012248Y012044D03*
X012423Y012290D03*
X012420Y012293D03*
X012069Y011046D03*
D66*
X010207Y011473D03*
X009807Y011596D03*
X006472Y012535D03*
X006146Y012041D03*
X006325Y011049D03*
D67*
X007199Y011312D03*
X007199Y011414D03*
X006141Y012037D03*
X005965Y012283D03*
X009813Y011231D03*
X011926Y012227D03*
X012076Y011049D03*
D68*
X011265Y011238D03*
X010932Y011238D03*
X010207Y011238D03*
X008129Y011365D03*
X008017Y011470D03*
X007197Y011316D03*
X006318Y011053D03*
X006314Y011778D03*
X006132Y012030D03*
X005946Y012269D03*
X005950Y012272D03*
X012453Y012269D03*
D69*
X012449Y012272D03*
X012081Y011053D03*
D70*
X011263Y011477D03*
X010927Y011361D03*
X008075Y011596D03*
X007584Y011238D03*
X006312Y011056D03*
X006309Y011775D03*
X005941Y012265D03*
D71*
X006127Y012027D03*
X007199Y011410D03*
X010930Y011477D03*
X012087Y011056D03*
X012462Y012262D03*
X012458Y012265D03*
D72*
X012467Y012258D03*
X012470Y012255D03*
X010936Y011354D03*
X010207Y011235D03*
X009807Y011599D03*
X006307Y011060D03*
X006121Y012023D03*
D73*
X006118Y012020D03*
X005932Y012258D03*
X006587Y011617D03*
X009814Y011228D03*
X010918Y011368D03*
X012092Y011060D03*
X012088Y011775D03*
D74*
X010941Y011351D03*
X006302Y011063D03*
X006113Y012016D03*
D75*
X005923Y012251D03*
X006480Y012230D03*
X006480Y012538D03*
X007584Y011470D03*
X007584Y011235D03*
X007199Y011323D03*
X008078Y011228D03*
X008134Y011361D03*
X010640Y011466D03*
X010930Y011480D03*
X010944Y011347D03*
X010934Y011235D03*
X011263Y011235D03*
X011761Y011470D03*
X012094Y011771D03*
X012097Y011768D03*
X012290Y012013D03*
X012286Y012016D03*
X012479Y012248D03*
X012476Y012251D03*
X011919Y012230D03*
X011919Y012538D03*
X012097Y011063D03*
D76*
X012102Y011067D03*
X011763Y011235D03*
X012102Y011764D03*
X012299Y012006D03*
X012488Y012241D03*
X012484Y012244D03*
X010950Y011344D03*
X010207Y011480D03*
X008550Y011466D03*
X006296Y011764D03*
X006104Y012009D03*
X005911Y012241D03*
X006296Y011067D03*
D77*
X006293Y011070D03*
X006100Y012006D03*
X005915Y012244D03*
X011265Y011480D03*
D78*
X012108Y011761D03*
X012497Y012234D03*
X012108Y011070D03*
X008075Y011599D03*
X007584Y011473D03*
X007199Y011326D03*
X006582Y011382D03*
X006291Y011761D03*
X006095Y012002D03*
X005899Y012230D03*
X005902Y012234D03*
D79*
X005894Y012227D03*
X006086Y011995D03*
X006079Y011988D03*
X006289Y011074D03*
X010908Y011375D03*
X011265Y011231D03*
X011763Y011231D03*
X011763Y011473D03*
X012113Y011757D03*
X012117Y011754D03*
X012505Y012227D03*
X011913Y012234D03*
D80*
X012304Y012002D03*
X012307Y011999D03*
X012500Y012230D03*
X012111Y011074D03*
D81*
X008141Y011358D03*
X007199Y011330D03*
X007199Y011396D03*
X006284Y011077D03*
X005874Y012209D03*
X005881Y012216D03*
D82*
X005871Y012206D03*
X006070Y011981D03*
X008078Y011224D03*
X008551Y011473D03*
X010902Y011379D03*
X012115Y011077D03*
X012329Y011981D03*
X012325Y011985D03*
X012525Y012209D03*
X012521Y012213D03*
D83*
X012518Y012216D03*
X012528Y012206D03*
X012118Y011081D03*
X010955Y011340D03*
X009816Y011224D03*
X006281Y011081D03*
X006074Y011985D03*
X005878Y012213D03*
D84*
X005866Y012202D03*
X005862Y012199D03*
X005855Y012192D03*
X006069Y011978D03*
X006275Y011747D03*
X006275Y011084D03*
X011910Y012542D03*
X012330Y011978D03*
X012547Y012188D03*
X012541Y012195D03*
X012537Y012199D03*
X012120Y011750D03*
X012127Y011088D03*
D85*
X012124Y011084D03*
X012124Y011747D03*
X012533Y012202D03*
X011265Y011484D03*
X008003Y011477D03*
X006489Y012542D03*
X005858Y012195D03*
X005851Y012188D03*
X006272Y011088D03*
D86*
X006268Y011091D03*
X006265Y011095D03*
X006044Y011957D03*
X006048Y011960D03*
X005834Y012171D03*
X005827Y012164D03*
X007996Y011480D03*
X008553Y011477D03*
X010207Y011228D03*
X010894Y011382D03*
X012131Y011091D03*
X012134Y011095D03*
X012355Y011957D03*
X012351Y011960D03*
X012562Y012174D03*
X012565Y012171D03*
X012569Y012167D03*
X012572Y012164D03*
X012576Y012160D03*
X012558Y012178D03*
D87*
X010641Y011477D03*
X009807Y011606D03*
X007197Y011389D03*
X007197Y011337D03*
X006261Y011098D03*
X005830Y012167D03*
X005837Y012174D03*
D88*
X006039Y011950D03*
X006260Y011733D03*
X006263Y011736D03*
X006256Y011729D03*
X006256Y011102D03*
X007199Y011340D03*
X012139Y011098D03*
X012139Y011733D03*
X012136Y011736D03*
X012357Y011953D03*
X012367Y011943D03*
D89*
X012364Y011946D03*
X012360Y011950D03*
X012581Y012156D03*
X012143Y011729D03*
X012143Y011102D03*
X006035Y011946D03*
X006028Y011939D03*
X005818Y012156D03*
D90*
X005816Y012153D03*
X005813Y012149D03*
X005809Y012146D03*
X005799Y012135D03*
X006023Y011932D03*
X006027Y011936D03*
X006251Y011726D03*
X006570Y011624D03*
X006251Y011109D03*
X006254Y011105D03*
X007197Y011386D03*
X008154Y011351D03*
X008553Y011480D03*
X010207Y011487D03*
X011763Y011480D03*
X012593Y012142D03*
D91*
X012597Y012139D03*
X012600Y012135D03*
X012583Y012153D03*
X012148Y011726D03*
X012148Y011109D03*
X012145Y011105D03*
X011265Y011487D03*
X007582Y011480D03*
X006247Y011112D03*
X005802Y012139D03*
D92*
X005790Y012125D03*
X007199Y011344D03*
X011764Y011224D03*
X012153Y011112D03*
X012157Y011715D03*
X012153Y011719D03*
X012609Y012125D03*
X012612Y012121D03*
D93*
X012621Y012111D03*
X012404Y011901D03*
X012166Y011704D03*
X010207Y011224D03*
X009807Y011610D03*
X006244Y011116D03*
X005999Y011904D03*
X005774Y012104D03*
X005774Y012107D03*
X005771Y012100D03*
D94*
X005764Y012093D03*
X005785Y012118D03*
X005995Y011901D03*
X006237Y011708D03*
X006237Y011123D03*
X010887Y011386D03*
X011265Y011224D03*
X012155Y011116D03*
X012393Y011915D03*
X012632Y012097D03*
D95*
X012635Y012093D03*
X012628Y012100D03*
X012625Y012104D03*
X012625Y012107D03*
X012618Y012114D03*
X012614Y012118D03*
X012390Y011918D03*
X012386Y011922D03*
X012397Y011908D03*
X012400Y011904D03*
X012162Y011708D03*
X012159Y011711D03*
X012162Y011123D03*
X012159Y011119D03*
X011899Y012545D03*
X008077Y011606D03*
X007197Y011382D03*
X006240Y011119D03*
X006233Y011704D03*
X006240Y011711D03*
X006002Y011908D03*
X006006Y011915D03*
X006009Y011918D03*
X006013Y011922D03*
X005781Y012114D03*
X005778Y012111D03*
X005767Y012097D03*
X006500Y012545D03*
D96*
X006501Y012241D03*
X005990Y011894D03*
X005762Y012090D03*
X005759Y012086D03*
X005745Y012069D03*
X006235Y011126D03*
X007987Y011487D03*
X012654Y012069D03*
D97*
X012651Y012072D03*
X012644Y012083D03*
X012640Y012086D03*
X012637Y012090D03*
X012413Y011890D03*
X012409Y011894D03*
X012406Y011897D03*
X012395Y011911D03*
X012171Y011697D03*
X012167Y011701D03*
X012171Y011133D03*
X012167Y011130D03*
X012164Y011126D03*
X011898Y012241D03*
X010643Y011484D03*
X008159Y011347D03*
X007199Y011347D03*
X007199Y011379D03*
X006565Y011379D03*
X006228Y011133D03*
X006228Y011697D03*
X005993Y011897D03*
D98*
X005986Y011890D03*
X006004Y011911D03*
X006232Y011701D03*
X006232Y011130D03*
X005748Y012072D03*
X005752Y012079D03*
X005755Y012083D03*
D99*
X005743Y012065D03*
X005981Y011883D03*
X005974Y011873D03*
X006226Y011694D03*
X006226Y011137D03*
X007582Y011484D03*
X010978Y011330D03*
X012425Y011873D03*
X012663Y012058D03*
D100*
X012660Y012062D03*
X012656Y012065D03*
X012649Y012076D03*
X012646Y012079D03*
X012667Y012051D03*
X012670Y012048D03*
X012421Y011880D03*
X012418Y011883D03*
X012414Y011887D03*
X012180Y011687D03*
X012173Y011694D03*
X011763Y011484D03*
X012173Y011137D03*
X010936Y011221D03*
X010207Y011491D03*
X008553Y011484D03*
X006219Y011687D03*
X005985Y011887D03*
X005732Y012051D03*
X005736Y012058D03*
X005739Y012062D03*
D101*
X005729Y012048D03*
X005750Y012076D03*
X005978Y011880D03*
X006223Y011690D03*
X006223Y011140D03*
X007586Y011221D03*
X012176Y011140D03*
X012176Y011690D03*
D102*
X012437Y011855D03*
X012675Y012041D03*
X011764Y011221D03*
X012178Y011144D03*
X010878Y011389D03*
X006221Y011144D03*
X006211Y011158D03*
X005965Y011862D03*
X005717Y012030D03*
D103*
X005720Y012034D03*
X005720Y012037D03*
X005724Y012041D03*
X005969Y011866D03*
X006214Y011680D03*
X006218Y011683D03*
X006214Y011154D03*
X006214Y011151D03*
X006218Y011147D03*
X012185Y011151D03*
X012185Y011154D03*
X012188Y011158D03*
X012185Y011680D03*
X012427Y011869D03*
X012423Y011876D03*
X012665Y012055D03*
D104*
X012672Y012044D03*
X012679Y012037D03*
X012679Y012034D03*
X012682Y012030D03*
X012689Y012020D03*
X012434Y011862D03*
X012430Y011866D03*
X012181Y011683D03*
X012181Y011147D03*
X011263Y011491D03*
X008162Y011344D03*
X007984Y011491D03*
X007199Y011375D03*
X007199Y011351D03*
X005976Y011876D03*
X005972Y011869D03*
X005962Y011855D03*
X005710Y012020D03*
X005727Y012044D03*
X005734Y012055D03*
D105*
X005711Y012023D03*
X005704Y012013D03*
X005701Y012006D03*
X005697Y012002D03*
X006209Y011673D03*
X006212Y011676D03*
X006209Y011161D03*
X008392Y011445D03*
X010645Y011487D03*
X010676Y011445D03*
X010932Y011494D03*
X012194Y011666D03*
X012442Y011848D03*
X012691Y012016D03*
X012702Y012002D03*
X012194Y011165D03*
D106*
X012190Y011161D03*
X012190Y011669D03*
X012190Y011673D03*
X012187Y011676D03*
X012446Y011841D03*
X012446Y011845D03*
X012449Y011838D03*
X012705Y011995D03*
X012688Y012023D03*
X012684Y012027D03*
X010480Y011445D03*
X009818Y011217D03*
X006205Y011165D03*
X006205Y011666D03*
X005953Y011841D03*
X005953Y011845D03*
X005960Y011852D03*
X005708Y012016D03*
D107*
X005696Y011999D03*
X005678Y011971D03*
X005675Y011964D03*
X005930Y011806D03*
X005941Y011824D03*
X006207Y011669D03*
X006204Y011662D03*
X006204Y011168D03*
X007199Y011358D03*
X007980Y011494D03*
X011263Y011221D03*
X012724Y011964D03*
D108*
X012721Y011971D03*
X012717Y011974D03*
X012717Y011978D03*
X012714Y011981D03*
X012696Y012009D03*
X012455Y011831D03*
X012455Y011827D03*
X012458Y011824D03*
X012462Y011817D03*
X012199Y011659D03*
X012195Y011662D03*
X012202Y011652D03*
X012202Y011179D03*
X012199Y011175D03*
X012199Y011172D03*
X012195Y011168D03*
X008166Y011340D03*
X008078Y011217D03*
X006200Y011175D03*
X006193Y011186D03*
X006200Y011659D03*
X005948Y011834D03*
X005934Y011813D03*
X005682Y011974D03*
X005682Y011978D03*
X005692Y011992D03*
X005703Y012009D03*
D109*
X005694Y011995D03*
X005715Y012027D03*
X005964Y011859D03*
X005957Y011848D03*
X005950Y011838D03*
X006202Y011172D03*
X007197Y011354D03*
X007197Y011372D03*
X012435Y011859D03*
X012439Y011852D03*
X012698Y012006D03*
X012695Y012013D03*
D110*
X012703Y011999D03*
X012707Y011992D03*
X012710Y011988D03*
X012710Y011985D03*
X012465Y011813D03*
X012469Y011806D03*
X012451Y011834D03*
X012206Y011186D03*
X008586Y011445D03*
X008555Y011487D03*
X006197Y011652D03*
X005944Y011827D03*
X005944Y011831D03*
X005937Y011820D03*
X005937Y011817D03*
X005689Y011985D03*
X005689Y011988D03*
X005685Y011981D03*
X006197Y011179D03*
D111*
X006195Y011182D03*
X006195Y011648D03*
X006198Y011655D03*
X005932Y011810D03*
X005669Y011953D03*
X005669Y011957D03*
X005673Y011960D03*
X005676Y011967D03*
X005662Y011943D03*
X005655Y011929D03*
X006510Y012244D03*
X007197Y011368D03*
X007582Y011487D03*
X008077Y011610D03*
X010477Y011442D03*
X011763Y011487D03*
X012204Y011648D03*
X012215Y011631D03*
X012474Y011796D03*
X012474Y011799D03*
X012733Y011946D03*
X012733Y011950D03*
X012726Y011960D03*
X012723Y011967D03*
X012744Y011929D03*
X012215Y011200D03*
X012204Y011182D03*
X011889Y012244D03*
D112*
X012201Y011655D03*
X012460Y011820D03*
X012477Y011792D03*
X012740Y011936D03*
X012737Y011943D03*
X010207Y011221D03*
X009807Y011613D03*
X008963Y011445D03*
X006191Y011641D03*
X006191Y011645D03*
X005925Y011796D03*
X005925Y011799D03*
X005929Y011803D03*
X005659Y011936D03*
X006191Y011189D03*
D113*
X006188Y011193D03*
X006188Y011196D03*
X006184Y011631D03*
X006188Y011638D03*
X005922Y011792D03*
X005666Y011946D03*
X005666Y011950D03*
X009096Y011466D03*
X012208Y011641D03*
X012208Y011645D03*
X012211Y011638D03*
X012470Y011803D03*
X012467Y011810D03*
X012730Y011953D03*
X012730Y011957D03*
X012211Y011196D03*
X012211Y011193D03*
X012208Y011189D03*
D114*
X012752Y011911D03*
X012752Y011915D03*
X007977Y011498D03*
X006512Y012549D03*
X006186Y011634D03*
X005916Y011778D03*
X005916Y011782D03*
X005654Y011925D03*
X006186Y011200D03*
D115*
X006183Y011203D03*
X006183Y011207D03*
X006176Y011217D03*
X006176Y011221D03*
X006176Y011613D03*
X006183Y011627D03*
X005913Y011771D03*
X005913Y011775D03*
X005920Y011785D03*
X005920Y011789D03*
X005906Y011761D03*
X005639Y011897D03*
X005639Y011901D03*
X005643Y011904D03*
X005643Y011908D03*
X005647Y011911D03*
X005647Y011915D03*
X005650Y011918D03*
X005650Y011922D03*
X005660Y011939D03*
X008001Y011259D03*
X008169Y011337D03*
X008387Y011442D03*
X009886Y011259D03*
X010987Y011326D03*
X012216Y011207D03*
X012216Y011203D03*
X012223Y011217D03*
X012223Y011613D03*
X012216Y011627D03*
X012213Y011634D03*
X012486Y011771D03*
X012486Y011775D03*
X012483Y011778D03*
X012483Y011782D03*
X012490Y011768D03*
X012493Y011761D03*
X012497Y011754D03*
X012760Y011897D03*
X012760Y011901D03*
X012756Y011904D03*
X012756Y011908D03*
X012749Y011918D03*
X012749Y011922D03*
X012745Y011925D03*
X012742Y011932D03*
X012763Y011894D03*
X012763Y011890D03*
X011887Y012549D03*
D116*
X011195Y011463D03*
X010319Y011382D03*
X010319Y011379D03*
X010319Y011375D03*
X010319Y011372D03*
X010319Y011368D03*
X010319Y011365D03*
X010319Y011361D03*
X010319Y011358D03*
X010319Y011354D03*
X010319Y011351D03*
X010319Y011347D03*
X010319Y011344D03*
X010319Y011340D03*
X010319Y011337D03*
X010319Y011333D03*
X010319Y011330D03*
X007964Y011522D03*
X007964Y011526D03*
X006727Y011456D03*
X006727Y011452D03*
X006717Y011435D03*
X006538Y011445D03*
X006538Y011449D03*
X006538Y011452D03*
X006538Y011456D03*
X006538Y011459D03*
X006538Y011463D03*
X006538Y011466D03*
X006538Y011470D03*
X006538Y011473D03*
X006538Y011477D03*
X006538Y011480D03*
X006538Y011484D03*
X006538Y011487D03*
X006538Y011491D03*
X006538Y011494D03*
X006538Y011498D03*
X006538Y011501D03*
X006538Y011505D03*
X006538Y011508D03*
X006538Y011512D03*
X006538Y011515D03*
X006538Y011519D03*
X006538Y011522D03*
X006538Y011526D03*
X006538Y011529D03*
X006538Y011533D03*
X006538Y011536D03*
X006538Y011540D03*
X006538Y011543D03*
X006538Y011547D03*
X006538Y011550D03*
X006538Y011554D03*
X006538Y011557D03*
X006538Y011561D03*
X006538Y011564D03*
X006538Y011568D03*
X006538Y011375D03*
X006538Y011372D03*
X006538Y011368D03*
X006538Y011365D03*
X006538Y011361D03*
X006538Y011358D03*
X006538Y011354D03*
X006538Y011351D03*
X006538Y011347D03*
X006538Y011344D03*
X006538Y011340D03*
X006538Y011337D03*
X006538Y011333D03*
X006538Y011330D03*
X006538Y011326D03*
X006538Y011323D03*
X006538Y011319D03*
X006538Y011316D03*
X006538Y011312D03*
X006538Y011309D03*
X006538Y011305D03*
X006538Y011302D03*
X006538Y011298D03*
X006538Y011295D03*
X006538Y011291D03*
X006538Y011288D03*
X006538Y011284D03*
X006538Y011281D03*
X006538Y011277D03*
X006538Y011274D03*
X006538Y011270D03*
X006538Y011266D03*
X006538Y011263D03*
X006538Y011259D03*
X006538Y011256D03*
X006538Y011252D03*
X006538Y011249D03*
X006538Y011245D03*
X006538Y011242D03*
X006538Y011238D03*
X006538Y011235D03*
X006538Y011231D03*
X006538Y011228D03*
X006538Y011224D03*
X006538Y011221D03*
X006538Y011217D03*
X006538Y011214D03*
X006538Y011210D03*
X006538Y011207D03*
D117*
X006896Y011207D03*
X006896Y011210D03*
X006896Y011214D03*
X006896Y011217D03*
X006896Y011221D03*
X006896Y011224D03*
X006896Y011228D03*
X006896Y011231D03*
X006896Y011235D03*
X006896Y011238D03*
X006896Y011242D03*
X006896Y011245D03*
X006896Y011249D03*
X006896Y011252D03*
X006896Y011256D03*
X006896Y011259D03*
X006896Y011263D03*
X006896Y011266D03*
X006896Y011270D03*
X006896Y011274D03*
X006896Y011277D03*
X006896Y011281D03*
X006896Y011284D03*
X006896Y011288D03*
X006896Y011291D03*
X006896Y011295D03*
X006896Y011298D03*
X006896Y011302D03*
X006896Y011305D03*
X006896Y011309D03*
X006896Y011312D03*
X006896Y011316D03*
X006896Y011319D03*
X006896Y011323D03*
X006896Y011326D03*
X006896Y011330D03*
X006896Y011333D03*
X006896Y011337D03*
X006896Y011340D03*
X006896Y011344D03*
X006896Y011347D03*
X006896Y011351D03*
X006896Y011354D03*
X006896Y011358D03*
X006896Y011361D03*
X006896Y011365D03*
X006896Y011368D03*
X006896Y011372D03*
X006896Y011375D03*
X006896Y011379D03*
X006896Y011382D03*
X006896Y011386D03*
X006896Y011389D03*
X006896Y011393D03*
X006896Y011396D03*
X006896Y011400D03*
X006896Y011403D03*
X006896Y011407D03*
X006896Y011410D03*
X006896Y011414D03*
X006896Y011417D03*
X006896Y011421D03*
X006896Y011424D03*
X006896Y011428D03*
X006896Y011431D03*
X006896Y011435D03*
X006896Y011438D03*
X006896Y011442D03*
X006896Y011445D03*
X006896Y011449D03*
X006896Y011452D03*
X006896Y011456D03*
X006896Y011459D03*
X006896Y011463D03*
X006896Y011466D03*
X006896Y011470D03*
X006896Y011473D03*
X006896Y011477D03*
X006896Y011480D03*
X006896Y011484D03*
X006896Y011533D03*
X006896Y011536D03*
X006896Y011540D03*
X006896Y011543D03*
X006896Y011547D03*
X006896Y011550D03*
X006896Y011554D03*
X006896Y011557D03*
X006896Y011561D03*
X006896Y011564D03*
X006896Y011568D03*
X006896Y011571D03*
X006896Y011575D03*
X006896Y011578D03*
X006896Y011582D03*
X006896Y011585D03*
X006896Y011589D03*
X006896Y011592D03*
X006896Y011596D03*
X006896Y011599D03*
X006896Y011603D03*
X006896Y011606D03*
X006896Y011610D03*
X006896Y011613D03*
X006896Y011617D03*
X005837Y011536D03*
X005837Y011533D03*
X005837Y011529D03*
X005837Y011526D03*
X005837Y011522D03*
X005834Y011508D03*
X005834Y011505D03*
X005834Y011501D03*
X005834Y011498D03*
X005834Y011494D03*
X005834Y011491D03*
X005834Y011487D03*
X005834Y011484D03*
X005834Y011480D03*
X005540Y011561D03*
X005540Y011564D03*
X005540Y011568D03*
X005540Y011571D03*
X005540Y011575D03*
X005547Y011613D03*
X005547Y011617D03*
X005550Y011634D03*
X008952Y011435D03*
X009688Y011515D03*
X009807Y011617D03*
X009906Y011550D03*
X009916Y011533D03*
X009916Y011291D03*
X009906Y011277D03*
X009688Y011312D03*
X010645Y011494D03*
X012555Y011575D03*
X012558Y011557D03*
X012558Y011554D03*
X012558Y011550D03*
X012856Y011589D03*
X012856Y011592D03*
X012856Y011596D03*
X012859Y011575D03*
X012859Y011571D03*
X012859Y011568D03*
X012859Y011564D03*
X012859Y011561D03*
D118*
X011766Y011214D03*
X010936Y011214D03*
X010855Y011403D03*
X010697Y011417D03*
X010697Y011421D03*
X010697Y011424D03*
X010463Y011417D03*
X010463Y011414D03*
X010463Y011410D03*
X010463Y011407D03*
X010463Y011403D03*
X010463Y011400D03*
X010463Y011396D03*
X010463Y011393D03*
X010463Y011389D03*
X010463Y011386D03*
X010463Y011382D03*
X010463Y011379D03*
X010463Y011375D03*
X010463Y011372D03*
X010463Y011368D03*
X010463Y011365D03*
X010463Y011361D03*
X010463Y011358D03*
X010463Y011354D03*
X010463Y011351D03*
X010463Y011347D03*
X010463Y011344D03*
X010463Y011340D03*
X010463Y011337D03*
X010463Y011333D03*
X010463Y011330D03*
X010463Y011326D03*
X010463Y011323D03*
X010463Y011319D03*
X010463Y011316D03*
X010463Y011312D03*
X010463Y011309D03*
X010463Y011305D03*
X010463Y011302D03*
X010463Y011298D03*
X010463Y011295D03*
X010463Y011291D03*
X010463Y011288D03*
X010463Y011284D03*
X010463Y011281D03*
X010463Y011277D03*
X010463Y011274D03*
X010463Y011270D03*
X010463Y011266D03*
X010463Y011263D03*
X010463Y011259D03*
X010463Y011256D03*
X010463Y011252D03*
X010463Y011249D03*
X010463Y011245D03*
X010463Y011242D03*
X010463Y011238D03*
X010463Y011235D03*
X010463Y011231D03*
X010463Y011228D03*
X010463Y011224D03*
X010463Y011221D03*
X010463Y011217D03*
X010463Y011214D03*
X010463Y011210D03*
X010463Y011207D03*
X010463Y011466D03*
X010463Y011470D03*
X010463Y011473D03*
X010463Y011477D03*
X010463Y011480D03*
X010463Y011484D03*
X010463Y011487D03*
X010463Y011491D03*
X009702Y011543D03*
X009692Y011302D03*
X009695Y011295D03*
X009695Y011291D03*
X009699Y011288D03*
X009702Y011281D03*
X009713Y011266D03*
X009716Y011263D03*
X009096Y011480D03*
X008949Y011480D03*
X008949Y011477D03*
X008949Y011473D03*
X008949Y011470D03*
X008949Y011466D03*
X008949Y011484D03*
X008949Y011487D03*
X008949Y011491D03*
X008949Y011424D03*
X008949Y011421D03*
X008949Y011417D03*
X008949Y011414D03*
X008949Y011410D03*
X008949Y011407D03*
X008949Y011403D03*
X008949Y011400D03*
X008949Y011396D03*
X008949Y011393D03*
X008949Y011389D03*
X008949Y011386D03*
X008949Y011382D03*
X008949Y011379D03*
X008949Y011375D03*
X008949Y011372D03*
X008949Y011368D03*
X008949Y011365D03*
X008949Y011361D03*
X008949Y011358D03*
X008949Y011354D03*
X008949Y011351D03*
X008949Y011347D03*
X008949Y011344D03*
X008949Y011340D03*
X008949Y011337D03*
X008949Y011333D03*
X008949Y011330D03*
X008949Y011326D03*
X008949Y011323D03*
X008949Y011319D03*
X008949Y011316D03*
X008949Y011312D03*
X008949Y011309D03*
X008949Y011305D03*
X008949Y011302D03*
X008949Y011298D03*
X008949Y011295D03*
X008949Y011291D03*
X008949Y011288D03*
X008949Y011284D03*
X008949Y011281D03*
X008949Y011277D03*
X008949Y011274D03*
X008949Y011270D03*
X008949Y011266D03*
X008949Y011263D03*
X008949Y011259D03*
X008949Y011256D03*
X008949Y011252D03*
X008949Y011249D03*
X008949Y011245D03*
X008949Y011242D03*
X008949Y011238D03*
X008949Y011235D03*
X008949Y011231D03*
X008949Y011228D03*
X008949Y011224D03*
X008949Y011221D03*
X008949Y011217D03*
X008949Y011214D03*
X008949Y011210D03*
X008949Y011207D03*
X008609Y011407D03*
X008609Y011410D03*
X008609Y011414D03*
X008609Y011417D03*
X008609Y011421D03*
X008374Y011421D03*
X008374Y011417D03*
X008374Y011414D03*
X008374Y011410D03*
X008374Y011407D03*
X008374Y011403D03*
X008374Y011400D03*
X008374Y011396D03*
X008374Y011393D03*
X008374Y011389D03*
X008374Y011386D03*
X008374Y011382D03*
X008374Y011379D03*
X008374Y011375D03*
X008374Y011372D03*
X008374Y011368D03*
X008374Y011365D03*
X008374Y011361D03*
X008374Y011358D03*
X008374Y011354D03*
X008374Y011351D03*
X008374Y011347D03*
X008374Y011344D03*
X008374Y011340D03*
X008374Y011337D03*
X008374Y011333D03*
X008374Y011330D03*
X008374Y011326D03*
X008374Y011323D03*
X008374Y011319D03*
X008374Y011316D03*
X008374Y011312D03*
X008374Y011309D03*
X008374Y011305D03*
X008374Y011302D03*
X008374Y011298D03*
X008374Y011295D03*
X008374Y011291D03*
X008374Y011288D03*
X008374Y011284D03*
X008374Y011281D03*
X008374Y011277D03*
X008374Y011274D03*
X008374Y011270D03*
X008374Y011266D03*
X008374Y011263D03*
X008374Y011259D03*
X008374Y011256D03*
X008374Y011252D03*
X008374Y011249D03*
X008374Y011245D03*
X008374Y011242D03*
X008374Y011238D03*
X008374Y011235D03*
X008374Y011231D03*
X008374Y011228D03*
X008374Y011224D03*
X008374Y011221D03*
X008374Y011217D03*
X008374Y011214D03*
X008374Y011210D03*
X008374Y011207D03*
X008374Y011466D03*
X008374Y011470D03*
X008374Y011473D03*
X008374Y011477D03*
X008374Y011540D03*
X008374Y011543D03*
X008374Y011547D03*
X008374Y011550D03*
X008374Y011554D03*
X008374Y011557D03*
X008374Y011561D03*
X008374Y011564D03*
X008374Y011568D03*
X008374Y011571D03*
X008374Y011575D03*
X008374Y011578D03*
X008374Y011582D03*
X008374Y011585D03*
X008374Y011589D03*
X008374Y011592D03*
X008374Y011596D03*
X008374Y011599D03*
X008374Y011603D03*
X008374Y011606D03*
X008374Y011610D03*
X008374Y011613D03*
X008374Y011617D03*
X008374Y011620D03*
X007968Y011515D03*
X007589Y011214D03*
X007330Y011207D03*
X007327Y011214D03*
X007323Y011217D03*
X007320Y011221D03*
X007316Y011228D03*
X007313Y011231D03*
X007302Y011245D03*
X007299Y011249D03*
X007292Y011259D03*
X007288Y011263D03*
X007281Y011270D03*
X007278Y011277D03*
X007274Y011281D03*
X007271Y011284D03*
X007267Y011288D03*
X007267Y011291D03*
X007127Y011288D03*
X007120Y011277D03*
X007113Y011270D03*
X007106Y011259D03*
X007102Y011256D03*
X007092Y011242D03*
X007074Y011221D03*
X007071Y011217D03*
X007064Y011207D03*
X007127Y011438D03*
X007113Y011456D03*
X007102Y011470D03*
X007092Y011484D03*
X007074Y011505D03*
X007292Y011466D03*
X007316Y011498D03*
X006542Y011435D03*
X006542Y011578D03*
D119*
X007586Y011207D03*
X009093Y011494D03*
X010936Y011207D03*
D120*
X011006Y011316D03*
X010137Y011463D03*
X008185Y011316D03*
X008185Y011312D03*
X007989Y011568D03*
X007821Y011568D03*
X007821Y011571D03*
X007821Y011575D03*
X007821Y011578D03*
X007821Y011582D03*
X007821Y011585D03*
X007821Y011589D03*
X007821Y011592D03*
X007821Y011596D03*
X007821Y011599D03*
X007821Y011603D03*
X007821Y011606D03*
X007821Y011610D03*
X007821Y011613D03*
X007821Y011617D03*
X007821Y011620D03*
X007821Y011564D03*
X007821Y011561D03*
X007821Y011557D03*
X007821Y011554D03*
X007821Y011550D03*
X007821Y011547D03*
X007821Y011543D03*
X007821Y011540D03*
X007821Y011536D03*
X007821Y011533D03*
X007821Y011529D03*
X007821Y011526D03*
X007821Y011522D03*
X007821Y011519D03*
X007821Y011515D03*
X007821Y011512D03*
X007821Y011508D03*
X007821Y011505D03*
X007821Y011501D03*
X007821Y011498D03*
X007821Y011494D03*
X007821Y011491D03*
X007821Y011487D03*
X007821Y011484D03*
X007821Y011480D03*
X007821Y011477D03*
X007821Y011473D03*
X007821Y011470D03*
X007821Y011466D03*
X007821Y011463D03*
X007821Y011459D03*
X007821Y011456D03*
X007821Y011452D03*
X007821Y011449D03*
X007821Y011445D03*
X007821Y011442D03*
X007821Y011438D03*
X007821Y011435D03*
X007821Y011431D03*
X007821Y011428D03*
X007821Y011424D03*
X007821Y011421D03*
X007821Y011417D03*
X007821Y011414D03*
X007821Y011410D03*
X007821Y011407D03*
X007821Y011403D03*
X007821Y011400D03*
X007821Y011396D03*
X007821Y011393D03*
X007821Y011389D03*
X007821Y011386D03*
X007821Y011382D03*
X007821Y011379D03*
X007821Y011375D03*
X007821Y011372D03*
X007821Y011368D03*
X007821Y011365D03*
X007821Y011361D03*
X007821Y011358D03*
X007821Y011354D03*
X007821Y011351D03*
X007821Y011347D03*
X007821Y011344D03*
X007821Y011340D03*
X007821Y011337D03*
X007821Y011333D03*
X007821Y011330D03*
X007821Y011326D03*
X007821Y011323D03*
X007821Y011319D03*
X007821Y011316D03*
X007821Y011312D03*
X007821Y011309D03*
X007821Y011305D03*
X007821Y011302D03*
X007821Y011298D03*
X007821Y011295D03*
X007821Y011291D03*
X007821Y011288D03*
X007821Y011284D03*
X007821Y011281D03*
X007821Y011277D03*
X007821Y011274D03*
X007821Y011270D03*
X007821Y011266D03*
X007821Y011263D03*
X007821Y011259D03*
X007821Y011256D03*
X007821Y011252D03*
X007821Y011249D03*
X007821Y011245D03*
X007821Y011242D03*
X007821Y011238D03*
X007821Y011235D03*
X007821Y011231D03*
X007821Y011228D03*
X007821Y011224D03*
X007821Y011221D03*
X007821Y011217D03*
X007821Y011214D03*
X007821Y011210D03*
X007821Y011207D03*
X006720Y011438D03*
D121*
X008078Y011207D03*
D122*
X008183Y011319D03*
X008373Y011480D03*
X008373Y011484D03*
X008373Y011487D03*
X008373Y011491D03*
X008373Y011494D03*
X008373Y011498D03*
X008373Y011501D03*
X008373Y011505D03*
X008373Y011508D03*
X008373Y011512D03*
X008373Y011515D03*
X008373Y011519D03*
X008373Y011522D03*
X008373Y011526D03*
X008373Y011529D03*
X008373Y011533D03*
X008373Y011536D03*
X008611Y011403D03*
X008611Y011400D03*
X008611Y011396D03*
X008611Y011393D03*
X008611Y011389D03*
X008611Y011386D03*
X008611Y011382D03*
X008611Y011379D03*
X008611Y011375D03*
X008611Y011372D03*
X008611Y011368D03*
X008611Y011365D03*
X008611Y011361D03*
X008611Y011358D03*
X008611Y011354D03*
X008611Y011351D03*
X008611Y011347D03*
X008611Y011344D03*
X008611Y011340D03*
X008611Y011337D03*
X008611Y011333D03*
X008611Y011330D03*
X008611Y011326D03*
X008611Y011323D03*
X008611Y011319D03*
X008611Y011316D03*
X008611Y011312D03*
X008611Y011309D03*
X008611Y011305D03*
X008611Y011302D03*
X008611Y011298D03*
X008611Y011295D03*
X008611Y011291D03*
X008611Y011288D03*
X008611Y011284D03*
X008611Y011281D03*
X008611Y011277D03*
X008611Y011274D03*
X008611Y011270D03*
X008611Y011266D03*
X008611Y011263D03*
X008611Y011259D03*
X008611Y011256D03*
X008611Y011252D03*
X008611Y011249D03*
X008611Y011245D03*
X008611Y011242D03*
X008611Y011238D03*
X008611Y011235D03*
X008611Y011231D03*
X008611Y011228D03*
X008611Y011224D03*
X008611Y011221D03*
X008611Y011217D03*
X008611Y011214D03*
X008611Y011210D03*
X008611Y011207D03*
X009122Y011445D03*
X009708Y011274D03*
X010699Y011274D03*
X010699Y011277D03*
X010699Y011281D03*
X010699Y011284D03*
X010699Y011288D03*
X010699Y011291D03*
X010699Y011295D03*
X010699Y011298D03*
X010699Y011302D03*
X010699Y011305D03*
X010699Y011309D03*
X010699Y011312D03*
X010699Y011316D03*
X010699Y011319D03*
X010699Y011323D03*
X010699Y011326D03*
X010699Y011330D03*
X010699Y011333D03*
X010699Y011337D03*
X010699Y011340D03*
X010699Y011344D03*
X010699Y011347D03*
X010699Y011351D03*
X010699Y011354D03*
X010699Y011358D03*
X010699Y011361D03*
X010699Y011365D03*
X010699Y011368D03*
X010699Y011372D03*
X010699Y011375D03*
X010699Y011379D03*
X010699Y011382D03*
X010699Y011386D03*
X010699Y011389D03*
X010699Y011393D03*
X010699Y011396D03*
X010699Y011400D03*
X010699Y011403D03*
X010699Y011407D03*
X010699Y011410D03*
X010699Y011414D03*
X010699Y011270D03*
X010699Y011266D03*
X010699Y011263D03*
X010699Y011259D03*
X010699Y011256D03*
X010699Y011252D03*
X010699Y011249D03*
X010699Y011245D03*
X010699Y011242D03*
X010699Y011238D03*
X010699Y011235D03*
X010699Y011231D03*
X010699Y011228D03*
X010699Y011224D03*
X010699Y011221D03*
X010699Y011217D03*
X010699Y011214D03*
X010699Y011210D03*
X010699Y011207D03*
X007966Y011519D03*
X007321Y011505D03*
X007311Y011491D03*
X007307Y011487D03*
X007297Y011473D03*
X007293Y011470D03*
X007286Y011459D03*
X007283Y011456D03*
X007272Y011442D03*
X007132Y011431D03*
X007129Y011435D03*
X007118Y011449D03*
X007104Y011466D03*
X007097Y011477D03*
X007080Y011498D03*
X006540Y011442D03*
X006540Y011438D03*
X006540Y011571D03*
X006540Y011575D03*
D123*
X006545Y011582D03*
X005841Y011557D03*
X005841Y011554D03*
X005841Y011550D03*
X005830Y011470D03*
X005830Y011466D03*
X005830Y011463D03*
X005830Y011459D03*
X005830Y011456D03*
X005830Y011452D03*
X005830Y011449D03*
X005830Y011445D03*
X005830Y011442D03*
X005830Y011438D03*
X005830Y011435D03*
X005543Y011589D03*
X005543Y011592D03*
X005543Y011596D03*
X008557Y011494D03*
X008774Y011484D03*
X008774Y011480D03*
X008774Y011477D03*
X008774Y011473D03*
X008774Y011470D03*
X008774Y011466D03*
X008774Y011463D03*
X008774Y011459D03*
X008774Y011456D03*
X008774Y011452D03*
X008774Y011449D03*
X008774Y011445D03*
X008774Y011442D03*
X008774Y011438D03*
X008774Y011435D03*
X008774Y011431D03*
X008774Y011428D03*
X008774Y011424D03*
X008774Y011421D03*
X008774Y011417D03*
X008774Y011414D03*
X008774Y011410D03*
X008774Y011407D03*
X008774Y011403D03*
X008774Y011400D03*
X008774Y011396D03*
X008774Y011393D03*
X008774Y011389D03*
X008774Y011386D03*
X008774Y011382D03*
X008774Y011379D03*
X008774Y011375D03*
X008774Y011372D03*
X008774Y011368D03*
X008774Y011365D03*
X008774Y011361D03*
X008774Y011358D03*
X008774Y011354D03*
X008774Y011351D03*
X008774Y011347D03*
X008774Y011344D03*
X008774Y011340D03*
X008774Y011337D03*
X008774Y011333D03*
X008774Y011330D03*
X008774Y011326D03*
X008774Y011323D03*
X008774Y011319D03*
X008774Y011316D03*
X008774Y011312D03*
X008774Y011309D03*
X008774Y011305D03*
X008774Y011302D03*
X008774Y011298D03*
X008774Y011295D03*
X008774Y011291D03*
X008774Y011288D03*
X008774Y011284D03*
X008774Y011281D03*
X008774Y011277D03*
X008774Y011274D03*
X008774Y011270D03*
X008774Y011266D03*
X008774Y011263D03*
X008774Y011259D03*
X008774Y011256D03*
X008774Y011252D03*
X008774Y011249D03*
X008774Y011245D03*
X008774Y011242D03*
X008774Y011238D03*
X008774Y011235D03*
X008774Y011231D03*
X008774Y011228D03*
X008774Y011224D03*
X008774Y011221D03*
X008774Y011217D03*
X008774Y011214D03*
X008774Y011210D03*
X008774Y011207D03*
X008774Y011533D03*
X008774Y011536D03*
X008774Y011540D03*
X008774Y011543D03*
X008774Y011547D03*
X008774Y011550D03*
X008774Y011554D03*
X008774Y011557D03*
X008774Y011561D03*
X008774Y011564D03*
X008774Y011568D03*
X008774Y011571D03*
X008774Y011575D03*
X008774Y011578D03*
X008774Y011582D03*
X008774Y011585D03*
X008774Y011589D03*
X008774Y011592D03*
X008774Y011596D03*
X008774Y011599D03*
X008774Y011603D03*
X008774Y011606D03*
X008774Y011610D03*
X008774Y011613D03*
X008774Y011617D03*
X009096Y011477D03*
X009681Y011487D03*
X009681Y011491D03*
X009681Y011494D03*
X009685Y011501D03*
X009685Y011505D03*
X009681Y011340D03*
X009681Y011337D03*
X009685Y011330D03*
X009685Y011326D03*
X009685Y011323D03*
X009909Y011281D03*
X009913Y011284D03*
X009913Y011288D03*
X009920Y011298D03*
X009923Y011305D03*
X009923Y011519D03*
X009920Y011526D03*
X009920Y011529D03*
X009913Y011540D03*
X009899Y011557D03*
X010690Y011435D03*
X012264Y011459D03*
X012264Y011463D03*
X012264Y011372D03*
X012569Y011435D03*
X012569Y011438D03*
X012569Y011442D03*
X012569Y011445D03*
X012569Y011449D03*
X012569Y011452D03*
X012569Y011456D03*
X012569Y011459D03*
X012569Y011463D03*
X012569Y011466D03*
X012569Y011470D03*
X012565Y011480D03*
X012565Y011484D03*
X012565Y011487D03*
X012565Y011491D03*
X012565Y011494D03*
X012565Y011498D03*
X012565Y011501D03*
X012565Y011505D03*
X012565Y011508D03*
X012849Y011634D03*
D124*
X011517Y011620D03*
X011517Y011617D03*
X011517Y011613D03*
X011517Y011610D03*
X011517Y011606D03*
X011517Y011603D03*
X011517Y011599D03*
X011517Y011596D03*
X011517Y011592D03*
X011517Y011589D03*
X011517Y011585D03*
X011517Y011582D03*
X011517Y011578D03*
X011517Y011575D03*
X011517Y011571D03*
X011517Y011568D03*
X011517Y011564D03*
X011517Y011561D03*
X011517Y011557D03*
X011517Y011554D03*
X011517Y011550D03*
X011517Y011547D03*
X011517Y011543D03*
X011517Y011540D03*
X011517Y011536D03*
X011517Y011533D03*
X011517Y011529D03*
X011517Y011526D03*
X011517Y011522D03*
X011517Y011519D03*
X011517Y011515D03*
X011517Y011512D03*
X011517Y011508D03*
X011517Y011505D03*
X011517Y011501D03*
X011517Y011498D03*
X011517Y011494D03*
X011517Y011491D03*
X011517Y011487D03*
X011517Y011484D03*
X011517Y011480D03*
X011517Y011477D03*
X011517Y011473D03*
X011517Y011470D03*
X011517Y011466D03*
X011517Y011463D03*
X011517Y011459D03*
X011517Y011456D03*
X011517Y011452D03*
X011517Y011449D03*
X011517Y011445D03*
X011517Y011442D03*
X011517Y011438D03*
X011517Y011435D03*
X011517Y011431D03*
X011517Y011428D03*
X011517Y011424D03*
X011517Y011421D03*
X011517Y011417D03*
X011517Y011414D03*
X011517Y011410D03*
X011517Y011407D03*
X011517Y011403D03*
X011517Y011400D03*
X011517Y011396D03*
X011517Y011393D03*
X011517Y011389D03*
X011517Y011386D03*
X011517Y011382D03*
X011517Y011379D03*
X011517Y011375D03*
X011517Y011372D03*
X011517Y011368D03*
X011517Y011365D03*
X011517Y011361D03*
X011517Y011358D03*
X011517Y011354D03*
X011517Y011351D03*
X011517Y011347D03*
X011517Y011344D03*
X011517Y011340D03*
X011517Y011337D03*
X011517Y011333D03*
X011517Y011330D03*
X011517Y011326D03*
X011517Y011323D03*
X011517Y011319D03*
X011517Y011316D03*
X011517Y011312D03*
X011517Y011309D03*
X011517Y011305D03*
X011517Y011302D03*
X011517Y011298D03*
X011517Y011295D03*
X011517Y011291D03*
X011517Y011288D03*
X011517Y011284D03*
X011517Y011281D03*
X011517Y011277D03*
X011517Y011274D03*
X011517Y011270D03*
X011517Y011266D03*
X011517Y011263D03*
X011517Y011259D03*
X011517Y011256D03*
X011517Y011252D03*
X011517Y011249D03*
X011517Y011245D03*
X011517Y011242D03*
X011517Y011238D03*
X011517Y011235D03*
X011517Y011231D03*
X011517Y011228D03*
X011517Y011224D03*
X011517Y011221D03*
X011517Y011217D03*
X011517Y011214D03*
X011517Y011210D03*
X011517Y011207D03*
X011377Y011340D03*
X011377Y011344D03*
X011377Y011347D03*
X011377Y011351D03*
X011377Y011354D03*
X011377Y011358D03*
X011377Y011361D03*
X011377Y011365D03*
X011377Y011368D03*
X011377Y011372D03*
X011377Y011375D03*
X010207Y011498D03*
X010098Y011368D03*
X010098Y011365D03*
X010098Y011361D03*
X010098Y011358D03*
X009345Y011358D03*
X009345Y011361D03*
X009345Y011365D03*
X009345Y011368D03*
X009345Y011372D03*
X009345Y011375D03*
X009345Y011379D03*
X009345Y011382D03*
X009345Y011386D03*
X009345Y011389D03*
X009345Y011393D03*
X009345Y011396D03*
X009345Y011400D03*
X009345Y011403D03*
X009345Y011407D03*
X009345Y011410D03*
X009345Y011414D03*
X009345Y011417D03*
X009345Y011421D03*
X009345Y011424D03*
X009345Y011428D03*
X009345Y011431D03*
X009345Y011435D03*
X009345Y011438D03*
X009345Y011442D03*
X009345Y011445D03*
X009345Y011449D03*
X009345Y011452D03*
X009345Y011456D03*
X009345Y011459D03*
X009345Y011463D03*
X009345Y011515D03*
X009345Y011519D03*
X009345Y011522D03*
X009345Y011526D03*
X009345Y011529D03*
X009345Y011533D03*
X009345Y011536D03*
X009345Y011540D03*
X009345Y011543D03*
X009345Y011547D03*
X009345Y011550D03*
X009345Y011554D03*
X009345Y011557D03*
X009345Y011561D03*
X009345Y011564D03*
X009345Y011568D03*
X009345Y011571D03*
X009345Y011354D03*
X009345Y011351D03*
X009345Y011347D03*
X009345Y011344D03*
X009345Y011340D03*
X009345Y011337D03*
X009345Y011333D03*
X009345Y011330D03*
X009345Y011326D03*
X009345Y011323D03*
X009345Y011319D03*
X009345Y011316D03*
X009345Y011312D03*
X009345Y011309D03*
X009345Y011305D03*
X009345Y011302D03*
X009345Y011298D03*
X009345Y011295D03*
X009345Y011291D03*
X009345Y011288D03*
X009345Y011284D03*
X009345Y011281D03*
X009345Y011277D03*
X009345Y011274D03*
X009345Y011270D03*
X009345Y011266D03*
X009345Y011263D03*
X009345Y011259D03*
X009345Y011256D03*
X009345Y011252D03*
X009345Y011249D03*
X009345Y011245D03*
X009345Y011242D03*
X009345Y011238D03*
X009345Y011235D03*
X009345Y011231D03*
X009345Y011228D03*
X009345Y011224D03*
X009345Y011221D03*
X009345Y011217D03*
X009345Y011214D03*
X009345Y011210D03*
X009345Y011207D03*
X006731Y011466D03*
X006731Y011470D03*
X006731Y011473D03*
X006731Y011477D03*
X006731Y011480D03*
X006724Y011445D03*
D125*
X009814Y011207D03*
D126*
X010212Y011207D03*
D127*
X011269Y011207D03*
X006570Y012258D03*
D128*
X008076Y011620D03*
X011766Y011207D03*
D129*
X012220Y011210D03*
X012220Y011214D03*
X012220Y011620D03*
X012479Y011785D03*
X012479Y011789D03*
X012738Y011939D03*
X010871Y011393D03*
X007199Y011361D03*
X006179Y011214D03*
X006179Y011210D03*
X006179Y011620D03*
X005902Y011754D03*
X005909Y011768D03*
X005636Y011890D03*
X005636Y011894D03*
X005657Y011932D03*
D130*
X006544Y011431D03*
X007066Y011210D03*
X007108Y011263D03*
X007125Y011284D03*
X007293Y011256D03*
X007304Y011242D03*
X007970Y011512D03*
X008166Y011554D03*
X008176Y011533D03*
X008176Y011529D03*
X008176Y011526D03*
X008376Y011424D03*
X008078Y011214D03*
X009694Y011298D03*
X009694Y011526D03*
X009694Y011529D03*
X009704Y011547D03*
X009715Y011557D03*
X009911Y011543D03*
X010464Y011421D03*
D131*
X010696Y011428D03*
X011001Y011319D03*
X009722Y011259D03*
X009701Y011540D03*
X009711Y011554D03*
X008951Y011431D03*
X008951Y011428D03*
X008180Y011515D03*
X008180Y011519D03*
X008180Y011522D03*
X008173Y011536D03*
X008173Y011540D03*
X008173Y011543D03*
X008169Y011547D03*
X008169Y011550D03*
X008162Y011557D03*
X008180Y011323D03*
X007328Y011210D03*
X007318Y011224D03*
X007307Y011238D03*
X007279Y011274D03*
X007122Y011281D03*
X007111Y011266D03*
X007083Y011231D03*
X005531Y011435D03*
D132*
X007493Y011435D03*
X007497Y011442D03*
X007500Y011445D03*
X007507Y011456D03*
X007511Y011459D03*
X007514Y011463D03*
X007654Y011459D03*
X007658Y011456D03*
X007672Y011270D03*
X007668Y011266D03*
X007588Y011210D03*
X007504Y011256D03*
X008078Y011210D03*
X009143Y011407D03*
X009143Y011410D03*
X009143Y011414D03*
X009143Y011417D03*
X009143Y011421D03*
X010647Y011501D03*
X010846Y011452D03*
X010850Y011459D03*
X010857Y011466D03*
X010860Y011470D03*
X011004Y011466D03*
X011008Y011463D03*
X011022Y011295D03*
X011022Y011291D03*
X011004Y011245D03*
X011673Y011438D03*
X011677Y011442D03*
X011677Y011445D03*
X011680Y011449D03*
D133*
X011663Y011410D03*
X011670Y011281D03*
X011670Y011277D03*
X011691Y011249D03*
X011834Y011252D03*
X011859Y011295D03*
X011859Y011298D03*
X011859Y011302D03*
X011855Y011417D03*
X011848Y011435D03*
X011827Y011463D03*
X011176Y011266D03*
X010997Y011242D03*
X010993Y011473D03*
X010867Y011473D03*
X010114Y011274D03*
X009816Y011210D03*
X008183Y011277D03*
X007679Y011291D03*
X007679Y011295D03*
X007644Y011466D03*
X007490Y011424D03*
X007490Y011284D03*
X007490Y011281D03*
D134*
X010209Y011210D03*
D135*
X010848Y011263D03*
X010848Y011266D03*
X010859Y011249D03*
X010936Y011210D03*
X010936Y011505D03*
X011672Y011435D03*
X011672Y011431D03*
X011672Y011274D03*
X011682Y011256D03*
X011686Y011252D03*
X011766Y011210D03*
X011850Y011274D03*
X011854Y011277D03*
X011854Y011281D03*
X011854Y011284D03*
X011850Y011431D03*
X007677Y011288D03*
X007677Y011284D03*
X007677Y011281D03*
X007667Y011263D03*
X007509Y011252D03*
X007498Y011263D03*
X007498Y011266D03*
X007488Y011421D03*
X007667Y011442D03*
X007667Y011445D03*
D136*
X011267Y011210D03*
D137*
X007295Y011252D03*
X007285Y011266D03*
X007116Y011274D03*
X007099Y011252D03*
X007088Y011238D03*
X007078Y011224D03*
X007067Y011214D03*
X007116Y011452D03*
X007099Y011473D03*
X007088Y011487D03*
X007078Y011501D03*
D138*
X007584Y011491D03*
X007970Y011508D03*
X008155Y011564D03*
X007977Y011295D03*
X007980Y011284D03*
X008954Y011438D03*
X009680Y011477D03*
X009680Y011480D03*
X009680Y011484D03*
X009680Y011354D03*
X009680Y011351D03*
X009680Y011347D03*
X009680Y011344D03*
X009816Y011214D03*
X009897Y011266D03*
X009900Y011270D03*
X009904Y011274D03*
X009918Y011295D03*
X009925Y011309D03*
X009925Y011312D03*
X009928Y011316D03*
X009928Y011319D03*
X009928Y011323D03*
X009928Y011501D03*
X009928Y011505D03*
X009925Y011508D03*
X009925Y011512D03*
X009925Y011515D03*
X009893Y011561D03*
X010209Y011217D03*
X010468Y011431D03*
X010860Y011400D03*
X011263Y011217D03*
X011761Y011491D03*
X012258Y011494D03*
X012258Y011498D03*
X012258Y011501D03*
X012258Y011505D03*
X012258Y011337D03*
X012258Y011333D03*
X012258Y011330D03*
X012258Y011326D03*
X012865Y011519D03*
X012865Y011522D03*
X012844Y011652D03*
X012844Y011655D03*
X012844Y011659D03*
X012844Y011662D03*
X012844Y011666D03*
X005857Y011627D03*
X005850Y011603D03*
X005850Y011599D03*
X005850Y011596D03*
X005850Y011592D03*
X005843Y011571D03*
X005843Y011568D03*
X005843Y011564D03*
X005843Y011561D03*
X005839Y011547D03*
X005839Y011543D03*
X005839Y011540D03*
X005832Y011477D03*
X005832Y011473D03*
X005559Y011669D03*
X005559Y011673D03*
X005559Y011676D03*
X005559Y011680D03*
X005562Y011687D03*
X005562Y011690D03*
X005566Y011701D03*
X005566Y011704D03*
X005573Y011729D03*
X005552Y011648D03*
X005552Y011645D03*
X005552Y011641D03*
X005552Y011638D03*
X005545Y011610D03*
X005545Y011606D03*
X005545Y011603D03*
X005545Y011599D03*
X005541Y011585D03*
X005541Y011582D03*
X005541Y011578D03*
X005538Y011557D03*
X005538Y011554D03*
D139*
X006731Y011543D03*
X006731Y011540D03*
X006731Y011536D03*
X006731Y011533D03*
X007481Y011323D03*
X007481Y011319D03*
X007481Y011316D03*
X007684Y011323D03*
X007971Y011547D03*
X008189Y011305D03*
X008189Y011302D03*
X008557Y011498D03*
X010130Y011459D03*
X010315Y011410D03*
X010315Y011407D03*
X010315Y011403D03*
X010315Y011309D03*
X010315Y011305D03*
X010315Y011302D03*
X010207Y011214D03*
X011160Y011309D03*
X011160Y011312D03*
X011160Y011400D03*
X011160Y011403D03*
X011160Y011407D03*
X011160Y011410D03*
X011657Y011330D03*
X011657Y011326D03*
X011657Y011323D03*
X011657Y011319D03*
X011868Y012251D03*
D140*
X011188Y011459D03*
X011156Y011396D03*
X011156Y011393D03*
X011156Y011389D03*
X011156Y011386D03*
X011156Y011382D03*
X011156Y011379D03*
X011156Y011340D03*
X011156Y011337D03*
X011156Y011333D03*
X011156Y011330D03*
X011156Y011326D03*
X011156Y011323D03*
X011265Y011214D03*
X011374Y011305D03*
X011374Y011309D03*
X011374Y011312D03*
X011374Y011396D03*
X011374Y011400D03*
X011374Y011403D03*
X010312Y011417D03*
X010312Y011291D03*
X010280Y011249D03*
X010126Y011456D03*
X009131Y011442D03*
X009096Y011484D03*
X007978Y011557D03*
X007968Y011540D03*
X007523Y011245D03*
X006531Y012251D03*
D141*
X006177Y011617D03*
X005887Y011715D03*
X005904Y011757D03*
X005620Y011855D03*
X005620Y011859D03*
X005624Y011866D03*
X005624Y011869D03*
X007586Y011217D03*
X011766Y011217D03*
X012512Y011715D03*
X012491Y011764D03*
D142*
X012495Y011757D03*
X012498Y011750D03*
X012498Y011747D03*
X012502Y011743D03*
X012502Y011740D03*
X012505Y011733D03*
X012509Y011726D03*
X012229Y011603D03*
X012229Y011599D03*
X012232Y011592D03*
X012225Y011606D03*
X012225Y011610D03*
X012222Y011617D03*
X012218Y011624D03*
X012236Y011249D03*
X012232Y011238D03*
X012229Y011231D03*
X012229Y011228D03*
X012225Y011224D03*
X012225Y011221D03*
X012789Y011834D03*
X012786Y011841D03*
X012782Y011848D03*
X012782Y011852D03*
X012779Y011855D03*
X012779Y011859D03*
X012775Y011866D03*
X012775Y011869D03*
X012772Y011873D03*
X012772Y011876D03*
X012768Y011880D03*
X012768Y011883D03*
X012765Y011887D03*
X010932Y011498D03*
X010936Y011217D03*
X010683Y011442D03*
X010645Y011491D03*
X010473Y011438D03*
X009674Y011421D03*
X009674Y011417D03*
X009674Y011414D03*
X009674Y011410D03*
X009674Y011407D03*
X009674Y011403D03*
X009096Y011470D03*
X008557Y011491D03*
X007197Y011365D03*
X006181Y011624D03*
X006174Y011610D03*
X006174Y011606D03*
X006170Y011603D03*
X006170Y011599D03*
X006167Y011592D03*
X005897Y011740D03*
X005897Y011743D03*
X005901Y011747D03*
X005901Y011750D03*
X005908Y011764D03*
X005634Y011887D03*
X005617Y011852D03*
X005617Y011848D03*
X005613Y011841D03*
X005610Y011834D03*
X006167Y011242D03*
X006167Y011238D03*
X006170Y011231D03*
X006170Y011228D03*
X006174Y011224D03*
D143*
X006014Y011925D03*
X006018Y011929D03*
X005797Y012132D03*
X005794Y012128D03*
X008078Y011221D03*
X010643Y011480D03*
X012381Y011929D03*
X012385Y011925D03*
X012602Y012132D03*
D144*
X012605Y012128D03*
X012150Y011722D03*
X010930Y011491D03*
X009816Y011221D03*
X007991Y011484D03*
X006249Y011722D03*
X006246Y011719D03*
X006242Y011715D03*
X005787Y012121D03*
D145*
X005806Y012142D03*
X007586Y011224D03*
X010936Y011224D03*
X012372Y011936D03*
X012376Y011932D03*
X012590Y012146D03*
X012586Y012149D03*
D146*
X012868Y011435D03*
X009914Y011536D03*
X009907Y011547D03*
X009708Y011550D03*
X009697Y011536D03*
X009697Y011533D03*
X009690Y011522D03*
X009690Y011519D03*
X009687Y011512D03*
X009687Y011508D03*
X009687Y011319D03*
X009687Y011316D03*
X009690Y011309D03*
X009690Y011305D03*
X008604Y011428D03*
X008604Y011431D03*
X008075Y011613D03*
X007097Y011249D03*
X007094Y011245D03*
X007080Y011228D03*
D147*
X007199Y011333D03*
X007199Y011393D03*
X007584Y011477D03*
X007584Y011228D03*
X008148Y011354D03*
X008075Y011603D03*
X006270Y011743D03*
X006053Y011964D03*
X006056Y011967D03*
X006060Y011971D03*
X006063Y011974D03*
X005843Y012181D03*
X010934Y011228D03*
X010962Y011337D03*
X011764Y011228D03*
X012129Y011743D03*
X012346Y011964D03*
X012343Y011967D03*
X012335Y011974D03*
X012553Y012185D03*
D148*
X011906Y012237D03*
X011265Y011228D03*
X005841Y012178D03*
X005823Y012160D03*
D149*
X005887Y012220D03*
X005890Y012223D03*
X006286Y011757D03*
X006282Y011754D03*
X006486Y012234D03*
X007197Y011400D03*
X007586Y011231D03*
X008549Y011470D03*
X009807Y011603D03*
X010207Y011231D03*
X010641Y011470D03*
X010932Y011484D03*
D150*
X011761Y011242D03*
X012262Y012034D03*
X012437Y012279D03*
X012434Y012283D03*
X008078Y011231D03*
X006593Y011613D03*
X005955Y012276D03*
D151*
X005906Y012237D03*
X006092Y011999D03*
X010934Y011231D03*
X012493Y012237D03*
D152*
X012795Y011824D03*
X012795Y011820D03*
X012795Y011817D03*
X012511Y011722D03*
X012511Y011719D03*
X012514Y011711D03*
X012514Y011708D03*
X012230Y011596D03*
X012230Y011235D03*
X010205Y011494D03*
X009932Y011487D03*
X009673Y011428D03*
X009673Y011424D03*
X008958Y011442D03*
X006169Y011596D03*
X006158Y011571D03*
X006158Y011568D03*
X006151Y011547D03*
X006151Y011284D03*
X006158Y011266D03*
X006158Y011263D03*
X006158Y011259D03*
X006169Y011235D03*
X005881Y011701D03*
X005881Y011704D03*
X005597Y011799D03*
X005597Y011803D03*
X005597Y011806D03*
X005622Y011862D03*
D153*
X006710Y011428D03*
X007085Y011491D03*
X007130Y011291D03*
X007085Y011235D03*
X007309Y011235D03*
X008606Y011424D03*
D154*
X008119Y011372D03*
X008076Y011235D03*
X007197Y011305D03*
X007197Y011421D03*
X012067Y011789D03*
X012243Y012048D03*
X012414Y012297D03*
D155*
X012402Y012304D03*
X012230Y012055D03*
X009813Y011235D03*
X006169Y012055D03*
D156*
X006461Y012220D03*
X008076Y011238D03*
X009807Y011589D03*
X010207Y011466D03*
D157*
X010209Y011477D03*
X011761Y011238D03*
X012272Y012027D03*
X005937Y012262D03*
D158*
X005962Y012279D03*
X006137Y012034D03*
X006473Y012227D03*
X007584Y011242D03*
X012083Y011778D03*
X012258Y012037D03*
X012444Y012276D03*
D159*
X012208Y012069D03*
X009807Y011585D03*
X008076Y011242D03*
X006353Y011799D03*
D160*
X006326Y011785D03*
X005976Y012290D03*
X010209Y011242D03*
X011761Y011245D03*
D161*
X011663Y011298D03*
X011663Y011302D03*
X011663Y011305D03*
X011659Y011316D03*
X011368Y011291D03*
X011368Y011288D03*
X011337Y011249D03*
X011368Y011421D03*
X011368Y011424D03*
X011347Y011456D03*
X011183Y011456D03*
X011162Y011421D03*
X011162Y011417D03*
X011162Y011414D03*
X011162Y011305D03*
X011162Y011302D03*
X011162Y011298D03*
X010871Y011242D03*
X010846Y011417D03*
X010307Y011431D03*
X010286Y011459D03*
X010307Y011277D03*
X010286Y011252D03*
X010132Y011252D03*
X008173Y011263D03*
X007486Y011295D03*
X006726Y011554D03*
X006726Y011557D03*
X006715Y011575D03*
D162*
X006598Y011610D03*
X005992Y012300D03*
X008024Y011466D03*
X011265Y011242D03*
D163*
X011263Y011494D03*
X012234Y011585D03*
X012234Y011589D03*
X012237Y011582D03*
X012237Y011578D03*
X012244Y011557D03*
X012248Y011547D03*
X012248Y011284D03*
X012244Y011274D03*
X012237Y011256D03*
X012237Y011252D03*
X012234Y011245D03*
X012234Y011242D03*
X012528Y011673D03*
X012518Y011701D03*
X012518Y011704D03*
X012507Y011729D03*
X012504Y011736D03*
X012777Y011862D03*
X012788Y011838D03*
X012791Y011831D03*
X012791Y011827D03*
X012798Y011813D03*
X012798Y011810D03*
X012802Y011806D03*
X012802Y011803D03*
X012802Y011799D03*
X012809Y011785D03*
X012809Y011782D03*
X012812Y011775D03*
X012812Y011771D03*
X008593Y011442D03*
X008383Y011438D03*
X008173Y011333D03*
X007994Y011263D03*
X006162Y011256D03*
X006162Y011252D03*
X006162Y011578D03*
X006162Y011582D03*
X005878Y011690D03*
X005878Y011694D03*
X005878Y011697D03*
X005874Y011687D03*
X005874Y011683D03*
X005871Y011673D03*
X005885Y011708D03*
X005885Y011711D03*
X005888Y011719D03*
X005888Y011722D03*
X005604Y011817D03*
X005604Y011820D03*
X005604Y011824D03*
X005608Y011827D03*
X005608Y011831D03*
X005611Y011838D03*
X005601Y011813D03*
X005601Y011810D03*
D164*
X005594Y011796D03*
X005594Y011792D03*
X005590Y011785D03*
X005590Y011782D03*
X005587Y011775D03*
X005587Y011771D03*
X005615Y011845D03*
X005892Y011729D03*
X005895Y011736D03*
X006165Y011589D03*
X006165Y011585D03*
X006155Y011561D03*
X006155Y011557D03*
X006155Y011274D03*
X006165Y011245D03*
X006551Y011627D03*
X007973Y011501D03*
X007973Y011323D03*
X007973Y011319D03*
X007973Y011316D03*
X009676Y011375D03*
X009676Y011379D03*
X009676Y011382D03*
X009676Y011386D03*
X009676Y011389D03*
X009676Y011393D03*
X009676Y011396D03*
X009676Y011400D03*
X009935Y011351D03*
X009935Y011347D03*
X009935Y011344D03*
X009939Y011358D03*
X009935Y011463D03*
X009935Y011466D03*
X009935Y011470D03*
X009935Y011473D03*
X012241Y011568D03*
X012241Y011571D03*
X012241Y011266D03*
X012241Y011263D03*
X012241Y011259D03*
X012525Y011683D03*
X012525Y011687D03*
X012521Y011690D03*
X012521Y011694D03*
X012521Y011697D03*
X012805Y011792D03*
X012805Y011796D03*
X012784Y011845D03*
D165*
X011656Y011351D03*
X011656Y011347D03*
X011656Y011344D03*
X011656Y011340D03*
X011656Y011337D03*
X011656Y011333D03*
X011375Y011333D03*
X011375Y011330D03*
X011375Y011326D03*
X011375Y011323D03*
X011375Y011319D03*
X011375Y011316D03*
X011375Y011337D03*
X011375Y011379D03*
X011375Y011382D03*
X011375Y011386D03*
X011375Y011389D03*
X011375Y011393D03*
X011372Y011407D03*
X011337Y011463D03*
X011263Y011498D03*
X011155Y011375D03*
X011155Y011372D03*
X011155Y011368D03*
X011155Y011365D03*
X011155Y011361D03*
X011155Y011358D03*
X011155Y011354D03*
X011155Y011351D03*
X011155Y011347D03*
X011155Y011344D03*
X011197Y011249D03*
X011011Y011312D03*
X010850Y011410D03*
X010647Y011498D03*
X010317Y011400D03*
X010317Y011396D03*
X010317Y011393D03*
X010317Y011389D03*
X010317Y011386D03*
X010317Y011326D03*
X010317Y011323D03*
X010317Y011319D03*
X010317Y011316D03*
X010317Y011312D03*
X010279Y011463D03*
X010100Y011393D03*
X010100Y011389D03*
X010100Y011386D03*
X010100Y011382D03*
X010100Y011379D03*
X010100Y011375D03*
X010100Y011372D03*
X010100Y011354D03*
X010100Y011351D03*
X010100Y011347D03*
X010100Y011344D03*
X010100Y011340D03*
X010100Y011337D03*
X010100Y011333D03*
X010100Y011330D03*
X010100Y011326D03*
X010139Y011249D03*
X008187Y011309D03*
X008187Y011512D03*
X007980Y011561D03*
X007973Y011550D03*
X007970Y011543D03*
X007966Y011536D03*
X007966Y011533D03*
X007966Y011529D03*
X007644Y011245D03*
X007479Y011326D03*
X007479Y011330D03*
X007479Y011333D03*
X007479Y011337D03*
X007479Y011340D03*
X007479Y011344D03*
X007479Y011347D03*
X007479Y011351D03*
X007584Y011494D03*
X006733Y011494D03*
X006733Y011491D03*
X006733Y011487D03*
X006733Y011484D03*
X006733Y011498D03*
X006733Y011501D03*
X006733Y011505D03*
X006733Y011508D03*
X006733Y011512D03*
X006733Y011515D03*
X006733Y011519D03*
X006733Y011522D03*
X006733Y011526D03*
X006733Y011529D03*
X006729Y011463D03*
X006729Y011459D03*
X006726Y011449D03*
X006722Y011442D03*
D166*
X006612Y011403D03*
X006612Y011596D03*
X006198Y012072D03*
X006055Y012339D03*
X006048Y012335D03*
X008045Y011449D03*
X008076Y011245D03*
X012194Y012076D03*
X012344Y012339D03*
D167*
X012187Y012079D03*
X011948Y012213D03*
X009811Y011245D03*
D168*
X010207Y011245D03*
X011265Y011245D03*
X012225Y012058D03*
X008027Y011463D03*
X007197Y011302D03*
X006601Y011393D03*
X006601Y011606D03*
D169*
X007493Y011277D03*
X007493Y011274D03*
X007514Y011249D03*
X007672Y011431D03*
X010843Y011424D03*
X010864Y011245D03*
X011018Y011302D03*
X011354Y011263D03*
X011354Y011449D03*
X011666Y011421D03*
X011666Y011417D03*
X011666Y011288D03*
D170*
X006163Y011249D03*
X005890Y011726D03*
X005894Y011733D03*
X005627Y011873D03*
X005627Y011876D03*
X005631Y011880D03*
X005631Y011883D03*
D171*
X006720Y011568D03*
X006724Y011561D03*
X007484Y011410D03*
X007484Y011407D03*
X007484Y011403D03*
X007484Y011302D03*
X007484Y011298D03*
X007488Y011291D03*
X007488Y011288D03*
X007653Y011249D03*
X007681Y011298D03*
X007681Y011302D03*
X007681Y011305D03*
X007677Y011414D03*
X007677Y011417D03*
X008178Y011266D03*
X008182Y011274D03*
X008185Y011281D03*
X008185Y011284D03*
X008185Y011288D03*
X009135Y011438D03*
X010109Y011431D03*
X010109Y011428D03*
X010112Y011435D03*
X010112Y011438D03*
X010116Y011442D03*
X010116Y011445D03*
X010119Y011449D03*
X010123Y011452D03*
X010105Y011298D03*
X010105Y011295D03*
X010109Y011288D03*
X010109Y011284D03*
X010112Y011281D03*
X010112Y011277D03*
X010116Y011270D03*
X010119Y011266D03*
X010123Y011263D03*
X010291Y011256D03*
X010294Y011259D03*
X010298Y011263D03*
X010302Y011266D03*
X010302Y011270D03*
X010305Y011274D03*
X010308Y011281D03*
X010305Y011435D03*
X010305Y011438D03*
X010302Y011442D03*
X010302Y011445D03*
X010298Y011449D03*
X010294Y011452D03*
X010291Y011456D03*
X010845Y011421D03*
X011016Y011305D03*
X011163Y011295D03*
X011163Y011291D03*
X011167Y011284D03*
X011167Y011281D03*
X011170Y011277D03*
X011170Y011274D03*
X011174Y011270D03*
X011177Y011263D03*
X011181Y011259D03*
X011184Y011256D03*
X011349Y011256D03*
X011353Y011259D03*
X011356Y011266D03*
X011360Y011270D03*
X011363Y011274D03*
X011363Y011277D03*
X011367Y011284D03*
X011363Y011435D03*
X011360Y011442D03*
X011356Y011445D03*
X011353Y011452D03*
X011177Y011449D03*
X011174Y011445D03*
X011170Y011442D03*
X011170Y011438D03*
X011167Y011435D03*
X011167Y011431D03*
X011163Y011424D03*
X011664Y011414D03*
X011664Y011295D03*
X011664Y011291D03*
X011668Y011284D03*
X011861Y011305D03*
X011861Y011309D03*
X011861Y011312D03*
X011857Y011407D03*
X011857Y011410D03*
X011857Y011414D03*
X011854Y011421D03*
X011822Y011466D03*
D172*
X011952Y012209D03*
X009811Y011249D03*
X008080Y011410D03*
X008066Y011424D03*
X006619Y011414D03*
X006619Y011585D03*
D173*
X007505Y011452D03*
X010845Y011449D03*
X011009Y011459D03*
X011020Y011442D03*
X011020Y011438D03*
X011009Y011249D03*
X011682Y011452D03*
X011686Y011456D03*
D174*
X011661Y011407D03*
X011661Y011403D03*
X011829Y011249D03*
X009807Y011620D03*
D175*
X009136Y011435D03*
X008180Y011270D03*
X007658Y011252D03*
X007675Y011421D03*
X007675Y011424D03*
X007486Y011417D03*
X007486Y011414D03*
X011673Y011270D03*
X011852Y011424D03*
X011852Y011428D03*
D176*
X008075Y011571D03*
X008075Y011252D03*
X006225Y012086D03*
X006081Y012353D03*
D177*
X006233Y012090D03*
X006377Y011810D03*
X009811Y011252D03*
X012313Y012356D03*
D178*
X011843Y011445D03*
X011700Y011466D03*
X011668Y011428D03*
X011668Y011424D03*
X011679Y011263D03*
X011679Y011259D03*
X011840Y011256D03*
X011843Y011259D03*
X010855Y011252D03*
X010852Y011259D03*
X010845Y011270D03*
X010845Y011274D03*
X010845Y011277D03*
X010841Y011281D03*
X010841Y011284D03*
X010841Y011288D03*
X010841Y011291D03*
X010841Y011295D03*
X010841Y011298D03*
X010841Y011302D03*
X010841Y011428D03*
X010841Y011431D03*
X010841Y011435D03*
X009142Y011428D03*
X009142Y011424D03*
X009096Y011487D03*
X008076Y011617D03*
X007670Y011438D03*
X007670Y011435D03*
X007523Y011466D03*
X007491Y011431D03*
X007491Y011428D03*
X007502Y011259D03*
D179*
X008557Y011501D03*
X010848Y011456D03*
X011013Y011456D03*
X011023Y011431D03*
X011023Y011428D03*
X011023Y011424D03*
X011023Y011288D03*
X011023Y011284D03*
X011023Y011281D03*
X011023Y011277D03*
X011013Y011252D03*
D180*
X011158Y011316D03*
X011158Y011319D03*
X011190Y011252D03*
X011365Y011281D03*
X011365Y011428D03*
X011365Y011431D03*
X011344Y011459D03*
X011179Y011452D03*
X011862Y011323D03*
X011862Y011319D03*
X011862Y011316D03*
X010314Y011298D03*
X010314Y011295D03*
X010314Y011414D03*
X010107Y011421D03*
X010107Y011424D03*
X010107Y011291D03*
X010128Y011256D03*
X008187Y011291D03*
X008187Y011295D03*
X008187Y011298D03*
X007682Y011309D03*
X007682Y011312D03*
X007682Y011316D03*
X007682Y011319D03*
X007483Y011312D03*
X007483Y011309D03*
X007483Y011305D03*
X006722Y011564D03*
X006712Y011578D03*
D181*
X011342Y011252D03*
D182*
X011675Y011266D03*
X011847Y011266D03*
X011857Y011288D03*
X011857Y011291D03*
X011847Y011438D03*
X011847Y011442D03*
X011836Y011456D03*
X011833Y011459D03*
X011020Y011298D03*
X009138Y011431D03*
X007674Y011428D03*
X007663Y011449D03*
X007660Y011452D03*
X007649Y011463D03*
X007495Y011438D03*
X007495Y011270D03*
X007660Y011256D03*
X007663Y011259D03*
X007674Y011274D03*
X007674Y011277D03*
D183*
X008075Y011256D03*
X009031Y011459D03*
X009031Y011463D03*
X006624Y011424D03*
X006624Y011421D03*
X006095Y012360D03*
D184*
X006242Y012093D03*
X006438Y012202D03*
X009035Y011449D03*
X009806Y011568D03*
X009809Y011256D03*
X012157Y012093D03*
X012290Y012367D03*
D185*
X011838Y011452D03*
X011841Y011449D03*
X011845Y011263D03*
X010853Y011256D03*
X010843Y011438D03*
X010843Y011442D03*
X010843Y011445D03*
X010853Y011463D03*
D186*
X011015Y011452D03*
X011025Y011421D03*
X011025Y011417D03*
X011015Y011256D03*
X011761Y011498D03*
X011855Y012556D03*
X007584Y011498D03*
D187*
X007679Y011410D03*
X007679Y011407D03*
X007679Y011403D03*
X008169Y011259D03*
X006719Y011571D03*
X010103Y011417D03*
X010103Y011414D03*
X010103Y011410D03*
X010103Y011309D03*
X010103Y011305D03*
X010103Y011302D03*
X010125Y011259D03*
X010310Y011284D03*
X010310Y011288D03*
X010310Y011421D03*
X010310Y011424D03*
X010310Y011428D03*
X011165Y011428D03*
X011165Y011288D03*
X011372Y011302D03*
X011361Y011438D03*
X011859Y011403D03*
D188*
X011018Y011445D03*
X011018Y011263D03*
X011018Y011259D03*
X006544Y012556D03*
D189*
X005872Y011680D03*
X005872Y011676D03*
X005865Y011662D03*
X005865Y011659D03*
X005865Y011655D03*
X005862Y011648D03*
X005862Y011645D03*
X005571Y011719D03*
X005571Y011722D03*
X005571Y011726D03*
X005568Y011711D03*
X005568Y011708D03*
X005578Y011743D03*
X005578Y011747D03*
X005578Y011750D03*
X005582Y011754D03*
X005582Y011757D03*
X005582Y011761D03*
X005585Y011764D03*
X005585Y011768D03*
X006160Y011575D03*
X006156Y011564D03*
X006153Y011554D03*
X006153Y011550D03*
X006149Y011543D03*
X006149Y011540D03*
X006149Y011536D03*
X006146Y011529D03*
X006146Y011526D03*
X006146Y011522D03*
X006142Y011512D03*
X006142Y011508D03*
X006142Y011323D03*
X006142Y011319D03*
X006146Y011309D03*
X006146Y011305D03*
X006146Y011302D03*
X006149Y011295D03*
X006149Y011291D03*
X006149Y011288D03*
X006153Y011281D03*
X006153Y011277D03*
X006156Y011270D03*
X006549Y011428D03*
X008599Y011438D03*
X009674Y011438D03*
X009674Y011435D03*
X009674Y011431D03*
X009674Y011442D03*
X009674Y011445D03*
X009674Y011449D03*
X009674Y011452D03*
X009674Y011456D03*
X009720Y011561D03*
X009930Y011498D03*
X009930Y011494D03*
X009930Y011491D03*
X009934Y011484D03*
X009934Y011480D03*
X009934Y011477D03*
X009934Y011340D03*
X009934Y011337D03*
X009934Y011333D03*
X009930Y011326D03*
X009892Y011263D03*
X012246Y011277D03*
X012246Y011281D03*
X012246Y011550D03*
X012246Y011554D03*
X012541Y011631D03*
X012541Y011634D03*
X012541Y011638D03*
X012530Y011666D03*
X012530Y011669D03*
X012821Y011743D03*
X012821Y011747D03*
X012821Y011750D03*
X012810Y011778D03*
X012831Y011711D03*
X012831Y011708D03*
D190*
X012828Y011719D03*
X012828Y011722D03*
X012828Y011726D03*
X012824Y011733D03*
X012824Y011736D03*
X012824Y011740D03*
X012807Y011789D03*
X012526Y011680D03*
X012526Y011676D03*
X012544Y011620D03*
X012548Y011606D03*
X012243Y011564D03*
X012243Y011561D03*
X012239Y011575D03*
X012260Y011491D03*
X012260Y011344D03*
X012260Y011340D03*
X012243Y011270D03*
X010687Y011438D03*
X010470Y011435D03*
X009937Y011354D03*
X009678Y011358D03*
X009678Y011361D03*
X009678Y011365D03*
X009678Y011368D03*
X009678Y011372D03*
X009678Y011459D03*
X009678Y011463D03*
X009678Y011466D03*
X009678Y011470D03*
X009678Y011473D03*
X008381Y011435D03*
X008150Y011568D03*
X007971Y011505D03*
X007975Y011312D03*
X007975Y011309D03*
X007975Y011305D03*
X007975Y011302D03*
X007975Y011298D03*
X007982Y011281D03*
X007985Y011274D03*
X007992Y011266D03*
X005869Y011666D03*
X005869Y011669D03*
X005855Y011624D03*
X005855Y011620D03*
X005851Y011606D03*
X005561Y011683D03*
X005589Y011778D03*
X005592Y011789D03*
D191*
X011022Y011435D03*
X011022Y011274D03*
X011022Y011270D03*
X011022Y011266D03*
D192*
X010995Y011323D03*
X010866Y011396D03*
X012250Y011295D03*
X012250Y011291D03*
X012250Y011288D03*
X012253Y011302D03*
X012253Y011305D03*
X012253Y011309D03*
X012257Y011319D03*
X012257Y011323D03*
X012257Y011508D03*
X012257Y011512D03*
X012253Y011522D03*
X012253Y011526D03*
X012253Y011529D03*
X012250Y011536D03*
X012250Y011540D03*
X012250Y011543D03*
X012537Y011645D03*
X012537Y011648D03*
X012533Y011655D03*
X012533Y011659D03*
X012533Y011662D03*
X012817Y011754D03*
X012817Y011757D03*
X012817Y011761D03*
X012814Y011764D03*
X012814Y011768D03*
X012835Y011697D03*
X012835Y011694D03*
X012838Y011683D03*
X009096Y011473D03*
X007989Y011270D03*
X007978Y011288D03*
X007978Y011291D03*
X006139Y011340D03*
X006139Y011344D03*
X006139Y011491D03*
X005858Y011631D03*
X005858Y011634D03*
X005858Y011638D03*
X005575Y011733D03*
X005575Y011736D03*
X005575Y011740D03*
X005564Y011697D03*
X005564Y011694D03*
D193*
X006526Y012552D03*
X006715Y011431D03*
X007111Y011459D03*
X007122Y011445D03*
X007269Y011438D03*
X007279Y011449D03*
X007279Y011452D03*
X007290Y011463D03*
X007300Y011477D03*
X007318Y011501D03*
X009701Y011284D03*
X009711Y011270D03*
X010934Y011501D03*
D194*
X011001Y011470D03*
X011694Y011463D03*
X011848Y011270D03*
D195*
X012262Y011347D03*
X012262Y011351D03*
X012262Y011354D03*
X012262Y011358D03*
X012262Y011361D03*
X012262Y011365D03*
X012262Y011368D03*
X012265Y011375D03*
X012265Y011379D03*
X012265Y011382D03*
X012265Y011386D03*
X012265Y011389D03*
X012265Y011393D03*
X012265Y011396D03*
X012265Y011400D03*
X012265Y011403D03*
X012265Y011407D03*
X012265Y011410D03*
X012265Y011414D03*
X012265Y011417D03*
X012265Y011421D03*
X012265Y011424D03*
X012265Y011428D03*
X012265Y011431D03*
X012265Y011435D03*
X012265Y011438D03*
X012265Y011442D03*
X012265Y011445D03*
X012265Y011449D03*
X012265Y011452D03*
X012265Y011456D03*
X012262Y011466D03*
X012262Y011470D03*
X012262Y011473D03*
X012262Y011477D03*
X012262Y011480D03*
X012262Y011484D03*
X012262Y011487D03*
X012549Y011592D03*
X012549Y011596D03*
X012549Y011599D03*
X012549Y011603D03*
X012546Y011610D03*
X012546Y011613D03*
X012546Y011617D03*
X012542Y011624D03*
X012542Y011627D03*
X012563Y011519D03*
X012563Y011515D03*
X012563Y011512D03*
X012567Y011477D03*
X012567Y011473D03*
X012851Y011620D03*
X012851Y011624D03*
X012851Y011627D03*
X012851Y011631D03*
X012847Y011638D03*
X012847Y011641D03*
X012847Y011645D03*
X012847Y011648D03*
X012830Y011715D03*
X012826Y011729D03*
X009921Y011522D03*
X009932Y011330D03*
X009921Y011302D03*
X009683Y011333D03*
X009683Y011498D03*
X008380Y011431D03*
X007984Y011277D03*
X006519Y012248D03*
X005864Y011652D03*
X005853Y011617D03*
X005853Y011613D03*
X005853Y011610D03*
X005846Y011589D03*
X005846Y011585D03*
X005846Y011582D03*
X005846Y011578D03*
X006144Y011519D03*
X006144Y011515D03*
X006134Y011456D03*
X006134Y011452D03*
X006134Y011449D03*
X006134Y011445D03*
X006134Y011442D03*
X006134Y011438D03*
X006134Y011435D03*
X006134Y011431D03*
X006134Y011428D03*
X006134Y011424D03*
X006134Y011421D03*
X006134Y011417D03*
X006134Y011414D03*
X006134Y011410D03*
X006134Y011407D03*
X006134Y011403D03*
X006134Y011400D03*
X006134Y011396D03*
X006134Y011393D03*
X006134Y011389D03*
X006134Y011386D03*
X006134Y011382D03*
X006134Y011379D03*
X006134Y011375D03*
X006144Y011316D03*
X006144Y011312D03*
D196*
X007083Y011494D03*
X007094Y011480D03*
X007108Y011463D03*
X007125Y011442D03*
X007265Y011435D03*
X007265Y011431D03*
X007276Y011445D03*
X007304Y011480D03*
X007304Y011484D03*
X007314Y011494D03*
X009704Y011277D03*
X010853Y011407D03*
X011873Y012552D03*
D197*
X012213Y012065D03*
X012371Y012325D03*
X008075Y011585D03*
X008036Y011456D03*
X008110Y011379D03*
X007199Y011295D03*
X006607Y011396D03*
X006607Y011603D03*
X006186Y012065D03*
D198*
X006706Y011582D03*
X006727Y011550D03*
X006727Y011547D03*
X007975Y011554D03*
X010102Y011407D03*
X010102Y011403D03*
X010102Y011400D03*
X010102Y011396D03*
X010102Y011323D03*
X010102Y011319D03*
X010102Y011316D03*
X010102Y011312D03*
X010848Y011414D03*
X011013Y011309D03*
X011370Y011298D03*
X011370Y011295D03*
X011370Y011410D03*
X011370Y011414D03*
X011370Y011417D03*
X011661Y011312D03*
X011661Y011309D03*
D199*
X012251Y011298D03*
X012255Y011312D03*
X012255Y011316D03*
X012255Y011515D03*
X012255Y011519D03*
X012251Y011533D03*
X012553Y011578D03*
X012553Y011582D03*
X012553Y011585D03*
X012553Y011589D03*
X012556Y011571D03*
X012556Y011568D03*
X012556Y011564D03*
X012556Y011561D03*
X012560Y011547D03*
X012560Y011543D03*
X012560Y011540D03*
X012539Y011641D03*
X012535Y011652D03*
X012833Y011701D03*
X012833Y011704D03*
X012837Y011690D03*
X012837Y011687D03*
X012840Y011680D03*
X012840Y011676D03*
X012840Y011673D03*
X012840Y011669D03*
X012854Y011610D03*
X012854Y011606D03*
X012854Y011603D03*
X012854Y011599D03*
X012858Y011585D03*
X012858Y011582D03*
X012858Y011578D03*
X012861Y011557D03*
X012861Y011554D03*
X012861Y011550D03*
X008600Y011435D03*
X008176Y011330D03*
X006148Y011298D03*
X006141Y011326D03*
X006141Y011330D03*
X006141Y011333D03*
X006141Y011337D03*
X006137Y011347D03*
X006137Y011351D03*
X006137Y011354D03*
X006137Y011358D03*
X006137Y011361D03*
X006137Y011365D03*
X006137Y011368D03*
X006137Y011466D03*
X006137Y011470D03*
X006137Y011473D03*
X006137Y011477D03*
X006137Y011480D03*
X006137Y011484D03*
X006137Y011487D03*
X006141Y011494D03*
X006141Y011498D03*
X006141Y011501D03*
X006141Y011505D03*
X006148Y011533D03*
X005860Y011641D03*
X005836Y011519D03*
X005836Y011515D03*
X005836Y011512D03*
X005569Y011715D03*
X005555Y011666D03*
X005555Y011662D03*
X005555Y011659D03*
X005555Y011655D03*
X005548Y011631D03*
X005548Y011627D03*
X005548Y011624D03*
X005548Y011620D03*
X005534Y011522D03*
X005534Y011519D03*
D200*
X005929Y012255D03*
X007197Y011407D03*
X007197Y011319D03*
X010922Y011365D03*
X010932Y011358D03*
X012278Y012023D03*
X012281Y012020D03*
D201*
X007938Y011326D03*
D202*
X008178Y011326D03*
X008378Y011428D03*
X008161Y011561D03*
X009902Y011554D03*
X010466Y011428D03*
X010466Y011424D03*
X010694Y011431D03*
X011878Y012248D03*
X012562Y011536D03*
X012562Y011533D03*
X012562Y011529D03*
X012562Y011526D03*
X012562Y011522D03*
X012863Y011526D03*
X012863Y011529D03*
X012863Y011533D03*
X012863Y011536D03*
X012863Y011540D03*
X012863Y011543D03*
X012863Y011547D03*
X012866Y011515D03*
X012866Y011512D03*
X012866Y011508D03*
X012866Y011505D03*
X012866Y011501D03*
X012866Y011498D03*
X012866Y011494D03*
X012866Y011491D03*
X012866Y011487D03*
X012866Y011484D03*
X012866Y011480D03*
X012866Y011477D03*
X012866Y011473D03*
X012866Y011470D03*
X012866Y011466D03*
X012866Y011463D03*
X012866Y011459D03*
X012866Y011456D03*
X012866Y011452D03*
X012866Y011449D03*
X012866Y011445D03*
X012866Y011442D03*
X012866Y011438D03*
X012852Y011613D03*
X012852Y011617D03*
X006135Y011463D03*
X006135Y011459D03*
X006135Y011372D03*
X005844Y011575D03*
X005554Y011652D03*
X005536Y011550D03*
X005536Y011547D03*
X005536Y011543D03*
X005536Y011540D03*
X005536Y011536D03*
X005536Y011533D03*
X005536Y011529D03*
X005536Y011526D03*
X005533Y011515D03*
X005533Y011512D03*
X005533Y011508D03*
X005533Y011505D03*
X005533Y011501D03*
X005533Y011498D03*
X005533Y011494D03*
X005533Y011491D03*
X005533Y011487D03*
X005533Y011484D03*
X005533Y011480D03*
X005533Y011477D03*
X005533Y011473D03*
X005533Y011470D03*
X005533Y011466D03*
X005533Y011463D03*
X005533Y011459D03*
X005533Y011456D03*
X005533Y011452D03*
X005533Y011449D03*
X005533Y011445D03*
X005533Y011442D03*
X005533Y011438D03*
D203*
X006032Y011943D03*
X006042Y011953D03*
X006494Y012237D03*
X010969Y011333D03*
X012371Y011939D03*
D204*
X011971Y012195D03*
X007581Y011375D03*
X007581Y011372D03*
X007581Y011368D03*
X007581Y011365D03*
X007581Y011361D03*
X007581Y011358D03*
X007581Y011354D03*
D205*
X006268Y012104D03*
X011759Y011365D03*
X011759Y011361D03*
X011759Y011358D03*
X011759Y011354D03*
D206*
X011757Y011368D03*
D207*
X010913Y011372D03*
X006305Y011771D03*
X006109Y012013D03*
X005920Y012248D03*
D208*
X006132Y012377D03*
X006430Y012514D03*
X011759Y011386D03*
X011759Y011382D03*
X011759Y011379D03*
X011759Y011375D03*
X011759Y011372D03*
D209*
X012392Y012311D03*
X011936Y012531D03*
X008113Y011375D03*
X008033Y011459D03*
X007199Y011428D03*
X006007Y012311D03*
D210*
X006398Y011817D03*
X007582Y011379D03*
X011969Y012514D03*
D211*
X012139Y012100D03*
X011761Y011389D03*
X007581Y011389D03*
X007581Y011386D03*
X007581Y011382D03*
D212*
X008106Y011382D03*
X006028Y012325D03*
D213*
X006591Y011386D03*
X012267Y012030D03*
D214*
X012357Y012332D03*
X011943Y012216D03*
X011943Y012528D03*
X008075Y011582D03*
X008040Y011452D03*
X008103Y011386D03*
X006456Y012528D03*
D215*
X006360Y011803D03*
X008098Y011389D03*
X012201Y012072D03*
X012351Y012335D03*
D216*
X007582Y011396D03*
X007582Y011393D03*
D217*
X008047Y011445D03*
X008096Y011393D03*
X006452Y012213D03*
D218*
X006125Y012374D03*
X011759Y011396D03*
X011759Y011393D03*
X012274Y012374D03*
D219*
X008090Y011396D03*
X008052Y011442D03*
D220*
X006610Y011400D03*
D221*
X006300Y011768D03*
X007197Y011403D03*
X008010Y011473D03*
X012295Y012009D03*
D222*
X006615Y011407D03*
X006212Y012079D03*
D223*
X006449Y012524D03*
X006617Y011589D03*
X006617Y011410D03*
X008054Y011438D03*
D224*
X008069Y011421D03*
X008076Y011414D03*
D225*
X006622Y011417D03*
X012166Y012090D03*
D226*
X012428Y012286D03*
X007197Y011417D03*
D227*
X007199Y011424D03*
X008075Y011589D03*
X009806Y011592D03*
X011263Y011470D03*
X012237Y012051D03*
X006162Y012051D03*
X005997Y012304D03*
D228*
X006067Y012346D03*
X006368Y011806D03*
X008057Y011435D03*
D229*
X007502Y011449D03*
X011016Y011449D03*
X011689Y011459D03*
D230*
X008488Y011449D03*
D231*
X010577Y011449D03*
X010577Y011452D03*
D232*
X010575Y011456D03*
X010575Y011459D03*
X011987Y012503D03*
X008486Y011456D03*
X008486Y011452D03*
D233*
X009033Y011452D03*
X009033Y011456D03*
X006100Y012363D03*
D234*
X006414Y012181D03*
X008485Y011463D03*
X008485Y011459D03*
X011985Y012181D03*
D235*
X010573Y011463D03*
D236*
X010209Y011470D03*
D237*
X010207Y011484D03*
X010641Y011473D03*
X012544Y012192D03*
X006279Y011750D03*
D238*
X006321Y011782D03*
X005971Y012286D03*
X011265Y011473D03*
X012078Y011782D03*
X012253Y012041D03*
X011927Y012535D03*
D239*
X012339Y011971D03*
X012556Y012181D03*
X011761Y011477D03*
X010930Y011487D03*
D240*
X010205Y011501D03*
X009094Y011491D03*
D241*
X011761Y011494D03*
D242*
X007582Y011501D03*
D243*
X011262Y011501D03*
D244*
X011761Y011501D03*
D245*
X008557Y011505D03*
D246*
X010647Y011505D03*
D247*
X010936Y011508D03*
D248*
X007984Y011564D03*
D249*
X009807Y011571D03*
D250*
X009806Y011575D03*
X012174Y012086D03*
D251*
X012339Y012342D03*
X008075Y011578D03*
D252*
X006580Y011620D03*
X006083Y011992D03*
X012313Y011995D03*
X012316Y011992D03*
X012320Y011988D03*
X012512Y012220D03*
X012509Y012223D03*
D253*
X009807Y011624D03*
D254*
X009802Y011627D03*
D255*
X012132Y011740D03*
X006267Y011740D03*
X005846Y012185D03*
D256*
X006339Y011792D03*
X012397Y012307D03*
D257*
X012046Y011799D03*
X006037Y012328D03*
D258*
X006086Y012356D03*
X012022Y011810D03*
D259*
X006388Y011813D03*
D260*
X011962Y012202D03*
X012011Y011813D03*
D261*
X011997Y011817D03*
X012267Y012377D03*
D262*
X006416Y011820D03*
D263*
X011982Y011820D03*
X011982Y012185D03*
X011982Y012507D03*
D264*
X009199Y011824D03*
D265*
X009199Y011827D03*
D266*
X009199Y011841D03*
D267*
X009199Y011852D03*
D268*
X009199Y011859D03*
D269*
X009199Y011866D03*
D270*
X009199Y011873D03*
D271*
X009200Y011876D03*
D272*
X009199Y011883D03*
D273*
X009199Y011887D03*
D274*
X009200Y011890D03*
D275*
X009199Y011894D03*
D276*
X009199Y011897D03*
D277*
X009199Y011901D03*
D278*
X009199Y011904D03*
D279*
X009199Y011908D03*
D280*
X009199Y011915D03*
D281*
X009199Y011918D03*
D282*
X009199Y011922D03*
D283*
X009199Y011925D03*
D284*
X009199Y011929D03*
D285*
X009199Y011932D03*
D286*
X009199Y011936D03*
D287*
X009199Y011939D03*
D288*
X009199Y011943D03*
D289*
X009199Y011946D03*
D290*
X009198Y011950D03*
D291*
X009199Y011953D03*
D292*
X009198Y011957D03*
D293*
X006260Y012100D03*
D294*
X006142Y012381D03*
X012131Y012104D03*
X012257Y012381D03*
D295*
X006279Y012107D03*
D296*
X006289Y012111D03*
X012109Y012111D03*
D297*
X011992Y012500D03*
X006302Y012114D03*
D298*
X012097Y012114D03*
D299*
X012003Y012164D03*
X006319Y012118D03*
X006211Y012405D03*
D300*
X012080Y012118D03*
X012188Y012405D03*
D301*
X012059Y012121D03*
X006340Y012121D03*
D302*
X006363Y012125D03*
X006363Y012465D03*
D303*
X012036Y012465D03*
X012036Y012125D03*
D304*
X006365Y012128D03*
D305*
X012034Y012128D03*
D306*
X006368Y012132D03*
D307*
X012031Y012132D03*
D308*
X012027Y012135D03*
X006372Y012135D03*
X006253Y012416D03*
D309*
X006374Y012139D03*
X012145Y012416D03*
D310*
X012025Y012139D03*
D311*
X006377Y012142D03*
D312*
X012022Y012142D03*
D313*
X006381Y012146D03*
D314*
X012018Y012146D03*
D315*
X006382Y012149D03*
X006239Y012412D03*
D316*
X012017Y012149D03*
X012160Y012412D03*
D317*
X006386Y012153D03*
D318*
X012013Y012153D03*
D319*
X012174Y012409D03*
X006389Y012156D03*
D320*
X006225Y012409D03*
X012010Y012156D03*
D321*
X012006Y012160D03*
X012006Y012489D03*
X006393Y012489D03*
X006393Y012160D03*
D322*
X006396Y012164D03*
D323*
X006398Y012167D03*
X006398Y012493D03*
D324*
X012001Y012493D03*
X012001Y012167D03*
D325*
X011997Y012171D03*
X011997Y012496D03*
X006402Y012496D03*
X006402Y012171D03*
D326*
X006409Y012178D03*
X006188Y012398D03*
D327*
X011990Y012178D03*
X012211Y012398D03*
D328*
X006417Y012507D03*
X006169Y012391D03*
X006417Y012185D03*
D329*
X006421Y012188D03*
X006158Y012388D03*
D330*
X011978Y012188D03*
X012241Y012388D03*
D331*
X011975Y012510D03*
X011975Y012192D03*
D332*
X006428Y012195D03*
D333*
X006433Y012199D03*
X011966Y012199D03*
D334*
X011957Y012206D03*
X012304Y012360D03*
X011957Y012521D03*
D335*
X011854Y012255D03*
X006545Y012255D03*
D336*
X011829Y012258D03*
D337*
X012381Y012318D03*
X006011Y012314D03*
D338*
X006018Y012318D03*
X006463Y012531D03*
X011032Y010874D03*
D339*
X006042Y012332D03*
D340*
X012318Y012353D03*
D341*
X012299Y012363D03*
D342*
X006109Y012367D03*
D343*
X006435Y012517D03*
X012283Y012370D03*
D344*
X006149Y012384D03*
D345*
X012230Y012391D03*
D346*
X006177Y012395D03*
D347*
X006412Y012503D03*
X012222Y012395D03*
D348*
X006200Y012402D03*
D349*
X006274Y012419D03*
X006358Y012461D03*
X012041Y012461D03*
D350*
X012125Y012419D03*
D351*
X006316Y012423D03*
D352*
X012076Y012426D03*
X012083Y012423D03*
D353*
X006323Y012426D03*
D354*
X006326Y012430D03*
D355*
X012073Y012430D03*
D356*
X006330Y012433D03*
D357*
X012069Y012433D03*
D358*
X006333Y012437D03*
D359*
X012066Y012437D03*
D360*
X012062Y012440D03*
X006337Y012440D03*
D361*
X006340Y012444D03*
D362*
X012059Y012444D03*
D363*
X006344Y012447D03*
D364*
X012055Y012447D03*
D365*
X006347Y012451D03*
D366*
X012052Y012451D03*
D367*
X012048Y012454D03*
X006351Y012454D03*
D368*
X006354Y012458D03*
D369*
X012045Y012458D03*
D370*
X006367Y012468D03*
D371*
X012032Y012468D03*
D372*
X006370Y012472D03*
D373*
X012029Y012472D03*
D374*
X006375Y012475D03*
D375*
X012024Y012475D03*
D376*
X006379Y012479D03*
D377*
X012020Y012479D03*
D378*
X006384Y012482D03*
D379*
X012015Y012482D03*
D380*
X006388Y012486D03*
D381*
X012011Y012486D03*
D382*
X006407Y012500D03*
D383*
X005844Y010051D02*
X005844Y009687D01*
X005662Y009687D01*
X005602Y009748D01*
X005602Y009869D01*
X005662Y009930D01*
X005844Y009930D01*
X006025Y009930D02*
X006146Y009930D01*
X006207Y009869D01*
X006207Y009687D01*
X006025Y009687D01*
X005964Y009748D01*
X006025Y009809D01*
X006207Y009809D01*
X006327Y009930D02*
X006387Y009930D01*
X006448Y009869D01*
X006509Y009930D01*
X006569Y009869D01*
X006569Y009687D01*
X006448Y009687D02*
X006448Y009869D01*
X006327Y009930D02*
X006327Y009687D01*
X007052Y009687D02*
X007052Y010051D01*
X007295Y010051D01*
X007475Y009930D02*
X007596Y009930D01*
X007657Y009869D01*
X007657Y009809D01*
X007414Y009809D01*
X007414Y009869D02*
X007475Y009930D01*
X007414Y009869D02*
X007414Y009748D01*
X007475Y009687D01*
X007596Y009687D01*
X007777Y009687D02*
X007898Y009687D01*
X007838Y009687D02*
X007838Y009930D01*
X007777Y009930D01*
X007838Y010051D02*
X007838Y010112D01*
X008019Y009930D02*
X008201Y009930D01*
X008261Y009869D01*
X008261Y009687D01*
X008381Y009687D02*
X008563Y009687D01*
X008624Y009748D01*
X008563Y009809D01*
X008442Y009809D01*
X008381Y009869D01*
X008442Y009930D01*
X008624Y009930D01*
X008744Y009930D02*
X008865Y009930D01*
X008804Y009991D02*
X008804Y009748D01*
X008865Y009687D01*
X008985Y009748D02*
X008985Y009869D01*
X009046Y009930D01*
X009167Y009930D01*
X009228Y009869D01*
X009228Y009809D01*
X008985Y009809D01*
X008985Y009748D02*
X009046Y009687D01*
X009167Y009687D01*
X009348Y009687D02*
X009469Y009687D01*
X009408Y009687D02*
X009408Y009930D01*
X009348Y009930D01*
X009408Y010051D02*
X009408Y010112D01*
X009589Y009930D02*
X009771Y009930D01*
X009832Y009869D01*
X009832Y009687D01*
X009589Y009687D02*
X009589Y009930D01*
X010314Y009930D02*
X010436Y010051D01*
X010556Y009991D02*
X010556Y009748D01*
X010617Y009687D01*
X010738Y009687D01*
X010799Y009748D01*
X010919Y009687D02*
X011040Y009809D01*
X011040Y009930D01*
X010919Y010051D01*
X010799Y009991D02*
X010738Y010051D01*
X010617Y010051D01*
X010556Y009991D01*
X010314Y009930D02*
X010314Y009809D01*
X010436Y009687D01*
X011523Y009687D02*
X011766Y009930D01*
X011766Y009991D01*
X011705Y010051D01*
X011584Y010051D01*
X011523Y009991D01*
X011523Y009687D02*
X011766Y009687D01*
X011885Y009748D02*
X012128Y009991D01*
X012128Y009748D01*
X012067Y009687D01*
X011946Y009687D01*
X011885Y009748D01*
X011885Y009991D01*
X011946Y010051D01*
X012067Y010051D01*
X012128Y009991D01*
X012248Y009930D02*
X012369Y010051D01*
X012369Y009687D01*
X012248Y009687D02*
X012491Y009687D01*
X012610Y009748D02*
X012671Y009687D01*
X012792Y009687D01*
X012853Y009748D01*
X012853Y009869D01*
X012792Y009930D01*
X012732Y009930D01*
X012610Y009869D01*
X012610Y010051D01*
X012853Y010051D01*
X008019Y009930D02*
X008019Y009687D01*
X007173Y009869D02*
X007052Y009869D01*
X005482Y009869D02*
X005239Y009869D01*
X005239Y009930D02*
X005361Y010051D01*
X005482Y009930D01*
X005482Y009687D01*
X005239Y009687D02*
X005239Y009930D01*
D384*
X005648Y009342D02*
X005801Y009342D01*
X005725Y009342D02*
X005725Y008959D01*
X005648Y008882D01*
X005571Y008882D01*
X005494Y008959D01*
X005955Y009035D02*
X006185Y009035D01*
X006262Y009112D01*
X006262Y009265D01*
X006185Y009342D01*
X005955Y009342D01*
X005955Y008882D01*
X006415Y008882D02*
X006722Y009189D01*
X006722Y009265D01*
X006645Y009342D01*
X006492Y009342D01*
X006415Y009265D01*
X006415Y008882D02*
X006722Y008882D01*
X006075Y012791D02*
X006151Y012867D01*
X006151Y013021D01*
X006228Y012944D01*
X006305Y012944D01*
X006382Y013021D01*
X006382Y013174D01*
X006535Y013174D02*
X006688Y013174D01*
X006535Y012944D02*
X006535Y013404D01*
X006842Y013404D01*
X006151Y013174D02*
X006151Y013021D01*
X005921Y013021D02*
X005844Y012944D01*
X005691Y012944D01*
X005614Y013021D01*
X005921Y013328D01*
X005921Y013021D01*
X005614Y013021D02*
X005614Y013328D01*
X005691Y013404D01*
X005844Y013404D01*
X005921Y013328D01*
X005461Y013328D02*
X005461Y013021D01*
X005384Y012944D01*
X005231Y012944D01*
X005154Y013021D01*
X005461Y013328D01*
X005384Y013404D01*
X005231Y013404D01*
X005154Y013328D01*
X005154Y013021D01*
X005000Y013021D02*
X004924Y012944D01*
X004770Y012944D01*
X004693Y013021D01*
X005000Y013328D01*
X005000Y013021D01*
X004693Y013021D02*
X004693Y013328D01*
X004770Y013404D01*
X004924Y013404D01*
X005000Y013328D01*
X004540Y012944D02*
X004233Y012944D01*
X004386Y012944D02*
X004386Y013404D01*
X004233Y013251D01*
X004162Y014384D02*
X004085Y014461D01*
X004392Y014767D01*
X004392Y014461D01*
X004316Y014384D01*
X004162Y014384D01*
X004085Y014461D02*
X004085Y014767D01*
X004162Y014844D01*
X004316Y014844D01*
X004392Y014767D01*
X004546Y014691D02*
X004699Y014844D01*
X004699Y014384D01*
X004546Y014384D02*
X004853Y014384D01*
X005006Y014614D02*
X005313Y014614D01*
X005160Y014767D02*
X005160Y014461D01*
X003932Y014384D02*
X003625Y014384D01*
X003625Y014844D01*
X003395Y014844D02*
X003165Y014614D01*
X003472Y014614D01*
X003395Y014384D02*
X003395Y014844D01*
X003011Y014767D02*
X002934Y014844D01*
X002781Y014844D01*
X002704Y014767D01*
X002551Y014844D02*
X002244Y014844D01*
X002244Y014384D01*
X002090Y014384D02*
X001937Y014537D01*
X002014Y014537D02*
X001783Y014537D01*
X001783Y014384D02*
X001783Y014844D01*
X002014Y014844D01*
X002090Y014767D01*
X002090Y014614D01*
X002014Y014537D01*
X002244Y014614D02*
X002397Y014614D01*
X002704Y014384D02*
X003011Y014691D01*
X003011Y014767D01*
X003011Y014384D02*
X002704Y014384D01*
X001630Y014384D02*
X001630Y014844D01*
X001323Y014844D02*
X001630Y014384D01*
X001323Y014384D02*
X001323Y014844D01*
X001161Y013360D02*
X001007Y013360D01*
X000931Y013284D01*
X000931Y012977D01*
X001007Y012900D01*
X001161Y012900D01*
X001238Y012977D01*
X001391Y012900D02*
X001698Y012900D01*
X001544Y012900D02*
X001544Y013360D01*
X001391Y013207D01*
X001238Y013284D02*
X001161Y013360D01*
X011656Y009155D02*
X011733Y009079D01*
X011809Y009079D01*
X011886Y009155D01*
X011886Y009539D01*
X011809Y009539D02*
X011963Y009539D01*
X012116Y009539D02*
X012346Y009539D01*
X012423Y009462D01*
X012423Y009309D01*
X012346Y009232D01*
X012116Y009232D01*
X012116Y009079D02*
X012116Y009539D01*
X012577Y009386D02*
X012730Y009539D01*
X012730Y009079D01*
X012577Y009079D02*
X012883Y009079D01*
X014175Y008756D02*
X014406Y008756D01*
X014482Y008679D01*
X014482Y008602D01*
X014406Y008526D01*
X014252Y008526D01*
X014175Y008602D01*
X014175Y008756D01*
X014329Y008909D01*
X014482Y008986D01*
X014943Y008986D02*
X014636Y008526D01*
X015096Y008526D02*
X015096Y008832D01*
X015250Y008986D01*
X015403Y008832D01*
X015403Y008526D01*
X015557Y008526D02*
X015557Y008602D01*
X015864Y008909D01*
X015864Y008986D01*
X015557Y008986D01*
X015403Y008756D02*
X015096Y008756D01*
X014482Y007986D02*
X014482Y007909D01*
X014175Y007602D01*
X014175Y007526D01*
X014252Y006986D02*
X014406Y006986D01*
X014482Y006909D01*
X014482Y006832D01*
X014406Y006756D01*
X014252Y006756D01*
X014175Y006832D01*
X014175Y006909D01*
X014252Y006986D01*
X014252Y006756D02*
X014175Y006679D01*
X014175Y006602D01*
X014252Y006526D01*
X014406Y006526D01*
X014482Y006602D01*
X014482Y006679D01*
X014406Y006756D01*
X014636Y006526D02*
X014943Y006986D01*
X015096Y006832D02*
X015250Y006986D01*
X015403Y006832D01*
X015403Y006526D01*
X015557Y006602D02*
X015557Y006679D01*
X015633Y006756D01*
X015787Y006756D01*
X015864Y006679D01*
X015864Y006602D01*
X015787Y006526D01*
X015633Y006526D01*
X015557Y006602D01*
X015633Y006756D02*
X015557Y006832D01*
X015557Y006909D01*
X015633Y006986D01*
X015787Y006986D01*
X015864Y006909D01*
X015864Y006832D01*
X015787Y006756D01*
X015403Y006756D02*
X015096Y006756D01*
X015096Y006832D02*
X015096Y006526D01*
X014943Y005986D02*
X014636Y005526D01*
X014482Y005602D02*
X014482Y005909D01*
X014406Y005986D01*
X014252Y005986D01*
X014175Y005909D01*
X014175Y005832D01*
X014252Y005756D01*
X014482Y005756D01*
X014482Y005602D02*
X014406Y005526D01*
X014252Y005526D01*
X014175Y005602D01*
X014329Y004986D02*
X014329Y004526D01*
X014482Y004526D02*
X014175Y004526D01*
X014175Y004832D02*
X014329Y004986D01*
X014636Y004909D02*
X014636Y004602D01*
X014943Y004909D01*
X014943Y004602D01*
X014866Y004526D01*
X014713Y004526D01*
X014636Y004602D01*
X014636Y004909D02*
X014713Y004986D01*
X014866Y004986D01*
X014943Y004909D01*
X015096Y004526D02*
X015403Y004986D01*
X015557Y004832D02*
X015710Y004986D01*
X015864Y004832D01*
X015864Y004526D01*
X016017Y004526D02*
X016324Y004526D01*
X016170Y004526D02*
X016170Y004986D01*
X016017Y004832D01*
X015864Y004756D02*
X015557Y004756D01*
X015557Y004832D02*
X015557Y004526D01*
X014789Y003986D02*
X014636Y003832D01*
X014789Y003986D02*
X014789Y003526D01*
X014636Y003526D02*
X014943Y003526D01*
X014482Y003526D02*
X014175Y003526D01*
X014329Y003526D02*
X014329Y003986D01*
X014175Y003832D01*
X014329Y002986D02*
X014329Y002526D01*
X014482Y002526D02*
X014175Y002526D01*
X014175Y002832D02*
X014329Y002986D01*
X014636Y002909D02*
X014713Y002986D01*
X014866Y002986D01*
X014943Y002909D01*
X014943Y002832D01*
X014636Y002526D01*
X014943Y002526D01*
X015096Y002526D02*
X015403Y002986D01*
X015557Y002832D02*
X015710Y002986D01*
X015864Y002832D01*
X015864Y002526D01*
X016017Y002526D02*
X016324Y002526D01*
X016477Y002526D02*
X016784Y002526D01*
X016631Y002526D02*
X016631Y002986D01*
X016477Y002832D01*
X016170Y002986D02*
X016170Y002526D01*
X016017Y002832D02*
X016170Y002986D01*
X015864Y002756D02*
X015557Y002756D01*
X015557Y002832D02*
X015557Y002526D01*
X016554Y004526D02*
X016477Y004602D01*
X016784Y004909D01*
X016784Y004602D01*
X016708Y004526D01*
X016554Y004526D01*
X016477Y004602D02*
X016477Y004909D01*
X016554Y004986D01*
X016708Y004986D01*
X016784Y004909D01*
X017334Y004832D02*
X017334Y004526D01*
X017334Y004756D02*
X017641Y004756D01*
X017641Y004832D02*
X017641Y004526D01*
X017794Y004526D02*
X017794Y004986D01*
X018024Y004986D01*
X018101Y004909D01*
X018101Y004756D01*
X018024Y004679D01*
X017794Y004679D01*
X017948Y004679D02*
X018101Y004526D01*
X018255Y004526D02*
X018562Y004526D01*
X018715Y004526D02*
X018715Y004986D01*
X019022Y004986D01*
X018869Y004756D02*
X018715Y004756D01*
X018562Y004986D02*
X018255Y004986D01*
X018255Y004526D01*
X018255Y004756D02*
X018408Y004756D01*
X017641Y004832D02*
X017487Y004986D01*
X017334Y004832D01*
X017641Y003986D02*
X017794Y003986D01*
X017871Y003909D01*
X017871Y003832D01*
X017794Y003756D01*
X017871Y003679D01*
X017871Y003602D01*
X017794Y003526D01*
X017641Y003526D01*
X017564Y003602D01*
X017718Y003756D02*
X017794Y003756D01*
X017564Y003909D02*
X017641Y003986D01*
X018024Y003602D02*
X018101Y003602D01*
X018101Y003526D01*
X018024Y003526D01*
X018024Y003602D01*
X018255Y003602D02*
X018331Y003526D01*
X018485Y003526D01*
X018562Y003602D01*
X018562Y003679D01*
X018485Y003756D01*
X018408Y003756D01*
X018485Y003756D02*
X018562Y003832D01*
X018562Y003909D01*
X018485Y003986D01*
X018331Y003986D01*
X018255Y003909D01*
X018715Y003986D02*
X018715Y003679D01*
X018869Y003526D01*
X019022Y003679D01*
X019022Y003986D01*
X018945Y002986D02*
X018792Y002986D01*
X018715Y002909D01*
X018869Y002756D02*
X018945Y002756D01*
X019022Y002679D01*
X019022Y002602D01*
X018945Y002526D01*
X018792Y002526D01*
X018715Y002602D01*
X018562Y002526D02*
X018255Y002526D01*
X018408Y002526D02*
X018408Y002986D01*
X018255Y002832D01*
X018945Y002756D02*
X019022Y002832D01*
X019022Y002909D01*
X018945Y002986D01*
X018945Y005526D02*
X018792Y005526D01*
X018715Y005602D01*
X019022Y005909D01*
X019022Y005602D01*
X018945Y005526D01*
X019022Y005909D02*
X018945Y005986D01*
X018792Y005986D01*
X018715Y005909D01*
X018715Y005602D01*
X018562Y005526D02*
X018562Y005832D01*
X018408Y005986D01*
X018255Y005832D01*
X018255Y005526D01*
X018255Y005756D02*
X018562Y005756D01*
X018562Y006526D02*
X018562Y006832D01*
X018408Y006986D01*
X018255Y006832D01*
X018255Y006526D01*
X018255Y006756D02*
X018562Y006756D01*
X018715Y006832D02*
X018869Y006986D01*
X018869Y006526D01*
X019022Y006526D02*
X018715Y006526D01*
X018715Y007526D02*
X019022Y007832D01*
X019022Y007909D01*
X018945Y007986D01*
X018792Y007986D01*
X018715Y007909D01*
X018562Y007832D02*
X018562Y007526D01*
X018715Y007526D02*
X019022Y007526D01*
X018562Y007756D02*
X018255Y007756D01*
X018255Y007832D02*
X018408Y007986D01*
X018562Y007832D01*
X018255Y007832D02*
X018255Y007526D01*
X018255Y008526D02*
X018255Y008832D01*
X018408Y008986D01*
X018562Y008832D01*
X018562Y008526D01*
X018715Y008602D02*
X018792Y008526D01*
X018945Y008526D01*
X019022Y008602D01*
X019022Y008679D01*
X018945Y008756D01*
X018869Y008756D01*
X018945Y008756D02*
X019022Y008832D01*
X019022Y008909D01*
X018945Y008986D01*
X018792Y008986D01*
X018715Y008909D01*
X018562Y008756D02*
X018255Y008756D01*
X018255Y009526D02*
X018255Y009832D01*
X018408Y009986D01*
X018562Y009832D01*
X018562Y009526D01*
X018562Y009756D02*
X018255Y009756D01*
X018715Y009756D02*
X019022Y009756D01*
X018945Y009526D02*
X018945Y009986D01*
X018715Y009756D01*
X018792Y010526D02*
X018715Y010602D01*
X018792Y010526D02*
X018945Y010526D01*
X019022Y010602D01*
X019022Y010756D01*
X018945Y010832D01*
X018869Y010832D01*
X018715Y010756D01*
X018715Y010986D01*
X019022Y010986D01*
X018562Y010832D02*
X018562Y010526D01*
X018562Y010756D02*
X018255Y010756D01*
X018255Y010832D02*
X018255Y010526D01*
X018255Y010832D02*
X018408Y010986D01*
X018562Y010832D01*
X016324Y011526D02*
X016017Y011526D01*
X016017Y011986D01*
X015864Y011909D02*
X015787Y011986D01*
X015633Y011986D01*
X015557Y011909D01*
X015557Y011602D01*
X015633Y011526D01*
X015787Y011526D01*
X015864Y011602D01*
X015403Y011602D02*
X015326Y011526D01*
X015173Y011526D01*
X015096Y011602D01*
X015173Y011756D02*
X015326Y011756D01*
X015403Y011679D01*
X015403Y011602D01*
X015173Y011756D02*
X015096Y011832D01*
X015096Y011909D01*
X015173Y011986D01*
X015326Y011986D01*
X015403Y011909D01*
X014943Y011986D02*
X014636Y011526D01*
X014482Y011602D02*
X014482Y011679D01*
X014406Y011756D01*
X014329Y011756D01*
X014406Y011756D02*
X014482Y011832D01*
X014482Y011909D01*
X014406Y011986D01*
X014252Y011986D01*
X014175Y011909D01*
X014175Y011602D02*
X014252Y011526D01*
X014406Y011526D01*
X014482Y011602D01*
X014406Y010986D02*
X014175Y010756D01*
X014482Y010756D01*
X014406Y010526D02*
X014406Y010986D01*
X014636Y010526D02*
X014943Y010986D01*
X015096Y010832D02*
X015250Y010986D01*
X015403Y010832D01*
X015403Y010526D01*
X015557Y010602D02*
X015633Y010526D01*
X015787Y010526D01*
X015864Y010602D01*
X015864Y010679D01*
X015787Y010756D01*
X015557Y010756D01*
X015557Y010602D01*
X015557Y010756D02*
X015710Y010909D01*
X015864Y010986D01*
X015403Y010756D02*
X015096Y010756D01*
X015096Y010832D02*
X015096Y010526D01*
X014482Y009986D02*
X014175Y009986D01*
X014175Y009756D01*
X014329Y009832D01*
X014406Y009832D01*
X014482Y009756D01*
X014482Y009602D01*
X014406Y009526D01*
X014252Y009526D01*
X014175Y009602D01*
X014175Y007986D02*
X014482Y007986D01*
X015250Y005986D02*
X015403Y005832D01*
X015403Y005526D01*
X015557Y005602D02*
X015633Y005526D01*
X015787Y005526D01*
X015864Y005602D01*
X015864Y005909D01*
X015787Y005986D01*
X015633Y005986D01*
X015557Y005909D01*
X015557Y005832D01*
X015633Y005756D01*
X015864Y005756D01*
X015403Y005756D02*
X015096Y005756D01*
X015096Y005832D02*
X015250Y005986D01*
X015096Y005832D02*
X015096Y005526D01*
X015173Y012526D02*
X015096Y012602D01*
X015173Y012526D02*
X015326Y012526D01*
X015403Y012602D01*
X015403Y012679D01*
X015326Y012756D01*
X015173Y012756D01*
X015096Y012832D01*
X015096Y012909D01*
X015173Y012986D01*
X015326Y012986D01*
X015403Y012909D01*
X015557Y012986D02*
X015787Y012986D01*
X015864Y012909D01*
X015864Y012602D01*
X015787Y012526D01*
X015557Y012526D01*
X015557Y012986D01*
X016017Y012832D02*
X016017Y012526D01*
X016017Y012756D02*
X016324Y012756D01*
X016324Y012832D02*
X016324Y012526D01*
X016324Y012832D02*
X016170Y012986D01*
X016017Y012832D01*
X015326Y013526D02*
X015096Y013526D01*
X015096Y013986D01*
X015326Y013986D01*
X015403Y013909D01*
X015403Y013602D01*
X015326Y013526D01*
X014943Y013526D02*
X014943Y013986D01*
X014636Y013986D02*
X014943Y013526D01*
X014636Y013526D02*
X014636Y013986D01*
X014482Y013909D02*
X014406Y013986D01*
X014252Y013986D01*
X014175Y013909D01*
X014175Y013602D01*
X014252Y013526D01*
X014406Y013526D01*
X014482Y013602D01*
X014482Y013756D01*
X014329Y013756D01*
X014406Y012986D02*
X014252Y012986D01*
X014175Y012909D01*
X014406Y012986D02*
X014482Y012909D01*
X014482Y012832D01*
X014175Y012526D01*
X014482Y012526D01*
X014636Y012526D02*
X014943Y012986D01*
X014943Y014526D02*
X014636Y014526D01*
X014636Y014986D01*
X014943Y014986D01*
X015096Y014909D02*
X015096Y014832D01*
X015173Y014756D01*
X015326Y014756D01*
X015403Y014679D01*
X015403Y014602D01*
X015326Y014526D01*
X015173Y014526D01*
X015096Y014602D01*
X015096Y014909D02*
X015173Y014986D01*
X015326Y014986D01*
X015403Y014909D01*
X015557Y014986D02*
X015557Y014526D01*
X015864Y014526D01*
X015710Y014756D02*
X015557Y014756D01*
X015557Y014986D02*
X015864Y014986D01*
X016017Y014986D02*
X016324Y014986D01*
X016170Y014986D02*
X016170Y014526D01*
X016873Y014526D02*
X016873Y014986D01*
X017104Y014986D01*
X017180Y014909D01*
X017180Y014756D01*
X017104Y014679D01*
X016873Y014679D01*
X017027Y014679D02*
X017180Y014526D01*
X017334Y014526D02*
X017641Y014526D01*
X017794Y014602D02*
X017871Y014526D01*
X018024Y014526D01*
X018101Y014602D01*
X018101Y014679D01*
X018024Y014756D01*
X017871Y014756D01*
X017794Y014832D01*
X017794Y014909D01*
X017871Y014986D01*
X018024Y014986D01*
X018101Y014909D01*
X018255Y014986D02*
X018255Y014526D01*
X018562Y014526D01*
X018408Y014756D02*
X018255Y014756D01*
X018255Y014986D02*
X018562Y014986D01*
X018715Y014986D02*
X019022Y014986D01*
X018869Y014986D02*
X018869Y014526D01*
X019022Y013986D02*
X019022Y013679D01*
X018869Y013526D01*
X018715Y013679D01*
X018715Y013986D01*
X018562Y013986D02*
X018255Y013986D01*
X018255Y013756D01*
X018408Y013832D01*
X018485Y013832D01*
X018562Y013756D01*
X018562Y013602D01*
X018485Y013526D01*
X018331Y013526D01*
X018255Y013602D01*
X018101Y013756D02*
X017794Y013756D01*
X017948Y013909D02*
X017948Y013602D01*
X017334Y014526D02*
X017334Y014986D01*
X017641Y014986D01*
X017487Y014756D02*
X017334Y014756D01*
X017871Y015526D02*
X018024Y015526D01*
X018101Y015602D01*
X018101Y015756D01*
X017948Y015756D01*
X018101Y015909D02*
X018024Y015986D01*
X017871Y015986D01*
X017794Y015909D01*
X017794Y015602D01*
X017871Y015526D01*
X018255Y015526D02*
X018255Y015986D01*
X018562Y015526D01*
X018562Y015986D01*
X018715Y015986D02*
X018945Y015986D01*
X019022Y015909D01*
X019022Y015602D01*
X018945Y015526D01*
X018715Y015526D01*
X018715Y015986D01*
X018715Y016526D02*
X018715Y016986D01*
X019022Y016526D01*
X019022Y016986D01*
X018562Y016986D02*
X018408Y016986D01*
X018485Y016986D02*
X018485Y016526D01*
X018408Y016526D02*
X018562Y016526D01*
X018255Y016679D02*
X018255Y016986D01*
X017948Y016986D02*
X017948Y016679D01*
X018101Y016526D01*
X018255Y016679D01*
X018331Y017526D02*
X018255Y017602D01*
X018331Y017526D02*
X018485Y017526D01*
X018562Y017602D01*
X018562Y017679D01*
X018485Y017756D01*
X018331Y017756D01*
X018255Y017832D01*
X018255Y017909D01*
X018331Y017986D01*
X018485Y017986D01*
X018562Y017909D01*
X018715Y017909D02*
X018715Y017602D01*
X018792Y017526D01*
X018945Y017526D01*
X019022Y017602D01*
X019022Y017909D01*
X018945Y017986D01*
X018792Y017986D01*
X018715Y017909D01*
X018715Y018526D02*
X018715Y018986D01*
X018562Y018909D02*
X018485Y018986D01*
X018331Y018986D01*
X018255Y018909D01*
X018255Y018602D01*
X018331Y018526D01*
X018485Y018526D01*
X018562Y018602D01*
X018715Y018679D02*
X019022Y018986D01*
X018792Y018756D02*
X019022Y018526D01*
X018101Y018602D02*
X018024Y018526D01*
X017871Y018526D01*
X017794Y018602D01*
X017871Y018756D02*
X018024Y018756D01*
X018101Y018679D01*
X018101Y018602D01*
X017871Y018756D02*
X017794Y018832D01*
X017794Y018909D01*
X017871Y018986D01*
X018024Y018986D01*
X018101Y018909D01*
X018101Y017986D02*
X017948Y017986D01*
X018024Y017986D02*
X018024Y017526D01*
X017948Y017526D02*
X018101Y017526D01*
X017794Y017526D02*
X017794Y017986D01*
X017641Y017832D01*
X017487Y017986D01*
X017487Y017526D01*
X015864Y016986D02*
X015557Y016526D01*
X015250Y016526D02*
X015250Y016986D01*
X015403Y016986D02*
X015096Y016986D01*
X014943Y016986D02*
X014636Y016526D01*
X014482Y016526D02*
X014175Y016526D01*
X014329Y016526D02*
X014329Y016986D01*
X014175Y016832D01*
X014252Y017526D02*
X014175Y017602D01*
X014252Y017526D02*
X014406Y017526D01*
X014482Y017602D01*
X014482Y017679D01*
X014406Y017756D01*
X014252Y017756D01*
X014175Y017832D01*
X014175Y017909D01*
X014252Y017986D01*
X014406Y017986D01*
X014482Y017909D01*
X014636Y017909D02*
X014713Y017986D01*
X014866Y017986D01*
X014943Y017909D01*
X014866Y017756D02*
X014943Y017679D01*
X014943Y017602D01*
X014866Y017526D01*
X014713Y017526D01*
X014636Y017602D01*
X014713Y017756D02*
X014866Y017756D01*
X014713Y017756D02*
X014636Y017832D01*
X014636Y017909D01*
X014713Y018526D02*
X014866Y018526D01*
X014943Y018602D01*
X014943Y018909D01*
X014866Y018986D01*
X014713Y018986D01*
X014636Y018909D01*
X014636Y018602D01*
X014713Y018526D01*
X014482Y018526D02*
X014482Y018986D01*
X014329Y018832D01*
X014175Y018986D01*
X014175Y018526D01*
X015096Y018602D02*
X015173Y018526D01*
X015326Y018526D01*
X015403Y018602D01*
X015403Y018679D01*
X015326Y018756D01*
X015173Y018756D01*
X015096Y018832D01*
X015096Y018909D01*
X015173Y018986D01*
X015326Y018986D01*
X015403Y018909D01*
X015557Y018986D02*
X015710Y018986D01*
X015633Y018986D02*
X015633Y018526D01*
X015557Y018526D02*
X015710Y018526D01*
X015557Y016986D02*
X015864Y016526D01*
X015864Y015986D02*
X015557Y015526D01*
X015403Y015526D02*
X015250Y015679D01*
X015326Y015679D02*
X015096Y015679D01*
X015096Y015526D02*
X015096Y015986D01*
X015326Y015986D01*
X015403Y015909D01*
X015403Y015756D01*
X015326Y015679D01*
X015557Y015986D02*
X015864Y015526D01*
X014943Y015986D02*
X014636Y015526D01*
X014482Y015602D02*
X014406Y015526D01*
X014252Y015526D01*
X014175Y015602D01*
X014482Y015909D01*
X014482Y015602D01*
X014175Y015602D02*
X014175Y015909D01*
X014252Y015986D01*
X014406Y015986D01*
X014482Y015909D01*
X014406Y014986D02*
X014175Y014986D01*
X014175Y014526D01*
X014175Y014679D02*
X014406Y014679D01*
X014482Y014756D01*
X014482Y014909D01*
X014406Y014986D01*
X014329Y014679D02*
X014482Y014526D01*
X014636Y014756D02*
X014789Y014756D01*
X012983Y013924D02*
X012983Y013464D01*
X012830Y013464D02*
X013137Y013464D01*
X012830Y013771D02*
X012983Y013924D01*
X012676Y013924D02*
X012676Y013541D01*
X012600Y013464D01*
X012446Y013464D01*
X012369Y013541D01*
X012369Y013924D01*
D385*
X012053Y014114D02*
X011053Y014114D01*
X011053Y014364D01*
X010803Y014114D01*
X010303Y014114D01*
X010053Y014364D01*
X010053Y014864D01*
X010303Y015114D01*
X010053Y015364D01*
X010053Y015864D01*
X010303Y016114D01*
X010053Y016364D01*
X010053Y016864D01*
X010303Y017114D01*
X010053Y017364D01*
X010053Y017864D01*
X010303Y018114D01*
X010803Y018114D01*
X011053Y017864D01*
X011053Y017364D01*
X010803Y017114D01*
X011053Y016864D01*
X011053Y016364D01*
X010803Y016114D01*
X010303Y016114D01*
X010803Y016114D02*
X011053Y015864D01*
X011053Y015364D01*
X010803Y015114D01*
X011053Y014864D01*
X011053Y014364D01*
X011053Y014864D02*
X011053Y015114D01*
X011303Y015114D01*
X011053Y015364D01*
X010803Y015114D02*
X010303Y015114D01*
X011053Y015864D02*
X011303Y016114D01*
X011053Y016364D01*
X011303Y016114D02*
X011803Y016114D01*
X012053Y016364D01*
X012053Y016864D01*
X011803Y017114D01*
X011303Y017114D01*
X011053Y016864D01*
X010803Y017114D02*
X010303Y017114D01*
X011053Y017364D02*
X011303Y017114D01*
X011803Y017114D02*
X012053Y017364D01*
X012053Y017864D01*
X011803Y018114D01*
X011303Y018114D01*
X011053Y017864D01*
X011803Y016114D02*
X012053Y015864D01*
X012053Y015364D01*
X011803Y015114D01*
X012053Y015114D01*
X012053Y014114D01*
X011803Y015114D02*
X011303Y015114D01*
D386*
X011553Y015614D03*
X011553Y016614D03*
X011553Y017614D03*
X010553Y017614D03*
X010553Y016614D03*
X010553Y015614D03*
X010553Y014614D03*
X011553Y014614D03*
D387*
X012303Y013864D02*
X000803Y013864D01*
X000803Y019864D01*
X012303Y019864D01*
X012303Y013864D01*
X010820Y013544D02*
X010745Y013619D01*
X010595Y013619D01*
X010520Y013544D01*
X010360Y013619D02*
X010360Y013244D01*
X010285Y013169D01*
X010134Y013169D01*
X010059Y013244D01*
X010059Y013619D01*
X010520Y013169D02*
X010820Y013469D01*
X010820Y013544D01*
X010820Y013169D02*
X010520Y013169D01*
X005553Y016864D02*
X005555Y016895D01*
X005561Y016926D01*
X005571Y016956D01*
X005584Y016984D01*
X005601Y017011D01*
X005621Y017035D01*
X005644Y017057D01*
X005669Y017075D01*
X005697Y017090D01*
X005726Y017102D01*
X005756Y017110D01*
X005787Y017114D01*
X005819Y017114D01*
X005850Y017110D01*
X005880Y017102D01*
X005909Y017090D01*
X005937Y017075D01*
X005962Y017057D01*
X005985Y017035D01*
X006005Y017011D01*
X006022Y016984D01*
X006035Y016956D01*
X006045Y016926D01*
X006051Y016895D01*
X006053Y016864D01*
X006051Y016833D01*
X006045Y016802D01*
X006035Y016772D01*
X006022Y016744D01*
X006005Y016717D01*
X005985Y016693D01*
X005962Y016671D01*
X005937Y016653D01*
X005909Y016638D01*
X005880Y016626D01*
X005850Y016618D01*
X005819Y016614D01*
X005787Y016614D01*
X005756Y016618D01*
X005726Y016626D01*
X005697Y016638D01*
X005669Y016653D01*
X005644Y016671D01*
X005621Y016693D01*
X005601Y016717D01*
X005584Y016744D01*
X005571Y016772D01*
X005561Y016802D01*
X005555Y016833D01*
X005553Y016864D01*
X005053Y017864D02*
X004996Y017833D01*
X004940Y017799D01*
X004887Y017762D01*
X004836Y017721D01*
X004787Y017678D01*
X004741Y017632D01*
X004697Y017584D01*
X004657Y017533D01*
X004619Y017479D01*
X004585Y017424D01*
X004554Y017367D01*
X004527Y017307D01*
X004503Y017247D01*
X004482Y017185D01*
X004465Y017122D01*
X004452Y017058D01*
X004443Y016994D01*
X004437Y016929D01*
X004435Y016864D01*
X004437Y016799D01*
X004443Y016734D01*
X004452Y016670D01*
X004465Y016606D01*
X004482Y016543D01*
X004503Y016481D01*
X004527Y016421D01*
X004554Y016361D01*
X004585Y016304D01*
X004619Y016249D01*
X004657Y016195D01*
X004697Y016144D01*
X004741Y016096D01*
X004787Y016050D01*
X004836Y016007D01*
X004887Y015966D01*
X004940Y015929D01*
X004996Y015895D01*
X005053Y015864D01*
X004053Y015364D02*
X003303Y015364D01*
X003303Y018364D01*
X002803Y018364D02*
X002803Y017864D01*
X001303Y017864D01*
X001303Y017364D01*
X002803Y017364D01*
X002803Y016864D01*
X001303Y016864D01*
X001303Y016364D01*
X002803Y016364D01*
X002803Y015864D01*
X001303Y015864D01*
X001303Y015364D01*
X003303Y015364D01*
X005303Y016114D02*
X005253Y016140D01*
X005206Y016171D01*
X005160Y016204D01*
X005117Y016240D01*
X005077Y016279D01*
X005039Y016321D01*
X005004Y016365D01*
X004972Y016411D01*
X004943Y016459D01*
X004918Y016510D01*
X004895Y016561D01*
X004877Y016614D01*
X004862Y016669D01*
X004851Y016724D01*
X004843Y016780D01*
X004839Y016836D01*
X004839Y016892D01*
X004843Y016948D01*
X004851Y017004D01*
X004862Y017059D01*
X004877Y017114D01*
X004895Y017167D01*
X004918Y017218D01*
X004943Y017269D01*
X004972Y017317D01*
X005004Y017363D01*
X005039Y017407D01*
X005077Y017449D01*
X005117Y017488D01*
X005160Y017524D01*
X005206Y017557D01*
X005253Y017588D01*
X005303Y017614D01*
X005553Y017364D02*
X005511Y017349D01*
X005470Y017331D01*
X005431Y017309D01*
X005395Y017284D01*
X005360Y017257D01*
X005328Y017226D01*
X005298Y017193D01*
X005272Y017157D01*
X005249Y017119D01*
X005229Y017080D01*
X005212Y017038D01*
X005199Y016996D01*
X005190Y016952D01*
X005184Y016908D01*
X005182Y016864D01*
X005184Y016820D01*
X005190Y016776D01*
X005199Y016732D01*
X005212Y016690D01*
X005229Y016648D01*
X005249Y016609D01*
X005272Y016571D01*
X005298Y016535D01*
X005328Y016502D01*
X005360Y016471D01*
X005395Y016444D01*
X005431Y016419D01*
X005470Y016397D01*
X005511Y016379D01*
X005553Y016364D01*
X006805Y018364D02*
X008803Y018364D01*
X008847Y018366D01*
X008890Y018372D01*
X008932Y018381D01*
X008974Y018394D01*
X009014Y018411D01*
X009053Y018431D01*
X009090Y018454D01*
X009124Y018481D01*
X009157Y018510D01*
X009186Y018543D01*
X009213Y018577D01*
X009236Y018614D01*
X009256Y018653D01*
X009273Y018693D01*
X009286Y018735D01*
X009295Y018777D01*
X009301Y018820D01*
X009303Y018864D01*
X009301Y018908D01*
X009295Y018951D01*
X009286Y018993D01*
X009273Y019035D01*
X009256Y019075D01*
X009236Y019114D01*
X009213Y019151D01*
X009186Y019185D01*
X009157Y019218D01*
X009124Y019247D01*
X009090Y019274D01*
X009053Y019297D01*
X009014Y019317D01*
X008974Y019334D01*
X008932Y019347D01*
X008890Y019356D01*
X008847Y019362D01*
X008803Y019364D01*
X006801Y019364D01*
X006758Y019362D01*
X006715Y019356D01*
X006672Y019347D01*
X006631Y019334D01*
X006591Y019317D01*
X006552Y019297D01*
X006515Y019274D01*
X006481Y019247D01*
X006449Y019218D01*
X006420Y019186D01*
X006393Y019152D01*
X006370Y019115D01*
X006350Y019076D01*
X006333Y019036D01*
X006320Y018995D01*
X006311Y018952D01*
X006305Y018909D01*
X006303Y018866D01*
X006305Y018822D01*
X006311Y018779D01*
X006320Y018736D01*
X006333Y018694D01*
X006350Y018654D01*
X006370Y018615D01*
X006394Y018578D01*
X006420Y018543D01*
X006450Y018511D01*
X006482Y018481D01*
X006517Y018455D01*
X006554Y018431D01*
X006593Y018411D01*
X006633Y018394D01*
X006675Y018381D01*
X006718Y018372D01*
X006761Y018366D01*
X006805Y018364D01*
X002803Y018364D02*
X001303Y018364D01*
X001303Y019364D01*
X003058Y012445D02*
X003337Y012167D01*
X003337Y012445D02*
X003058Y012167D01*
X002850Y011680D02*
X003406Y011123D01*
X003267Y010984D01*
X002710Y011541D01*
X002850Y011680D01*
X003131Y011405D02*
X003361Y011634D01*
X000950Y011193D02*
X000952Y011281D01*
X000958Y011369D01*
X000968Y011457D01*
X000982Y011545D01*
X000999Y011631D01*
X001021Y011717D01*
X001046Y011801D01*
X001076Y011885D01*
X001108Y011967D01*
X001145Y012047D01*
X001185Y012126D01*
X001229Y012203D01*
X001276Y012278D01*
X001326Y012350D01*
X001380Y012421D01*
X001436Y012488D01*
X001496Y012554D01*
X001558Y012616D01*
X001624Y012676D01*
X001691Y012732D01*
X001762Y012786D01*
X001834Y012836D01*
X001909Y012883D01*
X001986Y012927D01*
X002065Y012967D01*
X002145Y013004D01*
X002227Y013036D01*
X002311Y013066D01*
X002395Y013091D01*
X002481Y013113D01*
X002567Y013130D01*
X002655Y013144D01*
X002743Y013154D01*
X002831Y013160D01*
X002919Y013162D01*
X003007Y013160D01*
X003095Y013154D01*
X003183Y013144D01*
X003271Y013130D01*
X003357Y013113D01*
X003443Y013091D01*
X003527Y013066D01*
X003611Y013036D01*
X003693Y013004D01*
X003773Y012967D01*
X003852Y012927D01*
X003929Y012883D01*
X004004Y012836D01*
X004076Y012786D01*
X004147Y012732D01*
X004214Y012676D01*
X004280Y012616D01*
X004342Y012554D01*
X004402Y012488D01*
X004458Y012421D01*
X004512Y012350D01*
X004562Y012278D01*
X004609Y012203D01*
X004653Y012126D01*
X004693Y012047D01*
X004730Y011967D01*
X004762Y011885D01*
X004792Y011801D01*
X004817Y011717D01*
X004839Y011631D01*
X004856Y011545D01*
X004870Y011457D01*
X004880Y011369D01*
X004886Y011281D01*
X004888Y011193D01*
X004886Y011105D01*
X004880Y011017D01*
X004870Y010929D01*
X004856Y010841D01*
X004839Y010755D01*
X004817Y010669D01*
X004792Y010585D01*
X004762Y010501D01*
X004730Y010419D01*
X004693Y010339D01*
X004653Y010260D01*
X004609Y010183D01*
X004562Y010108D01*
X004512Y010036D01*
X004458Y009965D01*
X004402Y009898D01*
X004342Y009832D01*
X004280Y009770D01*
X004214Y009710D01*
X004147Y009654D01*
X004076Y009600D01*
X004004Y009550D01*
X003929Y009503D01*
X003852Y009459D01*
X003773Y009419D01*
X003693Y009382D01*
X003611Y009350D01*
X003527Y009320D01*
X003443Y009295D01*
X003357Y009273D01*
X003271Y009256D01*
X003183Y009242D01*
X003095Y009232D01*
X003007Y009226D01*
X002919Y009224D01*
X002831Y009226D01*
X002743Y009232D01*
X002655Y009242D01*
X002567Y009256D01*
X002481Y009273D01*
X002395Y009295D01*
X002311Y009320D01*
X002227Y009350D01*
X002145Y009382D01*
X002065Y009419D01*
X001986Y009459D01*
X001909Y009503D01*
X001834Y009550D01*
X001762Y009600D01*
X001691Y009654D01*
X001624Y009710D01*
X001558Y009770D01*
X001496Y009832D01*
X001436Y009898D01*
X001380Y009965D01*
X001326Y010036D01*
X001276Y010108D01*
X001229Y010183D01*
X001185Y010260D01*
X001145Y010339D01*
X001108Y010419D01*
X001076Y010501D01*
X001046Y010585D01*
X001021Y010669D01*
X000999Y010755D01*
X000982Y010841D01*
X000968Y010929D01*
X000958Y011017D01*
X000952Y011105D01*
X000950Y011193D01*
X001666Y010775D02*
X001945Y011053D01*
X002432Y011262D02*
X002989Y010705D01*
X003128Y010845D01*
X002571Y011401D01*
X002432Y011262D01*
X002742Y011016D02*
X002477Y010751D01*
D388*
X007734Y014667D02*
X007828Y014574D01*
X007921Y014667D01*
X007921Y014854D01*
X008011Y014807D02*
X008011Y014620D01*
X008057Y014574D01*
X008151Y014574D01*
X008197Y014620D01*
X008287Y014620D02*
X008287Y014807D01*
X008334Y014854D01*
X008427Y014854D01*
X008474Y014807D01*
X008474Y014620D02*
X008427Y014574D01*
X008334Y014574D01*
X008287Y014620D01*
X008197Y014807D02*
X008151Y014854D01*
X008057Y014854D01*
X008011Y014807D01*
X007734Y014854D02*
X007734Y014667D01*
X007781Y015574D02*
X007875Y015574D01*
X007921Y015620D01*
X008011Y015620D02*
X008057Y015574D01*
X008151Y015574D01*
X008197Y015620D01*
X008197Y015667D01*
X008151Y015714D01*
X008057Y015714D01*
X008011Y015761D01*
X008011Y015807D01*
X008057Y015854D01*
X008151Y015854D01*
X008197Y015807D01*
X008287Y015854D02*
X008287Y015574D01*
X008474Y015574D02*
X008287Y015854D01*
X008474Y015854D02*
X008474Y015574D01*
X007921Y015807D02*
X007875Y015854D01*
X007781Y015854D01*
X007734Y015807D01*
X007734Y015620D01*
X007781Y015574D01*
X007737Y016574D02*
X007737Y016854D01*
X007644Y016761D01*
X007550Y016854D01*
X007550Y016574D01*
X007826Y016620D02*
X007873Y016574D01*
X007967Y016574D01*
X008013Y016620D01*
X008013Y016807D01*
X007967Y016854D01*
X007873Y016854D01*
X007826Y016807D01*
X007826Y016620D01*
X008103Y016620D02*
X008149Y016574D01*
X008243Y016574D01*
X008290Y016620D01*
X008290Y016667D01*
X008243Y016714D01*
X008149Y016714D01*
X008103Y016761D01*
X008103Y016807D01*
X008149Y016854D01*
X008243Y016854D01*
X008290Y016807D01*
X008379Y016854D02*
X008472Y016854D01*
X008426Y016854D02*
X008426Y016574D01*
X008472Y016574D02*
X008379Y016574D01*
X008984Y016620D02*
X009031Y016574D01*
X009125Y016574D01*
X009171Y016620D01*
X009171Y016667D01*
X009125Y016714D01*
X009031Y016714D01*
X008984Y016761D01*
X008984Y016807D01*
X009031Y016854D01*
X009125Y016854D01*
X009171Y016807D01*
X009261Y016807D02*
X009261Y016620D01*
X009307Y016574D01*
X009401Y016574D01*
X009447Y016620D01*
X009537Y016574D02*
X009537Y016854D01*
X009447Y016807D02*
X009401Y016854D01*
X009307Y016854D01*
X009261Y016807D01*
X009537Y016667D02*
X009724Y016854D01*
X009584Y016714D02*
X009724Y016574D01*
X009724Y015854D02*
X009537Y015854D01*
X009537Y015574D01*
X009724Y015574D01*
X009630Y015714D02*
X009537Y015714D01*
X009447Y015807D02*
X009401Y015854D01*
X009307Y015854D01*
X009261Y015807D01*
X009261Y015620D01*
X009307Y015574D01*
X009401Y015574D01*
X009447Y015620D01*
X009447Y014854D02*
X009447Y014574D01*
X009261Y014854D01*
X009261Y014574D01*
X009171Y014620D02*
X009171Y014714D01*
X009078Y014714D01*
X009171Y014807D02*
X009125Y014854D01*
X009031Y014854D01*
X008984Y014807D01*
X008984Y014620D01*
X009031Y014574D01*
X009125Y014574D01*
X009171Y014620D01*
X009537Y014574D02*
X009677Y014574D01*
X009724Y014620D01*
X009724Y014807D01*
X009677Y014854D01*
X009537Y014854D01*
X009537Y014574D01*
X009584Y017574D02*
X009677Y017574D01*
X009724Y017620D01*
X009724Y017807D01*
X009677Y017854D01*
X009584Y017854D01*
X009537Y017807D01*
X009537Y017620D01*
X009584Y017574D01*
X009447Y017620D02*
X009401Y017574D01*
X009307Y017574D01*
X009261Y017620D01*
X009170Y017574D02*
X009076Y017574D01*
X009123Y017574D02*
X009123Y017854D01*
X009076Y017854D02*
X009170Y017854D01*
X009261Y017807D02*
X009261Y017761D01*
X009307Y017714D01*
X009401Y017714D01*
X009447Y017667D01*
X009447Y017620D01*
X009447Y017807D02*
X009401Y017854D01*
X009307Y017854D01*
X009261Y017807D01*
X008987Y017854D02*
X008987Y017574D01*
X008800Y017574D02*
X008800Y017854D01*
X008894Y017761D01*
X008987Y017854D01*
X008474Y017807D02*
X008474Y017620D01*
X008427Y017574D01*
X008334Y017574D01*
X008287Y017620D01*
X008287Y017807D01*
X008334Y017854D01*
X008427Y017854D01*
X008474Y017807D01*
X008380Y017667D02*
X008474Y017574D01*
X008197Y017574D02*
X008104Y017667D01*
X008151Y017667D02*
X008011Y017667D01*
X008011Y017574D02*
X008011Y017854D01*
X008151Y017854D01*
X008197Y017807D01*
X008197Y017714D01*
X008151Y017667D01*
X007920Y017574D02*
X007826Y017574D01*
X007873Y017574D02*
X007873Y017854D01*
X007826Y017854D02*
X007920Y017854D01*
D389*
G36*
X003127Y010845D02*
X002988Y010706D01*
X002433Y011261D01*
X002572Y011400D01*
X003127Y010845D01*
G37*
M02*
