G75*
%MOIN*%
%OFA0B0*%
%FSLAX24Y24*%
%IPPOS*%
%LPD*%
%AMOC8*
5,1,8,0,0,1.08239X$1,22.5*
%
%ADD10C,0.1300*%
%ADD11R,0.0434X0.0473*%
%ADD12R,0.0631X0.0394*%
%ADD13C,0.0780*%
%ADD14R,0.0355X0.0512*%
D10*
X002865Y002856D03*
X005621Y002856D03*
X088298Y002856D03*
X091054Y002856D03*
X091054Y091045D03*
X088298Y091045D03*
X005621Y091045D03*
X002865Y091045D03*
D11*
X008376Y088624D03*
X008376Y087954D03*
X008376Y083112D03*
X008376Y082443D03*
X008376Y077600D03*
X008376Y076931D03*
X008376Y072088D03*
X008376Y071419D03*
X008376Y066576D03*
X008376Y065907D03*
X008376Y061065D03*
X008376Y060395D03*
X008376Y055553D03*
X008376Y054883D03*
X008376Y050041D03*
X008376Y049372D03*
X008376Y044529D03*
X008376Y043860D03*
X008376Y039017D03*
X008376Y038348D03*
X008376Y033506D03*
X008376Y032836D03*
X008376Y027994D03*
X008376Y027324D03*
X008376Y022482D03*
X008376Y021813D03*
X008376Y016970D03*
X008376Y016301D03*
X008376Y011458D03*
X008376Y010789D03*
X008376Y005946D03*
X008376Y005277D03*
X013888Y005277D03*
X013888Y005946D03*
X013888Y010789D03*
X013888Y011458D03*
X013888Y016301D03*
X013888Y016970D03*
X013888Y021813D03*
X013888Y022482D03*
X013888Y027324D03*
X013888Y027994D03*
X013888Y032836D03*
X013888Y033506D03*
X013888Y038348D03*
X013888Y039017D03*
X013888Y043860D03*
X013888Y044529D03*
X013888Y049372D03*
X013888Y050041D03*
X013888Y054883D03*
X013888Y055553D03*
X013888Y060395D03*
X013888Y061065D03*
X013888Y065907D03*
X013888Y066576D03*
X013888Y071419D03*
X013888Y072088D03*
X013888Y076931D03*
X013888Y077600D03*
X013888Y082443D03*
X013888Y083112D03*
X013888Y087954D03*
X013888Y088624D03*
X019400Y088624D03*
X019400Y087954D03*
X019400Y083112D03*
X019400Y082443D03*
X019400Y077600D03*
X019400Y076931D03*
X019400Y072088D03*
X019400Y071419D03*
X019400Y066576D03*
X019400Y065907D03*
X019400Y061065D03*
X019400Y060395D03*
X019400Y055553D03*
X019400Y054883D03*
X019400Y050041D03*
X019400Y049372D03*
X019400Y044529D03*
X019400Y043860D03*
X019400Y039017D03*
X019400Y038348D03*
X019400Y033506D03*
X019400Y032836D03*
X019400Y027994D03*
X019400Y027324D03*
X019400Y022482D03*
X019400Y021813D03*
X019400Y016970D03*
X019400Y016301D03*
X019400Y011458D03*
X019400Y010789D03*
X019400Y005946D03*
X019400Y005277D03*
X024912Y005277D03*
X024912Y005946D03*
X024912Y010789D03*
X024912Y011458D03*
X024912Y016301D03*
X024912Y016970D03*
X024912Y021813D03*
X024912Y022482D03*
X024912Y027324D03*
X024912Y027994D03*
X024912Y032836D03*
X024912Y033506D03*
X024912Y038348D03*
X024912Y039017D03*
X024912Y043860D03*
X024912Y044529D03*
X024912Y049372D03*
X024912Y050041D03*
X024912Y054883D03*
X024912Y055553D03*
X024912Y060395D03*
X024912Y061065D03*
X024912Y065907D03*
X024912Y066576D03*
X024912Y071419D03*
X024912Y072088D03*
X024912Y076931D03*
X024912Y077600D03*
X024912Y082443D03*
X024912Y083112D03*
X024912Y087954D03*
X024912Y088624D03*
X030424Y088624D03*
X030424Y087954D03*
X030424Y083112D03*
X030424Y082443D03*
X030424Y077600D03*
X030424Y076931D03*
X030424Y072088D03*
X030424Y071419D03*
X030424Y066576D03*
X030424Y065907D03*
X030424Y061065D03*
X030424Y060395D03*
X030424Y055553D03*
X030424Y054883D03*
X030424Y050041D03*
X030424Y049372D03*
X030424Y044529D03*
X030424Y043860D03*
X030424Y039017D03*
X030424Y038348D03*
X030424Y033506D03*
X030424Y032836D03*
X030424Y027994D03*
X030424Y027324D03*
X030424Y022482D03*
X030424Y021813D03*
X030424Y016970D03*
X030424Y016301D03*
X030424Y011458D03*
X030424Y010789D03*
X030424Y005946D03*
X030424Y005277D03*
X035935Y005277D03*
X035935Y005946D03*
X035935Y010789D03*
X035935Y011458D03*
X035935Y016301D03*
X035935Y016970D03*
X035935Y021813D03*
X035935Y022482D03*
X035935Y027324D03*
X035935Y027994D03*
X035935Y032836D03*
X035935Y033506D03*
X035935Y038348D03*
X035935Y039017D03*
X035935Y043860D03*
X035935Y044529D03*
X035935Y049372D03*
X035935Y050041D03*
X035935Y054883D03*
X035935Y055553D03*
X035935Y060395D03*
X035935Y061065D03*
X035935Y065907D03*
X035935Y066576D03*
X035935Y071419D03*
X035935Y072088D03*
X035935Y076931D03*
X035935Y077600D03*
X035935Y082443D03*
X035935Y083112D03*
X035935Y087954D03*
X035935Y088624D03*
X041447Y088624D03*
X041447Y087954D03*
X041447Y083112D03*
X041447Y082443D03*
X041447Y077600D03*
X041447Y076931D03*
X041447Y072088D03*
X041447Y071419D03*
X041447Y066576D03*
X041447Y065907D03*
X041447Y061065D03*
X041447Y060395D03*
X041447Y055553D03*
X041447Y054883D03*
X041447Y050041D03*
X041447Y049372D03*
X041447Y044529D03*
X041447Y043860D03*
X041447Y039017D03*
X041447Y038348D03*
X041447Y033506D03*
X041447Y032836D03*
X041447Y027994D03*
X041447Y027324D03*
X041447Y022482D03*
X041447Y021813D03*
X041447Y016970D03*
X041447Y016301D03*
X041447Y011458D03*
X041447Y010789D03*
X041447Y005946D03*
X041447Y005277D03*
X046959Y005277D03*
X046959Y005946D03*
X046959Y010789D03*
X046959Y011458D03*
X046959Y016301D03*
X046959Y016970D03*
X046959Y021813D03*
X046959Y022482D03*
X052471Y022482D03*
X052471Y021813D03*
X052471Y016970D03*
X052471Y016301D03*
X052471Y011458D03*
X052471Y010789D03*
X052471Y005946D03*
X052471Y005277D03*
X057983Y005277D03*
X057983Y005946D03*
X057983Y010789D03*
X057983Y011458D03*
X057983Y016301D03*
X057983Y016970D03*
X057983Y021813D03*
X057983Y022482D03*
X057983Y027324D03*
X057983Y027994D03*
X057983Y032836D03*
X057983Y033506D03*
X057983Y038348D03*
X057983Y039017D03*
X057983Y043860D03*
X057983Y044529D03*
X057983Y049372D03*
X057983Y050041D03*
X057983Y054883D03*
X057983Y055553D03*
X057983Y060395D03*
X057983Y061065D03*
X057983Y065907D03*
X057983Y066576D03*
X057983Y071419D03*
X057983Y072088D03*
X057983Y076931D03*
X057983Y077600D03*
X057983Y082443D03*
X057983Y083112D03*
X057983Y087954D03*
X057983Y088624D03*
X063495Y088624D03*
X063495Y087954D03*
X063495Y083112D03*
X063495Y082443D03*
X063495Y077600D03*
X063495Y076931D03*
X063495Y072088D03*
X063495Y071419D03*
X063495Y066576D03*
X063495Y065907D03*
X063495Y061065D03*
X063495Y060395D03*
X063495Y055553D03*
X063495Y054883D03*
X063495Y050041D03*
X063495Y049372D03*
X063495Y044529D03*
X063495Y043860D03*
X063495Y039017D03*
X063495Y038348D03*
X063495Y033506D03*
X063495Y032836D03*
X063495Y027994D03*
X063495Y027324D03*
X063495Y022482D03*
X063495Y021813D03*
X063495Y016970D03*
X063495Y016301D03*
X063495Y011458D03*
X063495Y010789D03*
X063495Y005946D03*
X063495Y005277D03*
X069006Y005277D03*
X069006Y005946D03*
X069006Y010789D03*
X069006Y011458D03*
X069006Y016301D03*
X069006Y016970D03*
X069006Y021813D03*
X069006Y022482D03*
X069006Y027324D03*
X069006Y027994D03*
X069006Y032836D03*
X069006Y033506D03*
X069006Y038348D03*
X069006Y039017D03*
X069006Y043860D03*
X069006Y044529D03*
X069006Y049372D03*
X069006Y050041D03*
X069006Y054883D03*
X069006Y055553D03*
X069006Y060395D03*
X069006Y061065D03*
X069006Y065907D03*
X069006Y066576D03*
X069006Y071419D03*
X069006Y072088D03*
X069006Y076931D03*
X069006Y077600D03*
X069006Y082443D03*
X069006Y083112D03*
X069006Y087954D03*
X069006Y088624D03*
X074518Y088624D03*
X074518Y087954D03*
X074518Y083112D03*
X074518Y082443D03*
X074518Y077600D03*
X074518Y076931D03*
X074518Y072088D03*
X074518Y071419D03*
X074518Y066576D03*
X074518Y065907D03*
X074518Y061065D03*
X074518Y060395D03*
X074518Y055553D03*
X074518Y054883D03*
X074518Y050041D03*
X074518Y049372D03*
X074518Y044529D03*
X074518Y043860D03*
X074518Y039017D03*
X074518Y038348D03*
X074518Y033506D03*
X074518Y032836D03*
X074518Y027994D03*
X074518Y027324D03*
X074518Y022482D03*
X074518Y021813D03*
X074518Y016970D03*
X074518Y016301D03*
X074518Y011458D03*
X074518Y010789D03*
X074518Y005946D03*
X074518Y005277D03*
X080030Y005277D03*
X080030Y005946D03*
X080030Y010789D03*
X080030Y011458D03*
X080030Y016301D03*
X080030Y016970D03*
X080030Y021813D03*
X080030Y022482D03*
X080030Y027324D03*
X080030Y027994D03*
X080030Y032836D03*
X080030Y033506D03*
X080030Y038348D03*
X080030Y039017D03*
X080030Y043860D03*
X080030Y044529D03*
X080030Y049372D03*
X080030Y050041D03*
X080030Y054883D03*
X080030Y055553D03*
X080030Y060395D03*
X080030Y061065D03*
X080030Y065907D03*
X080030Y066576D03*
X080030Y071419D03*
X080030Y072088D03*
X080030Y076931D03*
X080030Y077600D03*
X080030Y082443D03*
X080030Y083112D03*
X080030Y087954D03*
X080030Y088624D03*
X085542Y088624D03*
X085542Y087954D03*
X085542Y083112D03*
X085542Y082443D03*
X085542Y077600D03*
X085542Y076931D03*
X085542Y072088D03*
X085542Y071419D03*
X091054Y071419D03*
X091054Y072088D03*
X091054Y076931D03*
X091054Y077600D03*
X091054Y082443D03*
X091054Y083112D03*
X091054Y087954D03*
X091054Y088624D03*
X091054Y066576D03*
X091054Y065907D03*
X091054Y061065D03*
X091054Y060395D03*
X091054Y055553D03*
X091054Y054883D03*
X091054Y050041D03*
X091054Y049372D03*
X091054Y044529D03*
X091054Y043860D03*
X091054Y039017D03*
X091054Y038348D03*
X091054Y033506D03*
X091054Y032836D03*
X091054Y027994D03*
X091054Y027324D03*
X085542Y027324D03*
X085542Y027994D03*
X085542Y032836D03*
X085542Y033506D03*
X085542Y038348D03*
X085542Y039017D03*
X085542Y043860D03*
X085542Y044529D03*
X085542Y049372D03*
X085542Y050041D03*
X085542Y054883D03*
X085542Y055553D03*
X085542Y060395D03*
X085542Y061065D03*
X085542Y065907D03*
X085542Y066576D03*
X052471Y066576D03*
X052471Y065907D03*
X052471Y061065D03*
X052471Y060395D03*
X052471Y055553D03*
X052471Y054883D03*
X052471Y050041D03*
X052471Y049372D03*
X052471Y044529D03*
X052471Y043860D03*
X052471Y039017D03*
X052471Y038348D03*
X052471Y033506D03*
X052471Y032836D03*
X052471Y027994D03*
X052471Y027324D03*
X046959Y027324D03*
X046959Y027994D03*
X046959Y032836D03*
X046959Y033506D03*
X046959Y038348D03*
X046959Y039017D03*
X046959Y043860D03*
X046959Y044529D03*
X046959Y049372D03*
X046959Y050041D03*
X046959Y054883D03*
X046959Y055553D03*
X046959Y060395D03*
X046959Y061065D03*
X046959Y065907D03*
X046959Y066576D03*
X046959Y071419D03*
X046959Y072088D03*
X046959Y076931D03*
X046959Y077600D03*
X046959Y082443D03*
X046959Y083112D03*
X046959Y087954D03*
X046959Y088624D03*
X052471Y088624D03*
X052471Y087954D03*
X052471Y083112D03*
X052471Y082443D03*
X052471Y077600D03*
X052471Y076931D03*
X052471Y072088D03*
X052471Y071419D03*
X085542Y022482D03*
X085542Y021813D03*
X085542Y016970D03*
X085542Y016301D03*
X085542Y011458D03*
X085542Y010789D03*
X085542Y005946D03*
X085542Y005277D03*
X091054Y005277D03*
X091054Y005946D03*
X091054Y010789D03*
X091054Y011458D03*
X091054Y016301D03*
X091054Y016970D03*
X091054Y021813D03*
X091054Y022482D03*
D12*
X089262Y022797D03*
X089262Y021498D03*
X087333Y021498D03*
X087333Y022797D03*
X083750Y022797D03*
X083750Y021498D03*
X081821Y021498D03*
X081821Y022797D03*
X078239Y022797D03*
X078239Y021498D03*
X076310Y021498D03*
X076310Y022797D03*
X072727Y022797D03*
X072727Y021498D03*
X070798Y021498D03*
X070798Y022797D03*
X067215Y022797D03*
X067215Y021498D03*
X065286Y021498D03*
X065286Y022797D03*
X061703Y022797D03*
X061703Y021498D03*
X059774Y021498D03*
X059774Y022797D03*
X056191Y022797D03*
X056191Y021498D03*
X054262Y021498D03*
X054262Y022797D03*
X050680Y022797D03*
X050680Y021498D03*
X048750Y021498D03*
X048750Y022797D03*
X045168Y022797D03*
X045168Y021498D03*
X043239Y021498D03*
X043239Y022797D03*
X039656Y022797D03*
X039656Y021498D03*
X037727Y021498D03*
X037727Y022797D03*
X034144Y022797D03*
X034144Y021498D03*
X032215Y021498D03*
X032215Y022797D03*
X028632Y022797D03*
X028632Y021498D03*
X026703Y021498D03*
X026703Y022797D03*
X023121Y022797D03*
X023121Y021498D03*
X021191Y021498D03*
X021191Y022797D03*
X017609Y022797D03*
X017609Y021498D03*
X015680Y021498D03*
X015680Y022797D03*
X012097Y022797D03*
X012097Y021498D03*
X010168Y021498D03*
X010168Y022797D03*
X006585Y022797D03*
X006585Y021498D03*
X004656Y021498D03*
X004656Y022797D03*
X004656Y027009D03*
X004656Y028309D03*
X006585Y028309D03*
X006585Y027009D03*
X010168Y027009D03*
X010168Y028309D03*
X012097Y028309D03*
X012097Y027009D03*
X015680Y027009D03*
X015680Y028309D03*
X017609Y028309D03*
X017609Y027009D03*
X021191Y027009D03*
X021191Y028309D03*
X023121Y028309D03*
X023121Y027009D03*
X026703Y027009D03*
X026703Y028309D03*
X028632Y028309D03*
X028632Y027009D03*
X032215Y027009D03*
X032215Y028309D03*
X034144Y028309D03*
X034144Y027009D03*
X037727Y027009D03*
X037727Y028309D03*
X039656Y028309D03*
X039656Y027009D03*
X043239Y027009D03*
X043239Y028309D03*
X045168Y028309D03*
X045168Y027009D03*
X048750Y027009D03*
X048750Y028309D03*
X050680Y028309D03*
X050680Y027009D03*
X054262Y027009D03*
X054262Y028309D03*
X056191Y028309D03*
X056191Y027009D03*
X059774Y027009D03*
X059774Y028309D03*
X061703Y028309D03*
X061703Y027009D03*
X065286Y027009D03*
X065286Y028309D03*
X067215Y028309D03*
X067215Y027009D03*
X070798Y027009D03*
X070798Y028309D03*
X072727Y028309D03*
X072727Y027009D03*
X076310Y027009D03*
X076310Y028309D03*
X078239Y028309D03*
X078239Y027009D03*
X081821Y027009D03*
X081821Y028309D03*
X083750Y028309D03*
X083750Y027009D03*
X087333Y027009D03*
X087333Y028309D03*
X089262Y028309D03*
X089262Y027009D03*
X089262Y032521D03*
X089262Y033820D03*
X087333Y033820D03*
X087333Y032521D03*
X083750Y032521D03*
X083750Y033820D03*
X081821Y033820D03*
X081821Y032521D03*
X078239Y032521D03*
X078239Y033820D03*
X076310Y033820D03*
X076310Y032521D03*
X072727Y032521D03*
X072727Y033820D03*
X070798Y033820D03*
X070798Y032521D03*
X067215Y032521D03*
X067215Y033820D03*
X065286Y033820D03*
X065286Y032521D03*
X061703Y032521D03*
X061703Y033820D03*
X059774Y033820D03*
X059774Y032521D03*
X056191Y032521D03*
X056191Y033820D03*
X054262Y033820D03*
X054262Y032521D03*
X050680Y032521D03*
X050680Y033820D03*
X048750Y033820D03*
X048750Y032521D03*
X045168Y032521D03*
X045168Y033820D03*
X043239Y033820D03*
X043239Y032521D03*
X039656Y032521D03*
X039656Y033820D03*
X037727Y033820D03*
X037727Y032521D03*
X034144Y032521D03*
X034144Y033820D03*
X032215Y033820D03*
X032215Y032521D03*
X028632Y032521D03*
X028632Y033820D03*
X026703Y033820D03*
X026703Y032521D03*
X023121Y032521D03*
X023121Y033820D03*
X021191Y033820D03*
X021191Y032521D03*
X017609Y032521D03*
X017609Y033820D03*
X015680Y033820D03*
X015680Y032521D03*
X012097Y032521D03*
X012097Y033820D03*
X010168Y033820D03*
X010168Y032521D03*
X006585Y032521D03*
X006585Y033820D03*
X004656Y033820D03*
X004656Y032521D03*
X004656Y038033D03*
X004656Y039332D03*
X006585Y039332D03*
X006585Y038033D03*
X010168Y038033D03*
X010168Y039332D03*
X012097Y039332D03*
X012097Y038033D03*
X015680Y038033D03*
X015680Y039332D03*
X017609Y039332D03*
X017609Y038033D03*
X021191Y038033D03*
X021191Y039332D03*
X023121Y039332D03*
X023121Y038033D03*
X026703Y038033D03*
X026703Y039332D03*
X028632Y039332D03*
X028632Y038033D03*
X032215Y038033D03*
X032215Y039332D03*
X034144Y039332D03*
X034144Y038033D03*
X037727Y038033D03*
X037727Y039332D03*
X039656Y039332D03*
X039656Y038033D03*
X043239Y038033D03*
X043239Y039332D03*
X045168Y039332D03*
X045168Y038033D03*
X048750Y038033D03*
X048750Y039332D03*
X050680Y039332D03*
X050680Y038033D03*
X054262Y038033D03*
X054262Y039332D03*
X056191Y039332D03*
X056191Y038033D03*
X059774Y038033D03*
X059774Y039332D03*
X061703Y039332D03*
X061703Y038033D03*
X065286Y038033D03*
X065286Y039332D03*
X067215Y039332D03*
X067215Y038033D03*
X070798Y038033D03*
X070798Y039332D03*
X072727Y039332D03*
X072727Y038033D03*
X076310Y038033D03*
X076310Y039332D03*
X078239Y039332D03*
X078239Y038033D03*
X081821Y038033D03*
X081821Y039332D03*
X083750Y039332D03*
X083750Y038033D03*
X087333Y038033D03*
X087333Y039332D03*
X089262Y039332D03*
X089262Y038033D03*
X089262Y043545D03*
X089262Y044844D03*
X087333Y044844D03*
X087333Y043545D03*
X083750Y043545D03*
X083750Y044844D03*
X081821Y044844D03*
X081821Y043545D03*
X078239Y043545D03*
X078239Y044844D03*
X076310Y044844D03*
X076310Y043545D03*
X072727Y043545D03*
X072727Y044844D03*
X070798Y044844D03*
X070798Y043545D03*
X067215Y043545D03*
X067215Y044844D03*
X065286Y044844D03*
X065286Y043545D03*
X061703Y043545D03*
X061703Y044844D03*
X059774Y044844D03*
X059774Y043545D03*
X056191Y043545D03*
X056191Y044844D03*
X054262Y044844D03*
X054262Y043545D03*
X050680Y043545D03*
X050680Y044844D03*
X048750Y044844D03*
X048750Y043545D03*
X045168Y043545D03*
X045168Y044844D03*
X043239Y044844D03*
X043239Y043545D03*
X039656Y043545D03*
X039656Y044844D03*
X037727Y044844D03*
X037727Y043545D03*
X034144Y043545D03*
X034144Y044844D03*
X032215Y044844D03*
X032215Y043545D03*
X028632Y043545D03*
X028632Y044844D03*
X026703Y044844D03*
X026703Y043545D03*
X023121Y043545D03*
X023121Y044844D03*
X021191Y044844D03*
X021191Y043545D03*
X017609Y043545D03*
X017609Y044844D03*
X015680Y044844D03*
X015680Y043545D03*
X012097Y043545D03*
X012097Y044844D03*
X010168Y044844D03*
X010168Y043545D03*
X006585Y043545D03*
X006585Y044844D03*
X004656Y044844D03*
X004656Y043545D03*
X004656Y049057D03*
X004656Y050356D03*
X006585Y050356D03*
X006585Y049057D03*
X010168Y049057D03*
X010168Y050356D03*
X012097Y050356D03*
X012097Y049057D03*
X015680Y049057D03*
X015680Y050356D03*
X017609Y050356D03*
X017609Y049057D03*
X021191Y049057D03*
X021191Y050356D03*
X023121Y050356D03*
X023121Y049057D03*
X026703Y049057D03*
X026703Y050356D03*
X028632Y050356D03*
X028632Y049057D03*
X032215Y049057D03*
X032215Y050356D03*
X034144Y050356D03*
X034144Y049057D03*
X037727Y049057D03*
X037727Y050356D03*
X039656Y050356D03*
X039656Y049057D03*
X043239Y049057D03*
X043239Y050356D03*
X045168Y050356D03*
X045168Y049057D03*
X048750Y049057D03*
X048750Y050356D03*
X050680Y050356D03*
X050680Y049057D03*
X054262Y049057D03*
X054262Y050356D03*
X056191Y050356D03*
X056191Y049057D03*
X059774Y049057D03*
X059774Y050356D03*
X061703Y050356D03*
X061703Y049057D03*
X065286Y049057D03*
X065286Y050356D03*
X067215Y050356D03*
X067215Y049057D03*
X070798Y049057D03*
X070798Y050356D03*
X072727Y050356D03*
X072727Y049057D03*
X076310Y049057D03*
X076310Y050356D03*
X078239Y050356D03*
X078239Y049057D03*
X081821Y049057D03*
X081821Y050356D03*
X083750Y050356D03*
X083750Y049057D03*
X087333Y049057D03*
X087333Y050356D03*
X089262Y050356D03*
X089262Y049057D03*
X089262Y054569D03*
X089262Y055868D03*
X087333Y055868D03*
X087333Y054569D03*
X083750Y054569D03*
X083750Y055868D03*
X081821Y055868D03*
X081821Y054569D03*
X078239Y054569D03*
X078239Y055868D03*
X076310Y055868D03*
X076310Y054569D03*
X072727Y054569D03*
X072727Y055868D03*
X070798Y055868D03*
X070798Y054569D03*
X067215Y054569D03*
X067215Y055868D03*
X065286Y055868D03*
X065286Y054569D03*
X061703Y054569D03*
X061703Y055868D03*
X059774Y055868D03*
X059774Y054569D03*
X056191Y054569D03*
X056191Y055868D03*
X054262Y055868D03*
X054262Y054569D03*
X050680Y054569D03*
X050680Y055868D03*
X048750Y055868D03*
X048750Y054569D03*
X045168Y054569D03*
X045168Y055868D03*
X043239Y055868D03*
X043239Y054569D03*
X039656Y054569D03*
X039656Y055868D03*
X037727Y055868D03*
X037727Y054569D03*
X034144Y054569D03*
X034144Y055868D03*
X032215Y055868D03*
X032215Y054569D03*
X028632Y054569D03*
X028632Y055868D03*
X026703Y055868D03*
X026703Y054569D03*
X023121Y054569D03*
X023121Y055868D03*
X021191Y055868D03*
X021191Y054569D03*
X017609Y054569D03*
X017609Y055868D03*
X015680Y055868D03*
X015680Y054569D03*
X012097Y054569D03*
X012097Y055868D03*
X010168Y055868D03*
X010168Y054569D03*
X006585Y054569D03*
X006585Y055868D03*
X004656Y055868D03*
X004656Y054569D03*
X004656Y060080D03*
X004656Y061380D03*
X006585Y061380D03*
X006585Y060080D03*
X010168Y060080D03*
X010168Y061380D03*
X012097Y061380D03*
X012097Y060080D03*
X015680Y060080D03*
X015680Y061380D03*
X017609Y061380D03*
X017609Y060080D03*
X021191Y060080D03*
X021191Y061380D03*
X023121Y061380D03*
X023121Y060080D03*
X026703Y060080D03*
X026703Y061380D03*
X028632Y061380D03*
X028632Y060080D03*
X032215Y060080D03*
X032215Y061380D03*
X034144Y061380D03*
X034144Y060080D03*
X037727Y060080D03*
X037727Y061380D03*
X039656Y061380D03*
X039656Y060080D03*
X043239Y060080D03*
X043239Y061380D03*
X045168Y061380D03*
X045168Y060080D03*
X048750Y060080D03*
X048750Y061380D03*
X050680Y061380D03*
X050680Y060080D03*
X054262Y060080D03*
X054262Y061380D03*
X056191Y061380D03*
X056191Y060080D03*
X059774Y060080D03*
X059774Y061380D03*
X061703Y061380D03*
X061703Y060080D03*
X065286Y060080D03*
X065286Y061380D03*
X067215Y061380D03*
X067215Y060080D03*
X070798Y060080D03*
X070798Y061380D03*
X072727Y061380D03*
X072727Y060080D03*
X076310Y060080D03*
X076310Y061380D03*
X078239Y061380D03*
X078239Y060080D03*
X081821Y060080D03*
X081821Y061380D03*
X083750Y061380D03*
X083750Y060080D03*
X087333Y060080D03*
X087333Y061380D03*
X089262Y061380D03*
X089262Y060080D03*
X089262Y065592D03*
X089262Y066891D03*
X087333Y066891D03*
X087333Y065592D03*
X083750Y065592D03*
X083750Y066891D03*
X081821Y066891D03*
X081821Y065592D03*
X078239Y065592D03*
X078239Y066891D03*
X076310Y066891D03*
X076310Y065592D03*
X072727Y065592D03*
X072727Y066891D03*
X070798Y066891D03*
X070798Y065592D03*
X067215Y065592D03*
X067215Y066891D03*
X065286Y066891D03*
X065286Y065592D03*
X061703Y065592D03*
X061703Y066891D03*
X059774Y066891D03*
X059774Y065592D03*
X056191Y065592D03*
X056191Y066891D03*
X054262Y066891D03*
X054262Y065592D03*
X050680Y065592D03*
X050680Y066891D03*
X048750Y066891D03*
X048750Y065592D03*
X045168Y065592D03*
X045168Y066891D03*
X043239Y066891D03*
X043239Y065592D03*
X039656Y065592D03*
X039656Y066891D03*
X037727Y066891D03*
X037727Y065592D03*
X034144Y065592D03*
X034144Y066891D03*
X032215Y066891D03*
X032215Y065592D03*
X028632Y065592D03*
X028632Y066891D03*
X026703Y066891D03*
X026703Y065592D03*
X023121Y065592D03*
X023121Y066891D03*
X021191Y066891D03*
X021191Y065592D03*
X017609Y065592D03*
X017609Y066891D03*
X015680Y066891D03*
X015680Y065592D03*
X012097Y065592D03*
X012097Y066891D03*
X010168Y066891D03*
X010168Y065592D03*
X006585Y065592D03*
X006585Y066891D03*
X004656Y066891D03*
X004656Y065592D03*
X004656Y071104D03*
X004656Y072403D03*
X006585Y072403D03*
X006585Y071104D03*
X010168Y071104D03*
X010168Y072403D03*
X012097Y072403D03*
X012097Y071104D03*
X015680Y071104D03*
X015680Y072403D03*
X017609Y072403D03*
X017609Y071104D03*
X021191Y071104D03*
X021191Y072403D03*
X023121Y072403D03*
X023121Y071104D03*
X026703Y071104D03*
X026703Y072403D03*
X028632Y072403D03*
X028632Y071104D03*
X032215Y071104D03*
X032215Y072403D03*
X034144Y072403D03*
X034144Y071104D03*
X037727Y071104D03*
X037727Y072403D03*
X039656Y072403D03*
X039656Y071104D03*
X043239Y071104D03*
X043239Y072403D03*
X045168Y072403D03*
X045168Y071104D03*
X048750Y071104D03*
X048750Y072403D03*
X050680Y072403D03*
X050680Y071104D03*
X054262Y071104D03*
X054262Y072403D03*
X056191Y072403D03*
X056191Y071104D03*
X059774Y071104D03*
X059774Y072403D03*
X061703Y072403D03*
X061703Y071104D03*
X065286Y071104D03*
X065286Y072403D03*
X067215Y072403D03*
X067215Y071104D03*
X070798Y071104D03*
X070798Y072403D03*
X072727Y072403D03*
X072727Y071104D03*
X076310Y071104D03*
X076310Y072403D03*
X078239Y072403D03*
X078239Y071104D03*
X081821Y071104D03*
X081821Y072403D03*
X083750Y072403D03*
X083750Y071104D03*
X087333Y071104D03*
X087333Y072403D03*
X089262Y072403D03*
X089262Y071104D03*
X089262Y076616D03*
X089262Y077915D03*
X087333Y077915D03*
X087333Y076616D03*
X083750Y076616D03*
X083750Y077915D03*
X081821Y077915D03*
X081821Y076616D03*
X078239Y076616D03*
X078239Y077915D03*
X076310Y077915D03*
X076310Y076616D03*
X072727Y076616D03*
X072727Y077915D03*
X070798Y077915D03*
X070798Y076616D03*
X067215Y076616D03*
X067215Y077915D03*
X065286Y077915D03*
X065286Y076616D03*
X061703Y076616D03*
X061703Y077915D03*
X059774Y077915D03*
X059774Y076616D03*
X056191Y076616D03*
X056191Y077915D03*
X054262Y077915D03*
X054262Y076616D03*
X050680Y076616D03*
X050680Y077915D03*
X048750Y077915D03*
X048750Y076616D03*
X045168Y076616D03*
X045168Y077915D03*
X043239Y077915D03*
X043239Y076616D03*
X039656Y076616D03*
X039656Y077915D03*
X037727Y077915D03*
X037727Y076616D03*
X034144Y076616D03*
X034144Y077915D03*
X032215Y077915D03*
X032215Y076616D03*
X028632Y076616D03*
X028632Y077915D03*
X026703Y077915D03*
X026703Y076616D03*
X023121Y076616D03*
X023121Y077915D03*
X021191Y077915D03*
X021191Y076616D03*
X017609Y076616D03*
X017609Y077915D03*
X015680Y077915D03*
X015680Y076616D03*
X012097Y076616D03*
X012097Y077915D03*
X010168Y077915D03*
X010168Y076616D03*
X006585Y076616D03*
X006585Y077915D03*
X004656Y077915D03*
X004656Y076616D03*
X004656Y082128D03*
X004656Y083427D03*
X006585Y083427D03*
X006585Y082128D03*
X010168Y082128D03*
X010168Y083427D03*
X012097Y083427D03*
X012097Y082128D03*
X015680Y082128D03*
X015680Y083427D03*
X017609Y083427D03*
X017609Y082128D03*
X021191Y082128D03*
X021191Y083427D03*
X023121Y083427D03*
X023121Y082128D03*
X026703Y082128D03*
X026703Y083427D03*
X028632Y083427D03*
X028632Y082128D03*
X032215Y082128D03*
X032215Y083427D03*
X034144Y083427D03*
X034144Y082128D03*
X037727Y082128D03*
X037727Y083427D03*
X039656Y083427D03*
X039656Y082128D03*
X043239Y082128D03*
X043239Y083427D03*
X045168Y083427D03*
X045168Y082128D03*
X048750Y082128D03*
X048750Y083427D03*
X050680Y083427D03*
X050680Y082128D03*
X054262Y082128D03*
X054262Y083427D03*
X056191Y083427D03*
X056191Y082128D03*
X059774Y082128D03*
X059774Y083427D03*
X061703Y083427D03*
X061703Y082128D03*
X065286Y082128D03*
X065286Y083427D03*
X067215Y083427D03*
X067215Y082128D03*
X070798Y082128D03*
X070798Y083427D03*
X072727Y083427D03*
X072727Y082128D03*
X076310Y082128D03*
X076310Y083427D03*
X078239Y083427D03*
X078239Y082128D03*
X081821Y082128D03*
X081821Y083427D03*
X083750Y083427D03*
X083750Y082128D03*
X087333Y082128D03*
X087333Y083427D03*
X089262Y083427D03*
X089262Y082128D03*
X089262Y087639D03*
X089262Y088939D03*
X087333Y088939D03*
X087333Y087639D03*
X083750Y087639D03*
X083750Y088939D03*
X081821Y088939D03*
X081821Y087639D03*
X078239Y087639D03*
X078239Y088939D03*
X076310Y088939D03*
X076310Y087639D03*
X072727Y087639D03*
X072727Y088939D03*
X070798Y088939D03*
X070798Y087639D03*
X067215Y087639D03*
X067215Y088939D03*
X065286Y088939D03*
X065286Y087639D03*
X061703Y087639D03*
X061703Y088939D03*
X059774Y088939D03*
X059774Y087639D03*
X056191Y087639D03*
X056191Y088939D03*
X054262Y088939D03*
X054262Y087639D03*
X050680Y087639D03*
X050680Y088939D03*
X048750Y088939D03*
X048750Y087639D03*
X045168Y087639D03*
X045168Y088939D03*
X043239Y088939D03*
X043239Y087639D03*
X039656Y087639D03*
X039656Y088939D03*
X037727Y088939D03*
X037727Y087639D03*
X034144Y087639D03*
X034144Y088939D03*
X032215Y088939D03*
X032215Y087639D03*
X028632Y087639D03*
X028632Y088939D03*
X026703Y088939D03*
X026703Y087639D03*
X023121Y087639D03*
X023121Y088939D03*
X021191Y088939D03*
X021191Y087639D03*
X017609Y087639D03*
X017609Y088939D03*
X015680Y088939D03*
X015680Y087639D03*
X012097Y087639D03*
X012097Y088939D03*
X010168Y088939D03*
X010168Y087639D03*
X006585Y087639D03*
X006585Y088939D03*
X004656Y088939D03*
X004656Y087639D03*
X004656Y017285D03*
X004656Y015986D03*
X006585Y015986D03*
X006585Y017285D03*
X010168Y017285D03*
X010168Y015986D03*
X012097Y015986D03*
X012097Y017285D03*
X015680Y017285D03*
X015680Y015986D03*
X017609Y015986D03*
X017609Y017285D03*
X021191Y017285D03*
X021191Y015986D03*
X023121Y015986D03*
X023121Y017285D03*
X026703Y017285D03*
X026703Y015986D03*
X028632Y015986D03*
X028632Y017285D03*
X032215Y017285D03*
X032215Y015986D03*
X034144Y015986D03*
X034144Y017285D03*
X037727Y017285D03*
X037727Y015986D03*
X039656Y015986D03*
X039656Y017285D03*
X043239Y017285D03*
X043239Y015986D03*
X045168Y015986D03*
X045168Y017285D03*
X048750Y017285D03*
X048750Y015986D03*
X050680Y015986D03*
X050680Y017285D03*
X054262Y017285D03*
X054262Y015986D03*
X056191Y015986D03*
X056191Y017285D03*
X059774Y017285D03*
X059774Y015986D03*
X061703Y015986D03*
X061703Y017285D03*
X065286Y017285D03*
X065286Y015986D03*
X067215Y015986D03*
X067215Y017285D03*
X070798Y017285D03*
X070798Y015986D03*
X072727Y015986D03*
X072727Y017285D03*
X076310Y017285D03*
X076310Y015986D03*
X078239Y015986D03*
X078239Y017285D03*
X081821Y017285D03*
X081821Y015986D03*
X083750Y015986D03*
X083750Y017285D03*
X087333Y017285D03*
X087333Y015986D03*
X089262Y015986D03*
X089262Y017285D03*
X089262Y011773D03*
X089262Y010474D03*
X087333Y010474D03*
X087333Y011773D03*
X083750Y011773D03*
X083750Y010474D03*
X081821Y010474D03*
X081821Y011773D03*
X078239Y011773D03*
X078239Y010474D03*
X076310Y010474D03*
X076310Y011773D03*
X072727Y011773D03*
X072727Y010474D03*
X070798Y010474D03*
X070798Y011773D03*
X067215Y011773D03*
X067215Y010474D03*
X065286Y010474D03*
X065286Y011773D03*
X061703Y011773D03*
X061703Y010474D03*
X059774Y010474D03*
X059774Y011773D03*
X056191Y011773D03*
X056191Y010474D03*
X054262Y010474D03*
X054262Y011773D03*
X050680Y011773D03*
X050680Y010474D03*
X048750Y010474D03*
X048750Y011773D03*
X045168Y011773D03*
X045168Y010474D03*
X043239Y010474D03*
X043239Y011773D03*
X039656Y011773D03*
X039656Y010474D03*
X037727Y010474D03*
X037727Y011773D03*
X034144Y011773D03*
X034144Y010474D03*
X032215Y010474D03*
X032215Y011773D03*
X028632Y011773D03*
X028632Y010474D03*
X026703Y010474D03*
X026703Y011773D03*
X023121Y011773D03*
X023121Y010474D03*
X021191Y010474D03*
X021191Y011773D03*
X017609Y011773D03*
X017609Y010474D03*
X015680Y010474D03*
X015680Y011773D03*
X012097Y011773D03*
X012097Y010474D03*
X010168Y010474D03*
X010168Y011773D03*
X006585Y011773D03*
X006585Y010474D03*
X004656Y010474D03*
X004656Y011773D03*
X004656Y006261D03*
X004656Y004962D03*
X006585Y004962D03*
X006585Y006261D03*
X010168Y006261D03*
X010168Y004962D03*
X012097Y004962D03*
X012097Y006261D03*
X015680Y006261D03*
X015680Y004962D03*
X017609Y004962D03*
X017609Y006261D03*
X021191Y006261D03*
X021191Y004962D03*
X023121Y004962D03*
X023121Y006261D03*
X026703Y006261D03*
X026703Y004962D03*
X028632Y004962D03*
X028632Y006261D03*
X032215Y006261D03*
X032215Y004962D03*
X034144Y004962D03*
X034144Y006261D03*
X037727Y006261D03*
X037727Y004962D03*
X039656Y004962D03*
X039656Y006261D03*
X043239Y006261D03*
X043239Y004962D03*
X045168Y004962D03*
X045168Y006261D03*
X048750Y006261D03*
X048750Y004962D03*
X050680Y004962D03*
X050680Y006261D03*
X054262Y006261D03*
X054262Y004962D03*
X056191Y004962D03*
X056191Y006261D03*
X059774Y006261D03*
X059774Y004962D03*
X061703Y004962D03*
X061703Y006261D03*
X065286Y006261D03*
X065286Y004962D03*
X067215Y004962D03*
X067215Y006261D03*
X070798Y006261D03*
X070798Y004962D03*
X072727Y004962D03*
X072727Y006261D03*
X076310Y006261D03*
X076310Y004962D03*
X078239Y004962D03*
X078239Y006261D03*
X081821Y006261D03*
X081821Y004962D03*
X083750Y004962D03*
X083750Y006261D03*
X087333Y006261D03*
X087333Y004962D03*
X089262Y004962D03*
X089262Y006261D03*
D13*
X001487Y006431D03*
X001487Y007431D03*
X001487Y008431D03*
X001487Y009431D03*
X001487Y005431D03*
X001487Y004431D03*
D14*
X002904Y006399D03*
X003613Y006399D03*
X003613Y027069D03*
X002904Y027069D03*
X002904Y049116D03*
X003613Y049116D03*
X003613Y071163D03*
X002904Y071163D03*
M02*
