G75*
%MOIN*%
%OFA0B0*%
%FSLAX24Y24*%
%IPPOS*%
%LPD*%
%AMOC8*
5,1,8,0,0,1.08239X$1,22.5*
%
%ADD10C,0.0000*%
%ADD11R,0.0394X0.0433*%
%ADD12R,0.0591X0.0354*%
%ADD13C,0.0740*%
%ADD14R,0.0315X0.0472*%
%ADD15C,0.0100*%
D10*
X000109Y002856D02*
X000109Y091045D01*
X002235Y091045D02*
X002237Y091095D01*
X002243Y091145D01*
X002253Y091194D01*
X002267Y091242D01*
X002284Y091289D01*
X002305Y091334D01*
X002330Y091378D01*
X002358Y091419D01*
X002390Y091458D01*
X002424Y091495D01*
X002461Y091529D01*
X002501Y091559D01*
X002543Y091586D01*
X002587Y091610D01*
X002633Y091631D01*
X002680Y091647D01*
X002728Y091660D01*
X002778Y091669D01*
X002827Y091674D01*
X002878Y091675D01*
X002928Y091672D01*
X002977Y091665D01*
X003026Y091654D01*
X003074Y091639D01*
X003120Y091621D01*
X003165Y091599D01*
X003208Y091573D01*
X003249Y091544D01*
X003288Y091512D01*
X003324Y091477D01*
X003356Y091439D01*
X003386Y091399D01*
X003413Y091356D01*
X003436Y091312D01*
X003455Y091266D01*
X003471Y091218D01*
X003483Y091169D01*
X003491Y091120D01*
X003495Y091070D01*
X003495Y091020D01*
X003491Y090970D01*
X003483Y090921D01*
X003471Y090872D01*
X003455Y090824D01*
X003436Y090778D01*
X003413Y090734D01*
X003386Y090691D01*
X003356Y090651D01*
X003324Y090613D01*
X003288Y090578D01*
X003249Y090546D01*
X003208Y090517D01*
X003165Y090491D01*
X003120Y090469D01*
X003074Y090451D01*
X003026Y090436D01*
X002977Y090425D01*
X002928Y090418D01*
X002878Y090415D01*
X002827Y090416D01*
X002778Y090421D01*
X002728Y090430D01*
X002680Y090443D01*
X002633Y090459D01*
X002587Y090480D01*
X002543Y090504D01*
X002501Y090531D01*
X002461Y090561D01*
X002424Y090595D01*
X002390Y090632D01*
X002358Y090671D01*
X002330Y090712D01*
X002305Y090756D01*
X002284Y090801D01*
X002267Y090848D01*
X002253Y090896D01*
X002243Y090945D01*
X002237Y090995D01*
X002235Y091045D01*
X000109Y091045D02*
X000111Y091148D01*
X000117Y091251D01*
X000126Y091354D01*
X000140Y091456D01*
X000157Y091557D01*
X000178Y091658D01*
X000203Y091758D01*
X000231Y091857D01*
X000264Y091955D01*
X000300Y092052D01*
X000339Y092147D01*
X000382Y092241D01*
X000428Y092333D01*
X000478Y092423D01*
X000531Y092511D01*
X000588Y092598D01*
X000648Y092682D01*
X000710Y092763D01*
X000776Y092843D01*
X000845Y092920D01*
X000916Y092994D01*
X000990Y093065D01*
X001067Y093134D01*
X001147Y093200D01*
X001228Y093262D01*
X001312Y093322D01*
X001399Y093379D01*
X001487Y093432D01*
X001577Y093482D01*
X001669Y093528D01*
X001763Y093571D01*
X001858Y093610D01*
X001955Y093646D01*
X002053Y093679D01*
X002152Y093707D01*
X002252Y093732D01*
X002353Y093753D01*
X002454Y093770D01*
X002556Y093784D01*
X002659Y093793D01*
X002762Y093799D01*
X002865Y093801D01*
X091054Y093801D01*
X090424Y091045D02*
X090426Y091095D01*
X090432Y091145D01*
X090442Y091194D01*
X090456Y091242D01*
X090473Y091289D01*
X090494Y091334D01*
X090519Y091378D01*
X090547Y091419D01*
X090579Y091458D01*
X090613Y091495D01*
X090650Y091529D01*
X090690Y091559D01*
X090732Y091586D01*
X090776Y091610D01*
X090822Y091631D01*
X090869Y091647D01*
X090917Y091660D01*
X090967Y091669D01*
X091016Y091674D01*
X091067Y091675D01*
X091117Y091672D01*
X091166Y091665D01*
X091215Y091654D01*
X091263Y091639D01*
X091309Y091621D01*
X091354Y091599D01*
X091397Y091573D01*
X091438Y091544D01*
X091477Y091512D01*
X091513Y091477D01*
X091545Y091439D01*
X091575Y091399D01*
X091602Y091356D01*
X091625Y091312D01*
X091644Y091266D01*
X091660Y091218D01*
X091672Y091169D01*
X091680Y091120D01*
X091684Y091070D01*
X091684Y091020D01*
X091680Y090970D01*
X091672Y090921D01*
X091660Y090872D01*
X091644Y090824D01*
X091625Y090778D01*
X091602Y090734D01*
X091575Y090691D01*
X091545Y090651D01*
X091513Y090613D01*
X091477Y090578D01*
X091438Y090546D01*
X091397Y090517D01*
X091354Y090491D01*
X091309Y090469D01*
X091263Y090451D01*
X091215Y090436D01*
X091166Y090425D01*
X091117Y090418D01*
X091067Y090415D01*
X091016Y090416D01*
X090967Y090421D01*
X090917Y090430D01*
X090869Y090443D01*
X090822Y090459D01*
X090776Y090480D01*
X090732Y090504D01*
X090690Y090531D01*
X090650Y090561D01*
X090613Y090595D01*
X090579Y090632D01*
X090547Y090671D01*
X090519Y090712D01*
X090494Y090756D01*
X090473Y090801D01*
X090456Y090848D01*
X090442Y090896D01*
X090432Y090945D01*
X090426Y090995D01*
X090424Y091045D01*
X091054Y093801D02*
X091157Y093799D01*
X091260Y093793D01*
X091363Y093784D01*
X091465Y093770D01*
X091566Y093753D01*
X091667Y093732D01*
X091767Y093707D01*
X091866Y093679D01*
X091964Y093646D01*
X092061Y093610D01*
X092156Y093571D01*
X092250Y093528D01*
X092342Y093482D01*
X092432Y093432D01*
X092520Y093379D01*
X092607Y093322D01*
X092691Y093262D01*
X092772Y093200D01*
X092852Y093134D01*
X092929Y093065D01*
X093003Y092994D01*
X093074Y092920D01*
X093143Y092843D01*
X093209Y092763D01*
X093271Y092682D01*
X093331Y092598D01*
X093388Y092511D01*
X093441Y092423D01*
X093491Y092333D01*
X093537Y092241D01*
X093580Y092147D01*
X093619Y092052D01*
X093655Y091955D01*
X093688Y091857D01*
X093716Y091758D01*
X093741Y091658D01*
X093762Y091557D01*
X093779Y091456D01*
X093793Y091354D01*
X093802Y091251D01*
X093808Y091148D01*
X093810Y091045D01*
X093810Y002856D01*
X090424Y002856D02*
X090426Y002906D01*
X090432Y002956D01*
X090442Y003005D01*
X090456Y003053D01*
X090473Y003100D01*
X090494Y003145D01*
X090519Y003189D01*
X090547Y003230D01*
X090579Y003269D01*
X090613Y003306D01*
X090650Y003340D01*
X090690Y003370D01*
X090732Y003397D01*
X090776Y003421D01*
X090822Y003442D01*
X090869Y003458D01*
X090917Y003471D01*
X090967Y003480D01*
X091016Y003485D01*
X091067Y003486D01*
X091117Y003483D01*
X091166Y003476D01*
X091215Y003465D01*
X091263Y003450D01*
X091309Y003432D01*
X091354Y003410D01*
X091397Y003384D01*
X091438Y003355D01*
X091477Y003323D01*
X091513Y003288D01*
X091545Y003250D01*
X091575Y003210D01*
X091602Y003167D01*
X091625Y003123D01*
X091644Y003077D01*
X091660Y003029D01*
X091672Y002980D01*
X091680Y002931D01*
X091684Y002881D01*
X091684Y002831D01*
X091680Y002781D01*
X091672Y002732D01*
X091660Y002683D01*
X091644Y002635D01*
X091625Y002589D01*
X091602Y002545D01*
X091575Y002502D01*
X091545Y002462D01*
X091513Y002424D01*
X091477Y002389D01*
X091438Y002357D01*
X091397Y002328D01*
X091354Y002302D01*
X091309Y002280D01*
X091263Y002262D01*
X091215Y002247D01*
X091166Y002236D01*
X091117Y002229D01*
X091067Y002226D01*
X091016Y002227D01*
X090967Y002232D01*
X090917Y002241D01*
X090869Y002254D01*
X090822Y002270D01*
X090776Y002291D01*
X090732Y002315D01*
X090690Y002342D01*
X090650Y002372D01*
X090613Y002406D01*
X090579Y002443D01*
X090547Y002482D01*
X090519Y002523D01*
X090494Y002567D01*
X090473Y002612D01*
X090456Y002659D01*
X090442Y002707D01*
X090432Y002756D01*
X090426Y002806D01*
X090424Y002856D01*
X091054Y000100D02*
X091157Y000102D01*
X091260Y000108D01*
X091363Y000117D01*
X091465Y000131D01*
X091566Y000148D01*
X091667Y000169D01*
X091767Y000194D01*
X091866Y000222D01*
X091964Y000255D01*
X092061Y000291D01*
X092156Y000330D01*
X092250Y000373D01*
X092342Y000419D01*
X092432Y000469D01*
X092520Y000522D01*
X092607Y000579D01*
X092691Y000639D01*
X092772Y000701D01*
X092852Y000767D01*
X092929Y000836D01*
X093003Y000907D01*
X093074Y000981D01*
X093143Y001058D01*
X093209Y001138D01*
X093271Y001219D01*
X093331Y001303D01*
X093388Y001390D01*
X093441Y001478D01*
X093491Y001568D01*
X093537Y001660D01*
X093580Y001754D01*
X093619Y001849D01*
X093655Y001946D01*
X093688Y002044D01*
X093716Y002143D01*
X093741Y002243D01*
X093762Y002344D01*
X093779Y002445D01*
X093793Y002547D01*
X093802Y002650D01*
X093808Y002753D01*
X093810Y002856D01*
X091054Y000100D02*
X002865Y000100D01*
X002235Y002856D02*
X002237Y002906D01*
X002243Y002956D01*
X002253Y003005D01*
X002267Y003053D01*
X002284Y003100D01*
X002305Y003145D01*
X002330Y003189D01*
X002358Y003230D01*
X002390Y003269D01*
X002424Y003306D01*
X002461Y003340D01*
X002501Y003370D01*
X002543Y003397D01*
X002587Y003421D01*
X002633Y003442D01*
X002680Y003458D01*
X002728Y003471D01*
X002778Y003480D01*
X002827Y003485D01*
X002878Y003486D01*
X002928Y003483D01*
X002977Y003476D01*
X003026Y003465D01*
X003074Y003450D01*
X003120Y003432D01*
X003165Y003410D01*
X003208Y003384D01*
X003249Y003355D01*
X003288Y003323D01*
X003324Y003288D01*
X003356Y003250D01*
X003386Y003210D01*
X003413Y003167D01*
X003436Y003123D01*
X003455Y003077D01*
X003471Y003029D01*
X003483Y002980D01*
X003491Y002931D01*
X003495Y002881D01*
X003495Y002831D01*
X003491Y002781D01*
X003483Y002732D01*
X003471Y002683D01*
X003455Y002635D01*
X003436Y002589D01*
X003413Y002545D01*
X003386Y002502D01*
X003356Y002462D01*
X003324Y002424D01*
X003288Y002389D01*
X003249Y002357D01*
X003208Y002328D01*
X003165Y002302D01*
X003120Y002280D01*
X003074Y002262D01*
X003026Y002247D01*
X002977Y002236D01*
X002928Y002229D01*
X002878Y002226D01*
X002827Y002227D01*
X002778Y002232D01*
X002728Y002241D01*
X002680Y002254D01*
X002633Y002270D01*
X002587Y002291D01*
X002543Y002315D01*
X002501Y002342D01*
X002461Y002372D01*
X002424Y002406D01*
X002390Y002443D01*
X002358Y002482D01*
X002330Y002523D01*
X002305Y002567D01*
X002284Y002612D01*
X002267Y002659D01*
X002253Y002707D01*
X002243Y002756D01*
X002237Y002806D01*
X002235Y002856D01*
X000109Y002856D02*
X000111Y002753D01*
X000117Y002650D01*
X000126Y002547D01*
X000140Y002445D01*
X000157Y002344D01*
X000178Y002243D01*
X000203Y002143D01*
X000231Y002044D01*
X000264Y001946D01*
X000300Y001849D01*
X000339Y001754D01*
X000382Y001660D01*
X000428Y001568D01*
X000478Y001478D01*
X000531Y001390D01*
X000588Y001303D01*
X000648Y001219D01*
X000710Y001138D01*
X000776Y001058D01*
X000845Y000981D01*
X000916Y000907D01*
X000990Y000836D01*
X001067Y000767D01*
X001147Y000701D01*
X001228Y000639D01*
X001312Y000579D01*
X001399Y000522D01*
X001487Y000469D01*
X001577Y000419D01*
X001669Y000373D01*
X001763Y000330D01*
X001858Y000291D01*
X001955Y000255D01*
X002053Y000222D01*
X002152Y000194D01*
X002252Y000169D01*
X002353Y000148D01*
X002454Y000131D01*
X002556Y000117D01*
X002659Y000108D01*
X002762Y000102D01*
X002865Y000100D01*
X004991Y002856D02*
X004993Y002906D01*
X004999Y002956D01*
X005009Y003005D01*
X005023Y003053D01*
X005040Y003100D01*
X005061Y003145D01*
X005086Y003189D01*
X005114Y003230D01*
X005146Y003269D01*
X005180Y003306D01*
X005217Y003340D01*
X005257Y003370D01*
X005299Y003397D01*
X005343Y003421D01*
X005389Y003442D01*
X005436Y003458D01*
X005484Y003471D01*
X005534Y003480D01*
X005583Y003485D01*
X005634Y003486D01*
X005684Y003483D01*
X005733Y003476D01*
X005782Y003465D01*
X005830Y003450D01*
X005876Y003432D01*
X005921Y003410D01*
X005964Y003384D01*
X006005Y003355D01*
X006044Y003323D01*
X006080Y003288D01*
X006112Y003250D01*
X006142Y003210D01*
X006169Y003167D01*
X006192Y003123D01*
X006211Y003077D01*
X006227Y003029D01*
X006239Y002980D01*
X006247Y002931D01*
X006251Y002881D01*
X006251Y002831D01*
X006247Y002781D01*
X006239Y002732D01*
X006227Y002683D01*
X006211Y002635D01*
X006192Y002589D01*
X006169Y002545D01*
X006142Y002502D01*
X006112Y002462D01*
X006080Y002424D01*
X006044Y002389D01*
X006005Y002357D01*
X005964Y002328D01*
X005921Y002302D01*
X005876Y002280D01*
X005830Y002262D01*
X005782Y002247D01*
X005733Y002236D01*
X005684Y002229D01*
X005634Y002226D01*
X005583Y002227D01*
X005534Y002232D01*
X005484Y002241D01*
X005436Y002254D01*
X005389Y002270D01*
X005343Y002291D01*
X005299Y002315D01*
X005257Y002342D01*
X005217Y002372D01*
X005180Y002406D01*
X005146Y002443D01*
X005114Y002482D01*
X005086Y002523D01*
X005061Y002567D01*
X005040Y002612D01*
X005023Y002659D01*
X005009Y002707D01*
X004999Y002756D01*
X004993Y002806D01*
X004991Y002856D01*
X087668Y002856D02*
X087670Y002906D01*
X087676Y002956D01*
X087686Y003005D01*
X087700Y003053D01*
X087717Y003100D01*
X087738Y003145D01*
X087763Y003189D01*
X087791Y003230D01*
X087823Y003269D01*
X087857Y003306D01*
X087894Y003340D01*
X087934Y003370D01*
X087976Y003397D01*
X088020Y003421D01*
X088066Y003442D01*
X088113Y003458D01*
X088161Y003471D01*
X088211Y003480D01*
X088260Y003485D01*
X088311Y003486D01*
X088361Y003483D01*
X088410Y003476D01*
X088459Y003465D01*
X088507Y003450D01*
X088553Y003432D01*
X088598Y003410D01*
X088641Y003384D01*
X088682Y003355D01*
X088721Y003323D01*
X088757Y003288D01*
X088789Y003250D01*
X088819Y003210D01*
X088846Y003167D01*
X088869Y003123D01*
X088888Y003077D01*
X088904Y003029D01*
X088916Y002980D01*
X088924Y002931D01*
X088928Y002881D01*
X088928Y002831D01*
X088924Y002781D01*
X088916Y002732D01*
X088904Y002683D01*
X088888Y002635D01*
X088869Y002589D01*
X088846Y002545D01*
X088819Y002502D01*
X088789Y002462D01*
X088757Y002424D01*
X088721Y002389D01*
X088682Y002357D01*
X088641Y002328D01*
X088598Y002302D01*
X088553Y002280D01*
X088507Y002262D01*
X088459Y002247D01*
X088410Y002236D01*
X088361Y002229D01*
X088311Y002226D01*
X088260Y002227D01*
X088211Y002232D01*
X088161Y002241D01*
X088113Y002254D01*
X088066Y002270D01*
X088020Y002291D01*
X087976Y002315D01*
X087934Y002342D01*
X087894Y002372D01*
X087857Y002406D01*
X087823Y002443D01*
X087791Y002482D01*
X087763Y002523D01*
X087738Y002567D01*
X087717Y002612D01*
X087700Y002659D01*
X087686Y002707D01*
X087676Y002756D01*
X087670Y002806D01*
X087668Y002856D01*
X087668Y091045D02*
X087670Y091095D01*
X087676Y091145D01*
X087686Y091194D01*
X087700Y091242D01*
X087717Y091289D01*
X087738Y091334D01*
X087763Y091378D01*
X087791Y091419D01*
X087823Y091458D01*
X087857Y091495D01*
X087894Y091529D01*
X087934Y091559D01*
X087976Y091586D01*
X088020Y091610D01*
X088066Y091631D01*
X088113Y091647D01*
X088161Y091660D01*
X088211Y091669D01*
X088260Y091674D01*
X088311Y091675D01*
X088361Y091672D01*
X088410Y091665D01*
X088459Y091654D01*
X088507Y091639D01*
X088553Y091621D01*
X088598Y091599D01*
X088641Y091573D01*
X088682Y091544D01*
X088721Y091512D01*
X088757Y091477D01*
X088789Y091439D01*
X088819Y091399D01*
X088846Y091356D01*
X088869Y091312D01*
X088888Y091266D01*
X088904Y091218D01*
X088916Y091169D01*
X088924Y091120D01*
X088928Y091070D01*
X088928Y091020D01*
X088924Y090970D01*
X088916Y090921D01*
X088904Y090872D01*
X088888Y090824D01*
X088869Y090778D01*
X088846Y090734D01*
X088819Y090691D01*
X088789Y090651D01*
X088757Y090613D01*
X088721Y090578D01*
X088682Y090546D01*
X088641Y090517D01*
X088598Y090491D01*
X088553Y090469D01*
X088507Y090451D01*
X088459Y090436D01*
X088410Y090425D01*
X088361Y090418D01*
X088311Y090415D01*
X088260Y090416D01*
X088211Y090421D01*
X088161Y090430D01*
X088113Y090443D01*
X088066Y090459D01*
X088020Y090480D01*
X087976Y090504D01*
X087934Y090531D01*
X087894Y090561D01*
X087857Y090595D01*
X087823Y090632D01*
X087791Y090671D01*
X087763Y090712D01*
X087738Y090756D01*
X087717Y090801D01*
X087700Y090848D01*
X087686Y090896D01*
X087676Y090945D01*
X087670Y090995D01*
X087668Y091045D01*
X004991Y091045D02*
X004993Y091095D01*
X004999Y091145D01*
X005009Y091194D01*
X005023Y091242D01*
X005040Y091289D01*
X005061Y091334D01*
X005086Y091378D01*
X005114Y091419D01*
X005146Y091458D01*
X005180Y091495D01*
X005217Y091529D01*
X005257Y091559D01*
X005299Y091586D01*
X005343Y091610D01*
X005389Y091631D01*
X005436Y091647D01*
X005484Y091660D01*
X005534Y091669D01*
X005583Y091674D01*
X005634Y091675D01*
X005684Y091672D01*
X005733Y091665D01*
X005782Y091654D01*
X005830Y091639D01*
X005876Y091621D01*
X005921Y091599D01*
X005964Y091573D01*
X006005Y091544D01*
X006044Y091512D01*
X006080Y091477D01*
X006112Y091439D01*
X006142Y091399D01*
X006169Y091356D01*
X006192Y091312D01*
X006211Y091266D01*
X006227Y091218D01*
X006239Y091169D01*
X006247Y091120D01*
X006251Y091070D01*
X006251Y091020D01*
X006247Y090970D01*
X006239Y090921D01*
X006227Y090872D01*
X006211Y090824D01*
X006192Y090778D01*
X006169Y090734D01*
X006142Y090691D01*
X006112Y090651D01*
X006080Y090613D01*
X006044Y090578D01*
X006005Y090546D01*
X005964Y090517D01*
X005921Y090491D01*
X005876Y090469D01*
X005830Y090451D01*
X005782Y090436D01*
X005733Y090425D01*
X005684Y090418D01*
X005634Y090415D01*
X005583Y090416D01*
X005534Y090421D01*
X005484Y090430D01*
X005436Y090443D01*
X005389Y090459D01*
X005343Y090480D01*
X005299Y090504D01*
X005257Y090531D01*
X005217Y090561D01*
X005180Y090595D01*
X005146Y090632D01*
X005114Y090671D01*
X005086Y090712D01*
X005061Y090756D01*
X005040Y090801D01*
X005023Y090848D01*
X005009Y090896D01*
X004999Y090945D01*
X004993Y090995D01*
X004991Y091045D01*
D11*
X008376Y088624D03*
X008376Y087954D03*
X008376Y083112D03*
X008376Y082443D03*
X008376Y077600D03*
X008376Y076931D03*
X008376Y072088D03*
X008376Y071419D03*
X008376Y066576D03*
X008376Y065907D03*
X008376Y061065D03*
X008376Y060395D03*
X008376Y055553D03*
X008376Y054883D03*
X008376Y050041D03*
X008376Y049372D03*
X008376Y044529D03*
X008376Y043860D03*
X008376Y039017D03*
X008376Y038348D03*
X008376Y033506D03*
X008376Y032836D03*
X008376Y027994D03*
X008376Y027324D03*
X008376Y022482D03*
X008376Y021813D03*
X008376Y016970D03*
X008376Y016301D03*
X008376Y011458D03*
X008376Y010789D03*
X008376Y005946D03*
X008376Y005277D03*
X013888Y005277D03*
X013888Y005946D03*
X013888Y010789D03*
X013888Y011458D03*
X013888Y016301D03*
X013888Y016970D03*
X013888Y021813D03*
X013888Y022482D03*
X013888Y027324D03*
X013888Y027994D03*
X013888Y032836D03*
X013888Y033506D03*
X013888Y038348D03*
X013888Y039017D03*
X013888Y043860D03*
X013888Y044529D03*
X013888Y049372D03*
X013888Y050041D03*
X013888Y054883D03*
X013888Y055553D03*
X013888Y060395D03*
X013888Y061065D03*
X013888Y065907D03*
X013888Y066576D03*
X013888Y071419D03*
X013888Y072088D03*
X013888Y076931D03*
X013888Y077600D03*
X013888Y082443D03*
X013888Y083112D03*
X013888Y087954D03*
X013888Y088624D03*
X019400Y088624D03*
X019400Y087954D03*
X019400Y083112D03*
X019400Y082443D03*
X019400Y077600D03*
X019400Y076931D03*
X019400Y072088D03*
X019400Y071419D03*
X019400Y066576D03*
X019400Y065907D03*
X019400Y061065D03*
X019400Y060395D03*
X019400Y055553D03*
X019400Y054883D03*
X019400Y050041D03*
X019400Y049372D03*
X019400Y044529D03*
X019400Y043860D03*
X019400Y039017D03*
X019400Y038348D03*
X019400Y033506D03*
X019400Y032836D03*
X019400Y027994D03*
X019400Y027324D03*
X019400Y022482D03*
X019400Y021813D03*
X019400Y016970D03*
X019400Y016301D03*
X019400Y011458D03*
X019400Y010789D03*
X019400Y005946D03*
X019400Y005277D03*
X024912Y005277D03*
X024912Y005946D03*
X024912Y010789D03*
X024912Y011458D03*
X024912Y016301D03*
X024912Y016970D03*
X024912Y021813D03*
X024912Y022482D03*
X024912Y027324D03*
X024912Y027994D03*
X024912Y032836D03*
X024912Y033506D03*
X024912Y038348D03*
X024912Y039017D03*
X024912Y043860D03*
X024912Y044529D03*
X024912Y049372D03*
X024912Y050041D03*
X024912Y054883D03*
X024912Y055553D03*
X024912Y060395D03*
X024912Y061065D03*
X024912Y065907D03*
X024912Y066576D03*
X024912Y071419D03*
X024912Y072088D03*
X024912Y076931D03*
X024912Y077600D03*
X024912Y082443D03*
X024912Y083112D03*
X024912Y087954D03*
X024912Y088624D03*
X030424Y088624D03*
X030424Y087954D03*
X030424Y083112D03*
X030424Y082443D03*
X030424Y077600D03*
X030424Y076931D03*
X030424Y072088D03*
X030424Y071419D03*
X030424Y066576D03*
X030424Y065907D03*
X030424Y061065D03*
X030424Y060395D03*
X030424Y055553D03*
X030424Y054883D03*
X030424Y050041D03*
X030424Y049372D03*
X030424Y044529D03*
X030424Y043860D03*
X030424Y039017D03*
X030424Y038348D03*
X030424Y033506D03*
X030424Y032836D03*
X030424Y027994D03*
X030424Y027324D03*
X030424Y022482D03*
X030424Y021813D03*
X030424Y016970D03*
X030424Y016301D03*
X030424Y011458D03*
X030424Y010789D03*
X030424Y005946D03*
X030424Y005277D03*
X035935Y005277D03*
X035935Y005946D03*
X035935Y010789D03*
X035935Y011458D03*
X035935Y016301D03*
X035935Y016970D03*
X035935Y021813D03*
X035935Y022482D03*
X035935Y027324D03*
X035935Y027994D03*
X035935Y032836D03*
X035935Y033506D03*
X035935Y038348D03*
X035935Y039017D03*
X035935Y043860D03*
X035935Y044529D03*
X035935Y049372D03*
X035935Y050041D03*
X035935Y054883D03*
X035935Y055553D03*
X035935Y060395D03*
X035935Y061065D03*
X035935Y065907D03*
X035935Y066576D03*
X035935Y071419D03*
X035935Y072088D03*
X035935Y076931D03*
X035935Y077600D03*
X035935Y082443D03*
X035935Y083112D03*
X035935Y087954D03*
X035935Y088624D03*
X041447Y088624D03*
X041447Y087954D03*
X041447Y083112D03*
X041447Y082443D03*
X041447Y077600D03*
X041447Y076931D03*
X041447Y072088D03*
X041447Y071419D03*
X041447Y066576D03*
X041447Y065907D03*
X041447Y061065D03*
X041447Y060395D03*
X041447Y055553D03*
X041447Y054883D03*
X041447Y050041D03*
X041447Y049372D03*
X041447Y044529D03*
X041447Y043860D03*
X041447Y039017D03*
X041447Y038348D03*
X041447Y033506D03*
X041447Y032836D03*
X041447Y027994D03*
X041447Y027324D03*
X041447Y022482D03*
X041447Y021813D03*
X041447Y016970D03*
X041447Y016301D03*
X041447Y011458D03*
X041447Y010789D03*
X041447Y005946D03*
X041447Y005277D03*
X046959Y005277D03*
X046959Y005946D03*
X046959Y010789D03*
X046959Y011458D03*
X046959Y016301D03*
X046959Y016970D03*
X046959Y021813D03*
X046959Y022482D03*
X052471Y022482D03*
X052471Y021813D03*
X052471Y016970D03*
X052471Y016301D03*
X052471Y011458D03*
X052471Y010789D03*
X052471Y005946D03*
X052471Y005277D03*
X057983Y005277D03*
X057983Y005946D03*
X057983Y010789D03*
X057983Y011458D03*
X057983Y016301D03*
X057983Y016970D03*
X057983Y021813D03*
X057983Y022482D03*
X057983Y027324D03*
X057983Y027994D03*
X057983Y032836D03*
X057983Y033506D03*
X057983Y038348D03*
X057983Y039017D03*
X057983Y043860D03*
X057983Y044529D03*
X057983Y049372D03*
X057983Y050041D03*
X057983Y054883D03*
X057983Y055553D03*
X057983Y060395D03*
X057983Y061065D03*
X057983Y065907D03*
X057983Y066576D03*
X057983Y071419D03*
X057983Y072088D03*
X057983Y076931D03*
X057983Y077600D03*
X057983Y082443D03*
X057983Y083112D03*
X057983Y087954D03*
X057983Y088624D03*
X063495Y088624D03*
X063495Y087954D03*
X063495Y083112D03*
X063495Y082443D03*
X063495Y077600D03*
X063495Y076931D03*
X063495Y072088D03*
X063495Y071419D03*
X063495Y066576D03*
X063495Y065907D03*
X063495Y061065D03*
X063495Y060395D03*
X063495Y055553D03*
X063495Y054883D03*
X063495Y050041D03*
X063495Y049372D03*
X063495Y044529D03*
X063495Y043860D03*
X063495Y039017D03*
X063495Y038348D03*
X063495Y033506D03*
X063495Y032836D03*
X063495Y027994D03*
X063495Y027324D03*
X063495Y022482D03*
X063495Y021813D03*
X063495Y016970D03*
X063495Y016301D03*
X063495Y011458D03*
X063495Y010789D03*
X063495Y005946D03*
X063495Y005277D03*
X069006Y005277D03*
X069006Y005946D03*
X069006Y010789D03*
X069006Y011458D03*
X069006Y016301D03*
X069006Y016970D03*
X069006Y021813D03*
X069006Y022482D03*
X069006Y027324D03*
X069006Y027994D03*
X069006Y032836D03*
X069006Y033506D03*
X069006Y038348D03*
X069006Y039017D03*
X069006Y043860D03*
X069006Y044529D03*
X069006Y049372D03*
X069006Y050041D03*
X069006Y054883D03*
X069006Y055553D03*
X069006Y060395D03*
X069006Y061065D03*
X069006Y065907D03*
X069006Y066576D03*
X069006Y071419D03*
X069006Y072088D03*
X069006Y076931D03*
X069006Y077600D03*
X069006Y082443D03*
X069006Y083112D03*
X069006Y087954D03*
X069006Y088624D03*
X074518Y088624D03*
X074518Y087954D03*
X074518Y083112D03*
X074518Y082443D03*
X074518Y077600D03*
X074518Y076931D03*
X074518Y072088D03*
X074518Y071419D03*
X074518Y066576D03*
X074518Y065907D03*
X074518Y061065D03*
X074518Y060395D03*
X074518Y055553D03*
X074518Y054883D03*
X074518Y050041D03*
X074518Y049372D03*
X074518Y044529D03*
X074518Y043860D03*
X074518Y039017D03*
X074518Y038348D03*
X074518Y033506D03*
X074518Y032836D03*
X074518Y027994D03*
X074518Y027324D03*
X074518Y022482D03*
X074518Y021813D03*
X074518Y016970D03*
X074518Y016301D03*
X074518Y011458D03*
X074518Y010789D03*
X074518Y005946D03*
X074518Y005277D03*
X080030Y005277D03*
X080030Y005946D03*
X080030Y010789D03*
X080030Y011458D03*
X080030Y016301D03*
X080030Y016970D03*
X080030Y021813D03*
X080030Y022482D03*
X080030Y027324D03*
X080030Y027994D03*
X080030Y032836D03*
X080030Y033506D03*
X080030Y038348D03*
X080030Y039017D03*
X080030Y043860D03*
X080030Y044529D03*
X080030Y049372D03*
X080030Y050041D03*
X080030Y054883D03*
X080030Y055553D03*
X080030Y060395D03*
X080030Y061065D03*
X080030Y065907D03*
X080030Y066576D03*
X080030Y071419D03*
X080030Y072088D03*
X080030Y076931D03*
X080030Y077600D03*
X080030Y082443D03*
X080030Y083112D03*
X080030Y087954D03*
X080030Y088624D03*
X085542Y088624D03*
X085542Y087954D03*
X085542Y083112D03*
X085542Y082443D03*
X085542Y077600D03*
X085542Y076931D03*
X085542Y072088D03*
X085542Y071419D03*
X091054Y071419D03*
X091054Y072088D03*
X091054Y076931D03*
X091054Y077600D03*
X091054Y082443D03*
X091054Y083112D03*
X091054Y087954D03*
X091054Y088624D03*
X091054Y066576D03*
X091054Y065907D03*
X091054Y061065D03*
X091054Y060395D03*
X091054Y055553D03*
X091054Y054883D03*
X091054Y050041D03*
X091054Y049372D03*
X091054Y044529D03*
X091054Y043860D03*
X091054Y039017D03*
X091054Y038348D03*
X091054Y033506D03*
X091054Y032836D03*
X091054Y027994D03*
X091054Y027324D03*
X085542Y027324D03*
X085542Y027994D03*
X085542Y032836D03*
X085542Y033506D03*
X085542Y038348D03*
X085542Y039017D03*
X085542Y043860D03*
X085542Y044529D03*
X085542Y049372D03*
X085542Y050041D03*
X085542Y054883D03*
X085542Y055553D03*
X085542Y060395D03*
X085542Y061065D03*
X085542Y065907D03*
X085542Y066576D03*
X052471Y066576D03*
X052471Y065907D03*
X052471Y061065D03*
X052471Y060395D03*
X052471Y055553D03*
X052471Y054883D03*
X052471Y050041D03*
X052471Y049372D03*
X052471Y044529D03*
X052471Y043860D03*
X052471Y039017D03*
X052471Y038348D03*
X052471Y033506D03*
X052471Y032836D03*
X052471Y027994D03*
X052471Y027324D03*
X046959Y027324D03*
X046959Y027994D03*
X046959Y032836D03*
X046959Y033506D03*
X046959Y038348D03*
X046959Y039017D03*
X046959Y043860D03*
X046959Y044529D03*
X046959Y049372D03*
X046959Y050041D03*
X046959Y054883D03*
X046959Y055553D03*
X046959Y060395D03*
X046959Y061065D03*
X046959Y065907D03*
X046959Y066576D03*
X046959Y071419D03*
X046959Y072088D03*
X046959Y076931D03*
X046959Y077600D03*
X046959Y082443D03*
X046959Y083112D03*
X046959Y087954D03*
X046959Y088624D03*
X052471Y088624D03*
X052471Y087954D03*
X052471Y083112D03*
X052471Y082443D03*
X052471Y077600D03*
X052471Y076931D03*
X052471Y072088D03*
X052471Y071419D03*
X085542Y022482D03*
X085542Y021813D03*
X085542Y016970D03*
X085542Y016301D03*
X085542Y011458D03*
X085542Y010789D03*
X085542Y005946D03*
X085542Y005277D03*
X091054Y005277D03*
X091054Y005946D03*
X091054Y010789D03*
X091054Y011458D03*
X091054Y016301D03*
X091054Y016970D03*
X091054Y021813D03*
X091054Y022482D03*
D12*
X089262Y022797D03*
X089262Y021498D03*
X087333Y021498D03*
X087333Y022797D03*
X083750Y022797D03*
X083750Y021498D03*
X081821Y021498D03*
X081821Y022797D03*
X078239Y022797D03*
X078239Y021498D03*
X076310Y021498D03*
X076310Y022797D03*
X072727Y022797D03*
X072727Y021498D03*
X070798Y021498D03*
X070798Y022797D03*
X067215Y022797D03*
X067215Y021498D03*
X065286Y021498D03*
X065286Y022797D03*
X061703Y022797D03*
X061703Y021498D03*
X059774Y021498D03*
X059774Y022797D03*
X056191Y022797D03*
X056191Y021498D03*
X054262Y021498D03*
X054262Y022797D03*
X050680Y022797D03*
X050680Y021498D03*
X048750Y021498D03*
X048750Y022797D03*
X045168Y022797D03*
X045168Y021498D03*
X043239Y021498D03*
X043239Y022797D03*
X039656Y022797D03*
X039656Y021498D03*
X037727Y021498D03*
X037727Y022797D03*
X034144Y022797D03*
X034144Y021498D03*
X032215Y021498D03*
X032215Y022797D03*
X028632Y022797D03*
X028632Y021498D03*
X026703Y021498D03*
X026703Y022797D03*
X023121Y022797D03*
X023121Y021498D03*
X021191Y021498D03*
X021191Y022797D03*
X017609Y022797D03*
X017609Y021498D03*
X015680Y021498D03*
X015680Y022797D03*
X012097Y022797D03*
X012097Y021498D03*
X010168Y021498D03*
X010168Y022797D03*
X006585Y022797D03*
X006585Y021498D03*
X004656Y021498D03*
X004656Y022797D03*
X004656Y027009D03*
X004656Y028309D03*
X006585Y028309D03*
X006585Y027009D03*
X010168Y027009D03*
X010168Y028309D03*
X012097Y028309D03*
X012097Y027009D03*
X015680Y027009D03*
X015680Y028309D03*
X017609Y028309D03*
X017609Y027009D03*
X021191Y027009D03*
X021191Y028309D03*
X023121Y028309D03*
X023121Y027009D03*
X026703Y027009D03*
X026703Y028309D03*
X028632Y028309D03*
X028632Y027009D03*
X032215Y027009D03*
X032215Y028309D03*
X034144Y028309D03*
X034144Y027009D03*
X037727Y027009D03*
X037727Y028309D03*
X039656Y028309D03*
X039656Y027009D03*
X043239Y027009D03*
X043239Y028309D03*
X045168Y028309D03*
X045168Y027009D03*
X048750Y027009D03*
X048750Y028309D03*
X050680Y028309D03*
X050680Y027009D03*
X054262Y027009D03*
X054262Y028309D03*
X056191Y028309D03*
X056191Y027009D03*
X059774Y027009D03*
X059774Y028309D03*
X061703Y028309D03*
X061703Y027009D03*
X065286Y027009D03*
X065286Y028309D03*
X067215Y028309D03*
X067215Y027009D03*
X070798Y027009D03*
X070798Y028309D03*
X072727Y028309D03*
X072727Y027009D03*
X076310Y027009D03*
X076310Y028309D03*
X078239Y028309D03*
X078239Y027009D03*
X081821Y027009D03*
X081821Y028309D03*
X083750Y028309D03*
X083750Y027009D03*
X087333Y027009D03*
X087333Y028309D03*
X089262Y028309D03*
X089262Y027009D03*
X089262Y032521D03*
X089262Y033820D03*
X087333Y033820D03*
X087333Y032521D03*
X083750Y032521D03*
X083750Y033820D03*
X081821Y033820D03*
X081821Y032521D03*
X078239Y032521D03*
X078239Y033820D03*
X076310Y033820D03*
X076310Y032521D03*
X072727Y032521D03*
X072727Y033820D03*
X070798Y033820D03*
X070798Y032521D03*
X067215Y032521D03*
X067215Y033820D03*
X065286Y033820D03*
X065286Y032521D03*
X061703Y032521D03*
X061703Y033820D03*
X059774Y033820D03*
X059774Y032521D03*
X056191Y032521D03*
X056191Y033820D03*
X054262Y033820D03*
X054262Y032521D03*
X050680Y032521D03*
X050680Y033820D03*
X048750Y033820D03*
X048750Y032521D03*
X045168Y032521D03*
X045168Y033820D03*
X043239Y033820D03*
X043239Y032521D03*
X039656Y032521D03*
X039656Y033820D03*
X037727Y033820D03*
X037727Y032521D03*
X034144Y032521D03*
X034144Y033820D03*
X032215Y033820D03*
X032215Y032521D03*
X028632Y032521D03*
X028632Y033820D03*
X026703Y033820D03*
X026703Y032521D03*
X023121Y032521D03*
X023121Y033820D03*
X021191Y033820D03*
X021191Y032521D03*
X017609Y032521D03*
X017609Y033820D03*
X015680Y033820D03*
X015680Y032521D03*
X012097Y032521D03*
X012097Y033820D03*
X010168Y033820D03*
X010168Y032521D03*
X006585Y032521D03*
X006585Y033820D03*
X004656Y033820D03*
X004656Y032521D03*
X004656Y038033D03*
X004656Y039332D03*
X006585Y039332D03*
X006585Y038033D03*
X010168Y038033D03*
X010168Y039332D03*
X012097Y039332D03*
X012097Y038033D03*
X015680Y038033D03*
X015680Y039332D03*
X017609Y039332D03*
X017609Y038033D03*
X021191Y038033D03*
X021191Y039332D03*
X023121Y039332D03*
X023121Y038033D03*
X026703Y038033D03*
X026703Y039332D03*
X028632Y039332D03*
X028632Y038033D03*
X032215Y038033D03*
X032215Y039332D03*
X034144Y039332D03*
X034144Y038033D03*
X037727Y038033D03*
X037727Y039332D03*
X039656Y039332D03*
X039656Y038033D03*
X043239Y038033D03*
X043239Y039332D03*
X045168Y039332D03*
X045168Y038033D03*
X048750Y038033D03*
X048750Y039332D03*
X050680Y039332D03*
X050680Y038033D03*
X054262Y038033D03*
X054262Y039332D03*
X056191Y039332D03*
X056191Y038033D03*
X059774Y038033D03*
X059774Y039332D03*
X061703Y039332D03*
X061703Y038033D03*
X065286Y038033D03*
X065286Y039332D03*
X067215Y039332D03*
X067215Y038033D03*
X070798Y038033D03*
X070798Y039332D03*
X072727Y039332D03*
X072727Y038033D03*
X076310Y038033D03*
X076310Y039332D03*
X078239Y039332D03*
X078239Y038033D03*
X081821Y038033D03*
X081821Y039332D03*
X083750Y039332D03*
X083750Y038033D03*
X087333Y038033D03*
X087333Y039332D03*
X089262Y039332D03*
X089262Y038033D03*
X089262Y043545D03*
X089262Y044844D03*
X087333Y044844D03*
X087333Y043545D03*
X083750Y043545D03*
X083750Y044844D03*
X081821Y044844D03*
X081821Y043545D03*
X078239Y043545D03*
X078239Y044844D03*
X076310Y044844D03*
X076310Y043545D03*
X072727Y043545D03*
X072727Y044844D03*
X070798Y044844D03*
X070798Y043545D03*
X067215Y043545D03*
X067215Y044844D03*
X065286Y044844D03*
X065286Y043545D03*
X061703Y043545D03*
X061703Y044844D03*
X059774Y044844D03*
X059774Y043545D03*
X056191Y043545D03*
X056191Y044844D03*
X054262Y044844D03*
X054262Y043545D03*
X050680Y043545D03*
X050680Y044844D03*
X048750Y044844D03*
X048750Y043545D03*
X045168Y043545D03*
X045168Y044844D03*
X043239Y044844D03*
X043239Y043545D03*
X039656Y043545D03*
X039656Y044844D03*
X037727Y044844D03*
X037727Y043545D03*
X034144Y043545D03*
X034144Y044844D03*
X032215Y044844D03*
X032215Y043545D03*
X028632Y043545D03*
X028632Y044844D03*
X026703Y044844D03*
X026703Y043545D03*
X023121Y043545D03*
X023121Y044844D03*
X021191Y044844D03*
X021191Y043545D03*
X017609Y043545D03*
X017609Y044844D03*
X015680Y044844D03*
X015680Y043545D03*
X012097Y043545D03*
X012097Y044844D03*
X010168Y044844D03*
X010168Y043545D03*
X006585Y043545D03*
X006585Y044844D03*
X004656Y044844D03*
X004656Y043545D03*
X004656Y049057D03*
X004656Y050356D03*
X006585Y050356D03*
X006585Y049057D03*
X010168Y049057D03*
X010168Y050356D03*
X012097Y050356D03*
X012097Y049057D03*
X015680Y049057D03*
X015680Y050356D03*
X017609Y050356D03*
X017609Y049057D03*
X021191Y049057D03*
X021191Y050356D03*
X023121Y050356D03*
X023121Y049057D03*
X026703Y049057D03*
X026703Y050356D03*
X028632Y050356D03*
X028632Y049057D03*
X032215Y049057D03*
X032215Y050356D03*
X034144Y050356D03*
X034144Y049057D03*
X037727Y049057D03*
X037727Y050356D03*
X039656Y050356D03*
X039656Y049057D03*
X043239Y049057D03*
X043239Y050356D03*
X045168Y050356D03*
X045168Y049057D03*
X048750Y049057D03*
X048750Y050356D03*
X050680Y050356D03*
X050680Y049057D03*
X054262Y049057D03*
X054262Y050356D03*
X056191Y050356D03*
X056191Y049057D03*
X059774Y049057D03*
X059774Y050356D03*
X061703Y050356D03*
X061703Y049057D03*
X065286Y049057D03*
X065286Y050356D03*
X067215Y050356D03*
X067215Y049057D03*
X070798Y049057D03*
X070798Y050356D03*
X072727Y050356D03*
X072727Y049057D03*
X076310Y049057D03*
X076310Y050356D03*
X078239Y050356D03*
X078239Y049057D03*
X081821Y049057D03*
X081821Y050356D03*
X083750Y050356D03*
X083750Y049057D03*
X087333Y049057D03*
X087333Y050356D03*
X089262Y050356D03*
X089262Y049057D03*
X089262Y054569D03*
X089262Y055868D03*
X087333Y055868D03*
X087333Y054569D03*
X083750Y054569D03*
X083750Y055868D03*
X081821Y055868D03*
X081821Y054569D03*
X078239Y054569D03*
X078239Y055868D03*
X076310Y055868D03*
X076310Y054569D03*
X072727Y054569D03*
X072727Y055868D03*
X070798Y055868D03*
X070798Y054569D03*
X067215Y054569D03*
X067215Y055868D03*
X065286Y055868D03*
X065286Y054569D03*
X061703Y054569D03*
X061703Y055868D03*
X059774Y055868D03*
X059774Y054569D03*
X056191Y054569D03*
X056191Y055868D03*
X054262Y055868D03*
X054262Y054569D03*
X050680Y054569D03*
X050680Y055868D03*
X048750Y055868D03*
X048750Y054569D03*
X045168Y054569D03*
X045168Y055868D03*
X043239Y055868D03*
X043239Y054569D03*
X039656Y054569D03*
X039656Y055868D03*
X037727Y055868D03*
X037727Y054569D03*
X034144Y054569D03*
X034144Y055868D03*
X032215Y055868D03*
X032215Y054569D03*
X028632Y054569D03*
X028632Y055868D03*
X026703Y055868D03*
X026703Y054569D03*
X023121Y054569D03*
X023121Y055868D03*
X021191Y055868D03*
X021191Y054569D03*
X017609Y054569D03*
X017609Y055868D03*
X015680Y055868D03*
X015680Y054569D03*
X012097Y054569D03*
X012097Y055868D03*
X010168Y055868D03*
X010168Y054569D03*
X006585Y054569D03*
X006585Y055868D03*
X004656Y055868D03*
X004656Y054569D03*
X004656Y060080D03*
X004656Y061380D03*
X006585Y061380D03*
X006585Y060080D03*
X010168Y060080D03*
X010168Y061380D03*
X012097Y061380D03*
X012097Y060080D03*
X015680Y060080D03*
X015680Y061380D03*
X017609Y061380D03*
X017609Y060080D03*
X021191Y060080D03*
X021191Y061380D03*
X023121Y061380D03*
X023121Y060080D03*
X026703Y060080D03*
X026703Y061380D03*
X028632Y061380D03*
X028632Y060080D03*
X032215Y060080D03*
X032215Y061380D03*
X034144Y061380D03*
X034144Y060080D03*
X037727Y060080D03*
X037727Y061380D03*
X039656Y061380D03*
X039656Y060080D03*
X043239Y060080D03*
X043239Y061380D03*
X045168Y061380D03*
X045168Y060080D03*
X048750Y060080D03*
X048750Y061380D03*
X050680Y061380D03*
X050680Y060080D03*
X054262Y060080D03*
X054262Y061380D03*
X056191Y061380D03*
X056191Y060080D03*
X059774Y060080D03*
X059774Y061380D03*
X061703Y061380D03*
X061703Y060080D03*
X065286Y060080D03*
X065286Y061380D03*
X067215Y061380D03*
X067215Y060080D03*
X070798Y060080D03*
X070798Y061380D03*
X072727Y061380D03*
X072727Y060080D03*
X076310Y060080D03*
X076310Y061380D03*
X078239Y061380D03*
X078239Y060080D03*
X081821Y060080D03*
X081821Y061380D03*
X083750Y061380D03*
X083750Y060080D03*
X087333Y060080D03*
X087333Y061380D03*
X089262Y061380D03*
X089262Y060080D03*
X089262Y065592D03*
X089262Y066891D03*
X087333Y066891D03*
X087333Y065592D03*
X083750Y065592D03*
X083750Y066891D03*
X081821Y066891D03*
X081821Y065592D03*
X078239Y065592D03*
X078239Y066891D03*
X076310Y066891D03*
X076310Y065592D03*
X072727Y065592D03*
X072727Y066891D03*
X070798Y066891D03*
X070798Y065592D03*
X067215Y065592D03*
X067215Y066891D03*
X065286Y066891D03*
X065286Y065592D03*
X061703Y065592D03*
X061703Y066891D03*
X059774Y066891D03*
X059774Y065592D03*
X056191Y065592D03*
X056191Y066891D03*
X054262Y066891D03*
X054262Y065592D03*
X050680Y065592D03*
X050680Y066891D03*
X048750Y066891D03*
X048750Y065592D03*
X045168Y065592D03*
X045168Y066891D03*
X043239Y066891D03*
X043239Y065592D03*
X039656Y065592D03*
X039656Y066891D03*
X037727Y066891D03*
X037727Y065592D03*
X034144Y065592D03*
X034144Y066891D03*
X032215Y066891D03*
X032215Y065592D03*
X028632Y065592D03*
X028632Y066891D03*
X026703Y066891D03*
X026703Y065592D03*
X023121Y065592D03*
X023121Y066891D03*
X021191Y066891D03*
X021191Y065592D03*
X017609Y065592D03*
X017609Y066891D03*
X015680Y066891D03*
X015680Y065592D03*
X012097Y065592D03*
X012097Y066891D03*
X010168Y066891D03*
X010168Y065592D03*
X006585Y065592D03*
X006585Y066891D03*
X004656Y066891D03*
X004656Y065592D03*
X004656Y071104D03*
X004656Y072403D03*
X006585Y072403D03*
X006585Y071104D03*
X010168Y071104D03*
X010168Y072403D03*
X012097Y072403D03*
X012097Y071104D03*
X015680Y071104D03*
X015680Y072403D03*
X017609Y072403D03*
X017609Y071104D03*
X021191Y071104D03*
X021191Y072403D03*
X023121Y072403D03*
X023121Y071104D03*
X026703Y071104D03*
X026703Y072403D03*
X028632Y072403D03*
X028632Y071104D03*
X032215Y071104D03*
X032215Y072403D03*
X034144Y072403D03*
X034144Y071104D03*
X037727Y071104D03*
X037727Y072403D03*
X039656Y072403D03*
X039656Y071104D03*
X043239Y071104D03*
X043239Y072403D03*
X045168Y072403D03*
X045168Y071104D03*
X048750Y071104D03*
X048750Y072403D03*
X050680Y072403D03*
X050680Y071104D03*
X054262Y071104D03*
X054262Y072403D03*
X056191Y072403D03*
X056191Y071104D03*
X059774Y071104D03*
X059774Y072403D03*
X061703Y072403D03*
X061703Y071104D03*
X065286Y071104D03*
X065286Y072403D03*
X067215Y072403D03*
X067215Y071104D03*
X070798Y071104D03*
X070798Y072403D03*
X072727Y072403D03*
X072727Y071104D03*
X076310Y071104D03*
X076310Y072403D03*
X078239Y072403D03*
X078239Y071104D03*
X081821Y071104D03*
X081821Y072403D03*
X083750Y072403D03*
X083750Y071104D03*
X087333Y071104D03*
X087333Y072403D03*
X089262Y072403D03*
X089262Y071104D03*
X089262Y076616D03*
X089262Y077915D03*
X087333Y077915D03*
X087333Y076616D03*
X083750Y076616D03*
X083750Y077915D03*
X081821Y077915D03*
X081821Y076616D03*
X078239Y076616D03*
X078239Y077915D03*
X076310Y077915D03*
X076310Y076616D03*
X072727Y076616D03*
X072727Y077915D03*
X070798Y077915D03*
X070798Y076616D03*
X067215Y076616D03*
X067215Y077915D03*
X065286Y077915D03*
X065286Y076616D03*
X061703Y076616D03*
X061703Y077915D03*
X059774Y077915D03*
X059774Y076616D03*
X056191Y076616D03*
X056191Y077915D03*
X054262Y077915D03*
X054262Y076616D03*
X050680Y076616D03*
X050680Y077915D03*
X048750Y077915D03*
X048750Y076616D03*
X045168Y076616D03*
X045168Y077915D03*
X043239Y077915D03*
X043239Y076616D03*
X039656Y076616D03*
X039656Y077915D03*
X037727Y077915D03*
X037727Y076616D03*
X034144Y076616D03*
X034144Y077915D03*
X032215Y077915D03*
X032215Y076616D03*
X028632Y076616D03*
X028632Y077915D03*
X026703Y077915D03*
X026703Y076616D03*
X023121Y076616D03*
X023121Y077915D03*
X021191Y077915D03*
X021191Y076616D03*
X017609Y076616D03*
X017609Y077915D03*
X015680Y077915D03*
X015680Y076616D03*
X012097Y076616D03*
X012097Y077915D03*
X010168Y077915D03*
X010168Y076616D03*
X006585Y076616D03*
X006585Y077915D03*
X004656Y077915D03*
X004656Y076616D03*
X004656Y082128D03*
X004656Y083427D03*
X006585Y083427D03*
X006585Y082128D03*
X010168Y082128D03*
X010168Y083427D03*
X012097Y083427D03*
X012097Y082128D03*
X015680Y082128D03*
X015680Y083427D03*
X017609Y083427D03*
X017609Y082128D03*
X021191Y082128D03*
X021191Y083427D03*
X023121Y083427D03*
X023121Y082128D03*
X026703Y082128D03*
X026703Y083427D03*
X028632Y083427D03*
X028632Y082128D03*
X032215Y082128D03*
X032215Y083427D03*
X034144Y083427D03*
X034144Y082128D03*
X037727Y082128D03*
X037727Y083427D03*
X039656Y083427D03*
X039656Y082128D03*
X043239Y082128D03*
X043239Y083427D03*
X045168Y083427D03*
X045168Y082128D03*
X048750Y082128D03*
X048750Y083427D03*
X050680Y083427D03*
X050680Y082128D03*
X054262Y082128D03*
X054262Y083427D03*
X056191Y083427D03*
X056191Y082128D03*
X059774Y082128D03*
X059774Y083427D03*
X061703Y083427D03*
X061703Y082128D03*
X065286Y082128D03*
X065286Y083427D03*
X067215Y083427D03*
X067215Y082128D03*
X070798Y082128D03*
X070798Y083427D03*
X072727Y083427D03*
X072727Y082128D03*
X076310Y082128D03*
X076310Y083427D03*
X078239Y083427D03*
X078239Y082128D03*
X081821Y082128D03*
X081821Y083427D03*
X083750Y083427D03*
X083750Y082128D03*
X087333Y082128D03*
X087333Y083427D03*
X089262Y083427D03*
X089262Y082128D03*
X089262Y087639D03*
X089262Y088939D03*
X087333Y088939D03*
X087333Y087639D03*
X083750Y087639D03*
X083750Y088939D03*
X081821Y088939D03*
X081821Y087639D03*
X078239Y087639D03*
X078239Y088939D03*
X076310Y088939D03*
X076310Y087639D03*
X072727Y087639D03*
X072727Y088939D03*
X070798Y088939D03*
X070798Y087639D03*
X067215Y087639D03*
X067215Y088939D03*
X065286Y088939D03*
X065286Y087639D03*
X061703Y087639D03*
X061703Y088939D03*
X059774Y088939D03*
X059774Y087639D03*
X056191Y087639D03*
X056191Y088939D03*
X054262Y088939D03*
X054262Y087639D03*
X050680Y087639D03*
X050680Y088939D03*
X048750Y088939D03*
X048750Y087639D03*
X045168Y087639D03*
X045168Y088939D03*
X043239Y088939D03*
X043239Y087639D03*
X039656Y087639D03*
X039656Y088939D03*
X037727Y088939D03*
X037727Y087639D03*
X034144Y087639D03*
X034144Y088939D03*
X032215Y088939D03*
X032215Y087639D03*
X028632Y087639D03*
X028632Y088939D03*
X026703Y088939D03*
X026703Y087639D03*
X023121Y087639D03*
X023121Y088939D03*
X021191Y088939D03*
X021191Y087639D03*
X017609Y087639D03*
X017609Y088939D03*
X015680Y088939D03*
X015680Y087639D03*
X012097Y087639D03*
X012097Y088939D03*
X010168Y088939D03*
X010168Y087639D03*
X006585Y087639D03*
X006585Y088939D03*
X004656Y088939D03*
X004656Y087639D03*
X004656Y017285D03*
X004656Y015986D03*
X006585Y015986D03*
X006585Y017285D03*
X010168Y017285D03*
X010168Y015986D03*
X012097Y015986D03*
X012097Y017285D03*
X015680Y017285D03*
X015680Y015986D03*
X017609Y015986D03*
X017609Y017285D03*
X021191Y017285D03*
X021191Y015986D03*
X023121Y015986D03*
X023121Y017285D03*
X026703Y017285D03*
X026703Y015986D03*
X028632Y015986D03*
X028632Y017285D03*
X032215Y017285D03*
X032215Y015986D03*
X034144Y015986D03*
X034144Y017285D03*
X037727Y017285D03*
X037727Y015986D03*
X039656Y015986D03*
X039656Y017285D03*
X043239Y017285D03*
X043239Y015986D03*
X045168Y015986D03*
X045168Y017285D03*
X048750Y017285D03*
X048750Y015986D03*
X050680Y015986D03*
X050680Y017285D03*
X054262Y017285D03*
X054262Y015986D03*
X056191Y015986D03*
X056191Y017285D03*
X059774Y017285D03*
X059774Y015986D03*
X061703Y015986D03*
X061703Y017285D03*
X065286Y017285D03*
X065286Y015986D03*
X067215Y015986D03*
X067215Y017285D03*
X070798Y017285D03*
X070798Y015986D03*
X072727Y015986D03*
X072727Y017285D03*
X076310Y017285D03*
X076310Y015986D03*
X078239Y015986D03*
X078239Y017285D03*
X081821Y017285D03*
X081821Y015986D03*
X083750Y015986D03*
X083750Y017285D03*
X087333Y017285D03*
X087333Y015986D03*
X089262Y015986D03*
X089262Y017285D03*
X089262Y011773D03*
X089262Y010474D03*
X087333Y010474D03*
X087333Y011773D03*
X083750Y011773D03*
X083750Y010474D03*
X081821Y010474D03*
X081821Y011773D03*
X078239Y011773D03*
X078239Y010474D03*
X076310Y010474D03*
X076310Y011773D03*
X072727Y011773D03*
X072727Y010474D03*
X070798Y010474D03*
X070798Y011773D03*
X067215Y011773D03*
X067215Y010474D03*
X065286Y010474D03*
X065286Y011773D03*
X061703Y011773D03*
X061703Y010474D03*
X059774Y010474D03*
X059774Y011773D03*
X056191Y011773D03*
X056191Y010474D03*
X054262Y010474D03*
X054262Y011773D03*
X050680Y011773D03*
X050680Y010474D03*
X048750Y010474D03*
X048750Y011773D03*
X045168Y011773D03*
X045168Y010474D03*
X043239Y010474D03*
X043239Y011773D03*
X039656Y011773D03*
X039656Y010474D03*
X037727Y010474D03*
X037727Y011773D03*
X034144Y011773D03*
X034144Y010474D03*
X032215Y010474D03*
X032215Y011773D03*
X028632Y011773D03*
X028632Y010474D03*
X026703Y010474D03*
X026703Y011773D03*
X023121Y011773D03*
X023121Y010474D03*
X021191Y010474D03*
X021191Y011773D03*
X017609Y011773D03*
X017609Y010474D03*
X015680Y010474D03*
X015680Y011773D03*
X012097Y011773D03*
X012097Y010474D03*
X010168Y010474D03*
X010168Y011773D03*
X006585Y011773D03*
X006585Y010474D03*
X004656Y010474D03*
X004656Y011773D03*
X004656Y006261D03*
X004656Y004962D03*
X006585Y004962D03*
X006585Y006261D03*
X010168Y006261D03*
X010168Y004962D03*
X012097Y004962D03*
X012097Y006261D03*
X015680Y006261D03*
X015680Y004962D03*
X017609Y004962D03*
X017609Y006261D03*
X021191Y006261D03*
X021191Y004962D03*
X023121Y004962D03*
X023121Y006261D03*
X026703Y006261D03*
X026703Y004962D03*
X028632Y004962D03*
X028632Y006261D03*
X032215Y006261D03*
X032215Y004962D03*
X034144Y004962D03*
X034144Y006261D03*
X037727Y006261D03*
X037727Y004962D03*
X039656Y004962D03*
X039656Y006261D03*
X043239Y006261D03*
X043239Y004962D03*
X045168Y004962D03*
X045168Y006261D03*
X048750Y006261D03*
X048750Y004962D03*
X050680Y004962D03*
X050680Y006261D03*
X054262Y006261D03*
X054262Y004962D03*
X056191Y004962D03*
X056191Y006261D03*
X059774Y006261D03*
X059774Y004962D03*
X061703Y004962D03*
X061703Y006261D03*
X065286Y006261D03*
X065286Y004962D03*
X067215Y004962D03*
X067215Y006261D03*
X070798Y006261D03*
X070798Y004962D03*
X072727Y004962D03*
X072727Y006261D03*
X076310Y006261D03*
X076310Y004962D03*
X078239Y004962D03*
X078239Y006261D03*
X081821Y006261D03*
X081821Y004962D03*
X083750Y004962D03*
X083750Y006261D03*
X087333Y006261D03*
X087333Y004962D03*
X089262Y004962D03*
X089262Y006261D03*
D13*
X001487Y006431D03*
X001487Y007431D03*
X001487Y008431D03*
X001487Y009431D03*
X001487Y005431D03*
X001487Y004431D03*
D14*
X002904Y006399D03*
X003613Y006399D03*
X003613Y027069D03*
X002904Y027069D03*
X002904Y049116D03*
X003613Y049116D03*
X003613Y071163D03*
X002904Y071163D03*
D15*
X001487Y069746D01*
X001487Y009431D01*
X002077Y009021D02*
X001487Y008431D01*
X002077Y009021D02*
X002077Y048289D01*
X002904Y049116D01*
X003613Y049116D02*
X003613Y049057D01*
X004656Y049057D01*
X004813Y050297D02*
X003258Y050297D01*
X003258Y044785D01*
X004636Y044785D01*
X004636Y044844D01*
X004656Y044844D01*
X005187Y045376D01*
X008376Y045376D01*
X008376Y044529D01*
X008376Y043860D02*
X008376Y043013D01*
X012097Y043013D01*
X012097Y043545D01*
X012097Y043013D02*
X013888Y043013D01*
X013888Y043860D01*
X013888Y044529D02*
X013888Y045376D01*
X015660Y045376D01*
X015660Y044844D01*
X015680Y044844D01*
X015660Y045376D02*
X019400Y045376D01*
X019400Y044529D01*
X019400Y043860D02*
X019400Y043013D01*
X023121Y043013D01*
X023121Y043545D01*
X023121Y043013D02*
X024912Y043013D01*
X024912Y043860D01*
X024912Y044529D02*
X024912Y045376D01*
X026684Y045376D01*
X026684Y044844D01*
X026703Y044844D01*
X026684Y045376D02*
X030424Y045376D01*
X030424Y044529D01*
X030424Y043860D02*
X030424Y043013D01*
X034144Y043013D01*
X034144Y043545D01*
X034144Y043013D02*
X035935Y043013D01*
X035935Y043860D01*
X035935Y044529D02*
X035935Y045376D01*
X037707Y045376D01*
X037707Y044844D01*
X037727Y044844D01*
X037707Y045376D02*
X041447Y045376D01*
X041447Y044529D01*
X041447Y043860D02*
X041447Y043013D01*
X045168Y043013D01*
X045168Y043545D01*
X045168Y043013D02*
X046959Y043013D01*
X046959Y043860D01*
X046959Y044529D02*
X046959Y045376D01*
X048731Y045376D01*
X048731Y044844D01*
X048750Y044844D01*
X048731Y045376D02*
X052471Y045376D01*
X052471Y044529D01*
X052471Y043860D02*
X052471Y043013D01*
X056191Y043013D01*
X056191Y043545D01*
X056191Y043013D02*
X057983Y043013D01*
X057983Y043860D01*
X057983Y044529D02*
X057983Y045376D01*
X059754Y045376D01*
X059754Y044844D01*
X059774Y044844D01*
X059754Y045376D02*
X063495Y045376D01*
X063495Y044529D01*
X063495Y043860D02*
X063495Y043013D01*
X067215Y043013D01*
X067215Y043545D01*
X067215Y043013D02*
X069006Y043013D01*
X069006Y043860D01*
X069006Y044529D02*
X069006Y045376D01*
X070778Y045376D01*
X070778Y044844D01*
X070798Y044844D01*
X070778Y045376D02*
X074518Y045376D01*
X074518Y044529D01*
X074518Y043860D02*
X074518Y043013D01*
X078239Y043013D01*
X078239Y043545D01*
X078239Y043013D02*
X080030Y043013D01*
X080030Y043860D01*
X080030Y044529D02*
X080030Y045376D01*
X081802Y045376D01*
X081802Y044844D01*
X081821Y044844D01*
X081802Y045376D02*
X085542Y045376D01*
X086802Y045376D01*
X087333Y044844D01*
X087983Y044194D01*
X090069Y044194D01*
X090404Y044529D01*
X091054Y044529D01*
X091054Y043860D02*
X091054Y043801D01*
X092432Y043801D01*
X092432Y049313D01*
X091054Y049313D01*
X091054Y049372D01*
X090207Y048525D01*
X089262Y048525D01*
X089262Y049057D01*
X089262Y048525D02*
X085542Y048525D01*
X085542Y049372D01*
X085542Y050041D02*
X085542Y050887D01*
X086802Y050887D01*
X087333Y050356D01*
X087983Y049706D01*
X090069Y049706D01*
X090404Y050041D01*
X091054Y050041D01*
X089262Y050356D02*
X087156Y052462D01*
X006762Y052462D01*
X004656Y054569D01*
X004636Y055809D02*
X003258Y055809D01*
X003258Y050297D01*
X004656Y050356D02*
X004813Y050513D01*
X004813Y050297D01*
X004813Y050513D02*
X005187Y050887D01*
X008376Y050887D01*
X008376Y050041D01*
X008376Y049372D02*
X008376Y048525D01*
X012097Y048525D01*
X012097Y049057D01*
X012097Y048525D02*
X013888Y048525D01*
X013888Y049372D01*
X013888Y050041D02*
X013888Y050887D01*
X015660Y050887D01*
X015660Y050356D01*
X015680Y050356D01*
X015660Y050887D02*
X019400Y050887D01*
X019400Y050041D01*
X019400Y049372D02*
X019400Y048525D01*
X023121Y048525D01*
X023121Y049057D01*
X023121Y048525D02*
X024912Y048525D01*
X024912Y049372D01*
X024912Y050041D02*
X024912Y050887D01*
X026684Y050887D01*
X026684Y050356D01*
X026703Y050356D01*
X026684Y050887D02*
X030424Y050887D01*
X030424Y050041D01*
X030424Y049372D02*
X030424Y048525D01*
X034144Y048525D01*
X034144Y049057D01*
X034144Y048525D02*
X035935Y048525D01*
X035935Y049372D01*
X035935Y050041D02*
X035935Y050887D01*
X037707Y050887D01*
X037707Y050356D01*
X037727Y050356D01*
X037707Y050887D02*
X041447Y050887D01*
X041447Y050041D01*
X041447Y049372D02*
X041447Y048525D01*
X045168Y048525D01*
X045168Y049057D01*
X045168Y048525D02*
X046959Y048525D01*
X046959Y049372D01*
X046959Y050041D02*
X046959Y050887D01*
X048731Y050887D01*
X048731Y050356D01*
X048750Y050356D01*
X048731Y050887D02*
X052471Y050887D01*
X052471Y050041D01*
X052471Y049372D02*
X052471Y048525D01*
X056191Y048525D01*
X056191Y049057D01*
X056191Y048525D02*
X057983Y048525D01*
X057983Y049372D01*
X057983Y050041D02*
X057983Y050887D01*
X059754Y050887D01*
X059754Y050356D01*
X059774Y050356D01*
X059754Y050887D02*
X063495Y050887D01*
X063495Y050041D01*
X063495Y049372D02*
X063495Y048525D01*
X067215Y048525D01*
X067215Y049057D01*
X067215Y048525D02*
X069006Y048525D01*
X069006Y049372D01*
X069006Y050041D02*
X069006Y050887D01*
X070778Y050887D01*
X070778Y050356D01*
X070798Y050356D01*
X070778Y050887D02*
X074518Y050887D01*
X074518Y050041D01*
X074518Y049372D02*
X074518Y048525D01*
X078239Y048525D01*
X078239Y049057D01*
X078239Y048525D02*
X080030Y048525D01*
X080030Y049372D01*
X080030Y050041D02*
X080030Y050887D01*
X081802Y050887D01*
X081802Y050356D01*
X081821Y050356D01*
X081802Y050887D02*
X085542Y050887D01*
X086684Y049706D02*
X084400Y049706D01*
X083750Y050356D01*
X083750Y049057D02*
X083750Y048525D01*
X085542Y048525D01*
X086684Y049706D02*
X087333Y049057D01*
X083750Y048525D02*
X080030Y048525D01*
X081172Y049706D02*
X078888Y049706D01*
X078239Y050356D01*
X080030Y050887D02*
X076290Y050887D01*
X076290Y050356D01*
X076310Y050356D01*
X076290Y050887D02*
X074518Y050887D01*
X073376Y049706D02*
X072727Y050356D01*
X073376Y049706D02*
X075660Y049706D01*
X076310Y049057D01*
X074518Y048525D02*
X072727Y048525D01*
X072727Y049057D01*
X072727Y048525D02*
X069006Y048525D01*
X067865Y049706D02*
X067215Y050356D01*
X067865Y049706D02*
X070148Y049706D01*
X070798Y049057D01*
X069006Y050887D02*
X065266Y050887D01*
X065266Y050356D01*
X065286Y050356D01*
X065266Y050887D02*
X063495Y050887D01*
X064636Y049706D02*
X062353Y049706D01*
X061703Y050356D01*
X061703Y049057D02*
X061703Y048525D01*
X063495Y048525D01*
X064636Y049706D02*
X065286Y049057D01*
X061703Y048525D02*
X057983Y048525D01*
X059124Y049706D02*
X056841Y049706D01*
X056191Y050356D01*
X057983Y050887D02*
X054243Y050887D01*
X054243Y050356D01*
X054262Y050356D01*
X054243Y050887D02*
X052471Y050887D01*
X053613Y049706D02*
X051329Y049706D01*
X050680Y050356D01*
X050680Y049057D02*
X050680Y048525D01*
X052471Y048525D01*
X053613Y049706D02*
X054262Y049057D01*
X050680Y048525D02*
X046959Y048525D01*
X048101Y049706D02*
X045817Y049706D01*
X045168Y050356D01*
X046959Y050887D02*
X043219Y050887D01*
X043219Y050356D01*
X043239Y050356D01*
X043219Y050887D02*
X041447Y050887D01*
X040306Y049706D02*
X039656Y050356D01*
X040306Y049706D02*
X042589Y049706D01*
X043239Y049057D01*
X041447Y048525D02*
X039656Y048525D01*
X039656Y049057D01*
X039656Y048525D02*
X035935Y048525D01*
X034794Y049706D02*
X034144Y050356D01*
X034794Y049706D02*
X037077Y049706D01*
X037727Y049057D01*
X035935Y050887D02*
X032195Y050887D01*
X032195Y050356D01*
X032215Y050356D01*
X032195Y050887D02*
X030424Y050887D01*
X031565Y049706D02*
X029282Y049706D01*
X028632Y050356D01*
X028632Y049057D02*
X028632Y048525D01*
X030424Y048525D01*
X031565Y049706D02*
X032215Y049057D01*
X028632Y048525D02*
X024912Y048525D01*
X026054Y049706D02*
X023770Y049706D01*
X023121Y050356D01*
X024912Y050887D02*
X021172Y050887D01*
X021172Y050356D01*
X021191Y050356D01*
X021172Y050887D02*
X019400Y050887D01*
X018258Y049706D02*
X017609Y050356D01*
X018258Y049706D02*
X020542Y049706D01*
X021191Y049057D01*
X019400Y048525D02*
X017609Y048525D01*
X017609Y049057D01*
X017609Y048525D02*
X013888Y048525D01*
X012747Y049706D02*
X012097Y050356D01*
X012747Y049706D02*
X015030Y049706D01*
X015680Y049057D01*
X013888Y050887D02*
X010148Y050887D01*
X010148Y050376D01*
X010168Y050356D01*
X010148Y050887D02*
X008376Y050887D01*
X007235Y049706D02*
X006585Y050356D01*
X007235Y049706D02*
X009518Y049706D01*
X010168Y049057D01*
X008376Y048525D02*
X007117Y048525D01*
X006585Y049057D01*
X008376Y045376D02*
X010148Y045376D01*
X010148Y044864D01*
X010168Y044844D01*
X010148Y045376D02*
X013888Y045376D01*
X012747Y044194D02*
X012097Y044844D01*
X012747Y044194D02*
X015030Y044194D01*
X015680Y043545D01*
X013888Y043013D02*
X017609Y043013D01*
X017609Y043545D01*
X017609Y043013D02*
X019400Y043013D01*
X018258Y044194D02*
X017609Y044844D01*
X018258Y044194D02*
X020542Y044194D01*
X021191Y043545D01*
X021191Y044844D02*
X021172Y044844D01*
X021172Y045376D01*
X024912Y045376D01*
X026054Y044194D02*
X023770Y044194D01*
X023121Y044844D01*
X021172Y045376D02*
X019400Y045376D01*
X019400Y039864D02*
X015660Y039864D01*
X015660Y039332D01*
X015680Y039332D01*
X015660Y039864D02*
X013888Y039864D01*
X013888Y039017D01*
X013888Y038348D02*
X013888Y037502D01*
X017609Y037502D01*
X017609Y038033D01*
X017609Y037502D02*
X019400Y037502D01*
X019400Y038348D01*
X019400Y039017D02*
X019400Y039864D01*
X021172Y039864D01*
X021172Y039332D01*
X021191Y039332D01*
X021172Y039864D02*
X024912Y039864D01*
X024912Y039017D01*
X024912Y038348D02*
X024912Y037502D01*
X028632Y037502D01*
X028632Y038033D01*
X028632Y037502D02*
X030424Y037502D01*
X030424Y038348D01*
X030424Y039017D02*
X030424Y039864D01*
X032195Y039864D01*
X032195Y039332D01*
X032215Y039332D01*
X032195Y039864D02*
X035935Y039864D01*
X035935Y039017D01*
X035935Y038348D02*
X035935Y037502D01*
X039656Y037502D01*
X039656Y038033D01*
X039656Y037502D02*
X041447Y037502D01*
X041447Y038348D01*
X041447Y039017D02*
X041447Y039864D01*
X043219Y039864D01*
X043219Y039332D01*
X043239Y039332D01*
X043219Y039864D02*
X046959Y039864D01*
X046959Y039017D01*
X046959Y038348D02*
X046959Y037502D01*
X050680Y037502D01*
X050680Y038033D01*
X050680Y037502D02*
X052471Y037502D01*
X052471Y038348D01*
X052471Y039017D02*
X052471Y039864D01*
X054243Y039864D01*
X054243Y039332D01*
X054262Y039332D01*
X054243Y039864D02*
X057983Y039864D01*
X057983Y039017D01*
X057983Y038348D02*
X057983Y037502D01*
X061703Y037502D01*
X061703Y038033D01*
X061703Y037502D02*
X063495Y037502D01*
X063495Y038348D01*
X063495Y039017D02*
X063495Y039864D01*
X065266Y039864D01*
X065266Y039332D01*
X065286Y039332D01*
X065266Y039864D02*
X069006Y039864D01*
X069006Y039017D01*
X069006Y038348D02*
X069006Y037502D01*
X072727Y037502D01*
X072727Y038033D01*
X072727Y037502D02*
X074518Y037502D01*
X074518Y038348D01*
X074518Y039017D02*
X074518Y039864D01*
X076290Y039864D01*
X076290Y039332D01*
X076310Y039332D01*
X076290Y039864D02*
X080030Y039864D01*
X080030Y039017D01*
X080030Y038348D02*
X080030Y037502D01*
X083750Y037502D01*
X083750Y038033D01*
X083750Y037502D02*
X085542Y037502D01*
X085542Y038348D01*
X085542Y039017D02*
X085542Y039864D01*
X086802Y039864D01*
X087333Y039332D01*
X087983Y038683D01*
X090069Y038683D01*
X090404Y039017D01*
X091054Y039017D01*
X091054Y038348D02*
X091054Y038289D01*
X092432Y038289D01*
X092432Y043801D01*
X091054Y043860D02*
X090207Y043013D01*
X089262Y043013D01*
X089262Y043545D01*
X089262Y043013D02*
X085542Y043013D01*
X085542Y043860D01*
X085542Y044529D02*
X085542Y045376D01*
X086684Y044194D02*
X084400Y044194D01*
X083750Y044844D01*
X083750Y043545D02*
X083750Y043013D01*
X085542Y043013D01*
X086684Y044194D02*
X087333Y043545D01*
X087156Y041439D02*
X089262Y039332D01*
X089262Y038033D02*
X089262Y037502D01*
X090207Y037502D01*
X091054Y038348D01*
X089262Y037502D02*
X085542Y037502D01*
X086684Y038683D02*
X087333Y038033D01*
X086684Y038683D02*
X084400Y038683D01*
X083750Y039332D01*
X085542Y039864D02*
X081802Y039864D01*
X081802Y039332D01*
X081821Y039332D01*
X081802Y039864D02*
X080030Y039864D01*
X081172Y038683D02*
X078888Y038683D01*
X078239Y039332D01*
X078239Y038033D02*
X078239Y037502D01*
X080030Y037502D01*
X081172Y038683D02*
X081821Y038033D01*
X078239Y037502D02*
X074518Y037502D01*
X073376Y038683D02*
X072727Y039332D01*
X073376Y038683D02*
X075660Y038683D01*
X076310Y038033D01*
X074518Y039864D02*
X070778Y039864D01*
X070778Y039332D01*
X070798Y039332D01*
X070778Y039864D02*
X069006Y039864D01*
X067865Y038683D02*
X067215Y039332D01*
X067865Y038683D02*
X070148Y038683D01*
X070798Y038033D01*
X069006Y037502D02*
X067215Y037502D01*
X067215Y038033D01*
X067215Y037502D02*
X063495Y037502D01*
X064636Y038683D02*
X062353Y038683D01*
X061703Y039332D01*
X063495Y039864D02*
X059754Y039864D01*
X059754Y039332D01*
X059774Y039332D01*
X059754Y039864D02*
X057983Y039864D01*
X059124Y038683D02*
X056841Y038683D01*
X056191Y039332D01*
X056191Y038033D02*
X056191Y037502D01*
X057983Y037502D01*
X059124Y038683D02*
X059774Y038033D01*
X056191Y037502D02*
X052471Y037502D01*
X053613Y038683D02*
X051329Y038683D01*
X050680Y039332D01*
X052471Y039864D02*
X048731Y039864D01*
X048731Y039332D01*
X048750Y039332D01*
X048731Y039864D02*
X046959Y039864D01*
X048101Y038683D02*
X045817Y038683D01*
X045168Y039332D01*
X045168Y038033D02*
X045168Y037502D01*
X046959Y037502D01*
X048101Y038683D02*
X048750Y038033D01*
X045168Y037502D02*
X041447Y037502D01*
X040306Y038683D02*
X039656Y039332D01*
X040306Y038683D02*
X042589Y038683D01*
X043239Y038033D01*
X041447Y039864D02*
X037707Y039864D01*
X037707Y039332D01*
X037727Y039332D01*
X037707Y039864D02*
X035935Y039864D01*
X034794Y038683D02*
X034144Y039332D01*
X034794Y038683D02*
X037077Y038683D01*
X037727Y038033D01*
X035935Y037502D02*
X034144Y037502D01*
X034144Y038033D01*
X034144Y037502D02*
X030424Y037502D01*
X031565Y038683D02*
X029282Y038683D01*
X028632Y039332D01*
X030424Y039864D02*
X026684Y039864D01*
X026684Y039332D01*
X026703Y039332D01*
X026684Y039864D02*
X024912Y039864D01*
X026054Y038683D02*
X023770Y038683D01*
X023121Y039332D01*
X023121Y038033D02*
X023121Y037502D01*
X024912Y037502D01*
X026054Y038683D02*
X026703Y038033D01*
X023121Y037502D02*
X019400Y037502D01*
X018258Y038683D02*
X017609Y039332D01*
X018258Y038683D02*
X020542Y038683D01*
X021191Y038033D01*
X021172Y034352D02*
X019400Y034352D01*
X019400Y033506D01*
X019400Y032836D02*
X019400Y031990D01*
X023121Y031990D01*
X023121Y032521D01*
X023121Y031990D02*
X024912Y031990D01*
X024912Y032836D01*
X024912Y033506D02*
X024912Y034352D01*
X026684Y034352D01*
X026684Y033820D01*
X026703Y033820D01*
X026684Y034352D02*
X030424Y034352D01*
X030424Y033506D01*
X030424Y032836D02*
X030424Y031990D01*
X034144Y031990D01*
X034144Y032521D01*
X034144Y031990D02*
X035935Y031990D01*
X035935Y032836D01*
X035935Y033506D02*
X035935Y034352D01*
X037707Y034352D01*
X037707Y033820D01*
X037727Y033820D01*
X037707Y034352D02*
X041447Y034352D01*
X041447Y033506D01*
X041447Y032836D02*
X041447Y031990D01*
X045168Y031990D01*
X045168Y032521D01*
X045168Y031990D02*
X046959Y031990D01*
X046959Y032836D01*
X046959Y033506D02*
X046959Y034352D01*
X048731Y034352D01*
X048731Y033820D01*
X048750Y033820D01*
X048731Y034352D02*
X052471Y034352D01*
X052471Y033506D01*
X052471Y032836D02*
X052471Y031990D01*
X056191Y031990D01*
X056191Y032521D01*
X056191Y031990D02*
X057983Y031990D01*
X057983Y032836D01*
X057983Y033506D02*
X057983Y034352D01*
X059754Y034352D01*
X059754Y033820D01*
X059774Y033820D01*
X059754Y034352D02*
X063495Y034352D01*
X063495Y033506D01*
X063495Y032836D02*
X063495Y031990D01*
X067215Y031990D01*
X067215Y032521D01*
X067215Y031990D02*
X069006Y031990D01*
X069006Y032836D01*
X069006Y033506D02*
X069006Y034352D01*
X070778Y034352D01*
X070778Y033820D01*
X070798Y033820D01*
X070778Y034352D02*
X074518Y034352D01*
X074518Y033506D01*
X074518Y032836D02*
X074518Y031990D01*
X078239Y031990D01*
X078239Y032521D01*
X078239Y031990D02*
X080030Y031990D01*
X080030Y032836D01*
X080030Y033506D02*
X080030Y034352D01*
X081802Y034352D01*
X081802Y033820D01*
X081821Y033820D01*
X081802Y034352D02*
X085542Y034352D01*
X086802Y034352D01*
X087333Y033820D01*
X087983Y033171D01*
X090069Y033171D01*
X090404Y033506D01*
X091054Y033506D01*
X091054Y032836D02*
X091054Y032777D01*
X092432Y032777D01*
X092432Y038289D01*
X089262Y033820D02*
X087156Y035927D01*
X006762Y035927D01*
X004656Y038033D01*
X004636Y039273D02*
X003258Y039273D01*
X003258Y033761D01*
X004813Y033761D01*
X004813Y033978D01*
X005187Y034352D01*
X008376Y034352D01*
X008376Y033506D01*
X008376Y032836D02*
X008376Y031990D01*
X012097Y031990D01*
X012097Y032521D01*
X012097Y031990D02*
X013888Y031990D01*
X013888Y032836D01*
X013888Y033506D02*
X013888Y034352D01*
X015660Y034352D01*
X015660Y033820D01*
X015680Y033820D01*
X015660Y034352D02*
X019400Y034352D01*
X018258Y033171D02*
X017609Y033820D01*
X018258Y033171D02*
X020542Y033171D01*
X021191Y032521D01*
X021191Y033820D02*
X021172Y033820D01*
X021172Y034352D01*
X024912Y034352D01*
X026054Y033171D02*
X023770Y033171D01*
X023121Y033820D01*
X024912Y031990D02*
X028632Y031990D01*
X028632Y032521D01*
X028632Y031990D02*
X030424Y031990D01*
X031565Y033171D02*
X029282Y033171D01*
X028632Y033820D01*
X030424Y034352D02*
X032195Y034352D01*
X032195Y033820D01*
X032215Y033820D01*
X032195Y034352D02*
X035935Y034352D01*
X034794Y033171D02*
X034144Y033820D01*
X034794Y033171D02*
X037077Y033171D01*
X037727Y032521D01*
X035935Y031990D02*
X039656Y031990D01*
X039656Y032521D01*
X039656Y031990D02*
X041447Y031990D01*
X042589Y033171D02*
X040306Y033171D01*
X039656Y033820D01*
X041447Y034352D02*
X043219Y034352D01*
X043219Y033820D01*
X043239Y033820D01*
X043219Y034352D02*
X046959Y034352D01*
X048101Y033171D02*
X045817Y033171D01*
X045168Y033820D01*
X043239Y032521D02*
X042589Y033171D01*
X043219Y028840D02*
X041447Y028840D01*
X041447Y027994D01*
X041447Y027324D02*
X041447Y026478D01*
X045168Y026478D01*
X045168Y027009D01*
X045168Y026478D02*
X046959Y026478D01*
X046959Y027324D01*
X046959Y027994D02*
X046959Y028840D01*
X048731Y028840D01*
X048731Y028309D01*
X048750Y028309D01*
X048731Y028840D02*
X052471Y028840D01*
X052471Y027994D01*
X052471Y027324D02*
X052471Y026478D01*
X056191Y026478D01*
X056191Y027009D01*
X056191Y026478D02*
X057983Y026478D01*
X057983Y027324D01*
X057983Y027994D02*
X057983Y028840D01*
X059754Y028840D01*
X059754Y028309D01*
X059774Y028309D01*
X059754Y028840D02*
X063495Y028840D01*
X063495Y027994D01*
X063495Y027324D02*
X063495Y026478D01*
X067215Y026478D01*
X067215Y027009D01*
X067215Y026478D02*
X069006Y026478D01*
X069006Y027324D01*
X069006Y027994D02*
X069006Y028840D01*
X070778Y028840D01*
X070778Y028309D01*
X070798Y028309D01*
X070778Y028840D02*
X074518Y028840D01*
X074518Y027994D01*
X074518Y027324D02*
X074518Y026478D01*
X078239Y026478D01*
X078239Y027009D01*
X078239Y026478D02*
X080030Y026478D01*
X080030Y027324D01*
X080030Y027994D02*
X080030Y028840D01*
X081802Y028840D01*
X081802Y028309D01*
X081821Y028309D01*
X081802Y028840D02*
X085542Y028840D01*
X086802Y028840D01*
X087333Y028309D01*
X087983Y027659D01*
X090069Y027659D01*
X090404Y027994D01*
X091054Y027994D01*
X091054Y027324D02*
X091054Y027265D01*
X092432Y027265D01*
X092432Y032777D01*
X091054Y032836D02*
X090207Y031990D01*
X089262Y031990D01*
X089262Y032521D01*
X089262Y031990D02*
X085542Y031990D01*
X085542Y032836D01*
X085542Y033506D02*
X085542Y034352D01*
X086684Y033171D02*
X084400Y033171D01*
X083750Y033820D01*
X083750Y032521D02*
X083750Y031990D01*
X085542Y031990D01*
X086684Y033171D02*
X087333Y032521D01*
X087156Y030415D02*
X089262Y028309D01*
X091054Y027324D02*
X090207Y026478D01*
X089262Y026478D01*
X089262Y027009D01*
X089262Y026478D02*
X085542Y026478D01*
X085542Y027324D01*
X085542Y027994D02*
X085542Y028840D01*
X086684Y027659D02*
X084400Y027659D01*
X083750Y028309D01*
X083750Y027009D02*
X083750Y026478D01*
X085542Y026478D01*
X086684Y027659D02*
X087333Y027009D01*
X083750Y026478D02*
X080030Y026478D01*
X081172Y027659D02*
X078888Y027659D01*
X078239Y028309D01*
X080030Y028840D02*
X076290Y028840D01*
X076290Y028309D01*
X076310Y028309D01*
X076290Y028840D02*
X074518Y028840D01*
X073376Y027659D02*
X072727Y028309D01*
X073376Y027659D02*
X075660Y027659D01*
X076310Y027009D01*
X074518Y026478D02*
X072727Y026478D01*
X072727Y027009D01*
X072727Y026478D02*
X069006Y026478D01*
X067865Y027659D02*
X067215Y028309D01*
X067865Y027659D02*
X070148Y027659D01*
X070798Y027009D01*
X069006Y028840D02*
X065266Y028840D01*
X065266Y028309D01*
X065286Y028309D01*
X065266Y028840D02*
X063495Y028840D01*
X064636Y027659D02*
X062353Y027659D01*
X061703Y028309D01*
X061703Y027009D02*
X061703Y026478D01*
X063495Y026478D01*
X064636Y027659D02*
X065286Y027009D01*
X061703Y026478D02*
X057983Y026478D01*
X059124Y027659D02*
X056841Y027659D01*
X056191Y028309D01*
X057983Y028840D02*
X054243Y028840D01*
X054243Y028309D01*
X054262Y028309D01*
X054243Y028840D02*
X052471Y028840D01*
X053613Y027659D02*
X051329Y027659D01*
X050680Y028309D01*
X050680Y027009D02*
X050680Y026478D01*
X052471Y026478D01*
X053613Y027659D02*
X054262Y027009D01*
X050680Y026478D02*
X046959Y026478D01*
X048101Y027659D02*
X045817Y027659D01*
X045168Y028309D01*
X046959Y028840D02*
X043219Y028840D01*
X043219Y028309D01*
X043239Y028309D01*
X042589Y027659D02*
X040306Y027659D01*
X039656Y028309D01*
X039656Y027009D02*
X039656Y026478D01*
X041447Y026478D01*
X042589Y027659D02*
X043239Y027009D01*
X041447Y028840D02*
X037707Y028840D01*
X037707Y028309D01*
X037727Y028309D01*
X037707Y028840D02*
X035935Y028840D01*
X035935Y027994D01*
X035935Y027324D02*
X035935Y026478D01*
X039656Y026478D01*
X037727Y027009D02*
X037077Y027659D01*
X034794Y027659D01*
X034144Y028309D01*
X034144Y027009D02*
X034144Y026478D01*
X035935Y026478D01*
X034144Y026478D02*
X030424Y026478D01*
X030424Y027324D01*
X030424Y027994D02*
X030424Y028840D01*
X032195Y028840D01*
X032195Y028309D01*
X032215Y028309D01*
X032195Y028840D02*
X035935Y028840D01*
X032215Y027009D02*
X031565Y027659D01*
X029282Y027659D01*
X028632Y028309D01*
X028632Y027009D02*
X028632Y026478D01*
X030424Y026478D01*
X028632Y026478D02*
X024912Y026478D01*
X024912Y027324D01*
X024912Y027994D02*
X024912Y028840D01*
X026684Y028840D01*
X026684Y028309D01*
X026703Y028309D01*
X026684Y028840D02*
X030424Y028840D01*
X032215Y032521D02*
X031565Y033171D01*
X026703Y032521D02*
X026054Y033171D01*
X024912Y028840D02*
X021172Y028840D01*
X021172Y028309D01*
X021191Y028309D01*
X021172Y028840D02*
X019400Y028840D01*
X019400Y027994D01*
X019400Y027324D02*
X019400Y026478D01*
X023121Y026478D01*
X023121Y027009D01*
X023121Y026478D02*
X024912Y026478D01*
X026054Y027659D02*
X023770Y027659D01*
X023121Y028309D01*
X021191Y027009D02*
X020542Y027659D01*
X018258Y027659D01*
X017609Y028309D01*
X017609Y027009D02*
X017609Y026478D01*
X019400Y026478D01*
X017609Y026478D02*
X013888Y026478D01*
X013888Y027324D01*
X013888Y027994D02*
X013888Y028840D01*
X015660Y028840D01*
X015660Y028309D01*
X015680Y028309D01*
X015660Y028840D02*
X019400Y028840D01*
X019400Y031990D02*
X017609Y031990D01*
X017609Y032521D01*
X017609Y031990D02*
X013888Y031990D01*
X012747Y033171D02*
X012097Y033820D01*
X012747Y033171D02*
X015030Y033171D01*
X015680Y032521D01*
X013888Y034352D02*
X010148Y034352D01*
X010148Y033840D01*
X010168Y033820D01*
X010148Y034352D02*
X008376Y034352D01*
X007235Y033171D02*
X006585Y033820D01*
X007235Y033171D02*
X009518Y033171D01*
X010168Y032521D01*
X008376Y031990D02*
X007117Y031990D01*
X006585Y032521D01*
X004656Y032521D02*
X006762Y030415D01*
X087156Y030415D01*
X083750Y031990D02*
X080030Y031990D01*
X081172Y033171D02*
X078888Y033171D01*
X078239Y033820D01*
X080030Y034352D02*
X076290Y034352D01*
X076290Y033820D01*
X076310Y033820D01*
X076290Y034352D02*
X074518Y034352D01*
X073376Y033171D02*
X072727Y033820D01*
X073376Y033171D02*
X075660Y033171D01*
X076310Y032521D01*
X074518Y031990D02*
X072727Y031990D01*
X072727Y032521D01*
X072727Y031990D02*
X069006Y031990D01*
X067865Y033171D02*
X067215Y033820D01*
X067865Y033171D02*
X070148Y033171D01*
X070798Y032521D01*
X069006Y034352D02*
X065266Y034352D01*
X065266Y033820D01*
X065286Y033820D01*
X065266Y034352D02*
X063495Y034352D01*
X064636Y033171D02*
X062353Y033171D01*
X061703Y033820D01*
X061703Y032521D02*
X061703Y031990D01*
X063495Y031990D01*
X064636Y033171D02*
X065286Y032521D01*
X061703Y031990D02*
X057983Y031990D01*
X059124Y033171D02*
X056841Y033171D01*
X056191Y033820D01*
X057983Y034352D02*
X054243Y034352D01*
X054243Y033820D01*
X054262Y033820D01*
X054243Y034352D02*
X052471Y034352D01*
X053613Y033171D02*
X051329Y033171D01*
X050680Y033820D01*
X050680Y032521D02*
X050680Y031990D01*
X052471Y031990D01*
X053613Y033171D02*
X054262Y032521D01*
X050680Y031990D02*
X046959Y031990D01*
X048101Y033171D02*
X048750Y032521D01*
X048101Y027659D02*
X048750Y027009D01*
X048731Y023328D02*
X046959Y023328D01*
X046959Y022482D01*
X046959Y021813D02*
X046959Y020966D01*
X050680Y020966D01*
X050680Y021498D01*
X050680Y020966D02*
X052471Y020966D01*
X052471Y021813D01*
X052471Y022482D02*
X052471Y023328D01*
X054243Y023328D01*
X054243Y022797D01*
X054262Y022797D01*
X054243Y023328D02*
X057983Y023328D01*
X057983Y022482D01*
X057983Y021813D02*
X057983Y020966D01*
X061703Y020966D01*
X061703Y021498D01*
X061703Y020966D02*
X063495Y020966D01*
X063495Y021813D01*
X063495Y022482D02*
X063495Y023328D01*
X065266Y023328D01*
X065266Y022797D01*
X065286Y022797D01*
X065266Y023328D02*
X069006Y023328D01*
X069006Y022482D01*
X069006Y021813D02*
X069006Y020966D01*
X072727Y020966D01*
X072727Y021498D01*
X072727Y020966D02*
X074518Y020966D01*
X074518Y021813D01*
X074518Y022482D02*
X074518Y023328D01*
X076290Y023328D01*
X076290Y022797D01*
X076310Y022797D01*
X076290Y023328D02*
X080030Y023328D01*
X080030Y022482D01*
X080030Y021813D02*
X080030Y020966D01*
X083750Y020966D01*
X083750Y021498D01*
X083750Y020966D02*
X085542Y020966D01*
X085542Y021813D01*
X085542Y022482D02*
X085542Y023328D01*
X086802Y023328D01*
X087333Y022797D01*
X087983Y022147D01*
X090069Y022147D01*
X090404Y022482D01*
X091054Y022482D01*
X091054Y021813D02*
X091054Y021754D01*
X092432Y021754D01*
X092432Y027265D01*
X092432Y021754D02*
X092432Y016242D01*
X091054Y016242D01*
X091054Y016301D01*
X090207Y015454D01*
X089262Y015454D01*
X089262Y015986D01*
X089262Y015454D02*
X085542Y015454D01*
X085542Y016301D01*
X085542Y016970D02*
X085542Y017817D01*
X086802Y017817D01*
X087333Y017285D01*
X087983Y016635D01*
X090069Y016635D01*
X090404Y016970D01*
X091054Y016970D01*
X089262Y017285D02*
X087156Y019391D01*
X006762Y019391D01*
X004656Y021498D01*
X004636Y022738D02*
X003258Y022738D01*
X003258Y017226D01*
X004636Y017226D01*
X004636Y017285D01*
X004656Y017285D01*
X005187Y017817D01*
X008376Y017817D01*
X008376Y016970D01*
X008376Y016301D02*
X008376Y015454D01*
X012097Y015454D01*
X012097Y015986D01*
X012097Y015454D02*
X013888Y015454D01*
X013888Y016301D01*
X013888Y016970D02*
X013888Y017817D01*
X015660Y017817D01*
X015660Y017285D01*
X015680Y017285D01*
X015660Y017817D02*
X019400Y017817D01*
X019400Y016970D01*
X019400Y016301D02*
X019400Y015454D01*
X023121Y015454D01*
X023121Y015986D01*
X023121Y015454D02*
X024912Y015454D01*
X024912Y016301D01*
X024912Y016970D02*
X024912Y017817D01*
X026684Y017817D01*
X026684Y017285D01*
X026703Y017285D01*
X026684Y017817D02*
X030424Y017817D01*
X030424Y016970D01*
X030424Y016301D02*
X030424Y015454D01*
X034144Y015454D01*
X034144Y015986D01*
X034144Y015454D02*
X035935Y015454D01*
X035935Y016301D01*
X035935Y016970D02*
X035935Y017817D01*
X037707Y017817D01*
X037707Y017285D01*
X037727Y017285D01*
X037707Y017817D02*
X041447Y017817D01*
X041447Y016970D01*
X041447Y016301D02*
X041447Y015454D01*
X045168Y015454D01*
X045168Y015986D01*
X045168Y015454D02*
X046959Y015454D01*
X046959Y016301D01*
X046959Y016970D02*
X046959Y017817D01*
X048731Y017817D01*
X048731Y017285D01*
X048750Y017285D01*
X048731Y017817D02*
X052471Y017817D01*
X052471Y016970D01*
X052471Y016301D02*
X052471Y015454D01*
X056191Y015454D01*
X056191Y015986D01*
X056191Y015454D02*
X057983Y015454D01*
X057983Y016301D01*
X057983Y016970D02*
X057983Y017817D01*
X059754Y017817D01*
X059754Y017285D01*
X059774Y017285D01*
X059754Y017817D02*
X063495Y017817D01*
X063495Y016970D01*
X063495Y016301D02*
X063495Y015454D01*
X067215Y015454D01*
X067215Y015986D01*
X067215Y015454D02*
X069006Y015454D01*
X069006Y016301D01*
X069006Y016970D02*
X069006Y017817D01*
X070778Y017817D01*
X070778Y017285D01*
X070798Y017285D01*
X070778Y017817D02*
X074518Y017817D01*
X074518Y016970D01*
X074518Y016301D02*
X074518Y015454D01*
X078239Y015454D01*
X078239Y015986D01*
X078239Y015454D02*
X080030Y015454D01*
X080030Y016301D01*
X080030Y016970D02*
X080030Y017817D01*
X081802Y017817D01*
X081802Y017285D01*
X081821Y017285D01*
X081802Y017817D02*
X085542Y017817D01*
X086684Y016635D02*
X084400Y016635D01*
X083750Y017285D01*
X083750Y015986D02*
X083750Y015454D01*
X085542Y015454D01*
X086684Y016635D02*
X087333Y015986D01*
X087156Y013880D02*
X089262Y011773D01*
X090069Y011124D02*
X090404Y011458D01*
X091054Y011458D01*
X091054Y010789D02*
X092432Y010789D01*
X092432Y006596D01*
X091054Y005218D01*
X091054Y005277D01*
X090207Y004431D01*
X089262Y004431D01*
X089262Y004962D01*
X089262Y004431D02*
X085542Y004431D01*
X085542Y005277D01*
X085542Y005946D02*
X085542Y006793D01*
X086802Y006793D01*
X087333Y006261D01*
X087983Y005612D01*
X090069Y005612D01*
X090404Y005946D01*
X091054Y005946D01*
X089262Y006261D02*
X087156Y008368D01*
X006762Y008368D01*
X004656Y010474D01*
X004656Y011773D02*
X003258Y011773D01*
X003258Y007580D01*
X003258Y006006D01*
X002684Y005431D01*
X001487Y005431D01*
X001487Y006431D02*
X002872Y006431D01*
X002904Y006399D01*
X003613Y006399D02*
X003613Y006006D01*
X004656Y004962D01*
X004656Y006183D02*
X004656Y006261D01*
X004813Y006419D01*
X004813Y006202D01*
X004636Y006202D01*
X003258Y007580D01*
X002668Y008612D02*
X001487Y007431D01*
X002668Y008612D02*
X002668Y026832D01*
X002904Y027069D01*
X003613Y027069D02*
X003613Y027009D01*
X004656Y027009D01*
X004636Y028250D02*
X003258Y028250D01*
X003258Y022738D01*
X004636Y022738D02*
X004636Y022797D01*
X004656Y022797D01*
X005187Y023328D01*
X008376Y023328D01*
X008376Y022482D01*
X008376Y021813D02*
X008376Y020966D01*
X012097Y020966D01*
X012097Y021498D01*
X012097Y020966D02*
X013888Y020966D01*
X013888Y021813D01*
X013888Y022482D02*
X013888Y023328D01*
X015660Y023328D01*
X015660Y022797D01*
X015680Y022797D01*
X015660Y023328D02*
X019400Y023328D01*
X019400Y022482D01*
X019400Y021813D02*
X019400Y020966D01*
X023121Y020966D01*
X023121Y021498D01*
X023121Y020966D02*
X024912Y020966D01*
X024912Y021813D01*
X024912Y022482D02*
X024912Y023328D01*
X026684Y023328D01*
X026684Y022797D01*
X026703Y022797D01*
X026684Y023328D02*
X030424Y023328D01*
X030424Y022482D01*
X030424Y021813D02*
X030424Y020966D01*
X034144Y020966D01*
X034144Y021498D01*
X034144Y020966D02*
X035935Y020966D01*
X035935Y021813D01*
X035935Y022482D02*
X035935Y023328D01*
X037707Y023328D01*
X037707Y022797D01*
X037727Y022797D01*
X037707Y023328D02*
X041447Y023328D01*
X041447Y022482D01*
X041447Y021813D02*
X041447Y020966D01*
X045168Y020966D01*
X045168Y021498D01*
X045168Y020966D02*
X046959Y020966D01*
X048101Y022147D02*
X045817Y022147D01*
X045168Y022797D01*
X046959Y023328D02*
X043219Y023328D01*
X043219Y022797D01*
X043239Y022797D01*
X043219Y023328D02*
X041447Y023328D01*
X042589Y022147D02*
X040306Y022147D01*
X039656Y022797D01*
X039656Y021498D02*
X039656Y020966D01*
X041447Y020966D01*
X042589Y022147D02*
X043239Y021498D01*
X039656Y020966D02*
X035935Y020966D01*
X034794Y022147D02*
X034144Y022797D01*
X034794Y022147D02*
X037077Y022147D01*
X037727Y021498D01*
X035935Y023328D02*
X032195Y023328D01*
X032195Y022797D01*
X032215Y022797D01*
X032195Y023328D02*
X030424Y023328D01*
X031565Y022147D02*
X029282Y022147D01*
X028632Y022797D01*
X028632Y021498D02*
X028632Y020966D01*
X030424Y020966D01*
X031565Y022147D02*
X032215Y021498D01*
X028632Y020966D02*
X024912Y020966D01*
X026054Y022147D02*
X023770Y022147D01*
X023121Y022797D01*
X024912Y023328D02*
X021172Y023328D01*
X021172Y022797D01*
X021191Y022797D01*
X021172Y023328D02*
X019400Y023328D01*
X018258Y022147D02*
X017609Y022797D01*
X018258Y022147D02*
X020542Y022147D01*
X021191Y021498D01*
X019400Y020966D02*
X017609Y020966D01*
X017609Y021498D01*
X017609Y020966D02*
X013888Y020966D01*
X012747Y022147D02*
X012097Y022797D01*
X012747Y022147D02*
X015030Y022147D01*
X015680Y021498D01*
X013888Y023328D02*
X010148Y023328D01*
X010148Y022817D01*
X010168Y022797D01*
X010148Y023328D02*
X008376Y023328D01*
X007235Y022147D02*
X006585Y022797D01*
X007235Y022147D02*
X009518Y022147D01*
X010168Y021498D01*
X008376Y020966D02*
X007117Y020966D01*
X006585Y021498D01*
X008376Y017817D02*
X010148Y017817D01*
X010148Y017305D01*
X010168Y017285D01*
X010148Y017817D02*
X013888Y017817D01*
X012747Y016635D02*
X012097Y017285D01*
X012747Y016635D02*
X015030Y016635D01*
X015680Y015986D01*
X013888Y015454D02*
X017609Y015454D01*
X017609Y015986D01*
X017609Y015454D02*
X019400Y015454D01*
X018258Y016635D02*
X017609Y017285D01*
X018258Y016635D02*
X020542Y016635D01*
X021191Y015986D01*
X021191Y017285D02*
X021172Y017285D01*
X021172Y017817D01*
X024912Y017817D01*
X026054Y016635D02*
X023770Y016635D01*
X023121Y017285D01*
X021172Y017817D02*
X019400Y017817D01*
X019400Y012305D02*
X015660Y012305D01*
X015660Y011773D01*
X015680Y011773D01*
X015660Y012305D02*
X013888Y012305D01*
X013888Y011458D01*
X013888Y010789D02*
X013888Y009943D01*
X017609Y009943D01*
X017609Y010474D01*
X017609Y009943D02*
X019400Y009943D01*
X019400Y010789D01*
X019400Y011458D02*
X019400Y012305D01*
X021172Y012305D01*
X021172Y011773D01*
X021191Y011773D01*
X021172Y012305D02*
X024912Y012305D01*
X024912Y011458D01*
X024912Y010789D02*
X024912Y009943D01*
X028632Y009943D01*
X028632Y010474D01*
X028632Y009943D02*
X030424Y009943D01*
X030424Y010789D01*
X030424Y011458D02*
X030424Y012305D01*
X032195Y012305D01*
X032195Y011773D01*
X032215Y011773D01*
X032195Y012305D02*
X035935Y012305D01*
X035935Y011458D01*
X035935Y010789D02*
X035935Y009943D01*
X039656Y009943D01*
X039656Y010474D01*
X039656Y009943D02*
X041447Y009943D01*
X041447Y010789D01*
X041447Y011458D02*
X041447Y012305D01*
X043219Y012305D01*
X043219Y011773D01*
X043239Y011773D01*
X043219Y012305D02*
X046959Y012305D01*
X046959Y011458D01*
X046959Y010789D02*
X046959Y009943D01*
X050680Y009943D01*
X050680Y010474D01*
X050680Y009943D02*
X052471Y009943D01*
X052471Y010789D01*
X052471Y011458D02*
X052471Y012305D01*
X054243Y012305D01*
X054243Y011773D01*
X054262Y011773D01*
X054243Y012305D02*
X057983Y012305D01*
X057983Y011458D01*
X057983Y010789D02*
X057983Y009943D01*
X061703Y009943D01*
X061703Y010474D01*
X061703Y009943D02*
X063495Y009943D01*
X063495Y010789D01*
X063495Y011458D02*
X063495Y012305D01*
X065266Y012305D01*
X065266Y011773D01*
X065286Y011773D01*
X065266Y012305D02*
X069006Y012305D01*
X069006Y011458D01*
X069006Y010789D02*
X069006Y009943D01*
X072727Y009943D01*
X072727Y010474D01*
X072727Y009943D02*
X074518Y009943D01*
X074518Y010789D01*
X074518Y011458D02*
X074518Y012305D01*
X076290Y012305D01*
X076290Y011773D01*
X076310Y011773D01*
X076290Y012305D02*
X080030Y012305D01*
X080030Y011458D01*
X080030Y010789D02*
X080030Y009943D01*
X083750Y009943D01*
X083750Y010474D01*
X083750Y009943D02*
X085542Y009943D01*
X085542Y010789D01*
X085542Y011458D02*
X085542Y012305D01*
X086802Y012305D01*
X087333Y011773D01*
X087983Y011124D01*
X090069Y011124D01*
X089262Y010474D02*
X089262Y009943D01*
X090207Y009943D01*
X091054Y010789D01*
X089262Y009943D02*
X085542Y009943D01*
X086684Y011124D02*
X084400Y011124D01*
X083750Y011773D01*
X085542Y012305D02*
X081802Y012305D01*
X081802Y011773D01*
X081821Y011773D01*
X081802Y012305D02*
X080030Y012305D01*
X081172Y011124D02*
X078888Y011124D01*
X078239Y011773D01*
X078239Y010474D02*
X078239Y009943D01*
X080030Y009943D01*
X081172Y011124D02*
X081821Y010474D01*
X078239Y009943D02*
X074518Y009943D01*
X073376Y011124D02*
X072727Y011773D01*
X073376Y011124D02*
X075660Y011124D01*
X076310Y010474D01*
X074518Y012305D02*
X070778Y012305D01*
X070778Y011773D01*
X070798Y011773D01*
X070778Y012305D02*
X069006Y012305D01*
X067865Y011124D02*
X067215Y011773D01*
X067865Y011124D02*
X070148Y011124D01*
X070798Y010474D01*
X069006Y009943D02*
X067215Y009943D01*
X067215Y010474D01*
X067215Y009943D02*
X063495Y009943D01*
X064636Y011124D02*
X062353Y011124D01*
X061703Y011773D01*
X063495Y012305D02*
X059754Y012305D01*
X059754Y011773D01*
X059774Y011773D01*
X059754Y012305D02*
X057983Y012305D01*
X059124Y011124D02*
X056841Y011124D01*
X056191Y011773D01*
X056191Y010474D02*
X056191Y009943D01*
X057983Y009943D01*
X059124Y011124D02*
X059774Y010474D01*
X056191Y009943D02*
X052471Y009943D01*
X053613Y011124D02*
X051329Y011124D01*
X050680Y011773D01*
X052471Y012305D02*
X048731Y012305D01*
X048731Y011773D01*
X048750Y011773D01*
X048731Y012305D02*
X046959Y012305D01*
X045817Y011124D02*
X045168Y011773D01*
X045817Y011124D02*
X048101Y011124D01*
X048750Y010474D01*
X046959Y009943D02*
X045168Y009943D01*
X045168Y010474D01*
X045168Y009943D02*
X041447Y009943D01*
X042589Y011124D02*
X040306Y011124D01*
X039656Y011773D01*
X041447Y012305D02*
X037707Y012305D01*
X037707Y011773D01*
X037727Y011773D01*
X037707Y012305D02*
X035935Y012305D01*
X034794Y011124D02*
X034144Y011773D01*
X034794Y011124D02*
X037077Y011124D01*
X037727Y010474D01*
X035935Y009943D02*
X034144Y009943D01*
X034144Y010474D01*
X034144Y009943D02*
X030424Y009943D01*
X031565Y011124D02*
X029282Y011124D01*
X028632Y011773D01*
X030424Y012305D02*
X026684Y012305D01*
X026684Y011773D01*
X026703Y011773D01*
X026684Y012305D02*
X024912Y012305D01*
X026054Y011124D02*
X023770Y011124D01*
X023121Y011773D01*
X023121Y010474D02*
X023121Y009943D01*
X024912Y009943D01*
X026054Y011124D02*
X026703Y010474D01*
X023121Y009943D02*
X019400Y009943D01*
X018258Y011124D02*
X017609Y011773D01*
X018258Y011124D02*
X020542Y011124D01*
X021191Y010474D01*
X021172Y006793D02*
X019400Y006793D01*
X019400Y005946D01*
X019400Y005277D02*
X019400Y004431D01*
X023121Y004431D01*
X023121Y004962D01*
X023121Y004431D02*
X024912Y004431D01*
X024912Y005277D01*
X024912Y005946D02*
X024912Y006793D01*
X026684Y006793D01*
X026684Y006261D01*
X026703Y006261D01*
X026684Y006793D02*
X030424Y006793D01*
X030424Y005946D01*
X030424Y005277D02*
X030424Y004431D01*
X034144Y004431D01*
X034144Y004962D01*
X034144Y004431D02*
X035935Y004431D01*
X035935Y005277D01*
X035935Y005946D02*
X035935Y006793D01*
X037707Y006793D01*
X037707Y006261D01*
X037727Y006261D01*
X037707Y006793D02*
X041447Y006793D01*
X041447Y005946D01*
X041447Y005277D02*
X041447Y004431D01*
X045168Y004431D01*
X045168Y004962D01*
X045168Y004431D02*
X046959Y004431D01*
X046959Y005277D01*
X046959Y005946D02*
X046959Y006793D01*
X048731Y006793D01*
X048731Y006261D01*
X048750Y006261D01*
X048731Y006793D02*
X052471Y006793D01*
X052471Y005946D01*
X052471Y005277D02*
X052471Y004431D01*
X056191Y004431D01*
X056191Y004962D01*
X056191Y004431D02*
X057983Y004431D01*
X057983Y005277D01*
X057983Y005946D02*
X057983Y006793D01*
X059754Y006793D01*
X059754Y006261D01*
X059774Y006261D01*
X059754Y006793D02*
X063495Y006793D01*
X063495Y005946D01*
X063495Y005277D02*
X063495Y004431D01*
X067215Y004431D01*
X067215Y004962D01*
X067215Y004431D02*
X069006Y004431D01*
X069006Y005277D01*
X069006Y005946D02*
X069006Y006793D01*
X070778Y006793D01*
X070778Y006261D01*
X070798Y006261D01*
X070778Y006793D02*
X074518Y006793D01*
X074518Y005946D01*
X074518Y005277D02*
X074518Y004431D01*
X078239Y004431D01*
X078239Y004962D01*
X078239Y004431D02*
X080030Y004431D01*
X080030Y005277D01*
X080030Y005946D02*
X080030Y006793D01*
X081802Y006793D01*
X081802Y006261D01*
X081821Y006261D01*
X081802Y006793D02*
X085542Y006793D01*
X086684Y005612D02*
X084400Y005612D01*
X083750Y006261D01*
X083750Y004962D02*
X083750Y004431D01*
X085542Y004431D01*
X086684Y005612D02*
X087333Y004962D01*
X083750Y004431D02*
X080030Y004431D01*
X081172Y005612D02*
X078888Y005612D01*
X078239Y006261D01*
X080030Y006793D02*
X076290Y006793D01*
X076290Y006261D01*
X076310Y006261D01*
X076290Y006793D02*
X074518Y006793D01*
X073376Y005612D02*
X072727Y006261D01*
X073376Y005612D02*
X075660Y005612D01*
X076310Y004962D01*
X074518Y004431D02*
X072727Y004431D01*
X072727Y004962D01*
X072727Y004431D02*
X069006Y004431D01*
X067865Y005612D02*
X067215Y006261D01*
X067865Y005612D02*
X070148Y005612D01*
X070798Y004962D01*
X069006Y006793D02*
X065266Y006793D01*
X065266Y006261D01*
X065286Y006261D01*
X065266Y006793D02*
X063495Y006793D01*
X064636Y005612D02*
X062353Y005612D01*
X061703Y006261D01*
X061703Y004962D02*
X061703Y004431D01*
X063495Y004431D01*
X064636Y005612D02*
X065286Y004962D01*
X061703Y004431D02*
X057983Y004431D01*
X059124Y005612D02*
X056841Y005612D01*
X056191Y006261D01*
X057983Y006793D02*
X054243Y006793D01*
X054243Y006261D01*
X054262Y006261D01*
X054243Y006793D02*
X052471Y006793D01*
X053613Y005612D02*
X051329Y005612D01*
X050680Y006261D01*
X050680Y004962D02*
X050680Y004431D01*
X052471Y004431D01*
X053613Y005612D02*
X054262Y004962D01*
X050680Y004431D02*
X046959Y004431D01*
X048101Y005612D02*
X045817Y005612D01*
X045168Y006261D01*
X046959Y006793D02*
X043219Y006793D01*
X043219Y006261D01*
X043239Y006261D01*
X043219Y006793D02*
X041447Y006793D01*
X040306Y005612D02*
X039656Y006261D01*
X040306Y005612D02*
X042589Y005612D01*
X043239Y004962D01*
X041447Y004431D02*
X039656Y004431D01*
X039656Y004962D01*
X039656Y004431D02*
X035935Y004431D01*
X034794Y005612D02*
X034144Y006261D01*
X034794Y005612D02*
X037077Y005612D01*
X037727Y004962D01*
X035935Y006793D02*
X032195Y006793D01*
X032195Y006261D01*
X032215Y006261D01*
X032195Y006793D02*
X030424Y006793D01*
X031565Y005612D02*
X029282Y005612D01*
X028632Y006261D01*
X028632Y004962D02*
X028632Y004431D01*
X030424Y004431D01*
X031565Y005612D02*
X032215Y004962D01*
X028632Y004431D02*
X024912Y004431D01*
X026054Y005612D02*
X023770Y005612D01*
X023121Y006261D01*
X024912Y006793D02*
X021172Y006793D01*
X021172Y006261D01*
X021191Y006261D01*
X020542Y005612D02*
X018258Y005612D01*
X017609Y006261D01*
X017609Y004962D02*
X017609Y004431D01*
X019400Y004431D01*
X020542Y005612D02*
X021191Y004962D01*
X019400Y006793D02*
X015660Y006793D01*
X015660Y006261D01*
X015680Y006261D01*
X015660Y006793D02*
X013888Y006793D01*
X013888Y005946D01*
X013888Y005277D02*
X013888Y004431D01*
X017609Y004431D01*
X015680Y004962D02*
X015030Y005612D01*
X012747Y005612D01*
X012097Y006261D01*
X012097Y004962D02*
X012097Y004431D01*
X013888Y004431D01*
X012097Y004431D02*
X008376Y004431D01*
X006605Y004431D01*
X006585Y004431D01*
X006585Y004962D01*
X006585Y004431D02*
X001487Y004431D01*
X004813Y006419D02*
X005187Y006793D01*
X008376Y006793D01*
X008376Y005946D01*
X008376Y005277D02*
X008376Y004431D01*
X007235Y005612D02*
X006585Y006261D01*
X007235Y005612D02*
X009518Y005612D01*
X010168Y004962D01*
X010168Y006261D02*
X010148Y006281D01*
X010148Y006793D01*
X013888Y006793D01*
X013888Y009943D02*
X012097Y009943D01*
X012097Y010474D01*
X012097Y009943D02*
X008376Y009943D01*
X008376Y010789D01*
X008376Y011458D02*
X008376Y012305D01*
X010148Y012305D01*
X010148Y011793D01*
X010168Y011773D01*
X010148Y012305D02*
X013888Y012305D01*
X012747Y011124D02*
X012097Y011773D01*
X012747Y011124D02*
X015030Y011124D01*
X015680Y010474D01*
X010168Y010474D02*
X009518Y011124D01*
X007235Y011124D01*
X006585Y011773D01*
X006585Y010474D02*
X007117Y009943D01*
X008376Y009943D01*
X008376Y012305D02*
X005187Y012305D01*
X004656Y011773D01*
X003258Y011773D02*
X003258Y017226D01*
X004656Y015986D02*
X006762Y013880D01*
X087156Y013880D01*
X086684Y011124D02*
X087333Y010474D01*
X083750Y015454D02*
X080030Y015454D01*
X081172Y016635D02*
X078888Y016635D01*
X078239Y017285D01*
X080030Y017817D02*
X076290Y017817D01*
X076290Y017285D01*
X076310Y017285D01*
X076290Y017817D02*
X074518Y017817D01*
X073376Y016635D02*
X072727Y017285D01*
X073376Y016635D02*
X075660Y016635D01*
X076310Y015986D01*
X074518Y015454D02*
X072727Y015454D01*
X072727Y015986D01*
X072727Y015454D02*
X069006Y015454D01*
X067865Y016635D02*
X067215Y017285D01*
X067865Y016635D02*
X070148Y016635D01*
X070798Y015986D01*
X069006Y017817D02*
X065266Y017817D01*
X065266Y017285D01*
X065286Y017285D01*
X065266Y017817D02*
X063495Y017817D01*
X064636Y016635D02*
X062353Y016635D01*
X061703Y017285D01*
X061703Y015986D02*
X061703Y015454D01*
X063495Y015454D01*
X064636Y016635D02*
X065286Y015986D01*
X061703Y015454D02*
X057983Y015454D01*
X059124Y016635D02*
X056841Y016635D01*
X056191Y017285D01*
X057983Y017817D02*
X054243Y017817D01*
X054243Y017285D01*
X054262Y017285D01*
X054243Y017817D02*
X052471Y017817D01*
X053613Y016635D02*
X051329Y016635D01*
X050680Y017285D01*
X050680Y015986D02*
X050680Y015454D01*
X052471Y015454D01*
X053613Y016635D02*
X054262Y015986D01*
X050680Y015454D02*
X046959Y015454D01*
X048101Y016635D02*
X045817Y016635D01*
X045168Y017285D01*
X046959Y017817D02*
X043219Y017817D01*
X043219Y017285D01*
X043239Y017285D01*
X043219Y017817D02*
X041447Y017817D01*
X040306Y016635D02*
X042589Y016635D01*
X043239Y015986D01*
X041447Y015454D02*
X039656Y015454D01*
X039656Y015986D01*
X039656Y015454D02*
X035935Y015454D01*
X034794Y016635D02*
X034144Y017285D01*
X034794Y016635D02*
X037077Y016635D01*
X037727Y015986D01*
X039656Y017285D02*
X040306Y016635D01*
X035935Y017817D02*
X032195Y017817D01*
X032195Y017285D01*
X032215Y017285D01*
X032195Y017817D02*
X030424Y017817D01*
X031565Y016635D02*
X029282Y016635D01*
X028632Y017285D01*
X028632Y015986D02*
X028632Y015454D01*
X030424Y015454D01*
X031565Y016635D02*
X032215Y015986D01*
X028632Y015454D02*
X024912Y015454D01*
X026054Y016635D02*
X026703Y015986D01*
X026703Y021498D02*
X026054Y022147D01*
X026703Y027009D02*
X026054Y027659D01*
X015680Y027009D02*
X015030Y027659D01*
X012747Y027659D01*
X012097Y028309D01*
X012097Y027009D02*
X012097Y026478D01*
X013888Y026478D01*
X012097Y026478D02*
X008376Y026478D01*
X008376Y027324D01*
X008376Y027994D02*
X008376Y028840D01*
X010148Y028840D01*
X010148Y028328D01*
X010168Y028309D01*
X010148Y028840D02*
X013888Y028840D01*
X010168Y027009D02*
X009518Y027659D01*
X007235Y027659D01*
X006585Y028309D01*
X005187Y028840D02*
X008376Y028840D01*
X008376Y026478D02*
X007117Y026478D01*
X006585Y027009D01*
X005187Y028840D02*
X004656Y028309D01*
X004636Y028309D01*
X004636Y028250D01*
X003258Y028250D02*
X003258Y033761D01*
X004656Y033820D02*
X004813Y033978D01*
X007117Y037502D02*
X008376Y037502D01*
X008376Y038348D01*
X008376Y039017D02*
X008376Y039864D01*
X010148Y039864D01*
X010148Y039352D01*
X010168Y039332D01*
X010148Y039864D02*
X013888Y039864D01*
X012747Y038683D02*
X012097Y039332D01*
X012747Y038683D02*
X015030Y038683D01*
X015680Y038033D01*
X013888Y037502D02*
X012097Y037502D01*
X012097Y038033D01*
X012097Y037502D02*
X008376Y037502D01*
X007117Y037502D02*
X006585Y038033D01*
X007235Y038683D02*
X006585Y039332D01*
X007235Y038683D02*
X009518Y038683D01*
X010168Y038033D01*
X008376Y039864D02*
X005187Y039864D01*
X004656Y039332D01*
X004636Y039332D01*
X004636Y039273D01*
X003258Y039273D02*
X003258Y044785D01*
X004656Y043545D02*
X006762Y041439D01*
X087156Y041439D01*
X083750Y043013D02*
X080030Y043013D01*
X081172Y044194D02*
X078888Y044194D01*
X078239Y044844D01*
X080030Y045376D02*
X076290Y045376D01*
X076290Y044844D01*
X076310Y044844D01*
X076290Y045376D02*
X074518Y045376D01*
X073376Y044194D02*
X072727Y044844D01*
X073376Y044194D02*
X075660Y044194D01*
X076310Y043545D01*
X074518Y043013D02*
X072727Y043013D01*
X072727Y043545D01*
X072727Y043013D02*
X069006Y043013D01*
X067865Y044194D02*
X067215Y044844D01*
X067865Y044194D02*
X070148Y044194D01*
X070798Y043545D01*
X069006Y045376D02*
X065266Y045376D01*
X065266Y044844D01*
X065286Y044844D01*
X065266Y045376D02*
X063495Y045376D01*
X064636Y044194D02*
X062353Y044194D01*
X061703Y044844D01*
X061703Y043545D02*
X061703Y043013D01*
X063495Y043013D01*
X064636Y044194D02*
X065286Y043545D01*
X061703Y043013D02*
X057983Y043013D01*
X059124Y044194D02*
X056841Y044194D01*
X056191Y044844D01*
X057983Y045376D02*
X054243Y045376D01*
X054243Y044844D01*
X054262Y044844D01*
X054243Y045376D02*
X052471Y045376D01*
X053613Y044194D02*
X051329Y044194D01*
X050680Y044844D01*
X050680Y043545D02*
X050680Y043013D01*
X052471Y043013D01*
X053613Y044194D02*
X054262Y043545D01*
X050680Y043013D02*
X046959Y043013D01*
X048101Y044194D02*
X048750Y043545D01*
X048101Y044194D02*
X045817Y044194D01*
X045168Y044844D01*
X046959Y045376D02*
X043219Y045376D01*
X043219Y044844D01*
X043239Y044844D01*
X043219Y045376D02*
X041447Y045376D01*
X040306Y044194D02*
X042589Y044194D01*
X043239Y043545D01*
X041447Y043013D02*
X039656Y043013D01*
X039656Y043545D01*
X039656Y043013D02*
X035935Y043013D01*
X034794Y044194D02*
X034144Y044844D01*
X034794Y044194D02*
X037077Y044194D01*
X037727Y043545D01*
X039656Y044844D02*
X040306Y044194D01*
X035935Y045376D02*
X032195Y045376D01*
X032195Y044844D01*
X032215Y044844D01*
X032195Y045376D02*
X030424Y045376D01*
X031565Y044194D02*
X029282Y044194D01*
X028632Y044844D01*
X028632Y043545D02*
X028632Y043013D01*
X030424Y043013D01*
X031565Y044194D02*
X032215Y043545D01*
X028632Y043013D02*
X024912Y043013D01*
X026054Y044194D02*
X026703Y043545D01*
X031565Y038683D02*
X032215Y038033D01*
X026703Y049057D02*
X026054Y049706D01*
X024912Y054037D02*
X023121Y054037D01*
X023121Y054569D01*
X023121Y054037D02*
X019400Y054037D01*
X019400Y054883D01*
X019400Y055553D02*
X019400Y056399D01*
X021172Y056399D01*
X021172Y055868D01*
X021191Y055868D01*
X021172Y056399D02*
X024912Y056399D01*
X024912Y055553D01*
X024912Y054883D02*
X024912Y054037D01*
X028632Y054037D01*
X028632Y054569D01*
X028632Y054037D02*
X030424Y054037D01*
X030424Y054883D01*
X030424Y055553D02*
X030424Y056399D01*
X032195Y056399D01*
X032195Y055868D01*
X032215Y055868D01*
X032195Y056399D02*
X035935Y056399D01*
X035935Y055553D01*
X035935Y054883D02*
X035935Y054037D01*
X039656Y054037D01*
X039656Y054569D01*
X039656Y054037D02*
X041447Y054037D01*
X041447Y054883D01*
X041447Y055553D02*
X041447Y056399D01*
X043219Y056399D01*
X043219Y055868D01*
X043239Y055868D01*
X043219Y056399D02*
X046959Y056399D01*
X046959Y055553D01*
X046959Y054883D02*
X046959Y054037D01*
X050680Y054037D01*
X050680Y054569D01*
X050680Y054037D02*
X052471Y054037D01*
X052471Y054883D01*
X052471Y055553D02*
X052471Y056399D01*
X054243Y056399D01*
X054243Y055868D01*
X054262Y055868D01*
X054243Y056399D02*
X057983Y056399D01*
X057983Y055553D01*
X057983Y054883D02*
X057983Y054037D01*
X061703Y054037D01*
X061703Y054569D01*
X061703Y054037D02*
X063495Y054037D01*
X063495Y054883D01*
X063495Y055553D02*
X063495Y056399D01*
X065266Y056399D01*
X065266Y055868D01*
X065286Y055868D01*
X065266Y056399D02*
X069006Y056399D01*
X069006Y055553D01*
X069006Y054883D02*
X069006Y054037D01*
X072727Y054037D01*
X072727Y054569D01*
X072727Y054037D02*
X074518Y054037D01*
X074518Y054883D01*
X074518Y055553D02*
X074518Y056399D01*
X076290Y056399D01*
X076290Y055868D01*
X076310Y055868D01*
X076290Y056399D02*
X080030Y056399D01*
X080030Y055553D01*
X080030Y054883D02*
X080030Y054037D01*
X083750Y054037D01*
X083750Y054569D01*
X083750Y054037D02*
X085542Y054037D01*
X085542Y054883D01*
X085542Y055553D02*
X085542Y056399D01*
X086802Y056399D01*
X087333Y055868D01*
X087983Y055218D01*
X090069Y055218D01*
X090404Y055553D01*
X091054Y055553D01*
X091054Y054883D02*
X091054Y054824D01*
X092432Y054824D01*
X092432Y060336D01*
X091054Y060336D01*
X091054Y060395D01*
X090207Y059549D01*
X089262Y059549D01*
X089262Y060080D01*
X089262Y059549D02*
X085542Y059549D01*
X085542Y060395D01*
X085542Y061065D02*
X085542Y061911D01*
X086802Y061911D01*
X087333Y061380D01*
X087983Y060730D01*
X090069Y060730D01*
X090404Y061065D01*
X091054Y061065D01*
X089262Y061380D02*
X087156Y063486D01*
X006762Y063486D01*
X004656Y065592D01*
X004636Y066832D02*
X003258Y066832D01*
X003258Y061320D01*
X004636Y061320D01*
X004636Y061380D01*
X004656Y061380D01*
X005187Y061911D01*
X008376Y061911D01*
X008376Y061065D01*
X008376Y060395D02*
X008376Y059549D01*
X012097Y059549D01*
X012097Y060080D01*
X012097Y059549D02*
X013888Y059549D01*
X013888Y060395D01*
X013888Y061065D02*
X013888Y061911D01*
X015660Y061911D01*
X015660Y061380D01*
X015680Y061380D01*
X015660Y061911D02*
X019400Y061911D01*
X019400Y061065D01*
X019400Y060395D02*
X019400Y059549D01*
X023121Y059549D01*
X023121Y060080D01*
X023121Y059549D02*
X024912Y059549D01*
X024912Y060395D01*
X024912Y061065D02*
X024912Y061911D01*
X026684Y061911D01*
X026684Y061380D01*
X026703Y061380D01*
X026684Y061911D02*
X030424Y061911D01*
X030424Y061065D01*
X030424Y060395D02*
X030424Y059549D01*
X034144Y059549D01*
X034144Y060080D01*
X034144Y059549D02*
X035935Y059549D01*
X035935Y060395D01*
X035935Y061065D02*
X035935Y061911D01*
X037707Y061911D01*
X037707Y061380D01*
X037727Y061380D01*
X037707Y061911D02*
X041447Y061911D01*
X041447Y061065D01*
X041447Y060395D02*
X041447Y059549D01*
X045168Y059549D01*
X045168Y060080D01*
X045168Y059549D02*
X046959Y059549D01*
X046959Y060395D01*
X046959Y061065D02*
X046959Y061911D01*
X048731Y061911D01*
X048731Y061380D01*
X048750Y061380D01*
X048731Y061911D02*
X052471Y061911D01*
X052471Y061065D01*
X052471Y060395D02*
X052471Y059549D01*
X056191Y059549D01*
X056191Y060080D01*
X056191Y059549D02*
X057983Y059549D01*
X057983Y060395D01*
X057983Y061065D02*
X057983Y061911D01*
X059754Y061911D01*
X059754Y061380D01*
X059774Y061380D01*
X059754Y061911D02*
X063495Y061911D01*
X063495Y061065D01*
X063495Y060395D02*
X063495Y059549D01*
X067215Y059549D01*
X067215Y060080D01*
X067215Y059549D02*
X069006Y059549D01*
X069006Y060395D01*
X069006Y061065D02*
X069006Y061911D01*
X070778Y061911D01*
X070778Y061380D01*
X070798Y061380D01*
X070778Y061911D02*
X074518Y061911D01*
X074518Y061065D01*
X074518Y060395D02*
X074518Y059549D01*
X078239Y059549D01*
X078239Y060080D01*
X078239Y059549D02*
X080030Y059549D01*
X080030Y060395D01*
X080030Y061065D02*
X080030Y061911D01*
X081802Y061911D01*
X081802Y061380D01*
X081821Y061380D01*
X081802Y061911D02*
X085542Y061911D01*
X086684Y060730D02*
X084400Y060730D01*
X083750Y061380D01*
X083750Y060080D02*
X083750Y059549D01*
X085542Y059549D01*
X086684Y060730D02*
X087333Y060080D01*
X087156Y057974D02*
X089262Y055868D01*
X089262Y054569D02*
X089262Y054037D01*
X090207Y054037D01*
X091054Y054883D01*
X089262Y054037D02*
X085542Y054037D01*
X086684Y055218D02*
X084400Y055218D01*
X083750Y055868D01*
X085542Y056399D02*
X081802Y056399D01*
X081802Y055868D01*
X081821Y055868D01*
X081802Y056399D02*
X080030Y056399D01*
X081172Y055218D02*
X078888Y055218D01*
X078239Y055868D01*
X078239Y054569D02*
X078239Y054037D01*
X080030Y054037D01*
X081172Y055218D02*
X081821Y054569D01*
X078239Y054037D02*
X074518Y054037D01*
X073376Y055218D02*
X072727Y055868D01*
X073376Y055218D02*
X075660Y055218D01*
X076310Y054569D01*
X074518Y056399D02*
X070778Y056399D01*
X070778Y055868D01*
X070798Y055868D01*
X070778Y056399D02*
X069006Y056399D01*
X067865Y055218D02*
X067215Y055868D01*
X067865Y055218D02*
X070148Y055218D01*
X070798Y054569D01*
X069006Y054037D02*
X067215Y054037D01*
X067215Y054569D01*
X067215Y054037D02*
X063495Y054037D01*
X064636Y055218D02*
X062353Y055218D01*
X061703Y055868D01*
X063495Y056399D02*
X059754Y056399D01*
X059754Y055868D01*
X059774Y055868D01*
X059754Y056399D02*
X057983Y056399D01*
X059124Y055218D02*
X056841Y055218D01*
X056191Y055868D01*
X056191Y054569D02*
X056191Y054037D01*
X057983Y054037D01*
X059124Y055218D02*
X059774Y054569D01*
X056191Y054037D02*
X052471Y054037D01*
X053613Y055218D02*
X051329Y055218D01*
X050680Y055868D01*
X052471Y056399D02*
X048731Y056399D01*
X048731Y055868D01*
X048750Y055868D01*
X048731Y056399D02*
X046959Y056399D01*
X045817Y055218D02*
X045168Y055868D01*
X045817Y055218D02*
X048101Y055218D01*
X048750Y054569D01*
X046959Y054037D02*
X045168Y054037D01*
X045168Y054569D01*
X045168Y054037D02*
X041447Y054037D01*
X042589Y055218D02*
X040306Y055218D01*
X039656Y055868D01*
X041447Y056399D02*
X037707Y056399D01*
X037707Y055868D01*
X037727Y055868D01*
X037707Y056399D02*
X035935Y056399D01*
X034794Y055218D02*
X034144Y055868D01*
X034794Y055218D02*
X037077Y055218D01*
X037727Y054569D01*
X035935Y054037D02*
X034144Y054037D01*
X034144Y054569D01*
X034144Y054037D02*
X030424Y054037D01*
X031565Y055218D02*
X029282Y055218D01*
X028632Y055868D01*
X030424Y056399D02*
X026684Y056399D01*
X026684Y055868D01*
X026703Y055868D01*
X026684Y056399D02*
X024912Y056399D01*
X026054Y055218D02*
X023770Y055218D01*
X023121Y055868D01*
X021191Y054569D02*
X020542Y055218D01*
X018258Y055218D01*
X017609Y055868D01*
X017609Y054569D02*
X017609Y054037D01*
X019400Y054037D01*
X017609Y054037D02*
X013888Y054037D01*
X013888Y054883D01*
X013888Y055553D02*
X013888Y056399D01*
X015660Y056399D01*
X015660Y055868D01*
X015680Y055868D01*
X015660Y056399D02*
X019400Y056399D01*
X019400Y059549D02*
X017609Y059549D01*
X017609Y060080D01*
X017609Y059549D02*
X013888Y059549D01*
X012747Y060730D02*
X012097Y061380D01*
X012747Y060730D02*
X015030Y060730D01*
X015680Y060080D01*
X017609Y061380D02*
X018258Y060730D01*
X020542Y060730D01*
X021191Y060080D01*
X021191Y061380D02*
X021172Y061380D01*
X021172Y061911D01*
X024912Y061911D01*
X026054Y060730D02*
X023770Y060730D01*
X023121Y061380D01*
X021172Y061911D02*
X019400Y061911D01*
X019400Y065061D02*
X017609Y065061D01*
X017609Y065592D01*
X017609Y065061D02*
X013888Y065061D01*
X013888Y065907D01*
X013888Y066576D02*
X013888Y067423D01*
X015660Y067423D01*
X015660Y066891D01*
X015680Y066891D01*
X015660Y067423D02*
X019400Y067423D01*
X019400Y066576D01*
X019400Y065907D02*
X019400Y065061D01*
X023121Y065061D01*
X023121Y065592D01*
X023121Y065061D02*
X024912Y065061D01*
X024912Y065907D01*
X024912Y066576D02*
X024912Y067423D01*
X026684Y067423D01*
X026684Y066891D01*
X026703Y066891D01*
X026684Y067423D02*
X030424Y067423D01*
X030424Y066576D01*
X030424Y065907D02*
X030424Y065061D01*
X034144Y065061D01*
X034144Y065592D01*
X034144Y065061D02*
X035935Y065061D01*
X035935Y065907D01*
X035935Y066576D02*
X035935Y067423D01*
X037707Y067423D01*
X037707Y066891D01*
X037727Y066891D01*
X037707Y067423D02*
X041447Y067423D01*
X041447Y066576D01*
X041447Y065907D02*
X041447Y065061D01*
X045168Y065061D01*
X045168Y065592D01*
X045168Y065061D02*
X046959Y065061D01*
X046959Y065907D01*
X046959Y066576D02*
X046959Y067423D01*
X048731Y067423D01*
X048731Y066891D01*
X048750Y066891D01*
X048731Y067423D02*
X052471Y067423D01*
X052471Y066576D01*
X052471Y065907D02*
X052471Y065061D01*
X056191Y065061D01*
X056191Y065592D01*
X056191Y065061D02*
X057983Y065061D01*
X057983Y065907D01*
X057983Y066576D02*
X057983Y067423D01*
X059754Y067423D01*
X059754Y066891D01*
X059774Y066891D01*
X059754Y067423D02*
X063495Y067423D01*
X063495Y066576D01*
X063495Y065907D02*
X063495Y065061D01*
X067215Y065061D01*
X067215Y065592D01*
X067215Y065061D02*
X069006Y065061D01*
X069006Y065907D01*
X069006Y066576D02*
X069006Y067423D01*
X070778Y067423D01*
X070778Y066891D01*
X070798Y066891D01*
X070778Y067423D02*
X074518Y067423D01*
X074518Y066576D01*
X074518Y065907D02*
X074518Y065061D01*
X078239Y065061D01*
X078239Y065592D01*
X078239Y065061D02*
X080030Y065061D01*
X080030Y065907D01*
X080030Y066576D02*
X080030Y067423D01*
X081802Y067423D01*
X081802Y066891D01*
X081821Y066891D01*
X081802Y067423D02*
X085542Y067423D01*
X086802Y067423D01*
X087333Y066891D01*
X087983Y066242D01*
X090069Y066242D01*
X090404Y066576D01*
X091054Y066576D01*
X091054Y065907D02*
X091054Y065848D01*
X092432Y065848D01*
X092432Y071360D01*
X091054Y071360D01*
X091054Y071419D01*
X090207Y070572D01*
X089262Y070572D01*
X089262Y071104D01*
X089262Y070572D02*
X085542Y070572D01*
X085542Y071419D01*
X085542Y072088D02*
X085542Y072935D01*
X086802Y072935D01*
X087333Y072403D01*
X087983Y071754D01*
X090069Y071754D01*
X090404Y072088D01*
X091054Y072088D01*
X089262Y072403D02*
X087156Y074509D01*
X006762Y074509D01*
X004656Y076616D01*
X004636Y077856D02*
X003258Y077856D01*
X003258Y072344D01*
X004636Y072344D01*
X004636Y072403D01*
X004656Y072403D01*
X005187Y072935D01*
X008376Y072935D01*
X008376Y072088D01*
X008376Y071419D02*
X008376Y070572D01*
X012097Y070572D01*
X012097Y071104D01*
X012097Y070572D02*
X013888Y070572D01*
X013888Y071419D01*
X013888Y072088D02*
X013888Y072935D01*
X015660Y072935D01*
X015660Y072403D01*
X015680Y072403D01*
X015660Y072935D02*
X019400Y072935D01*
X019400Y072088D01*
X019400Y071419D02*
X019400Y070572D01*
X023121Y070572D01*
X023121Y071104D01*
X023121Y070572D02*
X024912Y070572D01*
X024912Y071419D01*
X024912Y072088D02*
X024912Y072935D01*
X026684Y072935D01*
X026684Y072403D01*
X026703Y072403D01*
X026684Y072935D02*
X030424Y072935D01*
X030424Y072088D01*
X030424Y071419D02*
X030424Y070572D01*
X034144Y070572D01*
X034144Y071104D01*
X034144Y070572D02*
X035935Y070572D01*
X035935Y071419D01*
X035935Y072088D02*
X035935Y072935D01*
X037707Y072935D01*
X037707Y072403D01*
X037727Y072403D01*
X037707Y072935D02*
X041447Y072935D01*
X041447Y072088D01*
X041447Y071419D02*
X041447Y070572D01*
X045168Y070572D01*
X045168Y071104D01*
X045168Y070572D02*
X046959Y070572D01*
X046959Y071419D01*
X046959Y072088D02*
X046959Y072935D01*
X048731Y072935D01*
X048731Y072403D01*
X048750Y072403D01*
X048731Y072935D02*
X052471Y072935D01*
X052471Y072088D01*
X052471Y071419D02*
X052471Y070572D01*
X056191Y070572D01*
X056191Y071104D01*
X056191Y070572D02*
X057983Y070572D01*
X057983Y071419D01*
X057983Y072088D02*
X057983Y072935D01*
X059754Y072935D01*
X059754Y072403D01*
X059774Y072403D01*
X059754Y072935D02*
X063495Y072935D01*
X063495Y072088D01*
X063495Y071419D02*
X063495Y070572D01*
X067215Y070572D01*
X067215Y071104D01*
X067215Y070572D02*
X069006Y070572D01*
X069006Y071419D01*
X069006Y072088D02*
X069006Y072935D01*
X070778Y072935D01*
X070778Y072403D01*
X070798Y072403D01*
X070778Y072935D02*
X074518Y072935D01*
X074518Y072088D01*
X074518Y071419D02*
X074518Y070572D01*
X078239Y070572D01*
X078239Y071104D01*
X078239Y070572D02*
X080030Y070572D01*
X080030Y071419D01*
X080030Y072088D02*
X080030Y072935D01*
X081802Y072935D01*
X081802Y072403D01*
X081821Y072403D01*
X081802Y072935D02*
X085542Y072935D01*
X086684Y071754D02*
X084400Y071754D01*
X083750Y072403D01*
X083750Y071104D02*
X083750Y070572D01*
X085542Y070572D01*
X086684Y071754D02*
X087333Y071104D01*
X083750Y070572D02*
X080030Y070572D01*
X081172Y071754D02*
X078888Y071754D01*
X078239Y072403D01*
X080030Y072935D02*
X076290Y072935D01*
X076290Y072403D01*
X076310Y072403D01*
X076290Y072935D02*
X074518Y072935D01*
X073376Y071754D02*
X072727Y072403D01*
X073376Y071754D02*
X075660Y071754D01*
X076310Y071104D01*
X074518Y070572D02*
X072727Y070572D01*
X072727Y071104D01*
X072727Y070572D02*
X069006Y070572D01*
X067865Y071754D02*
X067215Y072403D01*
X067865Y071754D02*
X070148Y071754D01*
X070798Y071104D01*
X069006Y072935D02*
X065266Y072935D01*
X065266Y072403D01*
X065286Y072403D01*
X065266Y072935D02*
X063495Y072935D01*
X064636Y071754D02*
X062353Y071754D01*
X061703Y072403D01*
X061703Y071104D02*
X061703Y070572D01*
X063495Y070572D01*
X064636Y071754D02*
X065286Y071104D01*
X061703Y070572D02*
X057983Y070572D01*
X059124Y071754D02*
X056841Y071754D01*
X056191Y072403D01*
X057983Y072935D02*
X054243Y072935D01*
X054243Y072403D01*
X054262Y072403D01*
X054243Y072935D02*
X052471Y072935D01*
X053613Y071754D02*
X051329Y071754D01*
X050680Y072403D01*
X050680Y071104D02*
X050680Y070572D01*
X052471Y070572D01*
X053613Y071754D02*
X054262Y071104D01*
X050680Y070572D02*
X046959Y070572D01*
X048101Y071754D02*
X045817Y071754D01*
X045168Y072403D01*
X046959Y072935D02*
X043219Y072935D01*
X043219Y072403D01*
X043239Y072403D01*
X043219Y072935D02*
X041447Y072935D01*
X042589Y071754D02*
X040306Y071754D01*
X039656Y072403D01*
X039656Y071104D02*
X039656Y070572D01*
X041447Y070572D01*
X042589Y071754D02*
X043239Y071104D01*
X039656Y070572D02*
X035935Y070572D01*
X034794Y071754D02*
X034144Y072403D01*
X034794Y071754D02*
X037077Y071754D01*
X037727Y071104D01*
X035935Y072935D02*
X032195Y072935D01*
X032195Y072403D01*
X032215Y072403D01*
X032195Y072935D02*
X030424Y072935D01*
X031565Y071754D02*
X029282Y071754D01*
X028632Y072403D01*
X028632Y071104D02*
X028632Y070572D01*
X030424Y070572D01*
X031565Y071754D02*
X032215Y071104D01*
X028632Y070572D02*
X024912Y070572D01*
X026054Y071754D02*
X023770Y071754D01*
X023121Y072403D01*
X024912Y072935D02*
X021172Y072935D01*
X021172Y072403D01*
X021191Y072403D01*
X021172Y072935D02*
X019400Y072935D01*
X018258Y071754D02*
X017609Y072403D01*
X018258Y071754D02*
X020542Y071754D01*
X021191Y071104D01*
X019400Y070572D02*
X017609Y070572D01*
X017609Y071104D01*
X017609Y070572D02*
X013888Y070572D01*
X012747Y071754D02*
X012097Y072403D01*
X012747Y071754D02*
X015030Y071754D01*
X015680Y071104D01*
X013888Y072935D02*
X010148Y072935D01*
X010148Y072423D01*
X010168Y072403D01*
X010148Y072935D02*
X008376Y072935D01*
X007235Y071754D02*
X006585Y072403D01*
X007235Y071754D02*
X009518Y071754D01*
X010168Y071104D01*
X008376Y070572D02*
X007117Y070572D01*
X006585Y071104D01*
X004656Y071104D02*
X003613Y071104D01*
X003613Y071163D01*
X003258Y072344D02*
X003258Y066832D01*
X004636Y066832D02*
X004636Y066891D01*
X004656Y066891D01*
X005187Y067423D01*
X008376Y067423D01*
X008376Y066576D01*
X008376Y065907D02*
X008376Y065061D01*
X012097Y065061D01*
X012097Y065592D01*
X012097Y065061D02*
X013888Y065061D01*
X012747Y066242D02*
X012097Y066891D01*
X012747Y066242D02*
X015030Y066242D01*
X015680Y065592D01*
X017609Y066891D02*
X018258Y066242D01*
X020542Y066242D01*
X021191Y065592D01*
X021191Y066891D02*
X021172Y066891D01*
X021172Y067423D01*
X024912Y067423D01*
X026054Y066242D02*
X023770Y066242D01*
X023121Y066891D01*
X021172Y067423D02*
X019400Y067423D01*
X013888Y067423D02*
X010148Y067423D01*
X010148Y066911D01*
X010168Y066891D01*
X010148Y067423D02*
X008376Y067423D01*
X007235Y066242D02*
X006585Y066891D01*
X007235Y066242D02*
X009518Y066242D01*
X010168Y065592D01*
X008376Y065061D02*
X007117Y065061D01*
X006585Y065592D01*
X008376Y061911D02*
X010148Y061911D01*
X010148Y061399D01*
X010168Y061380D01*
X010148Y061911D02*
X013888Y061911D01*
X010168Y060080D02*
X009518Y060730D01*
X007235Y060730D01*
X006585Y061380D01*
X006585Y060080D02*
X007117Y059549D01*
X008376Y059549D01*
X006762Y057974D02*
X087156Y057974D01*
X086684Y055218D02*
X087333Y054569D01*
X083750Y059549D02*
X080030Y059549D01*
X081172Y060730D02*
X078888Y060730D01*
X078239Y061380D01*
X080030Y061911D02*
X076290Y061911D01*
X076290Y061380D01*
X076310Y061380D01*
X076290Y061911D02*
X074518Y061911D01*
X073376Y060730D02*
X072727Y061380D01*
X073376Y060730D02*
X075660Y060730D01*
X076310Y060080D01*
X074518Y059549D02*
X072727Y059549D01*
X072727Y060080D01*
X072727Y059549D02*
X069006Y059549D01*
X067865Y060730D02*
X067215Y061380D01*
X067865Y060730D02*
X070148Y060730D01*
X070798Y060080D01*
X069006Y061911D02*
X065266Y061911D01*
X065266Y061380D01*
X065286Y061380D01*
X065266Y061911D02*
X063495Y061911D01*
X064636Y060730D02*
X062353Y060730D01*
X061703Y061380D01*
X061703Y060080D02*
X061703Y059549D01*
X063495Y059549D01*
X064636Y060730D02*
X065286Y060080D01*
X061703Y059549D02*
X057983Y059549D01*
X059124Y060730D02*
X056841Y060730D01*
X056191Y061380D01*
X057983Y061911D02*
X054243Y061911D01*
X054243Y061380D01*
X054262Y061380D01*
X054243Y061911D02*
X052471Y061911D01*
X053613Y060730D02*
X051329Y060730D01*
X050680Y061380D01*
X050680Y060080D02*
X050680Y059549D01*
X052471Y059549D01*
X053613Y060730D02*
X054262Y060080D01*
X050680Y059549D02*
X046959Y059549D01*
X048101Y060730D02*
X045817Y060730D01*
X045168Y061380D01*
X046959Y061911D02*
X043219Y061911D01*
X043219Y061380D01*
X043239Y061380D01*
X043219Y061911D02*
X041447Y061911D01*
X042589Y060730D02*
X040306Y060730D01*
X039656Y061380D01*
X039656Y060080D02*
X039656Y059549D01*
X041447Y059549D01*
X042589Y060730D02*
X043239Y060080D01*
X039656Y059549D02*
X035935Y059549D01*
X034794Y060730D02*
X034144Y061380D01*
X034794Y060730D02*
X037077Y060730D01*
X037727Y060080D01*
X035935Y061911D02*
X032195Y061911D01*
X032195Y061380D01*
X032215Y061380D01*
X032195Y061911D02*
X030424Y061911D01*
X031565Y060730D02*
X029282Y060730D01*
X028632Y061380D01*
X028632Y060080D02*
X028632Y059549D01*
X030424Y059549D01*
X031565Y060730D02*
X032215Y060080D01*
X028632Y059549D02*
X024912Y059549D01*
X026054Y060730D02*
X026703Y060080D01*
X026054Y055218D02*
X026703Y054569D01*
X031565Y055218D02*
X032215Y054569D01*
X042589Y055218D02*
X043239Y054569D01*
X048750Y060080D02*
X048101Y060730D01*
X046959Y065061D02*
X050680Y065061D01*
X050680Y065592D01*
X050680Y065061D02*
X052471Y065061D01*
X053613Y066242D02*
X051329Y066242D01*
X050680Y066891D01*
X052471Y067423D02*
X054243Y067423D01*
X054243Y066891D01*
X054262Y066891D01*
X054243Y067423D02*
X057983Y067423D01*
X059124Y066242D02*
X056841Y066242D01*
X056191Y066891D01*
X054262Y065592D02*
X053613Y066242D01*
X057983Y065061D02*
X061703Y065061D01*
X061703Y065592D01*
X061703Y065061D02*
X063495Y065061D01*
X064636Y066242D02*
X062353Y066242D01*
X061703Y066891D01*
X063495Y067423D02*
X065266Y067423D01*
X065266Y066891D01*
X065286Y066891D01*
X065266Y067423D02*
X069006Y067423D01*
X067865Y066242D02*
X067215Y066891D01*
X067865Y066242D02*
X070148Y066242D01*
X070798Y065592D01*
X069006Y065061D02*
X072727Y065061D01*
X072727Y065592D01*
X072727Y065061D02*
X074518Y065061D01*
X073376Y066242D02*
X072727Y066891D01*
X073376Y066242D02*
X075660Y066242D01*
X076310Y065592D01*
X076310Y066891D02*
X076290Y066891D01*
X076290Y067423D01*
X080030Y067423D01*
X081172Y066242D02*
X078888Y066242D01*
X078239Y066891D01*
X076290Y067423D02*
X074518Y067423D01*
X080030Y065061D02*
X083750Y065061D01*
X083750Y065592D01*
X083750Y065061D02*
X085542Y065061D01*
X085542Y065907D01*
X085542Y066576D02*
X085542Y067423D01*
X086684Y066242D02*
X084400Y066242D01*
X083750Y066891D01*
X081821Y065592D02*
X081172Y066242D01*
X085542Y065061D02*
X089262Y065061D01*
X089262Y065592D01*
X089262Y065061D02*
X090207Y065061D01*
X091054Y065907D01*
X092432Y065848D02*
X092432Y060336D01*
X092432Y054824D02*
X092432Y049313D01*
X081821Y049057D02*
X081172Y049706D01*
X081172Y044194D02*
X081821Y043545D01*
X081172Y033171D02*
X081821Y032521D01*
X081172Y027659D02*
X081821Y027009D01*
X081802Y023328D02*
X080030Y023328D01*
X081172Y022147D02*
X078888Y022147D01*
X078239Y022797D01*
X078239Y021498D02*
X078239Y020966D01*
X080030Y020966D01*
X081172Y022147D02*
X081821Y021498D01*
X081821Y022797D02*
X081802Y022797D01*
X081802Y023328D01*
X085542Y023328D01*
X086684Y022147D02*
X084400Y022147D01*
X083750Y022797D01*
X085542Y020966D02*
X089262Y020966D01*
X089262Y021498D01*
X089262Y020966D02*
X090207Y020966D01*
X091054Y021813D01*
X087333Y021498D02*
X086684Y022147D01*
X081172Y016635D02*
X081821Y015986D01*
X078239Y020966D02*
X074518Y020966D01*
X073376Y022147D02*
X072727Y022797D01*
X073376Y022147D02*
X075660Y022147D01*
X076310Y021498D01*
X074518Y023328D02*
X070778Y023328D01*
X070778Y022797D01*
X070798Y022797D01*
X070778Y023328D02*
X069006Y023328D01*
X067865Y022147D02*
X067215Y022797D01*
X067865Y022147D02*
X070148Y022147D01*
X070798Y021498D01*
X069006Y020966D02*
X067215Y020966D01*
X067215Y021498D01*
X067215Y020966D02*
X063495Y020966D01*
X064636Y022147D02*
X062353Y022147D01*
X061703Y022797D01*
X063495Y023328D02*
X059754Y023328D01*
X059754Y022797D01*
X059774Y022797D01*
X059754Y023328D02*
X057983Y023328D01*
X059124Y022147D02*
X056841Y022147D01*
X056191Y022797D01*
X056191Y021498D02*
X056191Y020966D01*
X057983Y020966D01*
X059124Y022147D02*
X059774Y021498D01*
X056191Y020966D02*
X052471Y020966D01*
X053613Y022147D02*
X051329Y022147D01*
X050680Y022797D01*
X052471Y023328D02*
X048731Y023328D01*
X048731Y022797D01*
X048750Y022797D01*
X048101Y022147D02*
X048750Y021498D01*
X048101Y016635D02*
X048750Y015986D01*
X053613Y011124D02*
X054262Y010474D01*
X059124Y005612D02*
X059774Y004962D01*
X065286Y010474D02*
X064636Y011124D01*
X059774Y015986D02*
X059124Y016635D01*
X054262Y021498D02*
X053613Y022147D01*
X059124Y027659D02*
X059774Y027009D01*
X064636Y022147D02*
X065286Y021498D01*
X059774Y032521D02*
X059124Y033171D01*
X054262Y038033D02*
X053613Y038683D01*
X059124Y044194D02*
X059774Y043545D01*
X064636Y038683D02*
X065286Y038033D01*
X059774Y049057D02*
X059124Y049706D01*
X054262Y054569D02*
X053613Y055218D01*
X059124Y060730D02*
X059774Y060080D01*
X064636Y055218D02*
X065286Y054569D01*
X065286Y065592D02*
X064636Y066242D01*
X059774Y065592D02*
X059124Y066242D01*
X059774Y071104D02*
X059124Y071754D01*
X057983Y076084D02*
X056191Y076084D01*
X056191Y076616D01*
X056191Y076084D02*
X052471Y076084D01*
X052471Y076931D01*
X052471Y077600D02*
X052471Y078446D01*
X054243Y078446D01*
X054243Y077915D01*
X054262Y077915D01*
X054243Y078446D02*
X057983Y078446D01*
X057983Y077600D01*
X057983Y076931D02*
X057983Y076084D01*
X061703Y076084D01*
X061703Y076616D01*
X061703Y076084D02*
X063495Y076084D01*
X063495Y076931D01*
X063495Y077600D02*
X063495Y078446D01*
X065266Y078446D01*
X065266Y077915D01*
X065286Y077915D01*
X065266Y078446D02*
X069006Y078446D01*
X069006Y077600D01*
X069006Y076931D02*
X069006Y076084D01*
X072727Y076084D01*
X072727Y076616D01*
X072727Y076084D02*
X074518Y076084D01*
X074518Y076931D01*
X074518Y077600D02*
X074518Y078446D01*
X076290Y078446D01*
X076290Y077915D01*
X076310Y077915D01*
X076290Y078446D02*
X080030Y078446D01*
X080030Y077600D01*
X080030Y076931D02*
X080030Y076084D01*
X083750Y076084D01*
X083750Y076616D01*
X083750Y076084D02*
X085542Y076084D01*
X085542Y076931D01*
X085542Y077600D02*
X085542Y078446D01*
X086802Y078446D01*
X087333Y077915D01*
X087983Y077265D01*
X090069Y077265D01*
X090404Y077600D01*
X091054Y077600D01*
X091054Y076931D02*
X091054Y076872D01*
X092432Y076872D01*
X092432Y082443D01*
X091054Y082443D01*
X090207Y081596D01*
X089262Y081596D01*
X089262Y082128D01*
X089262Y081596D02*
X085542Y081596D01*
X085542Y082443D01*
X085542Y083112D02*
X085542Y083958D01*
X086802Y083958D01*
X087333Y083427D01*
X087983Y082777D01*
X090069Y082777D01*
X090404Y083112D01*
X091054Y083112D01*
X089262Y083427D02*
X087156Y085533D01*
X006762Y085533D01*
X004656Y087639D01*
X004636Y088880D02*
X004636Y088939D01*
X004656Y088939D01*
X005187Y089470D01*
X008376Y089470D01*
X008376Y088624D01*
X008376Y087954D02*
X008376Y087108D01*
X012097Y087108D01*
X012097Y087639D01*
X012097Y087108D02*
X013888Y087108D01*
X013888Y087954D01*
X013888Y088624D02*
X013888Y089470D01*
X015660Y089470D01*
X015660Y088939D01*
X015680Y088939D01*
X015660Y089470D02*
X019400Y089470D01*
X019400Y088624D01*
X019400Y087954D02*
X019400Y087108D01*
X023121Y087108D01*
X023121Y087639D01*
X023121Y087108D02*
X024912Y087108D01*
X024912Y087954D01*
X024912Y088624D02*
X024912Y089470D01*
X026684Y089470D01*
X026684Y088939D01*
X026703Y088939D01*
X026684Y089470D02*
X030424Y089470D01*
X030424Y088624D01*
X030424Y087954D02*
X030424Y087108D01*
X034144Y087108D01*
X034144Y087639D01*
X034144Y087108D02*
X035935Y087108D01*
X035935Y087954D01*
X035935Y088624D02*
X035935Y089470D01*
X037707Y089470D01*
X037707Y088939D01*
X037727Y088939D01*
X037707Y089470D02*
X041447Y089470D01*
X041447Y088624D01*
X041447Y087954D02*
X041447Y087108D01*
X045168Y087108D01*
X045168Y087639D01*
X045168Y087108D02*
X046959Y087108D01*
X046959Y087954D01*
X046959Y088624D02*
X046959Y089470D01*
X048731Y089470D01*
X048731Y088939D01*
X048750Y088939D01*
X048731Y089470D02*
X052471Y089470D01*
X052471Y088624D01*
X052471Y087954D02*
X052471Y087108D01*
X056191Y087108D01*
X056191Y087639D01*
X056191Y087108D02*
X057983Y087108D01*
X057983Y087954D01*
X057983Y088624D02*
X057983Y089470D01*
X059754Y089470D01*
X059754Y088939D01*
X059774Y088939D01*
X059754Y089470D02*
X063495Y089470D01*
X063495Y088624D01*
X063495Y087954D02*
X063495Y087108D01*
X067215Y087108D01*
X067215Y087639D01*
X067215Y087108D02*
X069006Y087108D01*
X069006Y087954D01*
X069006Y088624D02*
X069006Y089470D01*
X070778Y089470D01*
X070778Y088939D01*
X070798Y088939D01*
X070778Y089470D02*
X074518Y089470D01*
X074518Y088624D01*
X074518Y087954D02*
X074518Y087108D01*
X078239Y087108D01*
X078239Y087639D01*
X078239Y087108D02*
X080030Y087108D01*
X080030Y087954D01*
X080030Y088624D02*
X080030Y089470D01*
X081802Y089470D01*
X081802Y088939D01*
X081821Y088939D01*
X081802Y089470D02*
X085542Y089470D01*
X086802Y089470D01*
X087333Y088939D01*
X087983Y088289D01*
X090069Y088289D01*
X090404Y088624D01*
X091054Y088624D01*
X091054Y087954D02*
X091054Y087895D01*
X092432Y086517D01*
X092432Y082443D01*
X090207Y087108D02*
X089262Y087108D01*
X089262Y087639D01*
X089262Y087108D02*
X085542Y087108D01*
X085542Y087954D01*
X085542Y088624D02*
X085542Y089470D01*
X086684Y088289D02*
X084400Y088289D01*
X083750Y088939D01*
X083750Y087639D02*
X083750Y087108D01*
X085542Y087108D01*
X086684Y088289D02*
X087333Y087639D01*
X083750Y087108D02*
X080030Y087108D01*
X081172Y088289D02*
X078888Y088289D01*
X078239Y088939D01*
X080030Y089470D02*
X076290Y089470D01*
X076290Y088939D01*
X076310Y088939D01*
X076290Y089470D02*
X074518Y089470D01*
X073376Y088289D02*
X072727Y088939D01*
X073376Y088289D02*
X075660Y088289D01*
X076310Y087639D01*
X074518Y087108D02*
X072727Y087108D01*
X072727Y087639D01*
X072727Y087108D02*
X069006Y087108D01*
X067865Y088289D02*
X067215Y088939D01*
X067865Y088289D02*
X070148Y088289D01*
X070798Y087639D01*
X069006Y089470D02*
X065266Y089470D01*
X065266Y088939D01*
X065286Y088939D01*
X065266Y089470D02*
X063495Y089470D01*
X064636Y088289D02*
X062353Y088289D01*
X061703Y088939D01*
X061703Y087639D02*
X061703Y087108D01*
X063495Y087108D01*
X064636Y088289D02*
X065286Y087639D01*
X061703Y087108D02*
X057983Y087108D01*
X059124Y088289D02*
X056841Y088289D01*
X056191Y088939D01*
X057983Y089470D02*
X054243Y089470D01*
X054243Y088939D01*
X054262Y088939D01*
X054243Y089470D02*
X052471Y089470D01*
X053613Y088289D02*
X051329Y088289D01*
X050680Y088939D01*
X050680Y087639D02*
X050680Y087108D01*
X052471Y087108D01*
X053613Y088289D02*
X054262Y087639D01*
X050680Y087108D02*
X046959Y087108D01*
X048101Y088289D02*
X048750Y087639D01*
X048101Y088289D02*
X045817Y088289D01*
X045168Y088939D01*
X046959Y089470D02*
X043219Y089470D01*
X043219Y088939D01*
X043239Y088939D01*
X043219Y089470D02*
X041447Y089470D01*
X042589Y088289D02*
X040306Y088289D01*
X039656Y088939D01*
X039656Y087639D02*
X039656Y087108D01*
X041447Y087108D01*
X042589Y088289D02*
X043239Y087639D01*
X039656Y087108D02*
X035935Y087108D01*
X034794Y088289D02*
X034144Y088939D01*
X034794Y088289D02*
X037077Y088289D01*
X037727Y087639D01*
X035935Y089470D02*
X032195Y089470D01*
X032195Y088939D01*
X032215Y088939D01*
X032195Y089470D02*
X030424Y089470D01*
X031565Y088289D02*
X029282Y088289D01*
X028632Y088939D01*
X028632Y087639D02*
X028632Y087108D01*
X030424Y087108D01*
X031565Y088289D02*
X032215Y087639D01*
X028632Y087108D02*
X024912Y087108D01*
X026054Y088289D02*
X023770Y088289D01*
X023121Y088939D01*
X024912Y089470D02*
X021172Y089470D01*
X021172Y088939D01*
X021191Y088939D01*
X021172Y089470D02*
X019400Y089470D01*
X018258Y088289D02*
X017609Y088939D01*
X018258Y088289D02*
X020542Y088289D01*
X021191Y087639D01*
X019400Y087108D02*
X017609Y087108D01*
X017609Y087639D01*
X017609Y087108D02*
X013888Y087108D01*
X012747Y088289D02*
X012097Y088939D01*
X012747Y088289D02*
X015030Y088289D01*
X015680Y087639D01*
X013888Y089470D02*
X010148Y089470D01*
X010148Y088958D01*
X010168Y088939D01*
X010148Y089470D02*
X008376Y089470D01*
X007235Y088289D02*
X006585Y088939D01*
X007235Y088289D02*
X009518Y088289D01*
X010168Y087639D01*
X008376Y087108D02*
X007117Y087108D01*
X006585Y087639D01*
X004636Y088880D02*
X004046Y088880D01*
X003258Y088092D01*
X003258Y083368D01*
X004636Y083368D01*
X004636Y083427D01*
X004656Y083427D01*
X005187Y083958D01*
X008376Y083958D01*
X008376Y083112D01*
X008376Y082443D02*
X008376Y081596D01*
X012097Y081596D01*
X012097Y082128D01*
X012097Y081596D02*
X013888Y081596D01*
X013888Y082443D01*
X013888Y083112D02*
X013888Y083958D01*
X015660Y083958D01*
X015660Y083427D01*
X015680Y083427D01*
X015660Y083958D02*
X019400Y083958D01*
X019400Y083112D01*
X019400Y082443D02*
X019400Y081596D01*
X023121Y081596D01*
X023121Y082128D01*
X023121Y081596D02*
X024912Y081596D01*
X024912Y082443D01*
X024912Y083112D02*
X024912Y083958D01*
X026684Y083958D01*
X026684Y083427D01*
X026703Y083427D01*
X026684Y083958D02*
X030424Y083958D01*
X030424Y083112D01*
X030424Y082443D02*
X030424Y081596D01*
X034144Y081596D01*
X034144Y082128D01*
X034144Y081596D02*
X035935Y081596D01*
X035935Y082443D01*
X035935Y083112D02*
X035935Y083958D01*
X037707Y083958D01*
X037707Y083427D01*
X037727Y083427D01*
X037707Y083958D02*
X041447Y083958D01*
X041447Y083112D01*
X041447Y082443D02*
X041447Y081596D01*
X045168Y081596D01*
X045168Y082128D01*
X045168Y081596D02*
X046959Y081596D01*
X046959Y082443D01*
X046959Y083112D02*
X046959Y083958D01*
X048731Y083958D01*
X048731Y083427D01*
X048750Y083427D01*
X048731Y083958D02*
X052471Y083958D01*
X052471Y083112D01*
X052471Y082443D02*
X052471Y081596D01*
X056191Y081596D01*
X056191Y082128D01*
X056191Y081596D02*
X057983Y081596D01*
X057983Y082443D01*
X057983Y083112D02*
X057983Y083958D01*
X059754Y083958D01*
X059754Y083427D01*
X059774Y083427D01*
X059754Y083958D02*
X063495Y083958D01*
X063495Y083112D01*
X063495Y082443D02*
X063495Y081596D01*
X067215Y081596D01*
X067215Y082128D01*
X067215Y081596D02*
X069006Y081596D01*
X069006Y082443D01*
X069006Y083112D02*
X069006Y083958D01*
X070778Y083958D01*
X070778Y083427D01*
X070798Y083427D01*
X070778Y083958D02*
X074518Y083958D01*
X074518Y083112D01*
X074518Y082443D02*
X074518Y081596D01*
X078239Y081596D01*
X078239Y082128D01*
X078239Y081596D02*
X080030Y081596D01*
X080030Y082443D01*
X080030Y083112D02*
X080030Y083958D01*
X081802Y083958D01*
X081802Y083427D01*
X081821Y083427D01*
X081802Y083958D02*
X085542Y083958D01*
X086684Y082777D02*
X084400Y082777D01*
X083750Y083427D01*
X083750Y082128D02*
X083750Y081596D01*
X085542Y081596D01*
X086684Y082777D02*
X087333Y082128D01*
X087156Y080021D02*
X006762Y080021D01*
X004656Y082128D01*
X003258Y083368D02*
X003258Y077856D01*
X004636Y077856D02*
X004636Y077915D01*
X004656Y077915D01*
X005187Y078446D01*
X008376Y078446D01*
X008376Y077600D01*
X008376Y076931D02*
X008376Y076084D01*
X012097Y076084D01*
X012097Y076616D01*
X012097Y076084D02*
X013888Y076084D01*
X013888Y076931D01*
X013888Y077600D02*
X013888Y078446D01*
X015660Y078446D01*
X015660Y077915D01*
X015680Y077915D01*
X015660Y078446D02*
X019400Y078446D01*
X019400Y077600D01*
X019400Y076931D02*
X019400Y076084D01*
X023121Y076084D01*
X023121Y076616D01*
X023121Y076084D02*
X024912Y076084D01*
X024912Y076931D01*
X024912Y077600D02*
X024912Y078446D01*
X026684Y078446D01*
X026684Y077915D01*
X026703Y077915D01*
X026684Y078446D02*
X030424Y078446D01*
X030424Y077600D01*
X030424Y076931D02*
X030424Y076084D01*
X034144Y076084D01*
X034144Y076616D01*
X034144Y076084D02*
X035935Y076084D01*
X035935Y076931D01*
X035935Y077600D02*
X035935Y078446D01*
X037707Y078446D01*
X037707Y077915D01*
X037727Y077915D01*
X037707Y078446D02*
X041447Y078446D01*
X041447Y077600D01*
X041447Y076931D02*
X041447Y076084D01*
X045168Y076084D01*
X045168Y076616D01*
X045168Y076084D02*
X046959Y076084D01*
X046959Y076931D01*
X046959Y077600D02*
X046959Y078446D01*
X048731Y078446D01*
X048731Y077915D01*
X048750Y077915D01*
X048731Y078446D02*
X052471Y078446D01*
X053613Y077265D02*
X051329Y077265D01*
X050680Y077915D01*
X050680Y076616D02*
X050680Y076084D01*
X052471Y076084D01*
X053613Y077265D02*
X054262Y076616D01*
X056191Y077915D02*
X056841Y077265D01*
X059124Y077265D01*
X059774Y076616D01*
X059774Y077915D02*
X059754Y077915D01*
X059754Y078446D01*
X063495Y078446D01*
X064636Y077265D02*
X062353Y077265D01*
X061703Y077915D01*
X059754Y078446D02*
X057983Y078446D01*
X057983Y081596D02*
X061703Y081596D01*
X061703Y082128D01*
X061703Y081596D02*
X063495Y081596D01*
X064636Y082777D02*
X062353Y082777D01*
X061703Y083427D01*
X063495Y083958D02*
X065266Y083958D01*
X065266Y083427D01*
X065286Y083427D01*
X065266Y083958D02*
X069006Y083958D01*
X067865Y082777D02*
X067215Y083427D01*
X067865Y082777D02*
X070148Y082777D01*
X070798Y082128D01*
X069006Y081596D02*
X072727Y081596D01*
X072727Y082128D01*
X072727Y081596D02*
X074518Y081596D01*
X073376Y082777D02*
X072727Y083427D01*
X073376Y082777D02*
X075660Y082777D01*
X076310Y082128D01*
X076310Y083427D02*
X076290Y083427D01*
X076290Y083958D01*
X080030Y083958D01*
X081172Y082777D02*
X078888Y082777D01*
X078239Y083427D01*
X076290Y083958D02*
X074518Y083958D01*
X074518Y078446D02*
X070778Y078446D01*
X070778Y077915D01*
X070798Y077915D01*
X070778Y078446D02*
X069006Y078446D01*
X067865Y077265D02*
X067215Y077915D01*
X067865Y077265D02*
X070148Y077265D01*
X070798Y076616D01*
X069006Y076084D02*
X067215Y076084D01*
X067215Y076616D01*
X067215Y076084D02*
X063495Y076084D01*
X064636Y077265D02*
X065286Y076616D01*
X065286Y082128D02*
X064636Y082777D01*
X059774Y082128D02*
X059124Y082777D01*
X056841Y082777D01*
X056191Y083427D01*
X057983Y083958D02*
X054243Y083958D01*
X054243Y083427D01*
X054262Y083427D01*
X054243Y083958D02*
X052471Y083958D01*
X053613Y082777D02*
X051329Y082777D01*
X050680Y083427D01*
X050680Y082128D02*
X050680Y081596D01*
X052471Y081596D01*
X053613Y082777D02*
X054262Y082128D01*
X050680Y081596D02*
X046959Y081596D01*
X048101Y082777D02*
X048750Y082128D01*
X048101Y082777D02*
X045817Y082777D01*
X045168Y083427D01*
X046959Y083958D02*
X043219Y083958D01*
X043219Y083427D01*
X043239Y083427D01*
X043219Y083958D02*
X041447Y083958D01*
X042589Y082777D02*
X040306Y082777D01*
X039656Y083427D01*
X039656Y082128D02*
X039656Y081596D01*
X041447Y081596D01*
X042589Y082777D02*
X043239Y082128D01*
X039656Y081596D02*
X035935Y081596D01*
X034794Y082777D02*
X034144Y083427D01*
X034794Y082777D02*
X037077Y082777D01*
X037727Y082128D01*
X035935Y083958D02*
X032195Y083958D01*
X032195Y083427D01*
X032215Y083427D01*
X032195Y083958D02*
X030424Y083958D01*
X031565Y082777D02*
X029282Y082777D01*
X028632Y083427D01*
X028632Y082128D02*
X028632Y081596D01*
X030424Y081596D01*
X031565Y082777D02*
X032215Y082128D01*
X028632Y081596D02*
X024912Y081596D01*
X026054Y082777D02*
X023770Y082777D01*
X023121Y083427D01*
X024912Y083958D02*
X021172Y083958D01*
X021172Y083427D01*
X021191Y083427D01*
X021172Y083958D02*
X019400Y083958D01*
X018258Y082777D02*
X017609Y083427D01*
X018258Y082777D02*
X020542Y082777D01*
X021191Y082128D01*
X019400Y081596D02*
X017609Y081596D01*
X017609Y082128D01*
X017609Y081596D02*
X013888Y081596D01*
X012747Y082777D02*
X012097Y083427D01*
X012747Y082777D02*
X015030Y082777D01*
X015680Y082128D01*
X013888Y083958D02*
X010148Y083958D01*
X010148Y083446D01*
X010168Y083427D01*
X010148Y083958D02*
X008376Y083958D01*
X007235Y082777D02*
X006585Y083427D01*
X007235Y082777D02*
X009518Y082777D01*
X010168Y082128D01*
X008376Y081596D02*
X007117Y081596D01*
X006585Y082128D01*
X008376Y078446D02*
X010148Y078446D01*
X010148Y077935D01*
X010168Y077915D01*
X010148Y078446D02*
X013888Y078446D01*
X012747Y077265D02*
X012097Y077915D01*
X012747Y077265D02*
X015030Y077265D01*
X015680Y076616D01*
X013888Y076084D02*
X017609Y076084D01*
X017609Y076616D01*
X017609Y076084D02*
X019400Y076084D01*
X018258Y077265D02*
X017609Y077915D01*
X018258Y077265D02*
X020542Y077265D01*
X021191Y076616D01*
X021191Y077915D02*
X021172Y077915D01*
X021172Y078446D01*
X024912Y078446D01*
X026054Y077265D02*
X023770Y077265D01*
X023121Y077915D01*
X021172Y078446D02*
X019400Y078446D01*
X024912Y076084D02*
X028632Y076084D01*
X028632Y076616D01*
X028632Y076084D02*
X030424Y076084D01*
X031565Y077265D02*
X029282Y077265D01*
X028632Y077915D01*
X030424Y078446D02*
X032195Y078446D01*
X032195Y077915D01*
X032215Y077915D01*
X032195Y078446D02*
X035935Y078446D01*
X034794Y077265D02*
X034144Y077915D01*
X034794Y077265D02*
X037077Y077265D01*
X037727Y076616D01*
X035935Y076084D02*
X039656Y076084D01*
X039656Y076616D01*
X039656Y076084D02*
X041447Y076084D01*
X042589Y077265D02*
X040306Y077265D01*
X039656Y077915D01*
X041447Y078446D02*
X043219Y078446D01*
X043219Y077915D01*
X043239Y077915D01*
X043219Y078446D02*
X046959Y078446D01*
X048101Y077265D02*
X045817Y077265D01*
X045168Y077915D01*
X043239Y076616D02*
X042589Y077265D01*
X046959Y076084D02*
X050680Y076084D01*
X048750Y076616D02*
X048101Y077265D01*
X048101Y071754D02*
X048750Y071104D01*
X046959Y067423D02*
X043219Y067423D01*
X043219Y066891D01*
X043239Y066891D01*
X043219Y067423D02*
X041447Y067423D01*
X042589Y066242D02*
X040306Y066242D01*
X039656Y066891D01*
X039656Y065592D02*
X039656Y065061D01*
X041447Y065061D01*
X042589Y066242D02*
X043239Y065592D01*
X045168Y066891D02*
X045817Y066242D01*
X048101Y066242D01*
X048750Y065592D01*
X039656Y065061D02*
X035935Y065061D01*
X034794Y066242D02*
X034144Y066891D01*
X034794Y066242D02*
X037077Y066242D01*
X037727Y065592D01*
X035935Y067423D02*
X032195Y067423D01*
X032195Y066891D01*
X032215Y066891D01*
X032195Y067423D02*
X030424Y067423D01*
X031565Y066242D02*
X029282Y066242D01*
X028632Y066891D01*
X028632Y065592D02*
X028632Y065061D01*
X030424Y065061D01*
X031565Y066242D02*
X032215Y065592D01*
X028632Y065061D02*
X024912Y065061D01*
X026054Y066242D02*
X026703Y065592D01*
X026703Y071104D02*
X026054Y071754D01*
X026703Y076616D02*
X026054Y077265D01*
X026703Y082128D02*
X026054Y082777D01*
X026703Y087639D02*
X026054Y088289D01*
X031565Y077265D02*
X032215Y076616D01*
X013888Y056399D02*
X010148Y056399D01*
X010148Y055887D01*
X010168Y055868D01*
X010148Y056399D02*
X008376Y056399D01*
X008376Y055553D01*
X008376Y054883D02*
X008376Y054037D01*
X012097Y054037D01*
X012097Y054569D01*
X012097Y054037D02*
X013888Y054037D01*
X012747Y055218D02*
X012097Y055868D01*
X012747Y055218D02*
X015030Y055218D01*
X015680Y054569D01*
X010168Y054569D02*
X009518Y055218D01*
X007235Y055218D01*
X006585Y055868D01*
X006585Y054569D02*
X007117Y054037D01*
X008376Y054037D01*
X008376Y056399D02*
X005187Y056399D01*
X004656Y055868D01*
X004636Y055868D01*
X004636Y055809D01*
X003258Y055809D02*
X003258Y061320D01*
X004656Y060080D02*
X006762Y057974D01*
X006585Y044844D02*
X007235Y044194D01*
X009518Y044194D01*
X010168Y043545D01*
X008376Y043013D02*
X007117Y043013D01*
X006585Y043545D01*
X006585Y017285D02*
X007235Y016635D01*
X009518Y016635D01*
X010168Y015986D01*
X008376Y015454D02*
X007117Y015454D01*
X006585Y015986D01*
X008376Y006793D02*
X010148Y006793D01*
X026054Y005612D02*
X026703Y004962D01*
X032215Y010474D02*
X031565Y011124D01*
X042589Y011124D02*
X043239Y010474D01*
X048101Y005612D02*
X048750Y004962D01*
X081172Y005612D02*
X081821Y004962D01*
X092432Y010789D02*
X092432Y016242D01*
X081821Y060080D02*
X081172Y060730D01*
X086684Y066242D02*
X087333Y065592D01*
X092432Y071360D02*
X092432Y076872D01*
X091054Y076931D02*
X090207Y076084D01*
X089262Y076084D01*
X089262Y076616D01*
X089262Y076084D02*
X085542Y076084D01*
X086684Y077265D02*
X084400Y077265D01*
X083750Y077915D01*
X085542Y078446D02*
X081802Y078446D01*
X081802Y077915D01*
X081821Y077915D01*
X081802Y078446D02*
X080030Y078446D01*
X081172Y077265D02*
X078888Y077265D01*
X078239Y077915D01*
X078239Y076616D02*
X078239Y076084D01*
X080030Y076084D01*
X081172Y077265D02*
X081821Y076616D01*
X078239Y076084D02*
X074518Y076084D01*
X073376Y077265D02*
X072727Y077915D01*
X073376Y077265D02*
X075660Y077265D01*
X076310Y076616D01*
X080030Y081596D02*
X083750Y081596D01*
X081821Y082128D02*
X081172Y082777D01*
X081821Y087639D02*
X081172Y088289D01*
X087156Y080021D02*
X089262Y077915D01*
X087333Y076616D02*
X086684Y077265D01*
X081172Y071754D02*
X081821Y071104D01*
X090207Y087108D02*
X091054Y087954D01*
X059774Y087639D02*
X059124Y088289D01*
X048101Y049706D02*
X048750Y049057D01*
X010168Y076616D02*
X009518Y077265D01*
X007235Y077265D01*
X006585Y077915D01*
X006585Y076616D02*
X007117Y076084D01*
X008376Y076084D01*
M02*
